/* XPM */
static const char * icon_log_xpm[] = {
"24 24 120 2",
"  	c None",
". 	c #F5F0FD",
"+ 	c #EEE4FF",
"@ 	c #EADFFF",
"# 	c #E7DAFF",
"$ 	c #E3D4FF",
"% 	c #DFCFFF",
"& 	c #DCCAFF",
"* 	c #D8C4FF",
"= 	c #D5BFFF",
"- 	c #D1BAFF",
"; 	c #CDB5FF",
"> 	c #C9AEFF",
", 	c #D1BDF9",
"' 	c #EFE6FC",
") 	c #E3D2FF",
"! 	c #D7C1FF",
"~ 	c #D1B8FF",
"{ 	c #CAAFFF",
"] 	c #C5A7FF",
"^ 	c #BE9EFF",
"/ 	c #B894FF",
"( 	c #B28CFF",
"_ 	c #AB83FF",
": 	c #A478FF",
"< 	c #B999FB",
"[ 	c #EBEAEE",
"} 	c #EFE8FA",
"| 	c #E5D7FC",
"1 	c #E0D1FC",
"2 	c #DBCAFC",
"3 	c #D6C3FC",
"4 	c #D1BBFC",
"5 	c #CCB5FC",
"6 	c #C8ADFC",
"7 	c #C3A6FC",
"8 	c #BE9FFC",
"9 	c #B898FB",
"0 	c #B08CF9",
"a 	c #BEA3F4",
"b 	c #F5F4F7",
"c 	c #ECECEC",
"d 	c #F1F0F2",
"e 	c #ECEBEF",
"f 	c #ECEAEF",
"g 	c #EBE9EF",
"h 	c #EAE8EF",
"i 	c #EAE7EF",
"j 	c #E9E7EF",
"k 	c #E9E6EF",
"l 	c #E7E3ED",
"m 	c #DAD7E1",
"n 	c #D5D3DA",
"o 	c #F9F9F9",
"p 	c #FCFCFC",
"q 	c #EEEEEE",
"r 	c #F3F3F3",
"s 	c #F0F0F0",
"t 	c #EFEFEF",
"u 	c #E5E5E5",
"v 	c #DADAD9",
"w 	c #FBFBFB",
"x 	c #F8F8F8",
"y 	c #E7E7E7",
"z 	c #F1F1F1",
"A 	c #EDEDED",
"B 	c #E0E0E0",
"C 	c #D8D8D8",
"D 	c #D4D4D4",
"E 	c #D0D0D0",
"F 	c #CCCCCC",
"G 	c #CDCDCD",
"H 	c #F5F5F5",
"I 	c #F4F4F4",
"J 	c #E3E3E3",
"K 	c #D9D9D9",
"L 	c #D3D3D3",
"M 	c #D7D7D7",
"N 	c #F6F6F6",
"O 	c #F7F7F7",
"P 	c #E8E8E8",
"Q 	c #E4E4E4",
"R 	c #FAFAFA",
"S 	c #EBEBEB",
"T 	c #B9B9B9",
"U 	c #BDBDBD",
"V 	c #B4B4B4",
"W 	c #B6B6B6",
"X 	c #B8B8B8",
"Y 	c #BBBBBB",
"Z 	c #BEBEBE",
"` 	c #BFBFBF",
" .	c #DCDCDC",
"..	c #DEDEDE",
"+.	c #DFDFDF",
"@.	c #DBDBDB",
"#.	c #DDDDDD",
"$.	c #E1E1E1",
"%.	c #FDFDFD",
"&.	c #FEFEFE",
"*.	c #FFFFFF",
"=.	c #F2F2F2",
"-.	c #C5C5C5",
";.	c #C9C9C9",
">.	c #C0C0C0",
",.	c #C2C2C2",
"'.	c #C3C3C3",
").	c #C4C4C4",
"!.	c #C6C6C6",
"~.	c #C8C8C8",
"{.	c #CACACA",
"].	c #E6E6E6",
"^.	c #E9E9E9",
"/.	c #BCBCBC",
"(.	c #B5B5B5",
"_.	c #B7B7B7",
":.	c #C1C1C1",
"<.	c #DADADA",
"[.	c #E2E2E2",
"}.	c #CFCFCF",
"                                                ",
"      . + @ # $ % & * = - ; > ,                 ",
"      ' ) & ! ~ { ] ^ / ( _ : < [               ",
"      } | 1 2 3 4 5 6 7 8 9 0 a b c             ",
"      d e e f g g h i j k l m n o p q           ",
"      r s s s s s s s s s t u v r w x y         ",
"      r z z z z z z z z z z A B C D E F G       ",
"      H I I H I I H H H H H I q J K L E M       ",
"      N O N I N O I I I I I I I t P u Q y       ",
"      O R S T c r U V W X T Y U Z `  .H r       ",
"      x p I ..H x +.@. .#.....+.B $.s %.x       ",
"      R &.&.*.&.&.*.*.*.*.*.*.*.*.*.&.&.o       ",
"      R *.*.%.*.*.%.%.%.%.&.&.&.&.&.*.*.o       ",
"      R *.=.-.r o ;.>.,.'.).!.~.;.{.P *.o       ",
"      R *.R y R %.P u ].].y P P ^.^.N *.x       ",
"      R *.*.*.*.*.*.*.*.*.*.*.*.*.*.*.*.x       ",
"      o *.&.%.*.*.%.%.%.%.%.%.%.%.%.&.*.O       ",
"      o *.s /.z o >.(._.X Y /.U ` :.Q *.H       ",
"      o *.O <.O p  .M C C <.@.@. .#.s *.I       ",
"      o *.*.*.*.*.*.*.*.*.*.*.*.*.*.*.*.r       ",
"      o *.*.*.*.*.*.*.*.*.*.*.*.*.*.*.*.=.      ",
"      x *.*.*.*.*.*.*.*.*.*.*.*.*.*.*.*.z       ",
"      +.^.P y ].].u Q J [.[.$.B +.....#.}.      ",
"                                                "};
