/* XPM */
static const char * icon_load_xpm[] = {
"24 24 339 2",
"  	c None",
". 	c #C7C7C7",
"+ 	c #CACBCB",
"@ 	c #DFE1E0",
"# 	c #E3E5E4",
"$ 	c #C5C5C5",
"% 	c #CFD1D0",
"& 	c #EEF0EF",
"* 	c #F4F6F5",
"= 	c #F2F5F4",
"- 	c #D8DAD9",
"; 	c #4275CC",
"> 	c #5486D2",
", 	c #5385D1",
"' 	c #5284D1",
") 	c #5183D0",
"! 	c #4F81D0",
"~ 	c #DDDEDD",
"{ 	c #F7F8F8",
"] 	c #F3F5F4",
"^ 	c #F1F3F2",
"/ 	c #CCCDCD",
"( 	c #D3F8FF",
"_ 	c #D8FBFF",
": 	c #D9FDFF",
"< 	c #DAFEFF",
"[ 	c #DBFEFF",
"} 	c #D0F5FF",
"| 	c #6F9EDC",
"1 	c #9CABC2",
"2 	c #D4D4D3",
"3 	c #E9EAE9",
"4 	c #F6F7F6",
"5 	c #F4F5F4",
"6 	c #F3F6F5",
"7 	c #F5F7F6",
"8 	c #ECEEED",
"9 	c #C7C8C7",
"0 	c #CCF2FD",
"a 	c #CFF4FE",
"b 	c #CFF4FF",
"c 	c #D0F4FE",
"d 	c #CEF2FB",
"e 	c #C2CBD0",
"f 	c #DEE1E1",
"g 	c #F3F5F3",
"h 	c #F5F7F5",
"i 	c #F4F7F5",
"j 	c #F3F5F5",
"k 	c #E8E9E8",
"l 	c #9FADC4",
"m 	c #CDF2FD",
"n 	c #CFF5FF",
"o 	c #CFF3FE",
"p 	c #CCE5EC",
"q 	c #EBECEA",
"r 	c #F6F7F5",
"s 	c #F6F6F4",
"t 	c #F5F6F5",
"u 	c #F5F5F5",
"v 	c #F5F6F4",
"w 	c #D6D7DA",
"x 	c #7895C7",
"y 	c #CDF3FD",
"z 	c #CEEFF7",
"A 	c #CBD7DB",
"B 	c #DCDCDB",
"C 	c #F3F4F2",
"D 	c #F7F8F6",
"E 	c #F4F6F4",
"F 	c #F7F8F5",
"G 	c #E6EBF1",
"H 	c #DAE2ED",
"I 	c #D8E1ED",
"J 	c #D4DCE9",
"K 	c #B3BBCA",
"L 	c #CEF3FD",
"M 	c #CAD9DD",
"N 	c #E4E5E2",
"O 	c #F9FAF5",
"P 	c #F9F9F5",
"Q 	c #F8F9F5",
"R 	c #F8F8F5",
"S 	c #FBFBF6",
"T 	c #C3D3E9",
"U 	c #5887D6",
"V 	c #6493DF",
"W 	c #6393DF",
"X 	c #6193E1",
"Y 	c #5D91DF",
"Z 	c #538CE0",
"` 	c #4E89E1",
" .	c #3E74CC",
"..	c #CEF4FD",
"+.	c #BCC7D4",
"@.	c #B2C6E5",
"#.	c #B2C6E6",
"$.	c #B3C6E6",
"%.	c #B4C7E6",
"&.	c #B5C8E7",
"*.	c #B6C9E7",
"=.	c #B7C9E7",
"-.	c #B8CAE8",
";.	c #BACCE8",
">.	c #A4BCE3",
",.	c #4D81D7",
"'.	c #8EBDFE",
").	c #8CBCFF",
"!.	c #84B9FF",
"~.	c #7DB6FF",
"{.	c #77B2FF",
"].	c #6CACFE",
"^.	c #4078DC",
"/.	c #386BC8",
"(.	c #CFF4FD",
"_.	c #CBF1FD",
":.	c #77A1DC",
"<.	c #9AB0E7",
"[.	c #A0B6EC",
"}.	c #9AB4EC",
"|.	c #95B1EC",
"1.	c #90AEEC",
"2.	c #8AACEC",
"3.	c #85A9EB",
"4.	c #7FA7EB",
"5.	c #7AA3EB",
"6.	c #76A2EB",
"7.	c #98C1FE",
"8.	c #91BEFE",
"9.	c #8ABAFF",
"0.	c #83B7FF",
"a.	c #80B8FF",
"b.	c #6AA4F7",
"c.	c #2F61CF",
"d.	c #1D4ABB",
"e.	c #CEF4FE",
"f.	c #BFE6F9",
"g.	c #7FA0E0",
"h.	c #D4D9F8",
"i.	c #D5DBFD",
"j.	c #CFD9FE",
"k.	c #C8D6FE",
"l.	c #C2D3FE",
"m.	c #BAD0FE",
"n.	c #B3CDFE",
"o.	c #ADCAFE",
"p.	c #A6C6FE",
"q.	c #9EC3FE",
"r.	c #97C0FE",
"s.	c #91BDFE",
"t.	c #8BBBFF",
"u.	c #85BAFF",
"v.	c #5689E5",
"w.	c #1A47BF",
"x.	c #0C36B5",
"y.	c #2655BF",
"z.	c #CFF5FE",
"A.	c #D2F6FF",
"B.	c #94BEE8",
"C.	c #A2B6EB",
"D.	c #D8DFFF",
"E.	c #D1D7F9",
"F.	c #CDD7FC",
"G.	c #C3D2FC",
"H.	c #BBCDFB",
"I.	c #B3CAFB",
"J.	c #ACC7FB",
"K.	c #A6C4FB",
"L.	c #A0C1FB",
"M.	c #98BDFB",
"N.	c #90B9FA",
"O.	c #88B4F9",
"P.	c #6E9CEE",
"Q.	c #325FCC",
"R.	c #0F3AB6",
"S.	c #103BB8",
"T.	c #2D5FC3",
"U.	c #D5F9FF",
"V.	c #5D8AD4",
"W.	c #D9DDFC",
"X.	c #D4DBFD",
"Y.	c #B1BFF1",
"Z.	c #98AAE7",
"`.	c #859DE3",
" +	c #7692DF",
".+	c #6B89DD",
"++	c #6385DB",
"@+	c #5D7FD9",
"#+	c #577CD8",
"$+	c #4D74D4",
"%+	c #416AD0",
"&+	c #2C57C6",
"*+	c #1B46BC",
"=+	c #1843BB",
"-+	c #1440BA",
";+	c #103BB7",
">+	c #113CB7",
",+	c #3B6EC9",
"'+	c #A1CBED",
")+	c #83A0E0",
"!+	c #D6D8FB",
"~+	c #99A9E6",
"{+	c #859AE1",
"]+	c #778EDC",
"^+	c #6F8ADA",
"/+	c #6582D7",
"(+	c #5B7BD5",
"_+	c #5073D3",
":+	c #476BCF",
"<+	c #3E64CC",
"[+	c #355DC8",
"}+	c #2D56C5",
"|+	c #264FC2",
"1+	c #1F4ABF",
"2+	c #1A45BC",
"3+	c #143FB9",
"4+	c #0F39B6",
"5+	c #1B47BB",
"6+	c #D6FBFF",
"7+	c #5B8DD4",
"8+	c #C7CEF3",
"9+	c #A5B1E8",
"0+	c #97A8E4",
"a+	c #8CA0E2",
"b+	c #8197DF",
"c+	c #7790DB",
"d+	c #6F8AD9",
"e+	c #6683D7",
"f+	c #5B7CD5",
"g+	c #5274D1",
"h+	c #4A6DCE",
"i+	c #4065CA",
"j+	c #385FC8",
"k+	c #3259C5",
"l+	c #2B54C1",
"m+	c #264EBF",
"n+	c #2048BB",
"o+	c #1B42B9",
"p+	c #2C5BC2",
"q+	c #5082D0",
"r+	c #B5DEF6",
"s+	c #7EA2DC",
"t+	c #F2F7FB",
"u+	c #E7EEF7",
"v+	c #E4EAF6",
"w+	c #E1E8F4",
"x+	c #DCE4F2",
"y+	c #D8E0EF",
"z+	c #D4DCEE",
"A+	c #D0D9EC",
"B+	c #CBD5EB",
"C+	c #C6D1E8",
"D+	c #C1CCE6",
"E+	c #BDC7E3",
"F+	c #B7C4E2",
"G+	c #B3BFDF",
"H+	c #AFBADD",
"I+	c #AAB7DB",
"J+	c #A5B2D8",
"K+	c #A5AFD6",
"L+	c #3F71CA",
"M+	c #83B0E3",
"N+	c #D0DEF2",
"O+	c #F5FBFC",
"P+	c #F2F8FA",
"Q+	c #F0F5F9",
"R+	c #EFF3F7",
"S+	c #EBF0F5",
"T+	c #E8EDF3",
"U+	c #E3E8F0",
"V+	c #DFE4EE",
"W+	c #DCE2EC",
"X+	c #D8DEEB",
"Y+	c #D4D9E7",
"Z+	c #D0D7E7",
"`+	c #CDD3E5",
" @	c #C9CFE2",
".@	c #C5CCE0",
"+@	c #C3C9DE",
"@@	c #A5B4D9",
"#@	c #346BC8",
"$@	c #7EA5DE",
"%@	c #EAF3F9",
"&@	c #F4FAFB",
"*@	c #F3F8F9",
"=@	c #EEF3F6",
"-@	c #EBF1F6",
";@	c #E5EAF1",
">@	c #E1E7F0",
",@	c #DFE4EF",
"'@	c #DBE1EC",
")@	c #D7DDEB",
"!@	c #D3D9E8",
"~@	c #D0D6E6",
"{@	c #CCD2E4",
"]@	c #C8CEE3",
"^@	c #C4CBE0",
"/@	c #C5CADF",
"(@	c #7A98D3",
"_@	c #376AC7",
":@	c #9FBBE5",
"<@	c #FBFFFE",
"[@	c #FAFFFD",
"}@	c #F8FCFB",
"|@	c #F5F9FA",
"1@	c #F4F7F8",
"2@	c #F0F4F7",
"3@	c #EDF1F4",
"4@	c #EAEEF3",
"5@	c #E4E7F0",
"6@	c #E0E4ED",
"7@	c #DBE0EC",
"8@	c #D8DCE9",
"9@	c #D0D5E5",
"0@	c #CCD0E3",
"a@	c #C8CEE1",
"b@	c #C8CCDF",
"c@	c #5581CD",
"d@	c #3E70CA",
"e@	c #88A9DF",
"f@	c #A7C0E7",
"g@	c #A7BFE6",
"h@	c #A5BFE5",
"i@	c #A4BDE5",
"j@	c #A4BDE4",
"k@	c #A2BBE3",
"l@	c #A2B9E2",
"m@	c #A0B8E1",
"n@	c #9EB6E0",
"o@	c #9EB5DF",
"p@	c #9CB4DF",
"q@	c #9BB2DE",
"r@	c #99B1DD",
"s@	c #98AFDB",
"t@	c #97AEDB",
"u@	c #95ACD9",
"v@	c #93AAD8",
"w@	c #89A3D5",
"x@	c #4576CB",
"                              .                 ",
"                          + @ # $               ",
"                        % & * = -               ",
"; > , ' ) ) !       . ~ { * ] * ^ /             ",
"! ( _ : < [ } | 1 2 3 4 5 6 * ] 7 8 9           ",
"! 0 a b b c d e f g h i * j 6 6 ] * k l         ",
"! m a n o p / q r s r r t u u t t t v w x       ",
"! y a z A B C D v r r h t * E F G H I J K       ",
"! L n M N O O P Q Q Q R R F S T U V W X Y Z `  .",
"! ..a z +.@.#.$.%.&.*.=.-.;.>.,.'.).!.~.{.].^./.",
"! ..(._.:.<.[.}.|.1.2.3.4.5.6.7.8.9.0.a.b.c.d.  ",
"! e.(.f.g.h.i.j.k.l.m.n.o.p.q.r.s.t.u.v.w.x.y.  ",
"! z.A.B.C.D.E.F.G.H.I.J.K.L.M.N.O.P.Q.R.S.R.T.  ",
"! z.U.V.W.X.Y.Z.`. +.+++@+#+$+%+&+*+=+-+;+>+,+  ",
"! ( '+)+!+~+{+]+^+/+(+_+:+<+[+}+|+1+2+3+4+5+    ",
"! 6+7+8+9+0+a+b+c+d+e+f+g+h+i+j+k+l+m+n+o+p+    ",
"q+r+s+t+u+v+w+x+y+z+A+B+C+D+E+F+G+H+I+J+K+L+    ",
"q+M+N+O+P+Q+R+S+T+G U+V+W+X+Y+Z+`+ @.@+@@@#@    ",
"; $@%@&@*@Q+=@-@T+;@>@,@'@)@!@~@{@]@^@/@(@      ",
"_@:@<@[@}@|@1@2@3@4@G 5@6@7@8@Y+9@0@a@b@c@      ",
"d@e@f@g@h@i@j@k@l@m@n@o@p@q@r@s@t@u@v@w@x@      ",
"                                                ",
"                                                ",
"                                                "};
