/* XPM */
static const char * icon_save_xpm[] = {
"24 24 243 2",
"  	c None",
". 	c #458C45",
"+ 	c #468C46",
"@ 	c #3F873F",
"# 	c #559855",
"$ 	c #A5CDA5",
"% 	c #A8CEA7",
"& 	c #A9CFA8",
"* 	c #90C18F",
"= 	c #59A256",
"- 	c #B2DBAF",
"; 	c #B6DDB2",
"> 	c #B7DDB4",
", 	c #9BCE98",
"' 	c #55A44C",
") 	c #A2D699",
"! 	c #A5D89C",
"~ 	c #A6D89D",
"{ 	c #8ECA85",
"] 	c #50A63F",
"^ 	c #94D484",
"/ 	c #97D686",
"( 	c #97D786",
"_ 	c #97D687",
": 	c #83CA72",
"< 	c #328C20",
"[ 	c #53984A",
"} 	c #71B064",
"| 	c #71B15F",
"1 	c #65BC4A",
"2 	c #87D46D",
"3 	c #8AD66F",
"4 	c #8BD86F",
"5 	c #8BD76F",
"6 	c #8AD670",
"7 	c #7BCD61",
"8 	c #64B44D",
"9 	c #73B164",
"0 	c #69AA5F",
"a 	c #4BA236",
"b 	c #80CC6B",
"c 	c #8BD474",
"d 	c #7CD25C",
"e 	c #7ED65A",
"f 	c #81D95A",
"g 	c #82DA5A",
"h 	c #80D85B",
"i 	c #7BD358",
"j 	c #83D367",
"k 	c #88D173",
"l 	c #6BBF56",
"m 	c #30831E",
"n 	c #389D13",
"o 	c #60CA35",
"p 	c #70D544",
"q 	c #75DA45",
"r 	c #7BDE49",
"s 	c #7EDF4C",
"t 	c #7DDF4A",
"u 	c #76DC43",
"v 	c #6CD63B",
"w 	c #5BCC2B",
"x 	c #44B716",
"y 	c #207F04",
"z 	c #93914D",
"A 	c #6ABB28",
"B 	c #5AD61C",
"C 	c #68DB2B",
"D 	c #78DF41",
"E 	c #7FE049",
"F 	c #7ADF42",
"G 	c #68DB2A",
"H 	c #50D50C",
"I 	c #4BCA07",
"J 	c #75A72E",
"K 	c #AB925F",
"L 	c #C3A169",
"M 	c #B29159",
"N 	c #9B9147",
"O 	c #72BB29",
"P 	c #72DD36",
"Q 	c #84E250",
"R 	c #8FE45F",
"S 	c #8BE35A",
"T 	c #79E042",
"U 	c #6BD529",
"V 	c #81A530",
"W 	c #AB8E51",
"X 	c #B39259",
"Y 	c #CFAB73",
"Z 	c #CEA66B",
"` 	c #A8854E",
" .	c #8F6C34",
"..	c #916D36",
"+.	c #897434",
"@.	c #87A845",
"#.	c #A5E47A",
"$.	c #B4ED90",
"%.	c #AEEC89",
"&.	c #96D263",
"*.	c #848D37",
"=.	c #8E6D34",
"-.	c #916E36",
";.	c #8F6D34",
">.	c #BA975F",
",.	c #D0A96F",
"'.	c #CBA56C",
").	c #8E6732",
"!.	c #7C5724",
"~.	c #7D5824",
"{.	c #7C5623",
"].	c #755522",
"^.	c #97A162",
"/.	c #CFF1B7",
"(.	c #BFDD9E",
"_.	c #82793E",
":.	c #775221",
"<.	c #7D5723",
"[.	c #9C753D",
"}.	c #CDA970",
"|.	c #BE9962",
"1.	c #7D5624",
"2.	c #724E20",
"3.	c #755223",
"4.	c #745122",
"5.	c #705427",
"6.	c #928F64",
"7.	c #817349",
"8.	c #6E4D20",
"9.	c #765223",
"0.	c #8A612C",
"a.	c #C5A067",
"b.	c #CBA56B",
"c.	c #D4AE74",
"d.	c #C6A46E",
"e.	c #C4A36F",
"f.	c #CAA974",
"g.	c #CAAA75",
"h.	c #CAA975",
"i.	c #C3A471",
"j.	c #C6A673",
"k.	c #C9A772",
"l.	c #C9A66F",
"m.	c #C9A66E",
"n.	c #C7A46C",
"o.	c #CDA76D",
"p.	c #D5AD70",
"q.	c #C4A16A",
"r.	c #C39659",
"s.	c #CD924B",
"t.	c #C88F49",
"u.	c #C78E48",
"v.	c #CB9149",
"w.	c #CB914A",
"x.	c #CB924A",
"y.	c #CC924B",
"z.	c #CC924A",
"A.	c #CC934C",
"B.	c #C68F49",
"C.	c #CD944D",
"D.	c #CE964F",
"E.	c #BA935B",
"F.	c #C19456",
"G.	c #CC944D",
"H.	c #BB8442",
"I.	c #AE7532",
"J.	c #B07733",
"K.	c #AF7733",
"L.	c #B07834",
"M.	c #B17935",
"N.	c #B17835",
"O.	c #B17834",
"P.	c #B07734",
"Q.	c #B17937",
"R.	c #C8934F",
"S.	c #CC9651",
"T.	c #BC9053",
"U.	c #D19A53",
"V.	c #C38E4D",
"W.	c #B7813F",
"X.	c #B98341",
"Y.	c #B98240",
"Z.	c #B88240",
"`.	c #BA8443",
" +	c #D09D59",
".+	c #D39D56",
"++	c #B98D50",
"@+	c #D49F58",
"#+	c #CF9955",
"$+	c #CB924C",
"%+	c #CC944E",
"&+	c #CB944D",
"*+	c #CB934C",
"=+	c #CB924B",
"-+	c #CB934D",
";+	c #D5A35E",
">+	c #D39F5A",
",+	c #B78A4D",
"'+	c #D7A45E",
")+	c #D09E5C",
"!+	c #CB9754",
"~+	c #CC9956",
"{+	c #CC9955",
"]+	c #CD9A57",
"^+	c #D8A865",
"/+	c #D3A05B",
"(+	c #D9A965",
"_+	c #D4A361",
":+	c #D19F5B",
"<+	c #D2A05C",
"[+	c #D19F5C",
"}+	c #D1A05D",
"|+	c #DAAC69",
"1+	c #D7A763",
"2+	c #D6A968",
"3+	c #D3A563",
"4+	c #D4A765",
"5+	c #D4A766",
"6+	c #DCB06F",
"7+	c #CF9E5B",
"8+	c #D0A15E",
"9+	c #DDB475",
"0+	c #E0B97A",
"a+	c #E1BB7B",
"b+	c #E1BB7C",
"c+	c #E2BC7D",
"d+	c #E1BA7B",
"e+	c #DCB271",
"f+	c #C89856",
"g+	c #BF8C4B",
"h+	c #C89B5B",
"i+	c #CA9D5E",
"j+	c #CB9F60",
"k+	c #CCA164",
"l+	c #CDA365",
"m+	c #CEA467",
"n+	c #CDA265",
"o+	c #CDA264",
"p+	c #CEA366",
"q+	c #CDA163",
"r+	c #CA9F61",
"s+	c #C8995A",
"t+	c #B78446",
"                  . + + + + @                   ",
"                # $ % % % & *                   ",
"                = - ; ; ; > ,                   ",
"                ' ) ! ! ! ~ {                   ",
"                ] ^ / ( / _ : <                 ",
"          [ } | 1 2 3 4 5 6 7 8 9 0             ",
"          a b c d e f g g h i j k l m           ",
"            n o p q r s t u v w x y             ",
"            z A B C D E F G H I J K             ",
"          L M N O P Q R S T U V W X Y           ",
"        Z `  ...+.@.#.$.%.&.*.=.-.;.>.,.        ",
"        '.).!.~.{.].^./.(._.:.~.~.<.[.}.        ",
"        |.1.2.3.3.4.5.6.7.8.3.3.3.9.0.a.        ",
"      b.c.d.e.f.g.g.h.i.j.k.l.l.m.n.o.p.q.      ",
"      r.s.t.u.v.w.x.x.y.y.z.z.y.A.B.C.D.E.      ",
"      F.G.H.I.J.J.K.K.L.M.N.O.O.P.Q.R.S.        ",
"      T.U.V.W.X.X.X.X.X.Y.Z.Z.Z.Y.`. +.+        ",
"      ++@+#+$+%+%+&+*+=+=+=+=+=+=+-+;+>+        ",
"      ,+'+)+!+~+~+~+{+{+{+{+{+{+{+]+^+/+        ",
"        (+_+ +:+:+:+:+:+:+:+:+<+[+}+|+:+        ",
"        1+2+3+4+4+4+4+4+4+4+4+4+4+5+6+7+        ",
"        8+9+0+a+b+b+c+b+b+c+b+b+b+d+e+f+        ",
"        g+h+i+j+k+l+m+n+o+p+l+o+q+r+s+t+        ",
"                                                "};
