/* XPM */
static const char * main_icon_xpm[] = {
"32 32 168 2",
"  	c None",
". 	c #6432E1",
"+ 	c #6736DC",
"@ 	c #6432E0",
"# 	c #6839D9",
"$ 	c #6534DF",
"% 	c #6F43D0",
"& 	c #8A6FA9",
"* 	c #6C3FD4",
"= 	c #693AD9",
"- 	c #9B8B8F",
"; 	c #947F9A",
"> 	c #805FB7",
", 	c #C9D34D",
"' 	c #B7B667",
") 	c #A49982",
"! 	c #D6E83B",
"~ 	c #CDDB46",
"{ 	c #C3CA56",
"] 	c #D5E63C",
"^ 	c #D2E240",
"/ 	c #1D1D1D",
"( 	c #262626",
"_ 	c #19171C",
": 	c #121115",
"< 	c #323235",
"[ 	c #303031",
"} 	c #404040",
"| 	c #CDCDCD",
"1 	c #131313",
"2 	c #222125",
"3 	c #CDD948",
"4 	c #776E8C",
"5 	c #665B82",
"6 	c #B8AED1",
"7 	c #EDE8FB",
"8 	c #FAF8FE",
"9 	c #FFFFFF",
"0 	c #000000",
"a 	c #403F40",
"b 	c #C5C2CE",
"c 	c #B8B865",
"d 	c #9B8A90",
"e 	c #9D7DEC",
"f 	c #A385ED",
"g 	c #C8B7F4",
"h 	c #FDFDFE",
"i 	c #171717",
"j 	c #727272",
"k 	c #FDFCFE",
"l 	c #EAE4FB",
"m 	c #B8A1F1",
"n 	c #7954C1",
"o 	c #6E43D1",
"p 	c #764AE4",
"q 	c #E0D6F9",
"r 	c #FBFAFE",
"s 	c #1A1A1A",
"t 	c #323232",
"u 	c #7D7D7D",
"v 	c #BEBEBE",
"w 	c #BFBFBF",
"x 	c #808080",
"y 	c #8159E6",
"z 	c #6B6B6B",
"A 	c #2E2E2E",
"B 	c #303030",
"C 	c #313131",
"D 	c #323233",
"E 	c #333236",
"F 	c #413F46",
"G 	c #D4E53D",
"H 	c #FEFEFE",
"I 	c #191919",
"J 	c #F4F0FC",
"K 	c #D6C9F7",
"L 	c #AF95EF",
"M 	c #393939",
"N 	c #7F7F7F",
"O 	c #CAC9CD",
"P 	c #C1BBCF",
"Q 	c #D8CCF7",
"R 	c #CEBFF5",
"S 	c #BFC35C",
"T 	c #F3EFFC",
"U 	c #676767",
"V 	c #F2EEFC",
"W 	c #E4DCF9",
"X 	c #DCD1F8",
"Y 	c #4F4F4F",
"Z 	c #2F2F2F",
"` 	c #CAB9F4",
" .	c #9877EB",
"..	c #855EE7",
"+.	c #968297",
"@.	c #FCFBFE",
"#.	c #D3D3D3",
"$.	c #EAE3FB",
"%.	c #AC92EF",
"&.	c #7346E3",
"*.	c #6635DD",
"=.	c #C8B6F4",
"-.	c #F8F6FD",
";.	c #ECE6FB",
">.	c #B198EF",
",.	c #774BE4",
"'.	c #6A3AE2",
").	c #8761E7",
"!.	c #CBBAF5",
"~.	c #F9F7FD",
"{.	c #666666",
"].	c #F5F2FD",
"^.	c #D1C2F6",
"/.	c #A588ED",
"(.	c #926FEA",
"_.	c #B49CF0",
":.	c #E2D9F9",
"<.	c #040404",
"[.	c #080808",
"}.	c #CACACA",
"|.	c #F1EDFC",
"1.	c #DACEF7",
"2.	c #E8E1FA",
"3.	c #F7F4FD",
"4.	c #D5E73B",
"5.	c #4D4D4D",
"6.	c #CBD64A",
"7.	c #7E7C84",
"8.	c #7D7D7F",
"9.	c #0C0C0C",
"0.	c #343434",
"a.	c #F6F3FC",
"b.	c #DCD2F7",
"c.	c #BFABF1",
"d.	c #A19486",
"e.	c #D0C2F5",
"f.	c #EEE8FB",
"g.	c #FDFDFD",
"h.	c #282828",
"i.	c #EBE4FA",
"j.	c #B59DF0",
"k.	c #825AE6",
"l.	c #7248CB",
"m.	c #9B7BEB",
"n.	c #D6C9F6",
"o.	c #FBFAFD",
"p.	c #E6E6E6",
"q.	c #B9B9B9",
"r.	c #A183EC",
"s.	c #6E3FE2",
"t.	c #6534DE",
"u.	c #7E55E6",
"v.	c #C7B5F3",
"w.	c #1E1E1E",
"x.	c #B9A3F1",
"y.	c #855DE7",
"z.	c #7447E4",
"A.	c #9574EA",
"B.	c #D4C6F6",
"C.	c #FAF9FD",
"D.	c #242424",
"E.	c #E1D7F8",
"F.	c #C2AEF3",
"G.	c #CBBBF4",
"H.	c #EBE5FB",
"I.	c #767676",
"J.	c #EEE9FB",
"K.	c #F5F2FC",
"                              . . .                             ",
"                          . . . . . . .                         ",
"                        . . . . + . . . .                       ",
"                        . . . . @ . . . .                       ",
"                      . . . . . . . . . . .                     ",
"                      . . . . . . . @ . . .                     ",
"                      . . . . . . . . # .                       ",
"                        . . . $ @ . . % &                       ",
"                          . . * . = . . -                       ",
"                            ; . . > . .   ,                     ",
"                            '     )         !                   ",
"                            ~     {         ! !                 ",
"                            ]     ^           !             / ( ",
"                          !         !           !   _ : < [ } | ",
"                          !         !         1 2 3 4 5 6 7 8 9 ",
"                          !         ! 0 1 0 0 a b c d e f g 7 h ",
"                          !   i 0 0 ! j } 9 9 k l m n o p f q r ",
"                      s ! 0 t u v w ! x 9 9 9 k l m y o p f q r ",
"        / z A B C D E F G H 9 9 9 9 ! x I | 9 H J K L e f g 7 h ",
"    M 0 } N | | O P Q R S T H 9 9 9 9 ! U t x 9 r V W X q 7 8 9 ",
"Y Z N 9 9 9 9 H T `  ...+.X @.9 9 9 9 ! 9 9 I U 9 H @.r r h 9 9 ",
"A #.9 9 9 9 9 k $.%.&.*.y =.-.9 9 9 9 ! 9 9 9 N I x 9 9 9 9 9 x ",
"0 9 9 9 9 9 9 k ;.>.,.'.).!.~.9 9 9 9 ! 9 9 9 9 U {.{.x } 0 0 N ",
"} } 9 9 9 9 9 H ].^./.(._.:.@.9 9 9 9 ! 9 9 9 | } t <.0 [.9 9 9 ",
"}.t 0 9 9 9 9 9 @.|.:.1.2.3.H 9 9 9 9 H 4.I U t } 9 9 5.( 0 x 9 ",
"  9 x t 9 9 9 9 9 H @.r k H 9 9 9 h ~.V 6.7.8.9 9 9 9 9 | t 9.I ",
"    9 0.} | 9 9 9 9 9 9 9 9 9 9 H a.b.c.d.e.f.g.9 9 9 9 9 9 U {.",
"        C h.9 9 9 9 9 9 9 } x 9 h i.j.k.l.m.n.o.9 9 9 9 9 9 9 9 ",
"          9 B h.p.q.I h.t } N 9 @.W r.s.t.u.v.3.9 9 9 9 9 9 9 9 ",
"              0 / w.x | | 9 9 9 h f.x.y.z.A.B.C.9 9 9 9 9 9 9 9 ",
"                D.| 9 9 9 9 9 9 9 -.E.F._.G.H.h 9 9 9 9 9 9 9 9 ",
"                i I.9 9 9 9 9 9 9 9 C.T J.K.@.9 9 9 9 9 9 9 9 9 "};
