/* XPM */
static const char * Applications_xpm[] = {
"32 32 138 2",
"  	c None",
". 	c #C4C6C9",
"+ 	c #6A7076",
"@ 	c #9FA3A7",
"# 	c #646A70",
"$ 	c #444B52",
"% 	c #3F474E",
"& 	c #51585F",
"* 	c #DEDFE1",
"= 	c #BCBFC2",
"- 	c #454C54",
"; 	c #495057",
"> 	c #434A52",
", 	c #BDC0C3",
"' 	c #C2C4C7",
") 	c #484F56",
"! 	c #474E55",
"~ 	c #72777D",
"{ 	c #B2B4B8",
"] 	c #444C53",
"^ 	c #81858B",
"/ 	c #CED1D3",
"( 	c #464D54",
"_ 	c #797E83",
": 	c #989DA0",
"< 	c #545A61",
"[ 	c #D7D9DC",
"} 	c #424950",
"| 	c #80858A",
"1 	c #666C72",
"2 	c #434A51",
"3 	c #B6BABD",
"4 	c #B3B7BA",
"5 	c #7E8388",
"6 	c #CED0D3",
"7 	c #495157",
"8 	c #909599",
"9 	c #5B6168",
"0 	c #8A8F93",
"a 	c #8E9297",
"b 	c #3C444B",
"c 	c #5D6369",
"d 	c #84898E",
"e 	c #485057",
"f 	c #787D82",
"g 	c #DDDFE0",
"h 	c #434951",
"i 	c #3E464D",
"j 	c #7A7F83",
"k 	c #82868C",
"l 	c #3D444B",
"m 	c #3E454D",
"n 	c #81868B",
"o 	c #FFFFFF",
"p 	c #E4E5E7",
"q 	c #464C53",
"r 	c #4A5057",
"s 	c #40474F",
"t 	c #494F56",
"u 	c #686D73",
"v 	c #696F75",
"w 	c #858B8F",
"x 	c #464D55",
"y 	c #787D83",
"z 	c #E9EBEC",
"A 	c #7B8185",
"B 	c #8F9498",
"C 	c #70767B",
"D 	c #FDFEFE",
"E 	c #EDEFF0",
"F 	c #898E93",
"G 	c #94989D",
"H 	c #7F8489",
"I 	c #4A5158",
"J 	c #999EA1",
"K 	c #6A6F75",
"L 	c #FAFBFC",
"M 	c #FBFCFD",
"N 	c #969A9F",
"O 	c #424A51",
"P 	c #DCDEE0",
"Q 	c #C0C2C5",
"R 	c #C5C8CA",
"S 	c #FCFCFD",
"T 	c #A2A7AA",
"U 	c #464E55",
"V 	c #676C73",
"W 	c #5E646A",
"X 	c #6D7278",
"Y 	c #CFD2D4",
"Z 	c #B6B9BC",
"` 	c #B7BABD",
" .	c #ABAFB2",
"..	c #B5B8BB",
"+.	c #ADB1B5",
"@.	c #ABAEB2",
"#.	c #A5A9AD",
"$.	c #454D54",
"%.	c #A1A5A9",
"&.	c #9DA1A6",
"*.	c #989CA0",
"=.	c #959B9F",
"-.	c #C8CBCE",
";.	c #7D8287",
">.	c #909498",
",.	c #8F9499",
"'.	c #C2C5C8",
").	c #7A8085",
"!.	c #484F57",
"~.	c #888C91",
"{.	c #B0B2B7",
"].	c #414850",
"^.	c #4A5058",
"/.	c #CCCFD2",
"(.	c #83888D",
"_.	c #414950",
":.	c #E7E9EA",
"<.	c #5D646A",
"[.	c #D5D8DA",
"}.	c #8D9296",
"|.	c #454C53",
"1.	c #40484F",
"2.	c #40474E",
"3.	c #4A5157",
"4.	c #DEE1E2",
"5.	c #979CA0",
"6.	c #434B52",
"7.	c #DDDFE1",
"8.	c #A6ABAE",
"9.	c #4C525A",
"0.	c #A2A6AA",
"a.	c #E3E5E7",
"b.	c #9C9FA4",
"c.	c #4D545B",
"d.	c #434B51",
"e.	c #757A80",
"f.	c #B1B5B8",
"g.	c #585E65",
"                                                                ",
"                                                                ",
"                                                                ",
"                                                                ",
"          . +                       @ # $ % & *                 ",
"        = - ; > ,               ' - ) ; ; ! ~                   ",
"      { ] ; ; ; $ ^           / ( ; ; ; ! _                     ",
"      : ; ; ; ; ; ; < [       } ; ; ; ! |                       ",
"        1 ; ; ; ; ; ; 2 3   4 ; ; ; ; 5               6         ",
"          7 ; ; ; ; ; ) 8   9 ; ; ; ; 0             a }         ",
"            ) ; ; ; ; ) 8   b ; ; ; ; c           d e )         ",
"            3 ! ; ; ; ) f   g h ; ; ; i         j ; ; )         ",
"              k l m m ) ( n o p q ; ; r s t u v ; ; ; $         ",
"                      w x ! y o z ; ; ; ; ; ; ; ; ; ; A         ",
"                        B ( ) C D E F G H I ) ; ; ; $           ",
"                          J ( ; K L o o o M N O ; ( P           ",
"                    Q % R S T U ; V W r X Y o Z k               ",
"                  ` 2 ; ( =    .; ; ; ; ; } ..                  ",
"                +.$ ; ; ; -     I ; ; ; ; ; $ @.                ",
"              #.( ; ; ; ; -     ; ; ; ; ; ; ; $.%.              ",
"            &.! ; ; ; ; ; ( P   I ; ; ; ; ; ; ; ! *.            ",
"          =.) ; ; ; ; ; ; ! -.  ;.) ; ; ; ; ; ; ; ) >.          ",
"        ,.) ; ; ; ; ; ; ! '.      ).! ; ; ; ; ; ; ; !.~.        ",
"      {.) ].^.) ; ; ; ! /.          (.( ; ; ; ; ; ; ; !         ",
"      _.I :.o <.; ; ) [.              }.|.; ; ; ; ; ; 1.        ",
"      2.I :.o <.; 3.4.                  5.6.; ; ; ; > 7.        ",
"      8.) ].^.) 9.                        0.O ; ; U a.          ",
"        b.c.d.e.                            f.|.g.              ",
"                                                                ",
"                                                                ",
"                                                                ",
"                                                                "};
