/* XPM */
static const char * ArrowLeft2_xpm[] = {
"32 32 161 2",
"  	c None",
". 	c #C6C9CB",
"+ 	c #B9BCC0",
"@ 	c #C3C6C9",
"# 	c #E2E4E6",
"$ 	c #A3A6AB",
"% 	c #646A70",
"& 	c #4F565D",
"* 	c #444B52",
"= 	c #454C54",
"- 	c #464D54",
"; 	c #454D54",
"> 	c #454C53",
", 	c #4C535A",
"' 	c #60676D",
") 	c #93979C",
"! 	c #C0C3C6",
"~ 	c #51585E",
"{ 	c #495057",
"] 	c #484F56",
"^ 	c #424A51",
"/ 	c #424950",
"( 	c #444B53",
"_ 	c #474F56",
": 	c #B1B4B7",
"< 	c #888D92",
"[ 	c #4D545B",
"} 	c #666B72",
"| 	c #ADB0B4",
"1 	c #D6D7DA",
"2 	c #E4E6E7",
"3 	c #D8DBDC",
"4 	c #B4B7BA",
"5 	c #71777C",
"6 	c #4E555C",
"7 	c #484F57",
"8 	c #74797F",
"9 	c #70757A",
"0 	c #474E55",
"a 	c #A6AAAE",
"b 	c #3F474E",
"c 	c #63696F",
"d 	c #8D9197",
"e 	c #555C62",
"f 	c #D4D7D9",
"g 	c #6B7076",
"h 	c #50575D",
"i 	c #656C71",
"j 	c #A8ACAF",
"k 	c #495157",
"l 	c #41484F",
"m 	c #DFE1E2",
"n 	c #4F555C",
"o 	c #DEE0E1",
"p 	c #999EA2",
"q 	c #464E55",
"r 	c #B4B8BB",
"s 	c #B0B3B7",
"t 	c #DCDEE0",
"u 	c #A5A9AD",
"v 	c #CBCED0",
"w 	c #8B9094",
"x 	c #5F656B",
"y 	c #535A60",
"z 	c #B1B5B8",
"A 	c #434A51",
"B 	c #52585F",
"C 	c #565D63",
"D 	c #898E93",
"E 	c #5E646A",
"F 	c #3F454D",
"G 	c #969A9E",
"H 	c #52595F",
"I 	c #575E64",
"J 	c #D8D9DB",
"K 	c #444C53",
"L 	c #B3B6BA",
"M 	c #A9ACB0",
"N 	c #C5C7CA",
"O 	c #6B7176",
"P 	c #A8ABAF",
"Q 	c #84898E",
"R 	c #7D8187",
"S 	c #51585F",
"T 	c #B5B8BB",
"U 	c #414950",
"V 	c #A1A5A9",
"W 	c #545B61",
"X 	c #646B70",
"Y 	c #5E646B",
"Z 	c #BDBFC3",
"` 	c #575D64",
" .	c #676D73",
"..	c #5D6369",
"+.	c #61676E",
"@.	c #50565D",
"#.	c #585E65",
"$.	c #636A70",
"%.	c #696F74",
"&.	c #5B6268",
"*.	c #878C91",
"=.	c #676D72",
"-.	c #696F75",
";.	c #898D93",
">.	c #4C5259",
",.	c #81868B",
"'.	c #5B6167",
").	c #535960",
"!.	c #767B81",
"~.	c #BCBFC3",
"{.	c #D7DADC",
"].	c #82878C",
"^.	c #A3A6AA",
"/.	c #909498",
"(.	c #777C81",
"_.	c #777C82",
":.	c #474E56",
"<.	c #B8BBBE",
"[.	c #C7CACD",
"}.	c #6D7379",
"|.	c #71767C",
"1.	c #80848A",
"2.	c #BDC0C3",
"3.	c #464E54",
"4.	c #4A5158",
"5.	c #B8BCBF",
"6.	c #7C8187",
"7.	c #AAAEB1",
"8.	c #A9ADB1",
"9.	c #686E74",
"0.	c #B7BABE",
"a.	c #D1D3D5",
"b.	c #424951",
"c.	c #3F464E",
"d.	c #E5E6E8",
"e.	c #D6D9DB",
"f.	c #CDCFD1",
"g.	c #95999E",
"h.	c #BBBEC1",
"i.	c #9FA4A7",
"j.	c #B2B6B9",
"k.	c #B6BABD",
"l.	c #C3C6C8",
"m.	c #73787E",
"n.	c #989DA0",
"o.	c #C2C5C8",
"p.	c #6E737A",
"q.	c #93989C",
"r.	c #A0A4A7",
"s.	c #969A9F",
"t.	c #737A7F",
"u.	c #40474F",
"v.	c #AFB4B6",
"w.	c #DEE1E2",
"x.	c #AAADB1",
"y.	c #73797E",
"z.	c #3D454C",
"A.	c #3E454D",
"B.	c #3D444C",
"C.	c #6B7177",
"D.	c #A1A6A9",
"                                                                ",
"                            . + @ #                             ",
"                    $ % & * = - ; > , ' )                       ",
"                ! ~ > { ] > ^ / ^ ( _ { - - :                   ",
"              < = { ] [ } | 1 2 3 4 5 6 { { 7 8                 ",
"            9 0 { * a                   + b { 0 c               ",
"          d ] { e f                         c 0 0 g             ",
"        ! 0 { h                               i ] ] j           ",
"        k { l m                                 n { ; o         ",
"      p q ] r         s t             u         v - { w         ",
"      x { y         z A B           C > D         E { F         ",
"      A - G         [ { { H       I { { /         J ] K L       ",
"    M = ^           N 0 { { I   O ] { b P           6 { Q       ",
"    R 0 S             T 0 { { U { { > V             W { 5       ",
"    X ] Y               Z 0 { { { ] V               ` {  .      ",
"    ..{ +.                C { { { @.                #.{ $.      ",
"    %.] &.              *.] { ] { ] =.              C { -.      ",
"    ;.0 >.            ,.] { { '.] { { O             ).{ !.      ",
"    ~.K A {.        ].0 { ] *.  ^.- { 0 5           , ] /.      ",
"      0 ] (.        6 { ; _.      ) :.{ -         <.] / [.      ",
"      }.{ 6           , |.          1.- 2.        3.{ 4.        ",
"      5.A { 6.                                  7.] { 8.        ",
"        9.{ > 0.                              a.b.{ {           ",
"        o 0 { c.N                           d., { { e.          ",
"          f.] { { g.                      h., { * i.            ",
"            j.> { - 9.k.              l.m.b.{ b n.              ",
"              o.& ] { - l p.q.r.s.t.u.> { ] [ v.                ",
"                  ,.= { { { { { { { { { > 9.                    ",
"                    w.x.y., z.A.B.] C.D.{.                      ",
"                                                                ",
"                                                                ",
"                                                                "};
