/* XPM */
static const char * Exec_xpm[] = {
"32 32 169 2",
"  	c None",
". 	c #DDDFE1",
"+ 	c #8E9397",
"@ 	c #4E545B",
"# 	c #464D54",
"$ 	c #757A80",
"% 	c #C8CACD",
"& 	c #B0B3B7",
"* 	c #424951",
"= 	c #484F56",
"- 	c #495057",
"; 	c #3E454C",
"> 	c #8A8E93",
", 	c #BEC1C4",
"' 	c #424A50",
") 	c #494F57",
"! 	c #3F464D",
"~ 	c #969B9F",
"{ 	c #6C7278",
"] 	c #444C53",
"^ 	c #4A5158",
"/ 	c #C5C8CB",
"( 	c #C6CACC",
"_ 	c #3D444C",
": 	c #5F656C",
"< 	c #E8E9EB",
"[ 	c #7B8085",
"} 	c #434A51",
"| 	c #40474E",
"1 	c #9A9FA3",
"2 	c #ADB0B3",
"3 	c #3F464E",
"4 	c #50575D",
"5 	c #A8ABAF",
"6 	c #FFFFFF",
"7 	c #FEFFFF",
"8 	c #CCCED1",
"9 	c #676D73",
"0 	c #454C53",
"a 	c #82878C",
"b 	c #E4E5E7",
"c 	c #A7ABAE",
"d 	c #3F474E",
"e 	c #474E55",
"f 	c #585E65",
"g 	c #B4B8BC",
"h 	c #FDFDFE",
"i 	c #D6D9DB",
"j 	c #70767C",
"k 	c #444B52",
"l 	c #7D8388",
"m 	c #E2E3E5",
"n 	c #C2C5C7",
"o 	c #3C434B",
"p 	c #878C91",
"q 	c #F7F8F9",
"r 	c #ABAFB3",
"s 	c #4B5259",
"t 	c #40484F",
"u 	c #95999E",
"v 	c #CDD0D2",
"w 	c #ACB0B3",
"x 	c #E0E2E4",
"y 	c #61686E",
"z 	c #454D54",
"A 	c #575D64",
"B 	c #5B6268",
"C 	c #4D535A",
"D 	c #424A51",
"E 	c #BFC2C5",
"F 	c #DBDDE0",
"G 	c #6F757B",
"H 	c #DDE0E2",
"I 	c #9EA2A6",
"J 	c #565D64",
"K 	c #424950",
"L 	c #EDEEEF",
"M 	c #A4A8AB",
"N 	c #3E464D",
"O 	c #7A7F84",
"P 	c #DFE0E2",
"Q 	c #D0D2D4",
"R 	c #70767B",
"S 	c #414850",
"T 	c #D6D8DB",
"U 	c #7F8489",
"V 	c #4C535A",
"W 	c #474E56",
"X 	c #575E64",
"Y 	c #B8BBBE",
"Z 	c #DEE0E2",
"` 	c #62686E",
" .	c #454C54",
"..	c #BABDC0",
"+.	c #C6C9CC",
"@.	c #6E7379",
"#.	c #6A7076",
"$.	c #464D55",
"%.	c #555B62",
"&.	c #B2B5B9",
"*.	c #8B9094",
"=.	c #EEEFF1",
"-.	c #D4D7D9",
";.	c #636A70",
">.	c #585F65",
",.	c #ACAFB2",
"'.	c #E7E9EA",
").	c #858A8F",
"!.	c #41484F",
"~.	c #61676D",
"{.	c #666C72",
"].	c #595F65",
"^.	c #ADB1B4",
"/.	c #EDEFF0",
"(.	c #D3D6D8",
"_.	c #D5D7D9",
":.	c #60666C",
"<.	c #B2B6B9",
"[.	c #E6E8E9",
"}.	c #E0E1E3",
"|.	c #CED1D3",
"1.	c #B0B4B7",
"2.	c #CFD2D4",
"3.	c #F2F3F5",
"4.	c #B8BBBF",
"5.	c #93979C",
"6.	c #F8F9FA",
"7.	c #909599",
"8.	c #AEB1B5",
"9.	c #D2D5D7",
"0.	c #D4D6D8",
"a.	c #4D545A",
"b.	c #94989D",
"c.	c #FAFBFC",
"d.	c #9B9FA3",
"e.	c #787E84",
"f.	c #E7E9EB",
"g.	c #BEC0C3",
"h.	c #4F555C",
"i.	c #ABAFB2",
"j.	c #555C62",
"k.	c #D7D8DB",
"l.	c #394048",
"m.	c #ADB1B5",
"n.	c #51585F",
"o.	c #ABAEB2",
"p.	c #61676E",
"q.	c #444B53",
"r.	c #545B61",
"s.	c #B0B3B6",
"t.	c #6A6F76",
"u.	c #DFE0E3",
"v.	c #B9BBBF",
"w.	c #5B6168",
"x.	c #969C9F",
"y.	c #6E7479",
"z.	c #E4E6E7",
"A.	c #A7AAAE",
"B.	c #535960",
"C.	c #434A52",
"D.	c #676E73",
"E.	c #70757B",
"F.	c #757B80",
"G.	c #E5E8E9",
"H.	c #E2E4E5",
"I.	c #8A8E94",
"J.	c #B5B8BC",
"K.	c #CACDD0",
"L.	c #D1D4D6",
"                                                                ",
"                                                                ",
"                                                                ",
"                        . + @ # $ %                             ",
"                      & * = - - - ; >                           ",
"                    , ' ) - - - - - ! ~                         ",
"                  . { ] - - - - - - = ^ /                       ",
"                  ( _ - # : / < [ } - | 1                       ",
"                  2 3 = 4 5 6 7 8 9 0 * a b                     ",
"                  c d e f g 6 h i j k } l m                     ",
"                  n o - } p q 6 r s = t u                       ",
"              v w x y z - ^ A B C = = D E         F G = H       ",
"          I J K { L M N - - - - - - } O P     Q R = = S T       ",
"      U V # - W X Y Z `  .- - - - = e ..6 +.@.= = - - S i       ",
"    #.$.- - - = %.w 6 &.t - - - - | *.=.-.;.0 - - - - S i       ",
"    >.= - - - = %.,.6 '.).!.- -  .~.v 6 -.{.# - - - - S i       ",
"    ].= - - - = %.^./.(._.:. .= - <.[.}.|.9 # - - - - S i       ",
"    ].= - - - = %.1.2.[ 3.4.^ !.5.6.7.8.9.9 # - - - - S i       ",
"    ].= - - - = %.1.0.a.b.c.d.e.f.g.h.i.(.9 # - - - - S i       ",
"    ].= - - - = %.1.-.^ j.<.6 6 k.@.l.m.(.9 # - - - - S i       ",
"    ].= - - - = %.1.-.C # n.5.o.p.q.N m.(.9 # - - - - S i       ",
"    ].= - - - = %.1.-.C W - - - - - N m.(.9 # - - - - S i       ",
"    ].= - - - = %.1.-.C W - - - - - N m.(.9 # - - - - S i       ",
"    ].= - - - = %.1.-.C W - - - - - N m.(.9 # - - - - S i       ",
"    ].= - - - = r.s.0.s W - - - - - N m.(.9 # - - - = -         ",
"    ].= - - = t.u.      v.w.} - - - N m.(.9 # - - K x.          ",
"    ].= = y.z.                A.B.C.N m.(.D.!.r.,               ",
"    E.F.G.                        H.I.J.K.1 L.                  ",
"                                                                ",
"                                                                ",
"                                                                ",
"                                                                "};
