/* XPM */
static const char * file_save_xpm[] = {
"32 32 129 2",
"  	c None",
". 	c #C4C6C9",
"+ 	c #868B90",
"@ 	c #82878C",
"# 	c #858A8F",
"$ 	c #C3C6C9",
"% 	c #434B52",
"& 	c #495057",
"* 	c #444B52",
"= 	c #B6BABC",
"- 	c #51595F",
"; 	c #474E55",
"> 	c #484F56",
", 	c #3C444B",
"' 	c #73797E",
") 	c #E2E3E5",
"! 	c #DDDFE1",
"~ 	c #5B6268",
"{ 	c #575E64",
"] 	c #DBDDDF",
"^ 	c #DCDEE0",
"/ 	c #CCCFD1",
"( 	c #696F74",
"_ 	c #3E464D",
": 	c #454C53",
"< 	c #B1B5B8",
"[ 	c #3D444C",
"} 	c #80858A",
"| 	c #FEFFFF",
"1 	c #F9FAFB",
"2 	c #5F656B",
"3 	c #5A6067",
"4 	c #F7F8F9",
"5 	c #F8F9FA",
"6 	c #E5E7E8",
"7 	c #999EA2",
"8 	c #BDC0C3",
"9 	c #464D54",
"0 	c #C9CCCE",
"a 	c #95999D",
"b 	c #B8BBBE",
"c 	c #434A52",
"d 	c #4A5158",
"e 	c #CFD2D4",
"f 	c #FCFDFE",
"g 	c #ABAEB3",
"h 	c #3F464D",
"i 	c #DEE0E2",
"j 	c #575D64",
"k 	c #D7D9DB",
"l 	c #D7D9DC",
"m 	c #C8CBCD",
"n 	c #FFFFFF",
"o 	c #A4A7AC",
"p 	c #A3A7AB",
"q 	c #9DA1A5",
"r 	c #85898F",
"s 	c #3F474E",
"t 	c #AEB1B5",
"u 	c #BEC1C4",
"v 	c #B3B7BA",
"w 	c #B4B7BB",
"x 	c #B4B7BA",
"y 	c #C5C8CB",
"z 	c #DCDEE1",
"A 	c #CCCFD2",
"B 	c #F4F5F6",
"C 	c #FDFDFE",
"D 	c #FAFBFC",
"E 	c #B7B9BD",
"F 	c #40484F",
"G 	c #424950",
"H 	c #41484F",
"I 	c #767B81",
"J 	c #EDEEF0",
"K 	c #C4C7CA",
"L 	c #EFF0F2",
"M 	c #EAECED",
"N 	c #4B5158",
"O 	c #454D54",
"P 	c #9FA3A7",
"Q 	c #C5C7CA",
"R 	c #696E74",
"S 	c #91959A",
"T 	c #FDFEFF",
"U 	c #A9ADB1",
"V 	c #FEFEFF",
"W 	c #62676E",
"X 	c #424951",
"Y 	c #FBFBFC",
"Z 	c #B0B4B8",
"` 	c #40474E",
" .	c #E4E6E7",
"..	c #FBFCFD",
"+.	c #A6AAAD",
"@.	c #C2C4C7",
"#.	c #C6CACC",
"$.	c #7F858A",
"%.	c #F7F9F9",
"&.	c #E2E4E6",
"*.	c #474E56",
"=.	c #5D6369",
"-.	c #CDCFD1",
";.	c #DFE1E3",
">.	c #414950",
",.	c #71777D",
"'.	c #FCFCFD",
").	c #7B8085",
"!.	c #444C53",
"~.	c #DEE0E1",
"{.	c #7F8489",
"].	c #CFD1D3",
"^.	c #C9CCCF",
"/.	c #8F9397",
"(.	c #888C91",
"_.	c #A0A4A8",
":.	c #E9EBED",
"<.	c #7E8489",
"[.	c #F5F6F7",
"}.	c #4C535A",
"|.	c #5B6167",
"1.	c #A4A8AC",
"2.	c #A7AAAF",
"3.	c #A5A7AC",
"4.	c #525960",
"5.	c #4E545B",
"6.	c #4E555B",
"7.	c #4D545B",
"8.	c #656B71",
"                                                                ",
"                                                                ",
"          . + @ @ @ @ @ @ @ @ @ @ @ @ @ @ # $                   ",
"        $ % & & & & & & & & & & & & & & & & * =                 ",
"        - & & ; ; & & & ; ; ; ; ; ; ; & & & & > =               ",
"        , & ' ) ! ~ & { ] ^ ^ ^ ^ ^ / > & ( _ & : <             ",
"        [ & } | 1 2 & 3 4 5 5 5 5 5 6 > & 7 8 > & 9 0           ",
"        [ & } | 1 2 & 3 4 5 5 5 5 5 6 > & a 1 b c & d e         ",
"        [ & } | 1 2 & 3 4 5 5 5 5 5 6 > & a 5 f g h & c i       ",
"        [ & } | 1 2 & j k l l l l l m > & a 5 5 n o & > p       ",
"        [ & } | 1 2 & & > > > > > > > & & a 5 5 5 ) ; & q       ",
"        [ & } | 1 r s c c c c c c c c c _ t 5 5 5 ) ; & q       ",
"        [ & } | 5 n u v v v v w w x v v y | 5 5 5 ) ; & q       ",
"        [ & } | 5 5 1 1 1 1 n z A B C 1 1 5 5 5 5 ) ; & q       ",
"        [ & } | 5 5 5 5 D E { F G H I J 1 5 5 5 5 ) ; & q       ",
"        [ & } | 5 5 5 1 K * & > ; > & ; L 5 5 5 5 ) ; & q       ",
"        [ & } | 5 5 5 M N & O P Q R > & S T 5 5 5 ) ; & q       ",
"        [ & } | 5 5 1 / & 9 U V D n W & X T 5 5 5 ) ; & q       ",
"        [ & } | 5 5 Y Z & `  .5 5 ..+.& s M 5 5 5 ) ; & q       ",
"        [ & } | 5 5 1 @.& c #.5 5 n $.& , %.5 5 5 ) ; & q       ",
"        [ & } | 5 5 5 &.*.& =.-.;.+.>.& ,.n 5 5 5 ) ; & q       ",
"        [ & } | 5 5 5 '.).> & 9 !.> & d ~.5 5 5 5 ) ; & q       ",
"        [ & } | 5 5 5 5 5 {.F & & ; 9 ].1 5 5 5 5 ) ; & q       ",
"        [ & } | 5 5 5 5 5 n ^./.(._.:.1 5 5 5 5 5 ) ; & q       ",
"        [ & <.D B B B B B B B B [.B B B B B B B B i ; & q       ",
"        > & }.|.3 3 3 3 3 3 3 3 3 3 3 3 3 3 3 3 3 j & > 1.      ",
"        2.: & & & & & & & & & & & & & & & & & & & & > ; )       ",
"          3.4.5.6.6.6.6.6.6.6.6.6.6.6.6.6.6.6.6.6.7.8.          ",
"                                                                ",
"                                                                ",
"                                                                ",
"                                                                "};
