/* XPM */
static const char * GravisJoystick_xpm[] = {
"32 32 8 1",
" 	c None",
".	c #000000",
"+	c #C0C0C0",
"@	c #404040",
"#	c #808080",
"$	c #562C05",
"%	c #90713A",
"&	c #FFFFFF",
"                                ",
"                                ",
"                                ",
"                                ",
"                     ....       ",
"                    .+@#+.      ",
"                   .+$+++.      ",
"                   .++++#.      ",
"                   .++##.       ",
"                   .@@@.        ",
"                   ..$$         ",
"             ..   @..$          ",
"           ..+#.. ...@     .....",
"         ..++++##....   ....    ",
"       ..+++#@+++$... ...       ",
"     ..++++@@$$++$.....         ",
"   ..+++#@+#$$##%....+#..       ",
" @.++++@@$$####++$...#++#..     ",
" $#&&++#$$#+++#++@$$#.#$@+#..   ",
" $###&&+##++++#@%+##@.#@$$@+#$  ",
" $@###+&&++++++#@$$..@#++@$+#$  ",
"  $@@#+##+&+++++##@@##+++++##$  ",
"   $$@+#.##+&++++++++++++##@@$  ",
"    .$$@@..##++++++++++##@@@@$  ",
"       $$@@..+#++++++##@@@@$$   ",
"         $$@@+###&+##@@@@$$.    ",
"           $$+@####@@@@$$       ",
"             $$@@@@@@$$         ",
"               $$@@$$           ",
"                .$$.            ",
"                                ",
"                                "};
