/* XPM */
static const char * icon_play_xpm[] = {
"32 32 117 2",
"  	c None",
". 	c #4E555B",
"+ 	c #858A8F",
"@ 	c #4A5158",
"# 	c #4C535A",
"$ 	c #474E55",
"% 	c #D8DADC",
"& 	c #BBBFC1",
"* 	c #6E747A",
"= 	c #82878C",
"- 	c #3E464D",
"; 	c #777C82",
"> 	c #484F56",
", 	c #495057",
"' 	c #444B53",
") 	c #C9CDCF",
"! 	c #B5B8BB",
"~ 	c #414850",
"{ 	c #DDDEE0",
"] 	c #787E83",
"^ 	c #444B52",
"/ 	c #424951",
"( 	c #424A51",
"_ 	c #4D545B",
": 	c #4B5259",
"< 	c #454C53",
"[ 	c #454D54",
"} 	c #464D54",
"| 	c #D0D3D5",
"1 	c #3F464D",
"2 	c #3C434B",
"3 	c #3C444B",
"4 	c #E4E5E7",
"5 	c #E0E2E4",
"6 	c #B8BBBE",
"7 	c #414950",
"8 	c #40484F",
"9 	c #E1E3E5",
"0 	c #6F757B",
"a 	c #545B61",
"b 	c #DCDEE0",
"c 	c #BEC2C4",
"d 	c #AEB2B5",
"e 	c #84898D",
"f 	c #545A61",
"g 	c #DBDEDF",
"h 	c #BCBFC2",
"i 	c #848A8E",
"j 	c #D9DBDD",
"k 	c #41484F",
"l 	c #DBDDDF",
"m 	c #6B7177",
"n 	c #B7BBBE",
"o 	c #A9ADB0",
"p 	c #40474E",
"q 	c #3D454C",
"r 	c #434A51",
"s 	c #4A5157",
"t 	c #525960",
"u 	c #D9DBDC",
"v 	c #4B5158",
"w 	c #3F474E",
"x 	c #FFFFFF",
"y 	c #7A8085",
"z 	c #767C81",
"A 	c #797F84",
"B 	c #62686E",
"C 	c #CDD1D2",
"D 	c #B7BABD",
"E 	c #434A52",
"F 	c #83898D",
"G 	c #D7DADB",
"H 	c #40474F",
"I 	c #434B52",
"J 	c #DADCDE",
"K 	c #BDC0C3",
"L 	c #B1B5B9",
"M 	c #CFD1D3",
"N 	c #CED1D3",
"O 	c #5F656C",
"P 	c #DCDFE1",
"Q 	c #AAADB1",
"R 	c #959B9E",
"S 	c #CFD2D4",
"T 	c #8D9296",
"U 	c #7D8388",
"V 	c #8C9196",
"W 	c #8C9195",
"X 	c #6F757A",
"Y 	c #8D9196",
"Z 	c #6B7176",
"` 	c #83888D",
" .	c #D6D9DB",
"..	c #BBBEC1",
"+.	c #D5D8DA",
"@.	c #BABEC0",
"#.	c #73797E",
"$.	c #7F8489",
"%.	c #52585F",
"&.	c #DFE1E2",
"*.	c #676E74",
"=.	c #7F848A",
"-.	c #646A70",
";.	c #454C54",
">.	c #464D55",
",.	c #8B9095",
"'.	c #656A70",
").	c #BBBEC2",
"!.	c #61676E",
"~.	c #485057",
"{.	c #9CA1A5",
"].	c #93989C",
"^.	c #CFD1D4",
"/.	c #B4B7BA",
"(.	c #3B424A",
"_.	c #80868B",
":.	c #495058",
"                                                                ",
"                                                                ",
"                                                                ",
"      .       + @ # # # # # # # # # # # # # # $ %     & *       ",
"    = -       ; > , , , , , , , , , , , , , , ' )     ! ~ {     ",
"    ] > ^ / ( > , , _ . . . . . . . . . . : , , < / / [ } |     ",
"    ] > 1 2 3 $ , _ 4 5 5 5 5 5 5 5 5 5 5 6 ^ , 7 2 2 / } |     ",
"    ] 8 9     0 > a                       b / < c     d ^ |     ",
"    ] -       e $ f                       g / ^ %     h ( |     ",
"    ] -       i $ f                       g / ^ j     h ( |     ",
"    ] k l     m > f                       g / < n     o ' |     ",
"    ] > p q q $ , f                       g / , / q q r } |     ",
"    ] > : # # s , t                       u ( , : # # v } |     ",
"    ] w   x x y > > z A A A A A A A A A A B > ^ C     D E |     ",
"    ] 1       F $ , , , , , , , , , , , , , , ^ G     & r |     ",
"    ] -       + $ , H w w w w w w w w w w ^ , I J     K ( |     ",
"    ] E L M N O , , P 5 5 5 5 5 5 5 5 5 5 Q < } R M S T < |     ",
"    ] > > $ $ , , f                       b / , > $ $ > } |     ",
"    ] } U V W f , f                       g / > X V Y Z < |     ",
"    ] 1       ` $ f                       g / ^  .    ..r |     ",
"    ] 1       F $ f                       g / ^ G     & r |     ",
"    ] 1       = $ f                       g / ^ +.    @.r |     ",
"    ] } #.$.$.%., t                       &./ > *.$.=.-.;.|     ",
"    ] > >.} } > , } F ,.,.,.,.,.,.,.,.,.,.'.> , $ } } $ } |     ",
"    ; r ).J J !.~., > $ $ $ $ $ $ $ $ $ $ > , } {.J l ].< ^.    ",
"    /.(.      _.8 / / / / / / / / / / / / / / 3 j     @.:.      ",
"                                                                ",
"                                                                ",
"                                                                ",
"                                                                ",
"                                                                ",
"                                                                "};
