/* XPM */
static const char * icon_undo_xpm[] = {
"32 32 96 2",
"  	c None",
". 	c #23272B",
"+ 	c #212529",
"@ 	c #525558",
"# 	c #BCBDBE",
"$ 	c #5D6062",
"% 	c #202428",
"& 	c #282C2F",
"* 	c #272B2F",
"= 	c #5C6062",
"- 	c #C3C4C5",
"; 	c #505356",
"> 	c #4A4D51",
", 	c #2B2F33",
"' 	c #1F2327",
") 	c #2E3236",
"! 	c #575A5D",
"~ 	c #96999A",
"{ 	c #2F3236",
"] 	c #35393D",
"^ 	c #BEC0C0",
"/ 	c #4F5255",
"( 	c #7D7F81",
"_ 	c #1A1E22",
": 	c #14181C",
"< 	c #3F4346",
"[ 	c #5D6063",
"} 	c #5B5E61",
"| 	c #3B3E42",
"1 	c #13171C",
"2 	c #8E9192",
"3 	c #262A2E",
"4 	c #1E2226",
"5 	c #36393D",
"6 	c #414448",
"7 	c #E7E8E8",
"8 	c #DDDEDE",
"9 	c #424548",
"0 	c #15191D",
"a 	c #999B9D",
"b 	c #585B5E",
"c 	c #515457",
"d 	c #1F2328",
"e 	c #787B7D",
"f 	c #595B5E",
"g 	c #4D5053",
"h 	c #56595C",
"i 	c #55585B",
"j 	c #424649",
"k 	c #1B1F23",
"l 	c #D0D1D1",
"m 	c #181D21",
"n 	c #515458",
"o 	c #2F3337",
"p 	c #3B3F42",
"q 	c #4B4E51",
"r 	c #8C8E90",
"s 	c #1A1F23",
"t 	c #D8D9DA",
"u 	c #9EA0A1",
"v 	c #191D22",
"w 	c #CCCDCE",
"x 	c #737678",
"y 	c #1C2024",
"z 	c #1E2227",
"A 	c #D4D5D6",
"B 	c #4A4E50",
"C 	c #22262A",
"D 	c #303438",
"E 	c #BDBFBF",
"F 	c #C8C9CA",
"G 	c #686B6D",
"H 	c #474A4E",
"I 	c #3E4245",
"J 	c #6E7173",
"K 	c #626568",
"L 	c #33373B",
"M 	c #3D4144",
"N 	c #4C5053",
"O 	c #2F3336",
"P 	c #181C20",
"Q 	c #8F9193",
"R 	c #45494C",
"S 	c #6C6E71",
"T 	c #12161B",
"U 	c #191D21",
"V 	c #86898B",
"W 	c #272A2E",
"X 	c #2D3034",
"Y 	c #BABBBC",
"Z 	c #24282B",
"` 	c #24282C",
" .	c #54575A",
"..	c #B2B3B4",
"+.	c #1C2125",
"@.	c #B7B8B9",
"                                                                ",
"                                                                ",
"                                                                ",
"                                                                ",
"    . + + @           # $ % & * . = -                           ",
"    + + + ;       > , ' % + + + + % ' ) !                       ",
"    + + + ;   ~ { % + + + + + + + + + + ' ] ^                   ",
"    + + + / ( _ + + + ' : < [ } | 1 % + + + : 2                 ",
"    + + + 3 4 + + ' 5 6 7         8 9 , + + + 0 a               ",
"    + + + + + + 4 b                     c % + + '               ",
"    + + + + + d e                         f ' + + g             ",
"    + + + + + 3 ! h h h i                   j + + k l           ",
"    + + + + + + + + + + +                   - m + + .           ",
"    + + + + + + + + + + +                     n + + o           ",
"    p + + + + + + + + + %                     q + + .           ",
"                                              r s + 4 t         ",
"                                              u v + ' w         ",
"                                              x y + z A         ",
"                                              B % + C           ",
"                                              ! + + D           ",
"                                            E _ + + %           ",
"                                            j + + s F           ",
"                                          G 4 + + H             ",
"                I J                     K ' + + +               ",
"              L + ' M               N O + + + P Q               ",
"            h y + + + ' 1 R S K j T % + + + U V                 ",
"              a W % + + + + + + + + + + % X Y                   ",
"                  b Z + + + + + + + + `  .                      ",
"                      ..b + y +.k K @.                          ",
"                                                                ",
"                                                                ",
"                                                                "};
