/* XPM */
static const char * icon_forward_xpm[] = {
"32 32 27 1",
" 	c None",
".	c #22262A",
"+	c #414448",
"@	c #212529",
"#	c #292D31",
"$	c #989A9C",
"%	c #202428",
"&	c #191E22",
"*	c #828486",
"=	c #1A1E22",
"-	c #515558",
";	c #1F2327",
">	c #585B5E",
",	c #3B3E42",
"'	c #2A2E32",
")	c #6B6E71",
"!	c #1E2226",
"~	c #66696B",
"{	c #2B2F33",
"]	c #2B2F32",
"^	c #65686B",
"/	c #191D22",
"(	c #818486",
"_	c #3A3E42",
":	c #585B5D",
"<	c #515457",
"[	c #222529",
"                                ",
"                                ",
"                                ",
"                                ",
"                                ",
"                                ",
"      .           .             ",
"     +@#$        +@#$           ",
"     %@@&*       %@@&*          ",
"     @@@@=-      @@@@=-         ",
"     @@@@@;>     @@@@@;>        ",
"     @@@@@@@,    @@@@@@@,       ",
"     @@@@@@@@'$  @@@@@@@@'$     ",
"     @@@@@@@@@&* @@@@@@@@@&*    ",
"     @@@@@@@@@@=)!@@@@@@@@@=~   ",
"     @@@@@@@@@@@{%@@@@@@@@@@]   ",
"     @@@@@@@@@@=)!@@@@@@@@@=^   ",
"     @@@@@@@@@/( @@@@@@@@@/(    ",
"     @@@@@@@@'$  @@@@@@@@'$     ",
"     @@@@@@@_    @@@@@@@_       ",
"     @@@@@;:     @@@@@;:        ",
"     @@@@=<      @@@@=<         ",
"     %@@/(       %@@/(          ",
"     +@#$        +@#$           ",
"      [           [             ",
"                                ",
"                                ",
"                                ",
"                                ",
"                                ",
"                                ",
"                                "};
