/* XPM */
static const char * icon_cubes_xpm[] = {
"32 32 116 2",
"  	c None",
". 	c #818386",
"+ 	c #5A5C5F",
"@ 	c #2E3235",
"# 	c #76787B",
"$ 	c #2A2E32",
"% 	c #191D21",
"& 	c #181C20",
"* 	c #434649",
"= 	c #676A6C",
"- 	c #1C2024",
"; 	c #202428",
"> 	c #292D30",
", 	c #55585B",
"' 	c #E7E7E8",
") 	c #FFFFFF",
"! 	c #1D2125",
"~ 	c #404447",
"{ 	c #DADBDC",
"] 	c #F6F7F7",
"^ 	c #F7F8F8",
"/ 	c #D1D1D2",
"( 	c #1E2227",
"_ 	c #1F2327",
": 	c #414448",
"< 	c #8C8E91",
"[ 	c #424548",
"} 	c #212529",
"| 	c #1E2226",
"1 	c #15191E",
"2 	c #777A7C",
"3 	c #D5D6D6",
"4 	c #35393D",
"5 	c #282C30",
"6 	c #64676A",
"7 	c #828486",
"8 	c #A7A9AA",
"9 	c #F6F6F6",
"0 	c #808385",
"a 	c #43474A",
"b 	c #5B5E61",
"c 	c #424649",
"d 	c #F9F9F9",
"e 	c #676A6D",
"f 	c #85878A",
"g 	c #22262A",
"h 	c #F2F2F2",
"i 	c #717477",
"j 	c #14181C",
"k 	c #AAACAD",
"l 	c #24282C",
"m 	c #E0E1E1",
"n 	c #7D7F82",
"o 	c #2F3337",
"p 	c #1E2327",
"q 	c #909294",
"r 	c #181D21",
"s 	c #1A1E22",
"t 	c #54575A",
"u 	c #B7B8BA",
"v 	c #F3F3F4",
"w 	c #C0C1C3",
"x 	c #636669",
"y 	c #171B1F",
"z 	c #747779",
"A 	c #ECECEC",
"B 	c #F2F3F3",
"C 	c #9B9D9E",
"D 	c #1B1F23",
"E 	c #505356",
"F 	c #DADBDB",
"G 	c #FAFAFA",
"H 	c #FBFBFB",
"I 	c #E2E3E3",
"J 	c #616466",
"K 	c #292D31",
"L 	c #838688",
"M 	c #303437",
"N 	c #979A9B",
"O 	c #2F3336",
"P 	c #202327",
"Q 	c #97999A",
"R 	c #1D2126",
"S 	c #32363A",
"T 	c #B0B1B3",
"U 	c #F7F7F7",
"V 	c #2C3034",
"W 	c #1D2226",
"X 	c #3E4245",
"Y 	c #BDBEC0",
"Z 	c #EAEAEA",
"` 	c #15191D",
" .	c #919395",
"..	c #A7A8AA",
"+.	c #E7E7E7",
"@.	c #B6B8B9",
"#.	c #C7C8C9",
"$.	c #E7E8E8",
"%.	c #292C30",
"&.	c #ACADAF",
"*.	c #8D8F91",
"=.	c #2A2E31",
"-.	c #A1A3A4",
";.	c #3D4144",
">.	c #202529",
",.	c #C9CACB",
"'.	c #313538",
").	c #595C5F",
"!.	c #7D7F81",
"~.	c #2A2D31",
"{.	c #2E3135",
"].	c #797B7E",
"^.	c #262A2E",
"/.	c #67696C",
"(.	c #A0A1A3",
"_.	c #818385",
"                                                                ",
"                                                                ",
"                                                                ",
"                          . + @ @ + .                           ",
"                      # $ % & * * & % $ #                       ",
"                  = - ; > , ' ) ) ' , > ; - =                   ",
"                  ! ~ { ] ) ) ) ) ) ) ^ / ~ !                   ",
"                  ( _ : < ) ) ) ) ) ) < [ _ (                   ",
"                  ( } } | 1 2 3 3 2 1 - _ 4 |                   ",
"                  ( } } } } } ! ! ; 5 6 ) 7 |                   ",
"                  ( } } } } } } > 8 9 ) ) 0 |                   ",
"                  ( } } } } } } a ) ) ) ) 0 |                   ",
"                b _ } } } } } } c ) ) ) d e _ b                 ",
"            f g | ; ; } } } } } c ) h i j _ ; | g f             ",
"      k ; l _ 1 e m n % _ } } } l o } p % n m e 1 _ l ; k       ",
"    q r s t u v ) ) ) d w x y } } y x w d ) ) ) v u t s r q     ",
"    ! | z A ) ) ) ) ) ) ) B C - - C B ) ) ) ) ) ) ) A z | !     ",
"    } } } D E F G ) H I J % ; } } } % J I H ) G F E D ; } }     ",
"    } } } } } } K L M } ; D N O } } } ; } M L K } ; P Q & }     ",
"    } } } } } } } R D S T U ) V } } } } } } W & X Y ) Z ` }     ",
"    } } } } } } } ;  .) ) ) ) V } } } } } } _ ..) ) ) +.` }     ",
"    } } } } } } } ; @.) ) ) ) V } } } } } } ( #.) ) ) $.` }     ",
"    %.} } } } } } ; @.) ) ) &.g } } } } } } ( #.) ) ) *.- %.    ",
"      =._ } } } } ; u ) -.;.D l l >.} } } } ( ,.) *.'.s $       ",
"        ).'.| } } ; !.S % ~.{.    {.~.p } } _ ].^.D '.).        ",
"            /.5 ; } ; 5 ,             , 5 ; } ; 5 /.            ",
"                (.; _.                    _.; (.                ",
"                                                                ",
"                                                                ",
"                                                                ",
"                                                                ",
"                                                                "};
