/* XPM */
static const char * app_icon_gridmapsimul_xpm[] = {
"32 32 336 2",
"  	c None",
". 	c #98A0C9",
"+ 	c #A2A8CA",
"@ 	c #A3A8C9",
"# 	c #9BA4D0",
"$ 	c #8E94B9",
"% 	c #898EB0",
"& 	c #8C97C8",
"* 	c #8189B3",
"= 	c #8E9CD1",
"- 	c #8B96C6",
"; 	c #777EA7",
"> 	c #8A9AD1",
", 	c #98AADF",
"' 	c #A6B9E9",
") 	c #8B9BCA",
"! 	c #7A87C5",
"~ 	c #7582BF",
"{ 	c #ACC0F1",
"] 	c #A2B5E6",
"^ 	c #8797C8",
"/ 	c #707DB3",
"( 	c #8392D0",
"_ 	c #9CABDA",
": 	c #B8C5E5",
"< 	c #AAB5DD",
"[ 	c #A7B1DA",
"} 	c #9EA7D3",
"| 	c #9BADE5",
"1 	c #98AAE1",
"2 	c #8D9ED5",
"3 	c #7583BC",
"4 	c #7480B9",
"5 	c #96A5DB",
"6 	c #A5B4E4",
"7 	c #B5C2EB",
"8 	c #C8D3F1",
"9 	c #E2ECFB",
"0 	c #E3EDFB",
"a 	c #BFC9E4",
"b 	c #9FAAD1",
"c 	c #8498DD",
"d 	c #8A9EDF",
"e 	c #9AADE6",
"f 	c #91A2DC",
"g 	c #9AA9DE",
"h 	c #B1C0E9",
"i 	c #CBDAF7",
"j 	c #BDCAFC",
"k 	c #BBC6FF",
"l 	c #CBD6FE",
"m 	c #E4F2FB",
"n 	c #D6EEEC",
"o 	c #DAEEEF",
"p 	c #CCD7E9",
"q 	c #959ECA",
"r 	c #8B9EE0",
"s 	c #A3B6E9",
"t 	c #B9C9F0",
"u 	c #CBDAF6",
"v 	c #D5E7FD",
"w 	c #D4E9FF",
"x 	c #ACB8FF",
"y 	c #B0B6FF",
"z 	c #C1D0F8",
"A 	c #B2E0CB",
"B 	c #7BCD87",
"C 	c #A2DDAD",
"D 	c #DDEDEE",
"E 	c #D3D9ED",
"F 	c #959CC6",
"G 	c #8DA0E7",
"H 	c #A8BCF1",
"I 	c #AEC1F1",
"J 	c #C3D5F6",
"K 	c #D3E4FC",
"L 	c #DEEBFB",
"M 	c #E3E3E9",
"N 	c #E1CAC6",
"O 	c #C8B9D8",
"P 	c #CBC9F1",
"Q 	c #CEDEED",
"R 	c #B2DBB8",
"S 	c #8ED395",
"T 	c #B4E3BF",
"U 	c #EDF9F8",
"V 	c #F4F9FE",
"W 	c #BFC5DE",
"X 	c #979EC3",
"Y 	c #95A9E6",
"Z 	c #A4B8E9",
"` 	c #B7CAEF",
" .	c #CBDDF6",
"..	c #DBECFE",
"+.	c #DDEFFF",
"@.	c #DDE7F5",
"#.	c #E3CDC8",
"$.	c #EFA880",
"%.	c #ECC5B3",
"&.	c #EBE1CF",
"*.	c #E6EAC6",
"=.	c #D6E0AD",
"-.	c #D4EAD5",
";.	c #E4F5F3",
">.	c #F6FBFF",
",.	c #F8FDFF",
"'.	c #F5F9FD",
").	c #B3B9D3",
"!.	c #7F86B2",
"~.	c #9AAEEC",
"{.	c #9EB2E9",
"].	c #ABBEE1",
"^.	c #B0BFD5",
"/.	c #AFBCCE",
"(.	c #B5C3D4",
"_.	c #CBDBEF",
":.	c #D9EBFF",
"<.	c #E0E6F2",
"[.	c #E7CEC5",
"}.	c #F5B18A",
"|.	c #EBD2CC",
"1.	c #ECE0B4",
"2.	c #F3DF83",
"3.	c #F8E59A",
"4.	c #F3F5EA",
"5.	c #F1FAFF",
"6.	c #F3FAFF",
"7.	c #F7FCFF",
"8.	c #FFFFFF",
"9.	c #D8DBE9",
"0.	c #B0B5D2",
"a.	c #889EE9",
"b.	c #9EB5F3",
"c.	c #A9BDE9",
"d.	c #ACBBD7",
"e.	c #B3BAC4",
"f.	c #BBBEC3",
"g.	c #AFB1B4",
"h.	c #A0A3A8",
"i.	c #A3ABB5",
"j.	c #CEDBEC",
"k.	c #E0EDFE",
"l.	c #E3E9F3",
"m.	c #E7E5E7",
"n.	c #E7EDF5",
"o.	c #ECEFE5",
"p.	c #EFEDD4",
"q.	c #EDEFE4",
"r.	c #ECF5FC",
"s.	c #F2FBFF",
"t.	c #F8FEFF",
"u.	c #F9FDFF",
"v.	c #FDFFFF",
"w.	c #F5F7FA",
"x.	c #CDD1E2",
"y.	c #7C82B0",
"z.	c #8CA4EC",
"A.	c #A4BDF4",
"B.	c #AEC1DF",
"C.	c #B3BAC3",
"D.	c #BCBCBC",
"E.	c #B7B6B6",
"F.	c #A1A09F",
"G.	c #8E8D8D",
"H.	c #95989B",
"I.	c #CBD6E4",
"J.	c #E2F0FF",
"K.	c #E3F2FF",
"L.	c #E3F5FF",
"M.	c #E2F0FE",
"N.	c #DFEEFE",
"O.	c #D8EAFF",
"P.	c #CADBF8",
"Q.	c #D0DDF4",
"R.	c #E4EDF8",
"S.	c #FAFFFF",
"T.	c #FEFFFF",
"U.	c #E6E8F0",
"V.	c #9AA2C6",
"W.	c #6870A1",
"X.	c #8FA8ED",
"Y.	c #AAC7F6",
"Z.	c #B1C2D7",
"`.	c #B7B5B5",
" +	c #A5A4A4",
".+	c #908F8F",
"++	c #8C8C8C",
"@+	c #A7AAAD",
"#+	c #D2DDEA",
"$+	c #E1EFFF",
"%+	c #DFEDFF",
"&+	c #DDECFF",
"*+	c #D7E9FF",
"=+	c #CFE4FF",
"-+	c #C3D8FA",
";+	c #B0C5EC",
">+	c #92A3D1",
",+	c #93A0CC",
"'+	c #B1BCDC",
")+	c #E3EBF7",
"!+	c #F4FAFE",
"~+	c #F2F7FD",
"{+	c #BFCAE5",
"]+	c #6972A2",
"^+	c #4C548B",
"/+	c #8CA3EA",
"(+	c #A9C5F9",
"_+	c #B0C2DB",
":+	c #A7ABB0",
"<+	c #9E9E9E",
"[+	c #8E8E8E",
"}+	c #A2A4A8",
"|+	c #D0D9E3",
"1+	c #DCEAFB",
"2+	c #D9EAFF",
"3+	c #D0E4FF",
"4+	c #C8E0FF",
"5+	c #C0DBFF",
"6+	c #B1CAF3",
"7+	c #98ACDC",
"8+	c #7987BD",
"9+	c #565F93",
"0+	c #525B90",
"a+	c #6E79AD",
"b+	c #A2AFD7",
"c+	c #D0DDF3",
"d+	c #E4F2FF",
"e+	c #DDEDFD",
"f+	c #C0D1EE",
"g+	c #727CAC",
"h+	c #555D92",
"i+	c #879CE5",
"j+	c #A4C0F6",
"k+	c #BBD3F3",
"l+	c #C1CFDF",
"m+	c #B8C1CC",
"n+	c #B7BEC7",
"o+	c #BFC8D2",
"p+	c #CAD7E7",
"q+	c #CFE3FB",
"r+	c #C8E2FF",
"s+	c #C1DDFF",
"t+	c #B8D4FE",
"u+	c #ACC5F4",
"v+	c #95AADD",
"w+	c #7686BA",
"x+	c #646FA3",
"y+	c #616BA0",
"z+	c #8591C0",
"A+	c #A3B2D9",
"B+	c #A5B5DB",
"C+	c #8A97C5",
"D+	c #859AE3",
"E+	c #A0BCF5",
"F+	c #BAD4FB",
"G+	c #CFE3FA",
"H+	c #CDDEF1",
"I+	c #D0E0F1",
"J+	c #D5E6F8",
"K+	c #D0E5FF",
"L+	c #B8D5FD",
"M+	c #ACC8F8",
"N+	c #9CB6E9",
"O+	c #89A0D4",
"P+	c #7788BD",
"Q+	c #7A8CC3",
"R+	c #636FA7",
"S+	c #4B538C",
"T+	c #6A75AD",
"U+	c #8A9ACB",
"V+	c #91A0CE",
"W+	c #7581B4",
"X+	c #9AB6F2",
"Y+	c #B2CCF9",
"Z+	c #D0E6FF",
"`+	c #D5E9FF",
" @	c #D8EBFF",
".@	c #D6EAFF",
"+@	c #C3DBFC",
"@@	c #9BB7EE",
"#@	c #8297D1",
"$@	c #788AC4",
"%@	c #6A79B1",
"&@	c #515B90",
"*@	c #90AAEC",
"=@	c #ABC4F6",
"-@	c #CCE3FF",
";@	c #D4E7FF",
">@	c #BDD3F7",
",@	c #859AD6",
"'@	c #556095",
")@	c #444C7D",
"!@	c #89A0E5",
"~@	c #A4BDF1",
"{@	c #D4E8FF",
"]@	c #B6CDF3",
"^@	c #7D91CD",
"/@	c #7F94DC",
"(@	c #9AB1EB",
"_@	c #C2DAFD",
":@	c #D5E8FF",
"<@	c #DBECFF",
"[@	c #D3E7FF",
"}@	c #B0C7F0",
"|@	c #788BC8",
"1@	c #788BD5",
"2@	c #93AAE7",
"3@	c #B6CFF8",
"4@	c #DAECFF",
"5@	c #CEE3FF",
"6@	c #A8C0ED",
"7@	c #7384C1",
"8@	c #97B1EB",
"9@	c #A6BFF1",
"0@	c #CDE4FF",
"a@	c #D1E6FF",
"b@	c #C1DBFE",
"c@	c #9CB6E8",
"d@	c #6D7DB9",
"e@	c #889FE0",
"f@	c #94ADE8",
"g@	c #B4D3FF",
"h@	c #B8D9FF",
"i@	c #ADCCFE",
"j@	c #8CA5DE",
"k@	c #616FA7",
"l@	c #8AA2E1",
"m@	c #91ACE5",
"n@	c #93B0E7",
"o@	c #859ED6",
"p@	c #7386BE",
"q@	c #5D69A1",
"r@	c #7B8FCD",
"s@	c #7D92CE",
"t@	c #6B7DB5",
"u@	c #5C699E",
"                              . .                               ",
"                              + @                               ",
"                            # $ %                               ",
"                          & *                                   ",
"                        = - ;                                   ",
"                      >                                         ",
"                    ,                                           ",
"                  ' )               ! ~                         ",
"                { ] ^ /     ( _   : < [ }                       ",
"                | 1 2 3 4   5 6 7 8 9 0 a b                     ",
"                c d e f g h i j k l m n o p q                   ",
"                  r s t u v w x y z A B C D E F                 ",
"            G   H I J K L M N O P Q R S T U V W X               ",
"            Y Z `  ...+.@.#.$.%.&.*.=.-.;.>.,.'.).!.            ",
"        ~.{.].^./.(._.:.<.[.}.|.1.2.3.4.5.6.7.8.9.0.            ",
"    a.b.c.d.e.f.g.h.i.j.k.l.m.n.o.p.q.r.s.t.u.v.w.x.y.          ",
"    z.A.B.C.D.E.F.G.H.I.J.K.L.K.M.N.O.P.Q.R.S.T.8.U.V.W.        ",
"    X.Y.Z.g.`. +.+++@+#+$+%+&+*+=+-+;+>+,+'+)+!+T.~+{+]+^+      ",
"    /+(+_+:+<+[+++}+|+1+2+3+4+5+6+7+8+9+0+a+b+c+d+e+f+g+h+      ",
"    i+j+k+l+m+n+o+p+q+r+s+t+u+v+w+x+        y+z+A+B+C+          ",
"    D+E+F+G+H+I+J+K+L+M+N+O+P+Q+R+          S+T+U+V+W+          ",
"      X+Y+Z+`+ @.@+@@@#@$@%@&@                                  ",
"      *@=@-@;@*+`+>@,@'@)@                                      ",
"      !@~@4+;@O.{@]@^@                                          ",
"      /@(@_@:@<@[@}@|@                                          ",
"      1@2@3@;@4@5@6@7@                                          ",
"        8@9@0@a@b@c@d@                                          ",
"        e@f@g@h@i@j@k@                                          ",
"          l@m@n@o@p@q@                                          ",
"            r@s@t@u@                                            ",
"                                                                ",
"                                                                "};
