/* XPM */
static const char * icono_main_xpm[] = {
"32 32 349 2",
"  	c None",
". 	c #363736",
"+ 	c #000200",
"@ 	c #010301",
"# 	c #030000",
"$ 	c #4C494A",
"% 	c #EBEBEB",
"& 	c #E5E5E5",
"* 	c #E6E6E6",
"= 	c #ECECEC",
"- 	c #363033",
"; 	c #000402",
"> 	c #020202",
", 	c #010000",
"' 	c #404141",
") 	c #EEEEEE",
"! 	c #E4E4E4",
"~ 	c #EBEAEA",
"{ 	c #3A3436",
"] 	c #000401",
"^ 	c #020101",
"/ 	c #2F3130",
"( 	c #E8E7E8",
"_ 	c #433E41",
": 	c #000502",
"< 	c #020002",
"[ 	c #000100",
"} 	c #333836",
"| 	c #070000",
"1 	c #100305",
"2 	c #030001",
"3 	c #4E4F4E",
"4 	c #FFFFFF",
"5 	c #FDFDFD",
"6 	c #333933",
"7 	c #030301",
"8 	c #150203",
"9 	c #080000",
"0 	c #424342",
"a 	c #FEFEFE",
"b 	c #3A403D",
"c 	c #040303",
"d 	c #140305",
"e 	c #080001",
"f 	c #303231",
"g 	c #434943",
"h 	c #030100",
"i 	c #150304",
"j 	c #080100",
"k 	c #343A37",
"l 	c #090000",
"m 	c #2A131B",
"n 	c #4E5050",
"o 	c #313932",
"p 	c #040000",
"q 	c #33171B",
"r 	c #0A0000",
"s 	c #424442",
"t 	c #373F3C",
"u 	c #050101",
"v 	c #2B0D17",
"w 	c #2F3230",
"x 	c #414A42",
"y 	c #050000",
"z 	c #290B0F",
"A 	c #363837",
"B 	c #000000",
"C 	c #4F4E4E",
"D 	c #373636",
"E 	c #040001",
"F 	c #414342",
"G 	c #3E3C3D",
"H 	c #060000",
"I 	c #050102",
"J 	c #2E302E",
"K 	c #464645",
"L 	c #A0A0A0",
"M 	c #9C9E9C",
"N 	c #9B9E9D",
"O 	c #9D9C9D",
"P 	c #868585",
"Q 	c #4A4A4A",
"R 	c #4C4C4C",
"S 	c #4A494A",
"T 	c #918E8F",
"U 	c #9CA09E",
"V 	c #9B9D9E",
"W 	c #9D9D9E",
"X 	c #868686",
"Y 	c #494949",
"Z 	c #4B4B4B",
"` 	c #4B4A4B",
" .	c #8D8A8B",
"..	c #9C9F9D",
"+.	c #9C9E9D",
"@.	c #9D9D9D",
"#.	c #8D8D8D",
"$.	c #484848",
"%.	c #4D4D4D",
"&.	c #4B4A4A",
"*.	c #8A8789",
"=.	c #9D9F9F",
"-.	c #888888",
";.	c #E0E0E0",
">.	c #AFAFAF",
",.	c #010101",
"'.	c #C9C9C9",
").	c #BBBBBB",
"!.	c #C2C2C2",
"~.	c #CDCDCD",
"{.	c #B9B9B9",
"].	c #DADADA",
"^.	c #DFDFDF",
"/.	c #AEAEAE",
"(.	c #C8C8C8",
"_.	c #BABABA",
":.	c #CCCCCC",
"<.	c #D9D9D9",
"[.	c #E1E1E1",
"}.	c #FCFCFC",
"|.	c #FBFBFB",
"1.	c #E2E2E2",
"2.	c #ADACAC",
"3.	c #C8C6C7",
"4.	c #B3B4B4",
"5.	c #C0BFBF",
"6.	c #B6B5B6",
"7.	c #DBDBDB",
"8.	c #2F2F2E",
"9.	c #484646",
"0.	c #302B2D",
"a.	c #3B3C3C",
"b.	c #363134",
"c.	c #272828",
"d.	c #403C3D",
"e.	c #0F0204",
"f.	c #4F5050",
"g.	c #353733",
"h.	c #060200",
"i.	c #160102",
"j.	c #0B0000",
"k.	c #444443",
"l.	c #3A3E3A",
"m.	c #030300",
"n.	c #130102",
"o.	c #303230",
"p.	c #424845",
"q.	c #140104",
"r.	c #070001",
"s.	c #2E181F",
"t.	c #060103",
"u.	c #4F504F",
"v.	c #323632",
"w.	c #39171D",
"x.	c #0E0000",
"y.	c #424240",
"z.	c #384139",
"A.	c #32161A",
"B.	c #0A0100",
"C.	c #313331",
"D.	c #414A46",
"E.	c #2A0C16",
"F.	c #0A0002",
"G.	c #020000",
"H.	c #504F4F",
"I.	c #353333",
"J.	c #434343",
"K.	c #3D3C3D",
"L.	c #000300",
"M.	c #323332",
"N.	c #464646",
"O.	c #999898",
"P.	c #919391",
"Q.	c #919291",
"R.	c #939292",
"S.	c #7E7D7D",
"T.	c #4E4E4E",
"U.	c #888587",
"V.	c #909493",
"W.	c #919392",
"X.	c #929293",
"Y.	c #7D7E7D",
"Z.	c #4C4B4B",
"`.	c #848183",
" +	c #909392",
".+	c #838384",
"++	c #838081",
"@+	c #929393",
"#+	c #929292",
"$+	c #7C7C7C",
"%+	c #FEFDFE",
"&+	c #B3B3B3",
"*+	c #BDBDBD",
"=+	c #C3C3C3",
"-+	c #CFCFCF",
";+	c #C7C7C7",
">+	c #B8B8B8",
",+	c #FAFAFA",
"'+	c #D8D8D8",
")+	c #C1C1C1",
"!+	c #CBCBCB",
"~+	c #B7B7B7",
"{+	c #EAEAEA",
"]+	c #B5B5B5",
"^+	c #D2D1D1",
"/+	c #BFBFBF",
"(+	c #CBCACA",
"_+	c #D6D6D6",
":+	c #2F3030",
"<+	c #444142",
"[+	c #F8F8F8",
"}+	c #EFEFEF",
"|+	c #F0F0F0",
"1+	c #F9F8F8",
"2+	c #2D2829",
"3+	c #F9F9F9",
"4+	c #F1F1F1",
"5+	c #F6F5F5",
"6+	c #342F31",
"7+	c #F3F2F2",
"8+	c #3A3A3A",
"9+	c #343836",
"0+	c #0E0003",
"a+	c #4D4E4D",
"b+	c #343937",
"c+	c #040102",
"d+	c #130003",
"e+	c #3A3F3C",
"f+	c #040202",
"g+	c #120002",
"h+	c #2F312F",
"i+	c #454646",
"j+	c #000201",
"k+	c #0C0001",
"l+	c #010001",
"m+	c #333A37",
"n+	c #311A21",
"o+	c #313735",
"p+	c #341721",
"q+	c #090001",
"r+	c #424544",
"s+	c #383F3B",
"t+	c #32141E",
"u+	c #313332",
"v+	c #444746",
"w+	c #231117",
"x+	c #030102",
"y+	c #504E4F",
"z+	c #353435",
"A+	c #060002",
"B+	c #040002",
"C+	c #424443",
"D+	c #3C3B3B",
"E+	c #080103",
"F+	c #313231",
"G+	c #030101",
"H+	c #8B8B8B",
"I+	c #7F807F",
"J+	c #7D7F7F",
"K+	c #7F7D7E",
"L+	c #717071",
"M+	c #525252",
"N+	c #515151",
"O+	c #4F4F4F",
"P+	c #787576",
"Q+	c #7B7E7C",
"R+	c #7D7F7E",
"S+	c #7E7F7E",
"T+	c #717171",
"U+	c #505050",
"V+	c #757273",
"W+	c #7C7F7D",
"X+	c #7E7E7E",
"Y+	c #757575",
"Z+	c #727272",
"`+	c #807E7E",
" @	c #7E7E7D",
".@	c #6B6C6C",
"+@	c #B1B1B1",
"@@	c #030303",
"#@	c #C4C4C4",
"$@	c #DEDEDE",
"%@	c #C0C0C0",
"&@	c #B6B6B6",
"*@	c #E9E9E9",
"=@	c #D2D2D2",
"-@	c #CACACA",
";@	c #D5D5D5",
">@	c #373837",
",@	c #010402",
"'@	c #010302",
")@	c #494747",
"!@	c #E8E8E8",
"~@	c #303130",
"{@	c #020504",
"]@	c #010202",
"^@	c #413F40",
"/@	c #E5E6E5",
"(@	c #040404",
"_@	c #2E2F2E",
":@	c #E3E3E3",
"<@	c #404040",
"[@	c #080002",
"}@	c #030202",
"|@	c #313634",
"1@	c #0A0102",
"2@	c #3B3B3B",
"3@	c #070203",
"4@	c #323031",
"5@	c #444645",
"6@	c #020403",
"7@	c #321C24",
"8@	c #313635",
"9@	c #301921",
"0@	c #424343",
"a@	c #3C3C3C",
"b@	c #24181C",
"c@	c #060001",
"d@	c #333232",
"e@	c #251219",
"f@	c #353737",
"g@	c #504E50",
"h@	c #343535",
"i@	c #010100",
"j@	c #020001",
"k@	c #444243",
"l@	c #393C3B",
"m@	c #313131",
"n@	c #454545",
"o@	c #040101",
"p@	c #7A7A7A",
"q@	c #4E504F",
"r@	c #515352",
"s@	c #797879",
"t@	c #D3D3D3",
"u@	c #D0D0D0",
"v@	c #6E6E6E",
"w@	c #505252",
"x@	c #4F5151",
"y@	c #515051",
"z@	c #727171",
"A@	c #D7D7D7",
"B@	c #CECECE",
"C@	c #6F7171",
"D@	c #666666",
"E@	c #545555",
"F@	c #525051",
"G@	c #505151",
"H@	c #515252",
". + @ # $ % & * = - ; > , ' ) ! * ~ { ] ^ , / ) ! * ( _ : ^ < [ ",
"} | 1 2 3 4 5 5 4 6 7 8 9 0 4 5 a 4 b c d e f 4 a 5 4 g h i j [ ",
"k l m # n 4 5 4 4 o p q r s 4 5 a 4 t u v 9 w 4 a 4 4 x y z 9 [ ",
"A B # # C 4 a 5 4 D ] y E F 4 5 5 4 G : H I J 4 4 a 4 K ] y # [ ",
"L M N O P Q R R S T U V W X Y Z R `  ...+.@.#.$.R %.&.*.N =.W -.",
";.4 4 4 >.B ,.B B '.4 4 4 ).B ,.B B !.4 4 4 ~.B ,.,.B {.4 4 4 ].",
"^.a 5 5 /.B B B B (.a a a _.B B B B !.a 5 a :.B B B B {.a a 5 <.",
"[.}.5 a /.B B B B (.|.a a _.B B B B !.|.a 4 :.B B B B {.}.5 a <.",
"1.4 4 4 2.B B B B 3.4 4 4 4.B B B B 5.4 4 4 '.B B B B 6.4 4 4 7.",
"8.B B B 9.4 4 4 4 0.B B B a.4 a 4 4 b.B B B c.4 4 4 4 d.B B B B ",
"} | e.p f.4 a 5 4 g.h.i.j.k.4 5 a 4 l.m.n.| o.4 a a 4 p.# q.r.[ ",
"k l s.t.u.4 a a 4 v.H w.x.y.4 a a 4 z.# A.B.C.4 a a 4 D.p E.F.+ ",
"A B # G.H.4 a a 4 I.+ H p J.4 5 5 4 K.L.H G.M.4 5 4 4 N.L.y # [ ",
"O.P.Q.R.S.R T.%.Q U.V.W.X.Y.R %.R Z.`. +W.X..+Z %.%.Z ++V.@+#+$+",
";.%+4 4 &+B ,.B B (.a 4 4 *+B ,.B B =+4 4 4 -+B > ,.B _.4 4 4 ].",
"^.5 5 5 >.B > B B ;+}.5 5 >+B ,.B B !.|.5 5 :.B > B B >+,+a 5 '+",
"^.}.|.}./.B B B B ;+5 }.}.{.B ,.B B )+5 }.}.!+B ,.,.B ~+}.a 5 '+",
"{+4 4 4 ]+B B B B ^+4 4 4 /+B B B B (+4 4 4 _+B B B B /+4 4 4 * ",
":+B B B <+[+}+|+1+2+B B B a.3+}+4+5+6+B B B c.3+4+4+7+8+B B B B ",
"9+| 0+# a+4 |.5 4 b+c+d+| F 4 }.5 4 e+f+g+H h+4 5 5 4 i+j+k+9 l+",
"m+l n+I n 4 4 4 4 o+# p+q+r+4 4 a 4 s+p t+q+u+4 a 4 4 v+B w+k+, ",
"A B x+# y+4 a a 4 z+L.A+B+C+4 5 a 4 D+] E+B+F+4 a a 4 N.[ 9 G+[ ",
"H+I+J+K+L+M+N+N+O+P+Q+R+S+T+U+M+N+H.V+W+R+X+Y+U+N+N+U+Z+R+`+ @.@",
"[.4 4 4 +@B @@B B !+4 4 4 _.B @@B B #@a 4 4 -+B @@B B ).4 4 4 7.",
"$@a 5 5 /.B ,.B B ;+5 5 5 _.B > B B %@}.5 5 ~.B B B B &@5 a }.<.",
";.}.a 5 >.B B B B (.5 a a {.B ,.B B !.5 a a :.B B B B ~+}.a 5 '+",
"*@4 4 4 ]+B B B B =@4 4 4 %@B B B B -@4 4 4 ;@B B B B /+4 4 4 * ",
">@,@'@f+)@* $@1.!@~@{@]@2 ^@!@^.1./@} (@I > _@!@[.:@! <@,@[@}@'@",
"b+9 r # a+4 }.5 4 |@1@j.# i+4 ,+5 4 2@3@H y 4@4 a a 4 5@6@r l ,.",
"k l 7@c+f.4 4 4 4 8@l 9@# 0@4 4 4 4 a@p b@c@d@4 a 4 4 i+B e@j., ",
"f@B 2 # g@4 a a 4 h@i@j@# k@4 a 4 4 l@, E G.m@4 a 4 4 n@[ | o@[ ",
"p@q@r@M+s@t@u@-+t@v@w@x@y@z@A@B@-+=@C@M+N+N+D@A@u@u@=@Y+E@F@G@H@"};
