/* XPM */
static const char * app_icon_gridmapsimul_xpm[] = {
"24 24 188 2",
"  	c None",
". 	c #8690C1",
"+ 	c #A7ADCF",
"@ 	c #9BA4D0",
"# 	c #8B91B4",
"$ 	c #909CCF",
"% 	c #7B83AC",
"& 	c #8A99D0",
"* 	c #98AADF",
"= 	c #AEC2F3",
"- 	c #8898C6",
"; 	c #828FC9",
"> 	c #7C88C2",
", 	c #A0B2E6",
"' 	c #8B9BD0",
") 	c #6C78B1",
"! 	c #8B9AD5",
"~ 	c #A8B7E2",
"{ 	c #BFCCEB",
"] 	c #D9E3F6",
"^ 	c #D5DEF3",
"/ 	c #99A3CE",
"( 	c #879BDE",
"_ 	c #9AADE6",
": 	c #91A1DB",
"< 	c #A9B8E5",
"[ 	c #CBDAF7",
"} 	c #BAC6FE",
"| 	c #C4CEFF",
"1 	c #E4F2FB",
"2 	c #D3ECEA",
"3 	c #DBE8F2",
"4 	c #959ECA",
"5 	c #8C9FE1",
"6 	c #AABCEC",
"7 	c #CCDCF8",
"8 	c #DFEEFF",
"9 	c #D7E7FF",
"0 	c #A5ABFF",
"a 	c #C3CBFF",
"b 	c #A8DCBF",
"c 	c #67C66F",
"d 	c #D5EFE2",
"e 	c #E7ECF8",
"f 	c #8B92BF",
"g 	c #91A4E7",
"h 	c #AABEF0",
"i 	c #C5D8FA",
"j 	c #DAEBFF",
"k 	c #DCEDFF",
"l 	c #DFDDE4",
"m 	c #ECAD8C",
"n 	c #E6CCC5",
"o 	c #E5ECE5",
"p 	c #CADFB6",
"q 	c #C7E9D3",
"r 	c #F0F9FC",
"s 	c #F8FDFF",
"t 	c #DFE4F0",
"u 	c #7E85B1",
"v 	c #9CB0EB",
"w 	c #ABBEE1",
"x 	c #B1BFD3",
"y 	c #B1BECF",
"z 	c #CBDBEF",
"A 	c #DDEDFF",
"B 	c #E3D9DA",
"C 	c #F5B18A",
"D 	c #E9DDD9",
"E 	c #F2DF88",
"F 	c #F8E59A",
"G 	c #F2F9FF",
"H 	c #F3FAFF",
"I 	c #F7FCFF",
"J 	c #FDFFFF",
"K 	c #B7BBD6",
"L 	c #899FEA",
"M 	c #A6BDF4",
"N 	c #AFBED7",
"O 	c #B6B9BD",
"P 	c #BBBBBC",
"Q 	c #9E9E9F",
"R 	c #9AA0A7",
"S 	c #D9E7F9",
"T 	c #E1EFFF",
"U 	c #E4F2FF",
"V 	c #E7F3FE",
"W 	c #ECF1EC",
"X 	c #E6F0F8",
"Y 	c #E5F2FF",
"Z 	c #F4FBFF",
"` 	c #F9FDFF",
" .	c #FCFFFF",
"..	c #EEF0F6",
"+.	c #8188B4",
"@.	c #90A9EE",
"#.	c #B1CCF3",
"$.	c #AFB5BD",
"%.	c #BEBDBD",
"&.	c #A7A7A7",
"*.	c #898989",
"=.	c #9D9FA1",
"-.	c #DCE9F8",
";.	c #E2EFFF",
">.	c #DBEBFF",
",.	c #D2E6FF",
"'.	c #C3D9FA",
").	c #A5B6E1",
"!.	c #BCC8E6",
"~.	c #F2F9FE",
"{.	c #FEFFFF",
"].	c #B9C2DE",
"^.	c #565E93",
"/.	c #8CA3EA",
"(.	c #B1CDF8",
"_.	c #AAB1BA",
":.	c #9E9E9E",
"<.	c #8C8C8C",
"[.	c #969799",
"}.	c #D0D9E3",
"|.	c #DDECFF",
"1.	c #D3E6FF",
"2.	c #C8E0FF",
"3.	c #BDD8FD",
"4.	c #A2B7E5",
"5.	c #7987BD",
"6.	c #50598C",
"7.	c #626CA2",
"8.	c #A2AFD7",
"9.	c #DBE8FA",
"0.	c #E2F1FF",
"a.	c #C0D1EE",
"b.	c #616A9D",
"c.	c #869BE4",
"d.	c #ADCAFA",
"e.	c #C9DCF3",
"f.	c #C2CEDC",
"g.	c #C6D0DC",
"h.	c #D4E2F3",
"i.	c #CAE2FF",
"j.	c #BCD9FF",
"k.	c #B1CFFB",
"l.	c #A0B8EA",
"m.	c #8294CB",
"n.	c #5A6499",
"o.	c #555E95",
"p.	c #818EC0",
"q.	c #9FAFD9",
"r.	c #7E8ABB",
"s.	c #A1BDF5",
"t.	c #CCE3FF",
"u.	c #D4E8FF",
"v.	c #D7EAFF",
"w.	c #CFE5FF",
"x.	c #A4C2F5",
"y.	c #8FA6E0",
"z.	c #788AC2",
"A.	c #586398",
"B.	c #95AFEE",
"C.	c #C6DEFF",
"D.	c #D4E7FF",
"E.	c #D7E9FF",
"F.	c #CBE1FE",
"G.	c #859AD6",
"H.	c #4C5587",
"I.	c #8BA2E5",
"J.	c #BFD8FD",
"K.	c #D5E8FF",
"L.	c #D8EAFF",
"M.	c #C6DDFD",
"N.	c #7C90CC",
"O.	c #7F93DA",
"P.	c #B0CAF7",
"Q.	c #BED6FB",
"R.	c #7587C4",
"S.	c #9DB7EE",
"T.	c #CDE4FF",
"U.	c #CEE4FF",
"V.	c #ADC9F7",
"W.	c #6D7DB9",
"X.	c #8AA1E1",
"Y.	c #ABCBFC",
"Z.	c #ACCEFF",
"`.	c #94B0E9",
" +	c #5F6CA4",
".+	c #7F94D1",
"++	c #7F95CF",
"@+	c #6372A8",
"                        .                       ",
"                        +                       ",
"                      @ #                       ",
"                    $ %                         ",
"                  &                             ",
"                *                               ",
"              = -           ; >                 ",
"              , ' )   ! ~ { ] ^ /               ",
"              ( _ : < [ } | 1 2 3 4             ",
"              5 6 7 8 9 0 a b c d e f           ",
"          g h i j k l m n o p q r s t u         ",
"        v w x y z A B C D E F G H I J K         ",
"    L M N O P Q R S T U V W X Y Z `  ...+.      ",
"    @.#.$.%.&.*.=.-.;.;.>.,.'.).!.~. .{.].^.    ",
"    /.(._.:.<.[.}.|.1.2.3.4.5.6.7.8.9.0.a.b.    ",
"    c.d.e.f.g.h.i.j.k.l.m.n.      o.p.q.r.      ",
"      s.t.u.v.w.x.y.z.A.                        ",
"      B.C.D.E.F.G.H.                            ",
"      I.J.K.L.M.N.                              ",
"      O.P.K.j Q.R.                              ",
"        S.T.U.V.W.                              ",
"        X.Y.Z.`. +                              ",
"          .+++@+                                ",
"                                                "};
