/* XPM */
static const char * icon_main_xpm[] = {
"32 32 301 2",
"  	c None",
". 	c #E3E3E3",
"+ 	c #E2E2E2",
"@ 	c #E6E6E6",
"# 	c #DFDFDF",
"$ 	c #D3D3D3",
"% 	c #CACACA",
"& 	c #CDCDCD",
"* 	c #D1D1D1",
"= 	c #DBDBDB",
"- 	c #E0E0E0",
"; 	c #E8E8E8",
"> 	c #D4D4D4",
", 	c #D0D0D0",
"' 	c #D9D9D9",
") 	c #CCCCCC",
"! 	c #D6D6D6",
"~ 	c #E6E5E5",
"{ 	c #E7E7E7",
"] 	c #E9E9E9",
"^ 	c #EAEAEA",
"/ 	c #EBEBEB",
"( 	c #ECECEC",
"_ 	c #E5E5E5",
": 	c #E1E1E1",
"< 	c #E1E0E0",
"[ 	c #E2E1E1",
"} 	c #E4E4E4",
"| 	c #E3E2E2",
"1 	c #E3E2E3",
"2 	c #DFDFE0",
"3 	c #DEDFDE",
"4 	c #E1E2E1",
"5 	c #D7D7D7",
"6 	c #CFCFCF",
"7 	c #C8C7C8",
"8 	c #D1CDCE",
"9 	c #E4DFDF",
"0 	c #E1DFDF",
"a 	c #E1E3E2",
"b 	c #DCDFDD",
"c 	c #DDDEDE",
"d 	c #E0DEDF",
"e 	c #D8D5D7",
"f 	c #DDDADC",
"g 	c #D9D8DA",
"h 	c #DFE1E1",
"i 	c #DDE1E0",
"j 	c #DEE1E0",
"k 	c #DFE0E0",
"l 	c #DEDDDD",
"m 	c #E2E0E1",
"n 	c #EAE9E9",
"o 	c #DDDDDD",
"p 	c #D8D8D8",
"q 	c #D4D3D3",
"r 	c #D6CFD0",
"s 	c #D6CDCD",
"t 	c #DCD9D8",
"u 	c #DBE0DD",
"v 	c #CED5D2",
"w 	c #C1C4C3",
"x 	c #B3B1B2",
"y 	c #9D9A9D",
"z 	c #A6A4A7",
"A 	c #9EA2A4",
"B 	c #C9D0D0",
"C 	c #D2DCDA",
"D 	c #D7DEDC",
"E 	c #DADBDB",
"F 	c #DDDBDC",
"G 	c #DFDDDE",
"H 	c #E0DFE0",
"I 	c #DADADA",
"J 	c #EDEDED",
"K 	c #EEEEEE",
"L 	c #EBEAE9",
"M 	c #E0DAD9",
"N 	c #D8D2D1",
"O 	c #D9D9D7",
"P 	c #C7CECA",
"Q 	c #9BA6A2",
"R 	c #737B79",
"S 	c #5B5F5F",
"T 	c #515858",
"U 	c #525A5A",
"V 	c #586665",
"W 	c #98A4A2",
"X 	c #B2BDB9",
"Y 	c #D2D9D6",
"Z 	c #D9DDDC",
"` 	c #DCDADB",
" .	c #DAD8D9",
"..	c #DEDEDE",
"+.	c #DFDDDB",
"@.	c #D9D5D2",
"#.	c #CCCCC9",
"$.	c #909A94",
"%.	c #47564F",
"&.	c #334740",
"*.	c #364E46",
"=.	c #3B574F",
"-.	c #2C4941",
";.	c #2E4E46",
">.	c #425853",
",.	c #4E5C58",
"'.	c #949C99",
").	c #BEC4C2",
"!.	c #D7D8D7",
"~.	c #D8D6D7",
"{.	c #D7D5D6",
"].	c #D6D5D6",
"^.	c #D9D8D8",
"/.	c #D2D2D2",
"(.	c #D5D5D5",
"_.	c #D6D6D4",
":.	c #D2D1CD",
"<.	c #AAADA9",
"[.	c #4E5A54",
"}.	c #344740",
"|.	c #3A574E",
"1.	c #355A4E",
"2.	c #265044",
"3.	c #254F43",
"4.	c #2C574B",
"5.	c #38524B",
"6.	c #3F4C48",
"7.	c #7A817E",
"8.	c #B1B5B4",
"9.	c #D6D4D5",
"0.	c #D6D5D5",
"a.	c #E5E7E7",
"b.	c #D1D2D1",
"c.	c #CED0CE",
"d.	c #C8CCC7",
"e.	c #939691",
"f.	c #3D4641",
"g.	c #3C4D46",
"h.	c #3A5D51",
"i.	c #2D5F4F",
"j.	c #235E4C",
"k.	c #215B4A",
"l.	c #235A4A",
"m.	c #33534A",
"n.	c #3B4A46",
"o.	c #565D5B",
"p.	c #838786",
"q.	c #CACBCB",
"r.	c #D1CFD0",
"s.	c #D1D0D1",
"t.	c #DEDFDF",
"u.	c #CFD0CF",
"v.	c #CDD1CE",
"w.	c #C2C8C2",
"x.	c #7A7C77",
"y.	c #3C413D",
"z.	c #3B4943",
"A.	c #688D81",
"B.	c #508B78",
"C.	c #246A54",
"D.	c #206650",
"E.	c #246351",
"F.	c #2F5349",
"G.	c #344540",
"H.	c #313937",
"I.	c #585D5C",
"J.	c #B8B9B9",
"K.	c #CECDCD",
"L.	c #D0CECF",
"M.	c #CFCECE",
"N.	c #CDCDCC",
"O.	c #CACFCB",
"P.	c #BBC0BB",
"Q.	c #6E6E6C",
"R.	c #373B38",
"S.	c #384640",
"T.	c #487364",
"U.	c #2A6E58",
"V.	c #1B674F",
"W.	c #226953",
"X.	c #24614F",
"Y.	c #335249",
"Z.	c #34423D",
"`.	c #38403D",
" +	c #6C7170",
".+	c #C4C4C4",
"++	c #CCCBCB",
"@+	c #CCCACB",
"#+	c #CDCCCD",
"$+	c #DADDDC",
"%+	c #C9C9C9",
"&+	c #C8C8C8",
"*+	c #C8C9C8",
"=+	c #C2C9C5",
"-+	c #BFC6C0",
";+	c #787875",
">+	c #3B3938",
",+	c #414845",
"'+	c #33594D",
")+	c #1E624C",
"!+	c #1A664E",
"~+	c #1F6852",
"{+	c #23604F",
"]+	c #315148",
"^+	c #35443F",
"/+	c #2F3634",
"(+	c #686D6C",
"_+	c #C3C4C4",
":+	c #C9C7C8",
"<+	c #C8C6C7",
"[+	c #C9C8C9",
"}+	c #DCDFDE",
"|+	c #CECECE",
"1+	c #C7C7C7",
"2+	c #C6C6C6",
"3+	c #C4C7C5",
"4+	c #C1C9C4",
"5+	c #C5CAC5",
"6+	c #8B8786",
"7+	c #403C3B",
"8+	c #414A46",
"9+	c #2A5446",
"0+	c #1A624B",
"a+	c #19644C",
"b+	c #216651",
"c+	c #265A4B",
"d+	c #314B44",
"e+	c #37433F",
"f+	c #4C5250",
"g+	c #A2A5A4",
"h+	c #C6C4C5",
"i+	c #C7C6C7",
"j+	c #C5C5C5",
"k+	c #C1C1C1",
"l+	c #C3C3C3",
"m+	c #C0C4C2",
"n+	c #BFC3C0",
"o+	c #BCBBBA",
"p+	c #736E6F",
"q+	c #4E4E4E",
"r+	c #3A4E47",
"s+	c #2B5044",
"t+	c #2C5045",
"u+	c #2D5146",
"v+	c #374F48",
"w+	c #3D4E49",
"x+	c #39413F",
"y+	c #696E6C",
"z+	c #C1C3C2",
"A+	c #C2C1C1",
"B+	c #C4C3C3",
"C+	c #DBDDDC",
"D+	c #CBCBCB",
"E+	c #C0C0C0",
"F+	c #BEBEBE",
"G+	c #C2C2C2",
"H+	c #BCBDBC",
"I+	c #8F8E8E",
"J+	c #626262",
"K+	c #464B49",
"L+	c #414946",
"M+	c #444B48",
"N+	c #484F4C",
"O+	c #505353",
"P+	c #404342",
"Q+	c #5E5F5F",
"R+	c #AFAFAF",
"S+	c #DCDCDC",
"T+	c #BCBCBC",
"U+	c #BFBFBF",
"V+	c #BDBDBD",
"W+	c #B4B4B4",
"X+	c #838383",
"Y+	c #4F4F4F",
"Z+	c #606060",
"`+	c #4C4C4C",
" @	c #6A6A6A",
".@	c #7C7C7C",
"+@	c #B7B7B7",
"@@	c #BBBBBB",
"#@	c #B8B8B8",
"$@	c #929292",
"%@	c #A2A2A2",
"&@	c #9D9D9D",
"*@	c #BABABA",
"=@	c #B5B5B5",
"-@	c #B2B2B2",
";@	c #B3B3B3",
">@	c #B1B1B1",
",@	c #ADADAD",
"'@	c #B0B0B0",
")@	c #AEAEAE",
"!@	c #ACACAC",
"~@	c #ABABAB",
"{@	c #A9A9A9",
"]@	c #A8A8A8",
"^@	c #A7A7A7",
"/@	c #AAAAAA",
"(@	c #A6A6A6",
"_@	c #B9B9B9",
":@	c #B6B6B6",
"                                                                ",
"                                                                ",
"                                                                ",
"                                                                ",
"                                                                ",
"                                    . + @ . #                   ",
"                                  $ % % & * = -                 ",
"                              ; - > , ' ) > ! - -               ",
"                    ~ { ; ] ] ^ { ] @ ] ^ / / (                 ",
"          ; _ . - : < [ < + : + } | 1 + 2 3 4 : . } _           ",
"      ( _ # 5 6 & 7 8 9 0 a b c d e f g h i j k k l m n         ",
"      . o 5 % p p q r s t u v w x y z A B C D i E F G H .       ",
"    . I I > ' J K L M N O P Q R S T U V W X Y Z I `  .` o       ",
"    : ! p 5 = ..- @ +.@.#.$.%.&.*.=.-.;.>.,.'.).!.~.{.].^.      ",
"    ' /.p (.(.(.! = _.:.<.[.}.|.1.2.3.4.5.6.7.8./.{.9.0.5 a.    ",
"    I * /.* * /./.b.c.d.e.f.g.h.i.j.k.l.m.n.o.p.q.$ r.s.(.t.    ",
"    .., 6 6 , 6 , u.v.w.x.y.z.A.B.C.D.E.F.G.H.I.J.K.L.M., E     ",
"    (.& & ) & & & N.O.P.Q.R.S.T.U.V.W.X.Y.Z.`. +.+++@+#+& $+    ",
"    p %+%+&+%+&+%+*+=+-+;+>+,+'+)+!+~+{+]+^+/+(+_+:+<+[+[+}+    ",
"    |+1+1+2+2+2+2+3+4+5+6+7+8+9+0+a+b+c+d+e+f+g+[+h+h+i+2+j     ",
"    ! j+j+k+.+l+.+_+m+n+o+p+q+r+s+t+u+v+w+x+y+z+1+A+B+l+l+C+    ",
"    D+E+l+F+G+k+G+G+E+H+E+I+J+K+L+M+N+O+P+Q+R+6 F+E+G+G+l+S+    ",
"    I 1+T+F+U+F+U+U+F+T+E+V+W+X+Y+Z+`+ @.@+@6 G+U+F+F+V+U+#     ",
"    ..2+@@F+V+T+V+V+@@#@#@D+6 F+$@%@&@%+, |+U+T+V+V+T+*@% #     ",
"      I V++@#@+@#@#@=@W+=@=@-@2+1+1+%+k+E+;@+@+@#@*@=@G+=       ",
"        % -@>@,@'@>@'@,@,@R+)@-@>@)@R+!@'@'@)@,@~@)@#@I         ",
"        (.U+R+{@{@]@^@^@^@~@{@/@^@^@^@(@{@]@^@^@^@-@D+.         ",
"          I * & 2+V+V+_@#@=@=@:@:@:@:@#@+@F+.+% & , o           ",
"                5 S+S+(.& &+%+/.* /.(.p = o #     _             ",
"                                                                ",
"                                                                ",
"                                                                "};
