/* XPM */
static const char * MAIN_ICON_xpm[] = {
"32 32 15 1",
" 	c None",
".	c #222222",
"+	c #FFFFFF",
"@	c #424242",
"#	c #CCCC99",
"$	c #999966",
"%	c #000000",
"&	c #666633",
"*	c #336666",
"=	c #003333",
"-	c #FFFF99",
";	c #CCFFFF",
">	c #99CCCC",
",	c #339999",
"'	c #777777",
"             .........          ",
"             .+++++++.          ",
"      @@@@@@@.+++++++.          ",
"      @++##$$.#%##+++.          ",
"      @##$@@&.%+%$##+.          ",
"      @$@@++.%+++%&$#..         ",
"     %@@+++#%+++++.&$.*.=       ",
"    ..+++@@%#--++++.=.=;;==     ",
"   =@++#@++@@$#--+++..=**;.     ",
"  =;=.#$@++++.&$#--++.=*;=.     ",
" =;==.&@#+++++..&$#--.=;*=.     ",
" =;;=@@@$##+++++..&$..;**=.     ",
" =;>;;@@&$$##++++.&.&;***=.     ",
" =;>>>;;@&&$$##++..&;****=.     ",
" =;>>>>>;;@&&$$#&.&;*****=.     ",
" =;>>>>>>>;;=&&$..;******=.     ",
" =;>>>>>>>>>;;=..;*******=.     ",
" =;>>>>>>>>>>>;;;********=.     ",
" =;>>>>>>>>>>>>,*********=.     ",
" =;>>>>>>>>>>>>,*********=.'    ",
" =;>>>>>>>>>>>>,*********=.@'   ",
" =;>>>>>>>>>>>>,********=.@'    ",
" =;>>>>>>>>>>>>,*******=.@'     ",
" =;>>>>>>>>>>>>,******=.@'      ",
" =,,>>>>>>>>>>>,*****=.@'       ",
"  ==*,>>>>>>>>>,****=.@'        ",
"    ==*,>>>>>>>,***=.@'         ",
"      ==*,>>>>>,**=.@'          ",
"        ==*,>>>,*=.@'           ",
"          ==*,>,=.@'            ",
"            ==**.@'             ",
"              ==@'              "};
