/* XPM */
static const char * main_icon_xpm[] = {
"32 32 13 1",
" 	c None",
".	c #000000",
"+	c #FF3333",
"@	c #EE0000",
"#	c #BA0000",
"$	c #999833",
"%	c #777777",
"&	c #AAAAAA",
"*	c #444444",
"=	c #DDDDDD",
"-	c #888888",
";	c #222222",
">	c #555555",
"                                ",
"                                ",
"                                ",
"                                ",
"                                ",
"                                ",
"                                ",
"                                ",
"                                ",
"                                ",
"                                ",
"                                ",
"            ....     ..         ",
"          ..+@#... ..+@.        ",
"        ..+@@@.$$..+@.@.        ",
"      ..+@@..#...+@..%.@.       ",
"    ..+@@@.$$..+@..&&%.@.       ",
"   .+++@@..$$..@.*%&&&%.@.      ",
"  .+=@@++..$$...@.*%%..@@@..  * ",
" ..@@=-@@++..$..@.*..@@@@@@@.. *",
".%.@##@=-@@++..-.@.@@@@@@@+@@@. ",
".*.#..#@@--@@+@..@@@@@@@=@@@=;.*",
" ......#@@@--@@@@@@@@@@@@->#;>. ",
"   .%...##@@@->@@@@@++@@@#>#>-.*",
"   .-.....#####->@@@@@=;####... ",
"   ...... .....#@->@@@;>##..... ",
"    ....    ....#@@@@@>-......  ",
"            .%...##@@.......    ",
"            .-.....##.....      ",
"            ...... .....        ",
"             ....               ",
"                                "};
