/* XPM */
static const char * icon_config_xpm[] = {
"24 24 129 2",
"  	c None",
". 	c #E2E2E2",
"+ 	c #DDDDDD",
"@ 	c #B2B2B2",
"# 	c #AEAEAE",
"$ 	c #EBEBEB",
"% 	c #EDEDED",
"& 	c #EEEEEE",
"* 	c #CACACA",
"= 	c #A5A5A5",
"- 	c #E9E9E9",
"; 	c #ECECEC",
"> 	c #BEBEBE",
", 	c #C3C3C3",
"' 	c #F3F3F3",
") 	c #D9D9D9",
"! 	c #E8E8E8",
"~ 	c #CDCDCD",
"{ 	c #CBCBCB",
"] 	c #A7A7A7",
"^ 	c #C6C6C6",
"/ 	c #DCDCDC",
"( 	c #E6E6E6",
"_ 	c #E4E4E4",
": 	c #C9C9C9",
"< 	c #8D8D8D",
"[ 	c #BDBDBD",
"} 	c #DADADA",
"| 	c #E5E5E5",
"1 	c #DEDEDE",
"2 	c #E1E1E1",
"3 	c #B9B9B9",
"4 	c #929292",
"5 	c #B5B5B5",
"6 	c #CFCFCF",
"7 	c #E3E3E3",
"8 	c #E0E0E0",
"9 	c #DFDFDF",
"0 	c #DBDBDB",
"a 	c #9C9C9C",
"b 	c #D5D5D5",
"c 	c #B6B6B6",
"d 	c #B1B1B1",
"e 	c #D7D7D7",
"f 	c #ABABAB",
"g 	c #9D9D9D",
"h 	c #ACACAC",
"i 	c #878787",
"j 	c #9E9E9E",
"k 	c #818181",
"l 	c #C4C4C4",
"m 	c #CECECE",
"n 	c #DADADB",
"o 	c #DBDBDA",
"p 	c #A8A7A6",
"q 	c #D1D1D1",
"r 	c #D5D5D6",
"s 	c #C0C0C0",
"t 	c #CFCECE",
"u 	c #B3BABE",
"v 	c #6D8FA5",
"w 	c #C8C8C9",
"x 	c #C2C2C3",
"y 	c #DCDBDB",
"z 	c #B8BCC0",
"A 	c #7FB1D6",
"B 	c #6CBEF6",
"C 	c #73B9E4",
"D 	c #E0DFE0",
"E 	c #DCDCDE",
"F 	c #D2D1D3",
"G 	c #C5C4C4",
"H 	c #AAAEB2",
"I 	c #598ABB",
"J 	c #3C8CD4",
"K 	c #4E9EDD",
"L 	c #60ABDF",
"M 	c #6AAED8",
"N 	c #D5D5D7",
"O 	c #D8D8D9",
"P 	c #D0D0D0",
"Q 	c #65696D",
"R 	c #094688",
"S 	c #1B64AE",
"T 	c #3785CA",
"U 	c #4A96D1",
"V 	c #60ACDF",
"W 	c #D4D4D6",
"X 	c #0A4380",
"Y 	c #1C64AB",
"Z 	c #3886CB",
"` 	c #4D99D4",
" .	c #63AEE2",
"..	c #0A4280",
"+.	c #1A62A9",
"@.	c #3783C7",
"#.	c #4D98D3",
"$.	c #5FAADF",
"%.	c #D7D6D8",
"&.	c #E7E7E7",
"*.	c #BCBCBC",
"=.	c #08407E",
"-.	c #1B63AB",
";.	c #4A95D0",
">.	c #5EA9DE",
",.	c #BBBBBC",
"'.	c #AFAFB0",
").	c #0A4687",
"!.	c #1D66AE",
"~.	c #3986CB",
"{.	c #094587",
"].	c #1B63AD",
"^.	c #5CA8DD",
"/.	c #7C7C7C",
"(.	c #074487",
"_.	c #1C65AE",
":.	c #3985CA",
"<.	c #4B98D6",
"[.	c #62B3EB",
"}.	c #D4D4D4",
"|.	c #8A8A8A",
"1.	c #09488D",
"2.	c #1E6AB5",
"3.	c #3C8BD2",
"4.	c #498BBE",
"5.	c #BBBBBB",
"6.	c #8B8B8B",
"7.	c #10549E",
"8.	c #245F98",
"                                  . +           ",
"    @ #                       $ % & *           ",
"    = * -                   - ; - >             ",
"      , '                 ) ! - ~           {   ",
"        ] ^               / ( ( )         _ :   ",
"          < [             } _ . | 1     2 2 3   ",
"            4 5           6 7 8 9 . 2 8 8 0 =   ",
"              a @         b 2 9 9 9 8 8 0 c     ",
"                a d     / 7 9 } e / / 6 f       ",
"                  g h b 7 9 0 = i j g k         ",
"                    l m n o p                   ",
"                  q r s t u v                   ",
"                - w x y z A B C                 ",
"              D E F G H I J K L M               ",
"            + N O | P Q R S T U V               ",
"          + W O _ ! j     X Y Z `  .            ",
"        n N O 7 ; c         ..+.@.#.$.          ",
"      1 %.0 8 &.*.            =.-.Z ;.>.        ",
"    + ,.'.1 | ,                 ).!.~.` L       ",
"  1 n     8 *                     {.].@.#.^.    ",
"  8 _ / 7 6 /.                      (._.:.<.[.  ",
", 2 2 7 }.|.                          1.2.3.4.  ",
"  5.{ [ 6.                              7.8.    ",
"                                                "};
