/* XPM */
static const char * icon_step_xpm[] = {
"24 24 251 2",
"  	c None",
". 	c #5C83D8",
"+ 	c #6087D9",
"@ 	c #205BCC",
"# 	c #8BABE5",
"$ 	c #C2D4F2",
"% 	c #89ABE6",
"& 	c #467DD9",
"* 	c #1A62D1",
"= 	c #2567D1",
"- 	c #9DBBEC",
"; 	c #BCD2F2",
"> 	c #B7CEF2",
", 	c #A8C5EF",
"' 	c #7AA7E7",
") 	c #3F82DD",
"! 	c #186BD7",
"~ 	c #4483DC",
"{ 	c #A4C6F1",
"] 	c #ADCDF3",
"^ 	c #A7C8F1",
"/ 	c #A3C6F1",
"( 	c #A1C5F1",
"_ 	c #91BBEF",
": 	c #6AA4E9",
"< 	c #4B92E5",
"[ 	c #257FE1",
"} 	c #5C99E4",
"| 	c #A3CDF5",
"1 	c #A0CCF5",
"2 	c #9BC7F4",
"3 	c #96C3F2",
"4 	c #92C0F1",
"5 	c #8FBFF1",
"6 	c #8CBEF1",
"7 	c #84BAF1",
"8 	c #65A9ED",
"9 	c #3B92E9",
"0 	c #2085E6",
"a 	c #66A7EC",
"b 	c #9CD0F9",
"c 	c #96CCF8",
"d 	c #91C8F6",
"e 	c #8DC4F5",
"f 	c #88BFF3",
"g 	c #84BCF2",
"h 	c #7FBBF3",
"i 	c #7CBAF3",
"j 	c #78B9F3",
"k 	c #70B5F3",
"l 	c #57A8F0",
"m 	c #3296ED",
"n 	c #198AEB",
"o 	c #6AB4F3",
"p 	c #91D3FD",
"q 	c #8BCEFC",
"r 	c #86CAFB",
"s 	c #81C6F9",
"t 	c #7DC1F7",
"u 	c #77BBF5",
"v 	c #73B7F3",
"w 	c #6FB6F3",
"x 	c #6BB7F5",
"y 	c #67B7F6",
"z 	c #64B6F6",
"A 	c #3EA5F4",
"B 	c #1B94F2",
"C 	c #1B96F2",
"D 	c #2A8DE8",
"E 	c #76C3F9",
"F 	c #85D3FF",
"G 	c #80D0FF",
"H 	c #7BCDFE",
"I 	c #76C9FE",
"J 	c #72C5FC",
"K 	c #6CBFF9",
"L 	c #67B9F7",
"M 	c #62B2F4",
"N 	c #5DAFF3",
"O 	c #5BB2F6",
"P 	c #49B0F9",
"Q 	c #23A1F8",
"R 	c #1D9EF8",
"S 	c #1C9EF8",
"T 	c #1B9DF8",
"U 	c #1E9EF8",
"V 	c #26A2F7",
"W 	c #389DEF",
"X 	c #79CCFD",
"Y 	c #7AD2FF",
"Z 	c #76CFFF",
"` 	c #71CCFF",
" .	c #6CCAFF",
"..	c #68C7FF",
"+.	c #62C3FE",
"@.	c #5DBDFC",
"#.	c #59B6F9",
"$.	c #52AEF5",
"%.	c #3D9FF0",
"&.	c #2092F0",
"*.	c #1EA7FE",
"=.	c #28ABFE",
"-.	c #47B7FD",
";.	c #6EC5FD",
">.	c #47AEF6",
",.	c #74D2FE",
"'.	c #6FD1FF",
").	c #6BCFFF",
"!.	c #66CCFF",
"~.	c #61C9FF",
"{.	c #5DC7FF",
"].	c #58C3FF",
"^.	c #53C0FF",
"/.	c #48B9FE",
"(.	c #30ABFB",
"_.	c #1F9CF6",
":.	c #2998F1",
"<.	c #4CA6F2",
"[.	c #69BCF8",
"}.	c #79C7FB",
"|.	c #77CDFE",
"1.	c #5DC4FF",
"2.	c #43BAFF",
"3.	c #23A5F3",
"4.	c #1F9CF3",
"5.	c #52BEFC",
"6.	c #6AD4FF",
"7.	c #65D1FF",
"8.	c #60CFFF",
"9.	c #5BCCFF",
"0.	c #57CAFF",
"a.	c #52C7FF",
"b.	c #49C2FF",
"c.	c #39BAFF",
"d.	c #31B5FF",
"e.	c #47BAFF",
"f.	c #6DC5FD",
"g.	c #84CBFC",
"h.	c #7EC3F8",
"i.	c #5DADF2",
"j.	c #3895EB",
"k.	c #2294EF",
"l.	c #1EA7FB",
"m.	c #20B0FF",
"n.	c #1EA3F0",
"o.	c #28A9FA",
"p.	c #58CAFF",
"q.	c #61D5FF",
"r.	c #5CD2FF",
"s.	c #57D0FF",
"t.	c #50CDFF",
"u.	c #49C9FF",
"v.	c #43C6FF",
"w.	c #4BC6FF",
"x.	c #66CDFF",
"y.	c #82D4FF",
"z.	c #86D5FF",
"A.	c #47B9FF",
"B.	c #29A6FA",
"C.	c #1A96F3",
"D.	c #188CEE",
"E.	c #1781E7",
"F.	c #1780E6",
"G.	c #1B92EE",
"H.	c #2EB3FE",
"I.	c #51D1FF",
"J.	c #4FD5FF",
"K.	c #49D2FF",
"L.	c #49D1FF",
"M.	c #5DD4FF",
"N.	c #72D8FF",
"O.	c #7BD9FF",
"P.	c #7ED9FF",
"Q.	c #67D1FF",
"R.	c #51C8FF",
"S.	c #35BCFF",
"T.	c #23B3FF",
"U.	c #1FAFFF",
"V.	c #1FABFF",
"W.	c #1EA3FB",
"X.	c #167DDF",
"Y.	c #1164C0",
"Z.	c #0D4D9C",
"`.	c #25B8FF",
" +	c #37D4FF",
".+	c #4ED9FF",
"++	c #6EDEFF",
"@+	c #87E3FF",
"#+	c #8AE3FF",
"$+	c #72DDFF",
"%+	c #51D2FF",
"&+	c #35C8FF",
"*+	c #28C2FF",
"=+	c #25BFFF",
"-+	c #25BCFF",
";+	c #25B9FF",
">+	c #22B2FF",
",+	c #1EA1F6",
"'+	c #1886DD",
")+	c #1265B3",
"!+	c #35B7FD",
"~+	c #5CCFFF",
"{+	c #82E8FF",
"]+	c #8EEAFF",
"^+	c #7EE6FF",
"/+	c #5EDEFF",
"(+	c #3FD6FF",
"_+	c #2FD0FF",
":+	c #2BCDFF",
"<+	c #2BCBFF",
"[+	c #2BC8FF",
"}+	c #29C3FF",
"|+	c #24B6FB",
"1+	c #1F9FED",
"2+	c #1881CD",
"3+	c #0F5693",
"4+	c #47C0FB",
"5+	c #6EE1FF",
"6+	c #61E7FF",
"7+	c #49E2FF",
"8+	c #36DDFF",
"9+	c #30DAFF",
"0+	c #30D8FF",
"a+	c #31D7FF",
"b+	c #2ED2FF",
"c+	c #29C2FC",
"d+	c #22AAED",
"e+	c #1C8FCE",
"f+	c #146CA9",
"g+	c #27BCFA",
"h+	c #34DFFF",
"i+	c #35E5FF",
"j+	c #35E4FF",
"k+	c #35E3FF",
"l+	c #34E1FF",
"m+	c #30D5FF",
"n+	c #29BFF7",
"o+	c #209FDF",
"p+	c #1572AE",
"q+	c #2CC9F9",
"r+	c #38EBFF",
"s+	c #39ECFF",
"t+	c #36E4FF",
"u+	c #2FD1FB",
"v+	c #26B4EC",
"w+	c #1B89C6",
"x+	c #2AC1F0",
"y+	c #2FCFF7",
"z+	c #28B9E9",
"A+	c #1F94C4",
"B+	c #156EA5",
"                                                ",
"          . + @                                 ",
"          # $ % & *                             ",
"        = - ; > , ' ) !                         ",
"        ~ { ] ^ / ( _ : < [                     ",
"        } | 1 2 3 4 5 6 7 8 9 0                 ",
"        a b c d e f g h i j k l m n             ",
"        o p q r s t u v w x y z A B B C         ",
"      D E F G H I J K L M N O P Q R S T U V     ",
"      W X Y Z `  ...+.@.#.$.%.&.T *.=.-.;.;.    ",
"      >.,.'.).!.~.{.].^./.(._.:.<.[.}.|.1.2.3.  ",
"    4.5.6.7.8.9.0.a.b.c.d.e.f.g.h.i.j.k.l.m.n.  ",
"    o.p.q.r.s.t.u.v.w.x.y.z. .A.B.C.D.E.F.G.    ",
"    H.I.J.K.L.M.N.O.P.Q.R.S.T.U.V.W.B X.Y.Z.    ",
"    `. +.+++@+#+$+%+&+*+=+-+;+>+,+'+)+          ",
"  !+~+{+]+^+/+(+_+:+<+[+}+|+1+2+3+              ",
"  4+5+6+7+8+9+0+a+b+c+d+e+f+                    ",
"  g+h+i+j+k+l+m+n+o+p+                          ",
"  q+r+s+t+u+v+w+                                ",
"  x+y+z+A+B+                                    ",
"                                                ",
"                                                ",
"                                                ",
"                                                "};
