/* XPM */
static const char * icon_reset_xpm[] = {
"24 24 291 2",
"  	c None",
". 	c #F0BB7E",
"+ 	c #F5CEA1",
"@ 	c #EFC89D",
"# 	c #EEBF89",
"$ 	c #DE903B",
"% 	c #F8D7AD",
"& 	c #FFF7EA",
"* 	c #FFF5E5",
"= 	c #FFF1DE",
"- 	c #FBE0BD",
"; 	c #EDB676",
"> 	c #F8D19F",
", 	c #FFEED7",
"' 	c #FFECD4",
") 	c #FFECD3",
"! 	c #FFEDD5",
"~ 	c #FFEBD0",
"{ 	c #F3C38A",
"] 	c #F8CC94",
"^ 	c #FFE8C9",
"/ 	c #FFE6C5",
"( 	c #FFE5C2",
"_ 	c #FFE4C1",
": 	c #FFE4C0",
"< 	c #F6C58A",
"[ 	c #D5842D",
"} 	c #F5A141",
"| 	c #FEBC6D",
"1 	c #FFD195",
"2 	c #FFDDB1",
"3 	c #FFDDB0",
"4 	c #FFDEB2",
"5 	c #F2B66F",
"6 	c #DE6E00",
"7 	c #E67401",
"8 	c #F08512",
"9 	c #FDB661",
"0 	c #FFD6A0",
"a 	c #FFD6A1",
"b 	c #FED095",
"c 	c #DD9644",
"d 	c #E99A3C",
"e 	c #EFAF62",
"f 	c #F0A549",
"g 	c #E18A25",
"h 	c #B75C00",
"i 	c #C56300",
"j 	c #D76B00",
"k 	c #E97B08",
"l 	c #FCB054",
"m 	c #FFCF8F",
"n 	c #FFCE8F",
"o 	c #EBA551",
"p 	c #F4AB52",
"q 	c #FFCD89",
"r 	c #FFC881",
"s 	c #FCC072",
"t 	c #F7B25C",
"u 	c #F0A446",
"v 	c #E6922D",
"w 	c #894500",
"x 	c #C96400",
"y 	c #EF8611",
"z 	c #FFC26C",
"A 	c #FFC97F",
"B 	c #FFC77D",
"C 	c #FFC77F",
"D 	c #F6B159",
"E 	c #EF9E3F",
"F 	c #FFC578",
"G 	c #FFC476",
"H 	c #FFC477",
"I 	c #FFC475",
"J 	c #FEC06C",
"K 	c #FBB85D",
"L 	c #F5AE4B",
"M 	c #EDA034",
"N 	c #E39020",
"O 	c #D97302",
"P 	c #FEB54A",
"Q 	c #FFC670",
"R 	c #FFC36D",
"S 	c #FFC26E",
"T 	c #FAB356",
"U 	c #C2700F",
"V 	c #E68F26",
"W 	c #FFBC63",
"X 	c #FFBC64",
"Y 	c #FFBB64",
"Z 	c #FFBD63",
"` 	c #FFC063",
" .	c #FFC263",
"..	c #FFC463",
"+.	c #FFC45F",
"@.	c #FEC056",
"#.	c #FAB848",
"$.	c #F4AF3B",
"%.	c #E5951A",
"&.	c #B56401",
"*.	c #FAB13B",
"=.	c #FFC35E",
"-.	c #FFC05C",
";.	c #FFBE5A",
">.	c #FBA62D",
",.	c #C26D01",
"'.	c #E18515",
").	c #FFB24D",
"!.	c #FFB453",
"~.	c #FFB552",
"{.	c #FFB752",
"].	c #FFBA51",
"^.	c #FFBC50",
"/.	c #FFBF50",
"(.	c #FFC14F",
"_.	c #FFC24F",
":.	c #FFC44F",
"<.	c #FFC64F",
"[.	c #FFB32F",
"}.	c #E58006",
"|.	c #C2790B",
"1.	c #FAB83B",
"2.	c #FFC14B",
"3.	c #FFBE48",
"4.	c #FFB12B",
"5.	c #FB9B04",
"6.	c #C47000",
"7.	c #DA7A0A",
"8.	c #FFA839",
"9.	c #FFAE43",
"0.	c #FFB142",
"a.	c #FFB441",
"b.	c #FFB741",
"c.	c #FFBA40",
"d.	c #FFBD40",
"e.	c #FFBF3F",
"f.	c #FFC13F",
"g.	c #FFC33C",
"h.	c #FEB323",
"i.	c #EF8204",
"j.	c #D16900",
"k.	c #EBA31A",
"l.	c #FFC139",
"m.	c #FFBE35",
"n.	c #FFB31C",
"o.	c #FFA703",
"p.	c #FA9A00",
"q.	c #BE6900",
"r.	c #D67402",
"s.	c #FE9814",
"t.	c #FFA526",
"u.	c #FFAD2E",
"v.	c #FFB22F",
"w.	c #FFB52F",
"x.	c #FFB92E",
"y.	c #FFBC2E",
"z.	c #FFBE2D",
"A.	c #FFC12A",
"B.	c #FDAB13",
"C.	c #EC7E02",
"D.	c #CC6600",
"E.	c #985000",
"F.	c #EEA910",
"G.	c #FDBE1F",
"H.	c #FFBE1B",
"I.	c #FFB70B",
"J.	c #FFB000",
"K.	c #FFAD00",
"L.	c #F19100",
"M.	c #CB6D00",
"N.	c #FB9000",
"O.	c #FF9B02",
"P.	c #FFA40B",
"Q.	c #FFAC14",
"R.	c #FFB219",
"S.	c #FFB71B",
"T.	c #FFBB1B",
"U.	c #FFC118",
"V.	c #FDB90C",
"W.	c #F2A506",
"X.	c #DA9404",
"Y.	c #E2A406",
"Z.	c #F7B809",
"`.	c #FEC20B",
" +	c #FFC005",
".+	c #FFBD00",
"++	c #FFB900",
"@+	c #FFB600",
"#+	c #E18000",
"$+	c #F69000",
"%+	c #FF9E00",
"&+	c #FFA400",
"*+	c #FFA900",
"=+	c #FFAF02",
"-+	c #FFB504",
";+	c #FFBA05",
">+	c #FFBE06",
",+	c #FFC207",
"'+	c #FFC607",
")+	c #FFC805",
"!+	c #FFC903",
"~+	c #FFC902",
"{+	c #FFC901",
"]+	c #FFC700",
"^+	c #FFC500",
"/+	c #FFC300",
"(+	c #FFC000",
"_+	c #FFBC00",
":+	c #C66600",
"<+	c #EF8C00",
"[+	c #FFA300",
"}+	c #FFA800",
"|+	c #FFAE00",
"1+	c #FFB300",
"2+	c #FFBA00",
"3+	c #FFBE00",
"4+	c #FFC200",
"5+	c #FFCA00",
"6+	c #FFCD00",
"7+	c #FFCF00",
"8+	c #FFD000",
"9+	c #FFCE00",
"0+	c #FFCC00",
"a+	c #FFC400",
"b+	c #FB9F00",
"c+	c #E17500",
"d+	c #E68700",
"e+	c #FFA600",
"f+	c #FFAC00",
"g+	c #FFAB00",
"h+	c #FFC100",
"i+	c #FFC900",
"j+	c #FFD400",
"k+	c #FFD600",
"l+	c #FFD700",
"m+	c #FA9C00",
"n+	c #E57200",
"o+	c #B56000",
"p+	c #DC8100",
"q+	c #FFA700",
"r+	c #F48000",
"s+	c #ED7500",
"t+	c #F98E00",
"u+	c #FFB100",
"v+	c #FFDA00",
"w+	c #FFDD00",
"x+	c #FFDE00",
"y+	c #FEBB00",
"z+	c #F78C00",
"A+	c #E37100",
"B+	c #BC6400",
"C+	c #CF7800",
"D+	c #FEA600",
"E+	c #FD9900",
"F+	c #EE7900",
"G+	c #D06B00",
"H+	c #C26600",
"I+	c #DE6F00",
"J+	c #EA7300",
"K+	c #F18C00",
"L+	c #F9AC00",
"M+	c #FCBC00",
"N+	c #FDC400",
"O+	c #FCC500",
"P+	c #FABA00",
"Q+	c #F39A00",
"R+	c #EA7C00",
"S+	c #D76E00",
"T+	c #AE5E00",
"U+	c #BF6900",
"V+	c #F78200",
"W+	c #EB7500",
"X+	c #C96A00",
"Y+	c #945200",
"Z+	c #BF6600",
"`+	c #D77000",
" @	c #E57900",
".@	c #EC8200",
"+@	c #F08800",
"@@	c #F08700",
"#@	c #EB8100",
"$@	c #DB7600",
"%@	c #BA6500",
"&@	c #DD7000",
"*@	c #C46800",
"=@	c #A05A00",
"-@	c #B36500",
";@	c #B96800",
">@	c #B26500",
",@	c #9C5900",
"'@	c #995400",
"                                                ",
"                          . + @ # $             ",
"                          % & * = - ;           ",
"                          > , ' ) ! ~ {         ",
"                          ] ^ / ( ( _ : < [     ",
"                          } | 1 2 2 2 3 4 5     ",
"                          6 7 8 9 0 a a a b c   ",
"  d e f g                 h i j k l m n n m o   ",
"  p q r s t u v               w x y z A B C D   ",
"  E F G H H I J K L M N           O P Q R S T U ",
"  V W X Y W Z `  ...+.@.#.$.%.    &.*.=.-.;.>.,.",
"  '.).!.~.{.].^./.(._.:.<.[.}.    |.1.2.3.4.5.6.",
"  7.8.9.0.a.b.c.d.e.f.g.h.i.j.    k.l.m.n.o.p.q.",
"  r.s.t.u.v.w.x.y.z.A.B.C.D.E.  F.G.H.I.J.K.L.  ",
"  M.N.O.P.Q.R.S.T.H.U.V.W.X.Y.Z.`. +.+++@+J.#+  ",
"    $+%+&+*+=+-+;+>+,+'+)+!+~+{+]+^+/+(+_+p.:+  ",
"    <+[+}+|+1+2+3+4+]+5+6+7+8+8+9+0+5+a+b+c+    ",
"    d+e+f+1+|+g+h+i+6+8+j+k+l+l+k+j+5+m+n+o+    ",
"    p+q+J.q+r+s+t+u+0+l+v+w+x+x+k+y+z+A+B+      ",
"    C+D+E+F+G+H+I+J+K+L+M+N+O+P+Q+R+S+T+        ",
"    U+V+W+X+    Y+Z+`+ @.@+@@@#@$@%@            ",
"      &@*@            =@-@;@>@,@                ",
"      '@                                        ",
"                                                "};
