/* XPM */
static const char * icono_main_xpm[] = {
"32 32 5 1",
" 	c None",
".	c #000000",
"+	c #1E00FF",
"@	c #FB0035",
"#	c #FA0034",
"                 .              ",
"                .....           ",
"               ..   ...         ",
"              ..      ..        ",
"             .    ++   ..       ",
"            .    +  +   ..      ",
"           .    +   +    .      ",
"          .     +  +      .     ",
"         .       ++       .     ",
"        .                  .    ",
"       .                   .    ",
"@                          ..   ",
"@@                          .   ",
"@@@                         .   ",
"@#@@                        .   ",
"@@@@@                       .   ",
"@@@@@@                      .   ",
"@@@@@                       .   ",
"@@@@.                       .   ",
"@@@  .       ++             .   ",
"@@    .     +  +           ..   ",
"@      .    +   +          .    ",
"        .    +   +        ..    ",
"         .    +   +       .     ",
"           .   +  +      .      ",
"            .   ++      .       ",
"             .         .        ",
"              .       .         ",
"               ..   ..          ",
"                ....            ",
"                 ..             ",
"                                "};
