/* XPM */
static const char * icon_exit_xpm[] = {
"24 24 426 2",
"  	c None",
". 	c #C08484",
"+ 	c #CD9E9E",
"@ 	c #D3A9A9",
"# 	c #D5ADAD",
"$ 	c #D7AFAF",
"% 	c #D9B2B2",
"& 	c #DBB4B4",
"* 	c #DCB6B6",
"= 	c #DEB9B9",
"- 	c #E0BBBB",
"; 	c #E1BDBD",
"> 	c #E2C0C0",
", 	c #E3C2C2",
"' 	c #E4C4C4",
") 	c #E5C6C6",
"! 	c #E6C8C8",
"~ 	c #E6C9C9",
"{ 	c #E5C7C7",
"] 	c #E0C0C0",
"^ 	c #B36F6F",
"/ 	c #C89797",
"( 	c #C69595",
"_ 	c #C79292",
": 	c #C99494",
"< 	c #CC9696",
"[ 	c #CE9898",
"} 	c #D09A9A",
"| 	c #D29C9C",
"1 	c #D39D9D",
"2 	c #D49D9D",
"3 	c #D7A0A0",
"4 	c #D9A3A3",
"5 	c #DAA5A5",
"6 	c #DBA7A7",
"7 	c #DCA9A9",
"8 	c #DDABAB",
"9 	c #DDADAD",
"0 	c #DEB0B0",
"a 	c #E2BCBC",
"b 	c #AC6464",
"c 	c #C08585",
"d 	c #C28686",
"e 	c #C58888",
"f 	c #C78A8A",
"g 	c #CA8B8B",
"h 	c #CC8D8D",
"i 	c #CF8F8F",
"j 	c #D19191",
"k 	c #CF9898",
"l 	c #D3B0B0",
"m 	c #D3A5A5",
"n 	c #D79898",
"o 	c #D99A9A",
"p 	c #DB9C9C",
"q 	c #DC9E9E",
"r 	c #DDA0A0",
"s 	c #DDA2A2",
"t 	c #DEA4A4",
"u 	c #DDA5A5",
"v 	c #DFACAC",
"w 	c #C18989",
"x 	c #A14D4D",
"y 	c #BE7B7B",
"z 	c #C07B7B",
"A 	c #C47D7D",
"B 	c #C67F7F",
"C 	c #C98181",
"D 	c #CB8383",
"E 	c #CE8585",
"F 	c #D08585",
"G 	c #E4C1C1",
"H 	c #FEFFFF",
"I 	c #F4E8E8",
"J 	c #DB9999",
"K 	c #DA8F8F",
"L 	c #DC9292",
"M 	c #DD9494",
"N 	c #DE9696",
"O 	c #DF9797",
"P 	c #E09999",
"Q 	c #E09B9B",
"R 	c #DD9696",
"S 	c #A84949",
"T 	c #983A3A",
"U 	c #BC7070",
"V 	c #BF7171",
"W 	c #C27373",
"X 	c #C57575",
"Y 	c #C87777",
"Z 	c #CA7777",
"` 	c #CD7979",
" .	c #D07B7B",
"..	c #ECCACA",
"+.	c #FFFFFF",
"@.	c #FBF3F3",
"#.	c #D98282",
"$.	c #DA8484",
"%.	c #DF8989",
"&.	c #E08C8C",
"*.	c #E18D8D",
"=.	c #E38F8F",
"-.	c #E39292",
";.	c #DE8686",
">.	c #9E2A2A",
",.	c #922B2B",
"'.	c #BB6666",
").	c #BE6969",
"!.	c #C26B6B",
"~.	c #C56C6C",
"{.	c #C88585",
"].	c #CB8B8B",
"^.	c #CE7474",
"/.	c #EDC6C6",
"(.	c #FBF2F2",
"_.	c #DE9292",
":.	c #DAA6A6",
"<.	c #DDB3B3",
"[.	c #DB8989",
"}.	c #E28181",
"|.	c #E48484",
"1.	c #E58686",
"2.	c #E78A8A",
"3.	c #DE7171",
"4.	c #9D1414",
"5.	c #8F2121",
"6.	c #B85B5B",
"7.	c #BD5F5F",
"8.	c #C16060",
"9.	c #C26363",
"0.	c #D39E9E",
"a.	c #F4EBEB",
"b.	c #F8F4F4",
"c.	c #DB9393",
"d.	c #ECC0C0",
"e.	c #FBEFEF",
"f.	c #E6A1A1",
"g.	c #FAF3F3",
"h.	c #EFD8D8",
"i.	c #E08E8E",
"j.	c #E67878",
"k.	c #E97C7C",
"l.	c #E97676",
"m.	c #D92E2E",
"n.	c #9F0000",
"o.	c #8F1C1C",
"p.	c #B75050",
"q.	c #BC5454",
"r.	c #BF5555",
"s.	c #CF8C8C",
"t.	c #F9F4F4",
"u.	c #F9EBEB",
"v.	c #DC8282",
"w.	c #EDBCBC",
"x.	c #E58888",
"y.	c #F3C2C2",
"z.	c #FEFBFB",
"A.	c #F1DADA",
"B.	c #E57D7D",
"C.	c #EC6E6E",
"D.	c #E73636",
"E.	c #D90202",
"F.	c #A50101",
"G.	c #8F1919",
"H.	c #B64747",
"I.	c #BC4A4A",
"J.	c #C15C5C",
"K.	c #EED9D9",
"L.	c #F9E8E8",
"M.	c #DC8080",
"N.	c #D25555",
"O.	c #EDBABA",
"P.	c #FCEFEF",
"Q.	c #E47676",
"R.	c #E36464",
"S.	c #F2B2B2",
"T.	c #FFFCFC",
"U.	c #EEB0B0",
"V.	c #E83C3C",
"W.	c #E50A08",
"X.	c #DD0B08",
"Y.	c #A80806",
"Z.	c #911515",
"`.	c #B53D3D",
" +	c #BA3E3E",
".+	c #D38989",
"++	c #FDFCFC",
"@+	c #E39A9A",
"#+	c #CE4848",
"$+	c #D24A4A",
"%+	c #ECAFAF",
"&+	c #FBE8E8",
"*+	c #E56969",
"=+	c #E45353",
"-+	c #E85F5F",
";+	c #F9CFCF",
">+	c #F8DEDE",
",+	c #E62F2C",
"'+	c #E7120D",
")+	c #DF1912",
"!+	c #AA100C",
"~+	c #951212",
"{+	c #B43333",
"]+	c #BA3535",
"^+	c #E2AAAA",
"/+	c #D56161",
"(+	c #CF3E3E",
"_+	c #D34141",
":+	c #DE6464",
"<+	c #EFADAD",
"[+	c #EB8A8A",
"}+	c #E24C4C",
"|+	c #E64C4C",
"1+	c #E94B4B",
"2+	c #F5A2A2",
"3+	c #FDF7F7",
"4+	c #EC5752",
"5+	c #E91B13",
"6+	c #E2241A",
"7+	c #AD1811",
"8+	c #990F0F",
"9+	c #B32B2B",
"0+	c #B92C2C",
"a+	c #E3A9A9",
"b+	c #F7E1E1",
"c+	c #D04949",
"d+	c #CF3636",
"e+	c #D33939",
"f+	c #D73939",
"g+	c #DC3C3C",
"h+	c #DF3D3D",
"i+	c #E44141",
"j+	c #E74040",
"k+	c #E82B2B",
"l+	c #EF706E",
"m+	c #FFFEFE",
"n+	c #FFFDFD",
"o+	c #F06F69",
"p+	c #EA2319",
"q+	c #E42C21",
"r+	c #AE1D15",
"s+	c #9E0B0B",
"t+	c #B22020",
"u+	c #B82222",
"v+	c #E3A4A4",
"w+	c #F8E9E9",
"x+	c #D24B4B",
"y+	c #D02B2B",
"z+	c #D42E2E",
"A+	c #D93131",
"B+	c #DD3232",
"C+	c #E03030",
"D+	c #E32121",
"E+	c #E51212",
"F+	c #E40604",
"G+	c #EF7977",
"H+	c #FEFAFA",
"I+	c #F06861",
"J+	c #EB2B1F",
"K+	c #E73427",
"L+	c #B12219",
"M+	c #A30707",
"N+	c #B21717",
"O+	c #B61616",
"P+	c #DA8181",
"Q+	c #FEFDFD",
"R+	c #DB6F6F",
"S+	c #CF1E1E",
"T+	c #D42323",
"U+	c #D81E1E",
"V+	c #DB1414",
"W+	c #DD0808",
"X+	c #E10101",
"Y+	c #E40403",
"Z+	c #E40D0A",
"`+	c #F2A7A6",
" @	c #FDE8E7",
".@	c #EE4E44",
"+@	c #EC3325",
"@@	c #E93A2B",
"#@	c #B2261C",
"$@	c #A80505",
"%@	c #B10E0E",
"&@	c #B50D0D",
"*@	c #C73C3C",
"=@	c #F8E6E6",
"-@	c #EBBBBB",
";@	c #CD2121",
">@	c #D00303",
",@	c #D50101",
"'@	c #D90000",
")@	c #DE0000",
"!@	c #E30000",
"~@	c #E30503",
"{@	c #E5524F",
"]@	c #FAEAEA",
"^@	c #F8B4B0",
"/@	c #EC3529",
"(@	c #ED382A",
"_@	c #EB3F2E",
":@	c #B5291E",
"<@	c #AD0101",
"[@	c #AF0202",
"}@	c #B40202",
"|@	c #B90404",
"1@	c #DB7373",
"2@	c #ECB7B7",
"3@	c #D84D4D",
"4@	c #D30E0E",
"5@	c #D80101",
"6@	c #DD0202",
"7@	c #E02121",
"8@	c #EA7B7A",
"9@	c #F9E0E0",
"0@	c #FCDCDA",
"a@	c #EF554B",
"b@	c #EC3224",
"c@	c #EE3C2C",
"d@	c #ED4231",
"e@	c #BA2C20",
"f@	c #B20000",
"g@	c #B00000",
"h@	c #B50000",
"i@	c #BA0000",
"j@	c #C10808",
"k@	c #E28383",
"l@	c #FDF6F6",
"m@	c #FCF4F4",
"n@	c #F0C3C3",
"o@	c #EB9F9F",
"p@	c #EEA7A7",
"q@	c #F7D8D8",
"r@	c #FCE0DF",
"s@	c #EF5F57",
"t@	c #EB2C20",
"u@	c #ED3629",
"v@	c #EE3E2E",
"w@	c #EF4533",
"x@	c #BF2E22",
"y@	c #B70101",
"z@	c #B10000",
"A@	c #B60000",
"B@	c #BB0000",
"C@	c #C00000",
"D@	c #C60808",
"E@	c #E17272",
"F@	c #F9E1E1",
"G@	c #FEF9F9",
"H@	c #F9C8C6",
"I@	c #EE5750",
"J@	c #EA261B",
"K@	c #EB2F23",
"L@	c #ED3829",
"M@	c #EE3F2F",
"N@	c #EF4634",
"O@	c #C32F23",
"P@	c #BB0B0B",
"Q@	c #B10101",
"R@	c #BC0000",
"S@	c #C10000",
"T@	c #C50000",
"U@	c #CA0202",
"V@	c #D72828",
"W@	c #E46060",
"X@	c #EB7C7C",
"Y@	c #F19393",
"Z@	c #F28D8D",
"`@	c #F17775",
" #	c #EE5956",
".#	c #E92923",
"+#	c #E91E16",
"@#	c #EA281E",
"##	c #EF4937",
"$#	c #BE382E",
"%#	c #BE2423",
"&#	c #BE1717",
"*#	c #B60101",
"=#	c #CA0000",
"-#	c #CF0000",
";#	c #D30000",
">#	c #D80000",
",#	c #E20000",
"'#	c #E40301",
")#	c #E50B07",
"!#	c #E7150F",
"~#	c #EA261C",
"{#	c #EB2E21",
"]#	c #ED3527",
"^#	c #F04333",
"/#	c #E65043",
"(#	c #CA3532",
"_#	c #CC3332",
":#	c #C82726",
"<#	c #CC2626",
"[#	c #CF2626",
"}#	c #D42626",
"|#	c #D82626",
"1#	c #DB2626",
"2#	c #E02625",
"3#	c #E42625",
"4#	c #E72626",
"5#	c #E92B2A",
"6#	c #EA322E",
"7#	c #EB3833",
"8#	c #ED3E37",
"9#	c #ED443C",
"0#	c #EE4A40",
"a#	c #EF5247",
"b#	c #E6544C",
"c#	c #AC2E2A",
"d#	c #9C2E2A",
"e#	c #933A38",
"f#	c #923C39",
"g#	c #933C3A",
"h#	c #943C3A",
"i#	c #953C3A",
"j#	c #963C3A",
"k#	c #973B39",
"l#	c #993B39",
"m#	c #9A3A38",
"n#	c #9B3A38",
"o#	c #9B3B38",
"p#	c #9B3B39",
"q#	c #9A3C3A",
"r#	c #993E3B",
"s#	c #9A3734",
"                                                ",
"    . + @ # $ % & * = - ; > , ' ) ! ~ { ]       ",
"  ^ / ( _ : < [ } | 1 2 3 4 5 6 7 8 9 0 a -     ",
"  b c d e f g h i j k l m n o p q r s t u v w   ",
"  x y z A B C D E F G H I J K L M N O P Q R S   ",
"  T U V W X Y Z `  ...+.@.O #.$.%.&.*.=.-.;.>.  ",
"  ,.'.).!.~.~.{.].^./.+.(._.:.<.[.}.|.1.2.3.4.  ",
"  5.6.7.8.9.0.a.b.c.d.+.e.f.g.H h.i.j.k.l.m.n.  ",
"  o.p.q.r.s.t.+.u.v.w.+.e.x.y.z.+.A.B.C.D.E.F.  ",
"  G.H.I.J.K.+.L.M.N.O.+.P.Q.R.S.T.H U.V.W.X.Y.  ",
"  Z.`. +.++++.@+#+$+%++.&+*+=+-+;++.>+,+'+)+!+  ",
"  ~+{+]+^++.e./+(+_+:+<+[+}+|+1+2++.3+4+5+6+7+  ",
"  8+9+0+a++.b+c+d+e+f+g+h+i+j+k+l+m+n+o+p+q+r+  ",
"  s+t+u+v++.w+x+y+z+A+B+C+D+E+F+G++.H+I+J+K+L+  ",
"  M+N+O+P++.Q+R+S+T+U+V+W+X+Y+Z+`++. @.@+@@@#@  ",
"  $@%@&@*@=@+.-@;@>@,@'@)@!@~@{@]@+.^@/@(@_@:@  ",
"  <@[@}@|@1@3+Q+2@3@4@5@6@7@8@9@+.0@a@b@c@d@e@  ",
"  f@g@h@i@j@k@l@+.m@n@o@p@q@Q++.r@s@t@u@v@w@x@  ",
"  y@z@A@B@C@D@E@F@m++.+.+.+.G@H@I@J@K@L@M@N@O@  ",
"  P@Q@A@R@S@T@U@V@W@X@Y@Z@`@ #.#+#@#K@L@M@##$#  ",
"  %#&#*#B@C@T@=#-#;#>#)@,#'#)#!#+#~#{#]#^#/#    ",
"    (#_#:#<#[#}#|#1#2#3#4#5#6#7#8#9#0#a#b#c#    ",
"      d#e#f#g#h#i#j#k#l#m#m#n#o#p#q#r#s#        ",
"                                                "};
