/* XPM */
static const char * icon_play_xpm[] = {
"24 24 169 2",
"  	c None",
". 	c #628CDA",
"+ 	c #8FAEE6",
"@ 	c #598EDE",
"# 	c #88B0E9",
"$ 	c #89B0E9",
"% 	c #528ADD",
"& 	c #73A0E3",
"* 	c #B3CAF0",
"= 	c #9EC4F1",
"- 	c #79B0ED",
"; 	c #60A7ED",
"> 	c #8CBEF0",
", 	c #B4D3F5",
"' 	c #9DC4F1",
") 	c #77AAE9",
"! 	c #5593E2",
"~ 	c #7AA9E8",
"{ 	c #9AB8EA",
"] 	c #93BCEF",
"^ 	c #8FC4F5",
"/ 	c #85C5F8",
"( 	c #69BAF7",
"_ 	c #46ADF7",
": 	c #7EC0F6",
"< 	c #9DCBF6",
"[ 	c #94C6F4",
"} 	c #8DC1F3",
"| 	c #7FB6F0",
"1 	c #62A0E9",
"2 	c #3C85DF",
"3 	c #7BAFEC",
"4 	c #87B4EC",
"5 	c #79BAF4",
"6 	c #74C1F9",
"7 	c #6FC7FD",
"8 	c #60C3FE",
"9 	c #2FB1FE",
"0 	c #1DACFD",
"a 	c #81CCFD",
"b 	c #8ACDFB",
"c 	c #82C6F9",
"d 	c #79BDF5",
"e 	c #71B6F3",
"f 	c #6BB0F1",
"g 	c #529DEA",
"h 	c #1B75DE",
"i 	c #0F66D7",
"j 	c #4AA8F2",
"k 	c #73B1F0",
"l 	c #71B5F2",
"m 	c #6BBAF7",
"n 	c #65BFFB",
"o 	c #5FC1FD",
"p 	c #50C0FF",
"q 	c #36BAFF",
"r 	c #2EB8FF",
"s 	c #48C1FF",
"t 	c #5FC8FF",
"u 	c #54C4FE",
"v 	c #7AD1FF",
"w 	c #76CEFF",
"x 	c #6EC9FE",
"y 	c #65C2FD",
"z 	c #5CB8F9",
"A 	c #4AA9F4",
"B 	c #2A92ED",
"C 	c #2689E9",
"D 	c #4090E6",
"E 	c #4F90E3",
"F 	c #52B2F6",
"G 	c #63B3F5",
"H 	c #5EB9FA",
"I 	c #57BFFE",
"J 	c #4FC1FF",
"K 	c #4AC3FF",
"L 	c #5FCCFF",
"M 	c #6DD3FF",
"N 	c #5FD0FF",
"O 	c #41C6FF",
"P 	c #50CAFF",
"Q 	c #6BD2FF",
"R 	c #63CEFF",
"S 	c #5AC9FF",
"T 	c #4FC3FF",
"U 	c #44BBFF",
"V 	c #45B5FC",
"W 	c #5AB3F7",
"X 	c #63B0F2",
"Y 	c #51A1ED",
"Z 	c #2F89E7",
"` 	c #1566C3",
" .	c #42B2F9",
"..	c #50B7FB",
"+.	c #4DBDFF",
"@.	c #53C4FF",
"#.	c #62CCFF",
"$.	c #6DD2FF",
"%.	c #64D3FF",
"&.	c #4BCFFF",
"*.	c #35CBFF",
"=.	c #29C6FE",
"-.	c #28C1FC",
";.	c #4ED1FF",
">.	c #59D3FF",
",.	c #54D0FF",
"'.	c #58CEFF",
").	c #65CFFF",
"!.	c #6BCFFF",
"~.	c #5EC8FF",
"{.	c #3FB8FF",
"].	c #24A0F8",
"^.	c #1788EB",
"/.	c #1372D8",
"(.	c #0F54A4",
"_.	c #4ABCFE",
":.	c #65C7FF",
"<.	c #5FCAFF",
"[.	c #58CCFF",
"}.	c #4ECEFF",
"|.	c #3ACDFF",
"1.	c #2CC9FE",
"2.	c #26BDF4",
"3.	c #22A5D9",
"4.	c #1A86B4",
"5.	c #2FB1E0",
"6.	c #59DBFF",
"7.	c #6DDFFF",
"8.	c #64DBFF",
"9.	c #5BD7FF",
"0.	c #4CD0FF",
"a.	c #34C5FF",
"b.	c #25B8FD",
"c.	c #1DA1EE",
"d.	c #1781CA",
"e.	c #1162A6",
"f.	c #48C2F9",
"g.	c #5AC7FF",
"h.	c #44C3FF",
"i.	c #31C3FF",
"j.	c #29C5FF",
"k.	c #27C1FA",
"l.	c #24B1E7",
"m.	c #1C8BBA",
"n.	c #58DAF7",
"o.	c #68E7FF",
"p.	c #4DE2FF",
"q.	c #38DBFF",
"r.	c #2FD3FF",
"s.	c #28C2F7",
"t.	c #21A3DD",
"u.	c #187AB0",
"v.	c #26B6F8",
"w.	c #24B8FF",
"x.	c #24B8FC",
"y.	c #23B1F0",
"z.	c #1E96CE",
"A.	c #146891",
"B.	c #36E0FB",
"C.	c #37E8FF",
"D.	c #32DCFC",
"E.	c #2BC2EB",
"F.	c #219BC8",
"G.	c #1B8ACE",
"H.	c #1983C1",
"I.	c #1672A8",
"J.	c #29B5D5",
"K.	c #27A9C3",
"L.	c #1D83A3",
"                                                ",
"                                                ",
"                                                ",
"                                                ",
"                                                ",
"                                                ",
"    . + @                 # $ %                 ",
"    & * = - ;             > , ' ) !             ",
"    ~ { ] ^ / ( _         : < [ } | 1 2         ",
"    3 4 | 5 6 7 8 9 0     a b c d e f g h i     ",
"  j k l m n o p q r s t u v w x y z A B C D E   ",
"  F G H I J s K L M N O P Q R S T U V W X Y Z ` ",
"   ...+.@.#.$.%.&.*.=.-.;.>.,.'.).!.~.{.].^./.(.",
"  _.:.<.[.}.|.1.2.3.4.5.6.7.8.9.0.a.b.c.d.e.    ",
"f.g.h.i.j.k.l.m.      n.o.p.q.r.s.t.u.          ",
"v.w.x.y.z.A.          B.C.D.E.F.                ",
"G.H.I.                J.K.L.                    ",
"                                                ",
"                                                ",
"                                                ",
"                                                ",
"                                                ",
"                                                ",
"                                                "};
