<?xml version="1.0" encoding="UTF-8" standalone="no"?>
<!DOCTYPE svg PUBLIC "-//W3C//DTD SVG 1.1//EN"
 "http://www.w3.org/Graphics/SVG/1.1/DTD/svg11.dtd">
<!-- Generated by graphviz version 2.43.0 (0)
 -->
<!-- Title: MRPT_LIBS Pages: 1 -->
<svg width="654pt" height="908pt"
 viewBox="0.00 0.00 653.50 908.00" xmlns="http://www.w3.org/2000/svg" xmlns:xlink="http://www.w3.org/1999/xlink">
<g id="graph0" class="graph" transform="scale(1 1) rotate(0) translate(4 904)">
<title>MRPT_LIBS</title>
<polygon fill="white" stroke="transparent" points="-4,4 -4,-904 649.5,-904 649.5,4 -4,4"/>
<!-- apps_gui -->
<g id="node1" class="node">
<title>apps_gui</title>
<g id="a_node1"><a xlink:href="group_mrpt_apps_gui_grp.html" xlink:title="mrpt&#45;apps&#45;gui">
<polygon fill="#d0d0d0" stroke="black" points="575.5,-900 458.5,-900 458.5,-864 575.5,-864 575.5,-900"/>
<text text-anchor="middle" x="517" y="-878.3" font-family="Times,serif" font-size="14.00">mrpt&#45;apps&#45;gui</text>
</a>
</g>
</g>
<!-- apps_cli -->
<g id="node2" class="node">
<title>apps_cli</title>
<g id="a_node2"><a xlink:href="group_mrpt_apps_cli_grp.html" xlink:title="mrpt&#45;apps&#45;cli">
<polygon fill="#d0d0d0" stroke="black" points="516.5,-828 405.5,-828 405.5,-792 516.5,-792 516.5,-828"/>
<text text-anchor="middle" x="461" y="-806.3" font-family="Times,serif" font-size="14.00">mrpt&#45;apps&#45;cli</text>
</a>
</g>
</g>
<!-- apps_gui&#45;&gt;apps_cli -->
<g id="edge1" class="edge">
<title>apps_gui&#45;&gt;apps_cli</title>
<path fill="none" stroke="black" d="M503.16,-863.7C496.51,-855.39 488.42,-845.28 481.11,-836.14"/>
<polygon fill="black" stroke="black" points="483.66,-833.73 474.68,-828.1 478.2,-838.1 483.66,-833.73"/>
</g>
<!-- gui -->
<g id="node3" class="node">
<title>gui</title>
<g id="a_node3"><a xlink:href="group_mrpt_gui_grp.html" xlink:title="mrpt&#45;gui">
<polygon fill="#d0d0d0" stroke="black" points="613.5,-828 534.5,-828 534.5,-792 613.5,-792 613.5,-828"/>
<text text-anchor="middle" x="574" y="-806.3" font-family="Times,serif" font-size="14.00">mrpt&#45;gui</text>
</a>
</g>
</g>
<!-- apps_gui&#45;&gt;gui -->
<g id="edge2" class="edge">
<title>apps_gui&#45;&gt;gui</title>
<path fill="none" stroke="black" d="M531.09,-863.7C537.92,-855.3 546.26,-845.07 553.76,-835.86"/>
<polygon fill="black" stroke="black" points="556.47,-838.07 560.07,-828.1 551.04,-833.65 556.47,-838.07"/>
</g>
<!-- slam -->
<g id="node4" class="node">
<title>slam</title>
<g id="a_node4"><a xlink:href="group_mrpt_slam_grp.html" xlink:title="mrpt&#45;slam">
<polygon fill="#d0d0d0" stroke="black" points="290,-756 200,-756 200,-720 290,-720 290,-756"/>
<text text-anchor="middle" x="245" y="-734.3" font-family="Times,serif" font-size="14.00">mrpt&#45;slam</text>
</a>
</g>
</g>
<!-- apps_cli&#45;&gt;slam -->
<g id="edge3" class="edge">
<title>apps_cli&#45;&gt;slam</title>
<path fill="none" stroke="black" d="M408.44,-791.97C375.48,-781.28 333.06,-767.54 299.71,-756.73"/>
<polygon fill="black" stroke="black" points="300.7,-753.37 290.11,-753.62 298.54,-760.03 300.7,-753.37"/>
</g>
<!-- hwdrivers -->
<g id="node5" class="node">
<title>hwdrivers</title>
<g id="a_node5"><a xlink:href="group_mrpt_hwdrivers_grp.html" xlink:title="mrpt&#45;hwdrivers">
<polygon fill="#d0d0d0" stroke="black" points="536,-756 408,-756 408,-720 536,-720 536,-756"/>
<text text-anchor="middle" x="472" y="-734.3" font-family="Times,serif" font-size="14.00">mrpt&#45;hwdrivers</text>
</a>
</g>
</g>
<!-- apps_cli&#45;&gt;hwdrivers -->
<g id="edge4" class="edge">
<title>apps_cli&#45;&gt;hwdrivers</title>
<path fill="none" stroke="black" d="M463.72,-791.7C464.93,-783.98 466.39,-774.71 467.74,-766.11"/>
<polygon fill="black" stroke="black" points="471.22,-766.53 469.31,-756.1 464.3,-765.44 471.22,-766.53"/>
</g>
<!-- opengl -->
<g id="node19" class="node">
<title>opengl</title>
<g id="a_node19"><a xlink:href="group_mrpt_opengl_grp.html" xlink:title="mrpt&#45;opengl">
<polygon fill="#d0d0d0" stroke="black" points="626,-612 522,-612 522,-576 626,-576 626,-612"/>
<text text-anchor="middle" x="574" y="-590.3" font-family="Times,serif" font-size="14.00">mrpt&#45;opengl</text>
</a>
</g>
</g>
<!-- gui&#45;&gt;opengl -->
<g id="edge14" class="edge">
<title>gui&#45;&gt;opengl</title>
<path fill="none" stroke="black" d="M574,-791.85C574,-754.83 574,-667.18 574,-622.39"/>
<polygon fill="black" stroke="black" points="577.5,-622.23 574,-612.23 570.5,-622.23 577.5,-622.23"/>
</g>
<!-- maps -->
<g id="node22" class="node">
<title>maps</title>
<g id="a_node22"><a xlink:href="group_mrpt_maps_grp.html" xlink:title="mrpt&#45;maps">
<polygon fill="#d0d0d0" stroke="black" points="383.5,-684 288.5,-684 288.5,-648 383.5,-648 383.5,-684"/>
<text text-anchor="middle" x="336" y="-662.3" font-family="Times,serif" font-size="14.00">mrpt&#45;maps</text>
</a>
</g>
</g>
<!-- slam&#45;&gt;maps -->
<g id="edge38" class="edge">
<title>slam&#45;&gt;maps</title>
<path fill="none" stroke="black" d="M267.49,-719.7C278.96,-710.88 293.06,-700.03 305.48,-690.47"/>
<polygon fill="black" stroke="black" points="307.97,-692.98 313.76,-684.1 303.7,-687.43 307.97,-692.98"/>
</g>
<!-- vision -->
<g id="node30" class="node">
<title>vision</title>
<g id="a_node30"><a xlink:href="group_mrpt_vision_grp.html" xlink:title="mrpt&#45;vision">
<polygon fill="#d0d0d0" stroke="black" points="114,-684 16,-684 16,-648 114,-648 114,-684"/>
<text text-anchor="middle" x="65" y="-662.3" font-family="Times,serif" font-size="14.00">mrpt&#45;vision</text>
</a>
</g>
</g>
<!-- slam&#45;&gt;vision -->
<g id="edge39" class="edge">
<title>slam&#45;&gt;vision</title>
<path fill="none" stroke="black" d="M200.97,-719.88C176.03,-710.18 144.66,-697.98 118.34,-687.74"/>
<polygon fill="black" stroke="black" points="119.48,-684.43 108.89,-684.07 116.94,-690.95 119.48,-684.43"/>
</g>
<!-- comms -->
<g id="node9" class="node">
<title>comms</title>
<g id="a_node9"><a xlink:href="group_mrpt_comms_grp.html" xlink:title="mrpt&#45;comms">
<polygon fill="#d0d0d0" stroke="black" points="645.5,-468 538.5,-468 538.5,-432 645.5,-432 645.5,-468"/>
<text text-anchor="middle" x="592" y="-446.3" font-family="Times,serif" font-size="14.00">mrpt&#45;comms</text>
</a>
</g>
</g>
<!-- hwdrivers&#45;&gt;comms -->
<g id="edge17" class="edge">
<title>hwdrivers&#45;&gt;comms</title>
<path fill="none" stroke="black" d="M511.09,-719.95C550.59,-700.33 609.36,-663.97 635,-612 657.11,-567.18 629.8,-509.53 609.7,-476.78"/>
<polygon fill="black" stroke="black" points="612.58,-474.8 604.27,-468.23 606.68,-478.55 612.58,-474.8"/>
</g>
<!-- hwdrivers&#45;&gt;maps -->
<g id="edge18" class="edge">
<title>hwdrivers&#45;&gt;maps</title>
<path fill="none" stroke="black" d="M438.73,-719.88C420.54,-710.51 397.81,-698.81 378.36,-688.8"/>
<polygon fill="black" stroke="black" points="379.89,-685.65 369.4,-684.19 376.69,-691.88 379.89,-685.65"/>
</g>
<!-- bayes -->
<g id="node6" class="node">
<title>bayes</title>
<g id="a_node6"><a xlink:href="group_mrpt_bayes_grp.html" xlink:title="mrpt&#45;bayes">
<polygon fill="#d0d0d0" stroke="black" points="372,-396 274,-396 274,-360 372,-360 372,-396"/>
<text text-anchor="middle" x="323" y="-374.3" font-family="Times,serif" font-size="14.00">mrpt&#45;bayes</text>
</a>
</g>
</g>
<!-- math -->
<g id="node7" class="node">
<title>math</title>
<g id="a_node7"><a xlink:href="group_mrpt_math_grp.html" xlink:title="mrpt&#45;math">
<polygon fill="#d0d0d0" stroke="black" points="367.5,-252 274.5,-252 274.5,-216 367.5,-216 367.5,-252"/>
<text text-anchor="middle" x="321" y="-230.3" font-family="Times,serif" font-size="14.00">mrpt&#45;math</text>
</a>
</g>
</g>
<!-- bayes&#45;&gt;math -->
<g id="edge5" class="edge">
<title>bayes&#45;&gt;math</title>
<path fill="none" stroke="black" d="M322.64,-359.81C322.44,-349.44 322.18,-335.96 322,-324 321.69,-303.27 321.43,-279.83 321.25,-262.21"/>
<polygon fill="black" stroke="black" points="324.75,-262.03 321.15,-252.06 317.75,-262.1 324.75,-262.03"/>
</g>
<!-- config -->
<g id="node8" class="node">
<title>config</title>
<g id="a_node8"><a xlink:href="group_mrpt_config_grp.html" xlink:title="mrpt&#45;config">
<polygon fill="#d0d0d0" stroke="black" points="430.5,-324 331.5,-324 331.5,-288 430.5,-288 430.5,-324"/>
<text text-anchor="middle" x="381" y="-302.3" font-family="Times,serif" font-size="14.00">mrpt&#45;config</text>
</a>
</g>
</g>
<!-- bayes&#45;&gt;config -->
<g id="edge6" class="edge">
<title>bayes&#45;&gt;config</title>
<path fill="none" stroke="black" d="M337.34,-359.7C344.29,-351.3 352.77,-341.07 360.4,-331.86"/>
<polygon fill="black" stroke="black" points="363.14,-334.04 366.83,-324.1 357.75,-329.57 363.14,-334.04"/>
</g>
<!-- system -->
<g id="node15" class="node">
<title>system</title>
<g id="a_node15"><a xlink:href="group_mrpt_system_grp.html" xlink:title="mrpt&#45;system">
<polygon fill="#d0d0d0" stroke="black" points="518.5,-180 411.5,-180 411.5,-144 518.5,-144 518.5,-180"/>
<text text-anchor="middle" x="465" y="-158.3" font-family="Times,serif" font-size="14.00">mrpt&#45;system</text>
</a>
</g>
</g>
<!-- math&#45;&gt;system -->
<g id="edge28" class="edge">
<title>math&#45;&gt;system</title>
<path fill="none" stroke="black" d="M356.23,-215.88C375.58,-206.47 399.77,-194.71 420.43,-184.67"/>
<polygon fill="black" stroke="black" points="422.17,-187.71 429.64,-180.19 419.11,-181.41 422.17,-187.71"/>
</g>
<!-- serialization -->
<g id="node25" class="node">
<title>serialization</title>
<g id="a_node25"><a xlink:href="group_mrpt_serialization_grp.html" xlink:title="mrpt&#45;serialization">
<polygon fill="#d0d0d0" stroke="black" points="393,-180 249,-180 249,-144 393,-144 393,-180"/>
<text text-anchor="middle" x="321" y="-158.3" font-family="Times,serif" font-size="14.00">mrpt&#45;serialization</text>
</a>
</g>
</g>
<!-- math&#45;&gt;serialization -->
<g id="edge26" class="edge">
<title>math&#45;&gt;serialization</title>
<path fill="none" stroke="black" d="M321,-215.7C321,-207.98 321,-198.71 321,-190.11"/>
<polygon fill="black" stroke="black" points="324.5,-190.1 321,-180.1 317.5,-190.1 324.5,-190.1"/>
</g>
<!-- random -->
<g id="node26" class="node">
<title>random</title>
<g id="a_node26"><a xlink:href="group_mrpt_random_grp.html" xlink:title="mrpt&#45;random">
<polygon fill="#d0d0d0" stroke="black" points="268.5,-36 157.5,-36 157.5,0 268.5,0 268.5,-36"/>
<text text-anchor="middle" x="213" y="-14.3" font-family="Times,serif" font-size="14.00">mrpt&#45;random</text>
</a>
</g>
</g>
<!-- math&#45;&gt;random -->
<g id="edge27" class="edge">
<title>math&#45;&gt;random</title>
<path fill="none" stroke="black" d="M281.46,-215.81C266.19,-207.22 250.02,-195.33 240,-180 213.28,-139.11 210.3,-80.3 211.21,-46.24"/>
<polygon fill="black" stroke="black" points="214.71,-46.23 211.61,-36.1 207.71,-45.96 214.71,-46.23"/>
</g>
<!-- expr -->
<g id="node11" class="node">
<title>expr</title>
<g id="a_node11"><a xlink:href="group_mrpt_expr_grp.html" xlink:title="mrpt&#45;expr">
<polygon fill="#d0d0d0" stroke="black" points="483.5,-252 394.5,-252 394.5,-216 483.5,-216 483.5,-252"/>
<text text-anchor="middle" x="439" y="-230.3" font-family="Times,serif" font-size="14.00">mrpt&#45;expr</text>
</a>
</g>
</g>
<!-- config&#45;&gt;expr -->
<g id="edge8" class="edge">
<title>config&#45;&gt;expr</title>
<path fill="none" stroke="black" d="M395.34,-287.7C402.29,-279.3 410.77,-269.07 418.4,-259.86"/>
<polygon fill="black" stroke="black" points="421.14,-262.04 424.83,-252.1 415.75,-257.57 421.14,-262.04"/>
</g>
<!-- io -->
<g id="node10" class="node">
<title>io</title>
<g id="a_node10"><a xlink:href="group_mrpt_io_grp.html" xlink:title="mrpt&#45;io">
<polygon fill="#d0d0d0" stroke="black" points="556.5,-324 487.5,-324 487.5,-288 556.5,-288 556.5,-324"/>
<text text-anchor="middle" x="522" y="-302.3" font-family="Times,serif" font-size="14.00">mrpt&#45;io</text>
</a>
</g>
</g>
<!-- comms&#45;&gt;io -->
<g id="edge7" class="edge">
<title>comms&#45;&gt;io</title>
<path fill="none" stroke="black" d="M583.56,-431.87C571.47,-407.35 549.13,-362.03 534.94,-333.26"/>
<polygon fill="black" stroke="black" points="538.03,-331.61 530.47,-324.19 531.76,-334.71 538.03,-331.61"/>
</g>
<!-- io&#45;&gt;system -->
<g id="edge22" class="edge">
<title>io&#45;&gt;system</title>
<path fill="none" stroke="black" d="M517.39,-287.95C512.26,-269.8 503.33,-240.39 493,-216 489.23,-207.09 484.5,-197.66 480.01,-189.26"/>
<polygon fill="black" stroke="black" points="482.98,-187.39 475.1,-180.3 476.84,-190.75 482.98,-187.39"/>
</g>
<!-- expr&#45;&gt;system -->
<g id="edge11" class="edge">
<title>expr&#45;&gt;system</title>
<path fill="none" stroke="black" d="M445.43,-215.7C448.36,-207.81 451.89,-198.3 455.14,-189.55"/>
<polygon fill="black" stroke="black" points="458.45,-190.7 458.65,-180.1 451.88,-188.26 458.45,-190.7"/>
</g>
<!-- containers -->
<g id="node12" class="node">
<title>containers</title>
<g id="a_node12"><a xlink:href="group_mrpt_containers_grp.html" xlink:title="mrpt&#45;containers">
<polygon fill="#d0d0d0" stroke="black" points="514.5,-108 383.5,-108 383.5,-72 514.5,-72 514.5,-108"/>
<text text-anchor="middle" x="449" y="-86.3" font-family="Times,serif" font-size="14.00">mrpt&#45;containers</text>
</a>
</g>
</g>
<!-- core -->
<g id="node13" class="node">
<title>core</title>
<g id="a_node13"><a xlink:href="group_mrpt_core_grp.html" xlink:title="mrpt&#45;core">
<polygon fill="#d0d0d0" stroke="black" points="373.5,-36 286.5,-36 286.5,0 373.5,0 373.5,-36"/>
<text text-anchor="middle" x="330" y="-14.3" font-family="Times,serif" font-size="14.00">mrpt&#45;core</text>
</a>
</g>
</g>
<!-- containers&#45;&gt;core -->
<g id="edge9" class="edge">
<title>containers&#45;&gt;core</title>
<path fill="none" stroke="black" d="M419.89,-71.88C404.33,-62.72 384.98,-51.34 368.22,-41.48"/>
<polygon fill="black" stroke="black" points="369.62,-38.24 359.22,-36.19 366.07,-44.28 369.62,-38.24"/>
</g>
<!-- typemeta -->
<g id="node14" class="node">
<title>typemeta</title>
<g id="a_node14"><a xlink:href="group_mrpt_typemeta_grp.html" xlink:title="mrpt&#45;typemeta (.h)">
<polygon fill="#d0d0d0" stroke="black" points="544,-36 392,-36 392,0 544,0 544,-36"/>
<text text-anchor="middle" x="468" y="-14.3" font-family="Times,serif" font-size="14.00">mrpt&#45;typemeta (.h)</text>
</a>
</g>
</g>
<!-- containers&#45;&gt;typemeta -->
<g id="edge10" class="edge">
<title>containers&#45;&gt;typemeta</title>
<path fill="none" stroke="black" d="M453.7,-71.7C455.81,-63.9 458.36,-54.51 460.72,-45.83"/>
<polygon fill="black" stroke="black" points="464.12,-46.67 463.36,-36.1 457.36,-44.84 464.12,-46.67"/>
</g>
<!-- system&#45;&gt;containers -->
<g id="edge41" class="edge">
<title>system&#45;&gt;containers</title>
<path fill="none" stroke="black" d="M461.04,-143.7C459.28,-135.98 457.16,-126.71 455.2,-118.11"/>
<polygon fill="black" stroke="black" points="458.55,-117.07 452.91,-108.1 451.73,-118.63 458.55,-117.07"/>
</g>
<!-- system&#45;&gt;typemeta -->
<g id="edge40" class="edge">
<title>system&#45;&gt;typemeta</title>
<path fill="none" stroke="black" d="M492.8,-143.87C504.77,-134.84 517.5,-122.59 524,-108 530.52,-93.39 530.33,-86.7 524,-72 519.21,-60.87 510.81,-50.99 501.95,-42.86"/>
<polygon fill="black" stroke="black" points="504,-40.01 494.12,-36.18 499.46,-45.34 504,-40.01"/>
</g>
<!-- graphs -->
<g id="node16" class="node">
<title>graphs</title>
<g id="a_node16"><a xlink:href="group_mrpt_graphs_grp.html" xlink:title="mrpt&#45;graphs">
<polygon fill="#d0d0d0" stroke="black" points="352,-612 246,-612 246,-576 352,-576 352,-612"/>
<text text-anchor="middle" x="299" y="-590.3" font-family="Times,serif" font-size="14.00">mrpt&#45;graphs</text>
</a>
</g>
</g>
<!-- viz -->
<g id="node17" class="node">
<title>viz</title>
<g id="a_node17"><a xlink:href="group_mrpt_viz_grp.html" xlink:title="mrpt&#45;viz">
<polygon fill="#d0d0d0" stroke="black" points="406.5,-540 329.5,-540 329.5,-504 406.5,-504 406.5,-540"/>
<text text-anchor="middle" x="368" y="-518.3" font-family="Times,serif" font-size="14.00">mrpt&#45;viz</text>
</a>
</g>
</g>
<!-- graphs&#45;&gt;viz -->
<g id="edge12" class="edge">
<title>graphs&#45;&gt;viz</title>
<path fill="none" stroke="black" d="M316.06,-575.7C324.5,-567.14 334.82,-556.66 344.04,-547.3"/>
<polygon fill="black" stroke="black" points="346.61,-549.68 351.14,-540.1 341.63,-544.77 346.61,-549.68"/>
</g>
<!-- poses -->
<g id="node20" class="node">
<title>poses</title>
<g id="a_node20"><a xlink:href="group_mrpt_poses_grp.html" xlink:title="mrpt&#45;poses">
<polygon fill="#d0d0d0" stroke="black" points="371.5,-468 274.5,-468 274.5,-432 371.5,-432 371.5,-468"/>
<text text-anchor="middle" x="323" y="-446.3" font-family="Times,serif" font-size="14.00">mrpt&#45;poses</text>
</a>
</g>
</g>
<!-- viz&#45;&gt;poses -->
<g id="edge15" class="edge">
<title>viz&#45;&gt;poses</title>
<path fill="none" stroke="black" d="M356.88,-503.7C351.64,-495.56 345.3,-485.69 339.52,-476.7"/>
<polygon fill="black" stroke="black" points="342.35,-474.62 334,-468.1 336.46,-478.41 342.35,-474.62"/>
</g>
<!-- img -->
<g id="node21" class="node">
<title>img</title>
<g id="a_node21"><a xlink:href="group_mrpt_img_grp.html" xlink:title="mrpt&#45;img">
<polygon fill="#d0d0d0" stroke="black" points="491.5,-396 408.5,-396 408.5,-360 491.5,-360 491.5,-396"/>
<text text-anchor="middle" x="450" y="-374.3" font-family="Times,serif" font-size="14.00">mrpt&#45;img</text>
</a>
</g>
</g>
<!-- viz&#45;&gt;img -->
<g id="edge16" class="edge">
<title>viz&#45;&gt;img</title>
<path fill="none" stroke="black" d="M377.89,-503.87C392.11,-479.24 418.45,-433.64 435.05,-404.88"/>
<polygon fill="black" stroke="black" points="438.1,-406.6 440.07,-396.19 432.04,-403.1 438.1,-406.6"/>
</g>
<!-- graphslam -->
<g id="node18" class="node">
<title>graphslam</title>
<g id="a_node18"><a xlink:href="group_mrpt_graphslam_grp.html" xlink:title="mrpt&#45;graphslam">
<polygon fill="#d0d0d0" stroke="black" points="311,-828 179,-828 179,-792 311,-792 311,-828"/>
<text text-anchor="middle" x="245" y="-806.3" font-family="Times,serif" font-size="14.00">mrpt&#45;graphslam</text>
</a>
</g>
</g>
<!-- graphslam&#45;&gt;slam -->
<g id="edge13" class="edge">
<title>graphslam&#45;&gt;slam</title>
<path fill="none" stroke="black" d="M245,-791.7C245,-783.98 245,-774.71 245,-766.11"/>
<polygon fill="black" stroke="black" points="248.5,-766.1 245,-756.1 241.5,-766.1 248.5,-766.1"/>
</g>
<!-- opengl&#45;&gt;viz -->
<g id="edge33" class="edge">
<title>opengl&#45;&gt;viz</title>
<path fill="none" stroke="black" d="M523.87,-575.97C491.17,-564.85 448.71,-550.43 416.37,-539.43"/>
<polygon fill="black" stroke="black" points="417.27,-536.05 406.67,-536.14 415.02,-542.67 417.27,-536.05"/>
</g>
<!-- poses&#45;&gt;bayes -->
<g id="edge34" class="edge">
<title>poses&#45;&gt;bayes</title>
<path fill="none" stroke="black" d="M323,-431.7C323,-423.98 323,-414.71 323,-406.11"/>
<polygon fill="black" stroke="black" points="326.5,-406.1 323,-396.1 319.5,-406.1 326.5,-406.1"/>
</g>
<!-- img&#45;&gt;math -->
<g id="edge20" class="edge">
<title>img&#45;&gt;math</title>
<path fill="none" stroke="black" d="M452.78,-359.81C454.92,-340.44 455.34,-308.95 440,-288 431.76,-276.74 403.79,-264.01 377.04,-253.85"/>
<polygon fill="black" stroke="black" points="378.26,-250.57 367.67,-250.37 375.82,-257.13 378.26,-250.57"/>
</g>
<!-- img&#45;&gt;config -->
<g id="edge21" class="edge">
<title>img&#45;&gt;config</title>
<path fill="none" stroke="black" d="M432.94,-359.7C424.5,-351.14 414.18,-340.66 404.96,-331.3"/>
<polygon fill="black" stroke="black" points="407.37,-328.77 397.86,-324.1 402.39,-333.68 407.37,-328.77"/>
</g>
<!-- img&#45;&gt;io -->
<g id="edge19" class="edge">
<title>img&#45;&gt;io</title>
<path fill="none" stroke="black" d="M467.8,-359.7C476.6,-351.14 487.38,-340.66 497,-331.3"/>
<polygon fill="black" stroke="black" points="499.68,-333.58 504.41,-324.1 494.8,-328.57 499.68,-333.58"/>
</g>
<!-- maps&#45;&gt;graphs -->
<g id="edge24" class="edge">
<title>maps&#45;&gt;graphs</title>
<path fill="none" stroke="black" d="M326.85,-647.7C322.6,-639.64 317.44,-629.89 312.73,-620.98"/>
<polygon fill="black" stroke="black" points="315.81,-619.31 308.04,-612.1 309.62,-622.58 315.81,-619.31"/>
</g>
<!-- obs -->
<g id="node24" class="node">
<title>obs</title>
<g id="a_node24"><a xlink:href="group_mrpt_obs_grp.html" xlink:title="mrpt&#45;obs">
<polygon fill="#d0d0d0" stroke="black" points="227.5,-612 146.5,-612 146.5,-576 227.5,-576 227.5,-612"/>
<text text-anchor="middle" x="187" y="-590.3" font-family="Times,serif" font-size="14.00">mrpt&#45;obs</text>
</a>
</g>
</g>
<!-- maps&#45;&gt;obs -->
<g id="edge25" class="edge">
<title>maps&#45;&gt;obs</title>
<path fill="none" stroke="black" d="M299.55,-647.88C279.36,-638.39 254.08,-626.51 232.59,-616.42"/>
<polygon fill="black" stroke="black" points="233.87,-613.15 223.33,-612.07 230.89,-619.49 233.87,-613.15"/>
</g>
<!-- kinematics -->
<g id="node23" class="node">
<title>kinematics</title>
<g id="a_node23"><a xlink:href="group_mrpt_kinematics_grp.html" xlink:title="mrpt&#45;kinematics">
<polygon fill="#d0d0d0" stroke="black" points="504,-612 370,-612 370,-576 504,-576 504,-612"/>
<text text-anchor="middle" x="437" y="-590.3" font-family="Times,serif" font-size="14.00">mrpt&#45;kinematics</text>
</a>
</g>
</g>
<!-- kinematics&#45;&gt;viz -->
<g id="edge23" class="edge">
<title>kinematics&#45;&gt;viz</title>
<path fill="none" stroke="black" d="M419.94,-575.7C411.5,-567.14 401.18,-556.66 391.96,-547.3"/>
<polygon fill="black" stroke="black" points="394.37,-544.77 384.86,-540.1 389.39,-549.68 394.37,-544.77"/>
</g>
<!-- obs&#45;&gt;viz -->
<g id="edge31" class="edge">
<title>obs&#45;&gt;viz</title>
<path fill="none" stroke="black" d="M227.62,-577.29C254.96,-566.72 291.14,-552.72 319.92,-541.59"/>
<polygon fill="black" stroke="black" points="321.31,-544.81 329.38,-537.94 318.79,-538.28 321.31,-544.81"/>
</g>
<!-- tfest -->
<g id="node28" class="node">
<title>tfest</title>
<g id="a_node28"><a xlink:href="group_mrpt_tfest_grp.html" xlink:title="mrpt&#45;tfest">
<polygon fill="#d0d0d0" stroke="black" points="306.5,-540 217.5,-540 217.5,-504 306.5,-504 306.5,-540"/>
<text text-anchor="middle" x="262" y="-518.3" font-family="Times,serif" font-size="14.00">mrpt&#45;tfest</text>
</a>
</g>
</g>
<!-- obs&#45;&gt;tfest -->
<g id="edge32" class="edge">
<title>obs&#45;&gt;tfest</title>
<path fill="none" stroke="black" d="M205.54,-575.7C214.8,-567.05 226.16,-556.45 236.26,-547.03"/>
<polygon fill="black" stroke="black" points="238.75,-549.49 243.67,-540.1 233.98,-544.37 238.75,-549.49"/>
</g>
<!-- rtti -->
<g id="node29" class="node">
<title>rtti</title>
<g id="a_node29"><a xlink:href="group_mrpt_rtti_grp.html" xlink:title="mrpt&#45;rtti">
<polygon fill="#d0d0d0" stroke="black" points="365,-108 285,-108 285,-72 365,-72 365,-108"/>
<text text-anchor="middle" x="325" y="-86.3" font-family="Times,serif" font-size="14.00">mrpt&#45;rtti</text>
</a>
</g>
</g>
<!-- serialization&#45;&gt;rtti -->
<g id="edge37" class="edge">
<title>serialization&#45;&gt;rtti</title>
<path fill="none" stroke="black" d="M321.99,-143.7C322.43,-135.98 322.96,-126.71 323.45,-118.11"/>
<polygon fill="black" stroke="black" points="326.95,-118.29 324.02,-108.1 319.96,-117.89 326.95,-118.29"/>
</g>
<!-- nav -->
<g id="node27" class="node">
<title>nav</title>
<g id="a_node27"><a xlink:href="group_mrpt_nav_grp.html" xlink:title="mrpt&#45;nav">
<polygon fill="#d0d0d0" stroke="black" points="390,-756 308,-756 308,-720 390,-720 390,-756"/>
<text text-anchor="middle" x="349" y="-734.3" font-family="Times,serif" font-size="14.00">mrpt&#45;nav</text>
</a>
</g>
</g>
<!-- nav&#45;&gt;maps -->
<g id="edge30" class="edge">
<title>nav&#45;&gt;maps</title>
<path fill="none" stroke="black" d="M345.79,-719.7C344.35,-711.98 342.63,-702.71 341.04,-694.11"/>
<polygon fill="black" stroke="black" points="344.44,-693.3 339.18,-684.1 337.56,-694.58 344.44,-693.3"/>
</g>
<!-- nav&#45;&gt;kinematics -->
<g id="edge29" class="edge">
<title>nav&#45;&gt;kinematics</title>
<path fill="none" stroke="black" d="M365.17,-719.66C374.01,-709.67 384.79,-696.64 393,-684 405.99,-664 417.79,-639.62 425.9,-621.43"/>
<polygon fill="black" stroke="black" points="429.21,-622.6 430,-612.04 422.79,-619.8 429.21,-622.6"/>
</g>
<!-- tfest&#45;&gt;poses -->
<g id="edge42" class="edge">
<title>tfest&#45;&gt;poses</title>
<path fill="none" stroke="black" d="M277.08,-503.7C284.39,-495.3 293.31,-485.07 301.34,-475.86"/>
<polygon fill="black" stroke="black" points="304.16,-477.94 308.09,-468.1 298.89,-473.34 304.16,-477.94"/>
</g>
<!-- rtti&#45;&gt;core -->
<g id="edge35" class="edge">
<title>rtti&#45;&gt;core</title>
<path fill="none" stroke="black" d="M326.24,-71.7C326.79,-63.98 327.45,-54.71 328.06,-46.11"/>
<polygon fill="black" stroke="black" points="331.56,-46.33 328.78,-36.1 324.57,-45.83 331.56,-46.33"/>
</g>
<!-- rtti&#45;&gt;typemeta -->
<g id="edge36" class="edge">
<title>rtti&#45;&gt;typemeta</title>
<path fill="none" stroke="black" d="M359.98,-71.88C379.2,-62.47 403.23,-50.71 423.74,-40.67"/>
<polygon fill="black" stroke="black" points="425.44,-43.73 432.88,-36.19 422.36,-37.44 425.44,-43.73"/>
</g>
<!-- vision&#45;&gt;obs -->
<g id="edge44" class="edge">
<title>vision&#45;&gt;obs</title>
<path fill="none" stroke="black" d="M94.84,-647.88C110.94,-638.64 131,-627.13 148.29,-617.21"/>
<polygon fill="black" stroke="black" points="150.11,-620.2 157.04,-612.19 146.63,-614.13 150.11,-620.2"/>
</g>
<!-- topography -->
<g id="node31" class="node">
<title>topography</title>
<g id="a_node31"><a xlink:href="group_mrpt_topography_grp.html" xlink:title="mrpt&#45;topography">
<polygon fill="#d0d0d0" stroke="black" points="270,-684 132,-684 132,-648 270,-648 270,-684"/>
<text text-anchor="middle" x="201" y="-662.3" font-family="Times,serif" font-size="14.00">mrpt&#45;topography</text>
</a>
</g>
</g>
<!-- topography&#45;&gt;obs -->
<g id="edge43" class="edge">
<title>topography&#45;&gt;obs</title>
<path fill="none" stroke="black" d="M197.54,-647.7C196,-639.98 194.14,-630.71 192.42,-622.11"/>
<polygon fill="black" stroke="black" points="195.81,-621.22 190.42,-612.1 188.95,-622.6 195.81,-621.22"/>
</g>
<!-- visionlgpl -->
<g id="node32" class="node">
<title>visionlgpl</title>
<g id="a_node32"><a xlink:href="group_mrpt_vision_lgpl_grp.html" xlink:title="mrpt&#45;vision&#45;lgpl">
<polygon fill="#d0d0d0" stroke="black" points="130,-756 0,-756 0,-720 130,-720 130,-756"/>
<text text-anchor="middle" x="65" y="-734.3" font-family="Times,serif" font-size="14.00">mrpt&#45;vision&#45;lgpl</text>
</a>
</g>
</g>
<!-- visionlgpl&#45;&gt;vision -->
<g id="edge45" class="edge">
<title>visionlgpl&#45;&gt;vision</title>
<path fill="none" stroke="black" d="M65,-719.7C65,-711.98 65,-702.71 65,-694.11"/>
<polygon fill="black" stroke="black" points="68.5,-694.1 65,-684.1 61.5,-694.1 68.5,-694.1"/>
</g>
</g>
</svg>
