<?xml version="1.0" encoding="UTF-8" standalone="no"?>
<!DOCTYPE svg PUBLIC "-//W3C//DTD SVG 1.1//EN"
 "http://www.w3.org/Graphics/SVG/1.1/DTD/svg11.dtd">
<!-- Generated by graphviz version 2.43.0 (0)
 -->
<!-- Title: MRPT_LIBS Pages: 1 -->
<svg width="570pt" height="980pt"
 viewBox="0.00 0.00 569.50 980.00" xmlns="http://www.w3.org/2000/svg" xmlns:xlink="http://www.w3.org/1999/xlink">
<g id="graph0" class="graph" transform="scale(1 1) rotate(0) translate(4 976)">
<title>MRPT_LIBS</title>
<polygon fill="white" stroke="transparent" points="-4,4 -4,-976 565.5,-976 565.5,4 -4,4"/>
<!-- common -->
<g id="node1" class="node">
<title>common</title>
<g id="a_node1"><a xlink:href="mrpt_common.html" xlink:title="mrpt_common">
<polygon fill="#d0d0d0" stroke="black" points="404.5,-36 306.5,-36 306.5,0 404.5,0 404.5,-36"/>
<text text-anchor="middle" x="355.5" y="-14.3" font-family="Times,serif" font-size="14.00">mrpt_common</text>
</a>
</g>
</g>
<!-- apps_gui -->
<g id="node2" class="node">
<title>apps_gui</title>
<g id="a_node2"><a xlink:href="group_mrpt_apps_gui_grp.html" xlink:title="mrpt_apps_gui">
<polygon fill="#d0d0d0" stroke="black" points="131.5,-972 33.5,-972 33.5,-936 131.5,-936 131.5,-972"/>
<text text-anchor="middle" x="82.5" y="-950.3" font-family="Times,serif" font-size="14.00">mrpt_apps_gui</text>
</a>
</g>
</g>
<!-- apps_cli -->
<g id="node3" class="node">
<title>apps_cli</title>
<g id="a_node3"><a xlink:href="group_mrpt_apps_cli_grp.html" xlink:title="mrpt_apps_cli">
<polygon fill="#d0d0d0" stroke="black" points="216,-900 121,-900 121,-864 216,-864 216,-900"/>
<text text-anchor="middle" x="168.5" y="-878.3" font-family="Times,serif" font-size="14.00">mrpt_apps_cli</text>
</a>
</g>
</g>
<!-- apps_gui&#45;&gt;apps_cli -->
<g id="edge1" class="edge">
<title>apps_gui&#45;&gt;apps_cli</title>
<path fill="none" stroke="black" d="M103.76,-935.7C114.59,-926.88 127.92,-916.03 139.66,-906.47"/>
<polygon fill="black" stroke="black" points="141.94,-909.13 147.49,-900.1 137.52,-903.7 141.94,-909.13"/>
</g>
<!-- gui -->
<g id="node4" class="node">
<title>gui</title>
<g id="a_node4"><a xlink:href="group_mrpt_gui_grp.html" xlink:title="mrpt_gui">
<polygon fill="#d0d0d0" stroke="black" points="67,-900 0,-900 0,-864 67,-864 67,-900"/>
<text text-anchor="middle" x="33.5" y="-878.3" font-family="Times,serif" font-size="14.00">mrpt_gui</text>
</a>
</g>
</g>
<!-- apps_gui&#45;&gt;gui -->
<g id="edge2" class="edge">
<title>apps_gui&#45;&gt;gui</title>
<path fill="none" stroke="black" d="M70.39,-935.7C64.63,-927.47 57.64,-917.48 51.29,-908.42"/>
<polygon fill="black" stroke="black" points="54.08,-906.29 45.47,-900.1 48.34,-910.3 54.08,-906.29"/>
</g>
<!-- slam -->
<g id="node5" class="node">
<title>slam</title>
<g id="a_node5"><a xlink:href="group_mrpt_slam_grp.html" xlink:title="mrpt_slam">
<polygon fill="#d0d0d0" stroke="black" points="429.5,-828 353.5,-828 353.5,-792 429.5,-792 429.5,-828"/>
<text text-anchor="middle" x="391.5" y="-806.3" font-family="Times,serif" font-size="14.00">mrpt_slam</text>
</a>
</g>
</g>
<!-- apps_cli&#45;&gt;slam -->
<g id="edge3" class="edge">
<title>apps_cli&#45;&gt;slam</title>
<path fill="none" stroke="black" d="M216.07,-866.07C253.64,-854.27 305.85,-837.89 343.53,-826.06"/>
<polygon fill="black" stroke="black" points="344.77,-829.34 353.26,-823 342.67,-822.66 344.77,-829.34"/>
</g>
<!-- hwdrivers -->
<g id="node6" class="node">
<title>hwdrivers</title>
<g id="a_node6"><a xlink:href="group_mrpt_hwdrivers_grp.html" xlink:title="mrpt_hwdrivers">
<polygon fill="#d0d0d0" stroke="black" points="220.5,-828 116.5,-828 116.5,-792 220.5,-792 220.5,-828"/>
<text text-anchor="middle" x="168.5" y="-806.3" font-family="Times,serif" font-size="14.00">mrpt_hwdrivers</text>
</a>
</g>
</g>
<!-- apps_cli&#45;&gt;hwdrivers -->
<g id="edge4" class="edge">
<title>apps_cli&#45;&gt;hwdrivers</title>
<path fill="none" stroke="black" d="M168.5,-863.7C168.5,-855.98 168.5,-846.71 168.5,-838.11"/>
<polygon fill="black" stroke="black" points="172,-838.1 168.5,-828.1 165,-838.1 172,-838.1"/>
</g>
<!-- opengl -->
<g id="node20" class="node">
<title>opengl</title>
<g id="a_node20"><a xlink:href="group_mrpt_opengl_grp.html" xlink:title="mrpt_opengl">
<polygon fill="#d0d0d0" stroke="black" points="180.5,-684 94.5,-684 94.5,-648 180.5,-648 180.5,-684"/>
<text text-anchor="middle" x="137.5" y="-662.3" font-family="Times,serif" font-size="14.00">mrpt_opengl</text>
</a>
</g>
</g>
<!-- gui&#45;&gt;opengl -->
<g id="edge15" class="edge">
<title>gui&#45;&gt;opengl</title>
<path fill="none" stroke="black" d="M41.83,-863.85C59.98,-826.52 103.14,-737.69 124.74,-693.26"/>
<polygon fill="black" stroke="black" points="127.9,-694.76 129.13,-684.23 121.61,-691.7 127.9,-694.76"/>
</g>
<!-- maps -->
<g id="node23" class="node">
<title>maps</title>
<g id="a_node23"><a xlink:href="group_mrpt_maps_grp.html" xlink:title="mrpt_maps">
<polygon fill="#d0d0d0" stroke="black" points="360,-756 281,-756 281,-720 360,-720 360,-756"/>
<text text-anchor="middle" x="320.5" y="-734.3" font-family="Times,serif" font-size="14.00">mrpt_maps</text>
</a>
</g>
</g>
<!-- slam&#45;&gt;maps -->
<g id="edge40" class="edge">
<title>slam&#45;&gt;maps</title>
<path fill="none" stroke="black" d="M373.95,-791.7C365.27,-783.14 354.64,-772.66 345.15,-763.3"/>
<polygon fill="black" stroke="black" points="347.43,-760.63 337.85,-756.1 342.51,-765.62 347.43,-760.63"/>
</g>
<!-- vision -->
<g id="node31" class="node">
<title>vision</title>
<g id="a_node31"><a xlink:href="group_mrpt_vision_grp.html" xlink:title="mrpt_vision">
<polygon fill="#d0d0d0" stroke="black" points="548,-756 465,-756 465,-720 548,-720 548,-756"/>
<text text-anchor="middle" x="506.5" y="-734.3" font-family="Times,serif" font-size="14.00">mrpt_vision</text>
</a>
</g>
</g>
<!-- slam&#45;&gt;vision -->
<g id="edge41" class="edge">
<title>slam&#45;&gt;vision</title>
<path fill="none" stroke="black" d="M419.63,-791.88C434.67,-782.72 453.37,-771.34 469.56,-761.48"/>
<polygon fill="black" stroke="black" points="471.54,-764.38 478.26,-756.19 467.9,-758.4 471.54,-764.38"/>
</g>
<!-- topography -->
<g id="node32" class="node">
<title>topography</title>
<g id="a_node32"><a xlink:href="group_mrpt_topography_grp.html" xlink:title="mrpt_topography">
<polygon fill="#d0d0d0" stroke="black" points="492,-612 381,-612 381,-576 492,-576 492,-612"/>
<text text-anchor="middle" x="436.5" y="-590.3" font-family="Times,serif" font-size="14.00">mrpt_topography</text>
</a>
</g>
</g>
<!-- slam&#45;&gt;topography -->
<g id="edge42" class="edge">
<title>slam&#45;&gt;topography</title>
<path fill="none" stroke="black" d="M395.11,-791.85C402.91,-754.75 421.4,-666.81 430.8,-622.1"/>
<polygon fill="black" stroke="black" points="434.24,-622.74 432.88,-612.23 427.39,-621.3 434.24,-622.74"/>
</g>
<!-- comms -->
<g id="node10" class="node">
<title>comms</title>
<g id="a_node10"><a xlink:href="group_mrpt_comms_grp.html" xlink:title="mrpt_comms">
<polygon fill="#d0d0d0" stroke="black" points="121.5,-540 31.5,-540 31.5,-504 121.5,-504 121.5,-540"/>
<text text-anchor="middle" x="76.5" y="-518.3" font-family="Times,serif" font-size="14.00">mrpt_comms</text>
</a>
</g>
</g>
<!-- hwdrivers&#45;&gt;comms -->
<g id="edge18" class="edge">
<title>hwdrivers&#45;&gt;comms</title>
<path fill="none" stroke="black" d="M152.81,-791.98C133.01,-769.3 99.8,-727.01 85.5,-684 70.58,-639.13 71.43,-583.38 73.74,-550.64"/>
<polygon fill="black" stroke="black" points="77.24,-550.72 74.55,-540.47 70.26,-550.16 77.24,-550.72"/>
</g>
<!-- hwdrivers&#45;&gt;maps -->
<g id="edge19" class="edge">
<title>hwdrivers&#45;&gt;maps</title>
<path fill="none" stroke="black" d="M205.68,-791.88C226.37,-782.35 252.3,-770.41 274.28,-760.28"/>
<polygon fill="black" stroke="black" points="275.82,-763.43 283.44,-756.07 272.89,-757.07 275.82,-763.43"/>
</g>
<!-- bayes -->
<g id="node7" class="node">
<title>bayes</title>
<g id="a_node7"><a xlink:href="group_mrpt_bayes_grp.html" xlink:title="mrpt_bayes">
<polygon fill="#d0d0d0" stroke="black" points="367.5,-468 287.5,-468 287.5,-432 367.5,-432 367.5,-468"/>
<text text-anchor="middle" x="327.5" y="-446.3" font-family="Times,serif" font-size="14.00">mrpt_bayes</text>
</a>
</g>
</g>
<!-- math -->
<g id="node8" class="node">
<title>math</title>
<g id="a_node8"><a xlink:href="group_mrpt_math_grp.html" xlink:title="mrpt_math">
<polygon fill="#d0d0d0" stroke="black" points="379,-396 302,-396 302,-360 379,-360 379,-396"/>
<text text-anchor="middle" x="340.5" y="-374.3" font-family="Times,serif" font-size="14.00">mrpt_math</text>
</a>
</g>
</g>
<!-- bayes&#45;&gt;math -->
<g id="edge5" class="edge">
<title>bayes&#45;&gt;math</title>
<path fill="none" stroke="black" d="M330.71,-431.7C332.15,-423.98 333.87,-414.71 335.46,-406.11"/>
<polygon fill="black" stroke="black" points="338.94,-406.58 337.32,-396.1 332.06,-405.3 338.94,-406.58"/>
</g>
<!-- config -->
<g id="node9" class="node">
<title>config</title>
<g id="a_node9"><a xlink:href="group_mrpt_config_grp.html" xlink:title="mrpt_config">
<polygon fill="#d0d0d0" stroke="black" points="275.5,-396 191.5,-396 191.5,-360 275.5,-360 275.5,-396"/>
<text text-anchor="middle" x="233.5" y="-374.3" font-family="Times,serif" font-size="14.00">mrpt_config</text>
</a>
</g>
</g>
<!-- bayes&#45;&gt;config -->
<g id="edge6" class="edge">
<title>bayes&#45;&gt;config</title>
<path fill="none" stroke="black" d="M304.26,-431.7C292.31,-422.8 277.58,-411.82 264.65,-402.2"/>
<polygon fill="black" stroke="black" points="266.58,-399.27 256.47,-396.1 262.4,-404.88 266.58,-399.27"/>
</g>
<!-- system -->
<g id="node16" class="node">
<title>system</title>
<g id="a_node16"><a xlink:href="group_mrpt_system_grp.html" xlink:title="mrpt_system">
<polygon fill="#d0d0d0" stroke="black" points="259.5,-252 171.5,-252 171.5,-216 259.5,-216 259.5,-252"/>
<text text-anchor="middle" x="215.5" y="-230.3" font-family="Times,serif" font-size="14.00">mrpt_system</text>
</a>
</g>
</g>
<!-- math&#45;&gt;system -->
<g id="edge29" class="edge">
<title>math&#45;&gt;system</title>
<path fill="none" stroke="black" d="M320.04,-359.95C308.52,-349.96 294.15,-336.82 282.5,-324 264.16,-303.83 245.71,-278.9 232.83,-260.55"/>
<polygon fill="black" stroke="black" points="235.55,-258.34 226.97,-252.13 229.8,-262.34 235.55,-258.34"/>
</g>
<!-- serialization -->
<g id="node26" class="node">
<title>serialization</title>
<g id="a_node26"><a xlink:href="group_mrpt_serialization_grp.html" xlink:title="mrpt_serialization">
<polygon fill="#d0d0d0" stroke="black" points="407.5,-324 291.5,-324 291.5,-288 407.5,-288 407.5,-324"/>
<text text-anchor="middle" x="349.5" y="-302.3" font-family="Times,serif" font-size="14.00">mrpt_serialization</text>
</a>
</g>
</g>
<!-- math&#45;&gt;serialization -->
<g id="edge27" class="edge">
<title>math&#45;&gt;serialization</title>
<path fill="none" stroke="black" d="M342.72,-359.7C343.72,-351.98 344.91,-342.71 346.01,-334.11"/>
<polygon fill="black" stroke="black" points="349.5,-334.47 347.3,-324.1 342.55,-333.58 349.5,-334.47"/>
</g>
<!-- random -->
<g id="node27" class="node">
<title>random</title>
<g id="a_node27"><a xlink:href="group_mrpt_random_grp.html" xlink:title="mrpt_random">
<polygon fill="#d0d0d0" stroke="black" points="517.5,-324 425.5,-324 425.5,-288 517.5,-288 517.5,-324"/>
<text text-anchor="middle" x="471.5" y="-302.3" font-family="Times,serif" font-size="14.00">mrpt_random</text>
</a>
</g>
</g>
<!-- math&#45;&gt;random -->
<g id="edge28" class="edge">
<title>math&#45;&gt;random</title>
<path fill="none" stroke="black" d="M372.55,-359.88C389.99,-350.55 411.77,-338.92 430.44,-328.94"/>
<polygon fill="black" stroke="black" points="432.16,-331.99 439.33,-324.19 428.86,-325.82 432.16,-331.99"/>
</g>
<!-- expr -->
<g id="node12" class="node">
<title>expr</title>
<g id="a_node12"><a xlink:href="group_mrpt_expr_grp.html" xlink:title="mrpt_expr">
<polygon fill="#d0d0d0" stroke="black" points="235.5,-324 161.5,-324 161.5,-288 235.5,-288 235.5,-324"/>
<text text-anchor="middle" x="198.5" y="-302.3" font-family="Times,serif" font-size="14.00">mrpt_expr</text>
</a>
</g>
</g>
<!-- config&#45;&gt;expr -->
<g id="edge8" class="edge">
<title>config&#45;&gt;expr</title>
<path fill="none" stroke="black" d="M224.85,-359.7C220.86,-351.73 216.05,-342.1 211.63,-333.26"/>
<polygon fill="black" stroke="black" points="214.65,-331.48 207.05,-324.1 208.39,-334.61 214.65,-331.48"/>
</g>
<!-- io -->
<g id="node11" class="node">
<title>io</title>
<g id="a_node11"><a xlink:href="group_mrpt_io_grp.html" xlink:title="mrpt_io">
<polygon fill="#d0d0d0" stroke="black" points="163.5,-396 103.5,-396 103.5,-360 163.5,-360 163.5,-396"/>
<text text-anchor="middle" x="133.5" y="-374.3" font-family="Times,serif" font-size="14.00">mrpt_io</text>
</a>
</g>
</g>
<!-- comms&#45;&gt;io -->
<g id="edge7" class="edge">
<title>comms&#45;&gt;io</title>
<path fill="none" stroke="black" d="M83.38,-503.87C93.18,-479.46 111.25,-434.43 122.81,-405.64"/>
<polygon fill="black" stroke="black" points="126.12,-406.77 126.6,-396.19 119.63,-404.17 126.12,-406.77"/>
</g>
<!-- io&#45;&gt;system -->
<g id="edge23" class="edge">
<title>io&#45;&gt;system</title>
<path fill="none" stroke="black" d="M133.91,-359.73C135.06,-340.86 139.08,-310.35 152.5,-288 159.29,-276.69 169.38,-266.64 179.5,-258.42"/>
<polygon fill="black" stroke="black" points="181.77,-261.1 187.56,-252.23 177.5,-255.54 181.77,-261.1"/>
</g>
<!-- expr&#45;&gt;system -->
<g id="edge12" class="edge">
<title>expr&#45;&gt;system</title>
<path fill="none" stroke="black" d="M202.7,-287.7C204.6,-279.9 206.88,-270.51 208.98,-261.83"/>
<polygon fill="black" stroke="black" points="212.39,-262.65 211.35,-252.1 205.58,-261 212.39,-262.65"/>
</g>
<!-- containers -->
<g id="node13" class="node">
<title>containers</title>
<g id="a_node13"><a xlink:href="group_mrpt_containers_grp.html" xlink:title="mrpt_containers">
<polygon fill="#d0d0d0" stroke="black" points="292,-180 187,-180 187,-144 292,-144 292,-180"/>
<text text-anchor="middle" x="239.5" y="-158.3" font-family="Times,serif" font-size="14.00">mrpt_containers</text>
</a>
</g>
</g>
<!-- core -->
<g id="node14" class="node">
<title>core</title>
<g id="a_node14"><a xlink:href="group_mrpt_core_grp.html" xlink:title="mrpt_core">
<polygon fill="#d0d0d0" stroke="black" points="392,-108 319,-108 319,-72 392,-72 392,-108"/>
<text text-anchor="middle" x="355.5" y="-86.3" font-family="Times,serif" font-size="14.00">mrpt_core</text>
</a>
</g>
</g>
<!-- containers&#45;&gt;core -->
<g id="edge9" class="edge">
<title>containers&#45;&gt;core</title>
<path fill="none" stroke="black" d="M267.88,-143.88C283.04,-134.72 301.91,-123.34 318.24,-113.48"/>
<polygon fill="black" stroke="black" points="320.26,-116.35 327.01,-108.19 316.64,-110.36 320.26,-116.35"/>
</g>
<!-- typemeta -->
<g id="node15" class="node">
<title>typemeta</title>
<g id="a_node15"><a xlink:href="group_mrpt_typemeta_grp.html" xlink:title="mrpt_typemeta (.h)">
<polygon fill="#d0d0d0" stroke="black" points="301,-108 178,-108 178,-72 301,-72 301,-108"/>
<text text-anchor="middle" x="239.5" y="-86.3" font-family="Times,serif" font-size="14.00">mrpt_typemeta (.h)</text>
</a>
</g>
</g>
<!-- containers&#45;&gt;typemeta -->
<g id="edge10" class="edge">
<title>containers&#45;&gt;typemeta</title>
<path fill="none" stroke="black" d="M239.5,-143.7C239.5,-135.98 239.5,-126.71 239.5,-118.11"/>
<polygon fill="black" stroke="black" points="243,-118.1 239.5,-108.1 236,-118.1 243,-118.1"/>
</g>
<!-- core&#45;&gt;common -->
<g id="edge11" class="edge">
<title>core&#45;&gt;common</title>
<path fill="none" stroke="black" d="M355.5,-71.7C355.5,-63.98 355.5,-54.71 355.5,-46.11"/>
<polygon fill="black" stroke="black" points="359,-46.1 355.5,-36.1 352,-46.1 359,-46.1"/>
</g>
<!-- typemeta&#45;&gt;common -->
<g id="edge46" class="edge">
<title>typemeta&#45;&gt;common</title>
<path fill="none" stroke="black" d="M267.88,-71.88C283.04,-62.72 301.91,-51.34 318.24,-41.48"/>
<polygon fill="black" stroke="black" points="320.26,-44.35 327.01,-36.19 316.64,-38.36 320.26,-44.35"/>
</g>
<!-- system&#45;&gt;containers -->
<g id="edge43" class="edge">
<title>system&#45;&gt;containers</title>
<path fill="none" stroke="black" d="M221.43,-215.7C224.11,-207.9 227.33,-198.51 230.3,-189.83"/>
<polygon fill="black" stroke="black" points="233.7,-190.7 233.64,-180.1 227.08,-188.43 233.7,-190.7"/>
</g>
<!-- graphs -->
<g id="node17" class="node">
<title>graphs</title>
<g id="a_node17"><a xlink:href="group_mrpt_graphs_grp.html" xlink:title="mrpt_graphs">
<polygon fill="#d0d0d0" stroke="black" points="322.5,-684 236.5,-684 236.5,-648 322.5,-648 322.5,-684"/>
<text text-anchor="middle" x="279.5" y="-662.3" font-family="Times,serif" font-size="14.00">mrpt_graphs</text>
</a>
</g>
</g>
<!-- viz -->
<g id="node18" class="node">
<title>viz</title>
<g id="a_node18"><a xlink:href="group_mrpt_viz_grp.html" xlink:title="mrpt_viz">
<polygon fill="#d0d0d0" stroke="black" points="270.5,-612 204.5,-612 204.5,-576 270.5,-576 270.5,-612"/>
<text text-anchor="middle" x="237.5" y="-590.3" font-family="Times,serif" font-size="14.00">mrpt_viz</text>
</a>
</g>
</g>
<!-- graphs&#45;&gt;viz -->
<g id="edge13" class="edge">
<title>graphs&#45;&gt;viz</title>
<path fill="none" stroke="black" d="M269.12,-647.7C264.24,-639.56 258.31,-629.69 252.92,-620.7"/>
<polygon fill="black" stroke="black" points="255.91,-618.88 247.76,-612.1 249.91,-622.48 255.91,-618.88"/>
</g>
<!-- poses -->
<g id="node21" class="node">
<title>poses</title>
<g id="a_node21"><a xlink:href="group_mrpt_poses_grp.html" xlink:title="mrpt_poses">
<polygon fill="#d0d0d0" stroke="black" points="366.5,-540 286.5,-540 286.5,-504 366.5,-504 366.5,-540"/>
<text text-anchor="middle" x="326.5" y="-518.3" font-family="Times,serif" font-size="14.00">mrpt_poses</text>
</a>
</g>
</g>
<!-- viz&#45;&gt;poses -->
<g id="edge16" class="edge">
<title>viz&#45;&gt;poses</title>
<path fill="none" stroke="black" d="M259.5,-575.7C270.71,-566.88 284.5,-556.03 296.65,-546.47"/>
<polygon fill="black" stroke="black" points="299.06,-549.04 304.75,-540.1 294.73,-543.54 299.06,-549.04"/>
</g>
<!-- img -->
<g id="node22" class="node">
<title>img</title>
<g id="a_node22"><a xlink:href="group_mrpt_img_grp.html" xlink:title="mrpt_img">
<polygon fill="#d0d0d0" stroke="black" points="269,-468 198,-468 198,-432 269,-432 269,-468"/>
<text text-anchor="middle" x="233.5" y="-446.3" font-family="Times,serif" font-size="14.00">mrpt_img</text>
</a>
</g>
</g>
<!-- viz&#45;&gt;img -->
<g id="edge17" class="edge">
<title>viz&#45;&gt;img</title>
<path fill="none" stroke="black" d="M237.02,-575.87C236.34,-551.67 235.08,-507.21 234.27,-478.39"/>
<polygon fill="black" stroke="black" points="237.76,-478.09 233.98,-468.19 230.77,-478.28 237.76,-478.09"/>
</g>
<!-- graphslam -->
<g id="node19" class="node">
<title>graphslam</title>
<g id="a_node19"><a xlink:href="group_mrpt_graphslam_grp.html" xlink:title="mrpt_graphslam">
<polygon fill="#d0d0d0" stroke="black" points="445,-900 338,-900 338,-864 445,-864 445,-900"/>
<text text-anchor="middle" x="391.5" y="-878.3" font-family="Times,serif" font-size="14.00">mrpt_graphslam</text>
</a>
</g>
</g>
<!-- graphslam&#45;&gt;slam -->
<g id="edge14" class="edge">
<title>graphslam&#45;&gt;slam</title>
<path fill="none" stroke="black" d="M391.5,-863.7C391.5,-855.98 391.5,-846.71 391.5,-838.11"/>
<polygon fill="black" stroke="black" points="395,-838.1 391.5,-828.1 388,-838.1 395,-838.1"/>
</g>
<!-- opengl&#45;&gt;viz -->
<g id="edge34" class="edge">
<title>opengl&#45;&gt;viz</title>
<path fill="none" stroke="black" d="M161.96,-647.88C174.8,-638.89 190.7,-627.76 204.59,-618.03"/>
<polygon fill="black" stroke="black" points="206.76,-620.79 212.94,-612.19 202.74,-615.06 206.76,-620.79"/>
</g>
<!-- poses&#45;&gt;bayes -->
<g id="edge35" class="edge">
<title>poses&#45;&gt;bayes</title>
<path fill="none" stroke="black" d="M326.75,-503.7C326.86,-495.98 326.99,-486.71 327.11,-478.11"/>
<polygon fill="black" stroke="black" points="330.61,-478.15 327.26,-468.1 323.61,-478.05 330.61,-478.15"/>
</g>
<!-- img&#45;&gt;math -->
<g id="edge21" class="edge">
<title>img&#45;&gt;math</title>
<path fill="none" stroke="black" d="M259.68,-431.88C273.54,-422.81 290.74,-411.55 305.71,-401.76"/>
<polygon fill="black" stroke="black" points="307.77,-404.59 314.22,-396.19 303.94,-398.74 307.77,-404.59"/>
</g>
<!-- img&#45;&gt;config -->
<g id="edge22" class="edge">
<title>img&#45;&gt;config</title>
<path fill="none" stroke="black" d="M233.5,-431.7C233.5,-423.98 233.5,-414.71 233.5,-406.11"/>
<polygon fill="black" stroke="black" points="237,-406.1 233.5,-396.1 230,-406.1 237,-406.1"/>
</g>
<!-- img&#45;&gt;io -->
<g id="edge20" class="edge">
<title>img&#45;&gt;io</title>
<path fill="none" stroke="black" d="M209.04,-431.88C196.2,-422.89 180.3,-411.76 166.41,-402.03"/>
<polygon fill="black" stroke="black" points="168.26,-399.06 158.06,-396.19 164.24,-404.79 168.26,-399.06"/>
</g>
<!-- maps&#45;&gt;graphs -->
<g id="edge25" class="edge">
<title>maps&#45;&gt;graphs</title>
<path fill="none" stroke="black" d="M310.37,-719.7C305.65,-711.64 299.94,-701.89 294.72,-692.98"/>
<polygon fill="black" stroke="black" points="297.59,-690.96 289.52,-684.1 291.55,-694.5 297.59,-690.96"/>
</g>
<!-- obs -->
<g id="node25" class="node">
<title>obs</title>
<g id="a_node25"><a xlink:href="group_mrpt_obs_grp.html" xlink:title="mrpt_obs">
<polygon fill="#d0d0d0" stroke="black" points="408.5,-684 340.5,-684 340.5,-648 408.5,-648 408.5,-684"/>
<text text-anchor="middle" x="374.5" y="-662.3" font-family="Times,serif" font-size="14.00">mrpt_obs</text>
</a>
</g>
</g>
<!-- maps&#45;&gt;obs -->
<g id="edge26" class="edge">
<title>maps&#45;&gt;obs</title>
<path fill="none" stroke="black" d="M333.85,-719.7C340.26,-711.39 348.06,-701.28 355.11,-692.14"/>
<polygon fill="black" stroke="black" points="357.97,-694.16 361.31,-684.1 352.43,-689.88 357.97,-694.16"/>
</g>
<!-- kinematics -->
<g id="node24" class="node">
<title>kinematics</title>
<g id="a_node24"><a xlink:href="group_mrpt_kinematics_grp.html" xlink:title="mrpt_kinematics">
<polygon fill="#d0d0d0" stroke="black" points="263,-756 154,-756 154,-720 263,-720 263,-756"/>
<text text-anchor="middle" x="208.5" y="-734.3" font-family="Times,serif" font-size="14.00">mrpt_kinematics</text>
</a>
</g>
</g>
<!-- kinematics&#45;&gt;viz -->
<g id="edge24" class="edge">
<title>kinematics&#45;&gt;viz</title>
<path fill="none" stroke="black" d="M212,-719.87C216.96,-695.56 226.1,-650.82 231.98,-622.01"/>
<polygon fill="black" stroke="black" points="235.42,-622.69 233.99,-612.19 228.56,-621.29 235.42,-622.69"/>
</g>
<!-- obs&#45;&gt;viz -->
<g id="edge32" class="edge">
<title>obs&#45;&gt;viz</title>
<path fill="none" stroke="black" d="M340.99,-647.88C322.52,-638.44 299.42,-626.64 279.73,-616.58"/>
<polygon fill="black" stroke="black" points="281.17,-613.38 270.67,-611.95 277.98,-619.61 281.17,-613.38"/>
</g>
<!-- tfest -->
<g id="node29" class="node">
<title>tfest</title>
<g id="a_node29"><a xlink:href="group_mrpt_tfest_grp.html" xlink:title="mrpt_tfest">
<polygon fill="#d0d0d0" stroke="black" points="363,-612 290,-612 290,-576 363,-576 363,-612"/>
<text text-anchor="middle" x="326.5" y="-590.3" font-family="Times,serif" font-size="14.00">mrpt_tfest</text>
</a>
</g>
</g>
<!-- obs&#45;&gt;tfest -->
<g id="edge33" class="edge">
<title>obs&#45;&gt;tfest</title>
<path fill="none" stroke="black" d="M362.63,-647.7C357,-639.47 350.15,-629.48 343.93,-620.42"/>
<polygon fill="black" stroke="black" points="346.77,-618.37 338.23,-612.1 341,-622.33 346.77,-618.37"/>
</g>
<!-- rtti -->
<g id="node30" class="node">
<title>rtti</title>
<g id="a_node30"><a xlink:href="group_mrpt_rtti_grp.html" xlink:title="mrpt_rtti">
<polygon fill="#d0d0d0" stroke="black" points="382,-180 317,-180 317,-144 382,-144 382,-180"/>
<text text-anchor="middle" x="349.5" y="-158.3" font-family="Times,serif" font-size="14.00">mrpt_rtti</text>
</a>
</g>
</g>
<!-- serialization&#45;&gt;rtti -->
<g id="edge39" class="edge">
<title>serialization&#45;&gt;rtti</title>
<path fill="none" stroke="black" d="M349.5,-287.87C349.5,-263.67 349.5,-219.21 349.5,-190.39"/>
<polygon fill="black" stroke="black" points="353,-190.19 349.5,-180.19 346,-190.19 353,-190.19"/>
</g>
<!-- random&#45;&gt;common -->
<g id="edge36" class="edge">
<title>random&#45;&gt;common</title>
<path fill="none" stroke="black" d="M468.77,-287.98C461.88,-248.19 441.34,-146.78 400.5,-72 395.06,-62.05 387.55,-52.26 380.23,-43.86"/>
<polygon fill="black" stroke="black" points="382.65,-41.31 373.33,-36.26 377.47,-46.02 382.65,-41.31"/>
</g>
<!-- nav -->
<g id="node28" class="node">
<title>nav</title>
<g id="a_node28"><a xlink:href="group_mrpt_nav_grp.html" xlink:title="mrpt_nav">
<polygon fill="#d0d0d0" stroke="black" points="326,-828 257,-828 257,-792 326,-792 326,-828"/>
<text text-anchor="middle" x="291.5" y="-806.3" font-family="Times,serif" font-size="14.00">mrpt_nav</text>
</a>
</g>
</g>
<!-- nav&#45;&gt;maps -->
<g id="edge31" class="edge">
<title>nav&#45;&gt;maps</title>
<path fill="none" stroke="black" d="M298.67,-791.7C301.93,-783.81 305.87,-774.3 309.5,-765.55"/>
<polygon fill="black" stroke="black" points="312.82,-766.68 313.41,-756.1 306.35,-764 312.82,-766.68"/>
</g>
<!-- nav&#45;&gt;kinematics -->
<g id="edge30" class="edge">
<title>nav&#45;&gt;kinematics</title>
<path fill="none" stroke="black" d="M270.98,-791.7C260.63,-782.97 247.91,-772.24 236.66,-762.75"/>
<polygon fill="black" stroke="black" points="238.68,-759.88 228.78,-756.1 234.17,-765.23 238.68,-759.88"/>
</g>
<!-- tfest&#45;&gt;poses -->
<g id="edge44" class="edge">
<title>tfest&#45;&gt;poses</title>
<path fill="none" stroke="black" d="M326.5,-575.7C326.5,-567.98 326.5,-558.71 326.5,-550.11"/>
<polygon fill="black" stroke="black" points="330,-550.1 326.5,-540.1 323,-550.1 330,-550.1"/>
</g>
<!-- rtti&#45;&gt;core -->
<g id="edge37" class="edge">
<title>rtti&#45;&gt;core</title>
<path fill="none" stroke="black" d="M350.98,-143.7C351.64,-135.98 352.44,-126.71 353.18,-118.11"/>
<polygon fill="black" stroke="black" points="356.67,-118.37 354.03,-108.1 349.69,-117.77 356.67,-118.37"/>
</g>
<!-- rtti&#45;&gt;typemeta -->
<g id="edge38" class="edge">
<title>rtti&#45;&gt;typemeta</title>
<path fill="none" stroke="black" d="M322.59,-143.88C308.34,-134.81 290.65,-123.55 275.26,-113.76"/>
<polygon fill="black" stroke="black" points="276.83,-110.61 266.51,-108.19 273.07,-116.51 276.83,-110.61"/>
</g>
<!-- vision&#45;&gt;obs -->
<g id="edge47" class="edge">
<title>vision&#45;&gt;obs</title>
<path fill="none" stroke="black" d="M474.21,-719.88C456.63,-710.55 434.69,-698.92 415.87,-688.94"/>
<polygon fill="black" stroke="black" points="417.39,-685.78 406.91,-684.19 414.11,-691.97 417.39,-685.78"/>
</g>
<!-- topography&#45;&gt;math -->
<g id="edge45" class="edge">
<title>topography&#45;&gt;math</title>
<path fill="none" stroke="black" d="M431.64,-575.98C422.74,-545.97 402.37,-482.09 376.5,-432 371.65,-422.61 365.44,-412.89 359.55,-404.38"/>
<polygon fill="black" stroke="black" points="362.25,-402.13 353.6,-396.01 356.55,-406.19 362.25,-402.13"/>
</g>
<!-- visionlgpl -->
<g id="node33" class="node">
<title>visionlgpl</title>
<g id="a_node33"><a xlink:href="group_mrpt_vision_lgpl_grp.html" xlink:title="mrpt_vision_lgpl">
<polygon fill="#d0d0d0" stroke="black" points="561.5,-828 451.5,-828 451.5,-792 561.5,-792 561.5,-828"/>
<text text-anchor="middle" x="506.5" y="-806.3" font-family="Times,serif" font-size="14.00">mrpt_vision_lgpl</text>
</a>
</g>
</g>
<!-- visionlgpl&#45;&gt;vision -->
<g id="edge48" class="edge">
<title>visionlgpl&#45;&gt;vision</title>
<path fill="none" stroke="black" d="M506.5,-791.7C506.5,-783.98 506.5,-774.71 506.5,-766.11"/>
<polygon fill="black" stroke="black" points="510,-766.1 506.5,-756.1 503,-766.1 510,-766.1"/>
</g>
</g>
</svg>
