<?xml version="1.0" encoding="UTF-8" standalone="no"?>
<!DOCTYPE svg PUBLIC "-//W3C//DTD SVG 1.1//EN"
 "http://www.w3.org/Graphics/SVG/1.1/DTD/svg11.dtd">
<!-- Generated by graphviz version 2.40.1 (20161225.0304)
 -->
<!-- Title: MRPT_LIBS Pages: 1 -->
<svg width="640pt" height="980pt"
 viewBox="0.00 0.00 640.00 980.00" xmlns="http://www.w3.org/2000/svg" xmlns:xlink="http://www.w3.org/1999/xlink">
<g id="graph0" class="graph" transform="scale(1 1) rotate(0) translate(4 976)">
<title>MRPT_LIBS</title>
<polygon fill="#ffffff" stroke="transparent" points="-4,4 -4,-976 636,-976 636,4 -4,4"/>
<!-- apps -->
<g id="node1" class="node">
<title>apps</title>
<g id="a_node1"><a xlink:href="group_mrpt_bayes_grp.html" xlink:title="mrpt&#45;apps">
<polygon fill="#d0d0d0" stroke="#000000" points="398,-972 326,-972 326,-936 398,-936 398,-972"/>
<text text-anchor="middle" x="362" y="-950.3" font-family="Times,serif" font-size="14.00" fill="#000000">mrpt&#45;apps</text>
</a>
</g>
</g>
<!-- gui -->
<g id="node2" class="node">
<title>gui</title>
<g id="a_node2"><a xlink:href="group_mrpt_gui_grp.html" xlink:title="mrpt&#45;gui">
<polygon fill="#d0d0d0" stroke="#000000" points="412.5,-756 347.5,-756 347.5,-720 412.5,-720 412.5,-756"/>
<text text-anchor="middle" x="380" y="-734.3" font-family="Times,serif" font-size="14.00" fill="#000000">mrpt&#45;gui</text>
</a>
</g>
</g>
<!-- apps&#45;&gt;gui -->
<g id="edge1" class="edge">
<title>apps&#45;&gt;gui</title>
<path fill="none" stroke="#000000" d="M334.5106,-935.7646C323.1152,-926.5451 311.1403,-914.2754 305,-900 286.0338,-855.906 283.1167,-834.7214 305,-792 312.3205,-777.7086 325.3794,-766.3384 338.5713,-757.7896"/>
<polygon fill="#000000" stroke="#000000" points="340.4507,-760.7434 347.2005,-752.5769 336.8312,-754.7518 340.4507,-760.7434"/>
</g>
<!-- slam -->
<g id="node3" class="node">
<title>slam</title>
<g id="a_node3"><a xlink:href="group_mrpt_slam_grp.html" xlink:title="mrpt&#45;slam">
<polygon fill="#d0d0d0" stroke="#000000" points="508,-756 434,-756 434,-720 508,-720 508,-756"/>
<text text-anchor="middle" x="471" y="-734.3" font-family="Times,serif" font-size="14.00" fill="#000000">mrpt&#45;slam</text>
</a>
</g>
</g>
<!-- apps&#45;&gt;slam -->
<g id="edge2" class="edge">
<title>apps&#45;&gt;slam</title>
<path fill="none" stroke="#000000" d="M398.1962,-940.6287C441.2543,-922.5223 511.0644,-885.6803 541,-828 548.3704,-813.7987 548.0581,-806.3591 541,-792 535.1766,-780.1528 525.3649,-770.171 514.9022,-762.1383"/>
<polygon fill="#000000" stroke="#000000" points="516.6129,-759.0601 506.4354,-756.1158 512.5555,-764.7642 516.6129,-759.0601"/>
</g>
<!-- hwdrivers -->
<g id="node4" class="node">
<title>hwdrivers</title>
<g id="a_node4"><a xlink:href="group_mrpt_hwdrivers_grp.html" xlink:title="mrpt&#45;hwdrivers">
<polygon fill="#d0d0d0" stroke="#000000" points="257.5,-828 156.5,-828 156.5,-792 257.5,-792 257.5,-828"/>
<text text-anchor="middle" x="207" y="-806.3" font-family="Times,serif" font-size="14.00" fill="#000000">mrpt&#45;hwdrivers</text>
</a>
</g>
</g>
<!-- apps&#45;&gt;hwdrivers -->
<g id="edge3" class="edge">
<title>apps&#45;&gt;hwdrivers</title>
<path fill="none" stroke="#000000" d="M325.9835,-936.7586C308.541,-927.3666 287.9709,-914.667 272,-900 251.9017,-881.5426 234.1533,-855.9738 222.3027,-836.8046"/>
<polygon fill="#000000" stroke="#000000" points="225.2933,-834.9861 217.1302,-828.2323 219.2998,-838.6026 225.2933,-834.9861"/>
</g>
<!-- graphslam -->
<g id="node5" class="node">
<title>graphslam</title>
<g id="a_node5"><a xlink:href="group_mrpt_graphslam_grp.html" xlink:title="mrpt&#45;graphslam">
<polygon fill="#d0d0d0" stroke="#000000" points="418,-828 314,-828 314,-792 418,-792 418,-828"/>
<text text-anchor="middle" x="366" y="-806.3" font-family="Times,serif" font-size="14.00" fill="#000000">mrpt&#45;graphslam</text>
</a>
</g>
</g>
<!-- apps&#45;&gt;graphslam -->
<g id="edge4" class="edge">
<title>apps&#45;&gt;graphslam</title>
<path fill="none" stroke="#000000" d="M389.4894,-935.7646C400.8848,-926.5451 412.8597,-914.2754 419,-900 425.3221,-885.302 425.0538,-878.8105 419,-864 414.5408,-853.0907 406.6975,-843.1954 398.3897,-834.9434"/>
<polygon fill="#000000" stroke="#000000" points="400.7552,-832.3637 391.0428,-828.1305 395.9955,-837.4965 400.7552,-832.3637"/>
</g>
<!-- hmtslam -->
<g id="node6" class="node">
<title>hmtslam</title>
<g id="a_node6"><a xlink:href="group_mrpt_hmtslam_grp.html" xlink:title="mrpt&#45;hmtslam">
<polygon fill="#d0d0d0" stroke="#000000" points="409.5,-900 314.5,-900 314.5,-864 409.5,-864 409.5,-900"/>
<text text-anchor="middle" x="362" y="-878.3" font-family="Times,serif" font-size="14.00" fill="#000000">mrpt&#45;hmtslam</text>
</a>
</g>
</g>
<!-- apps&#45;&gt;hmtslam -->
<g id="edge5" class="edge">
<title>apps&#45;&gt;hmtslam</title>
<path fill="none" stroke="#000000" d="M362,-935.8314C362,-928.131 362,-918.9743 362,-910.4166"/>
<polygon fill="#000000" stroke="#000000" points="365.5001,-910.4132 362,-900.4133 358.5001,-910.4133 365.5001,-910.4132"/>
</g>
<!-- opengl -->
<g id="node19" class="node">
<title>opengl</title>
<g id="a_node19"><a xlink:href="group_mrpt_opengl_grp.html" xlink:title="mrpt&#45;opengl">
<polygon fill="#d0d0d0" stroke="#000000" points="274,-540 190,-540 190,-504 274,-504 274,-540"/>
<text text-anchor="middle" x="232" y="-518.3" font-family="Times,serif" font-size="14.00" fill="#000000">mrpt&#45;opengl</text>
</a>
</g>
</g>
<!-- gui&#45;&gt;opengl -->
<g id="edge19" class="edge">
<title>gui&#45;&gt;opengl</title>
<path fill="none" stroke="#000000" d="M350.3886,-719.9556C337.1233,-710.6197 322.2047,-698.201 312,-684 282.2192,-642.5567 297.3759,-620.8359 273,-576 267.7712,-566.3824 260.9306,-556.626 254.3392,-548.101"/>
<polygon fill="#000000" stroke="#000000" points="256.8749,-545.6674 247.8999,-540.0371 251.4049,-550.0354 256.8749,-545.6674"/>
</g>
<!-- maps -->
<g id="node20" class="node">
<title>maps</title>
<g id="a_node20"><a xlink:href="group_mrpt_maps_grp.html" xlink:title="mrpt&#45;maps">
<polygon fill="#d0d0d0" stroke="#000000" points="262.5,-684 185.5,-684 185.5,-648 262.5,-648 262.5,-684"/>
<text text-anchor="middle" x="224" y="-662.3" font-family="Times,serif" font-size="14.00" fill="#000000">mrpt&#45;maps</text>
</a>
</g>
</g>
<!-- slam&#45;&gt;maps -->
<g id="edge46" class="edge">
<title>slam&#45;&gt;maps</title>
<path fill="none" stroke="#000000" d="M433.9274,-724.0018C429.9181,-722.6016 425.8849,-721.2408 422,-720 371.4672,-703.8604 312.7424,-688.2292 272.4456,-677.974"/>
<polygon fill="#000000" stroke="#000000" points="273.1671,-674.5463 262.614,-675.4855 271.4494,-681.3323 273.1671,-674.5463"/>
</g>
<!-- vision -->
<g id="node21" class="node">
<title>vision</title>
<g id="a_node21"><a xlink:href="group_mrpt_vision_grp.html" xlink:title="mrpt&#45;vision">
<polygon fill="#d0d0d0" stroke="#000000" points="529,-684 449,-684 449,-648 529,-648 529,-684"/>
<text text-anchor="middle" x="489" y="-662.3" font-family="Times,serif" font-size="14.00" fill="#000000">mrpt&#45;vision</text>
</a>
</g>
</g>
<!-- slam&#45;&gt;vision -->
<g id="edge47" class="edge">
<title>slam&#45;&gt;vision</title>
<path fill="none" stroke="#000000" d="M475.5422,-719.8314C477.4884,-712.0463 479.8068,-702.7729 481.9663,-694.1347"/>
<polygon fill="#000000" stroke="#000000" points="485.3668,-694.9636 484.3967,-684.4133 478.5758,-693.2658 485.3668,-694.9636"/>
</g>
<!-- hwdrivers&#45;&gt;gui -->
<g id="edge22" class="edge">
<title>hwdrivers&#45;&gt;gui</title>
<path fill="none" stroke="#000000" d="M250.6552,-791.8314C277.4,-780.7006 311.4554,-766.5272 337.908,-755.5181"/>
<polygon fill="#000000" stroke="#000000" points="339.3946,-758.6905 347.2821,-751.6167 336.7049,-752.2278 339.3946,-758.6905"/>
</g>
<!-- comms -->
<g id="node10" class="node">
<title>comms</title>
<g id="a_node10"><a xlink:href="group_mrpt_comms_grp.html" xlink:title="mrpt&#45;comms">
<polygon fill="#d0d0d0" stroke="#000000" points="88,-468 0,-468 0,-432 88,-432 88,-468"/>
<text text-anchor="middle" x="44" y="-446.3" font-family="Times,serif" font-size="14.00" fill="#000000">mrpt&#45;comms</text>
</a>
</g>
</g>
<!-- hwdrivers&#45;&gt;comms -->
<g id="edge21" class="edge">
<title>hwdrivers&#45;&gt;comms</title>
<path fill="none" stroke="#000000" d="M156.3494,-804.6653C122.3245,-798.4585 78.9437,-785.0336 52,-756 23.8398,-725.6556 28,-707.3978 28,-666 28,-666 28,-666 28,-594 28,-553.6291 34.2888,-507.2789 38.9811,-478.3146"/>
<polygon fill="#000000" stroke="#000000" points="42.4895,-478.5537 40.6848,-468.1137 35.5852,-477.4004 42.4895,-478.5537"/>
</g>
<!-- hwdrivers&#45;&gt;maps -->
<g id="edge23" class="edge">
<title>hwdrivers&#45;&gt;maps</title>
<path fill="none" stroke="#000000" d="M193.2271,-791.9503C181.0618,-773.6928 166.6032,-744.7154 176,-720 180.0272,-709.4076 187.19,-699.5662 194.7737,-691.2649"/>
<polygon fill="#000000" stroke="#000000" points="197.2926,-693.695 201.7787,-684.0968 192.2862,-688.8025 197.2926,-693.695"/>
</g>
<!-- hwdrivers&#45;&gt;vision -->
<g id="edge24" class="edge">
<title>hwdrivers&#45;&gt;vision</title>
<path fill="none" stroke="#000000" d="M241.7527,-791.9238C259.4624,-782.1425 280.9999,-769.3487 299,-756 317.9475,-741.9488 317.7961,-732.1756 338,-720 376.6017,-696.7372 392.7204,-699.7678 439.1896,-684.1598"/>
<polygon fill="#000000" stroke="#000000" points="440.6114,-687.3709 448.9038,-680.7764 438.309,-680.7604 440.6114,-687.3709"/>
</g>
<!-- graphslam&#45;&gt;gui -->
<g id="edge17" class="edge">
<title>graphslam&#45;&gt;gui</title>
<path fill="none" stroke="#000000" d="M369.5328,-791.8314C371.0301,-784.131 372.8105,-774.9743 374.4745,-766.4166"/>
<polygon fill="#000000" stroke="#000000" points="377.9465,-766.8975 376.4196,-756.4133 371.0752,-765.5614 377.9465,-766.8975"/>
</g>
<!-- graphslam&#45;&gt;slam -->
<g id="edge18" class="edge">
<title>graphslam&#45;&gt;slam</title>
<path fill="none" stroke="#000000" d="M392.4959,-791.8314C405.6774,-782.7927 421.7847,-771.7476 435.9711,-762.0198"/>
<polygon fill="#000000" stroke="#000000" points="438.2446,-764.7047 444.5125,-756.1628 434.2859,-758.9316 438.2446,-764.7047"/>
</g>
<!-- hmtslam&#45;&gt;graphslam -->
<g id="edge20" class="edge">
<title>hmtslam&#45;&gt;graphslam</title>
<path fill="none" stroke="#000000" d="M363.0094,-863.8314C363.4372,-856.131 363.9459,-846.9743 364.4213,-838.4166"/>
<polygon fill="#000000" stroke="#000000" points="367.9169,-838.592 364.977,-828.4133 360.9276,-838.2037 367.9169,-838.592"/>
</g>
<!-- bayes -->
<g id="node7" class="node">
<title>bayes</title>
<g id="a_node7"><a xlink:href="group_mrpt_bayes_grp.html" xlink:title="mrpt&#45;bayes">
<polygon fill="#d0d0d0" stroke="#000000" points="342,-396 264,-396 264,-360 342,-360 342,-396"/>
<text text-anchor="middle" x="303" y="-374.3" font-family="Times,serif" font-size="14.00" fill="#000000">mrpt&#45;bayes</text>
</a>
</g>
</g>
<!-- math -->
<g id="node8" class="node">
<title>math</title>
<g id="a_node8"><a xlink:href="group_mrpt_math_grp.html" xlink:title="mrpt&#45;math">
<polygon fill="#d0d0d0" stroke="#000000" points="335.5,-252 260.5,-252 260.5,-216 335.5,-216 335.5,-252"/>
<text text-anchor="middle" x="298" y="-230.3" font-family="Times,serif" font-size="14.00" fill="#000000">mrpt&#45;math</text>
</a>
</g>
</g>
<!-- bayes&#45;&gt;math -->
<g id="edge6" class="edge">
<title>bayes&#45;&gt;math</title>
<path fill="none" stroke="#000000" d="M302.3667,-359.7623C301.5139,-335.201 299.9878,-291.2474 298.9845,-262.3541"/>
<polygon fill="#000000" stroke="#000000" points="302.4731,-261.9621 298.6281,-252.0896 295.4773,-262.2051 302.4731,-261.9621"/>
</g>
<!-- config -->
<g id="node9" class="node">
<title>config</title>
<g id="a_node9"><a xlink:href="group_mrpt_config_grp.html" xlink:title="mrpt&#45;config">
<polygon fill="#d0d0d0" stroke="#000000" points="241,-324 159,-324 159,-288 241,-288 241,-324"/>
<text text-anchor="middle" x="200" y="-302.3" font-family="Times,serif" font-size="14.00" fill="#000000">mrpt&#45;config</text>
</a>
</g>
</g>
<!-- bayes&#45;&gt;config -->
<g id="edge7" class="edge">
<title>bayes&#45;&gt;config</title>
<path fill="none" stroke="#000000" d="M277.0088,-359.8314C264.0784,-350.7927 248.2778,-339.7476 234.3617,-330.0198"/>
<polygon fill="#000000" stroke="#000000" points="236.1843,-327.0235 225.9829,-324.1628 232.1737,-332.7608 236.1843,-327.0235"/>
</g>
<!-- system -->
<g id="node13" class="node">
<title>system</title>
<g id="a_node13"><a xlink:href="group_mrpt_system_grp.html" xlink:title="mrpt&#45;system">
<polygon fill="#d0d0d0" stroke="#000000" points="204,-180 118,-180 118,-144 204,-144 204,-180"/>
<text text-anchor="middle" x="161" y="-158.3" font-family="Times,serif" font-size="14.00" fill="#000000">mrpt&#45;system</text>
</a>
</g>
</g>
<!-- math&#45;&gt;system -->
<g id="edge34" class="edge">
<title>math&#45;&gt;system</title>
<path fill="none" stroke="#000000" d="M263.4291,-215.8314C245.5815,-206.4516 223.6226,-194.9112 204.62,-184.9244"/>
<polygon fill="#000000" stroke="#000000" points="206.0401,-181.7168 195.5598,-180.1628 202.7836,-187.9132 206.0401,-181.7168"/>
</g>
<!-- serialization -->
<g id="node25" class="node">
<title>serialization</title>
<g id="a_node25"><a xlink:href="group_mrpt_serialization_grp.html" xlink:title="mrpt&#45;serialization">
<polygon fill="#d0d0d0" stroke="#000000" points="344.5,-180 231.5,-180 231.5,-144 344.5,-144 344.5,-180"/>
<text text-anchor="middle" x="288" y="-158.3" font-family="Times,serif" font-size="14.00" fill="#000000">mrpt&#45;serialization</text>
</a>
</g>
</g>
<!-- math&#45;&gt;serialization -->
<g id="edge32" class="edge">
<title>math&#45;&gt;serialization</title>
<path fill="none" stroke="#000000" d="M295.4766,-215.8314C294.4071,-208.131 293.1353,-198.9743 291.9468,-190.4166"/>
<polygon fill="#000000" stroke="#000000" points="295.3999,-189.8367 290.5574,-180.4133 288.4664,-190.7997 295.3999,-189.8367"/>
</g>
<!-- random -->
<g id="node26" class="node">
<title>random</title>
<g id="a_node26"><a xlink:href="group_mrpt_random_grp.html" xlink:title="mrpt&#45;random">
<polygon fill="#d0d0d0" stroke="#000000" points="423.5,-36 334.5,-36 334.5,0 423.5,0 423.5,-36"/>
<text text-anchor="middle" x="379" y="-14.3" font-family="Times,serif" font-size="14.00" fill="#000000">mrpt&#45;random</text>
</a>
</g>
</g>
<!-- math&#45;&gt;random -->
<g id="edge33" class="edge">
<title>math&#45;&gt;random</title>
<path fill="none" stroke="#000000" d="M322.6805,-215.8306C333.7081,-206.3846 345.8139,-193.9099 353,-180 375.1792,-137.0687 379.3809,-79.8981 379.6918,-46.2117"/>
<polygon fill="#000000" stroke="#000000" points="383.1918,-46.1412 379.6739,-36.1475 376.1918,-46.1538 383.1918,-46.1412"/>
</g>
<!-- expr -->
<g id="node12" class="node">
<title>expr</title>
<g id="a_node12"><a xlink:href="group_mrpt_expr_grp.html" xlink:title="mrpt&#45;expr">
<polygon fill="#d0d0d0" stroke="#000000" points="242.5,-252 171.5,-252 171.5,-216 242.5,-216 242.5,-252"/>
<text text-anchor="middle" x="207" y="-230.3" font-family="Times,serif" font-size="14.00" fill="#000000">mrpt&#45;expr</text>
</a>
</g>
</g>
<!-- config&#45;&gt;expr -->
<g id="edge9" class="edge">
<title>config&#45;&gt;expr</title>
<path fill="none" stroke="#000000" d="M201.7664,-287.8314C202.515,-280.131 203.4053,-270.9743 204.2373,-262.4166"/>
<polygon fill="#000000" stroke="#000000" points="207.7256,-262.7051 205.2098,-252.4133 200.7585,-262.0276 207.7256,-262.7051"/>
</g>
<!-- config&#45;&gt;system -->
<g id="edge10" class="edge">
<title>config&#45;&gt;system</title>
<path fill="none" stroke="#000000" d="M182.7981,-287.5564C174.8384,-277.775 166.2248,-265.0915 162,-252 155.5715,-232.0795 155.5968,-208.3636 157.082,-190.2788"/>
<polygon fill="#000000" stroke="#000000" points="160.5882,-190.3951 158.1189,-180.092 153.6242,-189.6862 160.5882,-190.3951"/>
</g>
<!-- io -->
<g id="node11" class="node">
<title>io</title>
<g id="a_node11"><a xlink:href="group_mrpt_io_grp.html" xlink:title="mrpt&#45;io">
<polygon fill="#d0d0d0" stroke="#000000" points="134,-324 76,-324 76,-288 134,-288 134,-324"/>
<text text-anchor="middle" x="105" y="-302.3" font-family="Times,serif" font-size="14.00" fill="#000000">mrpt&#45;io</text>
</a>
</g>
</g>
<!-- comms&#45;&gt;io -->
<g id="edge8" class="edge">
<title>comms&#45;&gt;io</title>
<path fill="none" stroke="#000000" d="M51.7257,-431.7623C62.2218,-406.9846 81.0781,-362.4714 93.3109,-333.5939"/>
<polygon fill="#000000" stroke="#000000" points="96.6592,-334.6628 97.337,-324.0896 90.2136,-331.9323 96.6592,-334.6628"/>
</g>
<!-- io&#45;&gt;system -->
<g id="edge28" class="edge">
<title>io&#45;&gt;system</title>
<path fill="none" stroke="#000000" d="M112.0924,-287.7623C121.7282,-262.9846 139.0389,-218.4714 150.269,-189.5939"/>
<polygon fill="#000000" stroke="#000000" points="153.6026,-190.6783 153.9651,-180.0896 147.0786,-188.1411 153.6026,-190.6783"/>
</g>
<!-- expr&#45;&gt;system -->
<g id="edge15" class="edge">
<title>expr&#45;&gt;system</title>
<path fill="none" stroke="#000000" d="M195.3923,-215.8314C190.2022,-207.7079 183.9768,-197.9637 178.2575,-189.0118"/>
<polygon fill="#000000" stroke="#000000" points="181.0974,-186.9559 172.764,-180.4133 175.1985,-190.7246 181.0974,-186.9559"/>
</g>
<!-- containers -->
<g id="node14" class="node">
<title>containers</title>
<g id="a_node14"><a xlink:href="group_mrpt_containers_grp.html" xlink:title="mrpt&#45;containers">
<polygon fill="#d0d0d0" stroke="#000000" points="235.5,-108 132.5,-108 132.5,-72 235.5,-72 235.5,-108"/>
<text text-anchor="middle" x="184" y="-86.3" font-family="Times,serif" font-size="14.00" fill="#000000">mrpt&#45;containers</text>
</a>
</g>
</g>
<!-- system&#45;&gt;containers -->
<g id="edge49" class="edge">
<title>system&#45;&gt;containers</title>
<path fill="none" stroke="#000000" d="M166.8039,-143.8314C169.2908,-136.0463 172.2531,-126.7729 175.0125,-118.1347"/>
<polygon fill="#000000" stroke="#000000" points="178.409,-119.0041 178.118,-108.4133 171.7409,-116.874 178.409,-119.0041"/>
</g>
<!-- typemeta -->
<g id="node16" class="node">
<title>typemeta</title>
<g id="a_node16"><a xlink:href="group_mrpt_typemeta_grp.html" xlink:title="mrpt&#45;typemeta (.h)">
<polygon fill="#d0d0d0" stroke="#000000" points="227.5,-36 106.5,-36 106.5,0 227.5,0 227.5,-36"/>
<text text-anchor="middle" x="167" y="-14.3" font-family="Times,serif" font-size="14.00" fill="#000000">mrpt&#45;typemeta (.h)</text>
</a>
</g>
</g>
<!-- system&#45;&gt;typemeta -->
<g id="edge48" class="edge">
<title>system&#45;&gt;typemeta</title>
<path fill="none" stroke="#000000" d="M143.7365,-143.5761C135.7611,-133.7997 127.152,-121.1148 123,-108 118.1708,-92.7462 117.6362,-87.0742 123,-72 126.5878,-61.9169 132.9535,-52.3517 139.7476,-44.1515"/>
<polygon fill="#000000" stroke="#000000" points="142.5747,-46.2389 146.5974,-36.4375 137.3404,-41.591 142.5747,-46.2389"/>
</g>
<!-- core -->
<g id="node15" class="node">
<title>core</title>
<g id="a_node15"><a xlink:href="group_mrpt_core_grp.html" xlink:title="mrpt&#45;core">
<polygon fill="#d0d0d0" stroke="#000000" points="316.5,-36 245.5,-36 245.5,0 316.5,0 316.5,-36"/>
<text text-anchor="middle" x="281" y="-14.3" font-family="Times,serif" font-size="14.00" fill="#000000">mrpt&#45;core</text>
</a>
</g>
</g>
<!-- containers&#45;&gt;core -->
<g id="edge11" class="edge">
<title>containers&#45;&gt;core</title>
<path fill="none" stroke="#000000" d="M208.4772,-71.8314C220.5395,-62.8779 235.254,-51.9558 248.2686,-42.2955"/>
<polygon fill="#000000" stroke="#000000" points="250.587,-44.9335 256.5306,-36.1628 246.4148,-39.3127 250.587,-44.9335"/>
</g>
<!-- containers&#45;&gt;typemeta -->
<g id="edge12" class="edge">
<title>containers&#45;&gt;typemeta</title>
<path fill="none" stroke="#000000" d="M179.7102,-71.8314C177.892,-64.131 175.7301,-54.9743 173.7095,-46.4166"/>
<polygon fill="#000000" stroke="#000000" points="177.0519,-45.3414 171.3476,-36.4133 170.2392,-46.95 177.0519,-45.3414"/>
</g>
<!-- detectors -->
<g id="node17" class="node">
<title>detectors</title>
<g id="a_node17"><a xlink:href="group_mrpt_detectors_grp.html" xlink:title="mrpt&#45;detectors">
<polygon fill="#d0d0d0" stroke="#000000" points="532,-828 436,-828 436,-792 532,-792 532,-828"/>
<text text-anchor="middle" x="484" y="-806.3" font-family="Times,serif" font-size="14.00" fill="#000000">mrpt&#45;detectors</text>
</a>
</g>
</g>
<!-- detectors&#45;&gt;gui -->
<g id="edge13" class="edge">
<title>detectors&#45;&gt;gui</title>
<path fill="none" stroke="#000000" d="M457.7564,-791.8314C444.7005,-782.7927 428.7465,-771.7476 414.6953,-762.0198"/>
<polygon fill="#000000" stroke="#000000" points="416.4494,-758.9773 406.2352,-756.1628 412.4649,-764.7326 416.4494,-758.9773"/>
</g>
<!-- detectors&#45;&gt;slam -->
<g id="edge14" class="edge">
<title>detectors&#45;&gt;slam</title>
<path fill="none" stroke="#000000" d="M480.7196,-791.8314C479.3292,-784.131 477.6759,-774.9743 476.1308,-766.4166"/>
<polygon fill="#000000" stroke="#000000" points="479.5458,-765.6322 474.3246,-756.4133 472.6572,-766.8761 479.5458,-765.6322"/>
</g>
<!-- graphs -->
<g id="node18" class="node">
<title>graphs</title>
<g id="a_node18"><a xlink:href="group_mrpt_graphs_grp.html" xlink:title="mrpt&#45;graphs">
<polygon fill="#d0d0d0" stroke="#000000" points="264.5,-612 181.5,-612 181.5,-576 264.5,-576 264.5,-612"/>
<text text-anchor="middle" x="223" y="-590.3" font-family="Times,serif" font-size="14.00" fill="#000000">mrpt&#45;graphs</text>
</a>
</g>
</g>
<!-- graphs&#45;&gt;opengl -->
<g id="edge16" class="edge">
<title>graphs&#45;&gt;opengl</title>
<path fill="none" stroke="#000000" d="M225.2711,-575.8314C226.2336,-568.131 227.3782,-558.9743 228.4479,-550.4166"/>
<polygon fill="#000000" stroke="#000000" points="231.9309,-550.7702 229.6983,-540.4133 224.9849,-549.9019 231.9309,-550.7702"/>
</g>
<!-- img -->
<g id="node22" class="node">
<title>img</title>
<g id="a_node22"><a xlink:href="group_mrpt_img_grp.html" xlink:title="mrpt&#45;img">
<polygon fill="#d0d0d0" stroke="#000000" points="238.5,-396 169.5,-396 169.5,-360 238.5,-360 238.5,-396"/>
<text text-anchor="middle" x="204" y="-374.3" font-family="Times,serif" font-size="14.00" fill="#000000">mrpt&#45;img</text>
</a>
</g>
</g>
<!-- opengl&#45;&gt;img -->
<g id="edge40" class="edge">
<title>opengl&#45;&gt;img</title>
<path fill="none" stroke="#000000" d="M228.4538,-503.7623C223.6569,-479.0928 215.0561,-434.8598 209.4392,-405.9731"/>
<polygon fill="#000000" stroke="#000000" points="212.8619,-405.2377 207.5174,-396.0896 205.9905,-406.5738 212.8619,-405.2377"/>
</g>
<!-- poses -->
<g id="node29" class="node">
<title>poses</title>
<g id="a_node29"><a xlink:href="group_mrpt_poses_grp.html" xlink:title="mrpt&#45;poses">
<polygon fill="#d0d0d0" stroke="#000000" points="341.5,-468 264.5,-468 264.5,-432 341.5,-432 341.5,-468"/>
<text text-anchor="middle" x="303" y="-446.3" font-family="Times,serif" font-size="14.00" fill="#000000">mrpt&#45;poses</text>
</a>
</g>
</g>
<!-- opengl&#45;&gt;poses -->
<g id="edge39" class="edge">
<title>opengl&#45;&gt;poses</title>
<path fill="none" stroke="#000000" d="M249.9163,-503.8314C258.3442,-495.2848 268.541,-484.9443 277.736,-475.6198"/>
<polygon fill="#000000" stroke="#000000" points="280.3131,-477.9912 284.8425,-468.4133 275.3289,-473.0761 280.3131,-477.9912"/>
</g>
<!-- maps&#45;&gt;graphs -->
<g id="edge30" class="edge">
<title>maps&#45;&gt;graphs</title>
<path fill="none" stroke="#000000" d="M223.7477,-647.8314C223.6407,-640.131 223.5135,-630.9743 223.3947,-622.4166"/>
<polygon fill="#000000" stroke="#000000" points="226.8944,-622.3637 223.2557,-612.4133 219.8951,-622.4609 226.8944,-622.3637"/>
</g>
<!-- obs -->
<g id="node24" class="node">
<title>obs</title>
<g id="a_node24"><a xlink:href="group_mrpt_obs_grp.html" xlink:title="mrpt&#45;obs">
<polygon fill="#d0d0d0" stroke="#000000" points="387,-612 321,-612 321,-576 387,-576 387,-612"/>
<text text-anchor="middle" x="354" y="-590.3" font-family="Times,serif" font-size="14.00" fill="#000000">mrpt&#45;obs</text>
</a>
</g>
</g>
<!-- maps&#45;&gt;obs -->
<g id="edge31" class="edge">
<title>maps&#45;&gt;obs</title>
<path fill="none" stroke="#000000" d="M256.8045,-647.8314C273.5862,-638.5368 294.1985,-627.1208 312.1163,-617.1971"/>
<polygon fill="#000000" stroke="#000000" points="314.1538,-620.0696 321.206,-612.1628 310.7623,-613.9461 314.1538,-620.0696"/>
</g>
<!-- vision&#45;&gt;obs -->
<g id="edge52" class="edge">
<title>vision&#45;&gt;obs</title>
<path fill="none" stroke="#000000" d="M454.9338,-647.8314C437.0782,-638.3084 415.0468,-626.5583 396.1276,-616.4681"/>
<polygon fill="#000000" stroke="#000000" points="397.5926,-613.2827 387.1219,-611.665 394.2984,-619.4592 397.5926,-613.2827"/>
</g>
<!-- img&#45;&gt;math -->
<g id="edge26" class="edge">
<title>img&#45;&gt;math</title>
<path fill="none" stroke="#000000" d="M221.2228,-359.803C230.3445,-349.6869 241.4055,-336.623 250,-324 263.6011,-304.0236 276.342,-279.7686 285.2745,-261.474"/>
<polygon fill="#000000" stroke="#000000" points="288.5315,-262.7768 289.7045,-252.2471 282.2211,-259.747 288.5315,-262.7768"/>
</g>
<!-- img&#45;&gt;config -->
<g id="edge27" class="edge">
<title>img&#45;&gt;config</title>
<path fill="none" stroke="#000000" d="M202.9906,-359.8314C202.5628,-352.131 202.0541,-342.9743 201.5787,-334.4166"/>
<polygon fill="#000000" stroke="#000000" points="205.0724,-334.2037 201.023,-324.4133 198.0831,-334.592 205.0724,-334.2037"/>
</g>
<!-- img&#45;&gt;io -->
<g id="edge25" class="edge">
<title>img&#45;&gt;io</title>
<path fill="none" stroke="#000000" d="M179.0181,-359.8314C166.7072,-350.8779 151.6893,-339.9558 138.4063,-330.2955"/>
<polygon fill="#000000" stroke="#000000" points="140.1199,-327.214 129.9739,-324.1628 136.0027,-332.8752 140.1199,-327.214"/>
</g>
<!-- kinematics -->
<g id="node23" class="node">
<title>kinematics</title>
<g id="a_node23"><a xlink:href="group_mrpt_kinematics_grp.html" xlink:title="mrpt&#45;kinematics">
<polygon fill="#d0d0d0" stroke="#000000" points="163.5,-612 56.5,-612 56.5,-576 163.5,-576 163.5,-612"/>
<text text-anchor="middle" x="110" y="-590.3" font-family="Times,serif" font-size="14.00" fill="#000000">mrpt&#45;kinematics</text>
</a>
</g>
</g>
<!-- kinematics&#45;&gt;opengl -->
<g id="edge29" class="edge">
<title>kinematics&#45;&gt;opengl</title>
<path fill="none" stroke="#000000" d="M140.7858,-575.8314C156.3903,-566.6221 175.524,-555.3301 192.2303,-545.4706"/>
<polygon fill="#000000" stroke="#000000" points="194.3909,-548.2596 201.2241,-540.1628 190.8331,-542.2312 194.3909,-548.2596"/>
</g>
<!-- obs&#45;&gt;opengl -->
<g id="edge37" class="edge">
<title>obs&#45;&gt;opengl</title>
<path fill="none" stroke="#000000" d="M323.2142,-575.8314C307.6097,-566.6221 288.476,-555.3301 271.7697,-545.4706"/>
<polygon fill="#000000" stroke="#000000" points="273.1669,-542.2312 262.7759,-540.1628 269.6091,-548.2596 273.1669,-542.2312"/>
</g>
<!-- tfest -->
<g id="node28" class="node">
<title>tfest</title>
<g id="a_node28"><a xlink:href="group_mrpt_tfest_grp.html" xlink:title="mrpt&#45;tfest">
<polygon fill="#d0d0d0" stroke="#000000" points="380.5,-540 309.5,-540 309.5,-504 380.5,-504 380.5,-540"/>
<text text-anchor="middle" x="345" y="-518.3" font-family="Times,serif" font-size="14.00" fill="#000000">mrpt&#45;tfest</text>
</a>
</g>
</g>
<!-- obs&#45;&gt;tfest -->
<g id="edge38" class="edge">
<title>obs&#45;&gt;tfest</title>
<path fill="none" stroke="#000000" d="M351.7289,-575.8314C350.7664,-568.131 349.6218,-558.9743 348.5521,-550.4166"/>
<polygon fill="#000000" stroke="#000000" points="352.0151,-549.9019 347.3017,-540.4133 345.0691,-550.7702 352.0151,-549.9019"/>
</g>
<!-- rtti -->
<g id="node30" class="node">
<title>rtti</title>
<g id="a_node30"><a xlink:href="group_mrpt_rtti_grp.html" xlink:title="mrpt&#45;rtti">
<polygon fill="#d0d0d0" stroke="#000000" points="316.5,-108 253.5,-108 253.5,-72 316.5,-72 316.5,-108"/>
<text text-anchor="middle" x="285" y="-86.3" font-family="Times,serif" font-size="14.00" fill="#000000">mrpt&#45;rtti</text>
</a>
</g>
</g>
<!-- serialization&#45;&gt;rtti -->
<g id="edge45" class="edge">
<title>serialization&#45;&gt;rtti</title>
<path fill="none" stroke="#000000" d="M287.243,-143.8314C286.9221,-136.131 286.5406,-126.9743 286.184,-118.4166"/>
<polygon fill="#000000" stroke="#000000" points="289.6806,-118.2589 285.7672,-108.4133 282.6867,-118.5503 289.6806,-118.2589"/>
</g>
<!-- nav -->
<g id="node27" class="node">
<title>nav</title>
<g id="a_node27"><a xlink:href="group_mrpt_nav_grp.html" xlink:title="mrpt&#45;nav">
<polygon fill="#d0d0d0" stroke="#000000" points="128.5,-756 61.5,-756 61.5,-720 128.5,-720 128.5,-756"/>
<text text-anchor="middle" x="95" y="-734.3" font-family="Times,serif" font-size="14.00" fill="#000000">mrpt&#45;nav</text>
</a>
</g>
</g>
<!-- nav&#45;&gt;maps -->
<g id="edge36" class="edge">
<title>nav&#45;&gt;maps</title>
<path fill="none" stroke="#000000" d="M127.5521,-719.8314C144.2048,-710.5368 164.6585,-699.1208 182.4385,-689.1971"/>
<polygon fill="#000000" stroke="#000000" points="184.4321,-692.0927 191.4583,-684.1628 181.0205,-685.9803 184.4321,-692.0927"/>
</g>
<!-- nav&#45;&gt;kinematics -->
<g id="edge35" class="edge">
<title>nav&#45;&gt;kinematics</title>
<path fill="none" stroke="#000000" d="M96.8998,-719.7623C99.4582,-695.201 104.0367,-651.2474 107.0465,-622.3541"/>
<polygon fill="#000000" stroke="#000000" points="110.5607,-622.3985 108.1157,-612.0896 103.5984,-621.6731 110.5607,-622.3985"/>
</g>
<!-- tfest&#45;&gt;poses -->
<g id="edge50" class="edge">
<title>tfest&#45;&gt;poses</title>
<path fill="none" stroke="#000000" d="M334.4016,-503.8314C329.7123,-495.7925 324.0972,-486.1666 318.9202,-477.2918"/>
<polygon fill="#000000" stroke="#000000" points="321.8031,-475.2875 313.7411,-468.4133 315.7566,-478.8146 321.8031,-475.2875"/>
</g>
<!-- poses&#45;&gt;bayes -->
<g id="edge41" class="edge">
<title>poses&#45;&gt;bayes</title>
<path fill="none" stroke="#000000" d="M303,-431.8314C303,-424.131 303,-414.9743 303,-406.4166"/>
<polygon fill="#000000" stroke="#000000" points="306.5001,-406.4132 303,-396.4133 299.5001,-406.4133 306.5001,-406.4132"/>
</g>
<!-- rtti&#45;&gt;core -->
<g id="edge42" class="edge">
<title>rtti&#45;&gt;core</title>
<path fill="none" stroke="#000000" d="M283.9906,-71.8314C283.5628,-64.131 283.0541,-54.9743 282.5787,-46.4166"/>
<polygon fill="#000000" stroke="#000000" points="286.0724,-46.2037 282.023,-36.4133 279.0831,-46.592 286.0724,-46.2037"/>
</g>
<!-- rtti&#45;&gt;typemeta -->
<g id="edge43" class="edge">
<title>rtti&#45;&gt;typemeta</title>
<path fill="none" stroke="#000000" d="M255.2236,-71.8314C240.1307,-62.6221 221.6243,-51.3301 205.4657,-41.4706"/>
<polygon fill="#000000" stroke="#000000" points="207.1263,-38.3838 196.7669,-36.1628 203.4802,-44.3593 207.1263,-38.3838"/>
</g>
<!-- ros1bridge -->
<g id="node31" class="node">
<title>ros1bridge</title>
<g id="a_node31"><a xlink:href="group_mrpt_ros1bridge_grp.html" xlink:title="mrpt&#45;ros1bridge">
<polygon fill="#d0d0d0" stroke="#000000" points="290.5,-756 185.5,-756 185.5,-720 290.5,-720 290.5,-756"/>
<text text-anchor="middle" x="238" y="-734.3" font-family="Times,serif" font-size="14.00" fill="#000000">mrpt&#45;ros1bridge</text>
</a>
</g>
</g>
<!-- ros1bridge&#45;&gt;maps -->
<g id="edge44" class="edge">
<title>ros1bridge&#45;&gt;maps</title>
<path fill="none" stroke="#000000" d="M234.4672,-719.8314C232.9699,-712.131 231.1895,-702.9743 229.5255,-694.4166"/>
<polygon fill="#000000" stroke="#000000" points="232.9248,-693.5614 227.5804,-684.4133 226.0535,-694.8975 232.9248,-693.5614"/>
</g>
<!-- topography -->
<g id="node32" class="node">
<title>topography</title>
<g id="a_node32"><a xlink:href="group_mrpt_topography_grp.html" xlink:title="mrpt&#45;topography">
<polygon fill="#d0d0d0" stroke="#000000" points="430.5,-684 321.5,-684 321.5,-648 430.5,-648 430.5,-684"/>
<text text-anchor="middle" x="376" y="-662.3" font-family="Times,serif" font-size="14.00" fill="#000000">mrpt&#45;topography</text>
</a>
</g>
</g>
<!-- topography&#45;&gt;obs -->
<g id="edge51" class="edge">
<title>topography&#45;&gt;obs</title>
<path fill="none" stroke="#000000" d="M370.4485,-647.8314C368.0697,-640.0463 365.2362,-630.7729 362.5967,-622.1347"/>
<polygon fill="#000000" stroke="#000000" points="365.8958,-620.954 359.6263,-612.4133 359.2013,-622.9996 365.8958,-620.954"/>
</g>
<!-- visionlgpl -->
<g id="node33" class="node">
<title>visionlgpl</title>
<g id="a_node33"><a xlink:href="group_mrpt_vision_lgpl_grp.html" xlink:title="mrpt&#45;vision&#45;lgpl">
<polygon fill="#d0d0d0" stroke="#000000" points="632,-756 526,-756 526,-720 632,-720 632,-756"/>
<text text-anchor="middle" x="579" y="-734.3" font-family="Times,serif" font-size="14.00" fill="#000000">mrpt&#45;vision&#45;lgpl</text>
</a>
</g>
</g>
<!-- visionlgpl&#45;&gt;vision -->
<g id="edge53" class="edge">
<title>visionlgpl&#45;&gt;vision</title>
<path fill="none" stroke="#000000" d="M556.2892,-719.8314C545.204,-710.9632 531.7046,-700.1637 519.7148,-690.5718"/>
<polygon fill="#000000" stroke="#000000" points="521.6987,-687.6768 511.7035,-684.1628 517.3258,-693.1429 521.6987,-687.6768"/>
</g>
</g>
</svg>
