<?xml version="1.0" encoding="UTF-8" standalone="no"?>
<!DOCTYPE svg PUBLIC "-//W3C//DTD SVG 1.1//EN"
 "http://www.w3.org/Graphics/SVG/1.1/DTD/svg11.dtd">
<!-- Generated by graphviz version 2.43.0 (0)
 -->
<!-- Title: MRPT_LIBS Pages: 1 -->
<svg width="539pt" height="980pt"
 viewBox="0.00 0.00 538.50 980.00" xmlns="http://www.w3.org/2000/svg" xmlns:xlink="http://www.w3.org/1999/xlink">
<g id="graph0" class="graph" transform="scale(1 1) rotate(0) translate(4 976)">
<title>MRPT_LIBS</title>
<polygon fill="white" stroke="transparent" points="-4,4 -4,-976 534.5,-976 534.5,4 -4,4"/>
<!-- common -->
<g id="node1" class="node">
<title>common</title>
<g id="a_node1"><a xlink:href="mrpt_common.html" xlink:title="mrpt_common">
<polygon fill="#d0d0d0" stroke="black" points="242.5,-36 144.5,-36 144.5,0 242.5,0 242.5,-36"/>
<text text-anchor="middle" x="193.5" y="-14.3" font-family="Times,serif" font-size="14.00">mrpt_common</text>
</a>
</g>
</g>
<!-- apps_gui -->
<g id="node2" class="node">
<title>apps_gui</title>
<g id="a_node2"><a xlink:href="group_mrpt_apps_gui_grp.html" xlink:title="mrpt_apps_gui">
<polygon fill="#d0d0d0" stroke="black" points="486.5,-972 388.5,-972 388.5,-936 486.5,-936 486.5,-972"/>
<text text-anchor="middle" x="437.5" y="-950.3" font-family="Times,serif" font-size="14.00">mrpt_apps_gui</text>
</a>
</g>
</g>
<!-- apps_cli -->
<g id="node3" class="node">
<title>apps_cli</title>
<g id="a_node3"><a xlink:href="group_mrpt_apps_cli_grp.html" xlink:title="mrpt_apps_cli">
<polygon fill="#d0d0d0" stroke="black" points="436,-900 341,-900 341,-864 436,-864 436,-900"/>
<text text-anchor="middle" x="388.5" y="-878.3" font-family="Times,serif" font-size="14.00">mrpt_apps_cli</text>
</a>
</g>
</g>
<!-- apps_gui&#45;&gt;apps_cli -->
<g id="edge1" class="edge">
<title>apps_gui&#45;&gt;apps_cli</title>
<path fill="none" stroke="black" d="M425.39,-935.7C419.63,-927.47 412.64,-917.48 406.29,-908.42"/>
<polygon fill="black" stroke="black" points="409.08,-906.29 400.47,-900.1 403.34,-910.3 409.08,-906.29"/>
</g>
<!-- gui -->
<g id="node4" class="node">
<title>gui</title>
<g id="a_node4"><a xlink:href="group_mrpt_gui_grp.html" xlink:title="mrpt_gui">
<polygon fill="#d0d0d0" stroke="black" points="521,-900 454,-900 454,-864 521,-864 521,-900"/>
<text text-anchor="middle" x="487.5" y="-878.3" font-family="Times,serif" font-size="14.00">mrpt_gui</text>
</a>
</g>
</g>
<!-- apps_gui&#45;&gt;gui -->
<g id="edge2" class="edge">
<title>apps_gui&#45;&gt;gui</title>
<path fill="none" stroke="black" d="M449.86,-935.7C455.73,-927.47 462.87,-917.48 469.34,-908.42"/>
<polygon fill="black" stroke="black" points="472.32,-910.28 475.28,-900.1 466.62,-906.21 472.32,-910.28"/>
</g>
<!-- slam -->
<g id="node5" class="node">
<title>slam</title>
<g id="a_node5"><a xlink:href="group_mrpt_slam_grp.html" xlink:title="mrpt_slam">
<polygon fill="#d0d0d0" stroke="black" points="112.5,-828 36.5,-828 36.5,-792 112.5,-792 112.5,-828"/>
<text text-anchor="middle" x="74.5" y="-806.3" font-family="Times,serif" font-size="14.00">mrpt_slam</text>
</a>
</g>
</g>
<!-- apps_cli&#45;&gt;slam -->
<g id="edge3" class="edge">
<title>apps_cli&#45;&gt;slam</title>
<path fill="none" stroke="black" d="M340.73,-873.76C289.01,-865.42 204.04,-850.28 122.49,-828.06"/>
<polygon fill="black" stroke="black" points="123.13,-824.61 112.56,-825.31 121.27,-831.35 123.13,-824.61"/>
</g>
<!-- hwdrivers -->
<g id="node6" class="node">
<title>hwdrivers</title>
<g id="a_node6"><a xlink:href="group_mrpt_hwdrivers_grp.html" xlink:title="mrpt_hwdrivers">
<polygon fill="#d0d0d0" stroke="black" points="450.5,-828 346.5,-828 346.5,-792 450.5,-792 450.5,-828"/>
<text text-anchor="middle" x="398.5" y="-806.3" font-family="Times,serif" font-size="14.00">mrpt_hwdrivers</text>
</a>
</g>
</g>
<!-- apps_cli&#45;&gt;hwdrivers -->
<g id="edge4" class="edge">
<title>apps_cli&#45;&gt;hwdrivers</title>
<path fill="none" stroke="black" d="M390.97,-863.7C392.07,-855.98 393.4,-846.71 394.63,-838.11"/>
<polygon fill="black" stroke="black" points="398.11,-838.5 396.06,-828.1 391.18,-837.51 398.11,-838.5"/>
</g>
<!-- opengl -->
<g id="node20" class="node">
<title>opengl</title>
<g id="a_node20"><a xlink:href="group_mrpt_opengl_grp.html" xlink:title="mrpt_opengl">
<polygon fill="#d0d0d0" stroke="black" points="530.5,-684 444.5,-684 444.5,-648 530.5,-648 530.5,-684"/>
<text text-anchor="middle" x="487.5" y="-662.3" font-family="Times,serif" font-size="14.00">mrpt_opengl</text>
</a>
</g>
</g>
<!-- gui&#45;&gt;opengl -->
<g id="edge15" class="edge">
<title>gui&#45;&gt;opengl</title>
<path fill="none" stroke="black" d="M487.5,-863.85C487.5,-826.83 487.5,-739.18 487.5,-694.39"/>
<polygon fill="black" stroke="black" points="491,-694.23 487.5,-684.23 484,-694.23 491,-694.23"/>
</g>
<!-- maps -->
<g id="node23" class="node">
<title>maps</title>
<g id="a_node23"><a xlink:href="group_mrpt_maps_grp.html" xlink:title="mrpt_maps">
<polygon fill="#d0d0d0" stroke="black" points="261,-756 182,-756 182,-720 261,-720 261,-756"/>
<text text-anchor="middle" x="221.5" y="-734.3" font-family="Times,serif" font-size="14.00">mrpt_maps</text>
</a>
</g>
</g>
<!-- slam&#45;&gt;maps -->
<g id="edge40" class="edge">
<title>slam&#45;&gt;maps</title>
<path fill="none" stroke="black" d="M110.46,-791.88C130.38,-782.39 155.32,-770.51 176.52,-760.42"/>
<polygon fill="black" stroke="black" points="178.13,-763.53 185.66,-756.07 175.12,-757.21 178.13,-763.53"/>
</g>
<!-- vision -->
<g id="node31" class="node">
<title>vision</title>
<g id="a_node31"><a xlink:href="group_mrpt_vision_grp.html" xlink:title="mrpt_vision">
<polygon fill="#d0d0d0" stroke="black" points="164,-756 81,-756 81,-720 164,-720 164,-756"/>
<text text-anchor="middle" x="122.5" y="-734.3" font-family="Times,serif" font-size="14.00">mrpt_vision</text>
</a>
</g>
</g>
<!-- slam&#45;&gt;vision -->
<g id="edge41" class="edge">
<title>slam&#45;&gt;vision</title>
<path fill="none" stroke="black" d="M86.37,-791.7C92,-783.47 98.85,-773.48 105.07,-764.42"/>
<polygon fill="black" stroke="black" points="108,-766.33 110.77,-756.1 102.23,-762.37 108,-766.33"/>
</g>
<!-- topography -->
<g id="node32" class="node">
<title>topography</title>
<g id="a_node32"><a xlink:href="group_mrpt_topography_grp.html" xlink:title="mrpt_topography">
<polygon fill="#d0d0d0" stroke="black" points="111,-612 0,-612 0,-576 111,-576 111,-612"/>
<text text-anchor="middle" x="55.5" y="-590.3" font-family="Times,serif" font-size="14.00">mrpt_topography</text>
</a>
</g>
</g>
<!-- slam&#45;&gt;topography -->
<g id="edge42" class="edge">
<title>slam&#45;&gt;topography</title>
<path fill="none" stroke="black" d="M72.98,-791.85C69.69,-754.83 61.91,-667.18 57.93,-622.39"/>
<polygon fill="black" stroke="black" points="61.4,-621.88 57.03,-612.23 54.43,-622.5 61.4,-621.88"/>
</g>
<!-- comms -->
<g id="node10" class="node">
<title>comms</title>
<g id="a_node10"><a xlink:href="group_mrpt_comms_grp.html" xlink:title="mrpt_comms">
<polygon fill="#d0d0d0" stroke="black" points="461.5,-540 371.5,-540 371.5,-504 461.5,-504 461.5,-540"/>
<text text-anchor="middle" x="416.5" y="-518.3" font-family="Times,serif" font-size="14.00">mrpt_comms</text>
</a>
</g>
</g>
<!-- hwdrivers&#45;&gt;comms -->
<g id="edge18" class="edge">
<title>hwdrivers&#45;&gt;comms</title>
<path fill="none" stroke="black" d="M399.57,-791.97C402.57,-744.29 411.08,-609.18 414.76,-550.63"/>
<polygon fill="black" stroke="black" points="418.28,-550.51 415.41,-540.31 411.29,-550.07 418.28,-550.51"/>
</g>
<!-- hwdrivers&#45;&gt;maps -->
<g id="edge19" class="edge">
<title>hwdrivers&#45;&gt;maps</title>
<path fill="none" stroke="black" d="M355.2,-791.88C329.59,-781.75 297.07,-768.89 270.52,-758.38"/>
<polygon fill="black" stroke="black" points="271.61,-755.06 261.03,-754.63 269.04,-761.56 271.61,-755.06"/>
</g>
<!-- bayes -->
<g id="node7" class="node">
<title>bayes</title>
<g id="a_node7"><a xlink:href="group_mrpt_bayes_grp.html" xlink:title="mrpt_bayes">
<polygon fill="#d0d0d0" stroke="black" points="274.5,-468 194.5,-468 194.5,-432 274.5,-432 274.5,-468"/>
<text text-anchor="middle" x="234.5" y="-446.3" font-family="Times,serif" font-size="14.00">mrpt_bayes</text>
</a>
</g>
</g>
<!-- math -->
<g id="node8" class="node">
<title>math</title>
<g id="a_node8"><a xlink:href="group_mrpt_math_grp.html" xlink:title="mrpt_math">
<polygon fill="#d0d0d0" stroke="black" points="252,-396 175,-396 175,-360 252,-360 252,-396"/>
<text text-anchor="middle" x="213.5" y="-374.3" font-family="Times,serif" font-size="14.00">mrpt_math</text>
</a>
</g>
</g>
<!-- bayes&#45;&gt;math -->
<g id="edge5" class="edge">
<title>bayes&#45;&gt;math</title>
<path fill="none" stroke="black" d="M229.31,-431.7C226.97,-423.9 224.15,-414.51 221.55,-405.83"/>
<polygon fill="black" stroke="black" points="224.86,-404.68 218.63,-396.1 218.15,-406.69 224.86,-404.68"/>
</g>
<!-- config -->
<g id="node9" class="node">
<title>config</title>
<g id="a_node9"><a xlink:href="group_mrpt_config_grp.html" xlink:title="mrpt_config">
<polygon fill="#d0d0d0" stroke="black" points="368.5,-396 284.5,-396 284.5,-360 368.5,-360 368.5,-396"/>
<text text-anchor="middle" x="326.5" y="-374.3" font-family="Times,serif" font-size="14.00">mrpt_config</text>
</a>
</g>
</g>
<!-- bayes&#45;&gt;config -->
<g id="edge6" class="edge">
<title>bayes&#45;&gt;config</title>
<path fill="none" stroke="black" d="M257.24,-431.7C268.94,-422.8 283.36,-411.82 296.01,-402.2"/>
<polygon fill="black" stroke="black" points="298.18,-404.94 304.02,-396.1 293.94,-399.37 298.18,-404.94"/>
</g>
<!-- system -->
<g id="node16" class="node">
<title>system</title>
<g id="a_node16"><a xlink:href="group_mrpt_system_grp.html" xlink:title="mrpt_system">
<polygon fill="#d0d0d0" stroke="black" points="374.5,-252 286.5,-252 286.5,-216 374.5,-216 374.5,-252"/>
<text text-anchor="middle" x="330.5" y="-230.3" font-family="Times,serif" font-size="14.00">mrpt_system</text>
</a>
</g>
</g>
<!-- math&#45;&gt;system -->
<g id="edge29" class="edge">
<title>math&#45;&gt;system</title>
<path fill="none" stroke="black" d="M232.58,-359.87C243.31,-349.84 256.68,-336.7 267.5,-324 284.8,-303.69 302.14,-278.76 314.24,-260.47"/>
<polygon fill="black" stroke="black" points="317.19,-262.35 319.74,-252.06 311.33,-258.52 317.19,-262.35"/>
</g>
<!-- serialization -->
<g id="node26" class="node">
<title>serialization</title>
<g id="a_node26"><a xlink:href="group_mrpt_serialization_grp.html" xlink:title="mrpt_serialization">
<polygon fill="#d0d0d0" stroke="black" points="258.5,-324 142.5,-324 142.5,-288 258.5,-288 258.5,-324"/>
<text text-anchor="middle" x="200.5" y="-302.3" font-family="Times,serif" font-size="14.00">mrpt_serialization</text>
</a>
</g>
</g>
<!-- math&#45;&gt;serialization -->
<g id="edge27" class="edge">
<title>math&#45;&gt;serialization</title>
<path fill="none" stroke="black" d="M210.29,-359.7C208.85,-351.98 207.13,-342.71 205.54,-334.11"/>
<polygon fill="black" stroke="black" points="208.94,-333.3 203.68,-324.1 202.06,-334.58 208.94,-333.3"/>
</g>
<!-- random -->
<g id="node27" class="node">
<title>random</title>
<g id="a_node27"><a xlink:href="group_mrpt_random_grp.html" xlink:title="mrpt_random">
<polygon fill="#d0d0d0" stroke="black" points="124.5,-324 32.5,-324 32.5,-288 124.5,-288 124.5,-324"/>
<text text-anchor="middle" x="78.5" y="-302.3" font-family="Times,serif" font-size="14.00">mrpt_random</text>
</a>
</g>
</g>
<!-- math&#45;&gt;random -->
<g id="edge28" class="edge">
<title>math&#45;&gt;random</title>
<path fill="none" stroke="black" d="M180.48,-359.88C162.42,-350.51 139.85,-338.81 120.55,-328.8"/>
<polygon fill="black" stroke="black" points="122.14,-325.69 111.65,-324.19 118.92,-331.9 122.14,-325.69"/>
</g>
<!-- expr -->
<g id="node12" class="node">
<title>expr</title>
<g id="a_node12"><a xlink:href="group_mrpt_expr_grp.html" xlink:title="mrpt_expr">
<polygon fill="#d0d0d0" stroke="black" points="388.5,-324 314.5,-324 314.5,-288 388.5,-288 388.5,-324"/>
<text text-anchor="middle" x="351.5" y="-302.3" font-family="Times,serif" font-size="14.00">mrpt_expr</text>
</a>
</g>
</g>
<!-- config&#45;&gt;expr -->
<g id="edge8" class="edge">
<title>config&#45;&gt;expr</title>
<path fill="none" stroke="black" d="M332.68,-359.7C335.5,-351.81 338.89,-342.3 342.02,-333.55"/>
<polygon fill="black" stroke="black" points="345.32,-334.7 345.39,-324.1 338.73,-332.34 345.32,-334.7"/>
</g>
<!-- io -->
<g id="node11" class="node">
<title>io</title>
<g id="a_node11"><a xlink:href="group_mrpt_io_grp.html" xlink:title="mrpt_io">
<polygon fill="#d0d0d0" stroke="black" points="446.5,-396 386.5,-396 386.5,-360 446.5,-360 446.5,-396"/>
<text text-anchor="middle" x="416.5" y="-374.3" font-family="Times,serif" font-size="14.00">mrpt_io</text>
</a>
</g>
</g>
<!-- comms&#45;&gt;io -->
<g id="edge7" class="edge">
<title>comms&#45;&gt;io</title>
<path fill="none" stroke="black" d="M416.5,-503.87C416.5,-479.67 416.5,-435.21 416.5,-406.39"/>
<polygon fill="black" stroke="black" points="420,-406.19 416.5,-396.19 413,-406.19 420,-406.19"/>
</g>
<!-- io&#45;&gt;system -->
<g id="edge23" class="edge">
<title>io&#45;&gt;system</title>
<path fill="none" stroke="black" d="M416.24,-359.99C415.22,-341.09 411.34,-310.28 397.5,-288 390.26,-276.35 379.52,-266.21 368.74,-258"/>
<polygon fill="black" stroke="black" points="370.71,-255.1 360.55,-252.1 366.62,-260.79 370.71,-255.1"/>
</g>
<!-- expr&#45;&gt;system -->
<g id="edge12" class="edge">
<title>expr&#45;&gt;system</title>
<path fill="none" stroke="black" d="M346.31,-287.7C343.97,-279.9 341.15,-270.51 338.55,-261.83"/>
<polygon fill="black" stroke="black" points="341.86,-260.68 335.63,-252.1 335.15,-262.69 341.86,-260.68"/>
</g>
<!-- containers -->
<g id="node13" class="node">
<title>containers</title>
<g id="a_node13"><a xlink:href="group_mrpt_containers_grp.html" xlink:title="mrpt_containers">
<polygon fill="#d0d0d0" stroke="black" points="362,-180 257,-180 257,-144 362,-144 362,-180"/>
<text text-anchor="middle" x="309.5" y="-158.3" font-family="Times,serif" font-size="14.00">mrpt_containers</text>
</a>
</g>
</g>
<!-- core -->
<g id="node14" class="node">
<title>core</title>
<g id="a_node14"><a xlink:href="group_mrpt_core_grp.html" xlink:title="mrpt_core">
<polygon fill="#d0d0d0" stroke="black" points="230,-108 157,-108 157,-72 230,-72 230,-108"/>
<text text-anchor="middle" x="193.5" y="-86.3" font-family="Times,serif" font-size="14.00">mrpt_core</text>
</a>
</g>
</g>
<!-- containers&#45;&gt;core -->
<g id="edge9" class="edge">
<title>containers&#45;&gt;core</title>
<path fill="none" stroke="black" d="M281.12,-143.88C265.96,-134.72 247.09,-123.34 230.76,-113.48"/>
<polygon fill="black" stroke="black" points="232.36,-110.36 221.99,-108.19 228.74,-116.35 232.36,-110.36"/>
</g>
<!-- typemeta -->
<g id="node15" class="node">
<title>typemeta</title>
<g id="a_node15"><a xlink:href="group_mrpt_typemeta_grp.html" xlink:title="mrpt_typemeta (.h)">
<polygon fill="#d0d0d0" stroke="black" points="371,-108 248,-108 248,-72 371,-72 371,-108"/>
<text text-anchor="middle" x="309.5" y="-86.3" font-family="Times,serif" font-size="14.00">mrpt_typemeta (.h)</text>
</a>
</g>
</g>
<!-- containers&#45;&gt;typemeta -->
<g id="edge10" class="edge">
<title>containers&#45;&gt;typemeta</title>
<path fill="none" stroke="black" d="M309.5,-143.7C309.5,-135.98 309.5,-126.71 309.5,-118.11"/>
<polygon fill="black" stroke="black" points="313,-118.1 309.5,-108.1 306,-118.1 313,-118.1"/>
</g>
<!-- core&#45;&gt;common -->
<g id="edge11" class="edge">
<title>core&#45;&gt;common</title>
<path fill="none" stroke="black" d="M193.5,-71.7C193.5,-63.98 193.5,-54.71 193.5,-46.11"/>
<polygon fill="black" stroke="black" points="197,-46.1 193.5,-36.1 190,-46.1 197,-46.1"/>
</g>
<!-- typemeta&#45;&gt;common -->
<g id="edge46" class="edge">
<title>typemeta&#45;&gt;common</title>
<path fill="none" stroke="black" d="M281.12,-71.88C265.96,-62.72 247.09,-51.34 230.76,-41.48"/>
<polygon fill="black" stroke="black" points="232.36,-38.36 221.99,-36.19 228.74,-44.35 232.36,-38.36"/>
</g>
<!-- system&#45;&gt;containers -->
<g id="edge43" class="edge">
<title>system&#45;&gt;containers</title>
<path fill="none" stroke="black" d="M325.31,-215.7C322.97,-207.9 320.15,-198.51 317.55,-189.83"/>
<polygon fill="black" stroke="black" points="320.86,-188.68 314.63,-180.1 314.15,-190.69 320.86,-188.68"/>
</g>
<!-- graphs -->
<g id="node17" class="node">
<title>graphs</title>
<g id="a_node17"><a xlink:href="group_mrpt_graphs_grp.html" xlink:title="mrpt_graphs">
<polygon fill="#d0d0d0" stroke="black" points="291.5,-684 205.5,-684 205.5,-648 291.5,-648 291.5,-684"/>
<text text-anchor="middle" x="248.5" y="-662.3" font-family="Times,serif" font-size="14.00">mrpt_graphs</text>
</a>
</g>
</g>
<!-- poses -->
<g id="node18" class="node">
<title>poses</title>
<g id="a_node18"><a xlink:href="group_mrpt_poses_grp.html" xlink:title="mrpt_poses">
<polygon fill="#d0d0d0" stroke="black" points="278.5,-540 198.5,-540 198.5,-504 278.5,-504 278.5,-540"/>
<text text-anchor="middle" x="238.5" y="-518.3" font-family="Times,serif" font-size="14.00">mrpt_poses</text>
</a>
</g>
</g>
<!-- graphs&#45;&gt;poses -->
<g id="edge13" class="edge">
<title>graphs&#45;&gt;poses</title>
<path fill="none" stroke="black" d="M247.29,-647.87C245.59,-623.67 242.46,-579.21 240.43,-550.39"/>
<polygon fill="black" stroke="black" points="243.9,-549.92 239.71,-540.19 236.92,-550.41 243.9,-549.92"/>
</g>
<!-- poses&#45;&gt;bayes -->
<g id="edge35" class="edge">
<title>poses&#45;&gt;bayes</title>
<path fill="none" stroke="black" d="M237.51,-503.7C237.07,-495.98 236.54,-486.71 236.05,-478.11"/>
<polygon fill="black" stroke="black" points="239.54,-477.89 235.48,-468.1 232.55,-478.29 239.54,-477.89"/>
</g>
<!-- graphslam -->
<g id="node19" class="node">
<title>graphslam</title>
<g id="a_node19"><a xlink:href="group_mrpt_graphslam_grp.html" xlink:title="mrpt_graphslam">
<polygon fill="#d0d0d0" stroke="black" points="128,-900 21,-900 21,-864 128,-864 128,-900"/>
<text text-anchor="middle" x="74.5" y="-878.3" font-family="Times,serif" font-size="14.00">mrpt_graphslam</text>
</a>
</g>
</g>
<!-- graphslam&#45;&gt;slam -->
<g id="edge14" class="edge">
<title>graphslam&#45;&gt;slam</title>
<path fill="none" stroke="black" d="M74.5,-863.7C74.5,-855.98 74.5,-846.71 74.5,-838.11"/>
<polygon fill="black" stroke="black" points="78,-838.1 74.5,-828.1 71,-838.1 78,-838.1"/>
</g>
<!-- viz -->
<g id="node21" class="node">
<title>viz</title>
<g id="a_node21"><a xlink:href="group_mrpt_viz_grp.html" xlink:title="mrpt_viz">
<polygon fill="#d0d0d0" stroke="black" points="361.5,-612 295.5,-612 295.5,-576 361.5,-576 361.5,-612"/>
<text text-anchor="middle" x="328.5" y="-590.3" font-family="Times,serif" font-size="14.00">mrpt_viz</text>
</a>
</g>
</g>
<!-- opengl&#45;&gt;viz -->
<g id="edge34" class="edge">
<title>opengl&#45;&gt;viz</title>
<path fill="none" stroke="black" d="M448.6,-647.88C425.07,-637.51 395.04,-624.29 370.9,-613.66"/>
<polygon fill="black" stroke="black" points="372.18,-610.41 361.62,-609.58 369.36,-616.81 372.18,-610.41"/>
</g>
<!-- viz&#45;&gt;poses -->
<g id="edge16" class="edge">
<title>viz&#45;&gt;poses</title>
<path fill="none" stroke="black" d="M306.25,-575.7C294.92,-566.88 280.97,-556.03 268.68,-546.47"/>
<polygon fill="black" stroke="black" points="270.53,-543.48 260.49,-540.1 266.24,-549.01 270.53,-543.48"/>
</g>
<!-- img -->
<g id="node22" class="node">
<title>img</title>
<g id="a_node22"><a xlink:href="group_mrpt_img_grp.html" xlink:title="mrpt_img">
<polygon fill="#d0d0d0" stroke="black" points="364,-468 293,-468 293,-432 364,-432 364,-468"/>
<text text-anchor="middle" x="328.5" y="-446.3" font-family="Times,serif" font-size="14.00">mrpt_img</text>
</a>
</g>
</g>
<!-- viz&#45;&gt;img -->
<g id="edge17" class="edge">
<title>viz&#45;&gt;img</title>
<path fill="none" stroke="black" d="M328.5,-575.87C328.5,-551.67 328.5,-507.21 328.5,-478.39"/>
<polygon fill="black" stroke="black" points="332,-478.19 328.5,-468.19 325,-478.19 332,-478.19"/>
</g>
<!-- img&#45;&gt;math -->
<g id="edge21" class="edge">
<title>img&#45;&gt;math</title>
<path fill="none" stroke="black" d="M300.37,-431.88C285.33,-422.72 266.63,-411.34 250.44,-401.48"/>
<polygon fill="black" stroke="black" points="252.1,-398.4 241.74,-396.19 248.46,-404.38 252.1,-398.4"/>
</g>
<!-- img&#45;&gt;config -->
<g id="edge22" class="edge">
<title>img&#45;&gt;config</title>
<path fill="none" stroke="black" d="M328.01,-431.7C327.79,-423.98 327.52,-414.71 327.27,-406.11"/>
<polygon fill="black" stroke="black" points="330.77,-406 326.99,-396.1 323.78,-406.2 330.77,-406"/>
</g>
<!-- img&#45;&gt;io -->
<g id="edge20" class="edge">
<title>img&#45;&gt;io</title>
<path fill="none" stroke="black" d="M350.25,-431.7C361.34,-422.88 374.97,-412.03 386.99,-402.47"/>
<polygon fill="black" stroke="black" points="389.35,-405.07 395,-396.1 384.99,-399.59 389.35,-405.07"/>
</g>
<!-- maps&#45;&gt;graphs -->
<g id="edge25" class="edge">
<title>maps&#45;&gt;graphs</title>
<path fill="none" stroke="black" d="M228.17,-719.7C231.21,-711.81 234.88,-702.3 238.26,-693.55"/>
<polygon fill="black" stroke="black" points="241.57,-694.69 241.9,-684.1 235.04,-692.17 241.57,-694.69"/>
</g>
<!-- obs -->
<g id="node25" class="node">
<title>obs</title>
<g id="a_node25"><a xlink:href="group_mrpt_obs_grp.html" xlink:title="mrpt_obs">
<polygon fill="#d0d0d0" stroke="black" points="187.5,-684 119.5,-684 119.5,-648 187.5,-648 187.5,-684"/>
<text text-anchor="middle" x="153.5" y="-662.3" font-family="Times,serif" font-size="14.00">mrpt_obs</text>
</a>
</g>
</g>
<!-- maps&#45;&gt;obs -->
<g id="edge26" class="edge">
<title>maps&#45;&gt;obs</title>
<path fill="none" stroke="black" d="M204.69,-719.7C196.37,-711.14 186.19,-700.66 177.11,-691.3"/>
<polygon fill="black" stroke="black" points="179.59,-688.84 170.12,-684.1 174.57,-693.72 179.59,-688.84"/>
</g>
<!-- kinematics -->
<g id="node24" class="node">
<title>kinematics</title>
<g id="a_node24"><a xlink:href="group_mrpt_kinematics_grp.html" xlink:title="mrpt_kinematics">
<polygon fill="#d0d0d0" stroke="black" points="388,-756 279,-756 279,-720 388,-720 388,-756"/>
<text text-anchor="middle" x="333.5" y="-734.3" font-family="Times,serif" font-size="14.00">mrpt_kinematics</text>
</a>
</g>
</g>
<!-- kinematics&#45;&gt;viz -->
<g id="edge24" class="edge">
<title>kinematics&#45;&gt;viz</title>
<path fill="none" stroke="black" d="M332.9,-719.87C332.04,-695.67 330.48,-651.21 329.46,-622.39"/>
<polygon fill="black" stroke="black" points="332.96,-622.06 329.11,-612.19 325.96,-622.31 332.96,-622.06"/>
</g>
<!-- obs&#45;&gt;viz -->
<g id="edge32" class="edge">
<title>obs&#45;&gt;viz</title>
<path fill="none" stroke="black" d="M187.66,-651.34C215.75,-640.1 255.71,-624.12 285.89,-612.04"/>
<polygon fill="black" stroke="black" points="287.33,-615.24 295.32,-608.27 284.73,-608.74 287.33,-615.24"/>
</g>
<!-- tfest -->
<g id="node29" class="node">
<title>tfest</title>
<g id="a_node29"><a xlink:href="group_mrpt_tfest_grp.html" xlink:title="mrpt_tfest">
<polygon fill="#d0d0d0" stroke="black" points="212,-612 139,-612 139,-576 212,-576 212,-612"/>
<text text-anchor="middle" x="175.5" y="-590.3" font-family="Times,serif" font-size="14.00">mrpt_tfest</text>
</a>
</g>
</g>
<!-- obs&#45;&gt;tfest -->
<g id="edge33" class="edge">
<title>obs&#45;&gt;tfest</title>
<path fill="none" stroke="black" d="M158.94,-647.7C161.39,-639.9 164.34,-630.51 167.07,-621.83"/>
<polygon fill="black" stroke="black" points="170.46,-622.69 170.12,-612.1 163.79,-620.59 170.46,-622.69"/>
</g>
<!-- rtti -->
<g id="node30" class="node">
<title>rtti</title>
<g id="a_node30"><a xlink:href="group_mrpt_rtti_grp.html" xlink:title="mrpt_rtti">
<polygon fill="#d0d0d0" stroke="black" points="233,-180 168,-180 168,-144 233,-144 233,-180"/>
<text text-anchor="middle" x="200.5" y="-158.3" font-family="Times,serif" font-size="14.00">mrpt_rtti</text>
</a>
</g>
</g>
<!-- serialization&#45;&gt;rtti -->
<g id="edge39" class="edge">
<title>serialization&#45;&gt;rtti</title>
<path fill="none" stroke="black" d="M200.5,-287.87C200.5,-263.67 200.5,-219.21 200.5,-190.39"/>
<polygon fill="black" stroke="black" points="204,-190.19 200.5,-180.19 197,-190.19 204,-190.19"/>
</g>
<!-- random&#45;&gt;common -->
<g id="edge36" class="edge">
<title>random&#45;&gt;common</title>
<path fill="none" stroke="black" d="M81,-287.95C87.36,-248.09 106.64,-146.55 147.5,-72 153.06,-61.86 160.82,-51.95 168.39,-43.49"/>
<polygon fill="black" stroke="black" points="170.95,-45.88 175.21,-36.17 165.83,-41.1 170.95,-45.88"/>
</g>
<!-- nav -->
<g id="node28" class="node">
<title>nav</title>
<g id="a_node28"><a xlink:href="group_mrpt_nav_grp.html" xlink:title="mrpt_nav">
<polygon fill="#d0d0d0" stroke="black" points="328,-828 259,-828 259,-792 328,-792 328,-828"/>
<text text-anchor="middle" x="293.5" y="-806.3" font-family="Times,serif" font-size="14.00">mrpt_nav</text>
</a>
</g>
</g>
<!-- nav&#45;&gt;maps -->
<g id="edge31" class="edge">
<title>nav&#45;&gt;maps</title>
<path fill="none" stroke="black" d="M275.7,-791.7C266.9,-783.14 256.12,-772.66 246.5,-763.3"/>
<polygon fill="black" stroke="black" points="248.7,-760.57 239.09,-756.1 243.82,-765.58 248.7,-760.57"/>
</g>
<!-- nav&#45;&gt;kinematics -->
<g id="edge30" class="edge">
<title>nav&#45;&gt;kinematics</title>
<path fill="none" stroke="black" d="M303.39,-791.7C307.99,-783.64 313.56,-773.89 318.65,-764.98"/>
<polygon fill="black" stroke="black" points="321.8,-766.52 323.73,-756.1 315.73,-763.05 321.8,-766.52"/>
</g>
<!-- tfest&#45;&gt;poses -->
<g id="edge44" class="edge">
<title>tfest&#45;&gt;poses</title>
<path fill="none" stroke="black" d="M191.07,-575.7C198.7,-567.22 208.02,-556.86 216.38,-547.58"/>
<polygon fill="black" stroke="black" points="219.02,-549.88 223.11,-540.1 213.81,-545.2 219.02,-549.88"/>
</g>
<!-- rtti&#45;&gt;core -->
<g id="edge37" class="edge">
<title>rtti&#45;&gt;core</title>
<path fill="none" stroke="black" d="M198.77,-143.7C198,-135.98 197.07,-126.71 196.21,-118.11"/>
<polygon fill="black" stroke="black" points="199.69,-117.71 195.21,-108.1 192.72,-118.4 199.69,-117.71"/>
</g>
<!-- rtti&#45;&gt;typemeta -->
<g id="edge38" class="edge">
<title>rtti&#45;&gt;typemeta</title>
<path fill="none" stroke="black" d="M227.16,-143.88C241.28,-134.81 258.81,-123.55 274.06,-113.76"/>
<polygon fill="black" stroke="black" points="276.21,-116.54 282.73,-108.19 272.43,-110.65 276.21,-116.54"/>
</g>
<!-- vision&#45;&gt;obs -->
<g id="edge47" class="edge">
<title>vision&#45;&gt;obs</title>
<path fill="none" stroke="black" d="M130.16,-719.7C133.69,-711.73 137.96,-702.1 141.87,-693.26"/>
<polygon fill="black" stroke="black" points="145.08,-694.67 145.93,-684.1 138.68,-691.83 145.08,-694.67"/>
</g>
<!-- topography&#45;&gt;math -->
<g id="edge45" class="edge">
<title>topography&#45;&gt;math</title>
<path fill="none" stroke="black" d="M68.16,-575.85C95.9,-538.28 162.13,-448.58 194.73,-404.43"/>
<polygon fill="black" stroke="black" points="197.65,-406.36 200.78,-396.23 192.02,-402.2 197.65,-406.36"/>
</g>
<!-- visionlgpl -->
<g id="node33" class="node">
<title>visionlgpl</title>
<g id="a_node33"><a xlink:href="group_mrpt_vision_lgpl_grp.html" xlink:title="mrpt_vision_lgpl">
<polygon fill="#d0d0d0" stroke="black" points="240.5,-828 130.5,-828 130.5,-792 240.5,-792 240.5,-828"/>
<text text-anchor="middle" x="185.5" y="-806.3" font-family="Times,serif" font-size="14.00">mrpt_vision_lgpl</text>
</a>
</g>
</g>
<!-- visionlgpl&#45;&gt;vision -->
<g id="edge48" class="edge">
<title>visionlgpl&#45;&gt;vision</title>
<path fill="none" stroke="black" d="M169.93,-791.7C162.3,-783.22 152.98,-772.86 144.62,-763.58"/>
<polygon fill="black" stroke="black" points="147.19,-761.2 137.89,-756.1 141.98,-765.88 147.19,-761.2"/>
</g>
</g>
</svg>
