<?xml version="1.0" encoding="UTF-8" standalone="no"?>
<!DOCTYPE svg PUBLIC "-//W3C//DTD SVG 1.1//EN"
 "http://www.w3.org/Graphics/SVG/1.1/DTD/svg11.dtd">
<!-- Generated by graphviz version 2.40.1 (20161225.0304)
 -->
<!-- Title: MRPT_LIBS Pages: 1 -->
<svg width="612pt" height="980pt"
 viewBox="0.00 0.00 612.00 980.00" xmlns="http://www.w3.org/2000/svg" xmlns:xlink="http://www.w3.org/1999/xlink">
<g id="graph0" class="graph" transform="scale(1 1) rotate(0) translate(4 976)">
<title>MRPT_LIBS</title>
<polygon fill="#ffffff" stroke="transparent" points="-4,4 -4,-976 608,-976 608,4 -4,4"/>
<!-- apps -->
<g id="node1" class="node">
<title>apps</title>
<g id="a_node1"><a xlink:href="group_mrpt_bayes_grp.html" xlink:title="mrpt&#45;apps">
<polygon fill="#d0d0d0" stroke="#000000" points="379,-972 307,-972 307,-936 379,-936 379,-972"/>
<text text-anchor="middle" x="343" y="-950.3" font-family="Times,serif" font-size="14.00" fill="#000000">mrpt&#45;apps</text>
</a>
</g>
</g>
<!-- gui -->
<g id="node2" class="node">
<title>gui</title>
<g id="a_node2"><a xlink:href="group_mrpt_gui_grp.html" xlink:title="mrpt&#45;gui">
<polygon fill="#d0d0d0" stroke="#000000" points="387.5,-756 322.5,-756 322.5,-720 387.5,-720 387.5,-756"/>
<text text-anchor="middle" x="355" y="-734.3" font-family="Times,serif" font-size="14.00" fill="#000000">mrpt&#45;gui</text>
</a>
</g>
</g>
<!-- apps&#45;&gt;gui -->
<g id="edge1" class="edge">
<title>apps&#45;&gt;gui</title>
<path fill="none" stroke="#000000" d="M336.4714,-935.7022C326.6091,-905.3508 310.4303,-842.8931 324,-792 326.4952,-782.6419 331.0408,-773.2199 335.8961,-764.925"/>
<polygon fill="#000000" stroke="#000000" points="338.8771,-766.759 341.2037,-756.4228 332.9392,-763.0521 338.8771,-766.759"/>
</g>
<!-- slam -->
<g id="node3" class="node">
<title>slam</title>
<g id="a_node3"><a xlink:href="group_mrpt_slam_grp.html" xlink:title="mrpt&#45;slam">
<polygon fill="#d0d0d0" stroke="#000000" points="480,-756 406,-756 406,-720 480,-720 480,-756"/>
<text text-anchor="middle" x="443" y="-734.3" font-family="Times,serif" font-size="14.00" fill="#000000">mrpt&#45;slam</text>
</a>
</g>
</g>
<!-- apps&#45;&gt;slam -->
<g id="edge2" class="edge">
<title>apps&#45;&gt;slam</title>
<path fill="none" stroke="#000000" d="M379.0425,-946.4491C431.6931,-933.1451 526.9607,-899.8348 560,-828 566.6857,-813.4638 568.6233,-805.4774 560,-792 555.7249,-785.3183 520.2754,-769.4657 489.5061,-756.6547"/>
<polygon fill="#000000" stroke="#000000" points="490.7257,-753.3718 480.1469,-752.7901 488.054,-759.8419 490.7257,-753.3718"/>
</g>
<!-- hwdrivers -->
<g id="node4" class="node">
<title>hwdrivers</title>
<g id="a_node4"><a xlink:href="group_mrpt_hwdrivers_grp.html" xlink:title="mrpt&#45;hwdrivers">
<polygon fill="#d0d0d0" stroke="#000000" points="276.5,-828 175.5,-828 175.5,-792 276.5,-792 276.5,-828"/>
<text text-anchor="middle" x="226" y="-806.3" font-family="Times,serif" font-size="14.00" fill="#000000">mrpt&#45;hwdrivers</text>
</a>
</g>
</g>
<!-- apps&#45;&gt;hwdrivers -->
<g id="edge3" class="edge">
<title>apps&#45;&gt;hwdrivers</title>
<path fill="none" stroke="#000000" d="M324.0349,-935.6131C313.871,-925.4414 301.3475,-912.3849 291,-900 273.902,-879.5353 256.299,-854.9022 243.7313,-836.5843"/>
<polygon fill="#000000" stroke="#000000" points="246.509,-834.4448 237.9905,-828.1451 240.7212,-838.382 246.509,-834.4448"/>
</g>
<!-- graphslam -->
<g id="node5" class="node">
<title>graphslam</title>
<g id="a_node5"><a xlink:href="group_mrpt_graphslam_grp.html" xlink:title="mrpt&#45;graphslam">
<polygon fill="#d0d0d0" stroke="#000000" points="437,-828 333,-828 333,-792 437,-792 437,-828"/>
<text text-anchor="middle" x="385" y="-806.3" font-family="Times,serif" font-size="14.00" fill="#000000">mrpt&#45;graphslam</text>
</a>
</g>
</g>
<!-- apps&#45;&gt;graphslam -->
<g id="edge4" class="edge">
<title>apps&#45;&gt;graphslam</title>
<path fill="none" stroke="#000000" d="M345.7711,-935.8041C348.817,-917.433 354.3185,-888.369 362,-864 364.7743,-855.1986 368.4641,-845.8665 372.0745,-837.4806"/>
<polygon fill="#000000" stroke="#000000" points="375.3541,-838.7191 376.2166,-828.1595 368.9572,-835.8765 375.3541,-838.7191"/>
</g>
<!-- hmtslam -->
<g id="node6" class="node">
<title>hmtslam</title>
<g id="a_node6"><a xlink:href="group_mrpt_hmtslam_grp.html" xlink:title="mrpt&#45;hmtslam">
<polygon fill="#d0d0d0" stroke="#000000" points="466.5,-900 371.5,-900 371.5,-864 466.5,-864 466.5,-900"/>
<text text-anchor="middle" x="419" y="-878.3" font-family="Times,serif" font-size="14.00" fill="#000000">mrpt&#45;hmtslam</text>
</a>
</g>
</g>
<!-- apps&#45;&gt;hmtslam -->
<g id="edge5" class="edge">
<title>apps&#45;&gt;hmtslam</title>
<path fill="none" stroke="#000000" d="M362.178,-935.8314C371.3588,-927.1337 382.5006,-916.5783 392.4776,-907.1265"/>
<polygon fill="#000000" stroke="#000000" points="394.9757,-909.5811 399.8281,-900.1628 390.1615,-904.4995 394.9757,-909.5811"/>
</g>
<!-- opengl -->
<g id="node18" class="node">
<title>opengl</title>
<g id="a_node18"><a xlink:href="group_mrpt_opengl_grp.html" xlink:title="mrpt&#45;opengl">
<polygon fill="#d0d0d0" stroke="#000000" points="294,-540 210,-540 210,-504 294,-504 294,-540"/>
<text text-anchor="middle" x="252" y="-518.3" font-family="Times,serif" font-size="14.00" fill="#000000">mrpt&#45;opengl</text>
</a>
</g>
</g>
<!-- gui&#45;&gt;opengl -->
<g id="edge18" class="edge">
<title>gui&#45;&gt;opengl</title>
<path fill="none" stroke="#000000" d="M346.8649,-719.6112C342.343,-709.2171 336.6979,-695.949 332,-684 313.3269,-636.5052 317.3759,-620.8359 293,-576 287.7712,-566.3824 280.9306,-556.626 274.3392,-548.101"/>
<polygon fill="#000000" stroke="#000000" points="276.8749,-545.6674 267.8999,-540.0371 271.4049,-550.0354 276.8749,-545.6674"/>
</g>
<!-- maps -->
<g id="node19" class="node">
<title>maps</title>
<g id="a_node19"><a xlink:href="group_mrpt_maps_grp.html" xlink:title="mrpt&#45;maps">
<polygon fill="#d0d0d0" stroke="#000000" points="282.5,-684 205.5,-684 205.5,-648 282.5,-648 282.5,-684"/>
<text text-anchor="middle" x="244" y="-662.3" font-family="Times,serif" font-size="14.00" fill="#000000">mrpt&#45;maps</text>
</a>
</g>
</g>
<!-- slam&#45;&gt;maps -->
<g id="edge46" class="edge">
<title>slam&#45;&gt;maps</title>
<path fill="none" stroke="#000000" d="M405.8312,-723.6692C402.5106,-722.418 399.1969,-721.1799 396,-720 361.4197,-707.2379 322.2176,-693.3243 292.2873,-682.8169"/>
<polygon fill="#000000" stroke="#000000" points="293.1073,-679.3956 282.5125,-679.3906 290.7918,-686.0015 293.1073,-679.3956"/>
</g>
<!-- vision -->
<g id="node20" class="node">
<title>vision</title>
<g id="a_node20"><a xlink:href="group_mrpt_vision_grp.html" xlink:title="mrpt&#45;vision">
<polygon fill="#d0d0d0" stroke="#000000" points="421,-684 341,-684 341,-648 421,-648 421,-684"/>
<text text-anchor="middle" x="381" y="-662.3" font-family="Times,serif" font-size="14.00" fill="#000000">mrpt&#45;vision</text>
</a>
</g>
</g>
<!-- slam&#45;&gt;vision -->
<g id="edge47" class="edge">
<title>slam&#45;&gt;vision</title>
<path fill="none" stroke="#000000" d="M427.3548,-719.8314C420.1409,-711.454 411.443,-701.3531 403.5395,-692.1749"/>
<polygon fill="#000000" stroke="#000000" points="406.0333,-689.7071 396.8559,-684.4133 400.7289,-694.2748 406.0333,-689.7071"/>
</g>
<!-- hwdrivers&#45;&gt;gui -->
<g id="edge21" class="edge">
<title>hwdrivers&#45;&gt;gui</title>
<path fill="none" stroke="#000000" d="M258.5521,-791.8314C275.2048,-782.5368 295.6585,-771.1208 313.4385,-761.1971"/>
<polygon fill="#000000" stroke="#000000" points="315.4321,-764.0927 322.4583,-756.1628 312.0205,-757.9803 315.4321,-764.0927"/>
</g>
<!-- comms -->
<g id="node10" class="node">
<title>comms</title>
<g id="a_node10"><a xlink:href="group_mrpt_comms_grp.html" xlink:title="mrpt&#45;comms">
<polygon fill="#d0d0d0" stroke="#000000" points="88,-468 0,-468 0,-432 88,-432 88,-468"/>
<text text-anchor="middle" x="44" y="-446.3" font-family="Times,serif" font-size="14.00" fill="#000000">mrpt&#45;comms</text>
</a>
</g>
</g>
<!-- hwdrivers&#45;&gt;comms -->
<g id="edge20" class="edge">
<title>hwdrivers&#45;&gt;comms</title>
<path fill="none" stroke="#000000" d="M175.4327,-802.3243C123.67,-793.4364 48.0497,-777.2519 28,-756 -.0544,-726.2635 9,-706.8816 9,-666 9,-666 9,-666 9,-594 9,-552.755 22.7253,-506.697 32.9858,-478.0283"/>
<polygon fill="#000000" stroke="#000000" points="36.3994,-478.8874 36.5774,-468.2941 29.8322,-476.4643 36.3994,-478.8874"/>
</g>
<!-- hwdrivers&#45;&gt;maps -->
<g id="edge22" class="edge">
<title>hwdrivers&#45;&gt;maps</title>
<path fill="none" stroke="#000000" d="M229.8582,-791.5753C231.9247,-781.17 234.3726,-767.9026 236,-756 238.8112,-735.439 240.8533,-712.0941 242.1705,-694.3333"/>
<polygon fill="#000000" stroke="#000000" points="245.6638,-694.5509 242.88,-684.3284 238.6813,-694.0557 245.6638,-694.5509"/>
</g>
<!-- hwdrivers&#45;&gt;vision -->
<g id="edge23" class="edge">
<title>hwdrivers&#45;&gt;vision</title>
<path fill="none" stroke="#000000" d="M242.3443,-791.7287C259.3561,-773.0444 287.0855,-743.508 313,-720 324.231,-709.8119 337.1343,-699.2933 348.6619,-690.2768"/>
<polygon fill="#000000" stroke="#000000" points="351.0026,-692.8911 356.7691,-684.003 346.7185,-687.3551 351.0026,-692.8911"/>
</g>
<!-- graphslam&#45;&gt;gui -->
<g id="edge16" class="edge">
<title>graphslam&#45;&gt;gui</title>
<path fill="none" stroke="#000000" d="M377.4297,-791.8314C374.1507,-783.9617 370.238,-774.5712 366.6055,-765.8533"/>
<polygon fill="#000000" stroke="#000000" points="369.7492,-764.2979 362.6722,-756.4133 363.2876,-766.9902 369.7492,-764.2979"/>
</g>
<!-- graphslam&#45;&gt;slam -->
<g id="edge17" class="edge">
<title>graphslam&#45;&gt;slam</title>
<path fill="none" stroke="#000000" d="M399.6358,-791.8314C406.3161,-783.5386 414.3568,-773.557 421.6904,-764.4533"/>
<polygon fill="#000000" stroke="#000000" points="424.6194,-766.3965 428.1671,-756.4133 419.1681,-762.0052 424.6194,-766.3965"/>
</g>
<!-- hmtslam&#45;&gt;graphslam -->
<g id="edge19" class="edge">
<title>hmtslam&#45;&gt;graphslam</title>
<path fill="none" stroke="#000000" d="M410.4204,-863.8314C406.6642,-855.8771 402.1743,-846.369 398.0202,-837.5723"/>
<polygon fill="#000000" stroke="#000000" points="401.1301,-835.9612 393.6952,-828.4133 394.8004,-838.9503 401.1301,-835.9612"/>
</g>
<!-- bayes -->
<g id="node7" class="node">
<title>bayes</title>
<g id="a_node7"><a xlink:href="group_mrpt_bayes_grp.html" xlink:title="mrpt&#45;bayes">
<polygon fill="#d0d0d0" stroke="#000000" points="342,-396 264,-396 264,-360 342,-360 342,-396"/>
<text text-anchor="middle" x="303" y="-374.3" font-family="Times,serif" font-size="14.00" fill="#000000">mrpt&#45;bayes</text>
</a>
</g>
</g>
<!-- math -->
<g id="node8" class="node">
<title>math</title>
<g id="a_node8"><a xlink:href="group_mrpt_math_grp.html" xlink:title="mrpt&#45;math">
<polygon fill="#d0d0d0" stroke="#000000" points="336.5,-252 261.5,-252 261.5,-216 336.5,-216 336.5,-252"/>
<text text-anchor="middle" x="299" y="-230.3" font-family="Times,serif" font-size="14.00" fill="#000000">mrpt&#45;math</text>
</a>
</g>
</g>
<!-- bayes&#45;&gt;math -->
<g id="edge6" class="edge">
<title>bayes&#45;&gt;math</title>
<path fill="none" stroke="#000000" d="M302.4934,-359.7623C301.8111,-335.201 300.5902,-291.2474 299.7876,-262.3541"/>
<polygon fill="#000000" stroke="#000000" points="303.2789,-261.9885 299.5025,-252.0896 296.2816,-262.183 303.2789,-261.9885"/>
</g>
<!-- config -->
<g id="node9" class="node">
<title>config</title>
<g id="a_node9"><a xlink:href="group_mrpt_config_grp.html" xlink:title="mrpt&#45;config">
<polygon fill="#d0d0d0" stroke="#000000" points="241,-324 159,-324 159,-288 241,-288 241,-324"/>
<text text-anchor="middle" x="200" y="-302.3" font-family="Times,serif" font-size="14.00" fill="#000000">mrpt&#45;config</text>
</a>
</g>
</g>
<!-- bayes&#45;&gt;config -->
<g id="edge7" class="edge">
<title>bayes&#45;&gt;config</title>
<path fill="none" stroke="#000000" d="M277.0088,-359.8314C264.0784,-350.7927 248.2778,-339.7476 234.3617,-330.0198"/>
<polygon fill="#000000" stroke="#000000" points="236.1843,-327.0235 225.9829,-324.1628 232.1737,-332.7608 236.1843,-327.0235"/>
</g>
<!-- system -->
<g id="node13" class="node">
<title>system</title>
<g id="a_node13"><a xlink:href="group_mrpt_system_grp.html" xlink:title="mrpt&#45;system">
<polygon fill="#d0d0d0" stroke="#000000" points="186,-180 100,-180 100,-144 186,-144 186,-180"/>
<text text-anchor="middle" x="143" y="-158.3" font-family="Times,serif" font-size="14.00" fill="#000000">mrpt&#45;system</text>
</a>
</g>
</g>
<!-- math&#45;&gt;system -->
<g id="edge33" class="edge">
<title>math&#45;&gt;system</title>
<path fill="none" stroke="#000000" d="M261.2368,-216.5708C240.249,-206.8841 213.909,-194.7272 191.4201,-184.3477"/>
<polygon fill="#000000" stroke="#000000" points="192.5909,-181.0334 182.0446,-180.0206 189.6575,-187.3891 192.5909,-181.0334"/>
</g>
<!-- serialization -->
<g id="node24" class="node">
<title>serialization</title>
<g id="a_node24"><a xlink:href="group_mrpt_serialization_grp.html" xlink:title="mrpt&#45;serialization">
<polygon fill="#d0d0d0" stroke="#000000" points="355.5,-180 242.5,-180 242.5,-144 355.5,-144 355.5,-180"/>
<text text-anchor="middle" x="299" y="-158.3" font-family="Times,serif" font-size="14.00" fill="#000000">mrpt&#45;serialization</text>
</a>
</g>
</g>
<!-- math&#45;&gt;serialization -->
<g id="edge31" class="edge">
<title>math&#45;&gt;serialization</title>
<path fill="none" stroke="#000000" d="M299,-215.8314C299,-208.131 299,-198.9743 299,-190.4166"/>
<polygon fill="#000000" stroke="#000000" points="302.5001,-190.4132 299,-180.4133 295.5001,-190.4133 302.5001,-190.4132"/>
</g>
<!-- random -->
<g id="node25" class="node">
<title>random</title>
<g id="a_node25"><a xlink:href="group_mrpt_random_grp.html" xlink:title="mrpt&#45;random">
<polygon fill="#d0d0d0" stroke="#000000" points="258.5,-36 169.5,-36 169.5,0 258.5,0 258.5,-36"/>
<text text-anchor="middle" x="214" y="-14.3" font-family="Times,serif" font-size="14.00" fill="#000000">mrpt&#45;random</text>
</a>
</g>
</g>
<!-- math&#45;&gt;random -->
<g id="edge32" class="edge">
<title>math&#45;&gt;random</title>
<path fill="none" stroke="#000000" d="M267.4032,-215.7696C254.591,-206.6983 240.9628,-194.5444 233,-180 209.9308,-137.8632 209.0924,-80.4342 211.152,-46.4829"/>
<polygon fill="#000000" stroke="#000000" points="214.6554,-46.5636 211.898,-36.3339 207.6743,-46.0504 214.6554,-46.5636"/>
</g>
<!-- nanoflann -->
<g id="node26" class="node">
<title>nanoflann</title>
<g id="a_node26"><a xlink:href="group_nanoflann_grp.html" xlink:title="mrpt&#45;nanoflann">
<polygon fill="#d0d0d0" stroke="#000000" points="516.5,-36 415.5,-36 415.5,0 516.5,0 516.5,-36"/>
<text text-anchor="middle" x="466" y="-14.3" font-family="Times,serif" font-size="14.00" fill="#000000">mrpt&#45;nanoflann</text>
</a>
</g>
</g>
<!-- math&#45;&gt;nanoflann -->
<g id="edge34" class="edge">
<title>math&#45;&gt;nanoflann</title>
<path fill="none" stroke="#000000" d="M324.4008,-215.924C337.1369,-206.1427 352.2981,-193.3489 364,-180 401.4878,-137.236 434.431,-79.2646 452.1571,-45.5198"/>
<polygon fill="#000000" stroke="#000000" points="455.4556,-46.7616 456.9513,-36.2729 449.2412,-43.5396 455.4556,-46.7616"/>
</g>
<!-- expr -->
<g id="node12" class="node">
<title>expr</title>
<g id="a_node12"><a xlink:href="group_mrpt_expr_grp.html" xlink:title="mrpt&#45;expr">
<polygon fill="#d0d0d0" stroke="#000000" points="242.5,-252 171.5,-252 171.5,-216 242.5,-216 242.5,-252"/>
<text text-anchor="middle" x="207" y="-230.3" font-family="Times,serif" font-size="14.00" fill="#000000">mrpt&#45;expr</text>
</a>
</g>
</g>
<!-- config&#45;&gt;expr -->
<g id="edge9" class="edge">
<title>config&#45;&gt;expr</title>
<path fill="none" stroke="#000000" d="M201.7664,-287.8314C202.515,-280.131 203.4053,-270.9743 204.2373,-262.4166"/>
<polygon fill="#000000" stroke="#000000" points="207.7256,-262.7051 205.2098,-252.4133 200.7585,-262.0276 207.7256,-262.7051"/>
</g>
<!-- config&#45;&gt;system -->
<g id="edge10" class="edge">
<title>config&#45;&gt;system</title>
<path fill="none" stroke="#000000" d="M184.254,-287.6429C176.4748,-277.6881 167.5829,-264.8229 162,-252 153.4204,-232.2941 148.6105,-208.4331 145.9779,-190.2324"/>
<polygon fill="#000000" stroke="#000000" points="149.4387,-189.704 144.6674,-180.2443 142.4981,-190.6147 149.4387,-189.704"/>
</g>
<!-- io -->
<g id="node11" class="node">
<title>io</title>
<g id="a_node11"><a xlink:href="group_mrpt_io_grp.html" xlink:title="mrpt&#45;io">
<polygon fill="#d0d0d0" stroke="#000000" points="134,-324 76,-324 76,-288 134,-288 134,-324"/>
<text text-anchor="middle" x="105" y="-302.3" font-family="Times,serif" font-size="14.00" fill="#000000">mrpt&#45;io</text>
</a>
</g>
</g>
<!-- comms&#45;&gt;io -->
<g id="edge8" class="edge">
<title>comms&#45;&gt;io</title>
<path fill="none" stroke="#000000" d="M51.7257,-431.7623C62.2218,-406.9846 81.0781,-362.4714 93.3109,-333.5939"/>
<polygon fill="#000000" stroke="#000000" points="96.6592,-334.6628 97.337,-324.0896 90.2136,-331.9323 96.6592,-334.6628"/>
</g>
<!-- io&#45;&gt;system -->
<g id="edge27" class="edge">
<title>io&#45;&gt;system</title>
<path fill="none" stroke="#000000" d="M109.8127,-287.7623C116.3227,-263.0928 127.9953,-218.8598 135.6182,-189.9731"/>
<polygon fill="#000000" stroke="#000000" points="139.0589,-190.6517 138.2264,-180.0896 132.2906,-188.8656 139.0589,-190.6517"/>
</g>
<!-- expr&#45;&gt;system -->
<g id="edge14" class="edge">
<title>expr&#45;&gt;system</title>
<path fill="none" stroke="#000000" d="M190.8501,-215.8314C183.3283,-207.3694 174.2435,-197.1489 166.0196,-187.8971"/>
<polygon fill="#000000" stroke="#000000" points="168.627,-185.5621 159.3673,-180.4133 163.3951,-190.2127 168.627,-185.5621"/>
</g>
<!-- containers -->
<g id="node14" class="node">
<title>containers</title>
<g id="a_node14"><a xlink:href="group_mrpt_containers_grp.html" xlink:title="mrpt&#45;containers">
<polygon fill="#d0d0d0" stroke="#000000" points="176.5,-108 73.5,-108 73.5,-72 176.5,-72 176.5,-108"/>
<text text-anchor="middle" x="125" y="-86.3" font-family="Times,serif" font-size="14.00" fill="#000000">mrpt&#45;containers</text>
</a>
</g>
</g>
<!-- system&#45;&gt;containers -->
<g id="edge49" class="edge">
<title>system&#45;&gt;containers</title>
<path fill="none" stroke="#000000" d="M138.4578,-143.8314C136.5116,-136.0463 134.1932,-126.7729 132.0337,-118.1347"/>
<polygon fill="#000000" stroke="#000000" points="135.4242,-117.2658 129.6033,-108.4133 128.6332,-118.9636 135.4242,-117.2658"/>
</g>
<!-- typemeta -->
<g id="node31" class="node">
<title>typemeta</title>
<g id="a_node31"><a xlink:href="group_mrpt_typemeta_grp.html" xlink:title="mrpt&#45;typemeta (.h)">
<polygon fill="#d0d0d0" stroke="#000000" points="397.5,-36 276.5,-36 276.5,0 397.5,0 397.5,-36"/>
<text text-anchor="middle" x="337" y="-14.3" font-family="Times,serif" font-size="14.00" fill="#000000">mrpt&#45;typemeta (.h)</text>
</a>
</g>
</g>
<!-- system&#45;&gt;typemeta -->
<g id="edge48" class="edge">
<title>system&#45;&gt;typemeta</title>
<path fill="none" stroke="#000000" d="M186.2137,-153.744C231.7418,-144.1812 299.2691,-127.2527 317,-108 332.1872,-91.5093 336.7428,-66.1228 337.7541,-46.511"/>
<polygon fill="#000000" stroke="#000000" points="341.258,-46.383 337.9964,-36.3028 334.26,-46.2169 341.258,-46.383"/>
</g>
<!-- core -->
<g id="node15" class="node">
<title>core</title>
<g id="a_node15"><a xlink:href="group_mrpt_core_grp.html" xlink:title="mrpt&#45;core">
<polygon fill="#d0d0d0" stroke="#000000" points="151.5,-36 80.5,-36 80.5,0 151.5,0 151.5,-36"/>
<text text-anchor="middle" x="116" y="-14.3" font-family="Times,serif" font-size="14.00" fill="#000000">mrpt&#45;core</text>
</a>
</g>
</g>
<!-- containers&#45;&gt;core -->
<g id="edge11" class="edge">
<title>containers&#45;&gt;core</title>
<path fill="none" stroke="#000000" d="M122.7289,-71.8314C121.7664,-64.131 120.6218,-54.9743 119.5521,-46.4166"/>
<polygon fill="#000000" stroke="#000000" points="123.0151,-45.9019 118.3017,-36.4133 116.0691,-46.7702 123.0151,-45.9019"/>
</g>
<!-- detectors -->
<g id="node16" class="node">
<title>detectors</title>
<g id="a_node16"><a xlink:href="group_mrpt_detectors_grp.html" xlink:title="mrpt&#45;detectors">
<polygon fill="#d0d0d0" stroke="#000000" points="551,-828 455,-828 455,-792 551,-792 551,-828"/>
<text text-anchor="middle" x="503" y="-806.3" font-family="Times,serif" font-size="14.00" fill="#000000">mrpt&#45;detectors</text>
</a>
</g>
</g>
<!-- detectors&#45;&gt;gui -->
<g id="edge12" class="edge">
<title>detectors&#45;&gt;gui</title>
<path fill="none" stroke="#000000" d="M465.6534,-791.8314C444.7671,-781.6705 418.669,-768.9741 397.0646,-758.4639"/>
<polygon fill="#000000" stroke="#000000" points="398.3236,-755.1842 387.8001,-753.9568 395.2613,-761.4788 398.3236,-755.1842"/>
</g>
<!-- detectors&#45;&gt;slam -->
<g id="edge13" class="edge">
<title>detectors&#45;&gt;slam</title>
<path fill="none" stroke="#000000" d="M487.8595,-791.8314C480.8783,-783.454 472.4609,-773.3531 464.8124,-764.1749"/>
<polygon fill="#000000" stroke="#000000" points="467.4351,-761.8548 458.3444,-756.4133 462.0575,-766.3362 467.4351,-761.8548"/>
</g>
<!-- graphs -->
<g id="node17" class="node">
<title>graphs</title>
<g id="a_node17"><a xlink:href="group_mrpt_graphs_grp.html" xlink:title="mrpt&#45;graphs">
<polygon fill="#d0d0d0" stroke="#000000" points="284.5,-612 201.5,-612 201.5,-576 284.5,-576 284.5,-612"/>
<text text-anchor="middle" x="243" y="-590.3" font-family="Times,serif" font-size="14.00" fill="#000000">mrpt&#45;graphs</text>
</a>
</g>
</g>
<!-- graphs&#45;&gt;opengl -->
<g id="edge15" class="edge">
<title>graphs&#45;&gt;opengl</title>
<path fill="none" stroke="#000000" d="M245.2711,-575.8314C246.2336,-568.131 247.3782,-558.9743 248.4479,-550.4166"/>
<polygon fill="#000000" stroke="#000000" points="251.9309,-550.7702 249.6983,-540.4133 244.9849,-549.9019 251.9309,-550.7702"/>
</g>
<!-- img -->
<g id="node21" class="node">
<title>img</title>
<g id="a_node21"><a xlink:href="group_mrpt_img_grp.html" xlink:title="mrpt&#45;img">
<polygon fill="#d0d0d0" stroke="#000000" points="238.5,-396 169.5,-396 169.5,-360 238.5,-360 238.5,-396"/>
<text text-anchor="middle" x="204" y="-374.3" font-family="Times,serif" font-size="14.00" fill="#000000">mrpt&#45;img</text>
</a>
</g>
</g>
<!-- opengl&#45;&gt;img -->
<g id="edge40" class="edge">
<title>opengl&#45;&gt;img</title>
<path fill="none" stroke="#000000" d="M245.9208,-503.7623C237.6615,-478.9846 222.8238,-434.4714 213.198,-405.5939"/>
<polygon fill="#000000" stroke="#000000" points="216.5126,-404.4696 210.0299,-396.0896 209.8718,-406.6833 216.5126,-404.4696"/>
</g>
<!-- poses -->
<g id="node29" class="node">
<title>poses</title>
<g id="a_node29"><a xlink:href="group_mrpt_poses_grp.html" xlink:title="mrpt&#45;poses">
<polygon fill="#d0d0d0" stroke="#000000" points="341.5,-468 264.5,-468 264.5,-432 341.5,-432 341.5,-468"/>
<text text-anchor="middle" x="303" y="-446.3" font-family="Times,serif" font-size="14.00" fill="#000000">mrpt&#45;poses</text>
</a>
</g>
</g>
<!-- opengl&#45;&gt;poses -->
<g id="edge39" class="edge">
<title>opengl&#45;&gt;poses</title>
<path fill="none" stroke="#000000" d="M264.8695,-503.8314C270.6835,-495.6232 277.6696,-485.7606 284.0646,-476.7323"/>
<polygon fill="#000000" stroke="#000000" points="287.0331,-478.5966 289.9573,-468.4133 281.321,-474.5505 287.0331,-478.5966"/>
</g>
<!-- maps&#45;&gt;graphs -->
<g id="edge29" class="edge">
<title>maps&#45;&gt;graphs</title>
<path fill="none" stroke="#000000" d="M243.7477,-647.8314C243.6407,-640.131 243.5135,-630.9743 243.3947,-622.4166"/>
<polygon fill="#000000" stroke="#000000" points="246.8944,-622.3637 243.2557,-612.4133 239.8951,-622.4609 246.8944,-622.3637"/>
</g>
<!-- obs -->
<g id="node23" class="node">
<title>obs</title>
<g id="a_node23"><a xlink:href="group_mrpt_obs_grp.html" xlink:title="mrpt&#45;obs">
<polygon fill="#d0d0d0" stroke="#000000" points="407,-612 341,-612 341,-576 407,-576 407,-612"/>
<text text-anchor="middle" x="374" y="-590.3" font-family="Times,serif" font-size="14.00" fill="#000000">mrpt&#45;obs</text>
</a>
</g>
</g>
<!-- maps&#45;&gt;obs -->
<g id="edge30" class="edge">
<title>maps&#45;&gt;obs</title>
<path fill="none" stroke="#000000" d="M276.8045,-647.8314C293.5862,-638.5368 314.1985,-627.1208 332.1163,-617.1971"/>
<polygon fill="#000000" stroke="#000000" points="334.1538,-620.0696 341.206,-612.1628 330.7623,-613.9461 334.1538,-620.0696"/>
</g>
<!-- vision&#45;&gt;obs -->
<g id="edge52" class="edge">
<title>vision&#45;&gt;obs</title>
<path fill="none" stroke="#000000" d="M379.2336,-647.8314C378.485,-640.131 377.5947,-630.9743 376.7627,-622.4166"/>
<polygon fill="#000000" stroke="#000000" points="380.2415,-622.0276 375.7902,-612.4133 373.2744,-622.7051 380.2415,-622.0276"/>
</g>
<!-- img&#45;&gt;math -->
<g id="edge25" class="edge">
<title>img&#45;&gt;math</title>
<path fill="none" stroke="#000000" d="M221.1795,-359.7734C230.2885,-349.6486 241.3513,-336.5859 250,-324 263.7506,-303.9897 276.7658,-279.737 285.9219,-261.4519"/>
<polygon fill="#000000" stroke="#000000" points="289.1852,-262.7477 290.4665,-252.2306 282.9063,-259.6532 289.1852,-262.7477"/>
</g>
<!-- img&#45;&gt;config -->
<g id="edge26" class="edge">
<title>img&#45;&gt;config</title>
<path fill="none" stroke="#000000" d="M202.9906,-359.8314C202.5628,-352.131 202.0541,-342.9743 201.5787,-334.4166"/>
<polygon fill="#000000" stroke="#000000" points="205.0724,-334.2037 201.023,-324.4133 198.0831,-334.592 205.0724,-334.2037"/>
</g>
<!-- img&#45;&gt;io -->
<g id="edge24" class="edge">
<title>img&#45;&gt;io</title>
<path fill="none" stroke="#000000" d="M179.0181,-359.8314C166.7072,-350.8779 151.6893,-339.9558 138.4063,-330.2955"/>
<polygon fill="#000000" stroke="#000000" points="140.1199,-327.214 129.9739,-324.1628 136.0027,-332.8752 140.1199,-327.214"/>
</g>
<!-- kinematics -->
<g id="node22" class="node">
<title>kinematics</title>
<g id="a_node22"><a xlink:href="group_mrpt_kinematics_grp.html" xlink:title="mrpt&#45;kinematics">
<polygon fill="#d0d0d0" stroke="#000000" points="170.5,-612 63.5,-612 63.5,-576 170.5,-576 170.5,-612"/>
<text text-anchor="middle" x="117" y="-590.3" font-family="Times,serif" font-size="14.00" fill="#000000">mrpt&#45;kinematics</text>
</a>
</g>
</g>
<!-- kinematics&#45;&gt;opengl -->
<g id="edge28" class="edge">
<title>kinematics&#45;&gt;opengl</title>
<path fill="none" stroke="#000000" d="M151.0662,-575.8314C168.6533,-566.4516 190.2916,-554.9112 209.0168,-544.9244"/>
<polygon fill="#000000" stroke="#000000" points="210.7682,-547.957 217.9447,-540.1628 207.4741,-541.7805 210.7682,-547.957"/>
</g>
<!-- obs&#45;&gt;opengl -->
<g id="edge37" class="edge">
<title>obs&#45;&gt;opengl</title>
<path fill="none" stroke="#000000" d="M343.2142,-575.8314C327.6097,-566.6221 308.476,-555.3301 291.7697,-545.4706"/>
<polygon fill="#000000" stroke="#000000" points="293.1669,-542.2312 282.7759,-540.1628 289.6091,-548.2596 293.1669,-542.2312"/>
</g>
<!-- tfest -->
<g id="node28" class="node">
<title>tfest</title>
<g id="a_node28"><a xlink:href="group_mrpt_tfest_grp.html" xlink:title="mrpt&#45;tfest">
<polygon fill="#d0d0d0" stroke="#000000" points="400.5,-540 329.5,-540 329.5,-504 400.5,-504 400.5,-540"/>
<text text-anchor="middle" x="365" y="-518.3" font-family="Times,serif" font-size="14.00" fill="#000000">mrpt&#45;tfest</text>
</a>
</g>
</g>
<!-- obs&#45;&gt;tfest -->
<g id="edge38" class="edge">
<title>obs&#45;&gt;tfest</title>
<path fill="none" stroke="#000000" d="M371.7289,-575.8314C370.7664,-568.131 369.6218,-558.9743 368.5521,-550.4166"/>
<polygon fill="#000000" stroke="#000000" points="372.0151,-549.9019 367.3017,-540.4133 365.0691,-550.7702 372.0151,-549.9019"/>
</g>
<!-- rtti -->
<g id="node30" class="node">
<title>rtti</title>
<g id="a_node30"><a xlink:href="group_mrpt_rtti_grp.html" xlink:title="mrpt&#45;rtti">
<polygon fill="#d0d0d0" stroke="#000000" points="308.5,-108 245.5,-108 245.5,-72 308.5,-72 308.5,-108"/>
<text text-anchor="middle" x="277" y="-86.3" font-family="Times,serif" font-size="14.00" fill="#000000">mrpt&#45;rtti</text>
</a>
</g>
</g>
<!-- serialization&#45;&gt;rtti -->
<g id="edge45" class="edge">
<title>serialization&#45;&gt;rtti</title>
<path fill="none" stroke="#000000" d="M293.4485,-143.8314C291.0697,-136.0463 288.2362,-126.7729 285.5967,-118.1347"/>
<polygon fill="#000000" stroke="#000000" points="288.8958,-116.954 282.6263,-108.4133 282.2013,-118.9996 288.8958,-116.954"/>
</g>
<!-- nav -->
<g id="node27" class="node">
<title>nav</title>
<g id="a_node27"><a xlink:href="group_mrpt_nav_grp.html" xlink:title="mrpt&#45;nav">
<polygon fill="#d0d0d0" stroke="#000000" points="104.5,-756 37.5,-756 37.5,-720 104.5,-720 104.5,-756"/>
<text text-anchor="middle" x="71" y="-734.3" font-family="Times,serif" font-size="14.00" fill="#000000">mrpt&#45;nav</text>
</a>
</g>
</g>
<!-- nav&#45;&gt;maps -->
<g id="edge36" class="edge">
<title>nav&#45;&gt;maps</title>
<path fill="none" stroke="#000000" d="M104.9088,-723.4198C107.6444,-722.2581 110.3672,-721.1067 113,-720 140.3271,-708.5125 170.9539,-695.8747 195.7189,-685.7148"/>
<polygon fill="#000000" stroke="#000000" points="197.3243,-688.8395 205.2498,-681.8084 194.6694,-682.3625 197.3243,-688.8395"/>
</g>
<!-- nav&#45;&gt;kinematics -->
<g id="edge35" class="edge">
<title>nav&#45;&gt;kinematics</title>
<path fill="none" stroke="#000000" d="M76.8259,-719.7623C84.7065,-695.0928 98.8365,-650.8598 108.0642,-621.9731"/>
<polygon fill="#000000" stroke="#000000" points="111.5124,-622.6805 111.2214,-612.0896 104.8443,-620.5503 111.5124,-622.6805"/>
</g>
<!-- tfest&#45;&gt;poses -->
<g id="edge50" class="edge">
<title>tfest&#45;&gt;poses</title>
<path fill="none" stroke="#000000" d="M349.3548,-503.8314C342.1409,-495.454 333.443,-485.3531 325.5395,-476.1749"/>
<polygon fill="#000000" stroke="#000000" points="328.0333,-473.7071 318.8559,-468.4133 322.7289,-478.2748 328.0333,-473.7071"/>
</g>
<!-- poses&#45;&gt;bayes -->
<g id="edge41" class="edge">
<title>poses&#45;&gt;bayes</title>
<path fill="none" stroke="#000000" d="M303,-431.8314C303,-424.131 303,-414.9743 303,-406.4166"/>
<polygon fill="#000000" stroke="#000000" points="306.5001,-406.4132 303,-396.4133 299.5001,-406.4133 306.5001,-406.4132"/>
</g>
<!-- rtti&#45;&gt;core -->
<g id="edge42" class="edge">
<title>rtti&#45;&gt;core</title>
<path fill="none" stroke="#000000" d="M245.1916,-75.7751C221.0906,-64.9971 187.6626,-50.0479 160.8482,-38.0563"/>
<polygon fill="#000000" stroke="#000000" points="162.2232,-34.8372 151.6656,-33.9498 159.3654,-41.2274 162.2232,-34.8372"/>
</g>
<!-- rtti&#45;&gt;typemeta -->
<g id="edge43" class="edge">
<title>rtti&#45;&gt;typemeta</title>
<path fill="none" stroke="#000000" d="M292.1405,-71.8314C299.1217,-63.454 307.5391,-53.3531 315.1876,-44.1749"/>
<polygon fill="#000000" stroke="#000000" points="317.9425,-46.3362 321.6556,-36.4133 312.5649,-41.8548 317.9425,-46.3362"/>
</g>
<!-- ros1bridge -->
<g id="node32" class="node">
<title>ros1bridge</title>
<g id="a_node32"><a xlink:href="group_mrpt_ros1bridge_grp.html" xlink:title="mrpt&#45;ros1bridge">
<polygon fill="#d0d0d0" stroke="#000000" points="227.5,-756 122.5,-756 122.5,-720 227.5,-720 227.5,-756"/>
<text text-anchor="middle" x="175" y="-734.3" font-family="Times,serif" font-size="14.00" fill="#000000">mrpt&#45;ros1bridge</text>
</a>
</g>
</g>
<!-- ros1bridge&#45;&gt;maps -->
<g id="edge44" class="edge">
<title>ros1bridge&#45;&gt;maps</title>
<path fill="none" stroke="#000000" d="M192.4116,-719.8314C200.521,-711.3694 210.3156,-701.1489 219.182,-691.8971"/>
<polygon fill="#000000" stroke="#000000" points="221.9618,-694.0549 226.354,-684.4133 216.9079,-689.2115 221.9618,-694.0549"/>
</g>
<!-- topography -->
<g id="node33" class="node">
<title>topography</title>
<g id="a_node33"><a xlink:href="group_mrpt_topography_grp.html" xlink:title="mrpt&#45;topography">
<polygon fill="#d0d0d0" stroke="#000000" points="548.5,-684 439.5,-684 439.5,-648 548.5,-648 548.5,-684"/>
<text text-anchor="middle" x="494" y="-662.3" font-family="Times,serif" font-size="14.00" fill="#000000">mrpt&#45;topography</text>
</a>
</g>
</g>
<!-- topography&#45;&gt;obs -->
<g id="edge51" class="edge">
<title>topography&#45;&gt;obs</title>
<path fill="none" stroke="#000000" d="M463.7189,-647.8314C448.3702,-638.6221 429.5502,-627.3301 413.1177,-617.4706"/>
<polygon fill="#000000" stroke="#000000" points="414.6471,-614.3066 404.2714,-612.1628 411.0456,-620.3091 414.6471,-614.3066"/>
</g>
<!-- visionlgpl -->
<g id="node34" class="node">
<title>visionlgpl</title>
<g id="a_node34"><a xlink:href="group_mrpt_vision_lgpl_grp.html" xlink:title="mrpt&#45;vision&#45;lgpl">
<polygon fill="#d0d0d0" stroke="#000000" points="604,-756 498,-756 498,-720 604,-720 604,-756"/>
<text text-anchor="middle" x="551" y="-734.3" font-family="Times,serif" font-size="14.00" fill="#000000">mrpt&#45;vision&#45;lgpl</text>
</a>
</g>
</g>
<!-- visionlgpl&#45;&gt;vision -->
<g id="edge53" class="edge">
<title>visionlgpl&#45;&gt;vision</title>
<path fill="none" stroke="#000000" d="M508.1018,-719.8314C484.5696,-709.8648 455.2776,-697.4588 430.7466,-687.0692"/>
<polygon fill="#000000" stroke="#000000" points="431.8271,-683.7259 421.254,-683.0487 429.0972,-690.1716 431.8271,-683.7259"/>
</g>
</g>
</svg>
