<?xml version="1.0" encoding="UTF-8" standalone="no"?>
<!DOCTYPE svg PUBLIC "-//W3C//DTD SVG 1.1//EN"
 "http://www.w3.org/Graphics/SVG/1.1/DTD/svg11.dtd">
<!-- Generated by graphviz version 2.43.0 (0)
 -->
<!-- Title: MRPT_LIBS Pages: 1 -->
<svg width="885pt" height="908pt"
 viewBox="0.00 0.00 884.50 908.00" xmlns="http://www.w3.org/2000/svg" xmlns:xlink="http://www.w3.org/1999/xlink">
<g id="graph0" class="graph" transform="scale(1 1) rotate(0) translate(4 904)">
<title>MRPT_LIBS</title>
<polygon fill="white" stroke="transparent" points="-4,4 -4,-904 880.5,-904 880.5,4 -4,4"/>
<!-- apps -->
<g id="node1" class="node">
<title>apps</title>
<g id="a_node1"><a target="_top" href="group_mrpt_bayes_grp.html" title="mrpt&#45;apps">
<polygon fill="#d0d0d0" stroke="black" points="335,-900 245,-900 245,-864 335,-864 335,-900"/>
<text text-anchor="middle" x="290" y="-878.3" font-family="Times,serif" font-size="14.00">mrpt&#45;apps</text>
</a>
</g>
</g>
<!-- gui -->
<g id="node2" class="node">
<title>gui</title>
<g id="a_node2"><a target="_top" href="group_mrpt_gui_grp.html" title="mrpt&#45;gui">
<polygon fill="#d0d0d0" stroke="black" points="335.5,-756 256.5,-756 256.5,-720 335.5,-720 335.5,-756"/>
<text text-anchor="middle" x="296" y="-734.3" font-family="Times,serif" font-size="14.00">mrpt&#45;gui</text>
</a>
</g>
</g>
<!-- apps&#45;&gt;gui -->
<g id="edge1" class="edge">
<title>apps&#45;&gt;gui</title>
<path fill="none" stroke="black" d="M335.24,-868.5C355.41,-860.43 377.23,-847.65 389,-828 397.22,-814.27 397.04,-805.83 389,-792 379.31,-775.32 362.19,-763.46 345.26,-755.24"/>
<polygon fill="black" stroke="black" points="346.48,-751.95 335.92,-751.05 343.61,-758.34 346.48,-751.95"/>
</g>
<!-- slam -->
<g id="node3" class="node">
<title>slam</title>
<g id="a_node3"><a target="_top" href="group_mrpt_slam_grp.html" title="mrpt&#45;slam">
<polygon fill="#d0d0d0" stroke="black" points="238,-756 148,-756 148,-720 238,-720 238,-756"/>
<text text-anchor="middle" x="193" y="-734.3" font-family="Times,serif" font-size="14.00">mrpt&#45;slam</text>
</a>
</g>
</g>
<!-- apps&#45;&gt;slam -->
<g id="edge2" class="edge">
<title>apps&#45;&gt;slam</title>
<path fill="none" stroke="black" d="M244.9,-874.96C193.67,-867.06 114.85,-851.42 97,-828 87.3,-815.28 88.87,-805.78 97,-792 106.3,-776.24 122.16,-764.84 138.33,-756.75"/>
<polygon fill="black" stroke="black" points="140.23,-759.73 147.84,-752.36 137.29,-753.37 140.23,-759.73"/>
</g>
<!-- hwdrivers -->
<g id="node4" class="node">
<title>hwdrivers</title>
<g id="a_node4"><a target="_top" href="group_mrpt_hwdrivers_grp.html" title="mrpt&#45;hwdrivers">
<polygon fill="#d0d0d0" stroke="black" points="564,-828 436,-828 436,-792 564,-792 564,-828"/>
<text text-anchor="middle" x="500" y="-806.3" font-family="Times,serif" font-size="14.00">mrpt&#45;hwdrivers</text>
</a>
</g>
</g>
<!-- apps&#45;&gt;hwdrivers -->
<g id="edge3" class="edge">
<title>apps&#45;&gt;hwdrivers</title>
<path fill="none" stroke="black" d="M335.05,-865.98C365.43,-855.86 405.89,-842.37 439.13,-831.29"/>
<polygon fill="black" stroke="black" points="440.37,-834.57 448.75,-828.08 438.16,-827.93 440.37,-834.57"/>
</g>
<!-- graphslam -->
<g id="node5" class="node">
<title>graphslam</title>
<g id="a_node5"><a target="_top" href="group_mrpt_graphslam_grp.html" title="mrpt&#45;graphslam">
<polygon fill="#d0d0d0" stroke="black" points="238,-828 106,-828 106,-792 238,-792 238,-828"/>
<text text-anchor="middle" x="172" y="-806.3" font-family="Times,serif" font-size="14.00">mrpt&#45;graphslam</text>
</a>
</g>
</g>
<!-- apps&#45;&gt;graphslam -->
<g id="edge4" class="edge">
<title>apps&#45;&gt;graphslam</title>
<path fill="none" stroke="black" d="M261.13,-863.88C245.71,-854.72 226.52,-843.34 209.9,-833.48"/>
<polygon fill="black" stroke="black" points="211.36,-830.28 200.98,-828.19 207.79,-836.3 211.36,-830.28"/>
</g>
<!-- opengl -->
<g id="node18" class="node">
<title>opengl</title>
<g id="a_node18"><a target="_top" href="group_mrpt_opengl_grp.html" title="mrpt&#45;opengl">
<polygon fill="#d0d0d0" stroke="black" points="646,-540 542,-540 542,-504 646,-504 646,-540"/>
<text text-anchor="middle" x="594" y="-518.3" font-family="Times,serif" font-size="14.00">mrpt&#45;opengl</text>
</a>
</g>
</g>
<!-- gui&#45;&gt;opengl -->
<g id="edge17" class="edge">
<title>gui&#45;&gt;opengl</title>
<path fill="none" stroke="black" d="M335.78,-729.32C394.28,-717.7 498.01,-695.79 511,-684 548.68,-649.8 523.67,-620.13 549,-576 554.65,-566.16 562.21,-556.41 569.53,-548"/>
<polygon fill="black" stroke="black" points="572.29,-550.16 576.39,-540.39 567.09,-545.47 572.29,-550.16"/>
</g>
<!-- maps -->
<g id="node19" class="node">
<title>maps</title>
<g id="a_node19"><a target="_top" href="group_mrpt_maps_grp.html" title="mrpt&#45;maps">
<polygon fill="#d0d0d0" stroke="black" points="658.5,-684 563.5,-684 563.5,-648 658.5,-648 658.5,-684"/>
<text text-anchor="middle" x="611" y="-662.3" font-family="Times,serif" font-size="14.00">mrpt&#45;maps</text>
</a>
</g>
</g>
<!-- slam&#45;&gt;maps -->
<g id="edge44" class="edge">
<title>slam&#45;&gt;maps</title>
<path fill="none" stroke="black" d="M238.22,-722.15C241.18,-721.37 244.12,-720.64 247,-720 362.56,-694.13 393.95,-701.93 511,-684 524.8,-681.89 539.64,-679.45 553.55,-677.1"/>
<polygon fill="black" stroke="black" points="554.22,-680.54 563.49,-675.4 553.05,-673.63 554.22,-680.54"/>
</g>
<!-- vision -->
<g id="node20" class="node">
<title>vision</title>
<g id="a_node20"><a target="_top" href="group_mrpt_vision_grp.html" title="mrpt&#45;vision">
<polygon fill="#d0d0d0" stroke="black" points="294,-684 196,-684 196,-648 294,-648 294,-684"/>
<text text-anchor="middle" x="245" y="-662.3" font-family="Times,serif" font-size="14.00">mrpt&#45;vision</text>
</a>
</g>
</g>
<!-- slam&#45;&gt;vision -->
<g id="edge45" class="edge">
<title>slam&#45;&gt;vision</title>
<path fill="none" stroke="black" d="M205.85,-719.7C212.03,-711.39 219.54,-701.28 226.32,-692.14"/>
<polygon fill="black" stroke="black" points="229.14,-694.22 232.29,-684.1 223.52,-690.04 229.14,-694.22"/>
</g>
<!-- hwdrivers&#45;&gt;gui -->
<g id="edge19" class="edge">
<title>hwdrivers&#45;&gt;gui</title>
<path fill="none" stroke="black" d="M450.36,-791.97C418.4,-781 377.03,-766.81 345.17,-755.87"/>
<polygon fill="black" stroke="black" points="346.2,-752.53 335.61,-752.59 343.93,-759.15 346.2,-752.53"/>
</g>
<!-- comms -->
<g id="node9" class="node">
<title>comms</title>
<g id="a_node9"><a target="_top" href="group_mrpt_comms_grp.html" title="mrpt&#45;comms">
<polygon fill="#d0d0d0" stroke="black" points="876.5,-468 769.5,-468 769.5,-432 876.5,-432 876.5,-468"/>
<text text-anchor="middle" x="823" y="-446.3" font-family="Times,serif" font-size="14.00">mrpt&#45;comms</text>
</a>
</g>
</g>
<!-- hwdrivers&#45;&gt;comms -->
<g id="edge18" class="edge">
<title>hwdrivers&#45;&gt;comms</title>
<path fill="none" stroke="black" d="M564.35,-806.89C648.22,-802.77 788.52,-790.75 825,-756 854.29,-728.1 844,-707.45 844,-667 844,-667 844,-667 844,-593 844,-552.78 835.65,-506.84 829.49,-478.37"/>
<polygon fill="black" stroke="black" points="832.85,-477.36 827.25,-468.37 826.01,-478.89 832.85,-477.36"/>
</g>
<!-- hwdrivers&#45;&gt;maps -->
<g id="edge20" class="edge">
<title>hwdrivers&#45;&gt;maps</title>
<path fill="none" stroke="black" d="M564.21,-799.21C612.2,-790.42 671.99,-775.85 687,-756 696.65,-743.24 694.4,-734.19 687,-720 680.53,-707.61 669.7,-697.52 658.21,-689.6"/>
<polygon fill="black" stroke="black" points="660.09,-686.65 649.78,-684.22 656.32,-692.55 660.09,-686.65"/>
</g>
<!-- hwdrivers&#45;&gt;vision -->
<g id="edge21" class="edge">
<title>hwdrivers&#45;&gt;vision</title>
<path fill="none" stroke="black" d="M453.49,-791.96C431.28,-782.83 404.84,-770.48 383,-756 363.34,-742.97 363.22,-733.68 344,-720 327.65,-708.36 308.44,-697.52 291.32,-688.71"/>
<polygon fill="black" stroke="black" points="292.55,-685.41 282.05,-684.03 289.4,-691.66 292.55,-685.41"/>
</g>
<!-- graphslam&#45;&gt;gui -->
<g id="edge15" class="edge">
<title>graphslam&#45;&gt;gui</title>
<path fill="none" stroke="black" d="M202.33,-791.88C218.7,-782.64 239.08,-771.13 256.65,-761.21"/>
<polygon fill="black" stroke="black" points="258.56,-764.15 265.55,-756.19 255.12,-758.06 258.56,-764.15"/>
</g>
<!-- graphslam&#45;&gt;slam -->
<g id="edge16" class="edge">
<title>graphslam&#45;&gt;slam</title>
<path fill="none" stroke="black" d="M177.19,-791.7C179.53,-783.9 182.35,-774.51 184.95,-765.83"/>
<polygon fill="black" stroke="black" points="188.35,-766.69 187.87,-756.1 181.64,-764.68 188.35,-766.69"/>
</g>
<!-- bayes -->
<g id="node6" class="node">
<title>bayes</title>
<g id="a_node6"><a target="_top" href="group_mrpt_bayes_grp.html" title="mrpt&#45;bayes">
<polygon fill="#d0d0d0" stroke="black" points="595,-396 497,-396 497,-360 595,-360 595,-396"/>
<text text-anchor="middle" x="546" y="-374.3" font-family="Times,serif" font-size="14.00">mrpt&#45;bayes</text>
</a>
</g>
</g>
<!-- math -->
<g id="node7" class="node">
<title>math</title>
<g id="a_node7"><a target="_top" href="group_mrpt_math_grp.html" title="mrpt&#45;math">
<polygon fill="#d0d0d0" stroke="black" points="600.5,-252 507.5,-252 507.5,-216 600.5,-216 600.5,-252"/>
<text text-anchor="middle" x="554" y="-230.3" font-family="Times,serif" font-size="14.00">mrpt&#45;math</text>
</a>
</g>
</g>
<!-- bayes&#45;&gt;math -->
<g id="edge5" class="edge">
<title>bayes&#45;&gt;math</title>
<path fill="none" stroke="black" d="M546.96,-359.87C548.33,-335.67 550.83,-291.21 552.46,-262.39"/>
<polygon fill="black" stroke="black" points="555.96,-262.37 553.03,-252.19 548.97,-261.98 555.96,-262.37"/>
</g>
<!-- config -->
<g id="node8" class="node">
<title>config</title>
<g id="a_node8"><a target="_top" href="group_mrpt_config_grp.html" title="mrpt&#45;config">
<polygon fill="#d0d0d0" stroke="black" points="709,-324 609,-324 609,-288 709,-288 709,-324"/>
<text text-anchor="middle" x="659" y="-302.3" font-family="Times,serif" font-size="14.00">mrpt&#45;config</text>
</a>
</g>
</g>
<!-- bayes&#45;&gt;config -->
<g id="edge6" class="edge">
<title>bayes&#45;&gt;config</title>
<path fill="none" stroke="black" d="M573.64,-359.88C588.42,-350.72 606.79,-339.34 622.7,-329.48"/>
<polygon fill="black" stroke="black" points="624.59,-332.43 631.25,-324.19 620.91,-326.48 624.59,-332.43"/>
</g>
<!-- system -->
<g id="node16" class="node">
<title>system</title>
<g id="a_node16"><a target="_top" href="group_mrpt_system_grp.html" title="mrpt&#45;system">
<polygon fill="#d0d0d0" stroke="black" points="751.5,-180 644.5,-180 644.5,-144 751.5,-144 751.5,-180"/>
<text text-anchor="middle" x="698" y="-158.3" font-family="Times,serif" font-size="14.00">mrpt&#45;system</text>
</a>
</g>
</g>
<!-- math&#45;&gt;system -->
<g id="edge31" class="edge">
<title>math&#45;&gt;system</title>
<path fill="none" stroke="black" d="M589.23,-215.88C608.58,-206.47 632.77,-194.71 653.43,-184.67"/>
<polygon fill="black" stroke="black" points="655.17,-187.71 662.64,-180.19 652.11,-181.41 655.17,-187.71"/>
</g>
<!-- serialization -->
<g id="node24" class="node">
<title>serialization</title>
<g id="a_node24"><a target="_top" href="group_mrpt_serialization_grp.html" title="mrpt&#45;serialization">
<polygon fill="#d0d0d0" stroke="black" points="626,-180 482,-180 482,-144 626,-144 626,-180"/>
<text text-anchor="middle" x="554" y="-158.3" font-family="Times,serif" font-size="14.00">mrpt&#45;serialization</text>
</a>
</g>
</g>
<!-- math&#45;&gt;serialization -->
<g id="edge29" class="edge">
<title>math&#45;&gt;serialization</title>
<path fill="none" stroke="black" d="M554,-215.7C554,-207.98 554,-198.71 554,-190.11"/>
<polygon fill="black" stroke="black" points="557.5,-190.1 554,-180.1 550.5,-190.1 557.5,-190.1"/>
</g>
<!-- random -->
<g id="node25" class="node">
<title>random</title>
<g id="a_node25"><a target="_top" href="group_mrpt_random_grp.html" title="mrpt&#45;random">
<polygon fill="#d0d0d0" stroke="black" points="501.5,-36 390.5,-36 390.5,0 501.5,0 501.5,-36"/>
<text text-anchor="middle" x="446" y="-14.3" font-family="Times,serif" font-size="14.00">mrpt&#45;random</text>
</a>
</g>
</g>
<!-- math&#45;&gt;random -->
<g id="edge30" class="edge">
<title>math&#45;&gt;random</title>
<path fill="none" stroke="black" d="M514.46,-215.81C499.19,-207.22 483.02,-195.33 473,-180 446.28,-139.11 443.3,-80.3 444.21,-46.24"/>
<polygon fill="black" stroke="black" points="447.71,-46.23 444.61,-36.1 440.71,-45.96 447.71,-46.23"/>
</g>
<!-- expr -->
<g id="node11" class="node">
<title>expr</title>
<g id="a_node11"><a target="_top" href="group_mrpt_expr_grp.html" title="mrpt&#45;expr">
<polygon fill="#d0d0d0" stroke="black" points="710.5,-252 621.5,-252 621.5,-216 710.5,-216 710.5,-252"/>
<text text-anchor="middle" x="666" y="-230.3" font-family="Times,serif" font-size="14.00">mrpt&#45;expr</text>
</a>
</g>
</g>
<!-- config&#45;&gt;expr -->
<g id="edge8" class="edge">
<title>config&#45;&gt;expr</title>
<path fill="none" stroke="black" d="M660.73,-287.7C661.5,-279.98 662.43,-270.71 663.29,-262.11"/>
<polygon fill="black" stroke="black" points="666.78,-262.4 664.29,-252.1 659.81,-261.71 666.78,-262.4"/>
</g>
<!-- io -->
<g id="node10" class="node">
<title>io</title>
<g id="a_node10"><a target="_top" href="group_mrpt_io_grp.html" title="mrpt&#45;io">
<polygon fill="#d0d0d0" stroke="black" points="796.5,-324 727.5,-324 727.5,-288 796.5,-288 796.5,-324"/>
<text text-anchor="middle" x="762" y="-302.3" font-family="Times,serif" font-size="14.00">mrpt&#45;io</text>
</a>
</g>
</g>
<!-- comms&#45;&gt;io -->
<g id="edge7" class="edge">
<title>comms&#45;&gt;io</title>
<path fill="none" stroke="black" d="M815.64,-431.87C805.15,-407.46 785.81,-362.43 773.44,-333.64"/>
<polygon fill="black" stroke="black" points="776.55,-332 769.38,-324.19 770.12,-334.76 776.55,-332"/>
</g>
<!-- io&#45;&gt;system -->
<g id="edge25" class="edge">
<title>io&#45;&gt;system</title>
<path fill="none" stroke="black" d="M754.28,-287.87C743.28,-263.46 722.98,-218.43 710,-189.64"/>
<polygon fill="black" stroke="black" points="713.05,-187.87 705.75,-180.19 706.67,-190.74 713.05,-187.87"/>
</g>
<!-- expr&#45;&gt;system -->
<g id="edge13" class="edge">
<title>expr&#45;&gt;system</title>
<path fill="none" stroke="black" d="M673.91,-215.7C677.55,-207.73 681.95,-198.1 685.99,-189.26"/>
<polygon fill="black" stroke="black" points="689.21,-190.65 690.18,-180.1 682.84,-187.74 689.21,-190.65"/>
</g>
<!-- containers -->
<g id="node12" class="node">
<title>containers</title>
<g id="a_node12"><a target="_top" href="group_mrpt_containers_grp.html" title="mrpt&#45;containers">
<polygon fill="#d0d0d0" stroke="black" points="747.5,-108 616.5,-108 616.5,-72 747.5,-72 747.5,-108"/>
<text text-anchor="middle" x="682" y="-86.3" font-family="Times,serif" font-size="14.00">mrpt&#45;containers</text>
</a>
</g>
</g>
<!-- core -->
<g id="node13" class="node">
<title>core</title>
<g id="a_node13"><a target="_top" href="group_mrpt_core_grp.html" title="mrpt&#45;core">
<polygon fill="#d0d0d0" stroke="black" points="606.5,-36 519.5,-36 519.5,0 606.5,0 606.5,-36"/>
<text text-anchor="middle" x="563" y="-14.3" font-family="Times,serif" font-size="14.00">mrpt&#45;core</text>
</a>
</g>
</g>
<!-- containers&#45;&gt;core -->
<g id="edge9" class="edge">
<title>containers&#45;&gt;core</title>
<path fill="none" stroke="black" d="M652.89,-71.88C637.33,-62.72 617.98,-51.34 601.22,-41.48"/>
<polygon fill="black" stroke="black" points="602.62,-38.24 592.22,-36.19 599.07,-44.28 602.62,-38.24"/>
</g>
<!-- typemeta -->
<g id="node14" class="node">
<title>typemeta</title>
<g id="a_node14"><a target="_top" href="group_mrpt_typemeta_grp.html" title="mrpt&#45;typemeta (.h)">
<polygon fill="#d0d0d0" stroke="black" points="777,-36 625,-36 625,0 777,0 777,-36"/>
<text text-anchor="middle" x="701" y="-14.3" font-family="Times,serif" font-size="14.00">mrpt&#45;typemeta (.h)</text>
</a>
</g>
</g>
<!-- containers&#45;&gt;typemeta -->
<g id="edge10" class="edge">
<title>containers&#45;&gt;typemeta</title>
<path fill="none" stroke="black" d="M686.7,-71.7C688.81,-63.9 691.36,-54.51 693.72,-45.83"/>
<polygon fill="black" stroke="black" points="697.12,-46.67 696.36,-36.1 690.36,-44.84 697.12,-46.67"/>
</g>
<!-- detectors -->
<g id="node15" class="node">
<title>detectors</title>
<g id="a_node15"><a target="_top" href="group_mrpt_detectors_grp.html" title="mrpt&#45;detectors">
<polygon fill="#d0d0d0" stroke="black" points="380,-828 256,-828 256,-792 380,-792 380,-828"/>
<text text-anchor="middle" x="318" y="-806.3" font-family="Times,serif" font-size="14.00">mrpt&#45;detectors</text>
</a>
</g>
</g>
<!-- detectors&#45;&gt;gui -->
<g id="edge11" class="edge">
<title>detectors&#45;&gt;gui</title>
<path fill="none" stroke="black" d="M312.56,-791.7C310.11,-783.9 307.16,-774.51 304.43,-765.83"/>
<polygon fill="black" stroke="black" points="307.71,-764.59 301.38,-756.1 301.04,-766.69 307.71,-764.59"/>
</g>
<!-- detectors&#45;&gt;slam -->
<g id="edge12" class="edge">
<title>detectors&#45;&gt;slam</title>
<path fill="none" stroke="black" d="M287.42,-791.88C270.93,-782.64 250.38,-771.13 232.66,-761.21"/>
<polygon fill="black" stroke="black" points="234.13,-758.02 223.7,-756.19 230.71,-764.13 234.13,-758.02"/>
</g>
<!-- system&#45;&gt;containers -->
<g id="edge47" class="edge">
<title>system&#45;&gt;containers</title>
<path fill="none" stroke="black" d="M694.04,-143.7C692.28,-135.98 690.16,-126.71 688.2,-118.11"/>
<polygon fill="black" stroke="black" points="691.55,-117.07 685.91,-108.1 684.73,-118.63 691.55,-117.07"/>
</g>
<!-- system&#45;&gt;typemeta -->
<g id="edge46" class="edge">
<title>system&#45;&gt;typemeta</title>
<path fill="none" stroke="black" d="M725.8,-143.87C737.77,-134.84 750.5,-122.59 757,-108 763.52,-93.39 763.33,-86.7 757,-72 752.21,-60.87 743.81,-50.99 734.95,-42.86"/>
<polygon fill="black" stroke="black" points="737,-40.01 727.12,-36.18 732.46,-45.34 737,-40.01"/>
</g>
<!-- graphs -->
<g id="node17" class="node">
<title>graphs</title>
<g id="a_node17"><a target="_top" href="group_mrpt_graphs_grp.html" title="mrpt&#45;graphs">
<polygon fill="#d0d0d0" stroke="black" points="664,-612 558,-612 558,-576 664,-576 664,-612"/>
<text text-anchor="middle" x="611" y="-590.3" font-family="Times,serif" font-size="14.00">mrpt&#45;graphs</text>
</a>
</g>
</g>
<!-- graphs&#45;&gt;opengl -->
<g id="edge14" class="edge">
<title>graphs&#45;&gt;opengl</title>
<path fill="none" stroke="black" d="M606.8,-575.7C604.9,-567.9 602.62,-558.51 600.52,-549.83"/>
<polygon fill="black" stroke="black" points="603.92,-549 598.15,-540.1 597.11,-550.65 603.92,-549"/>
</g>
<!-- img -->
<g id="node21" class="node">
<title>img</title>
<g id="a_node21"><a target="_top" href="group_mrpt_img_grp.html" title="mrpt&#45;img">
<polygon fill="#d0d0d0" stroke="black" points="698.5,-396 615.5,-396 615.5,-360 698.5,-360 698.5,-396"/>
<text text-anchor="middle" x="657" y="-374.3" font-family="Times,serif" font-size="14.00">mrpt&#45;img</text>
</a>
</g>
</g>
<!-- opengl&#45;&gt;img -->
<g id="edge37" class="edge">
<title>opengl&#45;&gt;img</title>
<path fill="none" stroke="black" d="M601.6,-503.87C612.43,-479.46 632.41,-434.43 645.18,-405.64"/>
<polygon fill="black" stroke="black" points="648.52,-406.75 649.37,-396.19 642.12,-403.91 648.52,-406.75"/>
</g>
<!-- poses -->
<g id="node28" class="node">
<title>poses</title>
<g id="a_node28"><a target="_top" href="group_mrpt_poses_grp.html" title="mrpt&#45;poses">
<polygon fill="#d0d0d0" stroke="black" points="594.5,-468 497.5,-468 497.5,-432 594.5,-432 594.5,-468"/>
<text text-anchor="middle" x="546" y="-446.3" font-family="Times,serif" font-size="14.00">mrpt&#45;poses</text>
</a>
</g>
</g>
<!-- opengl&#45;&gt;poses -->
<g id="edge36" class="edge">
<title>opengl&#45;&gt;poses</title>
<path fill="none" stroke="black" d="M582.13,-503.7C576.5,-495.47 569.65,-485.48 563.43,-476.42"/>
<polygon fill="black" stroke="black" points="566.27,-474.37 557.73,-468.1 560.5,-478.33 566.27,-474.37"/>
</g>
<!-- maps&#45;&gt;graphs -->
<g id="edge27" class="edge">
<title>maps&#45;&gt;graphs</title>
<path fill="none" stroke="black" d="M611,-647.7C611,-639.98 611,-630.71 611,-622.11"/>
<polygon fill="black" stroke="black" points="614.5,-622.1 611,-612.1 607.5,-622.1 614.5,-622.1"/>
</g>
<!-- obs -->
<g id="node23" class="node">
<title>obs</title>
<g id="a_node23"><a target="_top" href="group_mrpt_obs_grp.html" title="mrpt&#45;obs">
<polygon fill="#d0d0d0" stroke="black" points="501.5,-612 420.5,-612 420.5,-576 501.5,-576 501.5,-612"/>
<text text-anchor="middle" x="461" y="-590.3" font-family="Times,serif" font-size="14.00">mrpt&#45;obs</text>
</a>
</g>
</g>
<!-- maps&#45;&gt;obs -->
<g id="edge28" class="edge">
<title>maps&#45;&gt;obs</title>
<path fill="none" stroke="black" d="M574.31,-647.88C553.98,-638.39 528.53,-626.51 506.9,-616.42"/>
<polygon fill="black" stroke="black" points="508.12,-613.13 497.57,-612.07 505.16,-619.47 508.12,-613.13"/>
</g>
<!-- vision&#45;&gt;obs -->
<g id="edge50" class="edge">
<title>vision&#45;&gt;obs</title>
<path fill="none" stroke="black" d="M294.01,-649.12C328.83,-637.83 375.44,-622.73 410.57,-611.34"/>
<polygon fill="black" stroke="black" points="411.72,-614.65 420.15,-608.24 409.56,-607.99 411.72,-614.65"/>
</g>
<!-- img&#45;&gt;math -->
<g id="edge23" class="edge">
<title>img&#45;&gt;math</title>
<path fill="none" stroke="black" d="M635.25,-359.9C623.82,-350.2 610.13,-337.35 600,-324 585.29,-304.62 572.92,-279.86 564.73,-261.37"/>
<polygon fill="black" stroke="black" points="567.9,-259.88 560.73,-252.08 561.47,-262.65 567.9,-259.88"/>
</g>
<!-- img&#45;&gt;config -->
<g id="edge24" class="edge">
<title>img&#45;&gt;config</title>
<path fill="none" stroke="black" d="M657.49,-359.7C657.71,-351.98 657.98,-342.71 658.23,-334.11"/>
<polygon fill="black" stroke="black" points="661.72,-334.2 658.51,-324.1 654.73,-334 661.72,-334.2"/>
</g>
<!-- img&#45;&gt;io -->
<g id="edge22" class="edge">
<title>img&#45;&gt;io</title>
<path fill="none" stroke="black" d="M682.69,-359.88C696.29,-350.81 713.17,-339.55 727.86,-329.76"/>
<polygon fill="black" stroke="black" points="729.84,-332.65 736.22,-324.19 725.95,-326.82 729.84,-332.65"/>
</g>
<!-- kinematics -->
<g id="node22" class="node">
<title>kinematics</title>
<g id="a_node22"><a target="_top" href="group_mrpt_kinematics_grp.html" title="mrpt&#45;kinematics">
<polygon fill="#d0d0d0" stroke="black" points="816,-612 682,-612 682,-576 816,-576 816,-612"/>
<text text-anchor="middle" x="749" y="-590.3" font-family="Times,serif" font-size="14.00">mrpt&#45;kinematics</text>
</a>
</g>
</g>
<!-- kinematics&#45;&gt;opengl -->
<g id="edge26" class="edge">
<title>kinematics&#45;&gt;opengl</title>
<path fill="none" stroke="black" d="M711.08,-575.88C689.99,-566.35 663.54,-554.41 641.13,-544.28"/>
<polygon fill="black" stroke="black" points="642.35,-540.99 631.79,-540.07 639.47,-547.37 642.35,-540.99"/>
</g>
<!-- obs&#45;&gt;opengl -->
<g id="edge34" class="edge">
<title>obs&#45;&gt;opengl</title>
<path fill="none" stroke="black" d="M493.54,-575.88C511.25,-566.55 533.35,-554.92 552.32,-544.94"/>
<polygon fill="black" stroke="black" points="554.12,-547.94 561.34,-540.19 550.86,-541.75 554.12,-547.94"/>
</g>
<!-- tfest -->
<g id="node27" class="node">
<title>tfest</title>
<g id="a_node27"><a target="_top" href="group_mrpt_tfest_grp.html" title="mrpt&#45;tfest">
<polygon fill="#d0d0d0" stroke="black" points="514.5,-540 425.5,-540 425.5,-504 514.5,-504 514.5,-540"/>
<text text-anchor="middle" x="470" y="-518.3" font-family="Times,serif" font-size="14.00">mrpt&#45;tfest</text>
</a>
</g>
</g>
<!-- obs&#45;&gt;tfest -->
<g id="edge35" class="edge">
<title>obs&#45;&gt;tfest</title>
<path fill="none" stroke="black" d="M463.22,-575.7C464.22,-567.98 465.41,-558.71 466.51,-550.11"/>
<polygon fill="black" stroke="black" points="470,-550.47 467.8,-540.1 463.05,-549.58 470,-550.47"/>
</g>
<!-- rtti -->
<g id="node29" class="node">
<title>rtti</title>
<g id="a_node29"><a target="_top" href="group_mrpt_rtti_grp.html" title="mrpt&#45;rtti">
<polygon fill="#d0d0d0" stroke="black" points="598,-108 518,-108 518,-72 598,-72 598,-108"/>
<text text-anchor="middle" x="558" y="-86.3" font-family="Times,serif" font-size="14.00">mrpt&#45;rtti</text>
</a>
</g>
</g>
<!-- serialization&#45;&gt;rtti -->
<g id="edge43" class="edge">
<title>serialization&#45;&gt;rtti</title>
<path fill="none" stroke="black" d="M554.99,-143.7C555.43,-135.98 555.96,-126.71 556.45,-118.11"/>
<polygon fill="black" stroke="black" points="559.95,-118.29 557.02,-108.1 552.96,-117.89 559.95,-118.29"/>
</g>
<!-- nav -->
<g id="node26" class="node">
<title>nav</title>
<g id="a_node26"><a target="_top" href="group_mrpt_nav_grp.html" title="mrpt&#45;nav">
<polygon fill="#d0d0d0" stroke="black" points="816,-756 734,-756 734,-720 816,-720 816,-756"/>
<text text-anchor="middle" x="775" y="-734.3" font-family="Times,serif" font-size="14.00">mrpt&#45;nav</text>
</a>
</g>
</g>
<!-- nav&#45;&gt;maps -->
<g id="edge33" class="edge">
<title>nav&#45;&gt;maps</title>
<path fill="none" stroke="black" d="M734.88,-719.88C712.36,-710.26 684.08,-698.19 660.23,-688.01"/>
<polygon fill="black" stroke="black" points="661.56,-684.77 650.99,-684.07 658.81,-691.21 661.56,-684.77"/>
</g>
<!-- nav&#45;&gt;kinematics -->
<g id="edge32" class="edge">
<title>nav&#45;&gt;kinematics</title>
<path fill="none" stroke="black" d="M771.86,-719.87C767.43,-695.67 759.29,-651.21 754.02,-622.39"/>
<polygon fill="black" stroke="black" points="757.39,-621.4 752.15,-612.19 750.51,-622.66 757.39,-621.4"/>
</g>
<!-- tfest&#45;&gt;poses -->
<g id="edge48" class="edge">
<title>tfest&#45;&gt;poses</title>
<path fill="none" stroke="black" d="M488.79,-503.7C498.17,-495.05 509.68,-484.45 519.91,-475.03"/>
<polygon fill="black" stroke="black" points="522.45,-477.45 527.43,-468.1 517.7,-472.3 522.45,-477.45"/>
</g>
<!-- poses&#45;&gt;bayes -->
<g id="edge38" class="edge">
<title>poses&#45;&gt;bayes</title>
<path fill="none" stroke="black" d="M546,-431.7C546,-423.98 546,-414.71 546,-406.11"/>
<polygon fill="black" stroke="black" points="549.5,-406.1 546,-396.1 542.5,-406.1 549.5,-406.1"/>
</g>
<!-- rtti&#45;&gt;core -->
<g id="edge39" class="edge">
<title>rtti&#45;&gt;core</title>
<path fill="none" stroke="black" d="M559.24,-71.7C559.79,-63.98 560.45,-54.71 561.06,-46.11"/>
<polygon fill="black" stroke="black" points="564.56,-46.33 561.78,-36.1 557.57,-45.83 564.56,-46.33"/>
</g>
<!-- rtti&#45;&gt;typemeta -->
<g id="edge40" class="edge">
<title>rtti&#45;&gt;typemeta</title>
<path fill="none" stroke="black" d="M592.98,-71.88C612.2,-62.47 636.23,-50.71 656.74,-40.67"/>
<polygon fill="black" stroke="black" points="658.44,-43.73 665.88,-36.19 655.36,-37.44 658.44,-43.73"/>
</g>
<!-- ros1bridge -->
<g id="node30" class="node">
<title>ros1bridge</title>
<g id="a_node30"><a target="_top" href="group_mrpt_ros1bridge_grp.html" title="mrpt&#45;ros1bridge">
<polygon fill="#d0d0d0" stroke="black" points="678,-756 544,-756 544,-720 678,-720 678,-756"/>
<text text-anchor="middle" x="611" y="-734.3" font-family="Times,serif" font-size="14.00">mrpt&#45;ros1bridge</text>
</a>
</g>
</g>
<!-- ros1bridge&#45;&gt;maps -->
<g id="edge41" class="edge">
<title>ros1bridge&#45;&gt;maps</title>
<path fill="none" stroke="black" d="M611,-719.7C611,-711.98 611,-702.71 611,-694.11"/>
<polygon fill="black" stroke="black" points="614.5,-694.1 611,-684.1 607.5,-694.1 614.5,-694.1"/>
</g>
<!-- ros2bridge -->
<g id="node31" class="node">
<title>ros2bridge</title>
<g id="a_node31"><a target="_top" href="group_mrpt_ros2bridge_grp.html" title="mrpt&#45;ros2bridge">
<polygon fill="#d0d0d0" stroke="black" points="526,-756 392,-756 392,-720 526,-720 526,-756"/>
<text text-anchor="middle" x="459" y="-734.3" font-family="Times,serif" font-size="14.00">mrpt&#45;ros2bridge</text>
</a>
</g>
</g>
<!-- ros2bridge&#45;&gt;maps -->
<g id="edge42" class="edge">
<title>ros2bridge&#45;&gt;maps</title>
<path fill="none" stroke="black" d="M496.18,-719.88C516.87,-710.35 542.8,-698.41 564.78,-688.28"/>
<polygon fill="black" stroke="black" points="566.32,-691.43 573.94,-684.07 563.39,-685.07 566.32,-691.43"/>
</g>
<!-- topography -->
<g id="node32" class="node">
<title>topography</title>
<g id="a_node32"><a target="_top" href="group_mrpt_topography_grp.html" title="mrpt&#45;topography">
<polygon fill="#d0d0d0" stroke="black" points="502,-684 364,-684 364,-648 502,-648 502,-684"/>
<text text-anchor="middle" x="433" y="-662.3" font-family="Times,serif" font-size="14.00">mrpt&#45;topography</text>
</a>
</g>
</g>
<!-- topography&#45;&gt;obs -->
<g id="edge49" class="edge">
<title>topography&#45;&gt;obs</title>
<path fill="none" stroke="black" d="M439.92,-647.7C443.07,-639.81 446.88,-630.3 450.38,-621.55"/>
<polygon fill="black" stroke="black" points="453.69,-622.69 454.16,-612.1 447.19,-620.09 453.69,-622.69"/>
</g>
<!-- visionlgpl -->
<g id="node33" class="node">
<title>visionlgpl</title>
<g id="a_node33"><a target="_top" href="group_mrpt_vision_lgpl_grp.html" title="mrpt&#45;vision&#45;lgpl">
<polygon fill="#d0d0d0" stroke="black" points="130,-756 0,-756 0,-720 130,-720 130,-756"/>
<text text-anchor="middle" x="65" y="-734.3" font-family="Times,serif" font-size="14.00">mrpt&#45;vision&#45;lgpl</text>
</a>
</g>
</g>
<!-- visionlgpl&#45;&gt;vision -->
<g id="edge51" class="edge">
<title>visionlgpl&#45;&gt;vision</title>
<path fill="none" stroke="black" d="M109.03,-719.88C133.97,-710.18 165.34,-697.98 191.66,-687.74"/>
<polygon fill="black" stroke="black" points="193.06,-690.95 201.11,-684.07 190.52,-684.43 193.06,-690.95"/>
</g>
</g>
</svg>
