<?xml version="1.0" encoding="UTF-8" standalone="no"?>
<!DOCTYPE svg PUBLIC "-//W3C//DTD SVG 1.1//EN"
 "http://www.w3.org/Graphics/SVG/1.1/DTD/svg11.dtd">
<!-- Generated by graphviz version 2.43.0 (0)
 -->
<!-- Title: MRPT_LIBS Pages: 1 -->
<svg width="855pt" height="980pt"
 viewBox="0.00 0.00 854.57 980.00" xmlns="http://www.w3.org/2000/svg" xmlns:xlink="http://www.w3.org/1999/xlink">
<g id="graph0" class="graph" transform="scale(1 1) rotate(0) translate(4 976)">
<title>MRPT_LIBS</title>
<polygon fill="white" stroke="transparent" points="-4,4 -4,-976 850.57,-976 850.57,4 -4,4"/>
<!-- apps -->
<g id="node1" class="node">
<title>apps</title>
<g id="a_node1"><a xlink:href="group_mrpt_bayes_grp.html" xlink:title="mrpt&#45;apps">
<polygon fill="#d0d0d0" stroke="black" points="304,-972 214,-972 214,-936 304,-936 304,-972"/>
<text text-anchor="middle" x="259" y="-950.3" font-family="Times,serif" font-size="14.00">mrpt&#45;apps</text>
</a>
</g>
</g>
<!-- gui -->
<g id="node2" class="node">
<title>gui</title>
<g id="a_node2"><a xlink:href="group_mrpt_gui_grp.html" xlink:title="mrpt&#45;gui">
<polygon fill="#d0d0d0" stroke="black" points="335.5,-756 256.5,-756 256.5,-720 335.5,-720 335.5,-756"/>
<text text-anchor="middle" x="296" y="-734.3" font-family="Times,serif" font-size="14.00">mrpt&#45;gui</text>
</a>
</g>
</g>
<!-- apps&#45;&gt;gui -->
<g id="edge1" class="edge">
<title>apps&#45;&gt;gui</title>
<path fill="none" stroke="black" d="M288.43,-935.91C320.64,-915.19 370.07,-876.9 388,-828 393.51,-812.98 396.01,-805.85 388,-792 378.43,-775.44 361.5,-763.59 344.75,-755.36"/>
<polygon fill="black" stroke="black" points="346.06,-752.12 335.51,-751.16 343.16,-758.49 346.06,-752.12"/>
</g>
<!-- slam -->
<g id="node3" class="node">
<title>slam</title>
<g id="a_node3"><a xlink:href="group_mrpt_slam_grp.html" xlink:title="mrpt&#45;slam">
<polygon fill="#d0d0d0" stroke="black" points="238,-756 148,-756 148,-720 238,-720 238,-756"/>
<text text-anchor="middle" x="193" y="-734.3" font-family="Times,serif" font-size="14.00">mrpt&#45;slam</text>
</a>
</g>
</g>
<!-- apps&#45;&gt;slam -->
<g id="edge2" class="edge">
<title>apps&#45;&gt;slam</title>
<path fill="none" stroke="black" d="M217.76,-935.89C177.44,-916.53 118.86,-880.67 96,-828 89.63,-813.32 87.84,-805.76 96,-792 105.58,-775.85 122.02,-764.3 138.66,-756.19"/>
<polygon fill="black" stroke="black" points="140.21,-759.33 147.89,-752.04 137.33,-752.95 140.21,-759.33"/>
</g>
<!-- hwdrivers -->
<g id="node4" class="node">
<title>hwdrivers</title>
<g id="a_node4"><a xlink:href="group_mrpt_hwdrivers_grp.html" xlink:title="mrpt&#45;hwdrivers">
<polygon fill="#d0d0d0" stroke="black" points="563,-828 435,-828 435,-792 563,-792 563,-828"/>
<text text-anchor="middle" x="499" y="-806.3" font-family="Times,serif" font-size="14.00">mrpt&#45;hwdrivers</text>
</a>
</g>
</g>
<!-- apps&#45;&gt;hwdrivers -->
<g id="edge3" class="edge">
<title>apps&#45;&gt;hwdrivers</title>
<path fill="none" stroke="black" d="M304.12,-945.01C338.3,-937.41 385.32,-923.57 421,-900 446.24,-883.33 468.24,-856.4 482.39,-836.53"/>
<polygon fill="black" stroke="black" points="485.32,-838.43 488.14,-828.22 479.57,-834.45 485.32,-838.43"/>
</g>
<!-- graphslam -->
<g id="node5" class="node">
<title>graphslam</title>
<g id="a_node5"><a xlink:href="group_mrpt_graphslam_grp.html" xlink:title="mrpt&#45;graphslam">
<polygon fill="#d0d0d0" stroke="black" points="237,-828 105,-828 105,-792 237,-792 237,-828"/>
<text text-anchor="middle" x="171" y="-806.3" font-family="Times,serif" font-size="14.00">mrpt&#45;graphslam</text>
</a>
</g>
</g>
<!-- apps&#45;&gt;graphslam -->
<g id="edge4" class="edge">
<title>apps&#45;&gt;graphslam</title>
<path fill="none" stroke="black" d="M227.7,-935.85C214.14,-926.88 199.27,-914.69 190,-900 178.3,-881.46 173.7,-856.87 171.94,-838.23"/>
<polygon fill="black" stroke="black" points="175.42,-837.76 171.2,-828.04 168.43,-838.27 175.42,-837.76"/>
</g>
<!-- hmtslam -->
<g id="node6" class="node">
<title>hmtslam</title>
<g id="a_node6"><a xlink:href="group_mrpt_hmtslam_grp.html" xlink:title="mrpt&#45;hmtslam">
<polygon fill="#d0d0d0" stroke="black" points="318.5,-900 199.5,-900 199.5,-864 318.5,-864 318.5,-900"/>
<text text-anchor="middle" x="259" y="-878.3" font-family="Times,serif" font-size="14.00">mrpt&#45;hmtslam</text>
</a>
</g>
</g>
<!-- apps&#45;&gt;hmtslam -->
<g id="edge5" class="edge">
<title>apps&#45;&gt;hmtslam</title>
<path fill="none" stroke="black" d="M259,-935.7C259,-927.98 259,-918.71 259,-910.11"/>
<polygon fill="black" stroke="black" points="262.5,-910.1 259,-900.1 255.5,-910.1 262.5,-910.1"/>
</g>
<!-- opengl -->
<g id="node19" class="node">
<title>opengl</title>
<g id="a_node19"><a xlink:href="group_mrpt_opengl_grp.html" xlink:title="mrpt&#45;opengl">
<polygon fill="#d0d0d0" stroke="black" points="602,-540 498,-540 498,-504 602,-504 602,-540"/>
<text text-anchor="middle" x="550" y="-518.3" font-family="Times,serif" font-size="14.00">mrpt&#45;opengl</text>
</a>
</g>
</g>
<!-- gui&#45;&gt;opengl -->
<g id="edge19" class="edge">
<title>gui&#45;&gt;opengl</title>
<path fill="none" stroke="black" d="M335.68,-726.16C361.98,-717.64 396.25,-703.85 422,-684 469.94,-647.03 466.95,-623.09 505,-576 512.55,-566.66 521.03,-556.57 528.58,-547.72"/>
<polygon fill="black" stroke="black" points="531.34,-549.88 535.19,-540.01 526.03,-545.32 531.34,-549.88"/>
</g>
<!-- maps -->
<g id="node20" class="node">
<title>maps</title>
<g id="a_node20"><a xlink:href="group_mrpt_maps_grp.html" xlink:title="mrpt&#45;maps">
<polygon fill="#d0d0d0" stroke="black" points="614.5,-684 519.5,-684 519.5,-648 614.5,-648 614.5,-684"/>
<text text-anchor="middle" x="567" y="-662.3" font-family="Times,serif" font-size="14.00">mrpt&#45;maps</text>
</a>
</g>
</g>
<!-- slam&#45;&gt;maps -->
<g id="edge47" class="edge">
<title>slam&#45;&gt;maps</title>
<path fill="none" stroke="black" d="M238.24,-722.25C241.19,-721.44 244.13,-720.69 247,-720 337.72,-698.32 445.01,-682.51 509.45,-674.05"/>
<polygon fill="black" stroke="black" points="509.95,-677.51 519.41,-672.75 509.04,-670.57 509.95,-677.51"/>
</g>
<!-- vision -->
<g id="node21" class="node">
<title>vision</title>
<g id="a_node21"><a xlink:href="group_mrpt_vision_grp.html" xlink:title="mrpt&#45;vision">
<polygon fill="#d0d0d0" stroke="black" points="413,-684 315,-684 315,-648 413,-648 413,-684"/>
<text text-anchor="middle" x="364" y="-662.3" font-family="Times,serif" font-size="14.00">mrpt&#45;vision</text>
</a>
</g>
</g>
<!-- slam&#45;&gt;vision -->
<g id="edge48" class="edge">
<title>slam&#45;&gt;vision</title>
<path fill="none" stroke="black" d="M234.83,-719.88C258.42,-710.22 288.06,-698.09 313,-687.88"/>
<polygon fill="black" stroke="black" points="314.38,-691.1 322.3,-684.07 311.72,-684.62 314.38,-691.1"/>
</g>
<!-- hwdrivers&#45;&gt;gui -->
<g id="edge22" class="edge">
<title>hwdrivers&#45;&gt;gui</title>
<path fill="none" stroke="black" d="M449.6,-791.97C417.91,-781.04 376.91,-766.9 345.25,-755.98"/>
<polygon fill="black" stroke="black" points="346.34,-752.65 335.74,-752.7 344.05,-759.27 346.34,-752.65"/>
</g>
<!-- comms -->
<g id="node10" class="node">
<title>comms</title>
<g id="a_node10"><a xlink:href="group_mrpt_comms_grp.html" xlink:title="mrpt&#45;comms">
<polygon fill="#d0d0d0" stroke="black" points="738.5,-468 631.5,-468 631.5,-432 738.5,-432 738.5,-468"/>
<text text-anchor="middle" x="685" y="-446.3" font-family="Times,serif" font-size="14.00">mrpt&#45;comms</text>
</a>
</g>
</g>
<!-- hwdrivers&#45;&gt;comms -->
<g id="edge21" class="edge">
<title>hwdrivers&#45;&gt;comms</title>
<path fill="none" stroke="black" d="M563.19,-806.94C647.27,-802.86 788.35,-790.89 825,-756 854.29,-728.11 844,-707.45 844,-667 844,-667 844,-667 844,-593 844,-535.18 784.78,-495.04 738.62,-472.54"/>
<polygon fill="black" stroke="black" points="739.83,-469.24 729.29,-468.14 736.84,-475.57 739.83,-469.24"/>
</g>
<!-- hwdrivers&#45;&gt;maps -->
<g id="edge23" class="edge">
<title>hwdrivers&#45;&gt;maps</title>
<path fill="none" stroke="black" d="M563.06,-799.34C611.38,-790.6 671.85,-776.01 687,-756 696.66,-743.24 695.73,-733.41 687,-720 672.96,-698.45 647.95,-685.6 624.39,-677.96"/>
<polygon fill="black" stroke="black" points="625.34,-674.6 614.76,-675.1 623.34,-681.31 625.34,-674.6"/>
</g>
<!-- hwdrivers&#45;&gt;vision -->
<g id="edge24" class="edge">
<title>hwdrivers&#45;&gt;vision</title>
<path fill="none" stroke="black" d="M434.99,-792.07C415.74,-784.05 396.23,-772.49 383,-756 369.13,-738.72 364.76,-713.66 363.63,-694.53"/>
<polygon fill="black" stroke="black" points="367.13,-694.21 363.3,-684.33 360.13,-694.44 367.13,-694.21"/>
</g>
<!-- graphslam&#45;&gt;gui -->
<g id="edge17" class="edge">
<title>graphslam&#45;&gt;gui</title>
<path fill="none" stroke="black" d="M201.58,-791.88C218.07,-782.64 238.62,-771.13 256.34,-761.21"/>
<polygon fill="black" stroke="black" points="258.29,-764.13 265.3,-756.19 254.87,-758.02 258.29,-764.13"/>
</g>
<!-- graphslam&#45;&gt;slam -->
<g id="edge18" class="edge">
<title>graphslam&#45;&gt;slam</title>
<path fill="none" stroke="black" d="M176.44,-791.7C178.89,-783.9 181.84,-774.51 184.57,-765.83"/>
<polygon fill="black" stroke="black" points="187.96,-766.69 187.62,-756.1 181.29,-764.59 187.96,-766.69"/>
</g>
<!-- hmtslam&#45;&gt;graphslam -->
<g id="edge20" class="edge">
<title>hmtslam&#45;&gt;graphslam</title>
<path fill="none" stroke="black" d="M237.25,-863.7C226.16,-854.88 212.53,-844.03 200.51,-834.47"/>
<polygon fill="black" stroke="black" points="202.51,-831.59 192.5,-828.1 198.15,-837.07 202.51,-831.59"/>
</g>
<!-- bayes -->
<g id="node7" class="node">
<title>bayes</title>
<g id="a_node7"><a xlink:href="group_mrpt_bayes_grp.html" xlink:title="mrpt&#45;bayes">
<polygon fill="#d0d0d0" stroke="black" points="541,-396 443,-396 443,-360 541,-360 541,-396"/>
<text text-anchor="middle" x="492" y="-374.3" font-family="Times,serif" font-size="14.00">mrpt&#45;bayes</text>
</a>
</g>
</g>
<!-- math -->
<g id="node8" class="node">
<title>math</title>
<g id="a_node8"><a xlink:href="group_mrpt_math_grp.html" xlink:title="mrpt&#45;math">
<polygon fill="#d0d0d0" stroke="black" points="686.5,-252 593.5,-252 593.5,-216 686.5,-216 686.5,-252"/>
<text text-anchor="middle" x="640" y="-230.3" font-family="Times,serif" font-size="14.00">mrpt&#45;math</text>
</a>
</g>
</g>
<!-- bayes&#45;&gt;math -->
<g id="edge6" class="edge">
<title>bayes&#45;&gt;math</title>
<path fill="none" stroke="black" d="M511.64,-359.83C523.23,-349.58 538.11,-336.22 551,-324 573.62,-302.56 598.66,-277.38 616.4,-259.29"/>
<polygon fill="black" stroke="black" points="619.04,-261.6 623.53,-252 614.04,-256.7 619.04,-261.6"/>
</g>
<!-- config -->
<g id="node9" class="node">
<title>config</title>
<g id="a_node9"><a xlink:href="group_mrpt_config_grp.html" xlink:title="mrpt&#45;config">
<polygon fill="#d0d0d0" stroke="black" points="542,-324 442,-324 442,-288 542,-288 542,-324"/>
<text text-anchor="middle" x="492" y="-302.3" font-family="Times,serif" font-size="14.00">mrpt&#45;config</text>
</a>
</g>
</g>
<!-- bayes&#45;&gt;config -->
<g id="edge7" class="edge">
<title>bayes&#45;&gt;config</title>
<path fill="none" stroke="black" d="M492,-359.7C492,-351.98 492,-342.71 492,-334.11"/>
<polygon fill="black" stroke="black" points="495.5,-334.1 492,-324.1 488.5,-334.1 495.5,-334.1"/>
</g>
<!-- system -->
<g id="node13" class="node">
<title>system</title>
<g id="a_node13"><a xlink:href="group_mrpt_system_grp.html" xlink:title="mrpt&#45;system">
<polygon fill="#d0d0d0" stroke="black" points="547.5,-180 440.5,-180 440.5,-144 547.5,-144 547.5,-180"/>
<text text-anchor="middle" x="494" y="-158.3" font-family="Times,serif" font-size="14.00">mrpt&#45;system</text>
</a>
</g>
</g>
<!-- math&#45;&gt;system -->
<g id="edge34" class="edge">
<title>math&#45;&gt;system</title>
<path fill="none" stroke="black" d="M604.28,-215.88C584.5,-206.39 559.73,-194.51 538.67,-184.42"/>
<polygon fill="black" stroke="black" points="540.13,-181.24 529.6,-180.07 537.1,-187.55 540.13,-181.24"/>
</g>
<!-- serialization -->
<g id="node25" class="node">
<title>serialization</title>
<g id="a_node25"><a xlink:href="group_mrpt_serialization_grp.html" xlink:title="mrpt&#45;serialization">
<polygon fill="#d0d0d0" stroke="black" points="711,-180 567,-180 567,-144 711,-144 711,-180"/>
<text text-anchor="middle" x="639" y="-158.3" font-family="Times,serif" font-size="14.00">mrpt&#45;serialization</text>
</a>
</g>
</g>
<!-- math&#45;&gt;serialization -->
<g id="edge32" class="edge">
<title>math&#45;&gt;serialization</title>
<path fill="none" stroke="black" d="M639.75,-215.7C639.64,-207.98 639.51,-198.71 639.39,-190.11"/>
<polygon fill="black" stroke="black" points="642.89,-190.05 639.24,-180.1 635.89,-190.15 642.89,-190.05"/>
</g>
<!-- random -->
<g id="node26" class="node">
<title>random</title>
<g id="a_node26"><a xlink:href="group_mrpt_random_grp.html" xlink:title="mrpt&#45;random">
<polygon fill="#d0d0d0" stroke="black" points="802.5,-36 691.5,-36 691.5,0 802.5,0 802.5,-36"/>
<text text-anchor="middle" x="747" y="-14.3" font-family="Times,serif" font-size="14.00">mrpt&#45;random</text>
</a>
</g>
</g>
<!-- math&#45;&gt;random -->
<g id="edge33" class="edge">
<title>math&#45;&gt;random</title>
<path fill="none" stroke="black" d="M678.64,-215.94C693.85,-207.32 710.02,-195.37 720,-180 746.6,-139.03 749.62,-80.25 748.76,-46.22"/>
<polygon fill="black" stroke="black" points="752.25,-45.94 748.36,-36.09 745.25,-46.21 752.25,-45.94"/>
</g>
<!-- expr -->
<g id="node12" class="node">
<title>expr</title>
<g id="a_node12"><a xlink:href="group_mrpt_expr_grp.html" xlink:title="mrpt&#45;expr">
<polygon fill="#d0d0d0" stroke="black" points="536.5,-252 447.5,-252 447.5,-216 536.5,-216 536.5,-252"/>
<text text-anchor="middle" x="492" y="-230.3" font-family="Times,serif" font-size="14.00">mrpt&#45;expr</text>
</a>
</g>
</g>
<!-- config&#45;&gt;expr -->
<g id="edge9" class="edge">
<title>config&#45;&gt;expr</title>
<path fill="none" stroke="black" d="M492,-287.7C492,-279.98 492,-270.71 492,-262.11"/>
<polygon fill="black" stroke="black" points="495.5,-262.1 492,-252.1 488.5,-262.1 495.5,-262.1"/>
</g>
<!-- config&#45;&gt;system -->
<g id="edge10" class="edge">
<title>config&#45;&gt;system</title>
<path fill="none" stroke="black" d="M467.07,-287.86C455.94,-278.67 444,-266.29 438,-252 431.81,-237.25 431.67,-230.7 438,-216 442.79,-204.87 451.19,-194.99 460.05,-186.86"/>
<polygon fill="black" stroke="black" points="462.54,-189.34 467.88,-180.18 458,-184.01 462.54,-189.34"/>
</g>
<!-- io -->
<g id="node11" class="node">
<title>io</title>
<g id="a_node11"><a xlink:href="group_mrpt_io_grp.html" xlink:title="mrpt&#45;io">
<polygon fill="#d0d0d0" stroke="black" points="705.5,-324 636.5,-324 636.5,-288 705.5,-288 705.5,-324"/>
<text text-anchor="middle" x="671" y="-302.3" font-family="Times,serif" font-size="14.00">mrpt&#45;io</text>
</a>
</g>
</g>
<!-- comms&#45;&gt;io -->
<g id="edge8" class="edge">
<title>comms&#45;&gt;io</title>
<path fill="none" stroke="black" d="M683.31,-431.87C680.93,-407.67 676.54,-363.21 673.7,-334.39"/>
<polygon fill="black" stroke="black" points="677.16,-333.8 672.69,-324.19 670.19,-334.48 677.16,-333.8"/>
</g>
<!-- io&#45;&gt;system -->
<g id="edge28" class="edge">
<title>io&#45;&gt;system</title>
<path fill="none" stroke="black" d="M638.83,-287.8C621.89,-278.16 601.14,-265.4 584,-252 570.31,-241.3 539.2,-209.86 517.4,-187.39"/>
<polygon fill="black" stroke="black" points="519.88,-184.91 510.41,-180.15 514.84,-189.78 519.88,-184.91"/>
</g>
<!-- expr&#45;&gt;system -->
<g id="edge15" class="edge">
<title>expr&#45;&gt;system</title>
<path fill="none" stroke="black" d="M492.49,-215.7C492.71,-207.98 492.98,-198.71 493.23,-190.11"/>
<polygon fill="black" stroke="black" points="496.72,-190.2 493.51,-180.1 489.73,-190 496.72,-190.2"/>
</g>
<!-- containers -->
<g id="node14" class="node">
<title>containers</title>
<g id="a_node14"><a xlink:href="group_mrpt_containers_grp.html" xlink:title="mrpt&#45;containers">
<polygon fill="#d0d0d0" stroke="black" points="576.5,-108 445.5,-108 445.5,-72 576.5,-72 576.5,-108"/>
<text text-anchor="middle" x="511" y="-86.3" font-family="Times,serif" font-size="14.00">mrpt&#45;containers</text>
</a>
</g>
</g>
<!-- system&#45;&gt;containers -->
<g id="edge50" class="edge">
<title>system&#45;&gt;containers</title>
<path fill="none" stroke="black" d="M498.2,-143.7C500.1,-135.9 502.38,-126.51 504.48,-117.83"/>
<polygon fill="black" stroke="black" points="507.89,-118.65 506.85,-108.1 501.08,-117 507.89,-118.65"/>
</g>
<!-- typemeta -->
<g id="node16" class="node">
<title>typemeta</title>
<g id="a_node16"><a xlink:href="group_mrpt_typemeta_grp.html" xlink:title="mrpt&#45;typemeta (.h)">
<polygon fill="#d0d0d0" stroke="black" points="568,-36 416,-36 416,0 568,0 568,-36"/>
<text text-anchor="middle" x="492" y="-14.3" font-family="Times,serif" font-size="14.00">mrpt&#45;typemeta (.h)</text>
</a>
</g>
</g>
<!-- system&#45;&gt;typemeta -->
<g id="edge49" class="edge">
<title>system&#45;&gt;typemeta</title>
<path fill="none" stroke="black" d="M466.66,-143.77C454.89,-134.72 442.38,-122.48 436,-108 429.55,-93.36 429.67,-86.7 436,-72 440.79,-60.87 449.19,-50.99 458.05,-42.86"/>
<polygon fill="black" stroke="black" points="460.54,-45.34 465.88,-36.18 456,-40.01 460.54,-45.34"/>
</g>
<!-- core -->
<g id="node15" class="node">
<title>core</title>
<g id="a_node15"><a xlink:href="group_mrpt_core_grp.html" xlink:title="mrpt&#45;core">
<polygon fill="#d0d0d0" stroke="black" points="673.5,-36 586.5,-36 586.5,0 673.5,0 673.5,-36"/>
<text text-anchor="middle" x="630" y="-14.3" font-family="Times,serif" font-size="14.00">mrpt&#45;core</text>
</a>
</g>
</g>
<!-- containers&#45;&gt;core -->
<g id="edge11" class="edge">
<title>containers&#45;&gt;core</title>
<path fill="none" stroke="black" d="M540.11,-71.88C555.67,-62.72 575.02,-51.34 591.78,-41.48"/>
<polygon fill="black" stroke="black" points="593.93,-44.28 600.78,-36.19 590.38,-38.24 593.93,-44.28"/>
</g>
<!-- containers&#45;&gt;typemeta -->
<g id="edge12" class="edge">
<title>containers&#45;&gt;typemeta</title>
<path fill="none" stroke="black" d="M506.3,-71.7C504.19,-63.9 501.64,-54.51 499.28,-45.83"/>
<polygon fill="black" stroke="black" points="502.64,-44.84 496.64,-36.1 495.88,-46.67 502.64,-44.84"/>
</g>
<!-- detectors -->
<g id="node17" class="node">
<title>detectors</title>
<g id="a_node17"><a xlink:href="group_mrpt_detectors_grp.html" xlink:title="mrpt&#45;detectors">
<polygon fill="#d0d0d0" stroke="black" points="379,-828 255,-828 255,-792 379,-792 379,-828"/>
<text text-anchor="middle" x="317" y="-806.3" font-family="Times,serif" font-size="14.00">mrpt&#45;detectors</text>
</a>
</g>
</g>
<!-- detectors&#45;&gt;gui -->
<g id="edge13" class="edge">
<title>detectors&#45;&gt;gui</title>
<path fill="none" stroke="black" d="M311.81,-791.7C309.47,-783.9 306.65,-774.51 304.05,-765.83"/>
<polygon fill="black" stroke="black" points="307.36,-764.68 301.13,-756.1 300.65,-766.69 307.36,-764.68"/>
</g>
<!-- detectors&#45;&gt;slam -->
<g id="edge14" class="edge">
<title>detectors&#45;&gt;slam</title>
<path fill="none" stroke="black" d="M286.67,-791.88C270.3,-782.64 249.92,-771.13 232.35,-761.21"/>
<polygon fill="black" stroke="black" points="233.88,-758.06 223.45,-756.19 230.44,-764.15 233.88,-758.06"/>
</g>
<!-- graphs -->
<g id="node18" class="node">
<title>graphs</title>
<g id="a_node18"><a xlink:href="group_mrpt_graphs_grp.html" xlink:title="mrpt&#45;graphs">
<polygon fill="#d0d0d0" stroke="black" points="620,-612 514,-612 514,-576 620,-576 620,-612"/>
<text text-anchor="middle" x="567" y="-590.3" font-family="Times,serif" font-size="14.00">mrpt&#45;graphs</text>
</a>
</g>
</g>
<!-- graphs&#45;&gt;opengl -->
<g id="edge16" class="edge">
<title>graphs&#45;&gt;opengl</title>
<path fill="none" stroke="black" d="M562.8,-575.7C560.9,-567.9 558.62,-558.51 556.52,-549.83"/>
<polygon fill="black" stroke="black" points="559.92,-549 554.15,-540.1 553.11,-550.65 559.92,-549"/>
</g>
<!-- img -->
<g id="node22" class="node">
<title>img</title>
<g id="a_node22"><a xlink:href="group_mrpt_img_grp.html" xlink:title="mrpt&#45;img">
<polygon fill="#d0d0d0" stroke="black" points="645.5,-396 562.5,-396 562.5,-360 645.5,-360 645.5,-396"/>
<text text-anchor="middle" x="604" y="-374.3" font-family="Times,serif" font-size="14.00">mrpt&#45;img</text>
</a>
</g>
</g>
<!-- opengl&#45;&gt;img -->
<g id="edge40" class="edge">
<title>opengl&#45;&gt;img</title>
<path fill="none" stroke="black" d="M556.51,-503.87C565.8,-479.46 582.92,-434.43 593.87,-405.64"/>
<polygon fill="black" stroke="black" points="597.18,-406.78 597.46,-396.19 590.64,-404.29 597.18,-406.78"/>
</g>
<!-- poses -->
<g id="node29" class="node">
<title>poses</title>
<g id="a_node29"><a xlink:href="group_mrpt_poses_grp.html" xlink:title="mrpt&#45;poses">
<polygon fill="#d0d0d0" stroke="black" points="540.5,-468 443.5,-468 443.5,-432 540.5,-432 540.5,-468"/>
<text text-anchor="middle" x="492" y="-446.3" font-family="Times,serif" font-size="14.00">mrpt&#45;poses</text>
</a>
</g>
</g>
<!-- opengl&#45;&gt;poses -->
<g id="edge39" class="edge">
<title>opengl&#45;&gt;poses</title>
<path fill="none" stroke="black" d="M535.66,-503.7C528.71,-495.3 520.23,-485.07 512.6,-475.86"/>
<polygon fill="black" stroke="black" points="515.25,-473.57 506.17,-468.1 509.86,-478.04 515.25,-473.57"/>
</g>
<!-- maps&#45;&gt;graphs -->
<g id="edge30" class="edge">
<title>maps&#45;&gt;graphs</title>
<path fill="none" stroke="black" d="M567,-647.7C567,-639.98 567,-630.71 567,-622.11"/>
<polygon fill="black" stroke="black" points="570.5,-622.1 567,-612.1 563.5,-622.1 570.5,-622.1"/>
</g>
<!-- obs -->
<g id="node24" class="node">
<title>obs</title>
<g id="a_node24"><a xlink:href="group_mrpt_obs_grp.html" xlink:title="mrpt&#45;obs">
<polygon fill="#d0d0d0" stroke="black" points="457.5,-612 376.5,-612 376.5,-576 457.5,-576 457.5,-612"/>
<text text-anchor="middle" x="417" y="-590.3" font-family="Times,serif" font-size="14.00">mrpt&#45;obs</text>
</a>
</g>
</g>
<!-- maps&#45;&gt;obs -->
<g id="edge31" class="edge">
<title>maps&#45;&gt;obs</title>
<path fill="none" stroke="black" d="M530.31,-647.88C509.98,-638.39 484.53,-626.51 462.9,-616.42"/>
<polygon fill="black" stroke="black" points="464.12,-613.13 453.57,-612.07 461.16,-619.47 464.12,-613.13"/>
</g>
<!-- vision&#45;&gt;obs -->
<g id="edge53" class="edge">
<title>vision&#45;&gt;obs</title>
<path fill="none" stroke="black" d="M377.1,-647.7C383.39,-639.39 391.05,-629.28 397.96,-620.14"/>
<polygon fill="black" stroke="black" points="400.8,-622.19 404.05,-612.1 395.22,-617.96 400.8,-622.19"/>
</g>
<!-- img&#45;&gt;math -->
<g id="edge26" class="edge">
<title>img&#45;&gt;math</title>
<path fill="none" stroke="black" d="M608.34,-359.87C614.5,-335.56 625.85,-290.82 633.15,-262.01"/>
<polygon fill="black" stroke="black" points="636.58,-262.74 635.64,-252.19 629.79,-261.02 636.58,-262.74"/>
</g>
<!-- img&#45;&gt;config -->
<g id="edge27" class="edge">
<title>img&#45;&gt;config</title>
<path fill="none" stroke="black" d="M576.6,-359.88C562.09,-350.81 544.08,-339.55 528.41,-329.76"/>
<polygon fill="black" stroke="black" points="529.84,-326.52 519.5,-324.19 526.13,-332.46 529.84,-326.52"/>
</g>
<!-- img&#45;&gt;io -->
<g id="edge25" class="edge">
<title>img&#45;&gt;io</title>
<path fill="none" stroke="black" d="M620.56,-359.7C628.68,-351.22 638.59,-340.86 647.47,-331.58"/>
<polygon fill="black" stroke="black" points="650.24,-333.75 654.63,-324.1 645.19,-328.91 650.24,-333.75"/>
</g>
<!-- kinematics -->
<g id="node23" class="node">
<title>kinematics</title>
<g id="a_node23"><a xlink:href="group_mrpt_kinematics_grp.html" xlink:title="mrpt&#45;kinematics">
<polygon fill="#d0d0d0" stroke="black" points="794,-612 660,-612 660,-576 794,-576 794,-612"/>
<text text-anchor="middle" x="727" y="-590.3" font-family="Times,serif" font-size="14.00">mrpt&#45;kinematics</text>
</a>
</g>
</g>
<!-- kinematics&#45;&gt;opengl -->
<g id="edge29" class="edge">
<title>kinematics&#45;&gt;opengl</title>
<path fill="none" stroke="black" d="M683.7,-575.88C659.29,-566.22 628.6,-554.09 602.79,-543.88"/>
<polygon fill="black" stroke="black" points="603.74,-540.49 593.16,-540.07 601.17,-547 603.74,-540.49"/>
</g>
<!-- obs&#45;&gt;opengl -->
<g id="edge37" class="edge">
<title>obs&#45;&gt;opengl</title>
<path fill="none" stroke="black" d="M449.54,-575.88C467.25,-566.55 489.35,-554.92 508.32,-544.94"/>
<polygon fill="black" stroke="black" points="510.12,-547.94 517.34,-540.19 506.86,-541.75 510.12,-547.94"/>
</g>
<!-- tfest -->
<g id="node28" class="node">
<title>tfest</title>
<g id="a_node28"><a xlink:href="group_mrpt_tfest_grp.html" xlink:title="mrpt&#45;tfest">
<polygon fill="#d0d0d0" stroke="black" points="470.5,-540 381.5,-540 381.5,-504 470.5,-504 470.5,-540"/>
<text text-anchor="middle" x="426" y="-518.3" font-family="Times,serif" font-size="14.00">mrpt&#45;tfest</text>
</a>
</g>
</g>
<!-- obs&#45;&gt;tfest -->
<g id="edge38" class="edge">
<title>obs&#45;&gt;tfest</title>
<path fill="none" stroke="black" d="M419.22,-575.7C420.22,-567.98 421.41,-558.71 422.51,-550.11"/>
<polygon fill="black" stroke="black" points="426,-550.47 423.8,-540.1 419.05,-549.58 426,-550.47"/>
</g>
<!-- rtti -->
<g id="node30" class="node">
<title>rtti</title>
<g id="a_node30"><a xlink:href="group_mrpt_rtti_grp.html" xlink:title="mrpt&#45;rtti">
<polygon fill="#d0d0d0" stroke="black" points="675,-108 595,-108 595,-72 675,-72 675,-108"/>
<text text-anchor="middle" x="635" y="-86.3" font-family="Times,serif" font-size="14.00">mrpt&#45;rtti</text>
</a>
</g>
</g>
<!-- serialization&#45;&gt;rtti -->
<g id="edge46" class="edge">
<title>serialization&#45;&gt;rtti</title>
<path fill="none" stroke="black" d="M638.01,-143.7C637.57,-135.98 637.04,-126.71 636.55,-118.11"/>
<polygon fill="black" stroke="black" points="640.04,-117.89 635.98,-108.1 633.05,-118.29 640.04,-117.89"/>
</g>
<!-- nav -->
<g id="node27" class="node">
<title>nav</title>
<g id="a_node27"><a xlink:href="group_mrpt_nav_grp.html" xlink:title="mrpt&#45;nav">
<polygon fill="#d0d0d0" stroke="black" points="816,-756 734,-756 734,-720 816,-720 816,-756"/>
<text text-anchor="middle" x="775" y="-734.3" font-family="Times,serif" font-size="14.00">mrpt&#45;nav</text>
</a>
</g>
</g>
<!-- nav&#45;&gt;maps -->
<g id="edge36" class="edge">
<title>nav&#45;&gt;maps</title>
<path fill="none" stroke="black" d="M733.91,-723.17C702.52,-712.61 658.9,-697.93 624.12,-686.22"/>
<polygon fill="black" stroke="black" points="625.15,-682.88 614.56,-683.01 622.92,-689.51 625.15,-682.88"/>
</g>
<!-- nav&#45;&gt;kinematics -->
<g id="edge35" class="edge">
<title>nav&#45;&gt;kinematics</title>
<path fill="none" stroke="black" d="M769.21,-719.87C760.99,-695.56 745.87,-650.82 736.13,-622.01"/>
<polygon fill="black" stroke="black" points="739.33,-620.54 732.81,-612.19 732.7,-622.78 739.33,-620.54"/>
</g>
<!-- tfest&#45;&gt;poses -->
<g id="edge51" class="edge">
<title>tfest&#45;&gt;poses</title>
<path fill="none" stroke="black" d="M442.31,-503.7C450.31,-495.22 460.07,-484.86 468.82,-475.58"/>
<polygon fill="black" stroke="black" points="471.56,-477.78 475.87,-468.1 466.47,-472.98 471.56,-477.78"/>
</g>
<!-- poses&#45;&gt;bayes -->
<g id="edge41" class="edge">
<title>poses&#45;&gt;bayes</title>
<path fill="none" stroke="black" d="M492,-431.7C492,-423.98 492,-414.71 492,-406.11"/>
<polygon fill="black" stroke="black" points="495.5,-406.1 492,-396.1 488.5,-406.1 495.5,-406.1"/>
</g>
<!-- rtti&#45;&gt;core -->
<g id="edge42" class="edge">
<title>rtti&#45;&gt;core</title>
<path fill="none" stroke="black" d="M633.76,-71.7C633.21,-63.98 632.55,-54.71 631.94,-46.11"/>
<polygon fill="black" stroke="black" points="635.43,-45.83 631.22,-36.1 628.44,-46.33 635.43,-45.83"/>
</g>
<!-- rtti&#45;&gt;typemeta -->
<g id="edge43" class="edge">
<title>rtti&#45;&gt;typemeta</title>
<path fill="none" stroke="black" d="M600.02,-71.88C580.8,-62.47 556.77,-50.71 536.26,-40.67"/>
<polygon fill="black" stroke="black" points="537.64,-37.44 527.12,-36.19 534.56,-43.73 537.64,-37.44"/>
</g>
<!-- ros1bridge -->
<g id="node31" class="node">
<title>ros1bridge</title>
<g id="a_node31"><a xlink:href="group_mrpt_ros1bridge_grp.html" xlink:title="mrpt&#45;ros1bridge">
<polygon fill="#d0d0d0" stroke="black" points="678,-756 544,-756 544,-720 678,-720 678,-756"/>
<text text-anchor="middle" x="611" y="-734.3" font-family="Times,serif" font-size="14.00">mrpt&#45;ros1bridge</text>
</a>
</g>
</g>
<!-- ros1bridge&#45;&gt;maps -->
<g id="edge44" class="edge">
<title>ros1bridge&#45;&gt;maps</title>
<path fill="none" stroke="black" d="M600.12,-719.7C595.01,-711.56 588.8,-701.69 583.16,-692.7"/>
<polygon fill="black" stroke="black" points="586.04,-690.71 577.75,-684.1 580.11,-694.43 586.04,-690.71"/>
</g>
<!-- ros2bridge -->
<g id="node32" class="node">
<title>ros2bridge</title>
<g id="a_node32"><a xlink:href="group_mrpt_ros2bridge_grp.html" xlink:title="mrpt&#45;ros2bridge">
<polygon fill="#d0d0d0" stroke="black" points="526,-756 392,-756 392,-720 526,-720 526,-756"/>
<text text-anchor="middle" x="459" y="-734.3" font-family="Times,serif" font-size="14.00">mrpt&#45;ros2bridge</text>
</a>
</g>
</g>
<!-- ros2bridge&#45;&gt;maps -->
<g id="edge45" class="edge">
<title>ros2bridge&#45;&gt;maps</title>
<path fill="none" stroke="black" d="M485.42,-719.88C499.41,-710.81 516.78,-699.55 531.89,-689.76"/>
<polygon fill="black" stroke="black" points="533.99,-692.57 540.48,-684.19 530.18,-686.69 533.99,-692.57"/>
</g>
<!-- topography -->
<g id="node33" class="node">
<title>topography</title>
<g id="a_node33"><a xlink:href="group_mrpt_topography_grp.html" xlink:title="mrpt&#45;topography">
<polygon fill="#d0d0d0" stroke="black" points="297,-684 159,-684 159,-648 297,-648 297,-684"/>
<text text-anchor="middle" x="228" y="-662.3" font-family="Times,serif" font-size="14.00">mrpt&#45;topography</text>
</a>
</g>
</g>
<!-- topography&#45;&gt;obs -->
<g id="edge52" class="edge">
<title>topography&#45;&gt;obs</title>
<path fill="none" stroke="black" d="M274.23,-647.88C302.32,-637.48 338.17,-624.2 366.92,-613.55"/>
<polygon fill="black" stroke="black" points="368.21,-616.8 376.38,-610.05 365.78,-610.24 368.21,-616.8"/>
</g>
<!-- visionlgpl -->
<g id="node34" class="node">
<title>visionlgpl</title>
<g id="a_node34"><a xlink:href="group_mrpt_vision_lgpl_grp.html" xlink:title="mrpt&#45;vision&#45;lgpl">
<polygon fill="#d0d0d0" stroke="black" points="130,-756 0,-756 0,-720 130,-720 130,-756"/>
<text text-anchor="middle" x="65" y="-734.3" font-family="Times,serif" font-size="14.00">mrpt&#45;vision&#45;lgpl</text>
</a>
</g>
</g>
<!-- visionlgpl&#45;&gt;vision -->
<g id="edge54" class="edge">
<title>visionlgpl&#45;&gt;vision</title>
<path fill="none" stroke="black" d="M130.36,-721.93C133.28,-721.28 136.17,-720.63 139,-720 210.07,-704.18 230.73,-702.78 304.89,-684.2"/>
<polygon fill="black" stroke="black" points="305.87,-687.56 314.71,-681.71 304.15,-680.77 305.87,-687.56"/>
</g>
</g>
</svg>
