<?xml version="1.0" encoding="UTF-8" standalone="no"?>
<!DOCTYPE svg PUBLIC "-//W3C//DTD SVG 1.1//EN"
 "http://www.w3.org/Graphics/SVG/1.1/DTD/svg11.dtd">
<!-- Generated by graphviz version 2.43.0 (0)
 -->
<!-- Title: MRPT_LIBS Pages: 1 -->
<svg width="850pt" height="908pt"
 viewBox="0.00 0.00 849.50 908.00" xmlns="http://www.w3.org/2000/svg" xmlns:xlink="http://www.w3.org/1999/xlink">
<g id="graph0" class="graph" transform="scale(1 1) rotate(0) translate(4 904)">
<title>MRPT_LIBS</title>
<polygon fill="white" stroke="transparent" points="-4,4 -4,-904 845.5,-904 845.5,4 -4,4"/>
<!-- apps -->
<g id="node1" class="node">
<title>apps</title>
<g id="a_node1"><a xlink:href="group_mrpt_bayes_grp.html" xlink:title="mrpt&#45;apps">
<polygon fill="#d0d0d0" stroke="black" points="209.5,-900 119.5,-900 119.5,-864 209.5,-864 209.5,-900"/>
<text text-anchor="middle" x="164.5" y="-878.3" font-family="Times,serif" font-size="14.00">mrpt&#45;apps</text>
</a>
</g>
</g>
<!-- gui -->
<g id="node2" class="node">
<title>gui</title>
<g id="a_node2"><a xlink:href="group_mrpt_gui_grp.html" xlink:title="mrpt&#45;gui">
<polygon fill="#d0d0d0" stroke="black" points="79,-684 0,-684 0,-648 79,-648 79,-684"/>
<text text-anchor="middle" x="39.5" y="-662.3" font-family="Times,serif" font-size="14.00">mrpt&#45;gui</text>
</a>
</g>
</g>
<!-- apps&#45;&gt;gui -->
<g id="edge1" class="edge">
<title>apps&#45;&gt;gui</title>
<path fill="none" stroke="black" d="M134.64,-863.9C101.8,-843.18 50.86,-804.88 29.5,-756 20.93,-736.38 24.47,-712.11 29.58,-693.87"/>
<polygon fill="black" stroke="black" points="32.97,-694.76 32.6,-684.17 26.28,-692.68 32.97,-694.76"/>
</g>
<!-- slam -->
<g id="node3" class="node">
<title>slam</title>
<g id="a_node3"><a xlink:href="group_mrpt_slam_grp.html" xlink:title="mrpt&#45;slam">
<polygon fill="#d0d0d0" stroke="black" points="693.5,-756 603.5,-756 603.5,-720 693.5,-720 693.5,-756"/>
<text text-anchor="middle" x="648.5" y="-734.3" font-family="Times,serif" font-size="14.00">mrpt&#45;slam</text>
</a>
</g>
</g>
<!-- apps&#45;&gt;slam -->
<g id="edge2" class="edge">
<title>apps&#45;&gt;slam</title>
<path fill="none" stroke="black" d="M209.79,-868.19C286.6,-846.39 447.51,-800.38 593.83,-756.18"/>
<polygon fill="black" stroke="black" points="594.88,-759.51 603.44,-753.27 592.86,-752.81 594.88,-759.51"/>
</g>
<!-- hwdrivers -->
<g id="node4" class="node">
<title>hwdrivers</title>
<g id="a_node4"><a xlink:href="group_mrpt_hwdrivers_grp.html" xlink:title="mrpt&#45;hwdrivers">
<polygon fill="#d0d0d0" stroke="black" points="181.5,-756 53.5,-756 53.5,-720 181.5,-720 181.5,-756"/>
<text text-anchor="middle" x="117.5" y="-734.3" font-family="Times,serif" font-size="14.00">mrpt&#45;hwdrivers</text>
</a>
</g>
</g>
<!-- apps&#45;&gt;hwdrivers -->
<g id="edge3" class="edge">
<title>apps&#45;&gt;hwdrivers</title>
<path fill="none" stroke="black" d="M153.91,-863.89C148.04,-853.77 141.04,-840.52 136.5,-828 129.19,-807.86 124.29,-784.08 121.3,-766.17"/>
<polygon fill="black" stroke="black" points="124.73,-765.45 119.72,-756.12 117.82,-766.54 124.73,-765.45"/>
</g>
<!-- graphslam -->
<g id="node5" class="node">
<title>graphslam</title>
<g id="a_node5"><a xlink:href="group_mrpt_graphslam_grp.html" xlink:title="mrpt&#45;graphslam">
<polygon fill="#d0d0d0" stroke="black" points="277.5,-828 145.5,-828 145.5,-792 277.5,-792 277.5,-828"/>
<text text-anchor="middle" x="211.5" y="-806.3" font-family="Times,serif" font-size="14.00">mrpt&#45;graphslam</text>
</a>
</g>
</g>
<!-- apps&#45;&gt;graphslam -->
<g id="edge4" class="edge">
<title>apps&#45;&gt;graphslam</title>
<path fill="none" stroke="black" d="M176.12,-863.7C181.64,-855.47 188.35,-845.48 194.43,-836.42"/>
<polygon fill="black" stroke="black" points="197.35,-838.36 200.02,-828.1 191.54,-834.46 197.35,-838.36"/>
</g>
<!-- opengl -->
<g id="node17" class="node">
<title>opengl</title>
<g id="a_node17"><a xlink:href="group_mrpt_opengl_grp.html" xlink:title="mrpt&#45;opengl">
<polygon fill="#d0d0d0" stroke="black" points="337.5,-540 233.5,-540 233.5,-504 337.5,-504 337.5,-540"/>
<text text-anchor="middle" x="285.5" y="-518.3" font-family="Times,serif" font-size="14.00">mrpt&#45;opengl</text>
</a>
</g>
</g>
<!-- gui&#45;&gt;opengl -->
<g id="edge15" class="edge">
<title>gui&#45;&gt;opengl</title>
<path fill="none" stroke="black" d="M66.61,-648C95.91,-629.76 144.12,-600.15 186.5,-576 204.96,-565.48 225.65,-554.31 243.32,-544.95"/>
<polygon fill="black" stroke="black" points="245.05,-548 252.26,-540.23 241.78,-541.8 245.05,-548"/>
</g>
<!-- maps -->
<g id="node18" class="node">
<title>maps</title>
<g id="a_node18"><a xlink:href="group_mrpt_maps_grp.html" xlink:title="mrpt&#45;maps">
<polygon fill="#d0d0d0" stroke="black" points="387,-684 292,-684 292,-648 387,-648 387,-684"/>
<text text-anchor="middle" x="339.5" y="-662.3" font-family="Times,serif" font-size="14.00">mrpt&#45;maps</text>
</a>
</g>
</g>
<!-- slam&#45;&gt;maps -->
<g id="edge42" class="edge">
<title>slam&#45;&gt;maps</title>
<path fill="none" stroke="black" d="M603.22,-722.38C600.28,-721.55 597.35,-720.74 594.5,-720 527.43,-702.52 449.26,-686.97 397.32,-677.31"/>
<polygon fill="black" stroke="black" points="397.77,-673.83 387.3,-675.46 396.5,-680.71 397.77,-673.83"/>
</g>
<!-- vision -->
<g id="node19" class="node">
<title>vision</title>
<g id="a_node19"><a xlink:href="group_mrpt_vision_grp.html" xlink:title="mrpt&#45;vision">
<polygon fill="#d0d0d0" stroke="black" points="697.5,-684 599.5,-684 599.5,-648 697.5,-648 697.5,-684"/>
<text text-anchor="middle" x="648.5" y="-662.3" font-family="Times,serif" font-size="14.00">mrpt&#45;vision</text>
</a>
</g>
</g>
<!-- slam&#45;&gt;vision -->
<g id="edge43" class="edge">
<title>slam&#45;&gt;vision</title>
<path fill="none" stroke="black" d="M648.5,-719.7C648.5,-711.98 648.5,-702.71 648.5,-694.11"/>
<polygon fill="black" stroke="black" points="652,-694.1 648.5,-684.1 645,-694.1 652,-694.1"/>
</g>
<!-- hwdrivers&#45;&gt;gui -->
<g id="edge17" class="edge">
<title>hwdrivers&#45;&gt;gui</title>
<path fill="none" stroke="black" d="M98.22,-719.7C88.58,-711.05 76.77,-700.45 66.27,-691.03"/>
<polygon fill="black" stroke="black" points="68.34,-688.18 58.56,-684.1 63.66,-693.39 68.34,-688.18"/>
</g>
<!-- comms -->
<g id="node9" class="node">
<title>comms</title>
<g id="a_node9"><a xlink:href="group_mrpt_comms_grp.html" xlink:title="mrpt&#45;comms">
<polygon fill="#d0d0d0" stroke="black" points="187,-468 80,-468 80,-432 187,-432 187,-468"/>
<text text-anchor="middle" x="133.5" y="-446.3" font-family="Times,serif" font-size="14.00">mrpt&#45;comms</text>
</a>
</g>
</g>
<!-- hwdrivers&#45;&gt;comms -->
<g id="edge16" class="edge">
<title>hwdrivers&#45;&gt;comms</title>
<path fill="none" stroke="black" d="M118.45,-719.97C121.12,-672.29 128.68,-537.18 131.95,-478.63"/>
<polygon fill="black" stroke="black" points="135.47,-478.49 132.53,-468.31 128.48,-478.1 135.47,-478.49"/>
</g>
<!-- hwdrivers&#45;&gt;maps -->
<g id="edge18" class="edge">
<title>hwdrivers&#45;&gt;maps</title>
<path fill="none" stroke="black" d="M171.52,-719.97C204.93,-709.43 247.79,-695.92 281.85,-685.18"/>
<polygon fill="black" stroke="black" points="283.18,-688.43 291.66,-682.08 281.07,-681.75 283.18,-688.43"/>
</g>
<!-- hwdrivers&#45;&gt;vision -->
<g id="edge19" class="edge">
<title>hwdrivers&#45;&gt;vision</title>
<path fill="none" stroke="black" d="M181.89,-721.49C184.79,-720.96 187.67,-720.45 190.5,-720 363.55,-692.2 413.34,-716.36 589.45,-683.98"/>
<polygon fill="black" stroke="black" points="590.11,-687.41 599.3,-682.13 588.83,-680.53 590.11,-687.41"/>
</g>
<!-- graphslam&#45;&gt;gui -->
<g id="edge13" class="edge">
<title>graphslam&#45;&gt;gui</title>
<path fill="none" stroke="black" d="M145.48,-805.51C109.79,-799.91 68.27,-786.64 44.5,-756 31.05,-738.67 30.97,-713.24 33.56,-694"/>
<polygon fill="black" stroke="black" points="37.03,-694.48 35.22,-684.04 30.13,-693.33 37.03,-694.48"/>
</g>
<!-- graphslam&#45;&gt;slam -->
<g id="edge14" class="edge">
<title>graphslam&#45;&gt;slam</title>
<path fill="none" stroke="black" d="M277.84,-803.22C352.51,-795.96 477.48,-781.52 593.18,-756.09"/>
<polygon fill="black" stroke="black" points="594.28,-759.44 603.28,-753.84 592.75,-752.6 594.28,-759.44"/>
</g>
<!-- bayes -->
<g id="node6" class="node">
<title>bayes</title>
<g id="a_node6"><a xlink:href="group_mrpt_bayes_grp.html" xlink:title="mrpt&#45;bayes">
<polygon fill="#d0d0d0" stroke="black" points="423.5,-396 325.5,-396 325.5,-360 423.5,-360 423.5,-396"/>
<text text-anchor="middle" x="374.5" y="-374.3" font-family="Times,serif" font-size="14.00">mrpt&#45;bayes</text>
</a>
</g>
</g>
<!-- math -->
<g id="node7" class="node">
<title>math</title>
<g id="a_node7"><a xlink:href="group_mrpt_math_grp.html" xlink:title="mrpt&#45;math">
<polygon fill="#d0d0d0" stroke="black" points="436,-252 343,-252 343,-216 436,-216 436,-252"/>
<text text-anchor="middle" x="389.5" y="-230.3" font-family="Times,serif" font-size="14.00">mrpt&#45;math</text>
</a>
</g>
</g>
<!-- bayes&#45;&gt;math -->
<g id="edge5" class="edge">
<title>bayes&#45;&gt;math</title>
<path fill="none" stroke="black" d="M376.31,-359.87C378.87,-335.67 383.56,-291.21 386.61,-262.39"/>
<polygon fill="black" stroke="black" points="390.11,-262.5 387.68,-252.19 383.15,-261.77 390.11,-262.5"/>
</g>
<!-- config -->
<g id="node8" class="node">
<title>config</title>
<g id="a_node8"><a xlink:href="group_mrpt_config_grp.html" xlink:title="mrpt&#45;config">
<polygon fill="#d0d0d0" stroke="black" points="366,-324 267,-324 267,-288 366,-288 366,-324"/>
<text text-anchor="middle" x="316.5" y="-302.3" font-family="Times,serif" font-size="14.00">mrpt&#45;config</text>
</a>
</g>
</g>
<!-- bayes&#45;&gt;config -->
<g id="edge6" class="edge">
<title>bayes&#45;&gt;config</title>
<path fill="none" stroke="black" d="M360.16,-359.7C353.21,-351.3 344.73,-341.07 337.1,-331.86"/>
<polygon fill="black" stroke="black" points="339.75,-329.57 330.67,-324.1 334.36,-334.04 339.75,-329.57"/>
</g>
<!-- system -->
<g id="node15" class="node">
<title>system</title>
<g id="a_node15"><a xlink:href="group_mrpt_system_grp.html" xlink:title="mrpt&#45;system">
<polygon fill="#d0d0d0" stroke="black" points="299,-180 192,-180 192,-144 299,-144 299,-180"/>
<text text-anchor="middle" x="245.5" y="-158.3" font-family="Times,serif" font-size="14.00">mrpt&#45;system</text>
</a>
</g>
</g>
<!-- math&#45;&gt;system -->
<g id="edge29" class="edge">
<title>math&#45;&gt;system</title>
<path fill="none" stroke="black" d="M354.27,-215.88C334.92,-206.47 310.73,-194.71 290.07,-184.67"/>
<polygon fill="black" stroke="black" points="291.39,-181.41 280.86,-180.19 288.33,-187.71 291.39,-181.41"/>
</g>
<!-- serialization -->
<g id="node23" class="node">
<title>serialization</title>
<g id="a_node23"><a xlink:href="group_mrpt_serialization_grp.html" xlink:title="mrpt&#45;serialization">
<polygon fill="#d0d0d0" stroke="black" points="461.5,-180 317.5,-180 317.5,-144 461.5,-144 461.5,-180"/>
<text text-anchor="middle" x="389.5" y="-158.3" font-family="Times,serif" font-size="14.00">mrpt&#45;serialization</text>
</a>
</g>
</g>
<!-- math&#45;&gt;serialization -->
<g id="edge27" class="edge">
<title>math&#45;&gt;serialization</title>
<path fill="none" stroke="black" d="M389.5,-215.7C389.5,-207.98 389.5,-198.71 389.5,-190.11"/>
<polygon fill="black" stroke="black" points="393,-190.1 389.5,-180.1 386,-190.1 393,-190.1"/>
</g>
<!-- random -->
<g id="node24" class="node">
<title>random</title>
<g id="a_node24"><a xlink:href="group_mrpt_random_grp.html" xlink:title="mrpt&#45;random">
<polygon fill="#d0d0d0" stroke="black" points="553,-36 442,-36 442,0 553,0 553,-36"/>
<text text-anchor="middle" x="497.5" y="-14.3" font-family="Times,serif" font-size="14.00">mrpt&#45;random</text>
</a>
</g>
</g>
<!-- math&#45;&gt;random -->
<g id="edge28" class="edge">
<title>math&#45;&gt;random</title>
<path fill="none" stroke="black" d="M429.04,-215.81C444.31,-207.22 460.48,-195.33 470.5,-180 497.22,-139.11 500.2,-80.3 499.29,-46.24"/>
<polygon fill="black" stroke="black" points="502.79,-45.96 498.89,-36.1 495.79,-46.23 502.79,-45.96"/>
</g>
<!-- expr -->
<g id="node11" class="node">
<title>expr</title>
<g id="a_node11"><a xlink:href="group_mrpt_expr_grp.html" xlink:title="mrpt&#45;expr">
<polygon fill="#d0d0d0" stroke="black" points="320,-252 231,-252 231,-216 320,-216 320,-252"/>
<text text-anchor="middle" x="275.5" y="-230.3" font-family="Times,serif" font-size="14.00">mrpt&#45;expr</text>
</a>
</g>
</g>
<!-- config&#45;&gt;expr -->
<g id="edge8" class="edge">
<title>config&#45;&gt;expr</title>
<path fill="none" stroke="black" d="M306.37,-287.7C301.65,-279.64 295.94,-269.89 290.72,-260.98"/>
<polygon fill="black" stroke="black" points="293.59,-258.96 285.52,-252.1 287.55,-262.5 293.59,-258.96"/>
</g>
<!-- io -->
<g id="node10" class="node">
<title>io</title>
<g id="a_node10"><a xlink:href="group_mrpt_io_grp.html" xlink:title="mrpt&#45;io">
<polygon fill="#d0d0d0" stroke="black" points="210,-324 141,-324 141,-288 210,-288 210,-324"/>
<text text-anchor="middle" x="175.5" y="-302.3" font-family="Times,serif" font-size="14.00">mrpt&#45;io</text>
</a>
</g>
</g>
<!-- comms&#45;&gt;io -->
<g id="edge7" class="edge">
<title>comms&#45;&gt;io</title>
<path fill="none" stroke="black" d="M138.57,-431.87C145.76,-407.56 158.99,-362.82 167.51,-334.01"/>
<polygon fill="black" stroke="black" points="170.94,-334.77 170.42,-324.19 164.22,-332.79 170.94,-334.77"/>
</g>
<!-- io&#45;&gt;system -->
<g id="edge23" class="edge">
<title>io&#45;&gt;system</title>
<path fill="none" stroke="black" d="M183.94,-287.87C196.03,-263.35 218.37,-218.03 232.56,-189.26"/>
<polygon fill="black" stroke="black" points="235.74,-190.71 237.03,-180.19 229.47,-187.61 235.74,-190.71"/>
</g>
<!-- expr&#45;&gt;system -->
<g id="edge11" class="edge">
<title>expr&#45;&gt;system</title>
<path fill="none" stroke="black" d="M268.08,-215.7C264.71,-207.81 260.63,-198.3 256.88,-189.55"/>
<polygon fill="black" stroke="black" points="259.99,-187.92 252.83,-180.1 253.55,-190.67 259.99,-187.92"/>
</g>
<!-- containers -->
<g id="node12" class="node">
<title>containers</title>
<g id="a_node12"><a xlink:href="group_mrpt_containers_grp.html" xlink:title="mrpt&#45;containers">
<polygon fill="#d0d0d0" stroke="black" points="327,-108 196,-108 196,-72 327,-72 327,-108"/>
<text text-anchor="middle" x="261.5" y="-86.3" font-family="Times,serif" font-size="14.00">mrpt&#45;containers</text>
</a>
</g>
</g>
<!-- core -->
<g id="node13" class="node">
<title>core</title>
<g id="a_node13"><a xlink:href="group_mrpt_core_grp.html" xlink:title="mrpt&#45;core">
<polygon fill="#d0d0d0" stroke="black" points="424,-36 337,-36 337,0 424,0 424,-36"/>
<text text-anchor="middle" x="380.5" y="-14.3" font-family="Times,serif" font-size="14.00">mrpt&#45;core</text>
</a>
</g>
</g>
<!-- containers&#45;&gt;core -->
<g id="edge9" class="edge">
<title>containers&#45;&gt;core</title>
<path fill="none" stroke="black" d="M290.61,-71.88C306.17,-62.72 325.52,-51.34 342.28,-41.48"/>
<polygon fill="black" stroke="black" points="344.43,-44.28 351.28,-36.19 340.88,-38.24 344.43,-44.28"/>
</g>
<!-- typemeta -->
<g id="node14" class="node">
<title>typemeta</title>
<g id="a_node14"><a xlink:href="group_mrpt_typemeta_grp.html" xlink:title="mrpt&#45;typemeta (.h)">
<polygon fill="#d0d0d0" stroke="black" points="318.5,-36 166.5,-36 166.5,0 318.5,0 318.5,-36"/>
<text text-anchor="middle" x="242.5" y="-14.3" font-family="Times,serif" font-size="14.00">mrpt&#45;typemeta (.h)</text>
</a>
</g>
</g>
<!-- containers&#45;&gt;typemeta -->
<g id="edge10" class="edge">
<title>containers&#45;&gt;typemeta</title>
<path fill="none" stroke="black" d="M256.8,-71.7C254.69,-63.9 252.14,-54.51 249.78,-45.83"/>
<polygon fill="black" stroke="black" points="253.14,-44.84 247.14,-36.1 246.38,-46.67 253.14,-44.84"/>
</g>
<!-- system&#45;&gt;containers -->
<g id="edge45" class="edge">
<title>system&#45;&gt;containers</title>
<path fill="none" stroke="black" d="M249.46,-143.7C251.22,-135.98 253.34,-126.71 255.3,-118.11"/>
<polygon fill="black" stroke="black" points="258.77,-118.63 257.59,-108.1 251.95,-117.07 258.77,-118.63"/>
</g>
<!-- system&#45;&gt;typemeta -->
<g id="edge44" class="edge">
<title>system&#45;&gt;typemeta</title>
<path fill="none" stroke="black" d="M217.7,-143.87C205.73,-134.84 193,-122.59 186.5,-108 179.98,-93.39 180.17,-86.7 186.5,-72 191.29,-60.87 199.69,-50.99 208.55,-42.86"/>
<polygon fill="black" stroke="black" points="211.04,-45.34 216.38,-36.18 206.5,-40.01 211.04,-45.34"/>
</g>
<!-- graphs -->
<g id="node16" class="node">
<title>graphs</title>
<g id="a_node16"><a xlink:href="group_mrpt_graphs_grp.html" xlink:title="mrpt&#45;graphs">
<polygon fill="#d0d0d0" stroke="black" points="301.5,-612 195.5,-612 195.5,-576 301.5,-576 301.5,-612"/>
<text text-anchor="middle" x="248.5" y="-590.3" font-family="Times,serif" font-size="14.00">mrpt&#45;graphs</text>
</a>
</g>
</g>
<!-- graphs&#45;&gt;opengl -->
<g id="edge12" class="edge">
<title>graphs&#45;&gt;opengl</title>
<path fill="none" stroke="black" d="M257.65,-575.7C261.9,-567.64 267.06,-557.89 271.77,-548.98"/>
<polygon fill="black" stroke="black" points="274.88,-550.58 276.46,-540.1 268.69,-547.31 274.88,-550.58"/>
</g>
<!-- img -->
<g id="node20" class="node">
<title>img</title>
<g id="a_node20"><a xlink:href="group_mrpt_img_grp.html" xlink:title="mrpt&#45;img">
<polygon fill="#d0d0d0" stroke="black" points="299,-396 216,-396 216,-360 299,-360 299,-396"/>
<text text-anchor="middle" x="257.5" y="-374.3" font-family="Times,serif" font-size="14.00">mrpt&#45;img</text>
</a>
</g>
</g>
<!-- opengl&#45;&gt;img -->
<g id="edge35" class="edge">
<title>opengl&#45;&gt;img</title>
<path fill="none" stroke="black" d="M282.12,-503.87C277.33,-479.56 268.51,-434.82 262.83,-406.01"/>
<polygon fill="black" stroke="black" points="266.26,-405.32 260.89,-396.19 259.39,-406.68 266.26,-405.32"/>
</g>
<!-- poses -->
<g id="node27" class="node">
<title>poses</title>
<g id="a_node27"><a xlink:href="group_mrpt_poses_grp.html" xlink:title="mrpt&#45;poses">
<polygon fill="#d0d0d0" stroke="black" points="423,-468 326,-468 326,-432 423,-432 423,-468"/>
<text text-anchor="middle" x="374.5" y="-446.3" font-family="Times,serif" font-size="14.00">mrpt&#45;poses</text>
</a>
</g>
</g>
<!-- opengl&#45;&gt;poses -->
<g id="edge34" class="edge">
<title>opengl&#45;&gt;poses</title>
<path fill="none" stroke="black" d="M307.5,-503.7C318.71,-494.88 332.5,-484.03 344.65,-474.47"/>
<polygon fill="black" stroke="black" points="347.06,-477.04 352.75,-468.1 342.73,-471.54 347.06,-477.04"/>
</g>
<!-- maps&#45;&gt;graphs -->
<g id="edge25" class="edge">
<title>maps&#45;&gt;graphs</title>
<path fill="none" stroke="black" d="M317.01,-647.7C305.54,-638.88 291.44,-628.03 279.02,-618.47"/>
<polygon fill="black" stroke="black" points="280.8,-615.43 270.74,-612.1 276.53,-620.98 280.8,-615.43"/>
</g>
<!-- obs -->
<g id="node22" class="node">
<title>obs</title>
<g id="a_node22"><a xlink:href="group_mrpt_obs_grp.html" xlink:title="mrpt&#45;obs">
<polygon fill="#d0d0d0" stroke="black" points="553,-612 472,-612 472,-576 553,-576 553,-612"/>
<text text-anchor="middle" x="512.5" y="-590.3" font-family="Times,serif" font-size="14.00">mrpt&#45;obs</text>
</a>
</g>
</g>
<!-- maps&#45;&gt;obs -->
<g id="edge26" class="edge">
<title>maps&#45;&gt;obs</title>
<path fill="none" stroke="black" d="M381.82,-647.88C406.12,-638.04 436.79,-625.63 462.3,-615.31"/>
<polygon fill="black" stroke="black" points="463.85,-618.46 471.81,-611.47 461.22,-611.97 463.85,-618.46"/>
</g>
<!-- vision&#45;&gt;obs -->
<g id="edge48" class="edge">
<title>vision&#45;&gt;obs</title>
<path fill="none" stroke="black" d="M615.23,-647.88C597.04,-638.51 574.31,-626.81 554.86,-616.8"/>
<polygon fill="black" stroke="black" points="556.39,-613.65 545.9,-612.19 553.19,-619.88 556.39,-613.65"/>
</g>
<!-- img&#45;&gt;math -->
<g id="edge21" class="edge">
<title>img&#45;&gt;math</title>
<path fill="none" stroke="black" d="M252.26,-359.96C247.45,-340.74 243.05,-309.38 257.5,-288 266.65,-274.47 301.6,-260.76 333.24,-250.68"/>
<polygon fill="black" stroke="black" points="334.41,-253.98 342.92,-247.67 332.33,-247.3 334.41,-253.98"/>
</g>
<!-- img&#45;&gt;config -->
<g id="edge22" class="edge">
<title>img&#45;&gt;config</title>
<path fill="none" stroke="black" d="M272.08,-359.7C279.16,-351.3 287.78,-341.07 295.55,-331.86"/>
<polygon fill="black" stroke="black" points="298.31,-334.01 302.08,-324.1 292.96,-329.49 298.31,-334.01"/>
</g>
<!-- img&#45;&gt;io -->
<g id="edge20" class="edge">
<title>img&#45;&gt;io</title>
<path fill="none" stroke="black" d="M237.23,-359.7C227,-350.97 214.44,-340.24 203.32,-330.75"/>
<polygon fill="black" stroke="black" points="205.41,-327.94 195.54,-324.1 200.87,-333.26 205.41,-327.94"/>
</g>
<!-- kinematics -->
<g id="node21" class="node">
<title>kinematics</title>
<g id="a_node21"><a xlink:href="group_mrpt_kinematics_grp.html" xlink:title="mrpt&#45;kinematics">
<polygon fill="#d0d0d0" stroke="black" points="453.5,-612 319.5,-612 319.5,-576 453.5,-576 453.5,-612"/>
<text text-anchor="middle" x="386.5" y="-590.3" font-family="Times,serif" font-size="14.00">mrpt&#45;kinematics</text>
</a>
</g>
</g>
<!-- kinematics&#45;&gt;opengl -->
<g id="edge24" class="edge">
<title>kinematics&#45;&gt;opengl</title>
<path fill="none" stroke="black" d="M361.79,-575.88C348.83,-566.89 332.77,-555.76 318.73,-546.03"/>
<polygon fill="black" stroke="black" points="320.52,-543.01 310.3,-540.19 316.53,-548.76 320.52,-543.01"/>
</g>
<!-- obs&#45;&gt;opengl -->
<g id="edge32" class="edge">
<title>obs&#45;&gt;opengl</title>
<path fill="none" stroke="black" d="M471.88,-579.05C468.71,-578 465.56,-576.98 462.5,-576 424.4,-563.82 381.42,-550.94 347.36,-540.92"/>
<polygon fill="black" stroke="black" points="348.13,-537.49 337.55,-538.04 346.16,-544.21 348.13,-537.49"/>
</g>
<!-- tfest -->
<g id="node26" class="node">
<title>tfest</title>
<g id="a_node26"><a xlink:href="group_mrpt_tfest_grp.html" xlink:title="mrpt&#45;tfest">
<polygon fill="#d0d0d0" stroke="black" points="519,-540 430,-540 430,-504 519,-504 519,-540"/>
<text text-anchor="middle" x="474.5" y="-518.3" font-family="Times,serif" font-size="14.00">mrpt&#45;tfest</text>
</a>
</g>
</g>
<!-- obs&#45;&gt;tfest -->
<g id="edge33" class="edge">
<title>obs&#45;&gt;tfest</title>
<path fill="none" stroke="black" d="M503.11,-575.7C498.74,-567.64 493.44,-557.89 488.6,-548.98"/>
<polygon fill="black" stroke="black" points="491.63,-547.22 483.79,-540.1 485.48,-550.56 491.63,-547.22"/>
</g>
<!-- rtti -->
<g id="node28" class="node">
<title>rtti</title>
<g id="a_node28"><a xlink:href="group_mrpt_rtti_grp.html" xlink:title="mrpt&#45;rtti">
<polygon fill="#d0d0d0" stroke="black" points="425.5,-108 345.5,-108 345.5,-72 425.5,-72 425.5,-108"/>
<text text-anchor="middle" x="385.5" y="-86.3" font-family="Times,serif" font-size="14.00">mrpt&#45;rtti</text>
</a>
</g>
</g>
<!-- serialization&#45;&gt;rtti -->
<g id="edge41" class="edge">
<title>serialization&#45;&gt;rtti</title>
<path fill="none" stroke="black" d="M388.51,-143.7C388.07,-135.98 387.54,-126.71 387.05,-118.11"/>
<polygon fill="black" stroke="black" points="390.54,-117.89 386.48,-108.1 383.55,-118.29 390.54,-117.89"/>
</g>
<!-- nav -->
<g id="node25" class="node">
<title>nav</title>
<g id="a_node25"><a xlink:href="group_mrpt_nav_grp.html" xlink:title="mrpt&#45;nav">
<polygon fill="#d0d0d0" stroke="black" points="585.5,-756 503.5,-756 503.5,-720 585.5,-720 585.5,-756"/>
<text text-anchor="middle" x="544.5" y="-734.3" font-family="Times,serif" font-size="14.00">mrpt&#45;nav</text>
</a>
</g>
</g>
<!-- nav&#45;&gt;maps -->
<g id="edge31" class="edge">
<title>nav&#45;&gt;maps</title>
<path fill="none" stroke="black" d="M503.02,-722.83C472.45,-712.4 430.52,-698.08 396.76,-686.55"/>
<polygon fill="black" stroke="black" points="397.62,-683.15 387.03,-683.23 395.36,-689.77 397.62,-683.15"/>
</g>
<!-- nav&#45;&gt;kinematics -->
<g id="edge30" class="edge">
<title>nav&#45;&gt;kinematics</title>
<path fill="none" stroke="black" d="M503.25,-720.29C476.67,-708.93 445.15,-694.18 434.5,-684 416.34,-666.65 403.49,-640.9 395.68,-621.55"/>
<polygon fill="black" stroke="black" points="398.9,-620.18 392.06,-612.1 392.37,-622.69 398.9,-620.18"/>
</g>
<!-- tfest&#45;&gt;poses -->
<g id="edge46" class="edge">
<title>tfest&#45;&gt;poses</title>
<path fill="none" stroke="black" d="M450.04,-503.88C437.2,-494.89 421.3,-483.76 407.41,-474.03"/>
<polygon fill="black" stroke="black" points="409.26,-471.06 399.06,-468.19 405.24,-476.79 409.26,-471.06"/>
</g>
<!-- poses&#45;&gt;bayes -->
<g id="edge36" class="edge">
<title>poses&#45;&gt;bayes</title>
<path fill="none" stroke="black" d="M374.5,-431.7C374.5,-423.98 374.5,-414.71 374.5,-406.11"/>
<polygon fill="black" stroke="black" points="378,-406.1 374.5,-396.1 371,-406.1 378,-406.1"/>
</g>
<!-- rtti&#45;&gt;core -->
<g id="edge37" class="edge">
<title>rtti&#45;&gt;core</title>
<path fill="none" stroke="black" d="M384.26,-71.7C383.71,-63.98 383.05,-54.71 382.44,-46.11"/>
<polygon fill="black" stroke="black" points="385.93,-45.83 381.72,-36.1 378.94,-46.33 385.93,-45.83"/>
</g>
<!-- rtti&#45;&gt;typemeta -->
<g id="edge38" class="edge">
<title>rtti&#45;&gt;typemeta</title>
<path fill="none" stroke="black" d="M350.52,-71.88C331.3,-62.47 307.27,-50.71 286.76,-40.67"/>
<polygon fill="black" stroke="black" points="288.14,-37.44 277.62,-36.19 285.06,-43.73 288.14,-37.44"/>
</g>
<!-- ros1bridge -->
<g id="node29" class="node">
<title>ros1bridge</title>
<g id="a_node29"><a xlink:href="group_mrpt_ros1bridge_grp.html" xlink:title="mrpt&#45;ros1bridge">
<polygon fill="#d0d0d0" stroke="black" points="485.5,-756 351.5,-756 351.5,-720 485.5,-720 485.5,-756"/>
<text text-anchor="middle" x="418.5" y="-734.3" font-family="Times,serif" font-size="14.00">mrpt&#45;ros1bridge</text>
</a>
</g>
</g>
<!-- ros1bridge&#45;&gt;maps -->
<g id="edge39" class="edge">
<title>ros1bridge&#45;&gt;maps</title>
<path fill="none" stroke="black" d="M398.97,-719.7C389.12,-710.97 377.01,-700.24 366.3,-690.75"/>
<polygon fill="black" stroke="black" points="368.61,-688.12 358.8,-684.1 363.97,-693.36 368.61,-688.12"/>
</g>
<!-- ros2bridge -->
<g id="node30" class="node">
<title>ros2bridge</title>
<g id="a_node30"><a xlink:href="group_mrpt_ros2bridge_grp.html" xlink:title="mrpt&#45;ros2bridge">
<polygon fill="#d0d0d0" stroke="black" points="333.5,-756 199.5,-756 199.5,-720 333.5,-720 333.5,-756"/>
<text text-anchor="middle" x="266.5" y="-734.3" font-family="Times,serif" font-size="14.00">mrpt&#45;ros2bridge</text>
</a>
</g>
</g>
<!-- ros2bridge&#45;&gt;maps -->
<g id="edge40" class="edge">
<title>ros2bridge&#45;&gt;maps</title>
<path fill="none" stroke="black" d="M284.54,-719.7C293.56,-711.05 304.62,-700.45 314.44,-691.03"/>
<polygon fill="black" stroke="black" points="316.87,-693.55 321.66,-684.1 312.02,-688.5 316.87,-693.55"/>
</g>
<!-- topography -->
<g id="node31" class="node">
<title>topography</title>
<g id="a_node31"><a xlink:href="group_mrpt_topography_grp.html" xlink:title="mrpt&#45;topography">
<polygon fill="#d0d0d0" stroke="black" points="581.5,-684 443.5,-684 443.5,-648 581.5,-648 581.5,-684"/>
<text text-anchor="middle" x="512.5" y="-662.3" font-family="Times,serif" font-size="14.00">mrpt&#45;topography</text>
</a>
</g>
</g>
<!-- topography&#45;&gt;obs -->
<g id="edge47" class="edge">
<title>topography&#45;&gt;obs</title>
<path fill="none" stroke="black" d="M512.5,-647.7C512.5,-639.98 512.5,-630.71 512.5,-622.11"/>
<polygon fill="black" stroke="black" points="516,-622.1 512.5,-612.1 509,-622.1 516,-622.1"/>
</g>
<!-- visionlgpl -->
<g id="node32" class="node">
<title>visionlgpl</title>
<g id="a_node32"><a xlink:href="group_mrpt_vision_lgpl_grp.html" xlink:title="mrpt&#45;vision&#45;lgpl">
<polygon fill="#d0d0d0" stroke="black" points="841.5,-756 711.5,-756 711.5,-720 841.5,-720 841.5,-756"/>
<text text-anchor="middle" x="776.5" y="-734.3" font-family="Times,serif" font-size="14.00">mrpt&#45;vision&#45;lgpl</text>
</a>
</g>
</g>
<!-- visionlgpl&#45;&gt;vision -->
<g id="edge49" class="edge">
<title>visionlgpl&#45;&gt;vision</title>
<path fill="none" stroke="black" d="M745.19,-719.88C728.3,-710.64 707.25,-699.13 689.12,-689.21"/>
<polygon fill="black" stroke="black" points="690.39,-685.92 679.93,-684.19 687.03,-692.06 690.39,-685.92"/>
</g>
</g>
</svg>
