<?xml version="1.0" encoding="UTF-8" standalone="no"?>
<!DOCTYPE svg PUBLIC "-//W3C//DTD SVG 1.1//EN"
 "http://www.w3.org/Graphics/SVG/1.1/DTD/svg11.dtd">
<!-- Generated by graphviz version 2.43.0 (0)
 -->
<!-- Title: MRPT_LIBS Pages: 1 -->
<svg width="701pt" height="836pt"
 viewBox="0.00 0.00 700.50 836.00" xmlns="http://www.w3.org/2000/svg" xmlns:xlink="http://www.w3.org/1999/xlink">
<g id="graph0" class="graph" transform="scale(1 1) rotate(0) translate(4 832)">
<title>MRPT_LIBS</title>
<polygon fill="white" stroke="transparent" points="-4,4 -4,-832 696.5,-832 696.5,4 -4,4"/>
<!-- apps -->
<g id="node1" class="node">
<title>apps</title>
<g id="a_node1"><a xlink:href="group_mrpt_bayes_grp.html" xlink:title="mrpt&#45;apps">
<polygon fill="#d0d0d0" stroke="black" points="404.5,-828 314.5,-828 314.5,-792 404.5,-792 404.5,-828"/>
<text text-anchor="middle" x="359.5" y="-806.3" font-family="Times,serif" font-size="14.00">mrpt&#45;apps</text>
</a>
</g>
</g>
<!-- gui -->
<g id="node2" class="node">
<title>gui</title>
<g id="a_node2"><a xlink:href="group_mrpt_gui_grp.html" xlink:title="mrpt&#45;gui">
<polygon fill="#d0d0d0" stroke="black" points="602,-756 523,-756 523,-720 602,-720 602,-756"/>
<text text-anchor="middle" x="562.5" y="-734.3" font-family="Times,serif" font-size="14.00">mrpt&#45;gui</text>
</a>
</g>
</g>
<!-- apps&#45;&gt;gui -->
<g id="edge1" class="edge">
<title>apps&#45;&gt;gui</title>
<path fill="none" stroke="black" d="M404.66,-793.49C433.2,-783.68 471.1,-770.64 513.28,-756.07"/>
<polygon fill="black" stroke="black" points="514.61,-759.31 522.92,-752.74 512.33,-752.7 514.61,-759.31"/>
</g>
<!-- slam -->
<g id="node3" class="node">
<title>slam</title>
<g id="a_node3"><a xlink:href="group_mrpt_slam_grp.html" xlink:title="mrpt&#45;slam">
<polygon fill="#d0d0d0" stroke="black" points="404.5,-756 314.5,-756 314.5,-720 404.5,-720 404.5,-756"/>
<text text-anchor="middle" x="359.5" y="-734.3" font-family="Times,serif" font-size="14.00">mrpt&#45;slam</text>
</a>
</g>
</g>
<!-- apps&#45;&gt;slam -->
<g id="edge2" class="edge">
<title>apps&#45;&gt;slam</title>
<path fill="none" stroke="black" d="M359.5,-791.7C359.5,-783.98 359.5,-774.71 359.5,-766.11"/>
<polygon fill="black" stroke="black" points="363,-766.1 359.5,-756.1 356,-766.1 363,-766.1"/>
</g>
<!-- hwdrivers -->
<g id="node4" class="node">
<title>hwdrivers</title>
<g id="a_node4"><a xlink:href="group_mrpt_hwdrivers_grp.html" xlink:title="mrpt&#45;hwdrivers">
<polygon fill="#d0d0d0" stroke="black" points="296.5,-756 168.5,-756 168.5,-720 296.5,-720 296.5,-756"/>
<text text-anchor="middle" x="232.5" y="-734.3" font-family="Times,serif" font-size="14.00">mrpt&#45;hwdrivers</text>
</a>
</g>
</g>
<!-- apps&#45;&gt;hwdrivers -->
<g id="edge3" class="edge">
<title>apps&#45;&gt;hwdrivers</title>
<path fill="none" stroke="black" d="M328.43,-791.88C311.67,-782.64 290.79,-771.13 272.8,-761.21"/>
<polygon fill="black" stroke="black" points="274.13,-757.95 263.69,-756.19 270.76,-764.08 274.13,-757.95"/>
</g>
<!-- viz -->
<g id="node16" class="node">
<title>viz</title>
<g id="a_node16"><a xlink:href="group_mrpt_viz_grp.html" xlink:title="mrpt&#45;viz">
<polygon fill="#d0d0d0" stroke="black" points="366,-540 289,-540 289,-504 366,-504 366,-540"/>
<text text-anchor="middle" x="327.5" y="-518.3" font-family="Times,serif" font-size="14.00">mrpt&#45;viz</text>
</a>
</g>
</g>
<!-- gui&#45;&gt;viz -->
<g id="edge15" class="edge">
<title>gui&#45;&gt;viz</title>
<path fill="none" stroke="black" d="M565.89,-719.92C571.27,-687.48 577.73,-616.58 541.5,-576 519.84,-551.74 432.65,-536.34 376.47,-528.72"/>
<polygon fill="black" stroke="black" points="376.73,-525.22 366.36,-527.39 375.82,-532.16 376.73,-525.22"/>
</g>
<!-- opengl -->
<g id="node18" class="node">
<title>opengl</title>
<g id="a_node18"><a xlink:href="group_mrpt_opengl_grp.html" xlink:title="mrpt&#45;opengl">
<polygon fill="#d0d0d0" stroke="black" points="692.5,-612 588.5,-612 588.5,-576 692.5,-576 692.5,-612"/>
<text text-anchor="middle" x="640.5" y="-590.3" font-family="Times,serif" font-size="14.00">mrpt&#45;opengl</text>
</a>
</g>
</g>
<!-- gui&#45;&gt;opengl -->
<g id="edge14" class="edge">
<title>gui&#45;&gt;opengl</title>
<path fill="none" stroke="black" d="M571.91,-719.87C585.38,-695.35 610.27,-650.03 626.08,-621.26"/>
<polygon fill="black" stroke="black" points="629.31,-622.64 631.06,-612.19 623.18,-619.27 629.31,-622.64"/>
</g>
<!-- maps -->
<g id="node21" class="node">
<title>maps</title>
<g id="a_node21"><a xlink:href="group_mrpt_maps_grp.html" xlink:title="mrpt&#45;maps">
<polygon fill="#d0d0d0" stroke="black" points="407,-684 312,-684 312,-648 407,-648 407,-684"/>
<text text-anchor="middle" x="359.5" y="-662.3" font-family="Times,serif" font-size="14.00">mrpt&#45;maps</text>
</a>
</g>
</g>
<!-- slam&#45;&gt;maps -->
<g id="edge39" class="edge">
<title>slam&#45;&gt;maps</title>
<path fill="none" stroke="black" d="M359.5,-719.7C359.5,-711.98 359.5,-702.71 359.5,-694.11"/>
<polygon fill="black" stroke="black" points="363,-694.1 359.5,-684.1 356,-694.1 363,-694.1"/>
</g>
<!-- vision -->
<g id="node29" class="node">
<title>vision</title>
<g id="a_node29"><a xlink:href="group_mrpt_vision_grp.html" xlink:title="mrpt&#45;vision">
<polygon fill="#d0d0d0" stroke="black" points="293.5,-684 195.5,-684 195.5,-648 293.5,-648 293.5,-684"/>
<text text-anchor="middle" x="244.5" y="-662.3" font-family="Times,serif" font-size="14.00">mrpt&#45;vision</text>
</a>
</g>
</g>
<!-- slam&#45;&gt;vision -->
<g id="edge40" class="edge">
<title>slam&#45;&gt;vision</title>
<path fill="none" stroke="black" d="M331.37,-719.88C316.33,-710.72 297.63,-699.34 281.44,-689.48"/>
<polygon fill="black" stroke="black" points="283.1,-686.4 272.74,-684.19 279.46,-692.38 283.1,-686.4"/>
</g>
<!-- comms -->
<g id="node8" class="node">
<title>comms</title>
<g id="a_node8"><a xlink:href="group_mrpt_comms_grp.html" xlink:title="mrpt&#45;comms">
<polygon fill="#d0d0d0" stroke="black" points="107,-468 0,-468 0,-432 107,-432 107,-468"/>
<text text-anchor="middle" x="53.5" y="-446.3" font-family="Times,serif" font-size="14.00">mrpt&#45;comms</text>
</a>
</g>
</g>
<!-- hwdrivers&#45;&gt;comms -->
<g id="edge18" class="edge">
<title>hwdrivers&#45;&gt;comms</title>
<path fill="none" stroke="black" d="M168.42,-721.17C110.09,-706.61 32.7,-686.85 30.5,-684 -16.67,-622.86 18.84,-524.14 40.29,-477.29"/>
<polygon fill="black" stroke="black" points="43.52,-478.65 44.62,-468.12 37.19,-475.67 43.52,-478.65"/>
</g>
<!-- hwdrivers&#45;&gt;maps -->
<g id="edge19" class="edge">
<title>hwdrivers&#45;&gt;maps</title>
<path fill="none" stroke="black" d="M263.57,-719.88C280.33,-710.64 301.21,-699.13 319.2,-689.21"/>
<polygon fill="black" stroke="black" points="321.24,-692.08 328.31,-684.19 317.87,-685.95 321.24,-692.08"/>
</g>
<!-- bayes -->
<g id="node5" class="node">
<title>bayes</title>
<g id="a_node5"><a xlink:href="group_mrpt_bayes_grp.html" xlink:title="mrpt&#45;bayes">
<polygon fill="#d0d0d0" stroke="black" points="266.5,-396 168.5,-396 168.5,-360 266.5,-360 266.5,-396"/>
<text text-anchor="middle" x="217.5" y="-374.3" font-family="Times,serif" font-size="14.00">mrpt&#45;bayes</text>
</a>
</g>
</g>
<!-- math -->
<g id="node6" class="node">
<title>math</title>
<g id="a_node6"><a xlink:href="group_mrpt_math_grp.html" xlink:title="mrpt&#45;math">
<polygon fill="#d0d0d0" stroke="black" points="369,-252 276,-252 276,-216 369,-216 369,-252"/>
<text text-anchor="middle" x="322.5" y="-230.3" font-family="Times,serif" font-size="14.00">mrpt&#45;math</text>
</a>
</g>
</g>
<!-- bayes&#45;&gt;math -->
<g id="edge4" class="edge">
<title>bayes&#45;&gt;math</title>
<path fill="none" stroke="black" d="M238,-359.87C249.01,-350.06 262.36,-337.12 272.5,-324 287.56,-304.5 301.01,-279.94 310.16,-261.56"/>
<polygon fill="black" stroke="black" points="313.43,-262.83 314.65,-252.31 307.13,-259.77 313.43,-262.83"/>
</g>
<!-- config -->
<g id="node7" class="node">
<title>config</title>
<g id="a_node7"><a xlink:href="group_mrpt_config_grp.html" xlink:title="mrpt&#45;config">
<polygon fill="#d0d0d0" stroke="black" points="264,-324 165,-324 165,-288 264,-288 264,-324"/>
<text text-anchor="middle" x="214.5" y="-302.3" font-family="Times,serif" font-size="14.00">mrpt&#45;config</text>
</a>
</g>
</g>
<!-- bayes&#45;&gt;config -->
<g id="edge5" class="edge">
<title>bayes&#45;&gt;config</title>
<path fill="none" stroke="black" d="M216.76,-359.7C216.43,-351.98 216.03,-342.71 215.66,-334.11"/>
<polygon fill="black" stroke="black" points="219.16,-333.95 215.23,-324.1 212.16,-334.25 219.16,-333.95"/>
</g>
<!-- system -->
<g id="node14" class="node">
<title>system</title>
<g id="a_node14"><a xlink:href="group_mrpt_system_grp.html" xlink:title="mrpt&#45;system">
<polygon fill="#d0d0d0" stroke="black" points="232,-180 125,-180 125,-144 232,-144 232,-180"/>
<text text-anchor="middle" x="178.5" y="-158.3" font-family="Times,serif" font-size="14.00">mrpt&#45;system</text>
</a>
</g>
</g>
<!-- math&#45;&gt;system -->
<g id="edge29" class="edge">
<title>math&#45;&gt;system</title>
<path fill="none" stroke="black" d="M287.27,-215.88C267.92,-206.47 243.73,-194.71 223.07,-184.67"/>
<polygon fill="black" stroke="black" points="224.39,-181.41 213.86,-180.19 221.33,-187.71 224.39,-181.41"/>
</g>
<!-- serialization -->
<g id="node24" class="node">
<title>serialization</title>
<g id="a_node24"><a xlink:href="group_mrpt_serialization_grp.html" xlink:title="mrpt&#45;serialization">
<polygon fill="#d0d0d0" stroke="black" points="394.5,-180 250.5,-180 250.5,-144 394.5,-144 394.5,-180"/>
<text text-anchor="middle" x="322.5" y="-158.3" font-family="Times,serif" font-size="14.00">mrpt&#45;serialization</text>
</a>
</g>
</g>
<!-- math&#45;&gt;serialization -->
<g id="edge27" class="edge">
<title>math&#45;&gt;serialization</title>
<path fill="none" stroke="black" d="M322.5,-215.7C322.5,-207.98 322.5,-198.71 322.5,-190.11"/>
<polygon fill="black" stroke="black" points="326,-190.1 322.5,-180.1 319,-190.1 326,-190.1"/>
</g>
<!-- random -->
<g id="node25" class="node">
<title>random</title>
<g id="a_node25"><a xlink:href="group_mrpt_random_grp.html" xlink:title="mrpt&#45;random">
<polygon fill="#d0d0d0" stroke="black" points="486,-36 375,-36 375,0 486,0 486,-36"/>
<text text-anchor="middle" x="430.5" y="-14.3" font-family="Times,serif" font-size="14.00">mrpt&#45;random</text>
</a>
</g>
</g>
<!-- math&#45;&gt;random -->
<g id="edge28" class="edge">
<title>math&#45;&gt;random</title>
<path fill="none" stroke="black" d="M362.04,-215.81C377.31,-207.22 393.48,-195.33 403.5,-180 430.22,-139.11 433.2,-80.3 432.29,-46.24"/>
<polygon fill="black" stroke="black" points="435.79,-45.96 431.89,-36.1 428.79,-46.23 435.79,-45.96"/>
</g>
<!-- expr -->
<g id="node10" class="node">
<title>expr</title>
<g id="a_node10"><a xlink:href="group_mrpt_expr_grp.html" xlink:title="mrpt&#45;expr">
<polygon fill="#d0d0d0" stroke="black" points="251,-252 162,-252 162,-216 251,-216 251,-252"/>
<text text-anchor="middle" x="206.5" y="-230.3" font-family="Times,serif" font-size="14.00">mrpt&#45;expr</text>
</a>
</g>
</g>
<!-- config&#45;&gt;expr -->
<g id="edge7" class="edge">
<title>config&#45;&gt;expr</title>
<path fill="none" stroke="black" d="M212.52,-287.7C211.64,-279.98 210.58,-270.71 209.6,-262.11"/>
<polygon fill="black" stroke="black" points="213.07,-261.64 208.45,-252.1 206.11,-262.44 213.07,-261.64"/>
</g>
<!-- io -->
<g id="node9" class="node">
<title>io</title>
<g id="a_node9"><a xlink:href="group_mrpt_io_grp.html" xlink:title="mrpt&#45;io">
<polygon fill="#d0d0d0" stroke="black" points="147,-324 78,-324 78,-288 147,-288 147,-324"/>
<text text-anchor="middle" x="112.5" y="-302.3" font-family="Times,serif" font-size="14.00">mrpt&#45;io</text>
</a>
</g>
</g>
<!-- comms&#45;&gt;io -->
<g id="edge6" class="edge">
<title>comms&#45;&gt;io</title>
<path fill="none" stroke="black" d="M60.62,-431.87C70.76,-407.46 89.47,-362.43 101.43,-333.64"/>
<polygon fill="black" stroke="black" points="104.75,-334.77 105.36,-324.19 98.29,-332.08 104.75,-334.77"/>
</g>
<!-- io&#45;&gt;system -->
<g id="edge23" class="edge">
<title>io&#45;&gt;system</title>
<path fill="none" stroke="black" d="M120,-287.86C127.91,-269.88 140.83,-240.84 152.5,-216 156.62,-207.24 161.23,-197.73 165.42,-189.21"/>
<polygon fill="black" stroke="black" points="168.63,-190.63 169.92,-180.12 162.35,-187.53 168.63,-190.63"/>
</g>
<!-- expr&#45;&gt;system -->
<g id="edge10" class="edge">
<title>expr&#45;&gt;system</title>
<path fill="none" stroke="black" d="M199.58,-215.7C196.43,-207.81 192.62,-198.3 189.12,-189.55"/>
<polygon fill="black" stroke="black" points="192.31,-188.09 185.34,-180.1 185.81,-190.69 192.31,-188.09"/>
</g>
<!-- containers -->
<g id="node11" class="node">
<title>containers</title>
<g id="a_node11"><a xlink:href="group_mrpt_containers_grp.html" xlink:title="mrpt&#45;containers">
<polygon fill="#d0d0d0" stroke="black" points="260,-108 129,-108 129,-72 260,-72 260,-108"/>
<text text-anchor="middle" x="194.5" y="-86.3" font-family="Times,serif" font-size="14.00">mrpt&#45;containers</text>
</a>
</g>
</g>
<!-- core -->
<g id="node12" class="node">
<title>core</title>
<g id="a_node12"><a xlink:href="group_mrpt_core_grp.html" xlink:title="mrpt&#45;core">
<polygon fill="#d0d0d0" stroke="black" points="357,-36 270,-36 270,0 357,0 357,-36"/>
<text text-anchor="middle" x="313.5" y="-14.3" font-family="Times,serif" font-size="14.00">mrpt&#45;core</text>
</a>
</g>
</g>
<!-- containers&#45;&gt;core -->
<g id="edge8" class="edge">
<title>containers&#45;&gt;core</title>
<path fill="none" stroke="black" d="M223.61,-71.88C239.17,-62.72 258.52,-51.34 275.28,-41.48"/>
<polygon fill="black" stroke="black" points="277.43,-44.28 284.28,-36.19 273.88,-38.24 277.43,-44.28"/>
</g>
<!-- typemeta -->
<g id="node13" class="node">
<title>typemeta</title>
<g id="a_node13"><a xlink:href="group_mrpt_typemeta_grp.html" xlink:title="mrpt&#45;typemeta (.h)">
<polygon fill="#d0d0d0" stroke="black" points="251.5,-36 99.5,-36 99.5,0 251.5,0 251.5,-36"/>
<text text-anchor="middle" x="175.5" y="-14.3" font-family="Times,serif" font-size="14.00">mrpt&#45;typemeta (.h)</text>
</a>
</g>
</g>
<!-- containers&#45;&gt;typemeta -->
<g id="edge9" class="edge">
<title>containers&#45;&gt;typemeta</title>
<path fill="none" stroke="black" d="M189.8,-71.7C187.69,-63.9 185.14,-54.51 182.78,-45.83"/>
<polygon fill="black" stroke="black" points="186.14,-44.84 180.14,-36.1 179.38,-46.67 186.14,-44.84"/>
</g>
<!-- system&#45;&gt;containers -->
<g id="edge42" class="edge">
<title>system&#45;&gt;containers</title>
<path fill="none" stroke="black" d="M182.46,-143.7C184.22,-135.98 186.34,-126.71 188.3,-118.11"/>
<polygon fill="black" stroke="black" points="191.77,-118.63 190.59,-108.1 184.95,-117.07 191.77,-118.63"/>
</g>
<!-- system&#45;&gt;typemeta -->
<g id="edge41" class="edge">
<title>system&#45;&gt;typemeta</title>
<path fill="none" stroke="black" d="M150.7,-143.87C138.73,-134.84 126,-122.59 119.5,-108 112.98,-93.39 113.17,-86.7 119.5,-72 124.29,-60.87 132.69,-50.99 141.55,-42.86"/>
<polygon fill="black" stroke="black" points="144.04,-45.34 149.38,-36.18 139.5,-40.01 144.04,-45.34"/>
</g>
<!-- graphs -->
<g id="node15" class="node">
<title>graphs</title>
<g id="a_node15"><a xlink:href="group_mrpt_graphs_grp.html" xlink:title="mrpt&#45;graphs">
<polygon fill="#d0d0d0" stroke="black" points="380.5,-612 274.5,-612 274.5,-576 380.5,-576 380.5,-612"/>
<text text-anchor="middle" x="327.5" y="-590.3" font-family="Times,serif" font-size="14.00">mrpt&#45;graphs</text>
</a>
</g>
</g>
<!-- graphs&#45;&gt;viz -->
<g id="edge11" class="edge">
<title>graphs&#45;&gt;viz</title>
<path fill="none" stroke="black" d="M327.5,-575.7C327.5,-567.98 327.5,-558.71 327.5,-550.11"/>
<polygon fill="black" stroke="black" points="331,-550.1 327.5,-540.1 324,-550.1 331,-550.1"/>
</g>
<!-- poses -->
<g id="node19" class="node">
<title>poses</title>
<g id="a_node19"><a xlink:href="group_mrpt_poses_grp.html" xlink:title="mrpt&#45;poses">
<polygon fill="#d0d0d0" stroke="black" points="266,-468 169,-468 169,-432 266,-432 266,-468"/>
<text text-anchor="middle" x="217.5" y="-446.3" font-family="Times,serif" font-size="14.00">mrpt&#45;poses</text>
</a>
</g>
</g>
<!-- viz&#45;&gt;poses -->
<g id="edge16" class="edge">
<title>viz&#45;&gt;poses</title>
<path fill="none" stroke="black" d="M300.59,-503.88C286.34,-494.81 268.65,-483.55 253.26,-473.76"/>
<polygon fill="black" stroke="black" points="254.83,-470.61 244.51,-468.19 251.07,-476.51 254.83,-470.61"/>
</g>
<!-- img -->
<g id="node20" class="node">
<title>img</title>
<g id="a_node20"><a xlink:href="group_mrpt_img_grp.html" xlink:title="mrpt&#45;img">
<polygon fill="#d0d0d0" stroke="black" points="368,-396 285,-396 285,-360 368,-360 368,-396"/>
<text text-anchor="middle" x="326.5" y="-374.3" font-family="Times,serif" font-size="14.00">mrpt&#45;img</text>
</a>
</g>
</g>
<!-- viz&#45;&gt;img -->
<g id="edge17" class="edge">
<title>viz&#45;&gt;img</title>
<path fill="none" stroke="black" d="M327.38,-503.87C327.21,-479.67 326.9,-435.21 326.69,-406.39"/>
<polygon fill="black" stroke="black" points="330.19,-406.16 326.62,-396.19 323.19,-406.21 330.19,-406.16"/>
</g>
<!-- graphslam -->
<g id="node17" class="node">
<title>graphslam</title>
<g id="a_node17"><a xlink:href="group_mrpt_graphslam_grp.html" xlink:title="mrpt&#45;graphslam">
<polygon fill="#d0d0d0" stroke="black" points="591.5,-828 459.5,-828 459.5,-792 591.5,-792 591.5,-828"/>
<text text-anchor="middle" x="525.5" y="-806.3" font-family="Times,serif" font-size="14.00">mrpt&#45;graphslam</text>
</a>
</g>
</g>
<!-- graphslam&#45;&gt;gui -->
<g id="edge12" class="edge">
<title>graphslam&#45;&gt;gui</title>
<path fill="none" stroke="black" d="M534.65,-791.7C538.9,-783.64 544.06,-773.89 548.77,-764.98"/>
<polygon fill="black" stroke="black" points="551.88,-766.58 553.46,-756.1 545.69,-763.31 551.88,-766.58"/>
</g>
<!-- graphslam&#45;&gt;slam -->
<g id="edge13" class="edge">
<title>graphslam&#45;&gt;slam</title>
<path fill="none" stroke="black" d="M484.89,-791.88C462.1,-782.26 433.47,-770.19 409.33,-760.01"/>
<polygon fill="black" stroke="black" points="410.55,-756.73 399.98,-756.07 407.83,-763.18 410.55,-756.73"/>
</g>
<!-- opengl&#45;&gt;viz -->
<g id="edge34" class="edge">
<title>opengl&#45;&gt;viz</title>
<path fill="none" stroke="black" d="M588.31,-579.35C583.65,-578.19 578.99,-577.06 574.5,-576 505.81,-559.79 425.89,-543.02 375.99,-532.8"/>
<polygon fill="black" stroke="black" points="376.61,-529.35 366.11,-530.78 375.21,-536.21 376.61,-529.35"/>
</g>
<!-- poses&#45;&gt;bayes -->
<g id="edge35" class="edge">
<title>poses&#45;&gt;bayes</title>
<path fill="none" stroke="black" d="M217.5,-431.7C217.5,-423.98 217.5,-414.71 217.5,-406.11"/>
<polygon fill="black" stroke="black" points="221,-406.1 217.5,-396.1 214,-406.1 221,-406.1"/>
</g>
<!-- img&#45;&gt;math -->
<g id="edge21" class="edge">
<title>img&#45;&gt;math</title>
<path fill="none" stroke="black" d="M326.02,-359.87C325.34,-335.67 324.08,-291.21 323.27,-262.39"/>
<polygon fill="black" stroke="black" points="326.76,-262.09 322.98,-252.19 319.77,-262.28 326.76,-262.09"/>
</g>
<!-- img&#45;&gt;config -->
<g id="edge22" class="edge">
<title>img&#45;&gt;config</title>
<path fill="none" stroke="black" d="M299.1,-359.88C284.59,-350.81 266.58,-339.55 250.91,-329.76"/>
<polygon fill="black" stroke="black" points="252.34,-326.52 242,-324.19 248.63,-332.46 252.34,-326.52"/>
</g>
<!-- img&#45;&gt;io -->
<g id="edge20" class="edge">
<title>img&#45;&gt;io</title>
<path fill="none" stroke="black" d="M284.78,-362.98C281.65,-361.96 278.53,-360.96 275.5,-360 225.32,-344.11 209.79,-342.4 156.74,-324.3"/>
<polygon fill="black" stroke="black" points="157.73,-320.94 147.14,-320.99 155.45,-327.56 157.73,-320.94"/>
</g>
<!-- maps&#45;&gt;graphs -->
<g id="edge25" class="edge">
<title>maps&#45;&gt;graphs</title>
<path fill="none" stroke="black" d="M351.59,-647.7C347.95,-639.73 343.55,-630.1 339.51,-621.26"/>
<polygon fill="black" stroke="black" points="342.66,-619.74 335.32,-612.1 336.29,-622.65 342.66,-619.74"/>
</g>
<!-- obs -->
<g id="node23" class="node">
<title>obs</title>
<g id="a_node23"><a xlink:href="group_mrpt_obs_grp.html" xlink:title="mrpt&#45;obs">
<polygon fill="#d0d0d0" stroke="black" points="256,-612 175,-612 175,-576 256,-576 256,-612"/>
<text text-anchor="middle" x="215.5" y="-590.3" font-family="Times,serif" font-size="14.00">mrpt&#45;obs</text>
</a>
</g>
</g>
<!-- maps&#45;&gt;obs -->
<g id="edge26" class="edge">
<title>maps&#45;&gt;obs</title>
<path fill="none" stroke="black" d="M324.27,-647.88C304.92,-638.47 280.73,-626.71 260.07,-616.67"/>
<polygon fill="black" stroke="black" points="261.39,-613.41 250.86,-612.19 258.33,-619.71 261.39,-613.41"/>
</g>
<!-- kinematics -->
<g id="node22" class="node">
<title>kinematics</title>
<g id="a_node22"><a xlink:href="group_mrpt_kinematics_grp.html" xlink:title="mrpt&#45;kinematics">
<polygon fill="#d0d0d0" stroke="black" points="532.5,-612 398.5,-612 398.5,-576 532.5,-576 532.5,-612"/>
<text text-anchor="middle" x="465.5" y="-590.3" font-family="Times,serif" font-size="14.00">mrpt&#45;kinematics</text>
</a>
</g>
</g>
<!-- kinematics&#45;&gt;viz -->
<g id="edge24" class="edge">
<title>kinematics&#45;&gt;viz</title>
<path fill="none" stroke="black" d="M431.74,-575.88C413.28,-566.51 390.22,-554.81 370.48,-544.8"/>
<polygon fill="black" stroke="black" points="371.89,-541.59 361.39,-540.19 368.72,-547.83 371.89,-541.59"/>
</g>
<!-- obs&#45;&gt;viz -->
<g id="edge32" class="edge">
<title>obs&#45;&gt;viz</title>
<path fill="none" stroke="black" d="M242.9,-575.88C257.41,-566.81 275.42,-555.55 291.09,-545.76"/>
<polygon fill="black" stroke="black" points="293.37,-548.46 300,-540.19 289.66,-542.52 293.37,-548.46"/>
</g>
<!-- tfest -->
<g id="node27" class="node">
<title>tfest</title>
<g id="a_node27"><a xlink:href="group_mrpt_tfest_grp.html" xlink:title="mrpt&#45;tfest">
<polygon fill="#d0d0d0" stroke="black" points="261,-540 172,-540 172,-504 261,-504 261,-540"/>
<text text-anchor="middle" x="216.5" y="-518.3" font-family="Times,serif" font-size="14.00">mrpt&#45;tfest</text>
</a>
</g>
</g>
<!-- obs&#45;&gt;tfest -->
<g id="edge33" class="edge">
<title>obs&#45;&gt;tfest</title>
<path fill="none" stroke="black" d="M215.75,-575.7C215.86,-567.98 215.99,-558.71 216.11,-550.11"/>
<polygon fill="black" stroke="black" points="219.61,-550.15 216.26,-540.1 212.61,-550.05 219.61,-550.15"/>
</g>
<!-- rtti -->
<g id="node28" class="node">
<title>rtti</title>
<g id="a_node28"><a xlink:href="group_mrpt_rtti_grp.html" xlink:title="mrpt&#45;rtti">
<polygon fill="#d0d0d0" stroke="black" points="358.5,-108 278.5,-108 278.5,-72 358.5,-72 358.5,-108"/>
<text text-anchor="middle" x="318.5" y="-86.3" font-family="Times,serif" font-size="14.00">mrpt&#45;rtti</text>
</a>
</g>
</g>
<!-- serialization&#45;&gt;rtti -->
<g id="edge38" class="edge">
<title>serialization&#45;&gt;rtti</title>
<path fill="none" stroke="black" d="M321.51,-143.7C321.07,-135.98 320.54,-126.71 320.05,-118.11"/>
<polygon fill="black" stroke="black" points="323.54,-117.89 319.48,-108.1 316.55,-118.29 323.54,-117.89"/>
</g>
<!-- nav -->
<g id="node26" class="node">
<title>nav</title>
<g id="a_node26"><a xlink:href="group_mrpt_nav_grp.html" xlink:title="mrpt&#45;nav">
<polygon fill="#d0d0d0" stroke="black" points="504.5,-756 422.5,-756 422.5,-720 504.5,-720 504.5,-756"/>
<text text-anchor="middle" x="463.5" y="-734.3" font-family="Times,serif" font-size="14.00">mrpt&#45;nav</text>
</a>
</g>
</g>
<!-- nav&#45;&gt;maps -->
<g id="edge31" class="edge">
<title>nav&#45;&gt;maps</title>
<path fill="none" stroke="black" d="M438.06,-719.88C424.71,-710.89 408.18,-699.76 393.72,-690.03"/>
<polygon fill="black" stroke="black" points="395.29,-686.87 385.04,-684.19 391.38,-692.68 395.29,-686.87"/>
</g>
<!-- nav&#45;&gt;kinematics -->
<g id="edge30" class="edge">
<title>nav&#45;&gt;kinematics</title>
<path fill="none" stroke="black" d="M463.74,-719.87C464.08,-695.67 464.71,-651.21 465.11,-622.39"/>
<polygon fill="black" stroke="black" points="468.62,-622.24 465.26,-612.19 461.62,-622.14 468.62,-622.24"/>
</g>
<!-- tfest&#45;&gt;poses -->
<g id="edge43" class="edge">
<title>tfest&#45;&gt;poses</title>
<path fill="none" stroke="black" d="M216.75,-503.7C216.86,-495.98 216.99,-486.71 217.11,-478.11"/>
<polygon fill="black" stroke="black" points="220.61,-478.15 217.26,-468.1 213.61,-478.05 220.61,-478.15"/>
</g>
<!-- rtti&#45;&gt;core -->
<g id="edge36" class="edge">
<title>rtti&#45;&gt;core</title>
<path fill="none" stroke="black" d="M317.26,-71.7C316.71,-63.98 316.05,-54.71 315.44,-46.11"/>
<polygon fill="black" stroke="black" points="318.93,-45.83 314.72,-36.1 311.94,-46.33 318.93,-45.83"/>
</g>
<!-- rtti&#45;&gt;typemeta -->
<g id="edge37" class="edge">
<title>rtti&#45;&gt;typemeta</title>
<path fill="none" stroke="black" d="M283.52,-71.88C264.3,-62.47 240.27,-50.71 219.76,-40.67"/>
<polygon fill="black" stroke="black" points="221.14,-37.44 210.62,-36.19 218.06,-43.73 221.14,-37.44"/>
</g>
<!-- vision&#45;&gt;obs -->
<g id="edge45" class="edge">
<title>vision&#45;&gt;obs</title>
<path fill="none" stroke="black" d="M237.33,-647.7C234.07,-639.81 230.13,-630.3 226.5,-621.55"/>
<polygon fill="black" stroke="black" points="229.65,-620 222.59,-612.1 223.18,-622.68 229.65,-620"/>
</g>
<!-- topography -->
<g id="node30" class="node">
<title>topography</title>
<g id="a_node30"><a xlink:href="group_mrpt_topography_grp.html" xlink:title="mrpt&#45;topography">
<polygon fill="#d0d0d0" stroke="black" points="177.5,-684 39.5,-684 39.5,-648 177.5,-648 177.5,-684"/>
<text text-anchor="middle" x="108.5" y="-662.3" font-family="Times,serif" font-size="14.00">mrpt&#45;topography</text>
</a>
</g>
</g>
<!-- topography&#45;&gt;obs -->
<g id="edge44" class="edge">
<title>topography&#45;&gt;obs</title>
<path fill="none" stroke="black" d="M134.68,-647.88C148.54,-638.81 165.74,-627.55 180.71,-617.76"/>
<polygon fill="black" stroke="black" points="182.77,-620.59 189.22,-612.19 178.94,-614.74 182.77,-620.59"/>
</g>
<!-- visionlgpl -->
<g id="node31" class="node">
<title>visionlgpl</title>
<g id="a_node31"><a xlink:href="group_mrpt_vision_lgpl_grp.html" xlink:title="mrpt&#45;vision&#45;lgpl">
<polygon fill="#d0d0d0" stroke="black" points="150.5,-756 20.5,-756 20.5,-720 150.5,-720 150.5,-756"/>
<text text-anchor="middle" x="85.5" y="-734.3" font-family="Times,serif" font-size="14.00">mrpt&#45;vision&#45;lgpl</text>
</a>
</g>
</g>
<!-- visionlgpl&#45;&gt;vision -->
<g id="edge46" class="edge">
<title>visionlgpl&#45;&gt;vision</title>
<path fill="none" stroke="black" d="M124.4,-719.88C146.13,-710.31 173.4,-698.3 196.46,-688.15"/>
<polygon fill="black" stroke="black" points="197.99,-691.3 205.73,-684.07 195.17,-684.89 197.99,-691.3"/>
</g>
</g>
</svg>
