<?xml version="1.0" encoding="UTF-8" standalone="no"?>
<!DOCTYPE svg PUBLIC "-//W3C//DTD SVG 1.1//EN"
 "http://www.w3.org/Graphics/SVG/1.1/DTD/svg11.dtd">
<!-- Generated by graphviz version 2.43.0 (0)
 -->
<!-- Title: MRPT_LIBS Pages: 1 -->
<svg width="706pt" height="980pt"
 viewBox="0.00 0.00 705.50 980.00" xmlns="http://www.w3.org/2000/svg" xmlns:xlink="http://www.w3.org/1999/xlink">
<g id="graph0" class="graph" transform="scale(1 1) rotate(0) translate(4 976)">
<title>MRPT_LIBS</title>
<polygon fill="white" stroke="transparent" points="-4,4 -4,-976 701.5,-976 701.5,4 -4,4"/>
<!-- common -->
<g id="node1" class="node">
<title>common</title>
<g id="a_node1"><a xlink:href="mrpt_common.html" xlink:title="mrpt_common">
<polygon fill="#d0d0d0" stroke="black" points="426,-36 307,-36 307,0 426,0 426,-36"/>
<text text-anchor="middle" x="366.5" y="-14.3" font-family="Times,serif" font-size="14.00">mrpt_common</text>
</a>
</g>
</g>
<!-- apps_gui -->
<g id="node2" class="node">
<title>apps_gui</title>
<g id="a_node2"><a xlink:href="group_mrpt_apps_gui_grp.html" xlink:title="mrpt_apps_gui">
<polygon fill="#d0d0d0" stroke="black" points="167.5,-972 45.5,-972 45.5,-936 167.5,-936 167.5,-972"/>
<text text-anchor="middle" x="106.5" y="-950.3" font-family="Times,serif" font-size="14.00">mrpt_apps_gui</text>
</a>
</g>
</g>
<!-- apps_cli -->
<g id="node3" class="node">
<title>apps_cli</title>
<g id="a_node3"><a xlink:href="group_mrpt_apps_cli_grp.html" xlink:title="mrpt_apps_cli">
<polygon fill="#d0d0d0" stroke="black" points="223.5,-900 107.5,-900 107.5,-864 223.5,-864 223.5,-900"/>
<text text-anchor="middle" x="165.5" y="-878.3" font-family="Times,serif" font-size="14.00">mrpt_apps_cli</text>
</a>
</g>
</g>
<!-- apps_gui&#45;&gt;apps_cli -->
<g id="edge1" class="edge">
<title>apps_gui&#45;&gt;apps_cli</title>
<path fill="none" stroke="black" d="M121.08,-935.7C128.16,-927.3 136.78,-917.07 144.55,-907.86"/>
<polygon fill="black" stroke="black" points="147.31,-910.01 151.08,-900.1 141.96,-905.49 147.31,-910.01"/>
</g>
<!-- gui -->
<g id="node4" class="node">
<title>gui</title>
<g id="a_node4"><a xlink:href="group_mrpt_gui_grp.html" xlink:title="mrpt_gui">
<polygon fill="#d0d0d0" stroke="black" points="89,-900 8,-900 8,-864 89,-864 89,-900"/>
<text text-anchor="middle" x="48.5" y="-878.3" font-family="Times,serif" font-size="14.00">mrpt_gui</text>
</a>
</g>
</g>
<!-- apps_gui&#45;&gt;gui -->
<g id="edge2" class="edge">
<title>apps_gui&#45;&gt;gui</title>
<path fill="none" stroke="black" d="M92.16,-935.7C85.21,-927.3 76.73,-917.07 69.1,-907.86"/>
<polygon fill="black" stroke="black" points="71.75,-905.57 62.67,-900.1 66.36,-910.04 71.75,-905.57"/>
</g>
<!-- slam -->
<g id="node5" class="node">
<title>slam</title>
<g id="a_node5"><a xlink:href="group_mrpt_slam_grp.html" xlink:title="mrpt_slam">
<polygon fill="#d0d0d0" stroke="black" points="420.5,-828 328.5,-828 328.5,-792 420.5,-792 420.5,-828"/>
<text text-anchor="middle" x="374.5" y="-806.3" font-family="Times,serif" font-size="14.00">mrpt_slam</text>
</a>
</g>
</g>
<!-- apps_cli&#45;&gt;slam -->
<g id="edge3" class="edge">
<title>apps_cli&#45;&gt;slam</title>
<path fill="none" stroke="black" d="M216.36,-863.97C247.35,-853.59 286.97,-840.32 318.8,-829.65"/>
<polygon fill="black" stroke="black" points="320.04,-832.93 328.41,-826.44 317.82,-826.29 320.04,-832.93"/>
</g>
<!-- hwdrivers -->
<g id="node6" class="node">
<title>hwdrivers</title>
<g id="a_node6"><a xlink:href="group_mrpt_hwdrivers_grp.html" xlink:title="mrpt_hwdrivers">
<polygon fill="#d0d0d0" stroke="black" points="208,-828 77,-828 77,-792 208,-792 208,-828"/>
<text text-anchor="middle" x="142.5" y="-806.3" font-family="Times,serif" font-size="14.00">mrpt_hwdrivers</text>
</a>
</g>
</g>
<!-- apps_cli&#45;&gt;hwdrivers -->
<g id="edge4" class="edge">
<title>apps_cli&#45;&gt;hwdrivers</title>
<path fill="none" stroke="black" d="M159.81,-863.7C157.25,-855.9 154.17,-846.51 151.32,-837.83"/>
<polygon fill="black" stroke="black" points="154.57,-836.51 148.12,-828.1 147.92,-838.7 154.57,-836.51"/>
</g>
<!-- opengl -->
<g id="node20" class="node">
<title>opengl</title>
<g id="a_node20"><a xlink:href="group_mrpt_opengl_grp.html" xlink:title="mrpt_opengl">
<polygon fill="#d0d0d0" stroke="black" points="107,-684 0,-684 0,-648 107,-648 107,-684"/>
<text text-anchor="middle" x="53.5" y="-662.3" font-family="Times,serif" font-size="14.00">mrpt_opengl</text>
</a>
</g>
</g>
<!-- gui&#45;&gt;opengl -->
<g id="edge15" class="edge">
<title>gui&#45;&gt;opengl</title>
<path fill="none" stroke="black" d="M48.9,-863.85C49.77,-826.83 51.81,-739.18 52.86,-694.39"/>
<polygon fill="black" stroke="black" points="56.36,-694.31 53.1,-684.23 49.36,-694.15 56.36,-694.31"/>
</g>
<!-- maps -->
<g id="node23" class="node">
<title>maps</title>
<g id="a_node23"><a xlink:href="group_mrpt_maps_grp.html" xlink:title="mrpt_maps">
<polygon fill="#d0d0d0" stroke="black" points="420,-756 323,-756 323,-720 420,-720 420,-756"/>
<text text-anchor="middle" x="371.5" y="-734.3" font-family="Times,serif" font-size="14.00">mrpt_maps</text>
</a>
</g>
</g>
<!-- slam&#45;&gt;maps -->
<g id="edge40" class="edge">
<title>slam&#45;&gt;maps</title>
<path fill="none" stroke="black" d="M373.76,-791.7C373.43,-783.98 373.03,-774.71 372.66,-766.11"/>
<polygon fill="black" stroke="black" points="376.16,-765.95 372.23,-756.1 369.16,-766.25 376.16,-765.95"/>
</g>
<!-- vision -->
<g id="node31" class="node">
<title>vision</title>
<g id="a_node31"><a xlink:href="group_mrpt_vision_grp.html" xlink:title="mrpt_vision">
<polygon fill="#d0d0d0" stroke="black" points="539,-756 438,-756 438,-720 539,-720 539,-756"/>
<text text-anchor="middle" x="488.5" y="-734.3" font-family="Times,serif" font-size="14.00">mrpt_vision</text>
</a>
</g>
</g>
<!-- slam&#45;&gt;vision -->
<g id="edge41" class="edge">
<title>slam&#45;&gt;vision</title>
<path fill="none" stroke="black" d="M402.39,-791.88C417.29,-782.72 435.83,-771.34 451.88,-761.48"/>
<polygon fill="black" stroke="black" points="453.81,-764.41 460.51,-756.19 450.15,-758.44 453.81,-764.41"/>
</g>
<!-- comms -->
<g id="node10" class="node">
<title>comms</title>
<g id="a_node10"><a xlink:href="group_mrpt_comms_grp.html" xlink:title="mrpt_comms">
<polygon fill="#d0d0d0" stroke="black" points="197,-540 88,-540 88,-504 197,-504 197,-540"/>
<text text-anchor="middle" x="142.5" y="-518.3" font-family="Times,serif" font-size="14.00">mrpt_comms</text>
</a>
</g>
</g>
<!-- hwdrivers&#45;&gt;comms -->
<g id="edge18" class="edge">
<title>hwdrivers&#45;&gt;comms</title>
<path fill="none" stroke="black" d="M142.5,-791.97C142.5,-744.29 142.5,-609.18 142.5,-550.63"/>
<polygon fill="black" stroke="black" points="146,-550.31 142.5,-540.31 139,-550.31 146,-550.31"/>
</g>
<!-- hwdrivers&#45;&gt;maps -->
<g id="edge19" class="edge">
<title>hwdrivers&#45;&gt;maps</title>
<path fill="none" stroke="black" d="M198.23,-791.97C233.08,-781.31 277.9,-767.61 313.22,-756.81"/>
<polygon fill="black" stroke="black" points="314.38,-760.12 322.92,-753.85 312.33,-753.43 314.38,-760.12"/>
</g>
<!-- bayes -->
<g id="node7" class="node">
<title>bayes</title>
<g id="a_node7"><a xlink:href="group_mrpt_bayes_grp.html" xlink:title="mrpt_bayes">
<polygon fill="#d0d0d0" stroke="black" points="407.5,-468 307.5,-468 307.5,-432 407.5,-432 407.5,-468"/>
<text text-anchor="middle" x="357.5" y="-446.3" font-family="Times,serif" font-size="14.00">mrpt_bayes</text>
</a>
</g>
</g>
<!-- math -->
<g id="node8" class="node">
<title>math</title>
<g id="a_node8"><a xlink:href="group_mrpt_math_grp.html" xlink:title="mrpt_math">
<polygon fill="#d0d0d0" stroke="black" points="419,-324 324,-324 324,-288 419,-288 419,-324"/>
<text text-anchor="middle" x="371.5" y="-302.3" font-family="Times,serif" font-size="14.00">mrpt_math</text>
</a>
</g>
</g>
<!-- bayes&#45;&gt;math -->
<g id="edge5" class="edge">
<title>bayes&#45;&gt;math</title>
<path fill="none" stroke="black" d="M359.19,-431.87C361.57,-407.67 365.96,-363.21 368.8,-334.39"/>
<polygon fill="black" stroke="black" points="372.31,-334.48 369.81,-324.19 365.34,-333.8 372.31,-334.48"/>
</g>
<!-- config -->
<g id="node9" class="node">
<title>config</title>
<g id="a_node9"><a xlink:href="group_mrpt_config_grp.html" xlink:title="mrpt_config">
<polygon fill="#d0d0d0" stroke="black" points="348,-396 247,-396 247,-360 348,-360 348,-396"/>
<text text-anchor="middle" x="297.5" y="-374.3" font-family="Times,serif" font-size="14.00">mrpt_config</text>
</a>
</g>
</g>
<!-- bayes&#45;&gt;config -->
<g id="edge6" class="edge">
<title>bayes&#45;&gt;config</title>
<path fill="none" stroke="black" d="M342.67,-431.7C335.48,-423.3 326.7,-413.07 318.81,-403.86"/>
<polygon fill="black" stroke="black" points="321.33,-401.42 312.16,-396.1 316.01,-405.97 321.33,-401.42"/>
</g>
<!-- system -->
<g id="node16" class="node">
<title>system</title>
<g id="a_node16"><a xlink:href="group_mrpt_system_grp.html" xlink:title="mrpt_system">
<polygon fill="#d0d0d0" stroke="black" points="280.5,-252 170.5,-252 170.5,-216 280.5,-216 280.5,-252"/>
<text text-anchor="middle" x="225.5" y="-230.3" font-family="Times,serif" font-size="14.00">mrpt_system</text>
</a>
</g>
</g>
<!-- math&#45;&gt;system -->
<g id="edge29" class="edge">
<title>math&#45;&gt;system</title>
<path fill="none" stroke="black" d="M335.78,-287.88C316,-278.39 291.23,-266.51 270.17,-256.42"/>
<polygon fill="black" stroke="black" points="271.63,-253.24 261.1,-252.07 268.6,-259.55 271.63,-253.24"/>
</g>
<!-- serialization -->
<g id="node26" class="node">
<title>serialization</title>
<g id="a_node26"><a xlink:href="group_mrpt_serialization_grp.html" xlink:title="mrpt_serialization">
<polygon fill="#d0d0d0" stroke="black" points="444.5,-252 298.5,-252 298.5,-216 444.5,-216 444.5,-252"/>
<text text-anchor="middle" x="371.5" y="-230.3" font-family="Times,serif" font-size="14.00">mrpt_serialization</text>
</a>
</g>
</g>
<!-- math&#45;&gt;serialization -->
<g id="edge27" class="edge">
<title>math&#45;&gt;serialization</title>
<path fill="none" stroke="black" d="M371.5,-287.7C371.5,-279.98 371.5,-270.71 371.5,-262.11"/>
<polygon fill="black" stroke="black" points="375,-262.1 371.5,-252.1 368,-262.1 375,-262.1"/>
</g>
<!-- random -->
<g id="node27" class="node">
<title>random</title>
<g id="a_node27"><a xlink:href="group_mrpt_random_grp.html" xlink:title="mrpt_random">
<polygon fill="#d0d0d0" stroke="black" points="529,-180 416,-180 416,-144 529,-144 529,-180"/>
<text text-anchor="middle" x="472.5" y="-158.3" font-family="Times,serif" font-size="14.00">mrpt_random</text>
</a>
</g>
</g>
<!-- math&#45;&gt;random -->
<g id="edge28" class="edge">
<title>math&#45;&gt;random</title>
<path fill="none" stroke="black" d="M410.76,-287.93C426.29,-279.29 442.92,-267.35 453.5,-252 466,-233.87 470.52,-209.09 472.05,-190.28"/>
<polygon fill="black" stroke="black" points="475.54,-190.45 472.63,-180.26 468.56,-190.04 475.54,-190.45"/>
</g>
<!-- expr -->
<g id="node12" class="node">
<title>expr</title>
<g id="a_node12"><a xlink:href="group_mrpt_expr_grp.html" xlink:title="mrpt_expr">
<polygon fill="#d0d0d0" stroke="black" points="301,-324 210,-324 210,-288 301,-288 301,-324"/>
<text text-anchor="middle" x="255.5" y="-302.3" font-family="Times,serif" font-size="14.00">mrpt_expr</text>
</a>
</g>
</g>
<!-- config&#45;&gt;expr -->
<g id="edge8" class="edge">
<title>config&#45;&gt;expr</title>
<path fill="none" stroke="black" d="M287.12,-359.7C282.24,-351.56 276.31,-341.69 270.92,-332.7"/>
<polygon fill="black" stroke="black" points="273.91,-330.88 265.76,-324.1 267.91,-334.48 273.91,-330.88"/>
</g>
<!-- io -->
<g id="node11" class="node">
<title>io</title>
<g id="a_node11"><a xlink:href="group_mrpt_io_grp.html" xlink:title="mrpt_io">
<polygon fill="#d0d0d0" stroke="black" points="190,-396 119,-396 119,-360 190,-360 190,-396"/>
<text text-anchor="middle" x="154.5" y="-374.3" font-family="Times,serif" font-size="14.00">mrpt_io</text>
</a>
</g>
</g>
<!-- comms&#45;&gt;io -->
<g id="edge7" class="edge">
<title>comms&#45;&gt;io</title>
<path fill="none" stroke="black" d="M143.95,-503.87C145.99,-479.67 149.75,-435.21 152.19,-406.39"/>
<polygon fill="black" stroke="black" points="155.69,-406.45 153.05,-396.19 148.72,-405.86 155.69,-406.45"/>
</g>
<!-- io&#45;&gt;system -->
<g id="edge23" class="edge">
<title>io&#45;&gt;system</title>
<path fill="none" stroke="black" d="M163.06,-359.87C175.32,-335.35 197.98,-290.03 212.37,-261.26"/>
<polygon fill="black" stroke="black" points="215.56,-262.7 216.91,-252.19 209.3,-259.57 215.56,-262.7"/>
</g>
<!-- expr&#45;&gt;system -->
<g id="edge12" class="edge">
<title>expr&#45;&gt;system</title>
<path fill="none" stroke="black" d="M248.08,-287.7C244.71,-279.81 240.63,-270.3 236.88,-261.55"/>
<polygon fill="black" stroke="black" points="239.99,-259.92 232.83,-252.1 233.55,-262.67 239.99,-259.92"/>
</g>
<!-- containers -->
<g id="node13" class="node">
<title>containers</title>
<g id="a_node13"><a xlink:href="group_mrpt_containers_grp.html" xlink:title="mrpt_containers">
<polygon fill="#d0d0d0" stroke="black" points="293.5,-180 159.5,-180 159.5,-144 293.5,-144 293.5,-180"/>
<text text-anchor="middle" x="226.5" y="-158.3" font-family="Times,serif" font-size="14.00">mrpt_containers</text>
</a>
</g>
</g>
<!-- core -->
<g id="node14" class="node">
<title>core</title>
<g id="a_node14"><a xlink:href="group_mrpt_core_grp.html" xlink:title="mrpt_core">
<polygon fill="#d0d0d0" stroke="black" points="271,-108 182,-108 182,-72 271,-72 271,-108"/>
<text text-anchor="middle" x="226.5" y="-86.3" font-family="Times,serif" font-size="14.00">mrpt_core</text>
</a>
</g>
</g>
<!-- containers&#45;&gt;core -->
<g id="edge9" class="edge">
<title>containers&#45;&gt;core</title>
<path fill="none" stroke="black" d="M226.5,-143.7C226.5,-135.98 226.5,-126.71 226.5,-118.11"/>
<polygon fill="black" stroke="black" points="230,-118.1 226.5,-108.1 223,-118.1 230,-118.1"/>
</g>
<!-- typemeta -->
<g id="node15" class="node">
<title>typemeta</title>
<g id="a_node15"><a xlink:href="group_mrpt_typemeta_grp.html" xlink:title="mrpt_typemeta (.h)">
<polygon fill="#d0d0d0" stroke="black" points="444,-108 289,-108 289,-72 444,-72 444,-108"/>
<text text-anchor="middle" x="366.5" y="-86.3" font-family="Times,serif" font-size="14.00">mrpt_typemeta (.h)</text>
</a>
</g>
</g>
<!-- containers&#45;&gt;typemeta -->
<g id="edge10" class="edge">
<title>containers&#45;&gt;typemeta</title>
<path fill="none" stroke="black" d="M260.75,-143.88C279.56,-134.47 303.08,-122.71 323.17,-112.67"/>
<polygon fill="black" stroke="black" points="324.74,-115.79 332.12,-108.19 321.61,-109.53 324.74,-115.79"/>
</g>
<!-- core&#45;&gt;common -->
<g id="edge11" class="edge">
<title>core&#45;&gt;common</title>
<path fill="none" stroke="black" d="M260.75,-71.88C279.56,-62.47 303.08,-50.71 323.17,-40.67"/>
<polygon fill="black" stroke="black" points="324.74,-43.79 332.12,-36.19 321.61,-37.53 324.74,-43.79"/>
</g>
<!-- typemeta&#45;&gt;common -->
<g id="edge45" class="edge">
<title>typemeta&#45;&gt;common</title>
<path fill="none" stroke="black" d="M366.5,-71.7C366.5,-63.98 366.5,-54.71 366.5,-46.11"/>
<polygon fill="black" stroke="black" points="370,-46.1 366.5,-36.1 363,-46.1 370,-46.1"/>
</g>
<!-- system&#45;&gt;containers -->
<g id="edge42" class="edge">
<title>system&#45;&gt;containers</title>
<path fill="none" stroke="black" d="M225.75,-215.7C225.86,-207.98 225.99,-198.71 226.11,-190.11"/>
<polygon fill="black" stroke="black" points="229.61,-190.15 226.26,-180.1 222.61,-190.05 229.61,-190.15"/>
</g>
<!-- graphs -->
<g id="node17" class="node">
<title>graphs</title>
<g id="a_node17"><a xlink:href="group_mrpt_graphs_grp.html" xlink:title="mrpt_graphs">
<polygon fill="#d0d0d0" stroke="black" points="428.5,-684 320.5,-684 320.5,-648 428.5,-648 428.5,-684"/>
<text text-anchor="middle" x="374.5" y="-662.3" font-family="Times,serif" font-size="14.00">mrpt_graphs</text>
</a>
</g>
</g>
<!-- viz -->
<g id="node18" class="node">
<title>viz</title>
<g id="a_node18"><a xlink:href="group_mrpt_viz_grp.html" xlink:title="mrpt_viz">
<polygon fill="#d0d0d0" stroke="black" points="298,-612 219,-612 219,-576 298,-576 298,-612"/>
<text text-anchor="middle" x="258.5" y="-590.3" font-family="Times,serif" font-size="14.00">mrpt_viz</text>
</a>
</g>
</g>
<!-- graphs&#45;&gt;viz -->
<g id="edge13" class="edge">
<title>graphs&#45;&gt;viz</title>
<path fill="none" stroke="black" d="M346.12,-647.88C330.96,-638.72 312.09,-627.34 295.76,-617.48"/>
<polygon fill="black" stroke="black" points="297.36,-614.36 286.99,-612.19 293.74,-620.35 297.36,-614.36"/>
</g>
<!-- poses -->
<g id="node21" class="node">
<title>poses</title>
<g id="a_node21"><a xlink:href="group_mrpt_poses_grp.html" xlink:title="mrpt_poses">
<polygon fill="#d0d0d0" stroke="black" points="407,-540 308,-540 308,-504 407,-504 407,-540"/>
<text text-anchor="middle" x="357.5" y="-518.3" font-family="Times,serif" font-size="14.00">mrpt_poses</text>
</a>
</g>
</g>
<!-- viz&#45;&gt;poses -->
<g id="edge16" class="edge">
<title>viz&#45;&gt;poses</title>
<path fill="none" stroke="black" d="M282.72,-575.88C295.42,-566.89 311.16,-555.76 324.92,-546.03"/>
<polygon fill="black" stroke="black" points="327.04,-548.82 333.19,-540.19 323,-543.11 327.04,-548.82"/>
</g>
<!-- img -->
<g id="node22" class="node">
<title>img</title>
<g id="a_node22"><a xlink:href="group_mrpt_img_grp.html" xlink:title="mrpt_img">
<polygon fill="#d0d0d0" stroke="black" points="271.5,-468 185.5,-468 185.5,-432 271.5,-432 271.5,-468"/>
<text text-anchor="middle" x="228.5" y="-446.3" font-family="Times,serif" font-size="14.00">mrpt_img</text>
</a>
</g>
</g>
<!-- viz&#45;&gt;img -->
<g id="edge17" class="edge">
<title>viz&#45;&gt;img</title>
<path fill="none" stroke="black" d="M254.88,-575.87C249.75,-551.56 240.29,-506.82 234.21,-478.01"/>
<polygon fill="black" stroke="black" points="237.62,-477.25 232.13,-468.19 230.77,-478.7 237.62,-477.25"/>
</g>
<!-- graphslam -->
<g id="node19" class="node">
<title>graphslam</title>
<g id="a_node19"><a xlink:href="group_mrpt_graphslam_grp.html" xlink:title="mrpt_graphslam">
<polygon fill="#d0d0d0" stroke="black" points="441.5,-900 307.5,-900 307.5,-864 441.5,-864 441.5,-900"/>
<text text-anchor="middle" x="374.5" y="-878.3" font-family="Times,serif" font-size="14.00">mrpt_graphslam</text>
</a>
</g>
</g>
<!-- graphslam&#45;&gt;slam -->
<g id="edge14" class="edge">
<title>graphslam&#45;&gt;slam</title>
<path fill="none" stroke="black" d="M374.5,-863.7C374.5,-855.98 374.5,-846.71 374.5,-838.11"/>
<polygon fill="black" stroke="black" points="378,-838.1 374.5,-828.1 371,-838.1 378,-838.1"/>
</g>
<!-- opengl&#45;&gt;viz -->
<g id="edge34" class="edge">
<title>opengl&#45;&gt;viz</title>
<path fill="none" stroke="black" d="M103.39,-647.97C135.5,-637 177.07,-622.81 209.09,-611.87"/>
<polygon fill="black" stroke="black" points="210.37,-615.13 218.7,-608.59 208.1,-608.51 210.37,-615.13"/>
</g>
<!-- poses&#45;&gt;bayes -->
<g id="edge35" class="edge">
<title>poses&#45;&gt;bayes</title>
<path fill="none" stroke="black" d="M357.5,-503.7C357.5,-495.98 357.5,-486.71 357.5,-478.11"/>
<polygon fill="black" stroke="black" points="361,-478.1 357.5,-468.1 354,-478.1 361,-478.1"/>
</g>
<!-- img&#45;&gt;math -->
<g id="edge21" class="edge">
<title>img&#45;&gt;math</title>
<path fill="none" stroke="black" d="M225.33,-431.71C222.79,-412.26 221.86,-380.69 237.5,-360 247.41,-346.89 282.46,-333.27 314.22,-323.13"/>
<polygon fill="black" stroke="black" points="315.44,-326.41 323.94,-320.09 313.35,-319.73 315.44,-326.41"/>
</g>
<!-- img&#45;&gt;config -->
<g id="edge22" class="edge">
<title>img&#45;&gt;config</title>
<path fill="none" stroke="black" d="M245.56,-431.7C254,-423.14 264.32,-412.66 273.54,-403.3"/>
<polygon fill="black" stroke="black" points="276.11,-405.68 280.64,-396.1 271.13,-400.77 276.11,-405.68"/>
</g>
<!-- img&#45;&gt;io -->
<g id="edge20" class="edge">
<title>img&#45;&gt;io</title>
<path fill="none" stroke="black" d="M210.21,-431.7C201.07,-423.05 189.86,-412.45 179.9,-403.03"/>
<polygon fill="black" stroke="black" points="182.25,-400.43 172.58,-396.1 177.44,-405.52 182.25,-400.43"/>
</g>
<!-- maps&#45;&gt;graphs -->
<g id="edge25" class="edge">
<title>maps&#45;&gt;graphs</title>
<path fill="none" stroke="black" d="M372.24,-719.7C372.57,-711.98 372.97,-702.71 373.34,-694.11"/>
<polygon fill="black" stroke="black" points="376.84,-694.25 373.77,-684.1 369.84,-693.95 376.84,-694.25"/>
</g>
<!-- obs -->
<g id="node25" class="node">
<title>obs</title>
<g id="a_node25"><a xlink:href="group_mrpt_obs_grp.html" xlink:title="mrpt_obs">
<polygon fill="#d0d0d0" stroke="black" points="530,-684 447,-684 447,-648 530,-648 530,-684"/>
<text text-anchor="middle" x="488.5" y="-662.3" font-family="Times,serif" font-size="14.00">mrpt_obs</text>
</a>
</g>
</g>
<!-- maps&#45;&gt;obs -->
<g id="edge26" class="edge">
<title>maps&#45;&gt;obs</title>
<path fill="none" stroke="black" d="M400.12,-719.88C415.42,-710.72 434.44,-699.34 450.92,-689.48"/>
<polygon fill="black" stroke="black" points="452.98,-692.33 459.77,-684.19 449.39,-686.32 452.98,-692.33"/>
</g>
<!-- kinematics -->
<g id="node24" class="node">
<title>kinematics</title>
<g id="a_node24"><a xlink:href="group_mrpt_kinematics_grp.html" xlink:title="mrpt_kinematics">
<polygon fill="#d0d0d0" stroke="black" points="302.5,-684 166.5,-684 166.5,-648 302.5,-648 302.5,-684"/>
<text text-anchor="middle" x="234.5" y="-662.3" font-family="Times,serif" font-size="14.00">mrpt_kinematics</text>
</a>
</g>
</g>
<!-- kinematics&#45;&gt;viz -->
<g id="edge24" class="edge">
<title>kinematics&#45;&gt;viz</title>
<path fill="none" stroke="black" d="M240.43,-647.7C243.11,-639.9 246.33,-630.51 249.3,-621.83"/>
<polygon fill="black" stroke="black" points="252.7,-622.7 252.64,-612.1 246.08,-620.43 252.7,-622.7"/>
</g>
<!-- obs&#45;&gt;viz -->
<g id="edge32" class="edge">
<title>obs&#45;&gt;viz</title>
<path fill="none" stroke="black" d="M446.79,-650.97C443.65,-649.95 440.53,-648.95 437.5,-648 393.84,-634.26 343.88,-619.55 307.85,-609.12"/>
<polygon fill="black" stroke="black" points="308.66,-605.71 298.08,-606.3 306.71,-612.44 308.66,-605.71"/>
</g>
<!-- tfest -->
<g id="node29" class="node">
<title>tfest</title>
<g id="a_node29"><a xlink:href="group_mrpt_tfest_grp.html" xlink:title="mrpt_tfest">
<polygon fill="#d0d0d0" stroke="black" points="483.5,-612 391.5,-612 391.5,-576 483.5,-576 483.5,-612"/>
<text text-anchor="middle" x="437.5" y="-590.3" font-family="Times,serif" font-size="14.00">mrpt_tfest</text>
</a>
</g>
</g>
<!-- obs&#45;&gt;tfest -->
<g id="edge33" class="edge">
<title>obs&#45;&gt;tfest</title>
<path fill="none" stroke="black" d="M475.89,-647.7C469.9,-639.47 462.62,-629.48 456.02,-620.42"/>
<polygon fill="black" stroke="black" points="458.68,-618.13 449.96,-612.1 453.02,-622.25 458.68,-618.13"/>
</g>
<!-- rtti -->
<g id="node30" class="node">
<title>rtti</title>
<g id="a_node30"><a xlink:href="group_mrpt_rtti_grp.html" xlink:title="mrpt_rtti">
<polygon fill="#d0d0d0" stroke="black" points="397.5,-180 315.5,-180 315.5,-144 397.5,-144 397.5,-180"/>
<text text-anchor="middle" x="356.5" y="-158.3" font-family="Times,serif" font-size="14.00">mrpt_rtti</text>
</a>
</g>
</g>
<!-- serialization&#45;&gt;rtti -->
<g id="edge39" class="edge">
<title>serialization&#45;&gt;rtti</title>
<path fill="none" stroke="black" d="M367.79,-215.7C366.14,-207.98 364.15,-198.71 362.31,-190.11"/>
<polygon fill="black" stroke="black" points="365.68,-189.15 360.17,-180.1 358.84,-190.62 365.68,-189.15"/>
</g>
<!-- random&#45;&gt;common -->
<g id="edge36" class="edge">
<title>random&#45;&gt;common</title>
<path fill="none" stroke="black" d="M472.48,-143.67C471.65,-124.47 467.77,-93.4 452.5,-72 443.56,-59.47 430.65,-49.31 417.53,-41.35"/>
<polygon fill="black" stroke="black" points="418.89,-38.1 408.46,-36.2 415.43,-44.19 418.89,-38.1"/>
</g>
<!-- nav -->
<g id="node28" class="node">
<title>nav</title>
<g id="a_node28"><a xlink:href="group_mrpt_nav_grp.html" xlink:title="mrpt_nav">
<polygon fill="#d0d0d0" stroke="black" points="310.5,-828 226.5,-828 226.5,-792 310.5,-792 310.5,-828"/>
<text text-anchor="middle" x="268.5" y="-806.3" font-family="Times,serif" font-size="14.00">mrpt_nav</text>
</a>
</g>
</g>
<!-- nav&#45;&gt;maps -->
<g id="edge31" class="edge">
<title>nav&#45;&gt;maps</title>
<path fill="none" stroke="black" d="M293.7,-791.88C306.91,-782.89 323.29,-771.76 337.61,-762.03"/>
<polygon fill="black" stroke="black" points="339.9,-764.71 346.21,-756.19 335.97,-758.92 339.9,-764.71"/>
</g>
<!-- nav&#45;&gt;kinematics -->
<g id="edge30" class="edge">
<title>nav&#45;&gt;kinematics</title>
<path fill="none" stroke="black" d="M264.4,-791.87C258.58,-767.56 247.87,-722.82 240.97,-694.01"/>
<polygon fill="black" stroke="black" points="244.35,-693.1 238.62,-684.19 237.54,-694.73 244.35,-693.1"/>
</g>
<!-- tfest&#45;&gt;poses -->
<g id="edge43" class="edge">
<title>tfest&#45;&gt;poses</title>
<path fill="none" stroke="black" d="M417.72,-575.7C407.75,-566.97 395.49,-556.24 384.64,-546.75"/>
<polygon fill="black" stroke="black" points="386.88,-544.06 377.05,-540.1 382.27,-549.32 386.88,-544.06"/>
</g>
<!-- rtti&#45;&gt;core -->
<g id="edge37" class="edge">
<title>rtti&#45;&gt;core</title>
<path fill="none" stroke="black" d="M324.7,-143.88C307.39,-134.55 285.78,-122.92 267.24,-112.94"/>
<polygon fill="black" stroke="black" points="268.89,-109.85 258.42,-108.19 265.57,-116.01 268.89,-109.85"/>
</g>
<!-- rtti&#45;&gt;typemeta -->
<g id="edge38" class="edge">
<title>rtti&#45;&gt;typemeta</title>
<path fill="none" stroke="black" d="M358.97,-143.7C360.07,-135.98 361.4,-126.71 362.63,-118.11"/>
<polygon fill="black" stroke="black" points="366.11,-118.5 364.06,-108.1 359.18,-117.51 366.11,-118.5"/>
</g>
<!-- vision&#45;&gt;obs -->
<g id="edge46" class="edge">
<title>vision&#45;&gt;obs</title>
<path fill="none" stroke="black" d="M488.5,-719.7C488.5,-711.98 488.5,-702.71 488.5,-694.11"/>
<polygon fill="black" stroke="black" points="492,-694.1 488.5,-684.1 485,-694.1 492,-694.1"/>
</g>
<!-- topography -->
<g id="node32" class="node">
<title>topography</title>
<g id="a_node32"><a xlink:href="group_mrpt_topography_grp.html" xlink:title="mrpt_topography">
<polygon fill="#d0d0d0" stroke="black" points="697.5,-756 557.5,-756 557.5,-720 697.5,-720 697.5,-756"/>
<text text-anchor="middle" x="627.5" y="-734.3" font-family="Times,serif" font-size="14.00">mrpt_topography</text>
</a>
</g>
</g>
<!-- topography&#45;&gt;obs -->
<g id="edge44" class="edge">
<title>topography&#45;&gt;obs</title>
<path fill="none" stroke="black" d="M593.5,-719.88C574.9,-710.51 551.67,-698.81 531.79,-688.8"/>
<polygon fill="black" stroke="black" points="533.14,-685.56 522.63,-684.19 529.99,-691.81 533.14,-685.56"/>
</g>
<!-- visionlgpl -->
<g id="node33" class="node">
<title>visionlgpl</title>
<g id="a_node33"><a xlink:href="group_mrpt_vision_lgpl_grp.html" xlink:title="mrpt_vision_lgpl">
<polygon fill="#d0d0d0" stroke="black" points="572.5,-828 438.5,-828 438.5,-792 572.5,-792 572.5,-828"/>
<text text-anchor="middle" x="505.5" y="-806.3" font-family="Times,serif" font-size="14.00">mrpt_vision_lgpl</text>
</a>
</g>
</g>
<!-- visionlgpl&#45;&gt;vision -->
<g id="edge47" class="edge">
<title>visionlgpl&#45;&gt;vision</title>
<path fill="none" stroke="black" d="M501.3,-791.7C499.4,-783.9 497.12,-774.51 495.02,-765.83"/>
<polygon fill="black" stroke="black" points="498.42,-765 492.65,-756.1 491.61,-766.65 498.42,-765"/>
</g>
</g>
</svg>
