<?xml version="1.0" encoding="UTF-8" standalone="no"?>
<!DOCTYPE svg PUBLIC "-//W3C//DTD SVG 1.1//EN"
 "http://www.w3.org/Graphics/SVG/1.1/DTD/svg11.dtd">
<!-- Generated by graphviz version 2.43.0 (0)
 -->
<!-- Title: MRPT_LIBS Pages: 1 -->
<svg width="874pt" height="980pt"
 viewBox="0.00 0.00 873.50 980.00" xmlns="http://www.w3.org/2000/svg" xmlns:xlink="http://www.w3.org/1999/xlink">
<g id="graph0" class="graph" transform="scale(1 1) rotate(0) translate(4 976)">
<title>MRPT_LIBS</title>
<polygon fill="white" stroke="transparent" points="-4,4 -4,-976 869.5,-976 869.5,4 -4,4"/>
<!-- apps -->
<g id="node1" class="node">
<title>apps</title>
<g id="a_node1"><a xlink:href="group_mrpt_bayes_grp.html" xlink:title="mrpt&#45;apps">
<polygon fill="#d0d0d0" stroke="black" points="418,-972 328,-972 328,-936 418,-936 418,-972"/>
<text text-anchor="middle" x="373" y="-950.3" font-family="Times,serif" font-size="14.00">mrpt&#45;apps</text>
</a>
</g>
</g>
<!-- gui -->
<g id="node2" class="node">
<title>gui</title>
<g id="a_node2"><a xlink:href="group_mrpt_gui_grp.html" xlink:title="mrpt&#45;gui">
<polygon fill="#d0d0d0" stroke="black" points="335.5,-756 256.5,-756 256.5,-720 335.5,-720 335.5,-756"/>
<text text-anchor="middle" x="296" y="-734.3" font-family="Times,serif" font-size="14.00">mrpt&#45;gui</text>
</a>
</g>
</g>
<!-- apps&#45;&gt;gui -->
<g id="edge1" class="edge">
<title>apps&#45;&gt;gui</title>
<path fill="none" stroke="black" d="M381.56,-935.6C395.55,-904.43 419.18,-838.05 392,-792 381.62,-774.41 363.07,-762.25 345.03,-754.07"/>
<polygon fill="black" stroke="black" points="346.27,-750.79 335.69,-750.14 343.56,-757.24 346.27,-750.79"/>
</g>
<!-- slam -->
<g id="node3" class="node">
<title>slam</title>
<g id="a_node3"><a xlink:href="group_mrpt_slam_grp.html" xlink:title="mrpt&#45;slam">
<polygon fill="#d0d0d0" stroke="black" points="238,-756 148,-756 148,-720 238,-720 238,-756"/>
<text text-anchor="middle" x="193" y="-734.3" font-family="Times,serif" font-size="14.00">mrpt&#45;slam</text>
</a>
</g>
</g>
<!-- apps&#45;&gt;slam -->
<g id="edge2" class="edge">
<title>apps&#45;&gt;slam</title>
<path fill="none" stroke="black" d="M327.98,-948.29C263.02,-938.72 145.8,-910.34 100,-828 92.22,-814.02 91.96,-805.83 100,-792 108.74,-776.96 123.53,-765.83 138.77,-757.76"/>
<polygon fill="black" stroke="black" points="140.31,-760.9 147.75,-753.36 137.23,-754.62 140.31,-760.9"/>
</g>
<!-- hwdrivers -->
<g id="node4" class="node">
<title>hwdrivers</title>
<g id="a_node4"><a xlink:href="group_mrpt_hwdrivers_grp.html" xlink:title="mrpt&#45;hwdrivers">
<polygon fill="#d0d0d0" stroke="black" points="567,-828 439,-828 439,-792 567,-792 567,-828"/>
<text text-anchor="middle" x="503" y="-806.3" font-family="Times,serif" font-size="14.00">mrpt&#45;hwdrivers</text>
</a>
</g>
</g>
<!-- apps&#45;&gt;hwdrivers -->
<g id="edge3" class="edge">
<title>apps&#45;&gt;hwdrivers</title>
<path fill="none" stroke="black" d="M390.59,-935.57C400.78,-925.35 413.78,-912.1 425,-900 444.63,-878.84 466.2,-854.1 481.68,-836.08"/>
<polygon fill="black" stroke="black" points="484.48,-838.19 488.33,-828.32 479.17,-833.63 484.48,-838.19"/>
</g>
<!-- graphslam -->
<g id="node5" class="node">
<title>graphslam</title>
<g id="a_node5"><a xlink:href="group_mrpt_graphslam_grp.html" xlink:title="mrpt&#45;graphslam">
<polygon fill="#d0d0d0" stroke="black" points="383,-828 251,-828 251,-792 383,-792 383,-828"/>
<text text-anchor="middle" x="317" y="-806.3" font-family="Times,serif" font-size="14.00">mrpt&#45;graphslam</text>
</a>
</g>
</g>
<!-- apps&#45;&gt;graphslam -->
<g id="edge4" class="edge">
<title>apps&#45;&gt;graphslam</title>
<path fill="none" stroke="black" d="M371.06,-935.67C368.56,-917.29 363.26,-887.69 353,-864 348.86,-854.46 342.95,-844.81 337.1,-836.41"/>
<polygon fill="black" stroke="black" points="339.82,-834.2 331.11,-828.17 334.16,-838.32 339.82,-834.2"/>
</g>
<!-- hmtslam -->
<g id="node6" class="node">
<title>hmtslam</title>
<g id="a_node6"><a xlink:href="group_mrpt_hmtslam_grp.html" xlink:title="mrpt&#45;hmtslam">
<polygon fill="#d0d0d0" stroke="black" points="344.5,-900 225.5,-900 225.5,-864 344.5,-864 344.5,-900"/>
<text text-anchor="middle" x="285" y="-878.3" font-family="Times,serif" font-size="14.00">mrpt&#45;hmtslam</text>
</a>
</g>
</g>
<!-- apps&#45;&gt;hmtslam -->
<g id="edge5" class="edge">
<title>apps&#45;&gt;hmtslam</title>
<path fill="none" stroke="black" d="M351.25,-935.7C340.16,-926.88 326.53,-916.03 314.51,-906.47"/>
<polygon fill="black" stroke="black" points="316.51,-903.59 306.5,-900.1 312.15,-909.07 316.51,-903.59"/>
</g>
<!-- opengl -->
<g id="node19" class="node">
<title>opengl</title>
<g id="a_node19"><a xlink:href="group_mrpt_opengl_grp.html" xlink:title="mrpt&#45;opengl">
<polygon fill="#d0d0d0" stroke="black" points="602,-540 498,-540 498,-504 602,-504 602,-540"/>
<text text-anchor="middle" x="550" y="-518.3" font-family="Times,serif" font-size="14.00">mrpt&#45;opengl</text>
</a>
</g>
</g>
<!-- gui&#45;&gt;opengl -->
<g id="edge18" class="edge">
<title>gui&#45;&gt;opengl</title>
<path fill="none" stroke="black" d="M335.68,-726.16C361.98,-717.64 396.25,-703.85 422,-684 469.94,-647.03 466.95,-623.09 505,-576 512.55,-566.66 521.03,-556.57 528.58,-547.72"/>
<polygon fill="black" stroke="black" points="531.34,-549.88 535.19,-540.01 526.03,-545.32 531.34,-549.88"/>
</g>
<!-- maps -->
<g id="node20" class="node">
<title>maps</title>
<g id="a_node20"><a xlink:href="group_mrpt_maps_grp.html" xlink:title="mrpt&#45;maps">
<polygon fill="#d0d0d0" stroke="black" points="614.5,-684 519.5,-684 519.5,-648 614.5,-648 614.5,-684"/>
<text text-anchor="middle" x="567" y="-662.3" font-family="Times,serif" font-size="14.00">mrpt&#45;maps</text>
</a>
</g>
</g>
<!-- slam&#45;&gt;maps -->
<g id="edge46" class="edge">
<title>slam&#45;&gt;maps</title>
<path fill="none" stroke="black" d="M238.24,-722.25C241.19,-721.44 244.13,-720.69 247,-720 337.72,-698.32 445.01,-682.51 509.45,-674.05"/>
<polygon fill="black" stroke="black" points="509.95,-677.51 519.41,-672.75 509.04,-670.57 509.95,-677.51"/>
</g>
<!-- vision -->
<g id="node21" class="node">
<title>vision</title>
<g id="a_node21"><a xlink:href="group_mrpt_vision_grp.html" xlink:title="mrpt&#45;vision">
<polygon fill="#d0d0d0" stroke="black" points="413,-684 315,-684 315,-648 413,-648 413,-684"/>
<text text-anchor="middle" x="364" y="-662.3" font-family="Times,serif" font-size="14.00">mrpt&#45;vision</text>
</a>
</g>
</g>
<!-- slam&#45;&gt;vision -->
<g id="edge47" class="edge">
<title>slam&#45;&gt;vision</title>
<path fill="none" stroke="black" d="M234.83,-719.88C258.42,-710.22 288.06,-698.09 313,-687.88"/>
<polygon fill="black" stroke="black" points="314.38,-691.1 322.3,-684.07 311.72,-684.62 314.38,-691.1"/>
</g>
<!-- hwdrivers&#45;&gt;gui -->
<g id="edge21" class="edge">
<title>hwdrivers&#45;&gt;gui</title>
<path fill="none" stroke="black" d="M452.63,-791.97C419.98,-780.93 377.66,-766.62 345.25,-755.65"/>
<polygon fill="black" stroke="black" points="346.12,-752.25 335.52,-752.37 343.88,-758.88 346.12,-752.25"/>
</g>
<!-- comms -->
<g id="node10" class="node">
<title>comms</title>
<g id="a_node10"><a xlink:href="group_mrpt_comms_grp.html" xlink:title="mrpt&#45;comms">
<polygon fill="#d0d0d0" stroke="black" points="865.5,-468 758.5,-468 758.5,-432 865.5,-432 865.5,-468"/>
<text text-anchor="middle" x="812" y="-446.3" font-family="Times,serif" font-size="14.00">mrpt&#45;comms</text>
</a>
</g>
</g>
<!-- hwdrivers&#45;&gt;comms -->
<g id="edge20" class="edge">
<title>hwdrivers&#45;&gt;comms</title>
<path fill="none" stroke="black" d="M567.11,-806.79C650.26,-802.56 788.92,-790.41 825,-756 854.27,-728.08 844,-707.45 844,-667 844,-667 844,-667 844,-593 844,-552.04 831.17,-506.02 821.76,-477.77"/>
<polygon fill="black" stroke="black" points="825.03,-476.53 818.48,-468.21 818.41,-478.8 825.03,-476.53"/>
</g>
<!-- hwdrivers&#45;&gt;maps -->
<g id="edge22" class="edge">
<title>hwdrivers&#45;&gt;maps</title>
<path fill="none" stroke="black" d="M567.16,-798.88C614.22,-790 672.36,-775.46 687,-756 696.62,-743.22 695.73,-733.41 687,-720 672.96,-698.45 647.95,-685.6 624.39,-677.96"/>
<polygon fill="black" stroke="black" points="625.34,-674.6 614.76,-675.1 623.34,-681.31 625.34,-674.6"/>
</g>
<!-- hwdrivers&#45;&gt;vision -->
<g id="edge23" class="edge">
<title>hwdrivers&#45;&gt;vision</title>
<path fill="none" stroke="black" d="M438.69,-793.27C418.18,-785.26 397.15,-773.41 383,-756 368.94,-738.7 364.6,-713.44 363.55,-694.24"/>
<polygon fill="black" stroke="black" points="367.04,-693.91 363.26,-684.02 360.04,-694.11 367.04,-693.91"/>
</g>
<!-- graphslam&#45;&gt;gui -->
<g id="edge16" class="edge">
<title>graphslam&#45;&gt;gui</title>
<path fill="none" stroke="black" d="M311.81,-791.7C309.47,-783.9 306.65,-774.51 304.05,-765.83"/>
<polygon fill="black" stroke="black" points="307.36,-764.68 301.13,-756.1 300.65,-766.69 307.36,-764.68"/>
</g>
<!-- graphslam&#45;&gt;slam -->
<g id="edge17" class="edge">
<title>graphslam&#45;&gt;slam</title>
<path fill="none" stroke="black" d="M286.67,-791.88C270.3,-782.64 249.92,-771.13 232.35,-761.21"/>
<polygon fill="black" stroke="black" points="233.88,-758.06 223.45,-756.19 230.44,-764.15 233.88,-758.06"/>
</g>
<!-- hmtslam&#45;&gt;graphslam -->
<g id="edge19" class="edge">
<title>hmtslam&#45;&gt;graphslam</title>
<path fill="none" stroke="black" d="M292.91,-863.7C296.55,-855.73 300.95,-846.1 304.99,-837.26"/>
<polygon fill="black" stroke="black" points="308.21,-838.65 309.18,-828.1 301.84,-835.74 308.21,-838.65"/>
</g>
<!-- bayes -->
<g id="node7" class="node">
<title>bayes</title>
<g id="a_node7"><a xlink:href="group_mrpt_bayes_grp.html" xlink:title="mrpt&#45;bayes">
<polygon fill="#d0d0d0" stroke="black" points="551,-396 453,-396 453,-360 551,-360 551,-396"/>
<text text-anchor="middle" x="502" y="-374.3" font-family="Times,serif" font-size="14.00">mrpt&#45;bayes</text>
</a>
</g>
</g>
<!-- math -->
<g id="node8" class="node">
<title>math</title>
<g id="a_node8"><a xlink:href="group_mrpt_math_grp.html" xlink:title="mrpt&#45;math">
<polygon fill="#d0d0d0" stroke="black" points="556.5,-252 463.5,-252 463.5,-216 556.5,-216 556.5,-252"/>
<text text-anchor="middle" x="510" y="-230.3" font-family="Times,serif" font-size="14.00">mrpt&#45;math</text>
</a>
</g>
</g>
<!-- bayes&#45;&gt;math -->
<g id="edge6" class="edge">
<title>bayes&#45;&gt;math</title>
<path fill="none" stroke="black" d="M502.96,-359.87C504.33,-335.67 506.83,-291.21 508.46,-262.39"/>
<polygon fill="black" stroke="black" points="511.96,-262.37 509.03,-252.19 504.97,-261.98 511.96,-262.37"/>
</g>
<!-- config -->
<g id="node9" class="node">
<title>config</title>
<g id="a_node9"><a xlink:href="group_mrpt_config_grp.html" xlink:title="mrpt&#45;config">
<polygon fill="#d0d0d0" stroke="black" points="665,-324 565,-324 565,-288 665,-288 665,-324"/>
<text text-anchor="middle" x="615" y="-302.3" font-family="Times,serif" font-size="14.00">mrpt&#45;config</text>
</a>
</g>
</g>
<!-- bayes&#45;&gt;config -->
<g id="edge7" class="edge">
<title>bayes&#45;&gt;config</title>
<path fill="none" stroke="black" d="M529.64,-359.88C544.42,-350.72 562.79,-339.34 578.7,-329.48"/>
<polygon fill="black" stroke="black" points="580.59,-332.43 587.25,-324.19 576.91,-326.48 580.59,-332.43"/>
</g>
<!-- system -->
<g id="node17" class="node">
<title>system</title>
<g id="a_node17"><a xlink:href="group_mrpt_system_grp.html" xlink:title="mrpt&#45;system">
<polygon fill="#d0d0d0" stroke="black" points="707.5,-180 600.5,-180 600.5,-144 707.5,-144 707.5,-180"/>
<text text-anchor="middle" x="654" y="-158.3" font-family="Times,serif" font-size="14.00">mrpt&#45;system</text>
</a>
</g>
</g>
<!-- math&#45;&gt;system -->
<g id="edge33" class="edge">
<title>math&#45;&gt;system</title>
<path fill="none" stroke="black" d="M545.23,-215.88C564.58,-206.47 588.77,-194.71 609.43,-184.67"/>
<polygon fill="black" stroke="black" points="611.17,-187.71 618.64,-180.19 608.11,-181.41 611.17,-187.71"/>
</g>
<!-- serialization -->
<g id="node25" class="node">
<title>serialization</title>
<g id="a_node25"><a xlink:href="group_mrpt_serialization_grp.html" xlink:title="mrpt&#45;serialization">
<polygon fill="#d0d0d0" stroke="black" points="582,-180 438,-180 438,-144 582,-144 582,-180"/>
<text text-anchor="middle" x="510" y="-158.3" font-family="Times,serif" font-size="14.00">mrpt&#45;serialization</text>
</a>
</g>
</g>
<!-- math&#45;&gt;serialization -->
<g id="edge31" class="edge">
<title>math&#45;&gt;serialization</title>
<path fill="none" stroke="black" d="M510,-215.7C510,-207.98 510,-198.71 510,-190.11"/>
<polygon fill="black" stroke="black" points="513.5,-190.1 510,-180.1 506.5,-190.1 513.5,-190.1"/>
</g>
<!-- random -->
<g id="node26" class="node">
<title>random</title>
<g id="a_node26"><a xlink:href="group_mrpt_random_grp.html" xlink:title="mrpt&#45;random">
<polygon fill="#d0d0d0" stroke="black" points="457.5,-36 346.5,-36 346.5,0 457.5,0 457.5,-36"/>
<text text-anchor="middle" x="402" y="-14.3" font-family="Times,serif" font-size="14.00">mrpt&#45;random</text>
</a>
</g>
</g>
<!-- math&#45;&gt;random -->
<g id="edge32" class="edge">
<title>math&#45;&gt;random</title>
<path fill="none" stroke="black" d="M470.46,-215.81C455.19,-207.22 439.02,-195.33 429,-180 402.28,-139.11 399.3,-80.3 400.21,-46.24"/>
<polygon fill="black" stroke="black" points="403.71,-46.23 400.61,-36.1 396.71,-45.96 403.71,-46.23"/>
</g>
<!-- expr -->
<g id="node12" class="node">
<title>expr</title>
<g id="a_node12"><a xlink:href="group_mrpt_expr_grp.html" xlink:title="mrpt&#45;expr">
<polygon fill="#d0d0d0" stroke="black" points="666.5,-252 577.5,-252 577.5,-216 666.5,-216 666.5,-252"/>
<text text-anchor="middle" x="622" y="-230.3" font-family="Times,serif" font-size="14.00">mrpt&#45;expr</text>
</a>
</g>
</g>
<!-- config&#45;&gt;expr -->
<g id="edge9" class="edge">
<title>config&#45;&gt;expr</title>
<path fill="none" stroke="black" d="M616.73,-287.7C617.5,-279.98 618.43,-270.71 619.29,-262.11"/>
<polygon fill="black" stroke="black" points="622.78,-262.4 620.29,-252.1 615.81,-261.71 622.78,-262.4"/>
</g>
<!-- io -->
<g id="node11" class="node">
<title>io</title>
<g id="a_node11"><a xlink:href="group_mrpt_io_grp.html" xlink:title="mrpt&#45;io">
<polygon fill="#d0d0d0" stroke="black" points="752.5,-324 683.5,-324 683.5,-288 752.5,-288 752.5,-324"/>
<text text-anchor="middle" x="718" y="-302.3" font-family="Times,serif" font-size="14.00">mrpt&#45;io</text>
</a>
</g>
</g>
<!-- comms&#45;&gt;io -->
<g id="edge8" class="edge">
<title>comms&#45;&gt;io</title>
<path fill="none" stroke="black" d="M800.66,-431.87C784.36,-407.24 754.17,-361.64 735.13,-332.88"/>
<polygon fill="black" stroke="black" points="737.82,-330.6 729.38,-324.19 731.98,-334.46 737.82,-330.6"/>
</g>
<!-- io&#45;&gt;system -->
<g id="edge27" class="edge">
<title>io&#45;&gt;system</title>
<path fill="none" stroke="black" d="M710.28,-287.87C699.28,-263.46 678.98,-218.43 666,-189.64"/>
<polygon fill="black" stroke="black" points="669.05,-187.87 661.75,-180.19 662.67,-190.74 669.05,-187.87"/>
</g>
<!-- expr&#45;&gt;system -->
<g id="edge14" class="edge">
<title>expr&#45;&gt;system</title>
<path fill="none" stroke="black" d="M629.91,-215.7C633.55,-207.73 637.95,-198.1 641.99,-189.26"/>
<polygon fill="black" stroke="black" points="645.21,-190.65 646.18,-180.1 638.84,-187.74 645.21,-190.65"/>
</g>
<!-- containers -->
<g id="node13" class="node">
<title>containers</title>
<g id="a_node13"><a xlink:href="group_mrpt_containers_grp.html" xlink:title="mrpt&#45;containers">
<polygon fill="#d0d0d0" stroke="black" points="703.5,-108 572.5,-108 572.5,-72 703.5,-72 703.5,-108"/>
<text text-anchor="middle" x="638" y="-86.3" font-family="Times,serif" font-size="14.00">mrpt&#45;containers</text>
</a>
</g>
</g>
<!-- core -->
<g id="node14" class="node">
<title>core</title>
<g id="a_node14"><a xlink:href="group_mrpt_core_grp.html" xlink:title="mrpt&#45;core">
<polygon fill="#d0d0d0" stroke="black" points="562.5,-36 475.5,-36 475.5,0 562.5,0 562.5,-36"/>
<text text-anchor="middle" x="519" y="-14.3" font-family="Times,serif" font-size="14.00">mrpt&#45;core</text>
</a>
</g>
</g>
<!-- containers&#45;&gt;core -->
<g id="edge10" class="edge">
<title>containers&#45;&gt;core</title>
<path fill="none" stroke="black" d="M608.89,-71.88C593.33,-62.72 573.98,-51.34 557.22,-41.48"/>
<polygon fill="black" stroke="black" points="558.62,-38.24 548.22,-36.19 555.07,-44.28 558.62,-38.24"/>
</g>
<!-- typemeta -->
<g id="node15" class="node">
<title>typemeta</title>
<g id="a_node15"><a xlink:href="group_mrpt_typemeta_grp.html" xlink:title="mrpt&#45;typemeta (.h)">
<polygon fill="#d0d0d0" stroke="black" points="733,-36 581,-36 581,0 733,0 733,-36"/>
<text text-anchor="middle" x="657" y="-14.3" font-family="Times,serif" font-size="14.00">mrpt&#45;typemeta (.h)</text>
</a>
</g>
</g>
<!-- containers&#45;&gt;typemeta -->
<g id="edge11" class="edge">
<title>containers&#45;&gt;typemeta</title>
<path fill="none" stroke="black" d="M642.7,-71.7C644.81,-63.9 647.36,-54.51 649.72,-45.83"/>
<polygon fill="black" stroke="black" points="653.12,-46.67 652.36,-36.1 646.36,-44.84 653.12,-46.67"/>
</g>
<!-- detectors -->
<g id="node16" class="node">
<title>detectors</title>
<g id="a_node16"><a xlink:href="group_mrpt_detectors_grp.html" xlink:title="mrpt&#45;detectors">
<polygon fill="#d0d0d0" stroke="black" points="233,-828 109,-828 109,-792 233,-792 233,-828"/>
<text text-anchor="middle" x="171" y="-806.3" font-family="Times,serif" font-size="14.00">mrpt&#45;detectors</text>
</a>
</g>
</g>
<!-- detectors&#45;&gt;gui -->
<g id="edge12" class="edge">
<title>detectors&#45;&gt;gui</title>
<path fill="none" stroke="black" d="M201.58,-791.88C218.07,-782.64 238.62,-771.13 256.34,-761.21"/>
<polygon fill="black" stroke="black" points="258.29,-764.13 265.3,-756.19 254.87,-758.02 258.29,-764.13"/>
</g>
<!-- detectors&#45;&gt;slam -->
<g id="edge13" class="edge">
<title>detectors&#45;&gt;slam</title>
<path fill="none" stroke="black" d="M176.44,-791.7C178.89,-783.9 181.84,-774.51 184.57,-765.83"/>
<polygon fill="black" stroke="black" points="187.96,-766.69 187.62,-756.1 181.29,-764.59 187.96,-766.69"/>
</g>
<!-- system&#45;&gt;containers -->
<g id="edge49" class="edge">
<title>system&#45;&gt;containers</title>
<path fill="none" stroke="black" d="M650.04,-143.7C648.28,-135.98 646.16,-126.71 644.2,-118.11"/>
<polygon fill="black" stroke="black" points="647.55,-117.07 641.91,-108.1 640.73,-118.63 647.55,-117.07"/>
</g>
<!-- system&#45;&gt;typemeta -->
<g id="edge48" class="edge">
<title>system&#45;&gt;typemeta</title>
<path fill="none" stroke="black" d="M681.8,-143.87C693.77,-134.84 706.5,-122.59 713,-108 719.52,-93.39 719.33,-86.7 713,-72 708.21,-60.87 699.81,-50.99 690.95,-42.86"/>
<polygon fill="black" stroke="black" points="693,-40.01 683.12,-36.18 688.46,-45.34 693,-40.01"/>
</g>
<!-- graphs -->
<g id="node18" class="node">
<title>graphs</title>
<g id="a_node18"><a xlink:href="group_mrpt_graphs_grp.html" xlink:title="mrpt&#45;graphs">
<polygon fill="#d0d0d0" stroke="black" points="620,-612 514,-612 514,-576 620,-576 620,-612"/>
<text text-anchor="middle" x="567" y="-590.3" font-family="Times,serif" font-size="14.00">mrpt&#45;graphs</text>
</a>
</g>
</g>
<!-- graphs&#45;&gt;opengl -->
<g id="edge15" class="edge">
<title>graphs&#45;&gt;opengl</title>
<path fill="none" stroke="black" d="M562.8,-575.7C560.9,-567.9 558.62,-558.51 556.52,-549.83"/>
<polygon fill="black" stroke="black" points="559.92,-549 554.15,-540.1 553.11,-550.65 559.92,-549"/>
</g>
<!-- img -->
<g id="node22" class="node">
<title>img</title>
<g id="a_node22"><a xlink:href="group_mrpt_img_grp.html" xlink:title="mrpt&#45;img">
<polygon fill="#d0d0d0" stroke="black" points="654.5,-396 571.5,-396 571.5,-360 654.5,-360 654.5,-396"/>
<text text-anchor="middle" x="613" y="-374.3" font-family="Times,serif" font-size="14.00">mrpt&#45;img</text>
</a>
</g>
</g>
<!-- opengl&#45;&gt;img -->
<g id="edge39" class="edge">
<title>opengl&#45;&gt;img</title>
<path fill="none" stroke="black" d="M557.6,-503.87C568.43,-479.46 588.41,-434.43 601.18,-405.64"/>
<polygon fill="black" stroke="black" points="604.52,-406.75 605.37,-396.19 598.12,-403.91 604.52,-406.75"/>
</g>
<!-- poses -->
<g id="node29" class="node">
<title>poses</title>
<g id="a_node29"><a xlink:href="group_mrpt_poses_grp.html" xlink:title="mrpt&#45;poses">
<polygon fill="#d0d0d0" stroke="black" points="550.5,-468 453.5,-468 453.5,-432 550.5,-432 550.5,-468"/>
<text text-anchor="middle" x="502" y="-446.3" font-family="Times,serif" font-size="14.00">mrpt&#45;poses</text>
</a>
</g>
</g>
<!-- opengl&#45;&gt;poses -->
<g id="edge38" class="edge">
<title>opengl&#45;&gt;poses</title>
<path fill="none" stroke="black" d="M538.13,-503.7C532.5,-495.47 525.65,-485.48 519.43,-476.42"/>
<polygon fill="black" stroke="black" points="522.27,-474.37 513.73,-468.1 516.5,-478.33 522.27,-474.37"/>
</g>
<!-- maps&#45;&gt;graphs -->
<g id="edge29" class="edge">
<title>maps&#45;&gt;graphs</title>
<path fill="none" stroke="black" d="M567,-647.7C567,-639.98 567,-630.71 567,-622.11"/>
<polygon fill="black" stroke="black" points="570.5,-622.1 567,-612.1 563.5,-622.1 570.5,-622.1"/>
</g>
<!-- obs -->
<g id="node24" class="node">
<title>obs</title>
<g id="a_node24"><a xlink:href="group_mrpt_obs_grp.html" xlink:title="mrpt&#45;obs">
<polygon fill="#d0d0d0" stroke="black" points="457.5,-612 376.5,-612 376.5,-576 457.5,-576 457.5,-612"/>
<text text-anchor="middle" x="417" y="-590.3" font-family="Times,serif" font-size="14.00">mrpt&#45;obs</text>
</a>
</g>
</g>
<!-- maps&#45;&gt;obs -->
<g id="edge30" class="edge">
<title>maps&#45;&gt;obs</title>
<path fill="none" stroke="black" d="M530.31,-647.88C509.98,-638.39 484.53,-626.51 462.9,-616.42"/>
<polygon fill="black" stroke="black" points="464.12,-613.13 453.57,-612.07 461.16,-619.47 464.12,-613.13"/>
</g>
<!-- vision&#45;&gt;obs -->
<g id="edge52" class="edge">
<title>vision&#45;&gt;obs</title>
<path fill="none" stroke="black" d="M377.1,-647.7C383.39,-639.39 391.05,-629.28 397.96,-620.14"/>
<polygon fill="black" stroke="black" points="400.8,-622.19 404.05,-612.1 395.22,-617.96 400.8,-622.19"/>
</g>
<!-- img&#45;&gt;math -->
<g id="edge25" class="edge">
<title>img&#45;&gt;math</title>
<path fill="none" stroke="black" d="M591.25,-359.9C579.82,-350.2 566.13,-337.35 556,-324 541.29,-304.62 528.92,-279.86 520.73,-261.37"/>
<polygon fill="black" stroke="black" points="523.9,-259.88 516.73,-252.08 517.47,-262.65 523.9,-259.88"/>
</g>
<!-- img&#45;&gt;config -->
<g id="edge26" class="edge">
<title>img&#45;&gt;config</title>
<path fill="none" stroke="black" d="M613.49,-359.7C613.71,-351.98 613.98,-342.71 614.23,-334.11"/>
<polygon fill="black" stroke="black" points="617.72,-334.2 614.51,-324.1 610.73,-334 617.72,-334.2"/>
</g>
<!-- img&#45;&gt;io -->
<g id="edge24" class="edge">
<title>img&#45;&gt;io</title>
<path fill="none" stroke="black" d="M638.69,-359.88C652.29,-350.81 669.17,-339.55 683.86,-329.76"/>
<polygon fill="black" stroke="black" points="685.84,-332.65 692.22,-324.19 681.95,-326.82 685.84,-332.65"/>
</g>
<!-- kinematics -->
<g id="node23" class="node">
<title>kinematics</title>
<g id="a_node23"><a xlink:href="group_mrpt_kinematics_grp.html" xlink:title="mrpt&#45;kinematics">
<polygon fill="#d0d0d0" stroke="black" points="794,-612 660,-612 660,-576 794,-576 794,-612"/>
<text text-anchor="middle" x="727" y="-590.3" font-family="Times,serif" font-size="14.00">mrpt&#45;kinematics</text>
</a>
</g>
</g>
<!-- kinematics&#45;&gt;opengl -->
<g id="edge28" class="edge">
<title>kinematics&#45;&gt;opengl</title>
<path fill="none" stroke="black" d="M683.7,-575.88C659.29,-566.22 628.6,-554.09 602.79,-543.88"/>
<polygon fill="black" stroke="black" points="603.74,-540.49 593.16,-540.07 601.17,-547 603.74,-540.49"/>
</g>
<!-- obs&#45;&gt;opengl -->
<g id="edge36" class="edge">
<title>obs&#45;&gt;opengl</title>
<path fill="none" stroke="black" d="M449.54,-575.88C467.25,-566.55 489.35,-554.92 508.32,-544.94"/>
<polygon fill="black" stroke="black" points="510.12,-547.94 517.34,-540.19 506.86,-541.75 510.12,-547.94"/>
</g>
<!-- tfest -->
<g id="node28" class="node">
<title>tfest</title>
<g id="a_node28"><a xlink:href="group_mrpt_tfest_grp.html" xlink:title="mrpt&#45;tfest">
<polygon fill="#d0d0d0" stroke="black" points="470.5,-540 381.5,-540 381.5,-504 470.5,-504 470.5,-540"/>
<text text-anchor="middle" x="426" y="-518.3" font-family="Times,serif" font-size="14.00">mrpt&#45;tfest</text>
</a>
</g>
</g>
<!-- obs&#45;&gt;tfest -->
<g id="edge37" class="edge">
<title>obs&#45;&gt;tfest</title>
<path fill="none" stroke="black" d="M419.22,-575.7C420.22,-567.98 421.41,-558.71 422.51,-550.11"/>
<polygon fill="black" stroke="black" points="426,-550.47 423.8,-540.1 419.05,-549.58 426,-550.47"/>
</g>
<!-- rtti -->
<g id="node30" class="node">
<title>rtti</title>
<g id="a_node30"><a xlink:href="group_mrpt_rtti_grp.html" xlink:title="mrpt&#45;rtti">
<polygon fill="#d0d0d0" stroke="black" points="554,-108 474,-108 474,-72 554,-72 554,-108"/>
<text text-anchor="middle" x="514" y="-86.3" font-family="Times,serif" font-size="14.00">mrpt&#45;rtti</text>
</a>
</g>
</g>
<!-- serialization&#45;&gt;rtti -->
<g id="edge45" class="edge">
<title>serialization&#45;&gt;rtti</title>
<path fill="none" stroke="black" d="M510.99,-143.7C511.43,-135.98 511.96,-126.71 512.45,-118.11"/>
<polygon fill="black" stroke="black" points="515.95,-118.29 513.02,-108.1 508.96,-117.89 515.95,-118.29"/>
</g>
<!-- nav -->
<g id="node27" class="node">
<title>nav</title>
<g id="a_node27"><a xlink:href="group_mrpt_nav_grp.html" xlink:title="mrpt&#45;nav">
<polygon fill="#d0d0d0" stroke="black" points="816,-756 734,-756 734,-720 816,-720 816,-756"/>
<text text-anchor="middle" x="775" y="-734.3" font-family="Times,serif" font-size="14.00">mrpt&#45;nav</text>
</a>
</g>
</g>
<!-- nav&#45;&gt;maps -->
<g id="edge35" class="edge">
<title>nav&#45;&gt;maps</title>
<path fill="none" stroke="black" d="M733.91,-723.17C702.52,-712.61 658.9,-697.93 624.12,-686.22"/>
<polygon fill="black" stroke="black" points="625.15,-682.88 614.56,-683.01 622.92,-689.51 625.15,-682.88"/>
</g>
<!-- nav&#45;&gt;kinematics -->
<g id="edge34" class="edge">
<title>nav&#45;&gt;kinematics</title>
<path fill="none" stroke="black" d="M769.21,-719.87C760.99,-695.56 745.87,-650.82 736.13,-622.01"/>
<polygon fill="black" stroke="black" points="739.33,-620.54 732.81,-612.19 732.7,-622.78 739.33,-620.54"/>
</g>
<!-- tfest&#45;&gt;poses -->
<g id="edge50" class="edge">
<title>tfest&#45;&gt;poses</title>
<path fill="none" stroke="black" d="M444.79,-503.7C454.17,-495.05 465.68,-484.45 475.91,-475.03"/>
<polygon fill="black" stroke="black" points="478.45,-477.45 483.43,-468.1 473.7,-472.3 478.45,-477.45"/>
</g>
<!-- poses&#45;&gt;bayes -->
<g id="edge40" class="edge">
<title>poses&#45;&gt;bayes</title>
<path fill="none" stroke="black" d="M502,-431.7C502,-423.98 502,-414.71 502,-406.11"/>
<polygon fill="black" stroke="black" points="505.5,-406.1 502,-396.1 498.5,-406.1 505.5,-406.1"/>
</g>
<!-- rtti&#45;&gt;core -->
<g id="edge41" class="edge">
<title>rtti&#45;&gt;core</title>
<path fill="none" stroke="black" d="M515.24,-71.7C515.79,-63.98 516.45,-54.71 517.06,-46.11"/>
<polygon fill="black" stroke="black" points="520.56,-46.33 517.78,-36.1 513.57,-45.83 520.56,-46.33"/>
</g>
<!-- rtti&#45;&gt;typemeta -->
<g id="edge42" class="edge">
<title>rtti&#45;&gt;typemeta</title>
<path fill="none" stroke="black" d="M548.98,-71.88C568.2,-62.47 592.23,-50.71 612.74,-40.67"/>
<polygon fill="black" stroke="black" points="614.44,-43.73 621.88,-36.19 611.36,-37.44 614.44,-43.73"/>
</g>
<!-- ros1bridge -->
<g id="node31" class="node">
<title>ros1bridge</title>
<g id="a_node31"><a xlink:href="group_mrpt_ros1bridge_grp.html" xlink:title="mrpt&#45;ros1bridge">
<polygon fill="#d0d0d0" stroke="black" points="678,-756 544,-756 544,-720 678,-720 678,-756"/>
<text text-anchor="middle" x="611" y="-734.3" font-family="Times,serif" font-size="14.00">mrpt&#45;ros1bridge</text>
</a>
</g>
</g>
<!-- ros1bridge&#45;&gt;maps -->
<g id="edge43" class="edge">
<title>ros1bridge&#45;&gt;maps</title>
<path fill="none" stroke="black" d="M600.12,-719.7C595.01,-711.56 588.8,-701.69 583.16,-692.7"/>
<polygon fill="black" stroke="black" points="586.04,-690.71 577.75,-684.1 580.11,-694.43 586.04,-690.71"/>
</g>
<!-- ros2bridge -->
<g id="node32" class="node">
<title>ros2bridge</title>
<g id="a_node32"><a xlink:href="group_mrpt_ros2bridge_grp.html" xlink:title="mrpt&#45;ros2bridge">
<polygon fill="#d0d0d0" stroke="black" points="526,-756 392,-756 392,-720 526,-720 526,-756"/>
<text text-anchor="middle" x="459" y="-734.3" font-family="Times,serif" font-size="14.00">mrpt&#45;ros2bridge</text>
</a>
</g>
</g>
<!-- ros2bridge&#45;&gt;maps -->
<g id="edge44" class="edge">
<title>ros2bridge&#45;&gt;maps</title>
<path fill="none" stroke="black" d="M485.42,-719.88C499.41,-710.81 516.78,-699.55 531.89,-689.76"/>
<polygon fill="black" stroke="black" points="533.99,-692.57 540.48,-684.19 530.18,-686.69 533.99,-692.57"/>
</g>
<!-- topography -->
<g id="node33" class="node">
<title>topography</title>
<g id="a_node33"><a xlink:href="group_mrpt_topography_grp.html" xlink:title="mrpt&#45;topography">
<polygon fill="#d0d0d0" stroke="black" points="297,-684 159,-684 159,-648 297,-648 297,-684"/>
<text text-anchor="middle" x="228" y="-662.3" font-family="Times,serif" font-size="14.00">mrpt&#45;topography</text>
</a>
</g>
</g>
<!-- topography&#45;&gt;obs -->
<g id="edge51" class="edge">
<title>topography&#45;&gt;obs</title>
<path fill="none" stroke="black" d="M274.23,-647.88C302.32,-637.48 338.17,-624.2 366.92,-613.55"/>
<polygon fill="black" stroke="black" points="368.21,-616.8 376.38,-610.05 365.78,-610.24 368.21,-616.8"/>
</g>
<!-- visionlgpl -->
<g id="node34" class="node">
<title>visionlgpl</title>
<g id="a_node34"><a xlink:href="group_mrpt_vision_lgpl_grp.html" xlink:title="mrpt&#45;vision&#45;lgpl">
<polygon fill="#d0d0d0" stroke="black" points="130,-756 0,-756 0,-720 130,-720 130,-756"/>
<text text-anchor="middle" x="65" y="-734.3" font-family="Times,serif" font-size="14.00">mrpt&#45;vision&#45;lgpl</text>
</a>
</g>
</g>
<!-- visionlgpl&#45;&gt;vision -->
<g id="edge53" class="edge">
<title>visionlgpl&#45;&gt;vision</title>
<path fill="none" stroke="black" d="M130.36,-721.93C133.28,-721.28 136.17,-720.63 139,-720 210.07,-704.18 230.73,-702.78 304.89,-684.2"/>
<polygon fill="black" stroke="black" points="305.87,-687.56 314.71,-681.71 304.15,-680.77 305.87,-687.56"/>
</g>
</g>
</svg>
