/* XPM */
static const char * ArrowLeft2_xpm[] = {
"32 32 282 2",
"  	c None",
". 	c #F06161",
"+ 	c #F48787",
"@ 	c #F48686",
"# 	c #F48585",
"$ 	c #ED4848",
"% 	c #DE1313",
"& 	c #F76A6A",
"* 	c #FFC2C2",
"= 	c #FFCFCF",
"- 	c #FFCECE",
"; 	c #FEB1B1",
"> 	c #F14A4A",
", 	c #E31F1F",
"' 	c #FA7B7B",
") 	c #FFC1C1",
"! 	c #FFC4C4",
"~ 	c #FFC3C3",
"{ 	c #FFC5C5",
"] 	c #FFB7B7",
"^ 	c #F65D5D",
"/ 	c #EA3030",
"( 	c #FB8989",
"_ 	c #FFBCBC",
": 	c #FFD5D5",
"< 	c #FFE2E2",
"[ 	c #FFBABA",
"} 	c #FFBBBB",
"| 	c #FFCBCB",
"1 	c #FFE4E4",
"2 	c #FFCCCC",
"3 	c #FFB6B6",
"4 	c #F77373",
"5 	c #E51E1E",
"6 	c #EF3A3A",
"7 	c #FE9595",
"8 	c #FFD6D6",
"9 	c #FFFBFB",
"0 	c #FFFFFF",
"a 	c #FFEBEB",
"b 	c #FFBEBE",
"c 	c #FFB1B1",
"d 	c #FFB2B2",
"e 	c #FFC9C9",
"f 	c #FFF5F5",
"g 	c #FFF4F4",
"h 	c #FFB3B3",
"i 	c #FC8181",
"j 	c #EA2828",
"k 	c #F13F3F",
"l 	c #FF9A9A",
"m 	c #FFABAB",
"n 	c #FDBBBB",
"o 	c #FEF6F6",
"p 	c #FFEEEE",
"q 	c #FFB9B9",
"r 	c #FFA8A8",
"s 	c #FFC6C6",
"t 	c #FFF7F7",
"u 	c #FDE9E9",
"v 	c #FEAFAF",
"w 	c #FE8C8C",
"x 	c #EA2C2C",
"y 	c #CC0000",
"z 	c #FA5F5F",
"A 	c #FFA4A4",
"B 	c #FFA0A0",
"C 	c #FDA2A2",
"D 	c #F9BFBF",
"E 	c #FCF0F0",
"F 	c #FFECEC",
"G 	c #FFBDBD",
"H 	c #FFC8C8",
"I 	c #FAE4E4",
"J 	c #F9B4B4",
"K 	c #FEA0A0",
"L 	c #FFA1A1",
"M 	c #FF9B9B",
"N 	c #F53333",
"O 	c #CB0000",
"P 	c #FB5858",
"Q 	c #FF9797",
"R 	c #FE9696",
"S 	c #F7ADAD",
"T 	c #FBECEC",
"U 	c #FFF8F8",
"V 	c #F9DDDD",
"W 	c #F9A4A4",
"X 	c #FF9999",
"Y 	c #FF8B8B",
"Z 	c #FF4040",
"` 	c #F60303",
" .	c #FC5353",
"..	c #FF9292",
"+.	c #FF8F8F",
"@.	c #FF9090",
"#.	c #FE9191",
"$.	c #FBEDED",
"%.	c #FFFEFE",
"&.	c #F8DEDE",
"*.	c #F9A2A2",
"=.	c #FF9696",
"-.	c #FF7676",
";.	c #FF2C2C",
">.	c #FF0404",
",.	c #F70101",
"'.	c #CE0000",
").	c #FC4D4D",
"!.	c #FF8888",
"~.	c #FF8787",
"{.	c #FF8A8A",
"].	c #FF8C8C",
"^.	c #FF8E8E",
"/.	c #FE8E8E",
"(.	c #FAAFAF",
"_.	c #FCE8E8",
":.	c #FAA1A1",
"<.	c #FF7878",
"[.	c #FF5050",
"}.	c #FF2323",
"|.	c #FF0E0E",
"1.	c #FF0B0B",
"2.	c #F90606",
"3.	c #D00000",
"4.	c #FC4B4B",
"5.	c #FF8383",
"6.	c #FF8686",
"7.	c #FF8989",
"8.	c #FF9C9C",
"9.	c #FFDDDD",
"0.	c #FF5B5B",
"a.	c #FF2F2F",
"b.	c #FF1E1E",
"c.	c #FF1919",
"d.	c #FF1313",
"e.	c #FA0C0C",
"f.	c #CA0505",
"g.	c #D50101",
"h.	c #FD3030",
"i.	c #FF5D5D",
"j.	c #FF6B6B",
"k.	c #FF7777",
"l.	c #FF7C7C",
"m.	c #FF9191",
"n.	c #FFDBDB",
"o.	c #FFFDFD",
"p.	c #FF3A3A",
"q.	c #FF2929",
"r.	c #FF2222",
"s.	c #FF1B1B",
"t.	c #FB1212",
"u.	c #CC0707",
"v.	c #DA0404",
"w.	c #FE0A0A",
"x.	c #FF1414",
"y.	c #FF2121",
"z.	c #FF3030",
"A.	c #FF6A6A",
"B.	c #FFD7D7",
"C.	c #FFF2F2",
"D.	c #FF5252",
"E.	c #FF3434",
"F.	c #FF2424",
"G.	c #FC1B1B",
"H.	c #CE0C0C",
"I.	c #D50909",
"J.	c #FF1818",
"K.	c #FF1F1F",
"L.	c #FE4D4D",
"M.	c #FEDEDE",
"N.	c #FF8282",
"O.	c #FF5C5C",
"P.	c #FFF6F6",
"Q.	c #FEC3C3",
"R.	c #FE4A4A",
"S.	c #FF3636",
"T.	c #FF2E2E",
"U.	c #F92727",
"V.	c #C91313",
"W.	c #B10202",
"X.	c #DD1414",
"Y.	c #FD2424",
"Z.	c #FF2828",
"`.	c #FB3E3E",
" +	c #F8ABAB",
".+	c #FFFCFC",
"++	c #FFE3E3",
"@+	c #FF8585",
"#+	c #FF7373",
"$+	c #FF6C6C",
"%+	c #FE9797",
"&+	c #FCF1F1",
"*+	c #F08E8E",
"=+	c #FC4C4C",
"-+	c #FF4141",
";+	c #FD3D3D",
">+	c #D62020",
",+	c #A50404",
"'+	c #BB0303",
")+	c #D81818",
"!+	c #F73636",
"~+	c #FF3D3D",
"{+	c #FB4848",
"]+	c #FB9292",
"^+	c #FF7D7D",
"/+	c #FF7272",
"(+	c #FF8080",
"_+	c #FE7C7C",
":+	c #FC9191",
"<+	c #FA5C5C",
"[+	c #FF5A5A",
"}+	c #F64E4E",
"|+	c #D52323",
"1+	c #B20404",
"2+	c #9E0000",
"3+	c #C00000",
"4+	c #D31717",
"5+	c #F64848",
"6+	c #FF5555",
"7+	c #FE5656",
"8+	c #FE6161",
"9+	c #FF9D9D",
"0+	c #FF9E9E",
"a+	c #F97373",
"b+	c #FD7676",
"c+	c #FF7474",
"d+	c #F46060",
"e+	c #D01E1E",
"f+	c #B80000",
"g+	c #C60000",
"h+	c #D81C1C",
"i+	c #F65C5C",
"j+	c #FF6D6D",
"k+	c #FF9393",
"l+	c #FFAAAA",
"m+	c #FFB0B0",
"n+	c #FFACAC",
"o+	c #FFA3A3",
"p+	c #FF9898",
"q+	c #F67777",
"r+	c #D52121",
"s+	c #BD0000",
"t+	c #C70000",
"u+	c #DC1616",
"v+	c #F05757",
"w+	c #FD8B8B",
"x+	c #FE9B9B",
"y+	c #FEA8A8",
"z+	c #FEB5B5",
"A+	c #FEBFBF",
"B+	c #FEC5C5",
"C+	c #FEC1C1",
"D+	c #FEB8B8",
"E+	c #FEAAAA",
"F+	c #F06E6E",
"G+	c #D91D1D",
"H+	c #CB0202",
"I+	c #DE0909",
"J+	c #E52727",
"K+	c #E72F2F",
"L+	c #E83232",
"M+	c #E83535",
"N+	c #E93737",
"O+	c #E83838",
"P+	c #E73838",
"Q+	c #E73737",
"R+	c #E53636",
"S+	c #E32F2F",
"T+	c #DB0B0B",
"U+	c #C40000",
"V+	c #C80C0C",
"W+	c #E10404",
"X+	c #E30303",
"Y+	c #E40404",
"Z+	c #E50505",
"`+	c #E50404",
" @	c #E50202",
".@	c #E40101",
"+@	c #E30000",
"@@	c #E10000",
"#@	c #DF0000",
"$@	c #C50000",
"                                                                ",
"                                                                ",
"                                                                ",
"                                                                ",
"                      . + @ @ @ @ @ @ # $                       ",
"                  % & * = - - - - - - = ; >                     ",
"                , ' ) ! ~ ! ! ! ! ! ! ~ { ] ^                   ",
"              / ( _ : < ~ [ } } } } [ | 1 2 3 4 5               ",
"            6 7 ] 8 9 0 a b c d d c e f 0 g e h i j             ",
"          k l m n o 0 0 0 p q r r s t 0 0 0 u v m w x           ",
"        y z A B C D E 0 0 0 F G H f 0 0 0 I J K L M N           ",
"        O P l Q Q R S T 0 0 0 U 9 0 0 0 V W X M Y Z `           ",
"        O  ...+.@...#.S $.0 0 0 0 0 %.&.*.Q =.-.;.>.,.          ",
"        '.).!.~.{.].^./.(.o 0 0 0 0 _.:.@.<.[.}.|.1.2.          ",
"        3.4.5.5.6.7.{.8.9.%.0 0 0 0 9 { 0.a.}.b.c.d.e.f.        ",
"        g.h.i.j.k.l.m.n.0 0 0 9 o.0 0 9 8.p.a.q.r.s.t.u.        ",
"        v.w.x.y.z.A.B.0 0 0 < 7.8.C.0 0 U h D.E.;.F.G.H.        ",
"        I.t.J.K.L.M.0 0 0 a N.O.O.X P.0 0 0 Q.R.S.T.U.V.        ",
"        W.X.Y.Z.`. +.+0 ++@+A.#+-.$+%+C.0 &+*+=+-+;+>+,+        ",
"          '+)+!+~+{+]+} ^+/+(+6.7.{._+:+D @ <+[+}+|+1+          ",
"          2+3+4+5+6+7+8+<.6.m.X 9+0+M w a+b+c+d+e+f+            ",
"              g+h+i+j+k.6.k+B l+m+c n+o+p+^.q+r+s+              ",
"                t+u+v+w+x+y+z+A+B+B+C+D+E+F+G+s+                ",
"                  H+I+J+K+L+M+N+O+P+Q+R+S+T+U+                  ",
"                    V+W+X+Y+Z+`+ @.@+@@@#@$@                    ",
"                                                                ",
"                                                                ",
"                                                                ",
"                                                                ",
"                                                                ",
"                                                                ",
"                                                                "};
