/* XPM */
static const  char * Delivery_Truck_xpm[] = {
"32 32 14 1",
" 	c None",
".	c #000000",
"+	c #996533",
"@	c #663200",
"#	c #FD9800",
"$	c #323100",
"%	c #FD0000",
"&	c #999833",
"*	c #444444",
"=	c #222222",
"-	c #555555",
";	c #777777",
">	c #FFFFFF",
",	c #BBBBBB",
"                                ",
"    ...........                 ",
"   .+++++...++@.                ",
"   .+@...+#$..$.                ",
"   .+..+@@@+@$..                ",
"   ..+@@@+@@++@$..              ",
" ..+@@@+@@++@@++@$..            ",
".#@@@+@@++@@++@@++@$..          ",
".++@@@++@@++@@++@@++@$..        ",
".@@++@@@++@@++@@++@@++@$..      ",
".@@@@++@@@++@@++@@++@@+@@$.     ",
".@@@@@@++@@@++@@++@@+@@@$%.     ",
".@&@@@@@@++@@@++@@+@@@$$$$.     ",
".@&@&@@@@@@++@@@+@@@$$$$$$.     ",
".@&&&@@@@@@@@++@@@$$$$$$..$.    ",
".@@&&@&@@@@@@@@++%$$$$..**.$.   ",
".@@&@@@&&@@@@..@@$$$..*=-;.$.   ",
".@@@@@@@@&&@@.*..$$.=*-*-;;.$.  ",
".@@@@@@@@@@@@.**.@$.;;;=*--.$$. ",
".$@.@@@@@@@@@.*-*.@$.;-==..$$$.-",
" ....@@@@@@@@.*;-.@$.**..$$$=-. ",
"  .>.$@@@@@@@...;.@@$..$$$..-;.-",
"  .>...$$@@@@.$@..@@@$$$....;,. ",
"  .......$$@@..@@.@@@$=-.......-",
"   ....  ..$$@@.@.@@@.-;....;;. ",
"           ....@..@%@.;,..;;..  ",
"            .>.$$@@%@...;;..    ",
"            .>...$$@@.;;..      ",
"            .......$$$..        ",
"             ....  ...          ",
"                                ",
"                                "};
