/* XPM */
static const char * Exec_xpm[] = {
"32 32 177 2",
"  	c None",
". 	c #FBFBFB",
"+ 	c #F9F9F9",
"@ 	c #F8F8F8",
"# 	c #F6F6F6",
"$ 	c #F7F7F7",
"% 	c #F5F5F6",
"& 	c #EFEFEF",
"* 	c #E8E8E8",
"= 	c #D9D9D9",
"- 	c #C5C5C5",
"; 	c #F2F3F5",
"> 	c #EEEEF2",
", 	c #ECECF0",
"' 	c #EDEEF1",
") 	c #EBECEF",
"! 	c #ECECEF",
"~ 	c #ECECEE",
"{ 	c #E8E8E9",
"] 	c #BEBEBE",
"^ 	c #E7E7E8",
"/ 	c #E6E7EB",
"( 	c #EFF0F3",
"_ 	c #F9F9FA",
": 	c #F4F4F4",
"< 	c #F2F2F2",
"[ 	c #F0F0F1",
"} 	c #EDEDEE",
"| 	c #E7E8EA",
"1 	c #E4E5E8",
"2 	c #DADADB",
"3 	c #C3C3C3",
"4 	c #E6E6E5",
"5 	c #DEDEE1",
"6 	c #D3D5DA",
"7 	c #E5E6E8",
"8 	c #EDEDED",
"9 	c #ECECEC",
"0 	c #EBEBEB",
"a 	c #E7E7E7",
"b 	c #E6E6E6",
"c 	c #E2E2E3",
"d 	c #D2D3D5",
"e 	c #C1C1C3",
"f 	c #C6C6C6",
"g 	c #A5A5A5",
"h 	c #AAAAAA",
"i 	c #D5D5D6",
"j 	c #C0C1C8",
"k 	c #D9D9DB",
"l 	c #E1E1E0",
"m 	c #DFDFDF",
"n 	c #D0D0D0",
"o 	c #C9C9CA",
"p 	c #C3C3C4",
"q 	c #BFC0C1",
"r 	c #C5C5C6",
"s 	c #CDCDCD",
"t 	c #D3D3D3",
"u 	c #D4D4D4",
"v 	c #C4C4C4",
"w 	c #B6B6B8",
"x 	c #B5B6B7",
"y 	c #A8A8A8",
"z 	c #737373",
"A 	c #B7B7B7",
"B 	c #BDBDC1",
"C 	c #C4C5C8",
"D 	c #D2D2D2",
"E 	c #D1D1D1",
"F 	c #BFBFBF",
"G 	c #B0B0B3",
"H 	c #9E9F9F",
"I 	c #9C9C9D",
"J 	c #A2A2A4",
"K 	c #AEAEAF",
"L 	c #B8B8B8",
"M 	c #BCBCBC",
"N 	c #B5B5B5",
"O 	c #A1A1A1",
"P 	c #C8C8C8",
"Q 	c #AEAFB2",
"R 	c #C2C2C2",
"S 	c #BEBEBF",
"T 	c #BBBCBD",
"U 	c #838383",
"V 	c #676766",
"W 	c #7E7E7E",
"X 	c #ABABAC",
"Y 	c #B4B4B4",
"Z 	c #B0B0B0",
"` 	c #ADADAD",
" .	c #ACACAC",
"..	c #9E9E9E",
"+.	c #9D9D9D",
"@.	c #AFAFAF",
"#.	c #BDBDBD",
"$.	c #A8A9AA",
"%.	c #B9B9B9",
"&.	c #CECECE",
"*.	c #D0D0D1",
"=.	c #C0C0C1",
"-.	c #A3A3A3",
";.	c #A2A2A2",
">.	c #8E8E8E",
",.	c #979797",
"'.	c #999999",
").	c #7D7D7D",
"!.	c #878787",
"~.	c #A0A0A0",
"{.	c #ACACAD",
"].	c #BABABA",
"^.	c #CFCFCF",
"/.	c #E5E5E5",
"(.	c #F2F2F3",
"_.	c #DCDCDD",
":.	c #9A9A9A",
"<.	c #808080",
"[.	c #989898",
"}.	c #8D8D8D",
"|.	c #6C6C6C",
"1.	c #A4A4A4",
"2.	c #8F8F90",
"3.	c #D8D8D8",
"4.	c #E6E6E7",
"5.	c #E4E4E5",
"6.	c #DBDBDD",
"7.	c #CFCFD1",
"8.	c #BABABB",
"9.	c #9F9F9F",
"0.	c #929292",
"a.	c #8F8F8F",
"b.	c #787878",
"c.	c #7A7A7B",
"d.	c #8C8C8C",
"e.	c #A7A7A7",
"f.	c #909191",
"g.	c #AFAFB0",
"h.	c #C4C5C5",
"i.	c #D6D6D6",
"j.	c #C1C1C2",
"k.	c #B2B2B2",
"l.	c #959595",
"m.	c #858585",
"n.	c #6B6B6B",
"o.	c #909090",
"p.	c #939393",
"q.	c #7B7B7B",
"r.	c #969697",
"s.	c #A7A7A8",
"t.	c #BBBBBB",
"u.	c #B9BABA",
"v.	c #A8A8A9",
"w.	c #919192",
"x.	c #757576",
"y.	c #616162",
"z.	c #707070",
"A.	c #767676",
"B.	c #757575",
"C.	c #ABABAB",
"D.	c #9C9C9C",
"E.	c #7C7C7C",
"F.	c #818181",
"G.	c #4B4B4B",
"H.	c #666666",
"I.	c #949494",
"J.	c #8A8A8A",
"K.	c #727272",
"L.	c #565656",
"M.	c #494949",
"N.	c #404040",
"O.	c #464646",
"P.	c #656565",
"Q.	c #474747",
"R.	c #3E3E3E",
"S.	c #555555",
"T.	c #515151",
"                                                                ",
"                                                                ",
"                                                                ",
"                                                                ",
"                                                                ",
"                                                                ",
"                                                                ",
"                                  . +                           ",
"                          @     # $ % &     * =                 ",
"                        - # % ; > , ' ) ! ~ { ]                 ",
"                        ^ / ( _ _ : < [ } | 1 2 3               ",
"                  = 4 5 6 7 @ . : 8 9 0 a b c d e f 3 g         ",
"                  h i j k l m n o p q r s t u v w x y z         ",
"                  A B C D E F x G H I J K L M A N h O           ",
"                P 3 Q R v f S T U V   W X Y Z `  ...+.g y       ",
"              @.L #.$.%.#.3 &.*.        =.v  .-.;.>.,.g '.      ",
"              ).!.` ~.{.].R ^./.& : (.^ _.F +.:.,.<.[.}.|.      ",
"                !.1...2.K F P 3.4.5.6.7.8.9.0.a.b.c.d.).        ",
"                y e.-...f.g.h.^.i.^.j.k.;.l.m.n.z o.}.p.        ",
"                b.q.b.o.O r.s.t.r p u.v.w.x.y.z.d.q.A.A.        ",
"                      B...O :.;.X C.D.d.U E.W F.W G.            ",
"                        U E.H.|.B.o.I.J.K.H.|.W |.              ",
"                        L.M.  N.O.P.J.b.Q.  R.S.G.              ",
"                                    T.M.                        ",
"                                                                ",
"                                                                ",
"                                                                ",
"                                                                ",
"                                                                ",
"                                                                ",
"                                                                ",
"                                                                "};
