/* XPM */
static const char * file_save_xpm[] = {
"32 32 158 2",
"  	c None",
". 	c #373737",
"+ 	c #5B5B5B",
"@ 	c #676767",
"# 	c #686868",
"$ 	c #696969",
"% 	c #646464",
"& 	c #626262",
"* 	c #616161",
"= 	c #606060",
"- 	c #5C5C5C",
"; 	c #585858",
"> 	c #565656",
", 	c #545454",
"' 	c #444444",
") 	c #222222",
"! 	c #0C0C0C",
"~ 	c #6F6F6F",
"{ 	c #C3C3C3",
"] 	c #E9E9E9",
"^ 	c #EBEBEB",
"/ 	c #EDEDED",
"( 	c #EEEEEE",
"_ 	c #ECECEC",
": 	c #E7E7E7",
"< 	c #E4E4E4",
"[ 	c #E0E0E0",
"} 	c #ACACAC",
"| 	c #595959",
"1 	c #030303",
"2 	c #111111",
"3 	c #BEBEBE",
"4 	c #EAEAEA",
"5 	c #EFEFEF",
"6 	c #F0F0F0",
"7 	c #E5E5E5",
"8 	c #A8A8A8",
"9 	c #4D4D4D",
"0 	c #141414",
"a 	c #BFBFBF",
"b 	c #F1F1F1",
"c 	c #F2F2F2",
"d 	c #F3F3F3",
"e 	c #E8E8E8",
"f 	c #E6E6E6",
"g 	c #A4A4A4",
"h 	c #252525",
"i 	c #000000",
"j 	c #161616",
"k 	c #C1C1C1",
"l 	c #919191",
"m 	c #060606",
"n 	c #4E4E4E",
"o 	c #C5C5C5",
"p 	c #F4F4F4",
"q 	c #F5F5F5",
"r 	c #F7F7F7",
"s 	c #F6F6F6",
"t 	c #181818",
"u 	c #4A4A4A",
"v 	c #CBCBCB",
"w 	c #DFDFDF",
"x 	c #A0A0A0",
"y 	c #0B0B0B",
"z 	c #020202",
"A 	c #1C1C1C",
"B 	c #D0D0D0",
"C 	c #E3E3E3",
"D 	c #DEDEDE",
"E 	c #B3B3B3",
"F 	c #1A1A1A",
"G 	c #070707",
"H 	c #1E1E1E",
"I 	c #4C4C4C",
"J 	c #D5D5D5",
"K 	c #F9F9F9",
"L 	c #E1E1E1",
"M 	c #C2C2C2",
"N 	c #2B2B2B",
"O 	c #0E0E0E",
"P 	c #2E2E2E",
"Q 	c #6A6A6A",
"R 	c #6B6B6B",
"S 	c #707070",
"T 	c #737373",
"U 	c #797979",
"V 	c #767676",
"W 	c #757575",
"X 	c #6E6E6E",
"Y 	c #5E5E5E",
"Z 	c #212121",
"` 	c #292929",
" .	c #232323",
"..	c #404040",
"+.	c #656565",
"@.	c #3E3E3E",
"#.	c #262626",
"$.	c #242424",
"%.	c #1F1F1F",
"&.	c #2F2F2F",
"*.	c #333333",
"=.	c #313131",
"-.	c #282828",
";.	c #7C7C7C",
">.	c #B2B2B2",
",.	c #888888",
"'.	c #8A8A8A",
").	c #BDBDBD",
"!.	c #D9D9D9",
"~.	c #DBDBDB",
"{.	c #E2E2E2",
"].	c #8B8B8B",
"^.	c #393939",
"/.	c #323232",
"(.	c #353535",
"_.	c #3D3D3D",
":.	c #383838",
"<.	c #868686",
"[.	c #8F8F8F",
"}.	c #434343",
"|.	c #464646",
"1.	c #DADADA",
"2.	c #DCDCDC",
"3.	c #4B4B4B",
"4.	c #454545",
"5.	c #898989",
"6.	c #3F3F3F",
"7.	c #9F9F9F",
"8.	c #D4D4D4",
"9.	c #D6D6D6",
"0.	c #DDDDDD",
"a.	c #D3D3D3",
"b.	c #939393",
"c.	c #525252",
"d.	c #4F4F4F",
"e.	c #5A5A5A",
"f.	c #575757",
"g.	c #A1A1A1",
"h.	c #D1D1D1",
"i.	c #CECECE",
"j.	c #A5A5A5",
"k.	c #5D5D5D",
"l.	c #BCBCBC",
"m.	c #D8D8D8",
"n.	c #C4C4C4",
"o.	c #828282",
"p.	c #7E7E7E",
"q.	c #7A7A7A",
"r.	c #494949",
"s.	c #878787",
"t.	c #A3A3A3",
"u.	c #9D9D9D",
"v.	c #979797",
"w.	c #929292",
"x.	c #8E8E8E",
"y.	c #858585",
"z.	c #818181",
"A.	c #7D7D7D",
"                                                                ",
"                                                                ",
"                                                                ",
"                                                                ",
"                                                                ",
"                                                                ",
"                                                                ",
"                . + @ # $ # % & & * = - + ; > , ' )             ",
"              ! ~ { ] ] ^ / ( ( ( / _ ^ ] : < [ } | 1           ",
"              2 @ 3 ] 4 _ ( 5 5 6 5 5 ( _ 4 : 7 8 9 1           ",
"              0 = a 4 ^ ( 6 b c d d b 6 ( _ e f g h i           ",
"              j ; k 4 ^ ( b c d d d c b 5 _ e : l m i           ",
"              j n o ^ ( b p q r r r s p c ( 4 : l 1 i           ",
"              t u v e ^ ( 6 c d d d c 6 5 ^ f w x y z           ",
"              A u B e _ 5 c p p q q p c 6 ^ C D E F G           ",
"              H I J e _ 6 d p s r K r s d / : L M N O           ",
"            j ) P & Q R ~ ~ S S T U V W T S ~ X Y Z t           ",
"            ) `  .A F ..# Q Q Q $ $ $ $ # +.u ..@.#.$.%.        ",
"            &.*.=.-.$.;.>.,.'.).!.~.w {.f e ].I n ^./.-.        ",
"            (._._.:.P <.[.}.|.g 1.2.[ < e e l ' 3.|._./.        ",
"            @.I u u 4.l 5.6.}.7.8.9.1.0.1.a.b.u c.d.u ..        ",
"            P c.e.f.f.g.b.n n g B h.h.B i.h.j.e.| | | c.        ",
"              &.k.~ W l.m.{ n.~.{.[ w w D D ).o.p.;.q.-         ",
"                  r., s.t.g.u.v.w.x.'.y.z.A.# ' ^.&.#.          ",
"                                                                ",
"                                                                ",
"                                                                ",
"                                                                ",
"                                                                ",
"                                                                ",
"                                                                ",
"                                                                "};
