/* XPM */
static const char * Folderdownloads_xpm[] = {
"32 32 66 1",
" 	c None",
".	c #CBCED0",
"+	c #C5C8CB",
"@	c #C7CACC",
"#	c #535A61",
"$	c #484F56",
"%	c #495057",
"&	c #474E55",
"*	c #92979B",
"=	c #5A6067",
"-	c #595F66",
";	c #474F56",
">	c #474E56",
",	c #8F9498",
"'	c #EBECED",
")	c #4C535A",
"!	c #FFFFFF",
"~	c #7D8287",
"{	c #8A9094",
"]	c #D9DBDD",
"^	c #D7D9DC",
"/	c #D8DADC",
"(	c #80858A",
"_	c #444B52",
":	c #84888E",
"<	c #535960",
"[	c #535A60",
"}	c #4C5259",
"|	c #575E64",
"1	c #9B9FA3",
"2	c #989DA1",
"3	c #E4E6E8",
"4	c #575E65",
"5	c #434A51",
"6	c #434A52",
"7	c #464D55",
"8	c #DCDEDF",
"9	c #4B5259",
"0	c #5D6369",
"a	c #525860",
"b	c #A3A7AB",
"c	c #A1A5A9",
"d	c #A4A8AC",
"e	c #CCCED1",
"f	c #D4D5D8",
"g	c #81878C",
"h	c #485057",
"i	c #868A8F",
"j	c #A6AAAE",
"k	c #8C9195",
"l	c #51585E",
"m	c #464C53",
"n	c #C7CBCE",
"o	c #ABADB2",
"p	c #E0E2E5",
"q	c #50575E",
"r	c #80858B",
"s	c #A8ABAF",
"t	c #B0B4B7",
"u	c #5F666C",
"v	c #CFD1D3",
"w	c #D2D4D6",
"x	c #4D555B",
"y	c #3D444C",
"z	c #464C54",
"A	c #AFB3B6",
"                                ",
"                                ",
"                                ",
"                                ",
"                                ",
"    .+++++++@                   ",
"   #$%%%%%%%&*                  ",
"   $%======-;>,                 ",
"  '%)!!!!!!!~&${]^^^^^^/        ",
"  '%)!!!!!!!!(&%%%%%%%%%_       ",
"  '%)!!!!!!!!!:<<<<<<<[}%|      ",
"  '%)!!!!!!!!!!!!!!!!!!1%$      ",
"  '%)!!!!!!!!!!!!!!!!!!2%$      ",
"  '%)!!!3456666666666667%%65[8  ",
"  '%)!!!9%%%%%%%%%%%%%%%%%%%%5  ",
"  '%)!!0%abccccccccccccccccd)%e ",
"  '%)!f%&!!!!!!!!!!!!!!!!!!gh6  ",
"  '%)!)%i!!!!!!!!!!!!!!!!!!%%j  ",
"  '%)k%_!!!!!!!!!!!!!!!!!!l%m   ",
"  '%%%%n!!!!!!!!!!!!!!!!!o%$p   ",
"  '%%%q!!!!!!!!!!!!!!!!!!%%r    ",
"  '%%%stttttttttttttttttu%5     ",
"   _%%$$$$$$$$$$$$$$$$$$%%v     ",
"   wxyyyyyyyyyyyyyyyyyyyzA      ",
"                                ",
"                                ",
"                                ",
"                                ",
"                                ",
"                                ",
"                                ",
"                                "};
