/* XPM */
static const char * Folderdownloads_xpm[] = {
"32 32 122 2",
"  	c None",
". 	c #9F9F9F",
"+ 	c #B9B9B9",
"@ 	c #8F8F8F",
"# 	c #B6B6B6",
"$ 	c #C1C1C1",
"% 	c #BBBBBB",
"& 	c #A2A2A2",
"* 	c #B0B0B0",
"= 	c #C6C6C6",
"- 	c #B4B4B4",
"; 	c #AFAFAF",
"> 	c #9D9D9D",
", 	c #A0A0A0",
"' 	c #BCBCBC",
") 	c #C7C7C7",
"! 	c #CFCFCF",
"~ 	c #C2C2C2",
"{ 	c #AEAEAE",
"] 	c #AAAAAA",
"^ 	c #9B9B9B",
"/ 	c #929292",
"( 	c #767676",
"_ 	c #DCDCDC",
": 	c #E9E9E9",
"< 	c #CBCBCB",
"[ 	c #B2B2B2",
"} 	c #DADADA",
"| 	c #D1D1D1",
"1 	c #C8C8C8",
"2 	c #C0C0C0",
"3 	c #A8A8A8",
"4 	c #797979",
"5 	c #727272",
"6 	c #737373",
"7 	c #F2F2F2",
"8 	c #FBFBFB",
"9 	c #F7F7F7",
"0 	c #F1F1F1",
"a 	c #E3E3E3",
"b 	c #E4E4E4",
"c 	c #E1E1E1",
"d 	c #D7D7D7",
"e 	c #BFBFBF",
"f 	c #B1B1B1",
"g 	c #B5B5B5",
"h 	c #979797",
"i 	c #787878",
"j 	c #FCFCFC",
"k 	c #FEFEFE",
"l 	c #F9F9F9",
"m 	c #F5F5F5",
"n 	c #EDEDED",
"o 	c #E6E6E6",
"p 	c #DFDFDF",
"q 	c #D0D0D0",
"r 	c #C3C3C3",
"s 	c #9E9E9E",
"t 	c #939393",
"u 	c #989898",
"v 	c #888888",
"w 	c #FDFDFD",
"x 	c #C4C4C4",
"y 	c #A5A5A5",
"z 	c #949494",
"A 	c #8C8C8C",
"B 	c #7A7A7A",
"C 	c #717171",
"D 	c #D9D9D9",
"E 	c #CECECE",
"F 	c #BDBDBD",
"G 	c #ADADAD",
"H 	c #9A9A9A",
"I 	c #909090",
"J 	c #8E8E8E",
"K 	c #7E7E7E",
"L 	c #707070",
"M 	c #FFFFFF",
"N 	c #D4D4D4",
"O 	c #A3A3A3",
"P 	c #999999",
"Q 	c #919191",
"R 	c #8D8D8D",
"S 	c #828282",
"T 	c #D8D8D8",
"U 	c #CACACA",
"V 	c #B7B7B7",
"W 	c #ACACAC",
"X 	c #A1A1A1",
"Y 	c #959595",
"Z 	c #8B8B8B",
"` 	c #CCCCCC",
" .	c #BEBEBE",
"..	c #D2D2D2",
"+.	c #A6A6A6",
"@.	c #777777",
"#.	c #F8F8F8",
"$.	c #FAFAFA",
"%.	c #D5D5D5",
"&.	c #A4A4A4",
"*.	c #D3D3D3",
"=.	c #E2E2E2",
"-.	c #555555",
";.	c #CDCDCD",
">.	c #E7E7E7",
",.	c #E5E5E5",
"'.	c #7D7D7D",
").	c #F4F4F4",
"!.	c #F6F6F6",
"~.	c #F0F0F0",
"{.	c #DEDEDE",
"].	c #E8E8E8",
"^.	c #DDDDDD",
"/.	c #646464",
"(.	c #EFEFEF",
"_.	c #C9C9C9",
":.	c #C5C5C5",
"<.	c #EEEEEE",
"[.	c #676767",
"}.	c #D6D6D6",
"|.	c #6B6B6B",
"1.	c #DBDBDB",
"                                                                ",
"                                                                ",
"                                                                ",
"                                                                ",
"                                        . + @                   ",
"                                      # $ % &                   ",
"                                  * = $ - * ;     > ,           ",
"                              ' ) ! ~ + - { ] ^ . / (           ",
"                + _ : <   [ ! } | 1 2 + * 3 [ 3 4 5 6           ",
"              | 7 8 9 0 a b c d ! 1 e * f g , h i ( 6           ",
"            d j k l m 0 n o p d q r ' % g s t u v i 5           ",
"            } w k l m 0 n o p d ! ' x [ y ^ z t A B C           ",
"            D k k l m 0 n o p d E F ~ G y H z I J K L           ",
"            a M k l m 0 n o p N 2 1 F G O P Q R A v S           ",
"            _ M k l m 0 n o T = ! U V W X Y @ Z I ; f           ",
"            ~ 9 k l m 0 n T ` D ! $ g 3 > / J H  .E -           ",
"              p M l m 7 a ..b d U  .* y H > + | ! +.@.          ",
"              ' #.$.m 7 d c c %.) + G &.* *.=.E Q -.            ",
"                =.8 m 0 N o p | ~ V - ;.>.,.F '.                ",
"                % ).!.~.{.].^.` ~ ! >.).^., /.                  ",
"                  _ 9 (.=.>.d *.: w 9 _.S                       ",
"                  :.).<.=.o a !.M ).g [.                        ",
"                    }.n =.9 w 8 *.P                             ",
"                    & {.=.M m + |.                              ",
"                      G 1.=.X                                   ",
"                        s                                       ",
"                                                                ",
"                                                                ",
"                                                                ",
"                                                                ",
"                                                                ",
"                                                                "};
