/* XPM */
static const char * icon_icp_xpm[] = {
"32 32 96 2",
"  	c None",
". 	c #C8CBCD",
"+ 	c #B5B8BC",
"@ 	c #B5B9BC",
"# 	c #B6B9BD",
"$ 	c #D5D7D9",
"% 	c #C6C8CB",
"& 	c #B7BABD",
"* 	c #D7D8DA",
"= 	c #898E92",
"- 	c #454C53",
"; 	c #495057",
"> 	c #434A51",
", 	c #CFD1D3",
"' 	c #9FA3A7",
") 	c #484F56",
"! 	c #414850",
"~ 	c #DBDEE0",
"{ 	c #545A61",
"] 	c #9EA2A7",
"^ 	c #5E646B",
"/ 	c #474E55",
"( 	c #85898F",
"_ 	c #9BA0A4",
": 	c #5B6268",
"< 	c #81878B",
"[ 	c #525960",
"} 	c #9B9FA2",
"| 	c #5A6067",
"1 	c #7F848A",
"2 	c #CBCED0",
"3 	c #BEC1C4",
"4 	c #E5E7E8",
"5 	c #D0D3D5",
"6 	c #BDC0C3",
"7 	c #E3E5E7",
"8 	c #5A6167",
"9 	c #41484F",
"0 	c #B0B3B6",
"a 	c #71767D",
"b 	c #3D454C",
"c 	c #A2A5AA",
"d 	c #858A8F",
"e 	c #898D93",
"f 	c #9A9FA2",
"g 	c #868B90",
"h 	c #555C63",
"i 	c #8B8F94",
"j 	c #4A5158",
"k 	c #464D54",
"l 	c #95989D",
"m 	c #595E65",
"n 	c #E3E5E6",
"o 	c #40474E",
"p 	c #AEB2B5",
"q 	c #969A9F",
"r 	c #84898E",
"s 	c #424950",
"t 	c #444B52",
"u 	c #50575E",
"v 	c #DBDDDE",
"w 	c #585F65",
"x 	c #656B71",
"y 	c #464D55",
"z 	c #8F9498",
"A 	c #DADCDE",
"B 	c #CDD0D3",
"C 	c #6C7278",
"D 	c #8A8F93",
"E 	c #B9BCC0",
"F 	c #434A52",
"G 	c #40484F",
"H 	c #757B81",
"I 	c #ABAFB2",
"J 	c #4C535A",
"K 	c #6D7378",
"L 	c #4E555C",
"M 	c #52585F",
"N 	c #6C7178",
"O 	c #8C9196",
"P 	c #3F474E",
"Q 	c #40474F",
"R 	c #AAAFB2",
"S 	c #D7D9DC",
"T 	c #7B8186",
"U 	c #4C545A",
"V 	c #424951",
"W 	c #565C63",
"X 	c #8B9095",
"Y 	c #C5C8CB",
"Z 	c #878C90",
"` 	c #5B6267",
" .	c #565D63",
"..	c #61676E",
"+.	c #94999D",
"@.	c #DBDDE0",
"                                                                ",
"                                                                ",
"                                                                ",
"                                                                ",
"      . + @ @ @ @ # $                     % @ @ @ @ @ & *       ",
"    = - ; ; ; ; ; ; > ,                 ' ) ; ; ; ; ; ; ! ~     ",
"    { ; ; ; ; ; ; ; ; ]                 ^ ; ; ; ; ; ; ; / (     ",
"    { ; ; ; ; ; ; ; ; _                 : ; ; ; ; ; ; ; / <     ",
"    { ; ; ; ; ; ; ; ; _                 : ; ; ; ; ; ; ; / <     ",
"    { ; ; ; ; ; ; ; ; _                 : ; ; ; ; ; ; ; / <     ",
"    [ ; ; ; ; ; ; ; ; }                 | ; ; ; ; ; ; ; / 1     ",
"    2 3 3 3 3 3 3 3 3 4                 5 3 3 3 3 3 3 3 6 7     ",
"                                                                ",
"    8 9 ! ! ! ! ! ! 9 0                 a ! ! ! ! ! ! ! b c     ",
"    { ; ; ; ; ; ; ; ; _                 : ; ; ; ; ; ; ; / d     ",
"    { ; ; ; ; ; ; ; ; _                 : ; ; ; ; ; ; ; / e     ",
"    { ; ; ; ; ; ; ; ; f                 8 ; ; ; ; ; ; ; / g     ",
"    h ; ; ; ; ; ; ; ; i                 j ; ; ; ; ; ; ; k l     ",
"    8 ; ; ; ; ; ; ; ; m               n o ; ; ; ; ; ; ; - p     ",
"    q k ; ; ; ; ; ; ; > 6             r ) ; ; ; ; ; ; ; s       ",
"    n t ; ; ; ; ; ; ; ; u v         + - ; ; ; ; ; ; ; ; w       ",
"      x ; ; ; ; ; ; ; ; ; y z A B C ) ; ; ; ; ; ; ; ; ) D       ",
"      E F ; ; ; ; ; ; ; ; ; ) ) ) ; ; ; ; ; ; ; ; ; ; G         ",
"        H ; ; ; ; ; ; ; ; ; ; ; ; ; ; ; ; ; ; ; ; ; ) I         ",
"          J ; ; ; ; ; ; ; ; ; ; ; ; ; ; ; ; ; ; ; ) K           ",
"            L ; ; ; ; ; ; ; ; ; ; ; ; ; ; ; ; ; ) 8             ",
"              M ; ; ; ; ; ; ; ; ; ; ; ; ; ; ; ) N               ",
"                O P ; ; ; ; ; ; ; ; ; ; ; ) Q R                 ",
"                  S T U t / ; ; ; ; k V W X                     ",
"                        Y Z `  . ...+.@.                        ",
"                                                                ",
"                                                                "};
