/* XPM */
static const char * icon_play_xpm[] = {
"32 32 298 2",
"  	c None",
". 	c #FEA800",
"+ 	c #FEAB00",
"@ 	c #FDB200",
"# 	c #EEB615",
"$ 	c #FE9200",
"% 	c #FFB200",
"& 	c #FFBB00",
"* 	c #FFC400",
"= 	c #FEC100",
"- 	c #FDBB00",
"; 	c #E3B032",
"> 	c #AAAAAA",
", 	c #ABABAB",
"' 	c #EC8320",
") 	c #FF9D00",
"! 	c #FFA600",
"~ 	c #FFAF00",
"{ 	c #FFB900",
"] 	c #FFC100",
"^ 	c #FEC900",
"/ 	c #BEBEBE",
"( 	c #C4C4C4",
"_ 	c #BFBFBF",
": 	c #AFAFAF",
"< 	c #A3A3A3",
"[ 	c #A1A1A1",
"} 	c #E38444",
"| 	c #FF8900",
"1 	c #FF9200",
"2 	c #FF9A00",
"3 	c #FFA400",
"4 	c #FFAC00",
"5 	c #FFB600",
"6 	c #FFBE00",
"7 	c #FEB600",
"8 	c #FCBA00",
"9 	c #A8A8A8",
"0 	c #BBBBBB",
"a 	c #CFCFCF",
"b 	c #E0E0E0",
"c 	c #E1E1E1",
"d 	c #D0D0D0",
"e 	c #A9A9A9",
"f 	c #909090",
"g 	c #9D9D9D",
"h 	c #EC6925",
"i 	c #FF7400",
"j 	c #FF7D00",
"k 	c #FF8500",
"l 	c #FF8F00",
"m 	c #FF9800",
"n 	c #FFA100",
"o 	c #FFAA00",
"p 	c #FFB300",
"q 	c #FEBA00",
"r 	c #ECAE15",
"s 	c #B3B3B3",
"t 	c #C6C6C6",
"u 	c #D6D6D6",
"v 	c #E3E3E3",
"w 	c #E7E7E7",
"x 	c #EAEAEA",
"y 	c #CBCBCB",
"z 	c #959595",
"A 	c #F44400",
"B 	c #FF6000",
"C 	c #FF6800",
"D 	c #FF7100",
"E 	c #FF7A00",
"F 	c #FF8300",
"G 	c #FF8C00",
"H 	c #FF9600",
"I 	c #FF9E00",
"J 	c #FFA700",
"K 	c #FFB000",
"L 	c #FEB800",
"M 	c #FEB000",
"N 	c #B8B8B8",
"O 	c #DADADA",
"P 	c #E2E2E2",
"Q 	c #CCCCCC",
"R 	c #A6A6A6",
"S 	c #848484",
"T 	c #7F7F7F",
"U 	c #7E7E7E",
"V 	c #818181",
"W 	c #EE3200",
"X 	c #FF4B00",
"Y 	c #FF5400",
"Z 	c #FF5C00",
"` 	c #FF6600",
" .	c #FF6E00",
"..	c #FF7800",
"+.	c #FF8100",
"@.	c #FF9C00",
"#.	c #FFA500",
"$.	c #FFAD00",
"%.	c #FEB300",
"&.	c #CACACA",
"*.	c #D8D8D8",
"=.	c #D9D9D9",
"-.	c #D4D4D4",
";.	c #D3D3D3",
">.	c #D1D1D1",
",.	c #BDBDBD",
"'.	c #9B9B9B",
").	c #A2A2A2",
"!.	c #E92200",
"~.	c #FF3600",
"{.	c #FF3F00",
"].	c #FF4800",
"^.	c #FF5000",
"/.	c #FF5A00",
"(.	c #FF6300",
"_.	c #FF6C00",
":.	c #FF7500",
"<.	c #FF7E00",
"[.	c #FF8600",
"}.	c #FF9000",
"|.	c #FF9900",
"1.	c #FFA200",
"2.	c #C3C3C3",
"3.	c #C9C9C9",
"4.	c #B1B1B1",
"5.	c #B6B6B6",
"6.	c #C5C5C5",
"7.	c #CDCDCD",
"8.	c #CECECE",
"9.	c #C8C8C8",
"0.	c #DF3325",
"a.	c #FF2200",
"b.	c #FF2A00",
"c.	c #FF3300",
"d.	c #FF3C00",
"e.	c #FF4600",
"f.	c #FF4E00",
"g.	c #FF5800",
"h.	c #FF6100",
"i.	c #FF6900",
"j.	c #FF7200",
"k.	c #FF7B00",
"l.	c #FE6E00",
"m.	c #FA7B01",
"n.	c #B9B9B9",
"o.	c #7C7C7C",
"p.	c #727272",
"q.	c #7A7A7A",
"r.	c #999999",
"s.	c #B7B7B7",
"t.	c #ED2724",
"u.	c #FF0C00",
"v.	c #FF1600",
"w.	c #FF1F00",
"x.	c #FF2800",
"y.	c #FF3000",
"z.	c #FF3900",
"A.	c #FF4300",
"B.	c #F84100",
"C.	c #F34E09",
"D.	c #CF6E37",
"E.	c #BABABA",
"F.	c #BCBCBC",
"G.	c #8E8E8E",
"H.	c #656565",
"I.	c #646464",
"J.	c #666666",
"K.	c #828282",
"L.	c #C2C2C2",
"M.	c #C7C7C7",
"N.	c #E62323",
"O.	c #F70000",
"P.	c #FF0100",
"Q.	c #FF0900",
"R.	c #FF1300",
"S.	c #EF1700",
"T.	c #E51800",
"U.	c #DB2B10",
"V.	c #5F4DA1",
"W.	c #786CA4",
"X.	c #95939B",
"Y.	c #929292",
"Z.	c #8A8A8A",
"`.	c #939393",
" +	c #B0B0B0",
".+	c #ACACAC",
"++	c #6D6D6D",
"@+	c #6A6A6A",
"#+	c #747474",
"$+	c #C0C0C0",
"%+	c #CB2222",
"&+	c #E20000",
"*+	c #EB0000",
"=+	c #CC0404",
"-+	c #AD2523",
";+	c #595079",
">+	c #605E67",
",+	c #767676",
"'+	c #9E9E9E",
")+	c #979797",
"!+	c #878787",
"~+	c #868686",
"{+	c #9A9A9A",
"]+	c #B5B5B5",
"^+	c #C1C1C1",
"/+	c #A24441",
"(+	c #9F2323",
"_+	c #AA2722",
":+	c #8479AC",
"<+	c #7D7D7D",
"[+	c #888888",
"}+	c #ADADAD",
"|+	c #A5A5A5",
"1+	c #D5D5D5",
"2+	c #919191",
"3+	c #A4A4A4",
"4+	c #949494",
"5+	c #989898",
"6+	c #9F9F9F",
"7+	c #D7D7D7",
"8+	c #8D8D8D",
"9+	c #DCDCDC",
"0+	c #DDDDDD",
"a+	c #DFDFDF",
"b+	c #717171",
"c+	c #5D5D5D",
"d+	c #4E4E4E",
"e+	c #4B4B4B",
"f+	c #626262",
"g+	c #D2D2D2",
"h+	c #B2B2B2",
"i+	c #6F6F6F",
"j+	c #545454",
"k+	c #525252",
"l+	c #565656",
"m+	c #595959",
"n+	c #969696",
"o+	c #DEDEDE",
"p+	c #A7A7A7",
"q+	c #E4E4E4",
"r+	c #4C4C4C",
"s+	c #434343",
"t+	c #464646",
"u+	c #474747",
"v+	c #4D4D4D",
"w+	c #6B6B6B",
"x+	c #ECECEC",
"y+	c #484848",
"z+	c #424242",
"A+	c #3F3F3F",
"B+	c #414141",
"C+	c #585858",
"D+	c #B4B4B4",
"E+	c #8C8C8C",
"F+	c #E8E8E8",
"G+	c #5C5C5C",
"H+	c #222222",
"I+	c #1B1B1B",
"J+	c #1D1D1D",
"K+	c #343434",
"L+	c #F4F4F4",
"M+	c #383838",
"N+	c #141414",
"O+	c #232323",
"P+	c #505050",
"Q+	c #8B8B8B",
"R+	c #E9E9E9",
"S+	c #6E6E6E",
"T+	c #787878",
"U+	c #575757",
"V+	c #555555",
"W+	c #E6E6E6",
"X+	c #F6F6F6",
"Y+	c #838383",
"Z+	c #606060",
"`+	c #777777",
" @	c #EBEBEB",
".@	c #EEEEEE",
"+@	c #F5F5F5",
"@@	c #F0F0F0",
"#@	c #E5E5E5",
"$@	c #5F5F5F",
"%@	c #5E5E5E",
"&@	c #F1F1F1",
"*@	c #EFEFEF",
"=@	c #616161",
"-@	c #686868",
";@	c #DBDBDB",
">@	c #AEAEAE",
",@	c #5B5B5B",
"'@	c #808080",
")@	c #5A5A5A",
"!@	c #696969",
"~@	c #515151",
"{@	c #4A4A4A",
"]@	c #454545",
"^@	c #494949",
"/@	c #444444",
"                                  . + @ #                       ",
"                                  $ % & * = - ;                 ",
"                            > ,   ' ) ! ~ { ] ^ -               ",
"                    / ( _ : < [ > } | 1 2 3 4 5 6 7 8           ",
"              9 0 a b c d e f   g h i j k l m n o p & q r       ",
"          s t u v w x y z         A B C D E F G H I J K L M     ",
"        N d O b v c P Q R S T U V W X Y Z `  ...+.| 1 @.#.$.%.  ",
"      s &.*.=.-.d ;.*.>.,.R g '.).!.~.{.].^./.(._.:.<.[.}.|.1.  ",
"    : 2.>.3.,.4., 5.6.7.8.&.( ( 9.0.a.b.c.d.e.f.g.h.i.j.k.l.m.  ",
"  < n.2.n.R f o.p.q.r.s.3.Q Q Q Q t.u.v.w.x.y.z.A.B.B.C.D.      ",
"  e E.F.9 G.p.H.I.J.K.e L.2.M.3.M.N.O.P.Q.R.S.T.U.V.W.X.Y.Z.    ",
"`. +,.,..+Z.++I.@+#+Y. +$+$+( 6.( %+&+*+=+-+;+>+,+f '+'+g )+    ",
"[ N L.2.,.'+!+T ~+{+]+^+( t t 6.t /+(+_+:+Y.K.<+[+g }+}+}+|+    ",
", _ M.9.M.6.^+_ ^+M.&.3.3.Q 7.7.Q y 3.3.9.t $+,.,.,.,.,.F. +    ",
".+6.7.8.7.8.a ;.1+y M.&.>.;.a 8.a >.-.7.9.&.;.>.7.&.&.y M.N     ",
").M.;.1+1+1+1+9.4.g f 2+3+L.;.u -.y  +{+4+5+6+,.d 7+1+1+7.]+    ",
"8+_ u 9+0+a+u > b+c+d+e+f+r.g+P 7+h+i+j+k+l+m+n+&.c o+9+9.p+    ",
"p.p+7.c q+x d G.r+s+t+u+v+w+M.x+d [+y+z+A+B+C+U F.v q+9+D+E+    ",
"  o., *.F+x+o+, G+H+I+J+K+i+;.L+O z M+J+N+O+P+Q+t R+P / f S+    ",
"  I.V , u x x+u , T+U+V+p., W+X+x t Y+H.I.  '+$+0+c $+f p.      ",
"  c+Z+`+> g+q+ @.@x+9+g+*..@L+L++@+@R+v R+@@F+#@9+,.E+@+$@      ",
"    %@I.w+Z.4.-.x &@@@@@&@&@&@@@&@&@@@*@@@.@a+_ 5+T+J.I.        ",
"      V+=@-@b+Y+6+_ 1+v  @.@.@*@.@ @#@;@9.>@f `+++J.,@          ",
"        V+m+m+%@w+'@`.[ , s 5.s.D+>@3+r.[+#+I.,@)@C+            ",
"          d+c+$@)@l+U+G+f+!@++S+w+I.%@C+l+m+%@$@V+              ",
"              t+d+V+)@c+%@%@c+c+%@%@%@G+C+~@{@                  ",
"                      z+]@y+y+^@y+t+/@B+                        ",
"                                                                ",
"                                                                ",
"                                                                ",
"                                                                ",
"                                                                "};
