/* XPM */
static const char * icon_animate_scans_xpm[] = {
"32 32 141 2",
"  	c None",
". 	c #515558",
"+ 	c #909194",
"@ 	c #D5D5D6",
"# 	c #54575A",
"$ 	c #181D21",
"% 	c #202428",
"& 	c #1E2226",
"* 	c #2E3236",
"= 	c #7D8082",
"- 	c #BEBFC0",
"; 	c #4D5053",
"> 	c #171B1F",
", 	c #212529",
"' 	c #1F2327",
") 	c #191D21",
"! 	c #848688",
"~ 	c #E6E7E7",
"{ 	c #BFC0C1",
"] 	c #373A3E",
"^ 	c #1B1F23",
"/ 	c #161B1F",
"( 	c #737578",
"_ 	c #E2E2E3",
": 	c #B3B4B5",
"< 	c #1F2328",
"[ 	c #1A1E22",
"} 	c #505457",
"| 	c #E7E8E8",
"1 	c #909294",
"2 	c #282D31",
"3 	c #E3E4E4",
"4 	c #32363A",
"5 	c #D4D5D6",
"6 	c #7C7E81",
"7 	c #16191E",
"8 	c #E7E7E8",
"9 	c #6F7274",
"0 	c #1D2125",
"a 	c #24272B",
"b 	c #A6A7A9",
"c 	c #EAEAEA",
"d 	c #707275",
"e 	c #22262A",
"f 	c #404347",
"g 	c #A0A2A3",
"h 	c #747679",
"i 	c #2A2E32",
"j 	c #1E2327",
"k 	c #3C4043",
"l 	c #BABBBD",
"m 	c #DDDEDF",
"n 	c #A5A6A8",
"o 	c #C8CACB",
"p 	c #8F9193",
"q 	c #262A2E",
"r 	c #33363A",
"s 	c #E2E3E3",
"t 	c #ACADAF",
"u 	c #B4B5B7",
"v 	c #A8A9AB",
"w 	c #A7A8AA",
"x 	c #B9BABB",
"y 	c #C0C1C2",
"z 	c #202529",
"A 	c #55585B",
"B 	c #EDEEEE",
"C 	c #FFFFFF",
"D 	c #E4E4E5",
"E 	c #A4A5A7",
"F 	c #B5B6B8",
"G 	c #D9D9DA",
"H 	c #CFD0D2",
"I 	c #ADAEB0",
"J 	c #ECECEC",
"K 	c #BFC0C2",
"L 	c #A2A3A5",
"M 	c #B6B7B9",
"N 	c #E3E3E4",
"O 	c #FCFCFC",
"P 	c #CECED0",
"Q 	c #AAABAD",
"R 	c #A3A4A6",
"S 	c #D6D6D8",
"T 	c #C1C2C3",
"U 	c #A0A1A3",
"V 	c #A1A2A4",
"W 	c #ADAEB1",
"X 	c #C2C3C4",
"Y 	c #B0B0B2",
"Z 	c #D9DADB",
"` 	c #C5C6C7",
" .	c #C7C8CA",
"..	c #A9AAAC",
"+.	c #E9E9EA",
"@.	c #E9E9E9",
"#.	c #939597",
"$.	c #24282C",
"%.	c #5F6265",
"&.	c #DADADB",
"*.	c #B2B3B5",
"=.	c #CDCDCF",
"-.	c #282C30",
";.	c #3A3E41",
">.	c #E7E7E7",
",.	c #35393D",
"'.	c #23272B",
").	c #4A4D50",
"!.	c #E7E7E9",
"~.	c #BBBBBD",
"{.	c #A6A8A9",
"].	c #2F3236",
"^.	c #D5D6D7",
"/.	c #787A7C",
"(.	c #1B2024",
"_.	c #C3C4C5",
":.	c #8B8D8F",
"<.	c #1C2025",
"[.	c #15191D",
"}.	c #E6E6E7",
"|.	c #D1D1D2",
"1.	c #6A6D6F",
"2.	c #171C20",
"3.	c #4A4D51",
"4.	c #7A7C7E",
"5.	c #21262A",
"6.	c #97999B",
"7.	c #E8E8E8",
"8.	c #64676A",
"9.	c #3C3F43",
"0.	c #9A9B9D",
"a.	c #686A6D",
"b.	c #292D30",
"c.	c #383B3F",
"d.	c #B7B8B9",
"e.	c #DFE0E0",
"f.	c #BBBDBD",
"g.	c #1D2126",
"h.	c #525558",
"i.	c #E9EAEA",
"j.	c #D2D3D3",
"                                                                ",
"                                                                ",
"                                                                ",
"                                                                ",
"                                . +                             ",
"                          @ # $ % & * =                         ",
"                      - ; > , , , , , ' ) ! ~                   ",
"                  { ] ^ , , , , , , , , , % / ( _               ",
"              : % < , , , , , , , , , , , , , , [ } |           ",
"          1 % , , , , , , , , , , , , , , , , , , , , 2 3       ",
"        4 % , , , , , , , , , , , , , , , , , , , , , , ' 5     ",
"        6 ) , , , , , , , , , , , , , , , , , , , , , ' 7 8     ",
"          5 9 > % , , , , , , , , , , , , , , , , 0 a b         ",
"              c d e ' , , , , , , , , , , , , [ f g             ",
"                    h i j , , , , , , , , ' k l                 ",
"            m n o       p q % , , , , e r s       t u           ",
"        m v b b b w x       y ) z & A B C C D w b b b b t       ",
"        E b b b b b b b F       G 8 C C H I E b b b b b b J     ",
"          K L b b b b b b E M N C O P Q E b b b b b n R S       ",
"              T E b b b b b b R U V n b b b b b E W @           ",
"                  X v n b b b b b b b b b b E Y Z               ",
"              `        ...n b b b b b b b I +.    @.            ",
"          #.$., , %.      &.E b b b b *.      =.-., , ;.>.      ",
"        ,.% , , , % '.).      !.b ~.      {.].& , , , , j ^.    ",
"        /.) , , , , , % (.} _.        :.].<., , , , , % [.}.    ",
"          |.1.2.% , , , , , [ 3.:.4.5.& , , , , , 0 '.6.        ",
"              7.8.e ' , , , , , , , , , , , , ^ 9.0.            ",
"                    a.b.' , , , , , , , , ' c.d.                ",
"                        :.'., , , , , e ].e.                    ",
"                            f.> % g.h.i.                        ",
"                                j.N                             ",
"                                                                "};
