/* XPM */
static const char * icon_icp_xpm[] = {
"32 32 305 2",
"  	c None",
". 	c #5576CE",
"+ 	c #6E8BD8",
"@ 	c #6586D7",
"# 	c #4A74D1",
"$ 	c #587DD3",
"% 	c #7193DC",
"& 	c #7297DF",
"* 	c #6F96DF",
"= 	c #6994DF",
"- 	c #487FD9",
"; 	c #AA7070",
"> 	c #AA6C6B",
", 	c #5A84D7",
"' 	c #7097DF",
") 	c #6F99E1",
"! 	c #6B99E2",
"~ 	c #6899E3",
"{ 	c #6298E3",
"] 	c #3777D9",
"^ 	c #0F4EC1",
"/ 	c #B67975",
"( 	c #C4908B",
"_ 	c #C68F89",
": 	c #BB776E",
"< 	c #5D8BDC",
"[ 	c #6A9CE4",
"} 	c #679CE5",
"| 	c #649DE7",
"1 	c #5E9BE7",
"2 	c #3D81DE",
"3 	c #135FD1",
"4 	c #0C4AAA",
"5 	c #BA7871",
"6 	c #C88C84",
"7 	c #CA8D83",
"8 	c #CD8D82",
"9 	c #D08E80",
"0 	c #BE7165",
"a 	c #6269A3",
"b 	c #6093E2",
"c 	c #6A9DE5",
"d 	c #669EE6",
"e 	c #62A0E8",
"f 	c #60A2EA",
"g 	c #549DEA",
"h 	c #3081E1",
"i 	c #176BD9",
"j 	c #0E55AC",
"k 	c #BA7369",
"l 	c #C78479",
"m 	c #CB8578",
"n 	c #CE8676",
"o 	c #D38674",
"p 	c #C0796F",
"q 	c #7A719A",
"r 	c #6291DB",
"s 	c #659FE7",
"t 	c #62A0E9",
"u 	c #5FA3EB",
"v 	c #5CA5ED",
"w 	c #59A7EF",
"x 	c #51A5F0",
"y 	c #2D8EEA",
"z 	c #1369BF",
"A 	c #BE7164",
"B 	c #C87D6E",
"C 	c #CC7D6B",
"D 	c #D07E69",
"E 	c #D37D66",
"F 	c #A97175",
"G 	c #6B7BB3",
"H 	c #5D96E3",
"I 	c #61A0EA",
"J 	c #5DA3EC",
"K 	c #5BA6EE",
"L 	c #57A8F3",
"M 	c #55ABF4",
"N 	c #53AEF5",
"O 	c #50B1F8",
"P 	c #4AB1F9",
"Q 	c #38A3EA",
"R 	c #912C1E",
"S 	c #B75C4D",
"T 	c #C87664",
"U 	c #CC7560",
"V 	c #D1765D",
"W 	c #D7785C",
"X 	c #C96C55",
"Y 	c #6878AF",
"Z 	c #5B9EEC",
"` 	c #5DA1EB",
" .	c #59A5EE",
"..	c #57A9F1",
"+.	c #50AAF3",
"@.	c #48ADCE",
"#.	c #46B0E7",
"$.	c #4CB6FE",
"%.	c #49B9FD",
"&.	c #47BAFF",
"*.	c #44BBFF",
"=.	c #37B7E8",
"-.	c #8D2211",
";.	c #AB351D",
">.	c #C3563A",
",.	c #D06C50",
"'.	c #D77253",
").	c #DC7452",
"!.	c #DE744F",
"~.	c #A87474",
"{.	c #5E94D5",
"].	c #54A6F2",
"^.	c #54AAF4",
"/.	c #49ABF5",
"(.	c #51B4BC",
"_.	c #90DB78",
":.	c #71D189",
"<.	c #42BBE3",
"[.	c #42BCFF",
"}.	c #40BEFF",
"|.	c #3CBEF1",
"1.	c #65CE9A",
"2.	c #8BDA63",
"3.	c #9B2407",
"4.	c #B52C0A",
"5.	c #C03812",
"6.	c #CE4A1F",
"7.	c #DA5F34",
"8.	c #E37247",
"9.	c #E87748",
"0.	c #EC7744",
"a.	c #C37962",
"b.	c #7093BE",
"c.	c #44ABE7",
"d.	c #65C39E",
"e.	c #9DE66C",
"f.	c #B2F16E",
"g.	c #ADEF68",
"h.	c #83DF75",
"i.	c #4AC8CC",
"j.	c #44C6D8",
"k.	c #73D886",
"l.	c #9DE56B",
"m.	c #A1E472",
"n.	c #91DE62",
"o.	c #75D141",
"p.	c #B82C00",
"q.	c #CD3603",
"r.	c #D44716",
"s.	c #DD4C12",
"t.	c #E7591A",
"u.	c #EF6F33",
"v.	c #F67A3D",
"w.	c #FD7E3C",
"x.	c #E47D4C",
"y.	c #91AD5F",
"z.	c #A4F050",
"A.	c #B0F559",
"B.	c #AEF459",
"C.	c #ADF359",
"D.	c #ACF257",
"E.	c #8EE85D",
"F.	c #8AE560",
"G.	c #A2EB57",
"H.	c #9DE85A",
"I.	c #98E55B",
"J.	c #94E25C",
"K.	c #72D33B",
"L.	c #2EAC08",
"M.	c #CC3A00",
"N.	c #E14403",
"O.	c #E7581A",
"P.	c #EF5812",
"Q.	c #F75706",
"R.	c #FD6C1D",
"S.	c #FF8137",
"T.	c #FF8D46",
"U.	c #EB9A42",
"V.	c #B1CD34",
"W.	c #A8F63E",
"X.	c #AEF945",
"Y.	c #ACF845",
"Z.	c #AAF646",
"`.	c #A7F445",
" +	c #A4F145",
".+	c #9EEE46",
"++	c #97EA44",
"@+	c #8DE53C",
"#+	c #7ADC2E",
"$+	c #30B30F",
"%+	c #028C00",
"&+	c #CB4200",
"*+	c #F45404",
"=+	c #F86418",
"-+	c #FD6D1E",
";+	c #FF751D",
">+	c #FF862F",
",+	c #FF9743",
"'+	c #FFA353",
")+	c #F2AC52",
"!+	c #C6CD3C",
"~+	c #ABF52C",
"{+	c #AAFE29",
"]+	c #A7FC24",
"^+	c #A0F920",
"/+	c #98F51B",
"(+	c #90F118",
"_+	c #86EC11",
":+	c #70DC14",
"<+	c #33B50F",
"[+	c #069B02",
"}+	c #008800",
"|+	c #D0550D",
"1+	c #FE6D14",
"2+	c #FF7422",
"3+	c #FF8B3C",
"4+	c #FFA049",
"5+	c #FFAE56",
"6+	c #FFBA62",
"7+	c #FFC36C",
"8+	c #F5C166",
"9+	c #BCE53A",
"0+	c #ABFF27",
"a+	c #A7FF1A",
"b+	c #9FFE09",
"c+	c #97FB00",
"d+	c #90F700",
"e+	c #7BE414",
"f+	c #36B514",
"g+	c #0EA101",
"h+	c #089000",
"i+	c #C96E28",
"j+	c #FC8A32",
"k+	c #FF8935",
"l+	c #FFA352",
"m+	c #FFC66F",
"n+	c #FFD881",
"o+	c #F9D87E",
"p+	c #D6E063",
"q+	c #BFFB58",
"r+	c #BBFF4E",
"s+	c #B5FF3D",
"t+	c #ACFF25",
"u+	c #A3FF0F",
"v+	c #8FEF1A",
"w+	c #44BE16",
"x+	c #1BA901",
"y+	c #169900",
"z+	c #AF7236",
"A+	c #F39945",
"B+	c #FF953F",
"C+	c #FFA552",
"D+	c #F6D77C",
"E+	c #DDEE83",
"F+	c #D1FD87",
"G+	c #D0FF85",
"H+	c #CBFF76",
"I+	c #C3FF62",
"J+	c #B8FE4A",
"K+	c #8BE730",
"L+	c #4AC314",
"M+	c #2AB101",
"N+	c #1F9200",
"O+	c #A1743C",
"P+	c #F3A14D",
"Q+	c #FF9037",
"R+	c #CFBE55",
"S+	c #D8FEA9",
"T+	c #E3FFB6",
"U+	c #E0FFAF",
"V+	c #D9FF9B",
"W+	c #CEFE82",
"X+	c #90E449",
"Y+	c #46C20C",
"Z+	c #37BB00",
"`+	c #299200",
" @	c #906534",
".@	c #ED9442",
"+@	c #9CB422",
"@@	c #9DE670",
"#@	c #ECFDD6",
"$@	c #EFFFD4",
"%@	c #E0FEB2",
"&@	c #A0E862",
"*@	c #53CB0D",
"=@	c #44C200",
"-@	c #339600",
";@	c #71AB0E",
">@	c #5BD309",
",@	c #99E460",
"'@	c #D6F6B8",
")@	c #9DE661",
"!@	c #5ED30C",
"~@	c #4EC200",
"{@	c #348800",
"]@	c #55BE00",
"^@	c #64DA04",
"/@	c #8CE343",
"(@	c #6BDC0E",
"_@	c #5BCB00",
":@	c #377D00",
"<@	c #5BBB01",
"[@	c #81E421",
"}@	c #68CD08",
"|@	c #579E0C",
"                                                                ",
"                                                                ",
"                                                                ",
"                                                                ",
"                                                                ",
"                                        . + @ #                 ",
"                                      $ % & * = -               ",
"                      ; >           , ' ) ! ~ { ] ^             ",
"                    / ( _ :       < ! [ } | 1 2 3 4             ",
"                  5 6 7 8 9 0 a b c d e f g h i j               ",
"                k l m n o p q r s t u v w x y z                 ",
"              A B C D E F G H I J K L M N O P Q                 ",
"          R S T U V W X Y Z `  ...+.@.#.$.%.&.*.=.              ",
"          -.;.>.,.'.).!.~.{.].^./.(._.:.<.[.}.|.1.2.            ",
"          3.4.5.6.7.8.9.0.a.b.c.d.e.f.g.h.i.j.k.l.m.n.o.        ",
"            p.q.r.s.t.u.v.w.x.y.z.A.B.C.D.E.F.G.H.I.J.K.L.      ",
"              M.N.O.P.Q.R.S.T.U.V.W.X.Y.Z.`. +.+++@+#+$+%+      ",
"                &+*+=+-+;+>+,+'+)+!+~+{+]+^+/+(+_+:+<+[+}+      ",
"                  |+1+2+3+4+5+6+7+8+9+0+a+b+c+d+e+f+g+h+        ",
"                    i+j+k+l+m+n+o+p+q+r+s+t+u+v+w+x+y+          ",
"                      z+A+B+C+D+E+F+G+H+I+J+K+L+M+N+            ",
"                        O+P+Q+R+S+T+U+V+W+X+Y+Z+`+              ",
"                           @.@+@@@#@$@%@&@*@=@-@                ",
"                              ;@>@,@'@)@!@~@{@                  ",
"                                ]@^@/@(@_@:@                    ",
"                                  <@[@}@                        ",
"                                    |@                          ",
"                                                                ",
"                                                                ",
"                                                                ",
"                                                                ",
"                                                                "};
