/* XPM */
static const char * icon_animate_scans_xpm[] = {
"32 32 287 2",
"  	c None",
". 	c #FEA800",
"+ 	c #FEAB00",
"@ 	c #FDB200",
"# 	c #EEB615",
"$ 	c #FE9200",
"% 	c #FFB200",
"& 	c #FFBB00",
"* 	c #FFC400",
"= 	c #FEC100",
"- 	c #FDBB00",
"; 	c #E3B032",
"> 	c #6F4DEC",
", 	c #6F4DED",
"' 	c #FE7B00",
") 	c #FF9D00",
"! 	c #FFA600",
"~ 	c #FFAF00",
"{ 	c #FFB900",
"] 	c #FFC100",
"^ 	c #FEC900",
"/ 	c #3F259F",
"( 	c #5335BF",
"_ 	c #714FEF",
": 	c #7653F7",
"< 	c #704DED",
"[ 	c #6F4DEB",
"} 	c #FD6600",
"| 	c #FF8900",
"1 	c #FF9200",
"2 	c #FF9A00",
"3 	c #FFA400",
"4 	c #FFAC00",
"5 	c #FFB600",
"6 	c #FFBE00",
"7 	c #FEB600",
"8 	c #FCBA00",
"9 	c #DAA744",
"0 	c #15015C",
"a 	c #331A8C",
"b 	c #6141D6",
"c 	c #704EEE",
"d 	c #F85500",
"e 	c #FF7400",
"f 	c #FF7D00",
"g 	c #FF8500",
"h 	c #FF8F00",
"i 	c #FF9800",
"j 	c #FFA100",
"k 	c #FFAA00",
"l 	c #FFB300",
"m 	c #FEBA00",
"n 	c #ECAE15",
"o 	c #190563",
"p 	c #200A6D",
"q 	c #2E1684",
"r 	c #4D30B6",
"s 	c #714FF0",
"t 	c #7754F9",
"u 	c #F44400",
"v 	c #FF6000",
"w 	c #FF6800",
"x 	c #FF7100",
"y 	c #FF7A00",
"z 	c #FF8300",
"A 	c #FF8C00",
"B 	c #FF9600",
"C 	c #FF9E00",
"D 	c #FFA700",
"E 	c #FFB000",
"F 	c #FEB800",
"G 	c #FEB000",
"H 	c #1D086A",
"I 	c #180461",
"J 	c #301887",
"K 	c #583AC7",
"L 	c #6A48E3",
"M 	c #704EEC",
"N 	c #724FF0",
"O 	c #EE3200",
"P 	c #FF4B00",
"Q 	c #FF5400",
"R 	c #FF5C00",
"S 	c #FF6600",
"T 	c #FF6E00",
"U 	c #FF7800",
"V 	c #FF8100",
"W 	c #FF9C00",
"X 	c #FFA500",
"Y 	c #FFAD00",
"Z 	c #FEB300",
"` 	c #FDAE00",
" .	c #1D0869",
"..	c #1C0768",
"+.	c #1C0767",
"@.	c #1C0868",
"#.	c #230D73",
"$.	c #452AA9",
"%.	c #6E4DEA",
"&.	c #7754F8",
"*.	c #7250F0",
"=.	c #E92200",
"-.	c #FF3600",
";.	c #FF3F00",
">.	c #FF4800",
",.	c #FF5000",
"'.	c #FF5A00",
").	c #FF6300",
"!.	c #FF6C00",
"~.	c #FF7500",
"{.	c #FF7E00",
"].	c #FF8600",
"^.	c #FF9000",
"/.	c #FF9900",
"(.	c #FFA200",
"_.	c #FE9800",
":.	c #180360",
"<.	c #32198D",
"[.	c #5939CE",
"}.	c #613FDC",
"|.	c #5C3CD4",
"1.	c #5C3BD4",
"2.	c #E31200",
"3.	c #FF2200",
"4.	c #FF2A00",
"5.	c #FF3300",
"6.	c #FF3C00",
"7.	c #FF4600",
"8.	c #FF4E00",
"9.	c #FF5800",
"0.	c #FF6100",
"a.	c #FF6900",
"b.	c #FF7200",
"c.	c #FF7B00",
"d.	c #FE6E00",
"e.	c #FA7B01",
"f.	c #1B0766",
"g.	c #1C0766",
"h.	c #291184",
"i.	c #3B1EAA",
"j.	c #3F21B2",
"k.	c #3D1FAD",
"l.	c #F50300",
"m.	c #FF0C00",
"n.	c #FF1600",
"o.	c #FF1F00",
"p.	c #FF2800",
"q.	c #FF3000",
"r.	c #FF3900",
"s.	c #FF4300",
"t.	c #F84100",
"u.	c #F84A00",
"v.	c #E96114",
"w.	c #281082",
"x.	c #381AA5",
"y.	c #3B1DAD",
"z.	c #391BA8",
"A.	c #EE0000",
"B.	c #F70000",
"C.	c #FF0100",
"D.	c #FF0900",
"E.	c #FF1300",
"F.	c #EF1700",
"G.	c #E51800",
"H.	c #E91F00",
"I.	c #391BA9",
"J.	c #291183",
"K.	c #3A1DA9",
"L.	c #3E20B1",
"M.	c #3C1EAC",
"N.	c #CE0000",
"O.	c #E20000",
"P.	c #EB0000",
"Q.	c #CF0000",
"R.	c #CC0400",
"S.	c #3C1EAD",
"T.	c #900400",
"U.	c #970000",
"V.	c #A60600",
"W.	c #3A24AF",
"X.	c #3E26B0",
"Y.	c #3C25B0",
"Z.	c #2D70D7",
"`.	c #3F20B2",
" +	c #3D1FAF",
".+	c #3D1EAE",
"++	c #3A25B0",
"@+	c #296FD5",
"#+	c #3D1FAE",
"$+	c #3D1EAD",
"%+	c #3A23AF",
"&+	c #2B1287",
"*+	c #3A1CA8",
"=+	c #2E1490",
"-+	c #2D128D",
";+	c #2E138F",
">+	c #2D138D",
",+	c #371AA1",
"'+	c #3A20AC",
")+	c #2A1186",
"!+	c #301692",
"~+	c #1D0867",
"{+	c #190660",
"]+	c #1B0765",
"^+	c #1C0765",
"/+	c #1D0868",
"(+	c #301591",
"_+	c #230C78",
":+	c #291086",
"<+	c #200C68",
"[+	c #11053C",
"}+	c #0F0434",
"|+	c #100539",
"1+	c #11053A",
"2+	c #0D032E",
"3+	c #110639",
"4+	c #2B147E",
"5+	c #3E1FB1",
"6+	c #19065D",
"7+	c #130542",
"8+	c #0B0523",
"9+	c #0A051D",
"0+	c #0B0521",
"a+	c #0B0520",
"b+	c #09031E",
"c+	c #0F0630",
"d+	c #2A157B",
"e+	c #1E086C",
"f+	c #1E086B",
"g+	c #170754",
"h+	c #0F0534",
"i+	c #0C0527",
"j+	c #0C0524",
"k+	c #0C0523",
"l+	c #0C0525",
"m+	c #11053D",
"n+	c #1B085F",
"o+	c #301590",
"p+	c #16074C",
"q+	c #14054A",
"r+	c #200973",
"s+	c #321698",
"t+	c #16074E",
"u+	c #0D0528",
"v+	c #140547",
"w+	c #1F096E",
"x+	c #311696",
"y+	c #15064B",
"z+	c #0A0421",
"A+	c #09041B",
"B+	c #0C0526",
"C+	c #200972",
"D+	c #311698",
"E+	c #17074F",
"F+	c #0E052A",
"G+	c #130546",
"H+	c #1E096D",
"I+	c #2A147B",
"J+	c #1D0E53",
"K+	c #0A041F",
"L+	c #060215",
"M+	c #09031B",
"N+	c #08031A",
"O+	c #09031C",
"P+	c #090222",
"Q+	c #11053B",
"R+	c #2B1480",
"S+	c #3F1FB5",
"T+	c #2E1785",
"U+	c #14093A",
"V+	c #0F062D",
"W+	c #120835",
"X+	c #120836",
"Y+	c #0E062B",
"Z+	c #130937",
"`+	c #2C167D",
" @	c #3619A0",
".@	c #3D1FB0",
"+@	c #391DA4",
"@@	c #321991",
"#@	c #31188D",
"$@	c #32198F",
"%@	c #31188C",
"&@	c #381CA1",
"*@	c #4120B9",
"=@	c #4121BA",
"-@	c #3E1FB2",
"                                                                ",
"                                . + @ #                         ",
"                                $ % & * = - ;                   ",
"> , > > > > > > > > > > > > > > ' ) ! ~ { ] ^ -                 ",
"/ ( _ : < [ > > > > > > > > > > } | 1 2 3 4 5 6 7 8 9           ",
"0 a b c , c > > > > > > > > > > d e f g h i j k l & m n         ",
"o p q r s t , [ > > > > > > > > u v w x y z A B C D E F G       ",
"H I 0 J K L M N c c c c c c c c O P Q R S T U V | 1 W X Y Z `   ",
" ...+.@.#.$.%.&.*.*.*.*.*.*.*.*.=.-.;.>.,.'.).!.~.{.].^./.(._.  ",
" .H H :.0 <.[.}.|.1.1.1.1.1.1.1.2.3.4.5.6.7.8.9.0.a.b.c.d.e.    ",
" . . .f.g.h.i.j.k.k.k.k.k.k.k.k.l.m.n.o.p.q.r.s.t.t.u.v.        ",
" . . .g.+.w.x.y.z.z.z.z.z.z.z.z.A.B.C.D.E.F.G.H.I.I.I.          ",
" . . .g.g.J.K.L.M.M.M.M.M.M.M.M.N.O.P.Q.R.M.M.M.M.S.M.          ",
" . . .g.g.J.K.L.M.M.M.M.M.M.M.M.T.U.V.M.M.M.M.M.M.S.W.          ",
" . . .g.g.J.K.L.M.M.M.M.M.M.M.M.M.M.M.M.M.M.M.M.M.S.X.          ",
" . . .g.g.J.K.L.M.M.M.M.M.M.M.M.M.M.M.M.M.M.M.M.M.S.Y.Z.        ",
" . . .g.g.J.K.`. + + + + + + + + + + + + + + + + +.+++@+        ",
" . . .g.g.J.K.`.#+#+#+#+#+#+#+#+#+#+#+#+#+#+#+#+#+$+%+          ",
" . . .f.g.&+#+*+=+-+;+;+;+;+;+;+;+;+;+;+;+;+;+>+=+,+'+          ",
" . . .g.g.)+K.!+~+{+]+^+^+^+^+^+^+^+^+^+^+^+]+{+/+(+ +          ",
" . . .@./+_+:+<+[+}+|+|+|+|+|+|+|+|+|+|+|+1+|+2+3+4+5+          ",
" . . .H H g.6+7+8+9+0+0+0+0+0+0+0+0+0+0+0+a+0+b+c+d+5+          ",
" . . .e+f+g+h+i+j+8+j+j+j+j+j+j+j+j+j+j+k+a+l+m+n+o+ +          ",
" . . .e+e+p+k+9+l+l+l+l+l+l+l+l+l+l+l+l+l+a+i+q+r+s+ +          ",
" . . .e+e+t+u+a+l+l+l+l+l+l+l+l+l+l+l+l+l+a+i+v+w+x+ +          ",
"   . .e+e+y+z+A+l+B+l+l+l+l+l+l+l+l+l+l+l+a+i+q+C+D+ +          ",
"     .e+e+E+F+0+l+l+l+l+l+l+l+l+l+l+l+l+l+a+i+G+H+x+ +          ",
"      .. .#.I+J+K+L+M+M+M+M+M+M+M+M+M+M+M+N+O+P+Q+R+5+          ",
"        f.-+S+T+U+V+W+X+X+X+X+X+X+X+X+X+X+X+W+Y+Z+`+5+          ",
"           @.@+@@@#@$@$@$@$@$@$@$@$@$@$@$@$@$@%@$@&@.+          ",
"            M.5+*@=@*@*@*@*@*@*@*@*@*@*@*@*@*@=@*@-@M.          ",
"                                                                "};
