/* XPM */
static const char * Qmark_xpm[] = {
"32 32 343 2",
"  	c None",
". 	c #1158AE",
"+ 	c #2568B6",
"@ 	c #3171BB",
"# 	c #2F70BA",
"$ 	c #1E62B3",
"% 	c #0E56AD",
"& 	c #3D79BF",
"* 	c #719ED0",
"= 	c #96B8DD",
"- 	c #ADC8E5",
"; 	c #B7CFE9",
"> 	c #B5CDE8",
", 	c #A7C4E3",
"' 	c #8BB0D9",
") 	c #6193CB",
"! 	c #2C6DB8",
"~ 	c #3473BC",
"{ 	c #7FA9D6",
"] 	c #B9D0E9",
"^ 	c #CADDEF",
"/ 	c #CBDDF0",
"( 	c #CADDF0",
"_ 	c #C8DBEE",
": 	c #AAC7E4",
"< 	c #6596CD",
"[ 	c #2064B4",
"} 	c #1059AF",
"| 	c #5A8FCA",
"1 	c #A5C4E3",
"2 	c #BCD4EC",
"3 	c #BBD4EC",
"4 	c #D3E3F3",
"5 	c #E9F1F9",
"6 	c #E6EFF8",
"7 	c #BCD4EB",
"8 	c #BAD2EA",
"9 	c #91B6DD",
"0 	c #3F7CC0",
"a 	c #0C56AD",
"b 	c #548CCA",
"c 	c #A6C5E5",
"d 	c #AECBE8",
"e 	c #AECCE9",
"f 	c #AFCDEA",
"g 	c #B0CEEB",
"h 	c #B5D1EC",
"i 	c #EDF4FA",
"j 	c #FFFFFF",
"k 	c #D9E7F5",
"l 	c #B0CEEA",
"m 	c #ADCBE8",
"n 	c #94B9DF",
"o 	c #3374BD",
"p 	c #3A7BC2",
"q 	c #95BAE0",
"r 	c #A1C3E5",
"s 	c #A2C5E6",
"t 	c #A4C7E8",
"u 	c #A5C9E9",
"v 	c #A7CAEA",
"w 	c #A7C9EA",
"x 	c #DAE6F4",
"y 	c #FDFEFE",
"z 	c #C4DAEF",
"A 	c #A5C9EA",
"B 	c #A6C9E9",
"C 	c #A3C6E7",
"D 	c #A1C4E6",
"E 	c #A1C3E4",
"F 	c #7DAAD8",
"G 	c #1F64B4",
"H 	c #2068B8",
"I 	c #72A4D6",
"J 	c #94BBE2",
"K 	c #95BEE3",
"L 	c #98C0E6",
"M 	c #9AC2E7",
"N 	c #9CC5E9",
"O 	c #9DC6EA",
"P 	c #A1C6E8",
"Q 	c #B4D2EB",
"R 	c #B3D2EC",
"S 	c #9DC5E9",
"T 	c #9EC7EB",
"U 	c #9CC5EA",
"V 	c #9AC3E8",
"W 	c #99C1E6",
"X 	c #96BFE5",
"Y 	c #93BCE2",
"Z 	c #91B9E0",
"` 	c #548ECB",
" .	c #3C7DC3",
"..	c #82B1DD",
"+.	c #88B5E1",
"@.	c #8BB9E3",
"#.	c #8EBCE6",
"$.	c #91BFE8",
"%.	c #93C2EA",
"&.	c #95C4EB",
"*.	c #96C5EC",
"=.	c #C2DDF4",
"-.	c #E7F1FA",
";.	c #E0EEF9",
">.	c #ACD1F0",
",.	c #95C4EC",
"'.	c #94C3EA",
").	c #92C0E9",
"!.	c #8FBEE7",
"~.	c #8DBBE4",
"{.	c #89B7E2",
"].	c #87B4DF",
"^.	c #72A5D8",
"/.	c #2164B0",
"(.	c #4C8BCB",
"_.	c #7DAFDE",
":.	c #7FB2E0",
"<.	c #82B6E4",
"[.	c #86BAE6",
"}.	c #89BDE9",
"|.	c #8CC0EB",
"1.	c #8EC3ED",
"2.	c #93C6EF",
"3.	c #E2F0FB",
"4.	c #BDDDF5",
"5.	c #8DC3ED",
"6.	c #8DC1EC",
"7.	c #8ABEEA",
"8.	c #87BBE8",
"9.	c #84B8E5",
"0.	c #80B4E2",
"a.	c #7DAFDF",
"b.	c #76A9DB",
"c.	c #3173BA",
"d.	c #3982CA",
"e.	c #5D9ED9",
"f.	c #70ACE0",
"g.	c #7AB4E5",
"h.	c #7FB8E8",
"i.	c #82BCEB",
"j.	c #85C0EE",
"k.	c #88C3F0",
"l.	c #8EC7F2",
"m.	c #E2F1FC",
"n.	c #BADDF7",
"o.	c #87C3F0",
"p.	c #86C1EF",
"q.	c #83BDEC",
"r.	c #80BAE9",
"s.	c #7CB6E6",
"t.	c #76B0E2",
"u.	c #69A6DD",
"v.	c #5296D5",
"w.	c #2870BC",
"x.	c #2B7CCA",
"y.	c #3789D3",
"z.	c #4796DA",
"A.	c #5CA6E2",
"B.	c #6DB2E9",
"C.	c #77BAED",
"D.	c #7EC0F1",
"E.	c #82C4F4",
"F.	c #89C8F6",
"G.	c #E1F1FD",
"H.	c #B7DEFA",
"I.	c #81C4F4",
"J.	c #81C2F2",
"K.	c #7BBDEF",
"L.	c #73B6EB",
"M.	c #67ADE6",
"N.	c #539FDE",
"O.	c #3E8FD6",
"P.	c #3284CF",
"Q.	c #226FBD",
"R.	c #3081CE",
"S.	c #3B8ED7",
"T.	c #4196DC",
"U.	c #499EE2",
"V.	c #53A7E8",
"W.	c #5DB0EE",
"X.	c #68B9F3",
"Y.	c #70C0F7",
"Z.	c #7BC6FA",
"`.	c #DEF1FE",
" +	c #AFDDFC",
".+	c #72C1F8",
"++	c #6DBCF5",
"@+	c #63B4F0",
"#+	c #58ABEB",
"$+	c #4EA2E5",
"%+	c #4599DF",
"&+	c #3D91D9",
"*+	c #378AD4",
"=+	c #2572C1",
"-+	c #2E7DCC",
";+	c #4094DB",
">+	c #479CE1",
",+	c #50A5E7",
"'+	c #57ADED",
")+	c #5DB4F3",
"!+	c #64BBF8",
"~+	c #6AC1FC",
"{+	c #75C8FE",
"]+	c #DCF1FF",
"^+	c #ABDEFF",
"/+	c #6AC3FD",
"(+	c #67BEFA",
"_+	c #60B8F5",
":+	c #5AB0F0",
"<+	c #53A9EA",
"[+	c #4BA0E4",
"}+	c #4397DD",
"|+	c #3D90D9",
"1+	c #226CBB",
"2+	c #2D79C9",
"3+	c #499DE1",
"4+	c #55AAEB",
"5+	c #5DB3F2",
"6+	c #6CC3FD",
"7+	c #76CAFF",
"8+	c #85D1FF",
"9+	c #E1F4FF",
"0+	c #B5E3FF",
"a+	c #79CBFF",
"b+	c #70C6FE",
"c+	c #67BFFA",
"d+	c #60B6F4",
"e+	c #58AEEE",
"f+	c #479BE0",
"g+	c #4699DF",
"h+	c #1D60AF",
"i+	c #165CB3",
"j+	c #4EA0E4",
"k+	c #52A7E8",
"l+	c #61B8F5",
"m+	c #69C0FC",
"n+	c #75C9FF",
"o+	c #83D1FF",
"p+	c #92D8FF",
"q+	c #E1F3FE",
"r+	c #BEE7FF",
"s+	c #87D3FF",
"t+	c #7CCDFF",
"u+	c #6DC4FE",
"v+	c #5CB3F2",
"w+	c #52A6E7",
"x+	c #408FD9",
"y+	c #0A438E",
"z+	c #003D94",
"A+	c #2670C4",
"B+	c #60B0ED",
"C+	c #61B6F3",
"D+	c #64BCF9",
"E+	c #6FC5FE",
"F+	c #7FCFFF",
"G+	c #91D7FF",
"H+	c #9EDDFE",
"I+	c #AFD5F0",
"J+	c #CCDFF0",
"K+	c #C5DCEF",
"L+	c #A8DBF8",
"M+	c #97DBFF",
"N+	c #88D3FF",
"O+	c #76C9FF",
"P+	c #68C0FB",
"Q+	c #5FB6F4",
"R+	c #61B4F0",
"S+	c #54A3E5",
"T+	c #1F65B6",
"U+	c #02429A",
"V+	c #2F7ACB",
"W+	c #6FBDF4",
"X+	c #71C5FC",
"Y+	c #74C8FF",
"Z+	c #87D2FF",
"`+	c #9ADCFF",
" @	c #ABE5FF",
".@	c #B2E6FB",
"+@	c #AFDFF5",
"@@	c #B0E2F7",
"#@	c #AFE6FE",
"$@	c #A1E0FF",
"%@	c #90D7FF",
"&@	c #6DC4FD",
"*@	c #73C4F9",
"=@	c #62AFEB",
"-@	c #2B74C2",
";@	c #134886",
">@	c #084AA0",
",@	c #3783CE",
"'@	c #77C1F3",
")@	c #8CD4FE",
"!@	c #93D9FF",
"~@	c #B2E8FF",
"{@	c #C6F3FF",
"]@	c #D4FAFF",
"^@	c #CEF7FF",
"/@	c #BBEDFF",
"(@	c #A7E3FF",
"_@	c #8DD5FF",
":@	c #87D0FC",
"<@	c #68B3EB",
"[@	c #3681C8",
"}@	c #1F5896",
"|@	c #15549E",
"1@	c #2E78C2",
"2@	c #5AA2DE",
"3@	c #84C4F2",
"4@	c #A4DCFC",
"5@	c #B8EAFE",
"6@	c #C9F4FF",
"7@	c #D0F8FF",
"8@	c #C2F0FF",
"9@	c #B0E4FE",
"0@	c #98D4F9",
"a@	c #78BCED",
"b@	c #55A0DA",
"c@	c #3A82C2",
"d@	c #275D91",
"e@	c #1A4D86",
"f@	c #296AAE",
"g@	c #3F85C9",
"h@	c #5E9FDE",
"i@	c #7BB4EC",
"j@	c #96C5F5",
"k@	c #A5CEFA",
"l@	c #A1CCF9",
"m@	c #8EC1F3",
"n@	c #75B1E9",
"o@	c #5DA2DD",
"p@	c #4B92CA",
"q@	c #3C7AAC",
"r@	c #264E70",
"s@	c #275986",
"t@	c #3773A8",
"u@	c #4585BB",
"v@	c #5393C8",
"w@	c #5C9BCF",
"x@	c #5E9DD0",
"y@	c #5A9ACA",
"z@	c #5290BD",
"A@	c #457EA5",
"B@	c #2F5875",
"                                                                ",
"                                                                ",
"                                                                ",
"                                                                ",
"                                                                ",
"                          . + @ # $                             ",
"                    % & * = - ; > , ' ) !                       ",
"                  ~ { ] ^ / ^ / ^ ( / _ : < [                   ",
"              } | 1 2 3 3 2 4 5 6 ( 3 3 7 8 9 0                 ",
"            a b c d e f g h i j j k g l e m d n o               ",
"            p q r s t u v w x j y z A B t C D E F G             ",
"          H I J K L M N O O P Q R S T U V W X Y Z `             ",
"           ...+.@.#.$.%.&.*.=.-.;.>.,.'.).!.~.{.].^./.          ",
"          (._.:.<.[.}.|.1.2.3.j j 4.5.6.7.8.9.0.a.b.c.          ",
"          d.e.f.g.h.i.j.k.l.m.j j n.o.p.q.r.s.t.u.v.w.          ",
"          x.y.z.A.B.C.D.E.F.G.j j H.I.J.K.L.M.N.O.P.Q.          ",
"          R.S.T.U.V.W.X.Y.Z.`.j j  +.+++@+#+$+%+&+*+=+          ",
"          -+;+>+,+'+)+!+~+{+]+j j ^+/+(+_+:+<+[+}+|+1+          ",
"          2+3+[+4+5+!+6+7+8+9+j j 0+a+b+c+d+e+,+f+g+h+          ",
"          i+j+k+e+l+m+n+o+p+q+j j r+s+t+u+!+v+<+w+x+y+          ",
"          z+A+B+C+D+E+F+G+H+I+J+K+L+M+N+O+P+Q+R+S+T+            ",
"            U+V+W+X+Y+Z+`+ @.@+@@@#@$@%@t+&@*@=@-@;@            ",
"              >@,@'@)@!@$@~@{@]@^@/@(@M+_@:@<@[@}@              ",
"                |@1@2@3@4@5@6@]@7@8@9@0@a@b@c@d@                ",
"                  e@f@g@h@i@j@k@l@m@n@o@p@q@r@                  ",
"                      s@t@u@v@w@x@y@z@A@B@                      ",
"                                                                ",
"                                                                ",
"                                                                ",
"                                                                ",
"                                                                ",
"                                                                "};
