/* XPM */
static const char * Qmark_xpm[] = {
"32 32 126 2",
"  	c None",
". 	c #CED1D3",
"+ 	c #C8CACC",
"@ 	c #D6D8DB",
"# 	c #82878C",
"$ 	c #585F65",
"% 	c #4D535A",
"& 	c #474E55",
"* 	c #484F56",
"= 	c #52585F",
"- 	c #60666C",
"; 	c #B1B4B8",
"> 	c #8D9196",
", 	c #434A51",
"' 	c #495057",
") 	c #434B52",
"! 	c #595F66",
"~ 	c #BBBEC2",
"{ 	c #E1E2E3",
"] 	c #50565E",
"^ 	c #454C53",
"/ 	c #919499",
"( 	c #DDDFE1",
"_ 	c #495157",
": 	c #6C7378",
"< 	c #E3E6E7",
"[ 	c #4A5158",
"} 	c #464D54",
"| 	c #797F84",
"1 	c #555C62",
"2 	c #70757B",
"3 	c #81878C",
"4 	c #545A61",
"5 	c #444B52",
"6 	c #A9ABB0",
"7 	c #979CA0",
"8 	c #494F56",
"9 	c #A9ADB0",
"0 	c #FEFFFF",
"a 	c #F9FAFB",
"b 	c #FFFFFF",
"c 	c #484F55",
"d 	c #E9EBEC",
"e 	c #F8F9FA",
"f 	c #9EA2A6",
"g 	c #8F9397",
"h 	c #9CA0A4",
"i 	c #E7E8EA",
"j 	c #94999D",
"k 	c #40474E",
"l 	c #5D636A",
"m 	c #898E92",
"n 	c #F1F2F3",
"o 	c #DFE1E3",
"p 	c #4F555C",
"q 	c #BABEC0",
"r 	c #535960",
"s 	c #94989D",
"t 	c #4B5259",
"u 	c #A6A9AD",
"v 	c #CDCFD2",
"w 	c #CBCED1",
"x 	c #CCCED1",
"y 	c #C6C9CB",
"z 	c #7C8187",
"A 	c #444C53",
"B 	c #F7F8F9",
"C 	c #555C63",
"D 	c #70767C",
"E 	c #EAEBEC",
"F 	c #545B62",
"G 	c #6E757A",
"H 	c #50575E",
"I 	c #ABAFB2",
"J 	c #FBFCFD",
"K 	c #787D83",
"L 	c #51575E",
"M 	c #A5A9AC",
"N 	c #8D9296",
"O 	c #5B6167",
"P 	c #A4A8AC",
"Q 	c #535A61",
"R 	c #AFB3B6",
"S 	c #858A8E",
"T 	c #5F656B",
"U 	c #BDC1C4",
"V 	c #FAFBFC",
"W 	c #FDFEFE",
"X 	c #83888E",
"Y 	c #41484F",
"Z 	c #E2E4E6",
"` 	c #F5F6F6",
" .	c #848A8E",
"..	c #71767B",
"+.	c #7F8489",
"@.	c #EAEBED",
"#.	c #7B8085",
"$.	c #DADCDF",
"%.	c #E3E5E7",
"&.	c #454C54",
"*.	c #414850",
"=.	c #3F464D",
"-.	c #3E464D",
";.	c #474F56",
">.	c #70767B",
",.	c #C9CBCE",
"'.	c #5C6269",
").	c #A9ADB1",
"!.	c #535A60",
"~.	c #A7ABAE",
"{.	c #DEE0E2",
"].	c #4E555C",
"^.	c #7E8388",
"/.	c #C5C8CB",
"(.	c #596066",
"_.	c #464E55",
":.	c #3F464E",
"<.	c #878B91",
"[.	c #E3E4E7",
"}.	c #B2B5B9",
"|.	c #989CA0",
"1.	c #8A8F94",
"2.	c #878C90",
"3.	c #8E9397",
"4.	c #A2A5AA",
"5.	c #C3C6C9",
"                                                                ",
"                            . + @                               ",
"                    # $ % & & & & * = - ;                       ",
"                > , & ' ' ' ' ' ' ' ' ' ) ! ~                   ",
"            { ] ' ' ' ' ' ' ' ' ' ' ' ' ' ' ^ /                 ",
"          ( _ ' ' ' ' ' ' ' ' ' ' ' ' ' ' ' ' ' :               ",
"        < [ ' ' ' ' ' ' ' ' ' ' ' ' ' ' ' ' ' ' } |             ",
"        1 ' ' ' ' ' ' ' ' ) 2 3 4 * ' ' ' ' ' ' ' 5 6           ",
"      7 8 ' ' ' ' ' ' ' ' 9 0 a b ! ' ' ' ' ' ' ' ' [           ",
"      c ' ' ' ' ' ' ' ' * d e e e f & ' ' ' ' ' ' ' ' g         ",
"    h ^ ' ' ' ' ' ' ' ' * i e e a j * ' ' ' ' ' ' ' ' k         ",
"    l ' ' ' ' ' ' ' ' ' ' m n e o p ' ' ' ' ' ' ' ' ' } q       ",
"    r ' ' ' ' ' ' ' ' ' ' ' [ [ ' ' ' ' ' ' ' ' ' ' ' ' s       ",
"    t ' ' ' ' ' ' ' ' & u v w x y * ' ' ' ' ' ' ' ' ' ' z       ",
"    * ' ' ' ' ' ' ' ' A B e e e b C ' ' ' ' ' ' ' ' ' ' D       ",
"    & ' ' ' ' ' ' ' ' ^ E B e e b F ' ' ' ' ' ' ' ' ' ' G       ",
"    [ ' ' ' ' ' ' ' ' ' H I J e b F ' ' ' ' ' ' ' ' ' ' K       ",
"    L ' ' ' ' ' ' ' ' ' ' M J e b F ' ' ' ' ' ' ' ' ' ' N       ",
"    O ' ' ' ' ' ' ' ' ' * P J e b Q ' ' ' ' ' ' ' ' ' & R       ",
"    S & ' ' ' ' ' ' ' * T U V e W X * ' ' ' ' ' ' ' ' Y Z       ",
"      Y ' ' ' ' ' ' ' ^ ` V e e e b  .' ' ' ' ' ' ' ' ..        ",
"      +.' ' ' ' ' ' ' ^ @.b b b b b #.' ' ' ' ' ' ' ' $.        ",
"      %.&.' ' ' ' ' ' ' *.=.=.=.=.-.& ' ' ' ' ' ' ;.>.          ",
"        ,.' ' ' ' ' ' ' ' ' ' ' ' ' ' ' ' ' ' ' ' '.            ",
"          ).5 ' ' ' ' ' ' ' ' ' ' ' ' ' ' ' ' ' !.              ",
"            ~.' ' ' ' ' ' ' ' ' ' ' ' ' ' ' & T                 ",
"              {.].' ' ' ' ' ' ' ' ' ' ' ' * ^.                  ",
"                  /.(.Y _.' ' ' ' * A :.<.[.                    ",
"                      ( }.|.1.2.3.4.5.                          ",
"                                                                ",
"                                                                ",
"                                                                "};
