/* XPM */
static const char * Search_xpm[] = {
"32 32 290 2",
"  	c None",
". 	c #000000",
"+ 	c #8B0000",
"@ 	c #EF110C",
"# 	c #FF3829",
"$ 	c #C40000",
"% 	c #1D0000",
"& 	c #060000",
"* 	c #FF2F23",
"= 	c #FFFFC6",
"- 	c #FFC694",
"; 	c #FF0000",
"> 	c #1C0000",
", 	c #A90000",
"' 	c #FFBC8D",
") 	c #FFCD99",
"! 	c #030000",
"~ 	c #FF3124",
"{ 	c #FFF7B8",
"] 	c #FF1B15",
"^ 	c #A70000",
"/ 	c #FFC896",
"( 	c #FF3225",
"_ 	c #3A0000",
": 	c #FF3C2D",
"< 	c #FF5E45",
"[ 	c #2C0000",
"} 	c #DA0000",
"| 	c #FF4130",
"1 	c #930000",
"2 	c #2F0000",
"3 	c #CD0000",
"4 	c #700000",
"5 	c #6F0000",
"6 	c #3B0000",
"7 	c #244242",
"8 	c #001010",
"9 	c #330000",
"0 	c #4F0000",
"a 	c #3C4D4D",
"b 	c #F4FEFE",
"c 	c #EAF5F5",
"d 	c #D5DADA",
"e 	c #F4F6F6",
"f 	c #6C6E6E",
"g 	c #1E2020",
"h 	c #F1F1F1",
"i 	c #DDDDDD",
"j 	c #060404",
"k 	c #282525",
"l 	c #262323",
"m 	c #272424",
"n 	c #161414",
"o 	c #0B0B0B",
"p 	c #6B6666",
"q 	c #D3CBCA",
"r 	c #F2E7E6",
"s 	c #EFE3E2",
"t 	c #EEE1E0",
"u 	c #EDE1E0",
"v 	c #EDE1E1",
"w 	c #EEE4E3",
"x 	c #F1E9E9",
"y 	c #AAA5A5",
"z 	c #666363",
"A 	c #0E0C0C",
"B 	c #C6BCBB",
"C 	c #F0E0DF",
"D 	c #CDF1EF",
"E 	c #B9FFFC",
"F 	c #B1FFFF",
"G 	c #B0FFFF",
"H 	c #AEFFFF",
"I 	c #BFF2F0",
"J 	c #CBE6E5",
"K 	c #E0D8D7",
"L 	c #E7DBDA",
"M 	c #ECE4E4",
"N 	c #BDB8B8",
"O 	c #474545",
"P 	c #BAACAA",
"Q 	c #D4FFFC",
"R 	c #A7FFFF",
"S 	c #79EBF5",
"T 	c #5ECFE0",
"U 	c #37A8C6",
"V 	c #37A8C7",
"W 	c #70DFEB",
"X 	c #7CECF4",
"Y 	c #A3FFFF",
"Z 	c #A0FFFF",
"` 	c #9CFFFF",
" .	c #B1FDFB",
"..	c #CAE4E3",
"+.	c #E3D4D3",
"@.	c #E9E0E0",
"#.	c #D0CBCB",
"$.	c #363434",
"%.	c #020000",
"&.	c #000605",
"*.	c #B8FFFF",
"=.	c #39ADCC",
"-.	c #0B79A8",
";.	c #35A3C2",
">.	c #32A3C2",
",.	c #30A5C3",
"'.	c #2298BC",
").	c #006FA0",
"!.	c #004784",
"~.	c #00397C",
"{.	c #1180AB",
"].	c #58C5D9",
"^.	c #98FFFF",
"/.	c #A1FFFF",
"(.	c #CAE3E2",
"_.	c #E3D5D4",
":.	c #ECE5E5",
"<.	c #8B8888",
"[.	c #AEA9A9",
"}.	c #0F2524",
"|.	c #5BD1EB",
"1.	c #96FFFF",
"2.	c #9FFFFF",
"3.	c #E2FFFF",
"4.	c #FFFFFF",
"5.	c #DCE8F0",
"6.	c #7CB5CE",
"7.	c #006397",
"8.	c #238DB4",
"9.	c #8EFBFD",
"0.	c #ACFFFF",
"a.	c #DDD4D3",
"b.	c #E8DFDE",
"c.	c #C0BDBD",
"d.	c #0E0D0D",
"e.	c #FDF9F8",
"f.	c #221C1C",
"g.	c #A6FFFF",
"h.	c #CDFFFF",
"i.	c #D9FFFF",
"j.	c #B3FFFF",
"k.	c #BBFFFF",
"l.	c #C2FFFF",
"m.	c #C1FFFF",
"n.	c #81E9F1",
"o.	c #258CB2",
"p.	c #00397B",
"q.	c #8BFBFD",
"r.	c #D3DDDB",
"s.	c #8C8989",
"t.	c #232323",
"u.	c #F0EEEE",
"v.	c #9D9494",
"w.	c #4A8F8E",
"x.	c #9BFFFF",
"y.	c #B9FFFF",
"z.	c #8DFFFF",
"A.	c #93FFFF",
"B.	c #99FFFF",
"C.	c #91F7F9",
"D.	c #248BB2",
"E.	c #65D1E1",
"F.	c #D5E0DE",
"G.	c #F0E8E8",
"H.	c #282626",
"I.	c #EBEAEA",
"J.	c #DFD9D9",
"K.	c #7E7676",
"L.	c #8AF9F9",
"M.	c #97FFFF",
"N.	c #90FFFF",
"O.	c #E6FFFF",
"P.	c #DBFFFF",
"Q.	c #8FFFFF",
"R.	c #95FFFF",
"S.	c #9AFFFF",
"T.	c #A8FFFF",
"U.	c #76DCE8",
"V.	c #004583",
"W.	c #56C6D9",
"X.	c #ADFFFF",
"Y.	c #ECDDDC",
"Z.	c #7D7878",
"`.	c #F0F0F0",
" +	c #DCD9D9",
".+	c #D9D0D0",
"++	c #97A0A0",
"@+	c #7AE0E0",
"#+	c #94FFFF",
"$+	c #9DFFFF",
"%+	c #A4FFFF",
"&+	c #8FF6F8",
"*+	c #00518D",
"=+	c #7CEFF8",
"-+	c #D4F6F4",
";+	c #B5ACAC",
">+	c #797979",
",+	c #E4E3E3",
"'+	c #D7D4D4",
")+	c #D6CECE",
"!+	c #A09999",
"~+	c #66ADAD",
"{+	c #7FE8F0",
"]+	c #1281AF",
"^+	c #BDFFFF",
"/+	c #847978",
"(+	c #BDBDBD",
"_+	c #E0E0E0",
":+	c #D6D4D4",
"<+	c #D5CFCF",
"[+	c #C6BDBD",
"}+	c #656666",
"|+	c #579C9C",
"1+	c #34A5C9",
"2+	c #080807",
"3+	c #BCBCBC",
"4+	c #E2E1E1",
"5+	c #D7D6D6",
"6+	c #D5D1D1",
"7+	c #D7D0D0",
"8+	c #C9BFBF",
"9+	c #5B5252",
"0+	c #305A5A",
"a+	c #67BBBB",
"b+	c #9EFFFF",
"c+	c #A2FFFF",
"d+	c #ABFFFF",
"e+	c #65D5EA",
"f+	c #121C1A",
"g+	c #9B9B9B",
"h+	c #E8E8E8",
"i+	c #DCDBDB",
"j+	c #D6D5D5",
"k+	c #D6D3D3",
"l+	c #D9D3D3",
"m+	c #DDD4D4",
"n+	c #857878",
"o+	c #3A3232",
"p+	c #091B1B",
"q+	c #326666",
"r+	c #5CA9A9",
"s+	c #6BBFBF",
"t+	c #78D3D3",
"u+	c #92FFFF",
"v+	c #6CBFBF",
"w+	c #60AEAE",
"x+	c #315E5D",
"y+	c #110B0A",
"z+	c #222222",
"A+	c #CFCFCF",
"B+	c #E7E7E7",
"C+	c #DEDEDE",
"D+	c #DAD9D9",
"E+	c #D9D7D7",
"F+	c #DBD7D7",
"G+	c #DED9D9",
"H+	c #E2DADA",
"I+	c #ACA5A5",
"J+	c #796D6D",
"K+	c #544747",
"L+	c #554747",
"M+	c #564848",
"N+	c #584B4B",
"O+	c #706464",
"P+	c #C4BCBB",
"Q+	c #C3BEBD",
"R+	c #242424",
"S+	c #888888",
"T+	c #DCDCDC",
"U+	c #E9E8E8",
"V+	c #E4E4E4",
"W+	c #E1DFDF",
"X+	c #E2E0E0",
"Y+	c #E5E2E2",
"Z+	c #E7E4E4",
"`+	c #E9E6E6",
" @	c #ECE9E9",
".@	c #F2EEEE",
"+@	c #FAF8F8",
"@@	c #969494",
"#@	c #131313",
"$@	c #585858",
"%@	c #777676",
"&@	c #ABABAB",
"*@	c #AAAAAA",
"=@	c #ABAAAA",
"-@	c #ACABAB",
";@	c #AEADAD",
">@	c #8D8D8D",
",@	c #4B4B4B",
"                                          . . . .               ",
"                                      . + @ # $ % .             ",
"                                      & * = - ; ; > .           ",
"                                    . , ' ) ; ; ; $ .           ",
"                                    ! ~ { ] ; ; ; ; . .         ",
"                                    ^ / ( ; ; ; ; ; .           ",
"                                  _ : < ; ; ; ; ; [ .           ",
"                                  } | ; ; ; ; ; 1 .             ",
"                                2 ; 3 4 5 ; ; ; . .             ",
"                                6 ; . 7 8 . ; 9 .               ",
"                                . 0 a b c . 5 . .               ",
"                  . . . . .       . d e f . . .                 ",
"            . . . . . . . . . . . g h i . . . .                 ",
"          . . . . j k l l m n . . . . o .                       ",
"        . . . p q r s t u v w x y z A . .                       ",
"      . . . B C D E F F G H I J K L M N O . .                   ",
"      . . P Q R S T U V W X Y Z `  ...+.@.#.$..                 ",
"      %.&.*.=.-.;.>.,.'.).!.~.{.].^./.Y (._.:.<..               ",
"    . [.}.|.1.2.Z 3.4.4.4.4.5.6.7.~.8.9./.0.a.b.c..             ",
"    d.e.f.g.2.^.h.4.4.4.i.j.k.l.m.n.o.p.8.q./.r.b.s..           ",
"    t.u.v.w.x.1.y.4.4.Z z.A.1.B.x./.R C.D.!.E.Y F.G.H.          ",
"    t.I.J.K.L.M.N.O.P.Q.R.^.B.B.B.S.` /.T.U.V.W.X.Y.Z..         ",
"    . `. +.+++@+M.#+#+M.B.B.B.B.B.B.B.S.$+%+&+*+=+-+;+.         ",
"      >+,+'+)+!+~+B.B.B.B.B.B.B.B.B.B.B.B.` Y {+]+^+/+.         ",
"      . (+_+:+<+[+}+|+x.` ` x.x.S.S.B.B.B.S.2.T.1+X.2+          ",
"        . 3+4+5+6+7+8+9+0+a+2.Z 2.2.b+$+` b+c+d+e+f+.           ",
"          . g+h+i+j+k+l+m+n+o+p+q+r+s+t+u+v+w+x+y+.             ",
"            . z+A+B+C+D+E+F+G+H+I+J+K+L+M+N+O+P+Q+.             ",
"              . . R+S+T+U+V+4+W+X+Y+Z+`+ @.@+@@@.               ",
"                  . . . #@$@%@&@*@=@-@;@>@,@. .                 ",
"                        . . . . . . . . . . . .                 ",
"                                . . . . .                       "};
