/* XPM */
static const char * Sports_Car_2_xpm[] = {
"32 32 13 1",
" 	c None",
".	c #000000",
"+	c #777777",
"@	c #222222",
"#	c #444444",
"$	c #3399FF",
"%	c #3366FF",
"&	c #AAAAAA",
"*	c #3333FF",
"=	c #555555",
"-	c #DDDDDD",
";	c #003298",
">	c #888888",
"                                ",
"                                ",
"                                ",
"                                ",
"                                ",
"                                ",
"                                ",
"                                ",
"                                ",
"                                ",
"            ...                 ",
"          ..++@..               ",
"        ..++####@..             ",
"       .$%..######@..           ",
"       .%.$%..######@..         ",
"      .$.+..$%..#..##@@..       ",
"      .%.+&&..$%.++.@@@@...     ",
"     .$.+&&&+#.%.+#.@@..***. =  ",
"   ..$%%..++#.%.+##...****-;. = ",
" ..$$%%%%%..#.%..#..****>-*;.. =",
".$$%$%%%%%%%.%.>..****>-*;;;.+. ",
".@-%%%-%%%%%%%..****>>**;..;.#.=",
".=@*=>%%%%%%%%%***>>***;......= ",
".>=*=*%%%$$%%***=>***;;...+. =  ",
"...;***@-%%***=>;;;;;.....>.=   ",
".....;*=@***=>*;..... ......    ",
" ......>=*****;....    ....     ",
"   .......**;;...+.             ",
"     .....;;.....>.             ",
"       ..... ......             ",
"              ....              ",
"                                "};
