/* XPM */
static const char * Sports_Car_2_xpm[] = {
"32 32 163 2",
"  	c None",
". 	c #969A9E",
"+ 	c #3B434A",
"@ 	c #3E454C",
"# 	c #3E454D",
"$ 	c #3D454C",
"% 	c #4A5158",
"& 	c #9CA0A5",
"* 	c #51585E",
"= 	c #474E55",
"- 	c #495057",
"; 	c #485056",
"> 	c #A1A5AA",
", 	c #4F565D",
"' 	c #484F56",
") 	c #454C53",
"! 	c #50575E",
"~ 	c #CFD2D4",
"{ 	c #40484F",
"] 	c #94999D",
"^ 	c #FFFFFF",
"/ 	c #888C91",
"( 	c #666C72",
"_ 	c #41484F",
": 	c #909499",
"< 	c #F7F8F9",
"[ 	c #F9FAFB",
"} 	c #F8F9FA",
"| 	c #60666D",
"1 	c #8A8F94",
"2 	c #50565D",
"3 	c #ECEDEE",
"4 	c #4C535A",
"5 	c #B5B9BC",
"6 	c #DADCDE",
"7 	c #535960",
"8 	c #3F464E",
"9 	c #4A5057",
"0 	c #3E464D",
"a 	c #444B52",
"b 	c #3C434B",
"c 	c #7E8388",
"d 	c #D6D8DA",
"e 	c #4C5359",
"f 	c #414950",
"g 	c #434A51",
"h 	c #E3E5E7",
"i 	c #8C9196",
"j 	c #6C7278",
"k 	c #959A9E",
"l 	c #9DA1A5",
"m 	c #83898E",
"n 	c #4E555B",
"o 	c #84898E",
"p 	c #95999D",
"q 	c #686E74",
"r 	c #464D54",
"s 	c #969B9F",
"t 	c #DEE0E1",
"u 	c #A4A8AC",
"v 	c #73797E",
"w 	c #DFE1E2",
"x 	c #FAFAFB",
"y 	c #A8ABAF",
"z 	c #4B5159",
"A 	c #AAAEB1",
"B 	c #FDFEFF",
"C 	c #DCDDDF",
"D 	c #696F75",
"E 	c #40474E",
"F 	c #858A8F",
"G 	c #F7F8FA",
"H 	c #535A61",
"I 	c #3B424A",
"J 	c #A4A7AB",
"K 	c #C7CACC",
"L 	c #535A60",
"M 	c #D7D9DB",
"N 	c #FBFCFD",
"O 	c #AEB2B6",
"P 	c #323A41",
"Q 	c #656A71",
"R 	c #DCDEE0",
"S 	c #FEFFFF",
"T 	c #777D82",
"U 	c #E2E4E5",
"V 	c #AAAEB2",
"W 	c #EEEFF0",
"X 	c #B0B3B7",
"Y 	c #63696F",
"Z 	c #565D64",
"` 	c #495157",
" .	c #6B7177",
"..	c #F1F2F4",
"+.	c #CDCFD2",
"@.	c #9CA0A4",
"#.	c #D2D4D6",
"$.	c #F6F7F8",
"%.	c #676D72",
"&.	c #656B71",
"*.	c #4D545B",
"=.	c #464E55",
"-.	c #60676D",
";.	c #C4C6CA",
">.	c #F3F5F6",
",.	c #A1A5A9",
"'.	c #DDDFE1",
").	c #C9CCCF",
"!.	c #545A61",
"~.	c #858A8E",
"{.	c #797E83",
"].	c #484F57",
"^.	c #464D53",
"/.	c #E1E3E5",
"(.	c #D4D6D9",
"_.	c #646A70",
":.	c #454C54",
"<.	c #4B5258",
"[.	c #969A9F",
"}.	c #93989C",
"|.	c #60666C",
"1.	c #575D64",
"2.	c #454D54",
"3.	c #545B61",
"4.	c #999EA2",
"5.	c #424950",
"6.	c #F4F5F7",
"7.	c #CBCED0",
"8.	c #464D55",
"9.	c #D4D7D9",
"0.	c #D1D4D6",
"a.	c #5E646A",
"b.	c #BABDC0",
"c.	c #F1F2F3",
"d.	c #7E8389",
"e.	c #424951",
"f.	c #9FA3A7",
"g.	c #D5D7DA",
"h.	c #4B5259",
"i.	c #D0D3D5",
"j.	c #FAFBFC",
"k.	c #8F9498",
"l.	c #767B80",
"m.	c #636970",
"n.	c #9A9EA3",
"o.	c #D4D6D8",
"p.	c #D1D3D6",
"q.	c #5F666C",
"r.	c #414850",
"s.	c #9EA2A6",
"t.	c #D5D7D9",
"u.	c #95999E",
"v.	c #474F56",
"w.	c #525960",
"x.	c #787D83",
"y.	c #AEB1B5",
"z.	c #62696F",
"A.	c #6E7379",
"B.	c #6A7076",
"C.	c #666D72",
"D.	c #C3C6C9",
"E.	c #AFB2B6",
"F.	c #DCDEDF",
"                                                                ",
"                                                                ",
"                                                                ",
"                                                                ",
"                                                                ",
"                      . + @ # # $ % &                           ",
"                      * = - - - - - ; >                         ",
"                      , ' ) # # @ = - ! ~                       ",
"                      , { ] ^ ^ ^ / ' ' (                       ",
"                      , _ : < [ } [ | ' - 1                     ",
"                      2 { ] ^ ^ ^ ^ 3 4 = ! 5                   ",
"    6 7 + # # # # # 8 - 9 ) # # # # 0 ' - - a @ # b c           ",
"    d e ' - - - - - - - - - - - - - - - - - - - - - f           ",
"    d e ' - - - - - - - - - - - - - - - - - - - - - g h         ",
"    d e ' - - - - - - - - - - - - - - - - - - - - - g h         ",
"  h i % = ) j k l m , ) - - - - - - = n o l p q = ' r s t       ",
"  u _ ) v w ^ ^ ^ ^ x y z ' - - - = A B ^ ^ ^ ^ C D - - p       ",
"  u E F G ^ h H I J ^ ^ K L = ' % M ^ N O P Q R ^ S T - p       ",
"  U V W X Y Z % - `  . ...+.l @.#.$.%.&.*.- =.-., ;.>.,.'.      ",
"      ).!.= - - - - - = ~.        {.' - - - - - ].^./.          ",
"      (._.r :.Z &.a - <.[.        }.' - - |.1.2.= 3.            ",
"      4.% 5.F 6.^ 7.g 8.&.9.    0.a.- ! b.^ c.d.) e.f.          ",
"    g.h.= a i.j.} $.v ) 5.k.    l.% - m.^ } ^ 5 3.' f h         ",
"    g.h.= a i.j.} $.v ) 5.k.    l.% - m.^ } ^ 5 3.' f h         ",
"      n.h.5.F 6.^ 7.g r _.o.    p.q.- ! b.^ c.d.) r.s.          ",
"      t.&.r :.Z &.a - % p         u.' - - |.1.2.v.w.            ",
"      ).!.= - - - - - = ~.        x.' - - - - - ' ) /.          ",
"        y.z.Z % - % A.B.            C._.h.- = z.2 D.            ",
"            h H I J                     E.P Q F.                ",
"                                                                ",
"                                                                ",
"                                                                "};
