/* XPM */
static const char * tree_icon1_xpm[] = {
"16 16 13 1",
" 	c None",
".	c #666664",
"+	c #6E6E6F",
"@	c #FDFDFC",
"#	c #5C5C5B",
"$	c #626264",
"%	c #DDDDDD",
"&	c #E8E8E8",
"*	c #F2F2F1",
"=	c #C9C9C7",
"-	c #9A9A9C",
";	c #9E9E9C",
">	c #A2A2A4",
"      ...       ",
"      +@#       ",
"   +# $@$ +#    ",
"  +%@+&@*#*@#   ",
"  #@%**&**&@$   ",
"   +@**+*@*$    ",
"..$=*&#-#=@%$.$ ",
"$&**&.;; +&&&&# ",
"#++%%&$>$*%&+$# ",
"   #&&=#%=%+    ",
"  $%%=%%%%=&#   ",
"  $==+=%=.==+   ",
"   +# .=$ ##    ",
"      +=#       ",
"      #$.       ",
"                "};
