/* XPM */
static const char * tree_icon10_xpm[] = {
"16 16 143 2",
"  	c None",
". 	c #6A6C6E",
"+ 	c #676A69",
"@ 	c #494A49",
"# 	c #424442",
"$ 	c #454647",
"% 	c #3A3C3A",
"& 	c #373939",
"* 	c #363735",
"= 	c #3D3E3D",
"- 	c #181816",
"; 	c #3A3B3A",
"> 	c #131414",
", 	c #4B4E50",
"' 	c #4A4E51",
") 	c #4E5253",
"! 	c #646769",
"~ 	c #5F615E",
"{ 	c #31322F",
"] 	c #2F2F2D",
"^ 	c #40423D",
"/ 	c #353632",
"( 	c #2D2D2A",
"_ 	c #3D3F3E",
": 	c #181919",
"< 	c #363A3C",
"[ 	c #696F71",
"} 	c #797E82",
"| 	c #4F4F4C",
"1 	c #30312D",
"2 	c #30302D",
"3 	c #9D9E99",
"4 	c #C9CAC6",
"5 	c #979895",
"6 	c #434341",
"7 	c #2F302D",
"8 	c #2F312F",
"9 	c #7A8285",
"0 	c #4C4F51",
"a 	c #62676A",
"b 	c #4A4B48",
"c 	c #363733",
"d 	c #141411",
"e 	c #B4B5B1",
"f 	c #E7E9E5",
"g 	c #F5F4F2",
"h 	c #FBFBF9",
"i 	c #D2D4D1",
"j 	c #33342F",
"k 	c #2A2B28",
"l 	c #515657",
"m 	c #3F4243",
"n 	c #414445",
"o 	c #5C5F61",
"p 	c #3A3B35",
"q 	c #222322",
"r 	c #BCBDB7",
"s 	c #E6E7E4",
"t 	c #F3F3F1",
"u 	c #F3F4F3",
"v 	c #F0F2EF",
"w 	c #AEB0AC",
"x 	c #2B2B29",
"y 	c #181917",
"z 	c #5A5F61",
"A 	c #444747",
"B 	c #515455",
"C 	c #363732",
"D 	c #171815",
"E 	c #868682",
"F 	c #E7E8E5",
"G 	c #F0F0EE",
"H 	c #F9F9F8",
"I 	c #F4F6F4",
"J 	c #E9EBE8",
"K 	c #3B3B39",
"L 	c #292925",
"M 	c #343435",
"N 	c #303130",
"O 	c #232423",
"P 	c #7A7A79",
"Q 	c #41423D",
"R 	c #0C0C0A",
"S 	c #C3C3C1",
"T 	c #BEBFBA",
"U 	c #ECEDE8",
"V 	c #F6F6F5",
"W 	c #FAFAFA",
"X 	c #EDF0ED",
"Y 	c #8E8E8C",
"Z 	c #272623",
"` 	c #1B1B1A",
" .	c #505150",
"..	c #555857",
"+.	c #646460",
"@.	c #4D4E49",
"#.	c #1B1C17",
"$.	c #222321",
"%.	c #82837C",
"&.	c #D8D9D5",
"*.	c #F1F1EF",
"=.	c #F5F5F4",
"-.	c #F1F1ED",
";.	c #ABACA9",
">.	c #2D2D29",
",.	c #31312F",
"'.	c #353533",
").	c #3A3A39",
"!.	c #33342E",
"~.	c #10100D",
"{.	c #B0B1AF",
"].	c #8E908B",
"^.	c #EDEEEB",
"/.	c #F6F7F5",
"(.	c #E8E9E5",
"_.	c #6F706B",
":.	c #292A25",
"<.	c #22221E",
"[.	c #585957",
"}.	c #747575",
"|.	c #40413C",
"1.	c #2A2B26",
"2.	c #030300",
"3.	c #50514E",
"4.	c #8E8F8A",
"5.	c #BBBBB8",
"6.	c #848580",
"7.	c #4B4C49",
"8.	c #565756",
"9.	c #42443F",
"0.	c #252620",
"a.	c #181814",
"b.	c #11120E",
"c.	c #363734",
"d.	c #1A1B15",
"e.	c #2A2B27",
"f.	c #565956",
"g.	c #31322C",
"h.	c #34352F",
"i.	c #282A25",
"j.	c #2E2F29",
"k.	c #31322E",
"l.	c #6D706B",
"                .               ",
"          + @ # $ % &           ",
"        * = - ; > , ' ) !       ",
"    ~ { ] ^ / / ( _ : < [ }     ",
"    | 1 2 3 4 5 6 7 8 9 0 a b   ",
"    c d e f g h i j k l m n o   ",
"    p q r s t u v w x y z A B   ",
"    C D E F G H I J K L M N O P ",
"    Q R S T U V W X Y Z `  ...+.",
"    @.#.$.%.&.*.=.-.;.>.,.'.).  ",
"      !.~.{.].^./.(._.:.<.[.}.  ",
"      |.1.2.3.4.5.6.L :.7.8.    ",
"        9.0.a.b.c.d.e.e.f.      ",
"            g.h.i.j.k.l.        ",
"                                ",
"                                "};
