/* XPM */
static const char * tree_icon9_xpm[] = {
"16 16 97 2",
"  	c None",
". 	c #8E9393",
"+ 	c #8A8F8F",
"@ 	c #878B8A",
"# 	c #838786",
"$ 	c #898E8E",
"% 	c #868A8A",
"& 	c #828686",
"* 	c #7F8281",
"= 	c #7A7F7D",
"- 	c #818585",
"; 	c #7E8280",
"> 	c #7A7F7C",
", 	c #767B77",
"' 	c #787D7A",
") 	c #747A77",
"! 	c #717672",
"~ 	c #747876",
"{ 	c #707471",
"] 	c #6C716D",
"^ 	c #858B89",
"/ 	c #828785",
"( 	c #7E8281",
"_ 	c #767C78",
": 	c #737874",
"< 	c #707470",
"[ 	c #6C706C",
"} 	c #686C68",
"| 	c #5A5E59",
"1 	c #585955",
"2 	c #848989",
"3 	c #818584",
"4 	c #7D8280",
"5 	c #797E7B",
"6 	c #767A77",
"7 	c #727773",
"8 	c #6E736F",
"9 	c #6B6F6B",
"0 	c #676B67",
"a 	c #646863",
"b 	c #5A5C58",
"c 	c #575854",
"d 	c #535451",
"e 	c #808483",
"f 	c #7C807F",
"g 	c #747976",
"h 	c #6D726E",
"i 	c #696E69",
"j 	c #666A66",
"k 	c #636762",
"l 	c #5F635E",
"m 	c #5C5F5B",
"n 	c #595B57",
"o 	c #565754",
"p 	c #535450",
"q 	c #4F504C",
"r 	c #7C807E",
"s 	c #787C7A",
"t 	c #737875",
"u 	c #686D69",
"v 	c #656A65",
"w 	c #626661",
"x 	c #5F615D",
"y 	c #5C5E5A",
"z 	c #585A56",
"A 	c #555753",
"B 	c #52534F",
"C 	c #4E4F4B",
"D 	c #4B4C48",
"E 	c #777B78",
"F 	c #737775",
"G 	c #646964",
"H 	c #616560",
"I 	c #5E615C",
"J 	c #5A5D59",
"K 	c #575955",
"L 	c #545651",
"M 	c #51524E",
"N 	c #4D4F4A",
"O 	c #4A4B46",
"P 	c #60645F",
"Q 	c #5D605B",
"R 	c #595C58",
"S 	c #545652",
"T 	c #51524F",
"U 	c #50524E",
"V 	c #4D4E4A",
"W 	c #4A4A47",
"X 	c #50514D",
"Y 	c #4D4D49",
"Z 	c #494945",
"` 	c #454542",
" .	c #41413E",
"..	c #484844",
"+.	c #454441",
"@.	c #41403D",
"#.	c #3D3C3A",
"            . + @ #             ",
"            $ % & * =           ",
"              - ; > ,           ",
"                ' ) !           ",
"                ~ { ]           ",
"    ^ / ( = _ : < [ }       | 1 ",
"  2 3 4 5 6 7 8 9 0 a     b c d ",
"  e f ' g ! h i j k l m n o p q ",
"  r s t     u v w x y z A B C D ",
"  E F       G H I J K L M N O   ",
"            P Q R               ",
"            y n                 ",
"            z S T               ",
"            L U V W             ",
"            X Y Z `  .          ",
"              ..+.@.#.          "};
