/* XPM */
static const char * tree_icon7_xpm[] = {
"16 16 5 1",
" 	c None",
".	c #6F4DEC",
"+	c #1D0869",
"@	c #3C1EAC",
"#	c #0C0525",
"...........     ",
"+...........    ",
"++...........   ",
"+++...........  ",
"+++@@@@@@@@@@@  ",
"+++@@@@@@@@@@@  ",
"+++@@@@@@@@@@@  ",
"+++@@@@@@@@@@@  ",
"+++@@@@@@@@@@@  ",
"+++@+++++++++@  ",
"++++#########@  ",
"+++#########+@  ",
"+++#########+@  ",
" ++#########+@  ",
"  +@#########@  ",
"   @@@@@@@@@@@  "};
