/* XPM */
static const char * tree_icon2_xpm[] = {
"16 16 3 1",
" 	c None",
".	c #000001",
"+	c #FFFFFE",
"                ",
"                ",
"                ",
"                ",
"  ...      ...  ",
" .+++.    .+++. ",
".+++++.  .+++++.",
".+++...  .+++...",
".++....  .++....",
" .+...    .+... ",
"  ...      ...  ",
"                ",
"                ",
"                ",
"                ",
"                "};
