/* XPM */
static const char * tree_icon11_xpm[] = {
"16 16 143 2",
"  	c None",
". 	c #929292",
"+ 	c #909090",
"@ 	c #8E8E8E",
"# 	c #8D8D8D",
"$ 	c #8C8C8C",
"% 	c #8B8B8B",
"& 	c #8A8A8A",
"* 	c #898989",
"= 	c #878787",
"- 	c #868686",
"; 	c #838383",
"> 	c #848484",
", 	c #858585",
"' 	c #828282",
") 	c #818181",
"! 	c #808080",
"~ 	c #7A7A7A",
"{ 	c #7B7B7B",
"] 	c #7C7C7C",
"^ 	c #797979",
"/ 	c #6E6E6E",
"( 	c #6F6F6F",
"_ 	c #707070",
": 	c #727272",
"< 	c #737373",
"[ 	c #717171",
"} 	c #ACACAC",
"| 	c #A4A4A4",
"1 	c #787878",
"2 	c #696969",
"3 	c #666666",
"4 	c #676767",
"5 	c #686868",
"6 	c #6C6C6C",
"7 	c #747474",
"8 	c #6D726E",
"9 	c #ADADAD",
"0 	c #C4C4C4",
"a 	c #DDDDDD",
"b 	c #B4B4B4",
"c 	c #949494",
"d 	c #C2C2C2",
"e 	c #AFAFAF",
"f 	c #959595",
"g 	c #3E423D",
"h 	c #3C463D",
"i 	c #4C543F",
"j 	c #A9A9A7",
"k 	c #B7B7B7",
"l 	c #AEAEAE",
"m 	c #A1A1A1",
"n 	c #9C9C9C",
"o 	c #9B9B9B",
"p 	c #A2A2A2",
"q 	c #AAAAAA",
"r 	c #ABABAB",
"s 	c #959797",
"t 	c #656965",
"u 	c #252718",
"v 	c #2A2F29",
"w 	c #3D463E",
"x 	c #3E4630",
"y 	c #2B2E19",
"z 	c #000101",
"A 	c #1F1F1F",
"B 	c #4A4A4A",
"C 	c #5A5A59",
"D 	c #5C5D5C",
"E 	c #515050",
"F 	c #5A857D",
"G 	c #75B8A6",
"H 	c #21524A",
"I 	c #172C23",
"J 	c #272D1D",
"K 	c #2A2F28",
"L 	c #3A453A",
"M 	c #3D452E",
"N 	c #33371E",
"O 	c #060707",
"P 	c #070707",
"Q 	c #090908",
"R 	c #090A07",
"S 	c #090907",
"T 	c #3C756B",
"U 	c #71B8A5",
"V 	c #24584E",
"W 	c #1B2E25",
"X 	c #292D1E",
"Y 	c #2B302A",
"Z 	c #474D43",
"` 	c #3A442D",
" .	c #353A20",
"..	c #060708",
"+.	c #080808",
"@.	c #080908",
"#.	c #0A0B07",
"$.	c #090808",
"%.	c #367166",
"&.	c #6FB7A4",
"*.	c #26594F",
"=.	c #1E2F24",
"-.	c #2A2D1E",
";.	c #2F342D",
">.	c #999A99",
",.	c #363D25",
"'.	c #3B3C1C",
").	c #070708",
"!.	c #080909",
"~.	c #0A0A0A",
"{.	c #346E63",
"].	c #76B9A4",
"^.	c #1C4942",
"/.	c #223023",
"(.	c #292E1D",
"_.	c #555754",
":.	c #A4A4A3",
"<.	c #61624D",
"[.	c #22210E",
"}.	c #090909",
"|.	c #0A0B08",
"1.	c #33685E",
"2.	c #5EA694",
"3.	c #092A25",
"4.	c #3B453B",
"5.	c #767675",
"6.	c #646464",
"7.	c #A7A7A7",
"8.	c #B2B2B2",
"9.	c #9D9D9D",
"0.	c #6B6B6B",
"a.	c #4C4C4C",
"b.	c #424241",
"c.	c #4D4D4C",
"d.	c #7C8C8A",
"e.	c #A1A7A6",
"f.	c #888888",
"g.	c #6A6A6A",
"h.	c #757575",
"i.	c #7F7F7F",
"j.	c #A0A0A0",
"k.	c #9E9E9E",
"l.	c #9F9F9F",
"        . . . + + @ @ #         ",
"    @ $ % % % $ % & * = - =     ",
"# ; ; > > , , > ; ; ' ' ) ) !   ",
"! ~ ~ ~ ~ { ] { ] ~ { ^ ^ ~ ~   ",
"@ / ( _ : _ < : _ [ [ [ _ ( ^   ",
"} | 1 2 3 4 2 5 4 4 3 6 7 * '   ",
"8 9 0 a b c = ! % | d e f ; g   ",
"h i j k l m n o p q r s t u v   ",
"w x y z A B C D E F G H I J K   ",
"L M N O P Q R R S T U V W X Y   ",
"Z `  ...+.@.S #.$.%.&.*.=.-.;.  ",
">.,.'.).+.!.~.#.S {.].^./.(._.$ ",
"r :.<.[.!.}.Q |.Q 1.2.3.4.5.6.- ",
"  7.8.:.9.0.a.b.c.d.e.% f.7 g.  ",
"    8.$ h.i.f.^ * # ^ < , ]     ",
"        q j.! c n k.l.          "};
