/* XPM */
static const char * empty_file_xpm[] = {
"32 32 57 1",
" 	c None",
".	c #4F5356",
"+	c #24282C",
"@	c #1F2327",
"#	c #1F2428",
"$	c #202428",
"%	c #35393C",
"&	c #CBCCCD",
"*	c #1C2024",
"=	c #212529",
"-	c #1A1E22",
";	c #191D21",
">	c #1B1F24",
",	c #313539",
"'	c #B1B2B4",
")	c #1D2125",
"!	c #A6A7A9",
"~	c #BEBFC0",
"{	c #8F9193",
"]	c #4C4F52",
"^	c #272B2F",
"/	c #B2B4B5",
"(	c #DDDEDE",
"_	c #FFFFFF",
":	c #1F2328",
"<	c #F4F4F4",
"[	c #5A5D60",
"}	c #ECEDED",
"|	c #686B6D",
"1	c #A6A8A9",
"2	c #B2B3B5",
"3	c #B5B6B8",
"4	c #292D31",
"5	c #BDBFC0",
"6	c #171B20",
"7	c #F5F4F5",
"8	c #14171C",
"9	c #1E2226",
"0	c #F4F4F5",
"a	c #DDDDDE",
"b	c #DEDEDF",
"c	c #8A8D8F",
"d	c #9E9FA1",
"e	c #9EA0A2",
"f	c #B2B3B4",
"g	c #8B8E90",
"h	c #9FA0A2",
"i	c #9FA1A3",
"j	c #686A6D",
"k	c #161A1F",
"l	c #D1D2D3",
"m	c #1A1E23",
"n	c #363A3D",
"o	c #7F8284",
"p	c #2F3236",
"q	c #161B1F",
"r	c #BCBDBE",
"                                ",
"                                ",
"     .+@##########$%            ",
"    &*=-;;;;;;;>===$,           ",
"    '=)!~~~~~~~{>=])=^          ",
"    /=*(_______~;:<[$=)         ",
"    /=*(_______~;#}_|==^        ",
"    /=*(_______~;#}__|$$]       ",
"    /=*(_______~;$1/234=;       ",
"    /=*(_______5;=======6       ",
"    /=*(_______78*****9=6       ",
"    /=*(________0a(((bc)6       ",
"    /=*(______________d*6       ",
"    /=*(______________d*6       ",
"    /=*(______________d*6       ",
"    /=*(______________d*6       ",
"    /=*(______________d*6       ",
"    /=*(______________d*6       ",
"    /=*(______________d*6       ",
"    /=*(______________d*6       ",
"    /=*(______________d*6       ",
"    /=*(______________d*6       ",
"    /=*(______________d*6       ",
"    /=*(______________d*6       ",
"    /=*(______________d*6       ",
"    /=*b______________e*6       ",
"    f=9ghhhhhhhhhhhhhij9k       ",
"    lm=)**************9=n       ",
"     opq66666666666666knr       ",
"                                ",
"                                ",
"                                "};
