/* XPM */
static const char * icon_record_xpm[] = {
"32 32 44 1",
" 	c None",
".	c #4D5053",
"+	c #292D31",
"@	c #212529",
"#	c #22272B",
"$	c #34373B",
"%	c #55585B",
"&	c #626568",
"*	c #1E2226",
"=	c #1F2327",
"-	c #2D3135",
";	c #4F5255",
">	c #1D2125",
",	c #202428",
"'	c #595D60",
")	c #3A3E42",
"!	c #1B1F23",
"~	c #303437",
"{	c #56595C",
"]	c #202429",
"^	c #696B6E",
"/	c #43464A",
"(	c #1A1E22",
"_	c #272B2E",
":	c #1D2126",
"<	c #22262A",
"[	c #393C40",
"}	c #2C3034",
"|	c #2E3236",
"1	c #686B6D",
"2	c #303438",
"3	c #2A2D31",
"4	c #272A2E",
"5	c #393D41",
"6	c #25292D",
"7	c #2B2F33",
"8	c #3E4145",
"9	c #2F3236",
"0	c #24282C",
"a	c #272B2F",
"b	c #3B3F42",
"c	c #2A2E32",
"d	c #23272B",
"e	c #383B3F",
"                                ",
"                                ",
"                                ",
"                                ",
"                                ",
"                                ",
"                                ",
"    .+@@@@@@@@@@@@#$%           ",
"   &*@@@@@@@@@@@@@@=-       ;   ",
"   >@@@@@@@@@@@@@@@@,     ')!~  ",
"   @@@@@@@@@@@@@@@@@@    {]=@,  ",
"   @@@@@@@@@@@@@@@@@@  ^/(@@@@  ",
"   @@@@@@@@@@@@@@@@@@  _:@@@@@  ",
"   @@@@@@@@@@@@@@@@@@  ,@@@@@@  ",
"   @@@@@@@@@@@@@@@@@@  @@@@@@@  ",
"   @@@@@@@@@@@@@@@@@@  @@@@@@@  ",
"   @@@@@@@@@@@@@@@@@@  @@@@@@@  ",
"   @@@@@@@@@@@@@@@@@@  @@@@@@@  ",
"   @@@@@@@@@@@@@@@@@@  <=@@@@@  ",
"   @@@@@@@@@@@@@@@@@@  [}*@@@@  ",
"   @@@@@@@@@@@@@@@@@@   {|,,@,  ",
"   *@@@@@@@@@@@@@@@@,    123*4  ",
"   5=@@@@@@@@@@@@@@,6      /78  ",
"    90@@@@@@@@@@@@<ab           ",
"     c@@@@@@@@@@@@de            ",
"                                ",
"                                ",
"                                ",
"                                ",
"                                ",
"                                ",
"                                "};
