/* XPM */
static const char * icon_backward_xpm[] = {
"32 32 31 1",
" 	c None",
".	c #616468",
"+	c #6A6D70",
"@	c #2F3337",
"#	c #1C2024",
"$	c #181C21",
"%	c #6B6D70",
"&	c #44484B",
"*	c #212529",
"=	c #1F2327",
"-	c #35383C",
";	c #A1A3A5",
">	c #1D2125",
",	c #6D7072",
"'	c #181C20",
")	c #22262A",
"!	c #33373A",
"~	c #46494D",
"{	c #36393D",
"]	c #202428",
"^	c #2B2F33",
"/	c #33363A",
"(	c #2F3236",
"_	c #6C6F71",
":	c #A1A3A4",
"<	c #34383C",
"[	c #2F3336",
"}	c #1B1F24",
"|	c #181D21",
"1	c #696B6E",
"2	c #6A6C6F",
"                                ",
"                                ",
"                                ",
"                                ",
"                                ",
"                                ",
"             .+          .+     ",
"            @#$%        @#$%    ",
"           &***=       &***=    ",
"          -*****      -*****    ",
"        ;>******    ;>******    ",
"       ,'*******   ,'*******    ",
"      @>********  @>********    ",
"     &*********) &**********    ",
"    !**********~!***********    ",
"   {]**********^]***********    ",
"    /**********~/***********    ",
"     &*********) &**********    ",
"      (>********  (>********    ",
"       _'*******   _'*******    ",
"        :>******    :>******    ",
"          <*****      <*****    ",
"           &***=       &***=    ",
"            [}|%        [}|%    ",
"             12          12     ",
"                                ",
"                                ",
"                                ",
"                                ",
"                                ",
"                                ",
"                                "};
