/* XPM */
static const char * icono_main_xpm[] = {
"32 32 18 1",
" 	c None",
".	c #777777",
"+	c #444444",
"@	c #000000",
"#	c #AAAAAA",
"$	c #DDDDDD",
"%	c #BBBBBB",
"&	c #888888",
"*	c #006666",
"=	c #009999",
"-	c #FFFFFF",
";	c #EEEEEE",
">	c #66CCCC",
",	c #66CC99",
"'	c #222222",
")	c #555555",
"!	c #669999",
"~	c #003333",
"                                ",
"        .+@@@@++.               ",
"     +@@#$$$%%#&*@@+.           ",
"    +=--$$$$$$%%##&**@+         ",
"   +%$;;--$$$=>*=%##&=*@+       ",
"   @$$;;;;--$,**$$%%#&.=*@      ",
"   @;.+#;;;;--$$$$$$%#&==*@     ",
"  .#;+'.+#;;;;--$$$$$$&=>=*@    ",
"  +#$@'''.+#;;;;--$$$#&=>>=*@   ",
"  +##+'#)''.+#;;;;-$#&*===>=*@  ",
"  @$.''&)+'''.+#;;;#&*****===*+ ",
"  @;+'+&)+'''''.+#;#********==@ ",
" .#;@').)+''''''@#$&*********==+",
" +#$@'..++''''''@%%.*********=!@",
" +##@'.)+'''''''@$#.**********!@",
" @$.+'.)+'''''''@;#**********!#@",
" @$;+@')+''''''@);#*********!%#@",
" @=;;;+@'''''''@&$&********!;%.+",
" @*=,;;;+@'''''@#$.*******%%;#@ ",
" @>*=;;;#;+@'''@;#.******$%%$#+ ",
" ++$=;##$.;;+@'@;#*****=;#;$#@  ",
"  @+;;;#=;;;;;+#$#****!;*=#;..  ",
"   @@+;;;##;,$$$##***%$%=*$.@   ",
"    **@+;;;;*=#$#.*!%%%;%%.@    ",
"    ~@=*@+;;=**##.#%%%%%;.@     ",
"      ~@=*@+$#=$##%%%%%%.@      ",
"        ~@=*@+$####%%%.@+       ",
"          ~@=*+++....@+         ",
"            ~@*=@@@@+           ",
"              ~@~               ",
"                                ",
"                                "};
