/* XPM */
static const char * icon_help_xpm[] = {
"24 24 281 2",
"  	c None",
". 	c #C30000",
"+ 	c #C60000",
"@ 	c #C80000",
"# 	c #C90000",
"$ 	c #C40000",
"% 	c #BC0000",
"& 	c #B30000",
"* 	c #D20000",
"= 	c #DF1515",
"- 	c #E94E4E",
"; 	c #F27E7E",
"> 	c #F58D8D",
", 	c #F28585",
"' 	c #E96262",
") 	c #DC2D2D",
"! 	c #C70606",
"~ 	c #AD0000",
"{ 	c #CA0000",
"] 	c #DC0C0C",
"^ 	c #F45A5A",
"/ 	c #FEB4B4",
"( 	c #FCCDCD",
"_ 	c #F7C7C7",
": 	c #F6C9C9",
"< 	c #F7CFCF",
"[ 	c #FBD5D5",
"} 	c #FECBCB",
"| 	c #F67F7F",
"1 	c #D71C1C",
"2 	c #B10000",
"3 	c #DE0909",
"4 	c #F97474",
"5 	c #FFC6C6",
"6 	c #F6B0B0",
"7 	c #F3BABA",
"8 	c #F8E1E1",
"9 	c #FBF0F0",
"0 	c #F9E6E6",
"a 	c #FADADA",
"b 	c #FECFCF",
"c 	c #FDA0A0",
"d 	c #DF2C2C",
"e 	c #AC0000",
"f 	c #DC0808",
"g 	c #F86363",
"h 	c #FFACAC",
"i 	c #F59C9C",
"j 	c #F5C8C8",
"k 	c #FEFBFB",
"l 	c #FFFAFA",
"m 	c #FFE9E9",
"n 	c #FFEDED",
"o 	c #FFFEFE",
"p 	c #FFDEDE",
"q 	c #FFB4B4",
"r 	c #FE9494",
"s 	c #D52626",
"t 	c #9C0000",
"u 	c #F43A3A",
"v 	c #FF9494",
"w 	c #FC8E8E",
"x 	c #F2A8A8",
"y 	c #FEFEFE",
"z 	c #FFBBBB",
"A 	c #FF9898",
"B 	c #FF9C9C",
"C 	c #FACACA",
"D 	c #FEFFFF",
"E 	c #FFF7F7",
"F 	c #FFABAB",
"G 	c #F76262",
"H 	c #B90404",
"I 	c #FD6262",
"J 	c #FF7F7F",
"K 	c #FB7676",
"L 	c #F7C6C6",
"M 	c #FFFFFF",
"N 	c #FFD7D7",
"O 	c #FF8181",
"P 	c #FF7D7D",
"Q 	c #FF7A7A",
"R 	c #F08A8A",
"S 	c #FCF7F7",
"T 	c #FFFDFD",
"U 	c #FFA1A1",
"V 	c #FC6565",
"W 	c #FA4343",
"X 	c #D60808",
"Y 	c #950000",
"Z 	c #C50000",
"` 	c #E81C1C",
" .	c #FF5E5E",
"..	c #FF6161",
"+.	c #FE6060",
"@.	c #FD9393",
"#.	c #FFCECE",
"$.	c #FF8D8D",
"%.	c #FF6060",
"&.	c #F25E5E",
"*.	c #EDAEAE",
"=.	c #FEE8E8",
"-.	c #F74242",
";.	c #F30606",
">.	c #F30000",
",.	c #E90000",
"'.	c #A50000",
").	c #C70000",
"!.	c #F12121",
"~.	c #FF4747",
"{.	c #FF4646",
"].	c #FF4A4A",
"^.	c #FF4545",
"/.	c #F34444",
"(.	c #EBA0A0",
"_.	c #FDFBFB",
":.	c #FA8A8A",
"<.	c #F20202",
"[.	c #F20000",
"}.	c #F00000",
"|.	c #F41818",
"1.	c #FF2E2E",
"2.	c #FF2D2D",
"3.	c #F52E2E",
"4.	c #E89090",
"5.	c #FCF8F8",
"6.	c #FBB3B3",
"7.	c #EF4041",
"8.	c #EC3537",
"9.	c #ED2728",
"0.	c #F10809",
"a.	c #B60000",
"b.	c #F20808",
"c.	c #FF1010",
"d.	c #FC0D0D",
"e.	c #EA5A5A",
"f.	c #FAF4F4",
"g.	c #FFFCFC",
"h.	c #ECD3D9",
"i.	c #C3A8BE",
"j.	c #B5C4DD",
"k.	c #B7D5EC",
"l.	c #BACADF",
"m.	c #C896A5",
"n.	c #E33A3E",
"o.	c #AF0101",
"p.	c #EA0000",
"q.	c #FF0101",
"r.	c #FE0101",
"s.	c #FD0101",
"t.	c #FC0000",
"u.	c #F70000",
"v.	c #EC8D8D",
"w.	c #ECECF1",
"x.	c #ADCCEB",
"y.	c #A2DEFC",
"z.	c #AFE9FD",
"A.	c #ADE6FC",
"B.	c #A7E2FC",
"C.	c #AEE9FF",
"D.	c #BCC6D5",
"E.	c #9F3A3E",
"F.	c #B20000",
"G.	c #E00000",
"H.	c #FD0000",
"I.	c #F77373",
"J.	c #FEF5F5",
"K.	c #C0D9F0",
"L.	c #A0DAF9",
"M.	c #C1F4FE",
"N.	c #D1FCFF",
"O.	c #BDF0FD",
"P.	c #B8EEFC",
"Q.	c #B8EFFD",
"R.	c #BFF4FE",
"S.	c #ACAFBB",
"T.	c #CA0303",
"U.	c #FA0C0C",
"V.	c #FF0D0D",
"W.	c #FF0C0C",
"X.	c #F61E1E",
"Y.	c #E57E81",
"Z.	c #ABCBE7",
"`.	c #ACE6FC",
" +	c #D0FCFF",
".+	c #E1FDFF",
"++	c #C6F4FE",
"@+	c #CDFBFE",
"#+	c #CDFCFF",
"$+	c #D0FFFF",
"%+	c #C3E5EB",
"&+	c #AD0101",
"*+	c #DC1010",
"=+	c #FF1F1F",
"-+	c #FA1D1D",
";+	c #E67878",
">+	c #E1D4D9",
",+	c #A6D0EC",
"'+	c #AAE4FB",
")+	c #B7EBFC",
"!+	c #C3F3FD",
"~+	c #DAFFFF",
"{+	c #DCFFFF",
"]+	c #DFFFFF",
"^+	c #CFEBEF",
"/+	c #B20404",
"(+	c #E51F1F",
"_+	c #FF3030",
":+	c #FF2F2F",
"<+	c #F93030",
"[+	c #F3B9B8",
"}+	c #EDF2F6",
"|+	c #AAD1EA",
"1+	c #A7E1FB",
"2+	c #B2E9FC",
"3+	c #C7F8FE",
"4+	c #D8FFFF",
"5+	c #E0FFFF",
"6+	c #E9FFFF",
"7+	c #ECFFFF",
"8+	c #D0E1E7",
"9+	c #AD0707",
"0+	c #D92323",
"a+	c #FB3E3E",
"b+	c #FF4343",
"c+	c #FE4141",
"d+	c #FE7473",
"e+	c #F9AEAF",
"f+	c #B6B3C8",
"g+	c #A8E2FB",
"h+	c #B0E8FC",
"i+	c #C6F9FE",
"j+	c #D7FFFF",
"k+	c #E5FFFF",
"l+	c #F3FFFF",
"m+	c #F2FAFB",
"n+	c #B3BAC8",
"o+	c #9D0303",
"p+	c #BB1717",
"q+	c #DE3535",
"r+	c #F54A4A",
"s+	c #FD4F4F",
"t+	c #FF5251",
"u+	c #D66B74",
"v+	c #A4BDD4",
"w+	c #B6ECFD",
"x+	c #C6FAFF",
"y+	c #E4FFFF",
"z+	c #EBFAFB",
"A+	c #C4CAD4",
"B+	c #9899AE",
"C+	c #940303",
"D+	c #A71010",
"E+	c #B51C1C",
"F+	c #BA2222",
"G+	c #B01D1D",
"H+	c #8D3A44",
"I+	c #93A1B5",
"J+	c #B2D9E5",
"K+	c #C3E8ED",
"L+	c #C4DEE4",
"M+	c #A9B5C4",
"N+	c #9A9BB0",
"O+	c #B9B7C2",
"P+	c #D4A765",
"Q+	c #D1A969",
"R+	c #F0CB7B",
"S+	c #EBAF45",
"T+	c #D88F1F",
"U+	c #EBC671",
"V+	c #F9DD94",
"W+	c #EAAF45",
"X+	c #D18A1E",
"Y+	c #E9C472",
"Z+	c #E6A941",
"`+	c #C47E1C",
" @	c #E1BC6D",
".@	c #E9C478",
"+@	c #B88E5C",
"@@	c #AC8B64",
"#@	c #938D9C",
"            . + @ # $ % &                       ",
"        @ * = - ; > , ' ) ! ~                   ",
"      { ] ^ / ( _ : < [ } | 1 2                 ",
"    { 3 4 5 6 7 8 9 9 0 a b c d e               ",
"  @ f g h i j k l m n o o p q r s t             ",
"  * u v w x y l z A B C D E F A G H             ",
". 3 I J K L M N O P Q R S T U V W X Y           ",
"Z `  ...+.@.#.$.%...&.*.D =.-.;.>.,.'.          ",
").!.~.{.{.{.].{.^./.(._.M :.<.[.[.}.2           ",
"@ |.1.2.2.2.2.2.3.4.5.T 6.7.8.9.0.[.a.          ",
"$ b.c.c.c.c.c.d.e.f.g.h.i.j.k.l.m.n.o.          ",
"% p.q.r.r.s.t.u.v.M w.x.y.z.A.B.C.D.E.          ",
"F.G.q.r.r.r.r.H.I.J.K.L.M.N.O.P.Q.R.S.          ",
"  T.U.V.V.V.V.W.X.Y.Z.`. +.+++@+#+$+%+          ",
"  &+*+=+=+=+=+-+;+>+,+'+)+!+ +~+{+]+^+          ",
"    /+(+_+_+:+<+[+}+|+1+2+3+4+5+6+7+8+          ",
"      9+0+a+b+c+d+e+f+g+h+i+j+k+l+m+n+          ",
"        o+p+q+r+s+t+u+v+w+x+j+y+z+A+B+          ",
"            C+D+E+F+G+H+I+J+K+L+M+N+O+P+        ",
"                                    Q+R+S+T+    ",
"                                      U+V+W+X+  ",
"                                        Y+V+Z+`+",
"                                           @.@+@",
"                                            @@#@"};
