/* XPM */
static const char * icon_batch_xpm[] = {
"24 24 299 2",
"  	c None",
". 	c #E9B600",
"+ 	c #EFC902",
"@ 	c #F1D00D",
"# 	c #F5DD19",
"$ 	c #F5E01B",
"% 	c #F3D916",
"& 	c #EECA07",
"* 	c #EBC400",
"= 	c #DD9C00",
"- 	c #E4A500",
"; 	c #F5DD07",
"> 	c #FEFA3D",
", 	c #FFFF83",
"' 	c #FDFDAE",
") 	c #FDFCC3",
"! 	c #FDFCC7",
"~ 	c #FDFDBF",
"{ 	c #FDFD9D",
"] 	c #FCFB62",
"^ 	c #FAF220",
"/ 	c #E9C101",
"( 	c #CE7C00",
"_ 	c #EBBB00",
": 	c #FDF725",
"< 	c #FFFF88",
"[ 	c #FFFFCC",
"} 	c #FAF8DB",
"| 	c #F4EDDF",
"1 	c #F7F2E1",
"2 	c #F7F3E3",
"3 	c #F3EDDE",
"4 	c #F7F3BB",
"5 	c #FFFF59",
"6 	c #F3DD08",
"7 	c #D48E00",
"8 	c #EDC101",
"9 	c #FDF847",
"0 	c #FFFFAE",
"a 	c #FFFFCA",
"b 	c #F3ECCC",
"c 	c #FAF7DC",
"d 	c #FFFFDF",
"e 	c #FCFBDE",
"f 	c #F1E9D0",
"g 	c #FBF9CB",
"h 	c #FFFFC4",
"i 	c #FFFF7F",
"j 	c #F7E81A",
"k 	c #D59700",
"l 	c #E9B300",
"m 	c #FEFB32",
"n 	c #FFFFAB",
"o 	c #FFFFBF",
"p 	c #FFFFBD",
"q 	c #FDFCBC",
"r 	c #EEE5C7",
"s 	c #FDFDDB",
"t 	c #FFFFDC",
"u 	c #FFFFDD",
"v 	c #F2EACF",
"w 	c #F6F1BD",
"x 	c #FFFFC0",
"y 	c #F2DB12",
"z 	c #C17200",
"A 	c #DF9600",
"B 	c #F9EC13",
"C 	c #FFFF8C",
"D 	c #FFFFB3",
"E 	c #FFFFB1",
"F 	c #F7F2B1",
"G 	c #EFE6C9",
"H 	c #FAF7D8",
"I 	c #F1E8B9",
"J 	c #FEFEB0",
"K 	c #FFFFB2",
"L 	c #FFFF51",
"M 	c #E1B500",
"N 	c #EDC301",
"O 	c #FFFF56",
"P 	c #FFFFA4",
"Q 	c #FFFFA3",
"R 	c #EFE4A8",
"S 	c #F5EFD3",
"T 	c #FFFFDE",
"U 	c #FEFEDE",
"V 	c #E9DABF",
"W 	c #ECDFA5",
"X 	c #F4EDA5",
"Y 	c #FBF8A3",
"Z 	c #FFFF8B",
"` 	c #F8ED19",
" .	c #C37F00",
"..	c #F4D814",
"+.	c #FFFE97",
"@.	c #FFFE96",
"#.	c #FEFD95",
"$.	c #EEE1AB",
"%.	c #FCFAE1",
"&.	c #FFFFE4",
"*.	c #FFFFE3",
"=.	c #FEFEE2",
"-.	c #F4ECD4",
";.	c #F3EAD0",
">.	c #E7D5BC",
",.	c #F0E498",
"'.	c #FFFF96",
").	c #FFFE47",
"!.	c #DBAB00",
"~.	c #DB8B00",
"{.	c #FBEA2E",
"].	c #FFFC88",
"^.	c #FFFB8A",
"/.	c #FDF889",
"(.	c #ECDBA9",
"_.	c #F2E7D0",
":.	c #F3E8CF",
"<.	c #FAF5DF",
"[.	c #FFFFEA",
"}.	c #FBF7E3",
"|.	c #E8D4A4",
"1.	c #FBF489",
"2.	c #FFFB8C",
"3.	c #FFFC65",
"4.	c #EBC805",
"5.	c #E09900",
"6.	c #FEEE39",
"7.	c #FFF77F",
"8.	c #FFF77E",
"9.	c #FFF67E",
"0.	c #F5E680",
"a.	c #F1DE80",
"b.	c #E1C38D",
"c.	c #F4EADC",
"d.	c #FFFFF3",
"e.	c #EDDBBA",
"f.	c #F4E47E",
"g.	c #FFF87E",
"h.	c #FFF780",
"i.	c #FFF767",
"j.	c #F3D60B",
"k.	c #E29D00",
"l.	c #FEE80E",
"m.	c #FFF04D",
"n.	c #FFF371",
"o.	c #FFF372",
"p.	c #FFF571",
"q.	c #F7E670",
"r.	c #E9D1B0",
"s.	c #FEFDFC",
"t.	c #FFFFFD",
"u.	c #F6ECE4",
"v.	c #E9CD82",
"w.	c #FCED6F",
"x.	c #FFF265",
"y.	c #FFEE28",
"z.	c #F6D601",
"A.	c #A66500",
"B.	c #E09800",
"C.	c #FEE000",
"D.	c #FFE407",
"E.	c #FFE932",
"F.	c #FFED5C",
"G.	c #FFEE66",
"H.	c #FFED64",
"I.	c #EACB79",
"J.	c #F6ECE6",
"K.	c #FFFFFF",
"L.	c #F3E7DE",
"M.	c #E7CDAD",
"N.	c #E3C084",
"O.	c #FAE564",
"P.	c #FFEF66",
"Q.	c #FFEE64",
"R.	c #FFEC51",
"S.	c #FFE61C",
"T.	c #FFE400",
"U.	c #F5CF00",
"V.	c #A46100",
"W.	c #D88800",
"X.	c #FCD600",
"Y.	c #FFDD00",
"Z.	c #FFDD01",
"`.	c #FFE015",
" +	c #FFE32F",
".+	c #FFE746",
"++	c #F8DB53",
"@+	c #E3BD8F",
"#+	c #F3E4D8",
"$+	c #FDFBF8",
"%+	c #FFFFFE",
"&+	c #F3E2D5",
"*+	c #EBC76B",
"=+	c #FEE54F",
"-+	c #FFE53B",
";+	c #FFE123",
">+	c #FFDE0A",
",+	c #FFDF00",
"'+	c #EEBD00",
")+	c #C97000",
"!+	c #F6C300",
"~+	c #FFD800",
"{+	c #FFD700",
"]+	c #FFD805",
"^+	c #FCD514",
"/+	c #F1C226",
"(+	c #E0A952",
"_+	c #F9F0EA",
":+	c #FAF4F0",
"<+	c #E9BB5F",
"[+	c #FCD518",
"}+	c #FFD90D",
"|+	c #FFD702",
"1+	c #FFD900",
"2+	c #DEA000",
"3+	c #EBAA00",
"4+	c #FFD300",
"5+	c #FFD100",
"6+	c #FFD200",
"7+	c #FCCB00",
"8+	c #E4AD52",
"9+	c #FDFAF9",
"0+	c #FEFDFE",
"a+	c #E7BB88",
"b+	c #F1B704",
"c+	c #FECE00",
"d+	c #BE7700",
"e+	c #DA8E00",
"f+	c #FDC700",
"g+	c #FFCB00",
"h+	c #FFCC00",
"i+	c #F5B800",
"j+	c #ECC392",
"k+	c #EFCDA6",
"l+	c #EDAB13",
"m+	c #FECA00",
"n+	c #FFCD00",
"o+	c #E9A800",
"p+	c #864400",
"q+	c #EAA200",
"r+	c #FFC600",
"s+	c #FFC500",
"t+	c #F0AA12",
"u+	c #F6E0CD",
"v+	c #F7E2CE",
"w+	c #ECA422",
"x+	c #FEC200",
"y+	c #FABC00",
"z+	c #B26700",
"A+	c #BF6900",
"B+	c #F3AC00",
"C+	c #FFC000",
"D+	c #FFBF00",
"E+	c #FEBD00",
"F+	c #EFAA37",
"G+	c #FAEFE7",
"H+	c #F1B65C",
"I+	c #FBB500",
"J+	c #D18500",
"K+	c #BD6A00",
"L+	c #EFA200",
"M+	c #FFBA00",
"N+	c #FFB900",
"O+	c #FBAF00",
"P+	c #F0B870",
"Q+	c #F2C48D",
"R+	c #F7AA09",
"S+	c #FFB800",
"T+	c #FCB400",
"U+	c #D58600",
"V+	c #7D4000",
"W+	c #B05E00",
"X+	c #E69100",
"Y+	c #FDB000",
"Z+	c #F6A406",
"`+	c #EAA862",
" @	c #F2A017",
".@	c #FFB100",
"+@	c #FFB200",
"@@	c #FFB300",
"#@	c #F4A300",
"$@	c #C16E00",
"%@	c #672F00",
"&@	c #8D4300",
"*@	c #C46E00",
"=@	c #E28703",
"-@	c #EB8F0B",
";@	c #FDA800",
">@	c #FFAD00",
",@	c #FDA900",
"'@	c #F39D00",
")@	c #D88200",
"!@	c #9B5000",
"~@	c #A05700",
"{@	c #B66900",
"]@	c #C16F00",
"^@	c #BC6D00",
"/@	c #A45D00",
"(@	c #894500",
"                                                ",
"              . + @ # $ % & * =                 ",
"          - ; > , ' ) ! ~ { ] ^ / (             ",
"        _ : < [ } | 1 1 1 2 3 4 5 6 7           ",
"      8 9 0 [ a b c d d d e f g h i j k         ",
"    l m n o p q r s t t u v w p p x < y z       ",
"  A B C D E E F G u t t H I J E E E K L M       ",
"  N O P Q Q Q R S d T U V W X Y Q Q P Z `  .    ",
"  .., +.@.@.#.$.%.&.*.=.-.;.>.,.'.@.@.+.).!.    ",
"~.{.].^.^.^./.(._.:.<.[.[.}.|.1.^.^.^.2.3.4.    ",
"5.6.7.8.8.8.9.0.a.b.c.d.d.e.f.g.8.8.8.h.i.j.    ",
"k.l.m.n.o.n.n.p.q.r.s.t.u.v.w.n.n.n.o.x.y.z.A.  ",
"B.C.D.E.F.G.G.H.I.J.K.K.L.M.N.O.P.Q.R.S.T.U.V.  ",
"W.X.Y.Z.`. +.+++@+#+$+%+K.&+*+=+-+;+>+Y.,+'+    ",
")+!+~+{+{+{+]+^+/+(+_+K.:+<+[+}+|+{+{+{+1+2+    ",
"  3+4+5+5+5+5+6+7+8+9+0+a+b+6+5+5+5+5+5+c+d+    ",
"  e+f+g+g+g+g+h+i+j+K.k+l+m+g+g+g+g+g+n+o+p+    ",
"    q+r+s+s+s+r+t+u+v+w+x+s+s+s+s+s+r+y+z+      ",
"    A+B+C+D+D+E+F+G+H+I+C+D+D+D+D+D+D+J+        ",
"      K+L+M+N+O+P+Q+R+N+S+S+S+S+N+T+U+V+        ",
"        W+X+Y+Z+`+ @.@+@+@+@@@@@#@$@%@          ",
"          &@*@=@-@;@>@>@>@,@'@)@!@              ",
"                ~@{@]@]@^@/@(@                  ",
"                                                "};
