/* XPM */
static const char * kinect_xpm[] = {
"32 32 180 2",
"  	c None",
". 	c #717071",
"+ 	c #747476",
"@ 	c #4E4F4F",
"# 	c #444546",
"$ 	c #454647",
"% 	c #48494D",
"& 	c #4B4C4F",
"* 	c #4D4F52",
"= 	c #525457",
"- 	c #545658",
"; 	c #595A5C",
"> 	c #5B5D60",
", 	c #5E5E61",
"' 	c #606164",
") 	c #626468",
"! 	c #656668",
"~ 	c #6B6D6C",
"{ 	c #747576",
"] 	c #747779",
"^ 	c #7C7D7D",
"/ 	c #7F7F80",
"( 	c #818183",
"_ 	c #878689",
": 	c #8E8C8E",
"< 	c #929294",
"[ 	c #1D1F1D",
"} 	c #181918",
"| 	c #1A1A1A",
"1 	c #171917",
"2 	c #171817",
"3 	c #171919",
"4 	c #191B1B",
"5 	c #1E1E1D",
"6 	c #232222",
"7 	c #262726",
"8 	c #2A2C2C",
"9 	c #303131",
"0 	c #353636",
"a 	c #373939",
"b 	c #3B3D3E",
"c 	c #3E3F41",
"d 	c #3F4042",
"e 	c #444647",
"f 	c #47494B",
"g 	c #4C4D50",
"h 	c #525355",
"i 	c #5F5F61",
"j 	c #67686B",
"k 	c #67686A",
"l 	c #66686B",
"m 	c #65666A",
"n 	c #66666A",
"o 	c #6B6D6E",
"p 	c #717274",
"q 	c #202120",
"r 	c #1D1F1E",
"s 	c #1E201F",
"t 	c #1E2120",
"u 	c #1F2120",
"v 	c #1F2021",
"w 	c #2C475C",
"x 	c #3D7399",
"y 	c #1D2529",
"z 	c #1B1C1D",
"A 	c #1B1C1B",
"B 	c #1B1A1A",
"C 	c #323333",
"D 	c #222223",
"E 	c #141515",
"F 	c #252527",
"G 	c #121413",
"H 	c #0E0E0E",
"I 	c #0C0D0D",
"J 	c #0C0C0D",
"K 	c #0D0D0D",
"L 	c #0D0E0D",
"M 	c #131212",
"N 	c #1D1C1B",
"O 	c #232120",
"P 	c #302D2C",
"Q 	c #353332",
"R 	c #413E43",
"S 	c #4E474F",
"T 	c #575358",
"U 	c #2E3031",
"V 	c #262928",
"W 	c #262727",
"X 	c #282827",
"Y 	c #292929",
"Z 	c #282A2A",
"` 	c #292C2B",
" .	c #2C4962",
"..	c #376E9B",
"+.	c #2B3C46",
"@.	c #292A2B",
"#.	c #2C2D2D",
"$.	c #30302F",
"%.	c #3E3E3E",
"&.	c #3F4040",
"*.	c #323334",
"=.	c #555A56",
"-.	c #3C3F3D",
";.	c #2B2E2D",
">.	c #2D2E2E",
",.	c #2B2D2D",
"'.	c #373838",
").	c #36383A",
"!.	c #303233",
"~.	c #303133",
"{.	c #262626",
"].	c #212223",
"^.	c #1D1F20",
"/.	c #1A1C1A",
"(.	c #1D1E21",
"_.	c #434547",
":.	c #404243",
"<.	c #3D4041",
"[.	c #3B3F40",
"}.	c #3C3E41",
"|.	c #3A4044",
"1.	c #38434B",
"2.	c #3A3E40",
"3.	c #3B3E41",
"4.	c #353839",
"5.	c #313333",
"6.	c #333331",
"7.	c #2F312F",
"8.	c #313232",
"9.	c #353739",
"0.	c #303134",
"a.	c #333534",
"b.	c #333435",
"c.	c #323435",
"d.	c #3D3E3E",
"e.	c #3A3B3C",
"f.	c #3D3E3D",
"g.	c #353535",
"h.	c #323434",
"i.	c #313434",
"j.	c #303332",
"k.	c #484B49",
"l.	c #0F0F0F",
"m.	c #2D2D2D",
"n.	c #4E4E4F",
"o.	c #3E4344",
"p.	c #383A3A",
"q.	c #3C3D3D",
"r.	c #414445",
"s.	c #424749",
"t.	c #3E4143",
"u.	c #3E3F42",
"v.	c #3D403E",
"w.	c #3A3D3D",
"x.	c #383A3B",
"y.	c #3D3E41",
"z.	c #878685",
"A.	c #515150",
"B.	c #222321",
"C.	c #010101",
"D.	c #020202",
"E.	c #181717",
"F.	c #545554",
"G.	c #828183",
"H.	c #212121",
"I.	c #131314",
"J.	c #0E0F0E",
"K.	c #0D0D0E",
"L.	c #0A0B0B",
"M.	c #0B0B0B",
"N.	c #080909",
"O.	c #333234",
"P.	c #2D2E2F",
"Q.	c #2F3132",
"R.	c #303032",
"S.	c #2F3032",
"T.	c #2F3232",
"U.	c #313332",
"V.	c #2E3231",
"W.	c #1B1D1D",
"                                                                ",
"                                                                ",
"                                                                ",
"                                                                ",
"                                                                ",
"                                                                ",
"                                                                ",
"                                                                ",
"                                                                ",
"                                                                ",
"                                                                ",
"          . +                                                   ",
"    @ # $ % & * = - ; > , ' ) ! ~ { ] ^ / ( _ : <               ",
"  [ } | 1 2 3 4 5 6 7 8 9 0 a b c d e f g h i ! j k l m n o p   ",
"  q r s t u u v w x y z A B C D E F G H I J K L M N O P Q R S T ",
"  U V W X Y Z `  ...+.@.#.$.%.&.*.=.-.;.>.,.'.).!.~.{.].^./.3 (.",
"      _.:.<.[.}.|.1.2.3.4.5.6.7.8.9.0.a.b.c.b d.e.f.g.h.h.i.j.c.",
"                              k.l.m.n.o.p.p.q.r.s.t.u.v.w.x.a y.",
"                        z.A.B.C.D.C.E.F.G.                      ",
"                        H.I.J.K.L.M.l.N.O.                      ",
"                        P.Q.R.S.T.U.~.V.W.                      ",
"                                                                ",
"                                                                ",
"                                                                ",
"                                                                ",
"                                                                ",
"                                                                ",
"                                                                ",
"                                                                ",
"                                                                ",
"                                                                ",
"                                                                "};
