/* XPM */
static char * MAIN_ICON_xpm[] = {
"32 32 188 2",
"  	c None",
". 	c #DDE0E2",
"+ 	c #CCCED0",
"@ 	c #C2C5C8",
"# 	c #BCBFC2",
"$ 	c #BCBEC1",
"% 	c #C1C4C7",
"& 	c #C9CCCE",
"* 	c #DADCDE",
"= 	c #BABCBF",
"- 	c #7F848A",
"; 	c #575D63",
"> 	c #454C53",
", 	c #474E55",
"' 	c #464D55",
") 	c #50575D",
"! 	c #767C81",
"~ 	c #ADB2B5",
"{ 	c #80858A",
"] 	c #40474E",
"^ 	c #484F56",
"/ 	c #495057",
"( 	c #454D54",
"_ 	c #414950",
": 	c #72787D",
"< 	c #BDC0C4",
"[ 	c #A6AAAD",
"} 	c #4B5259",
"| 	c #454C54",
"1 	c #464D54",
"2 	c #82868C",
"3 	c #535A60",
"4 	c #50575E",
"5 	c #C5C8CB",
"6 	c #4D535A",
"7 	c #50565D",
"8 	c #C0C3C6",
"9 	c #4C5259",
"0 	c #4F565D",
"a 	c #C0C3C5",
"b 	c #596066",
"c 	c #CBCED0",
"d 	c #BDC0C3",
"e 	c #52585F",
"f 	c #485057",
"g 	c #4D545B",
"h 	c #909499",
"i 	c #D7DADC",
"j 	c #8F9499",
"k 	c #686E74",
"l 	c #4C5359",
"m 	c #424950",
"n 	c #444B52",
"o 	c #444B53",
"p 	c #474E56",
"q 	c #63696F",
"r 	c #878B90",
"s 	c #C8CBCD",
"t 	c #A3A8AB",
"u 	c #FAFBFC",
"v 	c #FFFFFF",
"w 	c #E6E8EA",
"x 	c #D4D6D8",
"y 	c #B3B7BA",
"z 	c #91969A",
"A 	c #73787E",
"B 	c #5F656C",
"C 	c #4E545B",
"D 	c #454B53",
"E 	c #3F464D",
"F 	c #3E464D",
"G 	c #5B6268",
"H 	c #6E7379",
"I 	c #8A8F94",
"J 	c #ADB1B4",
"K 	c #D1D3D6",
"L 	c #E3E5E6",
"M 	c #FBFCFD",
"N 	c #BFC2C5",
"O 	c #CDD0D2",
"P 	c #5A6066",
"Q 	c #B0B3B7",
"R 	c #F3F5F6",
"S 	c #F8F9FA",
"T 	c #F9F9FA",
"U 	c #F9FAFB",
"V 	c #F9FAFA",
"W 	c #F4F5F7",
"X 	c #62686E",
"Y 	c #4E555C",
"Z 	c #C1C4C6",
"` 	c #747A7F",
" .	c #9DA2A5",
"..	c #D0D2D4",
"+.	c #D6D8DA",
"@.	c #DADCDF",
"#.	c #DEE0E2",
"$.	c #DFE1E3",
"%.	c #E0E2E3",
"&.	c #DCDEDF",
"*.	c #D7D9DB",
"=.	c #D0D3D5",
"-.	c #C3C6C9",
";.	c #A5A9AD",
">.	c #7E8389",
",.	c #4F565C",
"'.	c #3F464E",
").	c #4D545A",
"!.	c #434A52",
"~.	c #585F66",
"{.	c #5D646A",
"].	c #60666C",
"^.	c #5A6067",
"/.	c #4A5158",
"(.	c #434A51",
"_.	c #6F757A",
":.	c #52595F",
"<.	c #DCDEE0",
"[.	c #DDDFE1",
"}.	c #6C7278",
"|.	c #424951",
"1.	c #40474F",
"2.	c #595F65",
"3.	c #CFD1D3",
"4.	c #C2C5C7",
"5.	c #71777C",
"6.	c #646A70",
"7.	c #8E9397",
"8.	c #F9FBFC",
"9.	c #F0F1F3",
"0.	c #C4C6C9",
"a.	c #A5A8AD",
"b.	c #7F8489",
"c.	c #6F757B",
"d.	c #72777D",
"e.	c #757B80",
"f.	c #7D8387",
"g.	c #878C91",
"h.	c #9EA2A7",
"i.	c #FEFFFF",
"j.	c #D8DADC",
"k.	c #A6AAAE",
"l.	c #4A5057",
"m.	c #545A61",
"n.	c #9EA3A6",
"o.	c #F6F7F9",
"p.	c #F4F5F6",
"q.	c #F1F2F4",
"r.	c #F1F2F3",
"s.	c #F3F4F6",
"t.	c #F7F8F9",
"u.	c #A8ABAF",
"v.	c #797F84",
"w.	c #4A5157",
"x.	c #777C81",
"y.	c #8D9196",
"z.	c #9CA0A5",
"A.	c #A7ABAE",
"B.	c #ABAEB2",
"C.	c #ABAFB3",
"D.	c #9FA3A7",
"E.	c #91959A",
"F.	c #7B8085",
"G.	c #5F656B",
"H.	c #4C535A",
"I.	c #424A51",
"J.	c #686E73",
"K.	c #6A6F75",
"L.	c #60666D",
"M.	c #959A9E",
"N.	c #D1D4D6",
"O.	c #A0A4A8",
"P.	c #6E7479",
"Q.	c #4B5258",
"R.	c #3D444C",
"S.	c #40484F",
"T.	c #666C72",
"U.	c #969B9F",
"V.	c #C9CCCF",
"W.	c #CFD2D5",
"X.	c #BBBDC1",
"Y.	c #B1B4B7",
"Z.	c #A9ADB1",
"`.	c #AAADB0",
" +	c #B0B2B6",
".+	c #B8BBBF",
"++	c #CCCED1",
"@+	c #E2E4E6",
"                                                                ",
"                                                                ",
"                        . + @ # $ % & *                         ",
"                = - ; > , , , , , , , , ' ) ! ~                 ",
"          & { > ] > ^ / / / / / / / / / / ^ ( _ _ : <           ",
"        [ } | / / / / / / / / / / / / / / / / / / 1 1 2         ",
"        3 ^ / / / / / / / / / / / / / / / / / / / / / 4 5       ",
"        6 ^ / / / / / / / / / / / / / / / / / / / / / 7 8       ",
"        9 ^ / / / / / / / / / / / / / / / / / / / / / 0 a       ",
"        b , / / / / / / / / / / / / / / / / / / / / / 0 c       ",
"        d e / ^ / / / / / / / / / / / / / / / / f ^ g h         ",
"          i j k l m n 1 , ^ f / / / ^ , 1 o m p q r s           ",
"        t u v w x y z A B C D E F n } G H I J K L M v N O       ",
"        9 P Q R S S S S T U U U U U U V S S S S W @ X Y Z       ",
"        g , _ 1 `  .N ..+.@.#.$.%.#.&.*.=.-.;.>.,.'., 7 Z       ",
"        ).^ / ^ 1 !._ , e ~.{.B ].{.^.3 /.m (.> ^ / / 7 Z       ",
"        ).^ / / / / / / / / / / / / / / / / / / / / / 7 Z       ",
"        g ^ / / / / / / / / / / / / / / / / / / / / / 0 Z       ",
"        _.(./ / / / / / / / / / / / / / / / / / / / , :.<.      ",
"        [.}.|., / / / / / / / / / / / / / / / / ^ 1.2.3.        ",
"            4.5.7 g } / ^ / / / / / / f / /.6 7 6.y             ",
"        7...8.v 9.0.a.I b.! : c._.d.e.f.g.h.d w v i.j.k.&       ",
"        l.m.5.n.3.o.v v v S p.q.r.s.t.i.v v M *.u.v.^.} a       ",
"        ).^ / w././.b x.y.z.A.B.C.A.D.E.F.G.H./././ / 7 Z       ",
"        ).^ / / / / ^ 1 o !.I.|.m I.(.n 1 ^ / / / / / 7 Z       ",
"        ).^ / / / / / / / / / / / / / / / / / / / / / 7 8       ",
"        C ^ / / / / / / / / / / / / / / / / / / / / / 7 %       ",
"        7.p ^ / / / / / / / / / / / / / / / / / / ^ ^ J.        ",
"          [ K.n m 1 ^ / / / / / / / / / / ^ 1 !.I.L.M.          ",
"              N.O.P.Q.R.1._ |.(.(.|.m S.E ( T.U.V.              ",
"                        W.X.Y.Z.`. +.+++@+                      ",
"                                                                "};
