/* XPM */
static const char * tree_icon4_xpm[] = {
"16 16 91 1",
" 	c None",
".	c #C9C9C9",
"+	c #DDDDDD",
"@	c #C2C2C2",
"#	c #939393",
"$	c #989898",
"%	c #CBCBCB",
"&	c #DCDCDC",
"*	c #C8C8C8",
"=	c #C0C0C0",
"-	c #D6D6D6",
";	c #DFDFDF",
">	c #DEDEDE",
",	c #A8A8A8",
"'	c #868686",
")	c #888888",
"!	c #B4B4B4",
"~	c #D5D5D5",
"{	c #BEBEBE",
"]	c #B5B5B5",
"^	c #C6C6C6",
"/	c #B3B3B3",
"(	c #A2A2A2",
"_	c #B9B9B9",
":	c #CACACA",
"<	c #C4C4C4",
"[	c #CCCCCC",
"}	c #A4A4A4",
"|	c #C5C5C5",
"1	c #9D9D9D",
"2	c #BABABA",
"3	c #A3A3A3",
"4	c #797979",
"5	c #6A6A6A",
"6	c #878787",
"7	c #C7C7C7",
"8	c #C1C1C1",
"9	c #696969",
"0	c #7C7C7C",
"a	c #9E9E9E",
"b	c #AEAEAE",
"c	c #B7B7B7",
"d	c #969696",
"e	c #979797",
"f	c #929292",
"g	c #AAAAAA",
"h	c #AFAFAF",
"i	c #CDCDCD",
"j	c #CFCFCF",
"k	c #CECECE",
"l	c #A1A1A1",
"m	c #D2D2D2",
"n	c #6D6D6D",
"o	c #535353",
"p	c #686868",
"q	c #BFBFBF",
"r	c #818181",
"s	c #5B5B5B",
"t	c #757575",
"u	c #E5E5E5",
"v	c #D8D8D8",
"w	c #606060",
"x	c #2D2D2D",
"y	c #494949",
"z	c #BCBCBC",
"A	c #D7D7D7",
"B	c #646464",
"C	c #2A2A2A",
"D	c #4B4B4B",
"E	c #E0E0E0",
"F	c #A7A7A7",
"G	c #6F6F6F",
"H	c #676767",
"I	c #DBDBDB",
"J	c #DADADA",
"K	c #EFEFEF",
"L	c #F2F2F2",
"M	c #E7E7E7",
"N	c #E2E2E2",
"O	c #9C9C9C",
"P	c #666666",
"Q	c #E6E6E6",
"R	c #767676",
"S	c #595959",
"T	c #5A5A5A",
"U	c #5C5C5C",
"V	c #6C6C6C",
"W	c #656565",
"X	c #565656",
"Y	c #4A4A4A",
"Z	c #4C4C4C",
"                ",
"                ",
"    .+@#$%&*    ",
"  =-;>,')!;>~{  ",
" ]^/(_:<^[_}]|( ",
"123456=^78690a$ ",
"b8cde]|**^!dfgh(",
"c[ii:8:jjk@|:.7b",
"lm;jnopqmros!>ie",
"t/uvwxyzABCD/EFG",
" HF~uIJKLMEN[OP ",
"  P4,iNMQE*lRB  ",
"   STUHnVWssX   ",
"      YZZy      ",
"                ",
"                "};
