/* XPM */
static const char * tree_icon8_xpm[] = {
"16 16 109 2",
"  	c None",
". 	c #CBE7F5",
"+ 	c #A6D8F0",
"@ 	c #8CCEEF",
"# 	c #82CBEF",
"$ 	c #8ECFEF",
"% 	c #ACDAF1",
"& 	c #D1EAF6",
"* 	c #C6E4F2",
"= 	c #91CCEA",
"- 	c #70BDE4",
"; 	c #69BBE3",
"> 	c #6EBDE5",
", 	c #71BEE5",
"' 	c #6DBDE5",
") 	c #69BAE3",
"! 	c #72BEE5",
"~ 	c #98CFEB",
"{ 	c #C9E5F2",
"] 	c #E8F3F9",
"^ 	c #BDE0F1",
"/ 	c #A0D3ED",
"( 	c #ABD8EF",
"_ 	c #C0E2F2",
": 	c #D6EBF6",
"< 	c #E4F2F9",
"[ 	c #E8F4F9",
"} 	c #E2F1F9",
"| 	c #D2EAF4",
"1 	c #BDE0F2",
"2 	c #A3D5ED",
"3 	c #9CD1EB",
"4 	c #C3E3F1",
"5 	c #D9ECF7",
"6 	c #CDE7F4",
"7 	c #DDEEF6",
"8 	c #F2F8FA",
"9 	c #FBFCFB",
"0 	c #D1ECF8",
"a 	c #CAE9F8",
"b 	c #D5EDF8",
"c 	c #EBF5F9",
"d 	c #FBFCFC",
"e 	c #EEF6F9",
"f 	c #DAEDF6",
"g 	c #CCE6F4",
"h 	c #DCEEF7",
"i 	c #AFDAEF",
"j 	c #82C6E8",
"k 	c #65BAE4",
"l 	c #5FB8E5",
"m 	c #67BAE4",
"n 	c #83C6E9",
"o 	c #B3DCF0",
"p 	c #E5F2F8",
"q 	c #DBEEF6",
"r 	c #ACD9EF",
"s 	c #9ED2EC",
"t 	c #BADFF1",
"u 	c #BEE1F2",
"v 	c #B8DEF1",
"w 	c #A8D8EF",
"x 	c #9BD1EC",
"y 	c #B4DCF0",
"z 	c #E1F0F7",
"A 	c #DBEEF7",
"B 	c #E7F3F8",
"C 	c #F8FBFC",
"D 	c #FDFDFD",
"E 	c #FBFDFC",
"F 	c #FDFDFC",
"G 	c #F6FAFB",
"H 	c #E5F2F9",
"I 	c #DAEDF7",
"J 	c #DFF0F7",
"K 	c #E2F1F8",
"L 	c #B8DFF2",
"M 	c #ACDBF2",
"N 	c #BDE1F4",
"O 	c #E8F4FA",
"P 	c #D7ECF5",
"Q 	c #A5D5EE",
"R 	c #8FCBEA",
"S 	c #98D0EB",
"T 	c #93CDEB",
"U 	c #ADD9EE",
"V 	c #E0F0F7",
"W 	c #EAF5F9",
"X 	c #EAF4F9",
"Y 	c #E1F0F8",
"Z 	c #EAF5FA",
"` 	c #E2F4F8",
" .	c #E4F1F5",
"..	c #8DD6E9",
"+.	c #6DD7EC",
"@.	c #97D7E9",
"#.	c #BADBE9",
"$.	c #4FB5D6",
"%.	c #57C8E4",
"&.	c #51B1D3",
"*.	c #CFE5EF",
"=.	c #C0D9E7",
"-.	c #3F95BF",
";.	c #3F9CC6",
">.	c #4E9CC3",
",.	c #D7E6EF",
"'.	c #85AEC6",
").	c #5C96B8",
"!.	c #92B6CA",
"                                ",
"          . + @ # $ % &         ",
"      * = - ; > , ' ) ! ~ {     ",
"  ] ^ / ( _ : < [ } | 1 2 3 4   ",
"  5 6 7 8 9 [ 0 a b c d e f g 7 ",
"        h i j k l m n o p       ",
"      q r s i t u v w x y z     ",
"      q A B C D E F G H I J     ",
"            K L M N O           ",
"          P Q R S T U V         ",
"          p K W   X Y Z         ",
"                `               ",
"             ...+.@.            ",
"            #.$.%.&.*.          ",
"            =.-.;.>.,.          ",
"              '.).!.            "};
