/* XPM */
static const char * tree_icon6_xpm[] = {
"16 16 4 1",
" 	c None",
".	c #000000",
"+	c #292C30",
"@	c #4C5562",
"  .........  .. ",
" .++++++++. .@. ",
" .++++++++..@@. ",
" .++++++++.@@@. ",
" .++++++++..@@. ",
" .++++++++. .@. ",
"  .........  .. ",
"              . ",
"  .........  .. ",
" .++++++++. .@. ",
" .++++++++..@@. ",
" .++++++++.@@@. ",
" .++++++++..@@. ",
" .++++++++. .@. ",
"  .........  .. ",
"              . "};
