/* XPM */
static const char * tree_icon7_xpm[] = {
"16 16 125 2",
"  	c None",
". 	c #4A494A",
"+ 	c #454546",
"@ 	c #413F42",
"# 	c #3C3D3F",
"$ 	c #444242",
"% 	c #3F3D3E",
"& 	c #413E40",
"* 	c #434140",
"= 	c #433F41",
"- 	c #434344",
"; 	c #353639",
"> 	c #494949",
", 	c #494645",
"' 	c #414042",
") 	c #403F40",
"! 	c #454243",
"~ 	c #454342",
"{ 	c #454343",
"] 	c #3D3D40",
"^ 	c #414953",
"/ 	c #36373A",
"( 	c #444140",
"_ 	c #464342",
": 	c #434143",
"< 	c #43464A",
"[ 	c #333337",
"} 	c #3A3A3E",
"| 	c #586470",
"1 	c #3F434B",
"2 	c #312F32",
"3 	c #28272B",
"4 	c #313233",
"5 	c #2E2E33",
"6 	c #32353B",
"7 	c #2F3946",
"8 	c #38475C",
"9 	c #58585F",
"0 	c #263648",
"a 	c #131E29",
"b 	c #212C38",
"c 	c #222F3E",
"d 	c #393F4D",
"e 	c #5B6169",
"f 	c #5C5655",
"g 	c #213141",
"h 	c #102F46",
"i 	c #1E3245",
"j 	c #2D2B2D",
"k 	c #474442",
"l 	c #908781",
"m 	c #515659",
"n 	c #47494C",
"o 	c #4C4846",
"p 	c #1D1E20",
"q 	c #1A2125",
"r 	c #1C2329",
"s 	c #343132",
"t 	c #484645",
"u 	c #666462",
"v 	c #656765",
"w 	c #5A636C",
"x 	c #464443",
"y 	c #1E2023",
"z 	c #171E21",
"A 	c #20252A",
"B 	c #312C2C",
"C 	c #3C3A3B",
"D 	c #282C33",
"E 	c #414347",
"F 	c #625F5C",
"G 	c #5D5E5D",
"H 	c #4C535A",
"I 	c #1F2226",
"J 	c #171C20",
"K 	c #1C2124",
"L 	c #454A55",
"M 	c #5B6779",
"N 	c #8A9397",
"O 	c #4C5056",
"P 	c #464647",
"Q 	c #5A5854",
"R 	c #525353",
"S 	c #313439",
"T 	c #27282D",
"U 	c #4C5561",
"V 	c #8E8C72",
"W 	c #C0A85B",
"X 	c #9E833B",
"Y 	c #3A3C3F",
"Z 	c #434546",
"` 	c #3F4142",
" .	c #585653",
"..	c #303336",
"+.	c #242930",
"@.	c #58523D",
"#.	c #A78837",
"$.	c #78693E",
"%.	c #3E3F3B",
"&.	c #32363B",
"*.	c #3D4245",
"=.	c #3E4040",
"-.	c #414242",
";.	c #2C3033",
">.	c #292E32",
",.	c #3A3D3D",
"'.	c #30353A",
").	c #222B36",
"!.	c #2C3237",
"~.	c #2F3235",
"{.	c #414447",
"].	c #3A3B3C",
"^.	c #282D30",
"/.	c #262C2F",
"(.	c #2F3337",
"_.	c #2A2E33",
":.	c #2F3336",
"<.	c #363A3D",
"[.	c #48494B",
"}.	c #323536",
"|.	c #2E3134",
"1.	c #303338",
"2.	c #34363A",
"3.	c #3A3E40",
"4.	c #3B3F41",
"              . + @             ",
"        # $ % & * = -           ",
"        ; > , ' ) ! ~ { ]       ",
"        ^ / - ( _ : < [ }       ",
"        | 1 2 3 4 5 6 7 8       ",
"          9 0 a b c d e         ",
"          f g h i j k l         ",
"      m n o p q r s t u         ",
"      v w x y z A B C D E       ",
"      F G H I J K L M N O       ",
"      P Q R S T U V W X Y       ",
"      Z `  ...+.@.#.$.%.&.*.    ",
"        =.-.;.>.,.'.).!.~.{.    ",
"          ].^./.(._.:.<.        ",
"          [.}.|.1.2.            ",
"            3.4.                "};
