/* XPM */
static const char * tree_icon12_xpm[] = {
"16 16 91 1",
" 	c None",
".	c #878C90",
"+	c #737577",
"@	c #75777A",
"#	c #7D8184",
"$	c #82868A",
"%	c #6C6F70",
"&	c #808487",
"*	c #707173",
"=	c #888889",
"-	c #949190",
";	c #9EA2A7",
">	c #828689",
",	c #757778",
"'	c #868C91",
")	c #8F8987",
"!	c #949696",
"~	c #808386",
"{	c #797F85",
"]	c #8A8A88",
"^	c #868A8F",
"/	c #7D848C",
"(	c #777C84",
"_	c #8B807B",
":	c #797A7A",
"<	c #66696E",
"[	c #898D91",
"}	c #858B90",
"|	c #9FA4A5",
"1	c #B8AD92",
"2	c #948D7D",
"3	c #A0977E",
"4	c #C7AD7A",
"5	c #B79F73",
"6	c #BEA774",
"7	c #BBA473",
"8	c #BCA778",
"9	c #938D7A",
"0	c #707375",
"a	c #878B8E",
"b	c #74797F",
"c	c #8A8C8C",
"d	c #A6997B",
"e	c #8B826D",
"f	c #A59775",
"g	c #D0B16D",
"h	c #CFB06E",
"i	c #D7B672",
"j	c #DBBD79",
"k	c #D8BD7F",
"l	c #B7AB8D",
"m	c #94999C",
"n	c #92979D",
"o	c #81878B",
"p	c #787C81",
"q	c #76797E",
"r	c #707172",
"s	c #666A6B",
"t	c #676968",
"u	c #6E6E6A",
"v	c #727370",
"w	c #7B7C78",
"x	c #848583",
"y	c #90928F",
"z	c #989D9F",
"A	c #A1A7AD",
"B	c #8A8F92",
"C	c #8A8D8F",
"D	c #95999D",
"E	c #777A7E",
"F	c #7D8187",
"G	c #8D8884",
"H	c #8F9293",
"I	c #83878B",
"J	c #878B8D",
"K	c #767B81",
"L	c #928981",
"M	c #9A9C9A",
"N	c #7C7F83",
"O	c #888C8E",
"P	c #7F858A",
"Q	c #908A86",
"R	c #878B8F",
"S	c #888C90",
"T	c #989CA1",
"U	c #9A9EA3",
"V	c #9FA3A9",
"W	c #7A7D82",
"X	c #828687",
"Y	c #7A7E83",
"Z	c #8B8E92",
"       .        ",
"    +@   #$     ",
"   %       &    ",
"  *   =-;   >   ",
" ,   ') !    >  ",
" ~   {  ]       ",
" ^  /( _:<    [ ",
" }|1234567890 a ",
" bcdefghijklmno ",
" pqrstuvwxyzA B ",
" CD EF GH     I ",
"  J  K LM    N  ",
"   O P Q     R  ",
"    STUV    W   ",
"     XS   YY    ",
"       Z        "};
