/* XPM */
static const char * main_icon_xpm[] = {
"32 32 280 2",
"  	c None",
". 	c #828282",
"+ 	c #7C7C7C",
"@ 	c #797979",
"# 	c #8C8C8C",
"$ 	c #6F6F6F",
"% 	c #676767",
"& 	c #666666",
"* 	c #727272",
"= 	c #6A6A6A",
"- 	c #707070",
"; 	c #787878",
"> 	c #717171",
", 	c #6C6C6C",
"' 	c #686868",
") 	c #5A845A",
"! 	c #6C776C",
"~ 	c #757575",
"{ 	c #696969",
"] 	c #747D74",
"^ 	c #6D6E6D",
"/ 	c #6D6D6D",
"( 	c #747474",
"_ 	c #6E6E6E",
": 	c #6B6B6B",
"< 	c #6F6C6F",
"[ 	c #578B57",
"} 	c #5E7E5E",
"| 	c #696669",
"1 	c #658C65",
"2 	c #646464",
"3 	c #6E6F6E",
"4 	c #767376",
"5 	c #4A964A",
"6 	c #687968",
"7 	c #716F71",
"8 	c #737373",
"9 	c #788678",
"0 	c #599259",
"a 	c #686468",
"b 	c #656565",
"c 	c #777777",
"d 	c #666566",
"e 	c #4A8D4A",
"f 	c #6F706F",
"g 	c #777177",
"h 	c #40A140",
"i 	c #6B646B",
"j 	c #686767",
"k 	c #676462",
"l 	c #686964",
"m 	c #626271",
"n 	c #7A7E78",
"o 	c #518C51",
"p 	c #617461",
"q 	c #767176",
"r 	c #44A444",
"s 	c #6F676F",
"t 	c #636363",
"u 	c #6E6E69",
"v 	c #7D776A",
"w 	c #7A4267",
"x 	c #4936AE",
"y 	c #1919D1",
"z 	c #66718F",
"A 	c #657564",
"B 	c #6D6A6D",
"C 	c #6D6C6E",
"D 	c #538253",
"E 	c #5A755A",
"F 	c #6A6A65",
"G 	c #6B6B61",
"H 	c #4F4F8C",
"I 	c #201FD8",
"J 	c #0E04E5",
"K 	c #0200BF",
"L 	c #000080",
"M 	c #080782",
"N 	c #666678",
"O 	c #646463",
"P 	c #767676",
"Q 	c #717071",
"R 	c #6F6B6F",
"S 	c #6C6E6C",
"T 	c #836A6A",
"U 	c #776C71",
"V 	c #579457",
"W 	c #656564",
"X 	c #636368",
"Y 	c #606071",
"Z 	c #4040A4",
"` 	c #0C0CE7",
" .	c #0000E7",
"..	c #0000AC",
"+.	c #040469",
"@.	c #1C1C4E",
"#.	c #535360",
"$.	c #00004D",
"%.	c #1D1D9F",
"&.	c #7A7A74",
"*.	c #5D715D",
"=.	c #439943",
"-.	c #696B69",
";.	c #6C6363",
">.	c #954C4F",
",.	c #488B4F",
"'.	c #686865",
").	c #75756B",
"!.	c #616178",
"~.	c #474796",
"{.	c #2A2ABF",
"].	c #0505E1",
"^.	c #0000CA",
"/.	c #00008B",
"(.	c #14145E",
"_.	c #2D2D4D",
":.	c #545459",
"<.	c #757571",
"[.	c #696967",
"}.	c #2B2B4B",
"|.	c #00007D",
"1.	c #525280",
"2.	c #5D895D",
"3.	c #558C55",
"4.	c #6E656E",
"5.	c #6D7070",
"6.	c #986F71",
"7.	c #687F46",
"8.	c #767669",
"9.	c #5B5B87",
"0.	c #2F2FC6",
"a.	c #1414E4",
"b.	c #0101D3",
"c.	c #0000A0",
"d.	c #000068",
"e.	c #2A2A59",
"f.	c #4D4D5C",
"g.	c #5C5C5F",
"h.	c #686866",
"i.	c #666665",
"j.	c #58585E",
"k.	c #000047",
"l.	c #20208F",
"m.	c #787876",
"n.	c #6E6D6E",
"o.	c #706C70",
"p.	c #4F914F",
"q.	c #5E7A5E",
"r.	c #6F6E6F",
"s.	c #7A7C7C",
"t.	c #6A554B",
"u.	c #4F50F2",
"v.	c #0000F0",
"w.	c #0000BF",
"x.	c #00007E",
"y.	c #05054E",
"z.	c #373752",
"A.	c #626264",
"B.	c #747472",
"C.	c #282847",
"D.	c #000077",
"E.	c #707089",
"F.	c #6B7469",
"G.	c #409F40",
"H.	c #636963",
"I.	c #7A7B7A",
"J.	c #2A144A",
"K.	c #3D3DB5",
"L.	c #06066D",
"M.	c #1A1A4C",
"N.	c #4D4D5A",
"O.	c #6D6D69",
"P.	c #737371",
"Q.	c #00004A",
"R.	c #2E2EAA",
"S.	c #62A25B",
"T.	c #6A616A",
"U.	c #7A7A79",
"V.	c #171864",
"W.	c #000037",
"X.	c #52525C",
"Y.	c #70706D",
"Z.	c #747473",
"`.	c #3D3B51",
" +	c #291B74",
".+	c #756F70",
"++	c #696968",
"@+	c #2B2B4D",
"#+	c #000032",
"$+	c #5D5D61",
"%+	c #656464",
"&+	c #58546A",
"*+	c #5A5A7C",
"=+	c #353554",
"-+	c #56565E",
";+	c #656566",
">+	c #515185",
",+	c #6A6A69",
"'+	c #42425B",
")+	c #555561",
"!+	c #565685",
"~+	c #626272",
"{+	c #4B4B5F",
"]+	c #464656",
"^+	c #6C6C6B",
"/+	c #45459D",
"(+	c #6B6B67",
"_+	c #4C4C5D",
":+	c #000033",
"<+	c #3F3F53",
"[+	c #61616E",
"}+	c #58587B",
"|+	c #4E4E5A",
"1+	c #3A3A50",
"2+	c #656567",
"3+	c #525283",
"4+	c #666664",
"5+	c #5A5A62",
"6+	c #35354F",
"7+	c #62626D",
"8+	c #6D6D6C",
"9+	c #5E5E63",
"0+	c #292947",
"a+	c #222244",
"b+	c #6B6B68",
"c+	c #030334",
"d+	c #1A1A40",
"e+	c #13133C",
"f+	c #12123D",
"g+	c #757573",
"h+	c #252547",
"i+	c #080837",
"j+	c #686867",
"k+	c #7F7F7F",
"l+	c #727273",
"m+	c #32324C",
"n+	c #676766",
"o+	c #878787",
"p+	c #7E7E7E",
"q+	c #65656A",
"r+	c #5E5F65",
"s+	c #434355",
"t+	c #00002F",
"u+	c #625D61",
"v+	c #606064",
"w+	c #53535C",
"x+	c #00002B",
"y+	c #5D5D60",
"z+	c #7B7B7B",
"A+	c #655659",
"B+	c #645D60",
"C+	c #636365",
"D+	c #131345",
"E+	c #76767E",
"F+	c #808080",
"G+	c #858585",
"H+	c #5E625A",
"I+	c #6D6A6A",
"J+	c #656465",
"K+	c #666766",
"L+	c #6A726A",
"M+	c #687668",
"N+	c #1A1B49",
"O+	c #7A7A86",
"P+	c #5A6B5B",
"Q+	c #6E796E",
"R+	c #6A896A",
"S+	c #6C896C",
"T+	c #6D866D",
"U+	c #687F68",
"V+	c #687E68",
"W+	c #4C4D5D",
"X+	c #646466",
"Y+	c #7E7D7E",
"Z+	c #7E957E",
"`+	c #617B61",
" @	c #666C66",
".@	c #676B67",
"+@	c #666A66",
"@@	c #656665",
". + @ # $ % & * & % = - - - ; - - > > & % , ' % % - ) ! > ~ > - ",
"* { { { ] ^ / ( _ / , * % = : > = = $ > / , ( $ < [ } | = _ - = ",
"- ' ' % 1 2 3 $ ( _ $ > $ { { , = ' ' : 2 = $ 4 5 6 7 8 ' { : > ",
"@ > > > 9 0 a & , & & & : b b - c > > * @ = d e f b & & > b & > ",
"_ 2 b % g h i ' - - - - c - - & : j k l m n o p = 8 $ - - ~ $ b ",
"~ / / : q r s : - t 2 2 b $ , / u v w x y z A B : { { 2 2 % $ / ",
"- % & b C D E { > @ - > - 8 F G H I J K L M N O b - P * > Q R S ",
"- ' * > T U V , 2 > W W X Y Z `  ...+.@.#.$.%.&.> & b : b *.=.-.",
"P , 2 2 ;.>.,.2 '.).!.~.{.].^./.(._.:.<.[.}.|.1.b b b -.2.3.4.= ",
"_ 2 b _ 5.6.7.8.9.0.a.b.c.d.e.f.g.h.i.: b j.k.l.m.n.o.p.q.r.{ { ",
"; > > % b s.t.u.v.w.x.y.z.A.2 - 2 * > 8 ~ B.C.D.E.F.G.H.d : ' b ",
", b 2 b 2 I.J.K.L.M.N.O.P.- - ( * 2 b 2 $ b i.Q.R.S.T.' ' % _ _ ",
"% ' / / , U.V.W.X.Y.Z./ b b b % ' b b b b : / `. +.+( , , , , _ ",
"8 > % ' ' ++@+#+$+b b - b b b b $ { > - - P % %+&+*+{ { b b b & ",
"' % & b b i.=+#+-+& b > ' * > - ~ $ b b b & $ b ;+>+i._ b & & & ",
"' % b ' = ,+'+#+)+_ _ > $ 2 b b 2 $ & & & b : ' b !+~+,+* : $ _ ",
"> - $ : = { {+#+]+b b & { & & & b { & b 2 , _ ( _ ^+/+(+, , b b ",
"{ ' & & b b _+:+<+& & & , b b b % ( ( > * ' & , ' i.[+}+b / & b ",
"' ' & & b b |+:+1+' ' % ( - - - $ 2 - 2 b b & 2 > b 2+3+4+2 - & ",
"' % b 2 / , 5+:+6+/ / , _ ' b b b b ' : b & & b & = b 7+8+, / - ",
"8 > - > % ' 9+:+0+i.b b b - b & & & b / b b b & - c $ _ ' ' ' / ",
"' % b b & & b :+a+& & b b - b & & & & = * > > $ b % , b & & & b ",
"' ' & & & & b+c+d+& b b { = / = _ $ $ $ , 2 b b & b _ & & & & & ",
"' ' & & b b [.e+f+$ _ _ : , _ = & b b 2 $ & b & & & b , b & b 2 ",
"' % b b , > g+h+i+j+& & & b $ b b & & b b / b & & & b / t 2 * k+",
"/ l+- > = b h.m+:+n+& & & b $ b b & & b b , b % { { = + o+p+- 2 ",
"q+r+b b b & n+s+t+j+b & & b { , 2 2 2 % 8 P 8 ( c ~ ~ 2 ' & b & ",
"u+v+& & & & n+w+x+y+& & b 2 t _ P + z+; / , P % b b b b & / b & ",
"A+B+b & & b & C+D+E+W & : F+F+G+/ b b b b b , % & & & & b : { b ",
"H+I+2 J+J+K+L+M+N+O+z+z+P t 2 & % & & & & & b / b & & & & 2 $ & ",
"P+_ Q+R+S+T+U+V+W+X+2 2 2 & & % = b & & & & b , b & & & b b % , ",
"Y+Z+`+ @.@+@@@b * b ;+& & & & b - b & & & & & { { b & b { > - ( "};
