<?xml version="1.0" encoding="UTF-8" standalone="no"?>
<!DOCTYPE svg PUBLIC "-//W3C//DTD SVG 1.1//EN"
 "http://www.w3.org/Graphics/SVG/1.1/DTD/svg11.dtd">
<!-- Generated by graphviz version 2.40.1 (20161225.0304)
 -->
<!-- Title: MRPT_LIBS Pages: 1 -->
<svg width="597pt" height="908pt"
 viewBox="0.00 0.00 597.00 908.00" xmlns="http://www.w3.org/2000/svg" xmlns:xlink="http://www.w3.org/1999/xlink">
<g id="graph0" class="graph" transform="scale(1 1) rotate(0) translate(4 904)">
<title>MRPT_LIBS</title>
<polygon fill="#ffffff" stroke="transparent" points="-4,4 -4,-904 593,-904 593,4 -4,4"/>
<!-- bayes -->
<g id="node1" class="node">
<title>bayes</title>
<g id="a_node1"><a xlink:href="group__mrpt__bayes__grp.html" xlink:title="mrpt&#45;bayes">
<polygon fill="#d0d0d0" stroke="#000000" points="276.5,-396 198.5,-396 198.5,-360 276.5,-360 276.5,-396"/>
<text text-anchor="middle" x="237.5" y="-374.3" font-family="Times,serif" font-size="14.00" fill="#000000">mrpt&#45;bayes</text>
</a>
</g>
</g>
<!-- math -->
<g id="node2" class="node">
<title>math</title>
<g id="a_node2"><a xlink:href="group__mrpt__math__grp.html" xlink:title="mrpt&#45;math">
<polygon fill="#d0d0d0" stroke="#000000" points="222,-252 147,-252 147,-216 222,-216 222,-252"/>
<text text-anchor="middle" x="184.5" y="-230.3" font-family="Times,serif" font-size="14.00" fill="#000000">mrpt&#45;math</text>
</a>
</g>
</g>
<!-- bayes&#45;&gt;math -->
<g id="edge1" class="edge">
<title>bayes&#45;&gt;math</title>
<path fill="none" stroke="#000000" d="M230.7875,-359.7623C221.668,-334.9846 205.2846,-290.4714 194.6561,-261.5939"/>
<polygon fill="#000000" stroke="#000000" points="197.8967,-260.2652 191.158,-252.0896 191.3275,-262.6831 197.8967,-260.2652"/>
</g>
<!-- config -->
<g id="node3" class="node">
<title>config</title>
<g id="a_node3"><a xlink:href="group__mrpt__config__grp.html" xlink:title="mrpt&#45;config">
<polygon fill="#d0d0d0" stroke="#000000" points="370.5,-324 288.5,-324 288.5,-288 370.5,-288 370.5,-324"/>
<text text-anchor="middle" x="329.5" y="-302.3" font-family="Times,serif" font-size="14.00" fill="#000000">mrpt&#45;config</text>
</a>
</g>
</g>
<!-- bayes&#45;&gt;config -->
<g id="edge2" class="edge">
<title>bayes&#45;&gt;config</title>
<path fill="none" stroke="#000000" d="M260.7155,-359.8314C272.047,-350.9632 285.8464,-340.1637 298.1027,-330.5718"/>
<polygon fill="#000000" stroke="#000000" points="300.574,-333.0822 306.2919,-324.1628 296.2598,-327.5697 300.574,-333.0822"/>
</g>
<!-- system -->
<g id="node7" class="node">
<title>system</title>
<g id="a_node7"><a xlink:href="group__mrpt__system__grp.html" xlink:title="mrpt&#45;system">
<polygon fill="#d0d0d0" stroke="#000000" points="431.5,-180 345.5,-180 345.5,-144 431.5,-144 431.5,-180"/>
<text text-anchor="middle" x="388.5" y="-158.3" font-family="Times,serif" font-size="14.00" fill="#000000">mrpt&#45;system</text>
</a>
</g>
</g>
<!-- math&#45;&gt;system -->
<g id="edge30" class="edge">
<title>math&#45;&gt;system</title>
<path fill="none" stroke="#000000" d="M222.1661,-219.44C225.3185,-218.2624 228.4609,-217.1026 231.5,-216 275.0678,-200.1941 288.28,-196.4952 335.7507,-180.2445"/>
<polygon fill="#000000" stroke="#000000" points="337.0525,-183.4982 345.3732,-176.9395 334.7785,-176.8778 337.0525,-183.4982"/>
</g>
<!-- serialization -->
<g id="node11" class="node">
<title>serialization</title>
<g id="a_node11"><a xlink:href="group__mrpt__serialization__grp.html" xlink:title="mrpt&#45;serialization">
<polygon fill="#d0d0d0" stroke="#000000" points="327,-180 214,-180 214,-144 327,-144 327,-180"/>
<text text-anchor="middle" x="270.5" y="-158.3" font-family="Times,serif" font-size="14.00" fill="#000000">mrpt&#45;serialization</text>
</a>
</g>
</g>
<!-- math&#45;&gt;serialization -->
<g id="edge28" class="edge">
<title>math&#45;&gt;serialization</title>
<path fill="none" stroke="#000000" d="M206.2014,-215.8314C216.6921,-207.0485 229.4455,-196.3712 240.8194,-186.8489"/>
<polygon fill="#000000" stroke="#000000" points="243.3847,-189.2659 248.8055,-180.1628 238.8911,-183.8986 243.3847,-189.2659"/>
</g>
<!-- random -->
<g id="node25" class="node">
<title>random</title>
<g id="a_node25"><a xlink:href="group__mrpt__random__grp.html" xlink:title="mrpt&#45;random">
<polygon fill="#d0d0d0" stroke="#000000" points="116,-36 27,-36 27,0 116,0 116,-36"/>
<text text-anchor="middle" x="71.5" y="-14.3" font-family="Times,serif" font-size="14.00" fill="#000000">mrpt&#45;random</text>
</a>
</g>
</g>
<!-- math&#45;&gt;random -->
<g id="edge29" class="edge">
<title>math&#45;&gt;random</title>
<path fill="none" stroke="#000000" d="M175.06,-215.9555C155.2435,-178.0762 109.2095,-90.0818 85.7684,-45.274"/>
<polygon fill="#000000" stroke="#000000" points="88.7293,-43.3834 80.9926,-36.1451 82.5268,-46.6282 88.7293,-43.3834"/>
</g>
<!-- nanoflann -->
<g id="node26" class="node">
<title>nanoflann</title>
<g id="a_node26"><a xlink:href="group__nanoflann__grp.html" xlink:title="mrpt&#45;nanoflann">
<polygon fill="#d0d0d0" stroke="#000000" points="235,-36 134,-36 134,0 235,0 235,-36"/>
<text text-anchor="middle" x="184.5" y="-14.3" font-family="Times,serif" font-size="14.00" fill="#000000">mrpt&#45;nanoflann</text>
</a>
</g>
</g>
<!-- math&#45;&gt;nanoflann -->
<g id="edge31" class="edge">
<title>math&#45;&gt;nanoflann</title>
<path fill="none" stroke="#000000" d="M184.5,-215.9555C184.5,-178.3938 184.5,-91.5541 184.5,-46.4103"/>
<polygon fill="#000000" stroke="#000000" points="188.0001,-46.145 184.5,-36.1451 181.0001,-46.1451 188.0001,-46.145"/>
</g>
<!-- expr -->
<g id="node6" class="node">
<title>expr</title>
<g id="a_node6"><a xlink:href="group__mrpt__expr__grp.html" xlink:title="mrpt&#45;expr">
<polygon fill="#d0d0d0" stroke="#000000" points="429,-252 358,-252 358,-216 429,-216 429,-252"/>
<text text-anchor="middle" x="393.5" y="-230.3" font-family="Times,serif" font-size="14.00" fill="#000000">mrpt&#45;expr</text>
</a>
</g>
</g>
<!-- config&#45;&gt;expr -->
<g id="edge4" class="edge">
<title>config&#45;&gt;expr</title>
<path fill="none" stroke="#000000" d="M345.6499,-287.8314C353.1717,-279.3694 362.2565,-269.1489 370.4804,-259.8971"/>
<polygon fill="#000000" stroke="#000000" points="373.1049,-262.2127 377.1327,-252.4133 367.873,-257.5621 373.1049,-262.2127"/>
</g>
<!-- config&#45;&gt;system -->
<g id="edge5" class="edge">
<title>config&#45;&gt;system</title>
<path fill="none" stroke="#000000" d="M331.3571,-287.7288C333.7544,-269.0447 338.9432,-239.5083 349.5,-216 353.8347,-206.3472 360.0531,-196.6961 366.2548,-188.2787"/>
<polygon fill="#000000" stroke="#000000" points="369.0558,-190.3778 372.3806,-180.3181 363.5082,-186.1088 369.0558,-190.3778"/>
</g>
<!-- comms -->
<g id="node4" class="node">
<title>comms</title>
<g id="a_node4"><a xlink:href="group__mrpt__comms__grp.html" xlink:title="mrpt&#45;comms">
<polygon fill="#d0d0d0" stroke="#000000" points="529.5,-468 441.5,-468 441.5,-432 529.5,-432 529.5,-468"/>
<text text-anchor="middle" x="485.5" y="-446.3" font-family="Times,serif" font-size="14.00" fill="#000000">mrpt&#45;comms</text>
</a>
</g>
</g>
<!-- io -->
<g id="node5" class="node">
<title>io</title>
<g id="a_node5"><a xlink:href="group__mrpt__io__grp.html" xlink:title="mrpt&#45;io">
<polygon fill="#d0d0d0" stroke="#000000" points="486.5,-324 428.5,-324 428.5,-288 486.5,-288 486.5,-324"/>
<text text-anchor="middle" x="457.5" y="-302.3" font-family="Times,serif" font-size="14.00" fill="#000000">mrpt&#45;io</text>
</a>
</g>
</g>
<!-- comms&#45;&gt;io -->
<g id="edge3" class="edge">
<title>comms&#45;&gt;io</title>
<path fill="none" stroke="#000000" d="M481.9538,-431.7623C477.1569,-407.0928 468.5561,-362.8598 462.9392,-333.9731"/>
<polygon fill="#000000" stroke="#000000" points="466.3619,-333.2377 461.0174,-324.0896 459.4905,-334.5738 466.3619,-333.2377"/>
</g>
<!-- io&#45;&gt;system -->
<g id="edge24" class="edge">
<title>io&#45;&gt;system</title>
<path fill="none" stroke="#000000" d="M456.5051,-287.8016C454.8397,-268.9141 450.3891,-238.9767 438.5,-216 433.1503,-205.6614 425.2754,-195.8419 417.3503,-187.4817"/>
<polygon fill="#000000" stroke="#000000" points="419.6688,-184.85 410.129,-180.2411 414.7125,-189.7932 419.6688,-184.85"/>
</g>
<!-- expr&#45;&gt;system -->
<g id="edge11" class="edge">
<title>expr&#45;&gt;system</title>
<path fill="none" stroke="#000000" d="M392.2383,-215.8314C391.7035,-208.131 391.0677,-198.9743 390.4734,-190.4166"/>
<polygon fill="#000000" stroke="#000000" points="393.9632,-190.1467 389.7787,-180.4133 386.98,-190.6317 393.9632,-190.1467"/>
</g>
<!-- containers -->
<g id="node8" class="node">
<title>containers</title>
<g id="a_node8"><a xlink:href="group__mrpt__containers__grp.html" xlink:title="mrpt&#45;containers">
<polygon fill="#d0d0d0" stroke="#000000" points="316,-108 213,-108 213,-72 316,-72 316,-108"/>
<text text-anchor="middle" x="264.5" y="-86.3" font-family="Times,serif" font-size="14.00" fill="#000000">mrpt&#45;containers</text>
</a>
</g>
</g>
<!-- system&#45;&gt;containers -->
<g id="edge47" class="edge">
<title>system&#45;&gt;containers</title>
<path fill="none" stroke="#000000" d="M357.2096,-143.8314C341.2023,-134.5368 321.5414,-123.1208 304.4506,-113.1971"/>
<polygon fill="#000000" stroke="#000000" points="306.1858,-110.1575 295.7804,-108.1628 302.6708,-116.211 306.1858,-110.1575"/>
</g>
<!-- typemeta -->
<g id="node32" class="node">
<title>typemeta</title>
<g id="a_node32"><a xlink:href="group__mrpt__typemeta__grp.html" xlink:title="mrpt&#45;typemeta (.h)">
<polygon fill="#d0d0d0" stroke="#000000" points="480,-36 359,-36 359,0 480,0 480,-36"/>
<text text-anchor="middle" x="419.5" y="-14.3" font-family="Times,serif" font-size="14.00" fill="#000000">mrpt&#45;typemeta (.h)</text>
</a>
</g>
</g>
<!-- system&#45;&gt;typemeta -->
<g id="edge46" class="edge">
<title>system&#45;&gt;typemeta</title>
<path fill="none" stroke="#000000" d="M395.4905,-143.7405C399.2245,-133.3869 403.6298,-120.1162 406.5,-108 411.3445,-87.5493 414.666,-64.0303 416.7384,-46.1644"/>
<polygon fill="#000000" stroke="#000000" points="420.2303,-46.4296 417.8431,-36.1072 413.2721,-45.6653 420.2303,-46.4296"/>
</g>
<!-- core -->
<g id="node9" class="node">
<title>core</title>
<g id="a_node9"><a xlink:href="group__mrpt__core__grp.html" xlink:title="mrpt&#45;core">
<polygon fill="#d0d0d0" stroke="#000000" points="330,-36 259,-36 259,0 330,0 330,-36"/>
<text text-anchor="middle" x="294.5" y="-14.3" font-family="Times,serif" font-size="14.00" fill="#000000">mrpt&#45;core</text>
</a>
</g>
</g>
<!-- containers&#45;&gt;core -->
<g id="edge6" class="edge">
<title>containers&#45;&gt;core</title>
<path fill="none" stroke="#000000" d="M272.0703,-71.8314C275.3493,-63.9617 279.262,-54.5712 282.8945,-45.8533"/>
<polygon fill="#000000" stroke="#000000" points="286.2124,-46.9902 286.8278,-36.4133 279.7508,-44.2979 286.2124,-46.9902"/>
</g>
<!-- db -->
<g id="node10" class="node">
<title>db</title>
<g id="a_node10"><a xlink:href="group__mrpt__db__grp.html" xlink:title="mrpt&#45;db">
<polygon fill="#d0d0d0" stroke="#000000" points="301,-252 240,-252 240,-216 301,-216 301,-252"/>
<text text-anchor="middle" x="270.5" y="-230.3" font-family="Times,serif" font-size="14.00" fill="#000000">mrpt&#45;db</text>
</a>
</g>
</g>
<!-- db&#45;&gt;system -->
<g id="edge8" class="edge">
<title>db&#45;&gt;system</title>
<path fill="none" stroke="#000000" d="M300.2764,-215.8314C315.3693,-206.6221 333.8757,-195.3301 350.0343,-185.4706"/>
<polygon fill="#000000" stroke="#000000" points="352.0198,-188.3593 358.7331,-180.1628 348.3737,-182.3838 352.0198,-188.3593"/>
</g>
<!-- db&#45;&gt;serialization -->
<g id="edge7" class="edge">
<title>db&#45;&gt;serialization</title>
<path fill="none" stroke="#000000" d="M270.5,-215.8314C270.5,-208.131 270.5,-198.9743 270.5,-190.4166"/>
<polygon fill="#000000" stroke="#000000" points="274.0001,-190.4132 270.5,-180.4133 267.0001,-190.4133 274.0001,-190.4132"/>
</g>
<!-- rtti -->
<g id="node31" class="node">
<title>rtti</title>
<g id="a_node31"><a xlink:href="group__mrpt__rtti__grp.html" xlink:title="mrpt&#45;rtti">
<polygon fill="#d0d0d0" stroke="#000000" points="397,-108 334,-108 334,-72 397,-72 397,-108"/>
<text text-anchor="middle" x="365.5" y="-86.3" font-family="Times,serif" font-size="14.00" fill="#000000">mrpt&#45;rtti</text>
</a>
</g>
</g>
<!-- serialization&#45;&gt;rtti -->
<g id="edge43" class="edge">
<title>serialization&#45;&gt;rtti</title>
<path fill="none" stroke="#000000" d="M294.4725,-143.8314C306.2861,-134.8779 320.6972,-123.9558 333.4435,-114.2955"/>
<polygon fill="#000000" stroke="#000000" points="335.6795,-116.9925 341.5352,-108.1628 331.4514,-111.4137 335.6795,-116.9925"/>
</g>
<!-- detectors -->
<g id="node12" class="node">
<title>detectors</title>
<g id="a_node12"><a xlink:href="group__mrpt__detectors__grp.html" xlink:title="mrpt&#45;detectors">
<polygon fill="#d0d0d0" stroke="#000000" points="399.5,-828 303.5,-828 303.5,-792 399.5,-792 399.5,-828"/>
<text text-anchor="middle" x="351.5" y="-806.3" font-family="Times,serif" font-size="14.00" fill="#000000">mrpt&#45;detectors</text>
</a>
</g>
</g>
<!-- gui -->
<g id="node13" class="node">
<title>gui</title>
<g id="a_node13"><a xlink:href="group__mrpt__gui__grp.html" xlink:title="mrpt&#45;gui">
<polygon fill="#d0d0d0" stroke="#000000" points="589,-684 524,-684 524,-648 589,-648 589,-684"/>
<text text-anchor="middle" x="556.5" y="-662.3" font-family="Times,serif" font-size="14.00" fill="#000000">mrpt&#45;gui</text>
</a>
</g>
</g>
<!-- detectors&#45;&gt;gui -->
<g id="edge9" class="edge">
<title>detectors&#45;&gt;gui</title>
<path fill="none" stroke="#000000" d="M399.7039,-802.7593C433.0974,-795.6512 476.8823,-781.9325 507.5,-756 526.8946,-739.5732 539.9026,-713.4519 547.6122,-693.5722"/>
<polygon fill="#000000" stroke="#000000" points="550.9259,-694.7013 551.0713,-684.1074 544.3512,-692.2984 550.9259,-694.7013"/>
</g>
<!-- slam -->
<g id="node14" class="node">
<title>slam</title>
<g id="a_node14"><a xlink:href="group__mrpt__slam__grp.html" xlink:title="mrpt&#45;slam">
<polygon fill="#d0d0d0" stroke="#000000" points="293.5,-756 219.5,-756 219.5,-720 293.5,-720 293.5,-756"/>
<text text-anchor="middle" x="256.5" y="-734.3" font-family="Times,serif" font-size="14.00" fill="#000000">mrpt&#45;slam</text>
</a>
</g>
</g>
<!-- detectors&#45;&gt;slam -->
<g id="edge10" class="edge">
<title>detectors&#45;&gt;slam</title>
<path fill="none" stroke="#000000" d="M327.5275,-791.8314C315.7139,-782.8779 301.3028,-771.9558 288.5565,-762.2955"/>
<polygon fill="#000000" stroke="#000000" points="290.5486,-759.4137 280.4648,-756.1628 286.3205,-764.9925 290.5486,-759.4137"/>
</g>
<!-- opengl -->
<g id="node16" class="node">
<title>opengl</title>
<g id="a_node16"><a xlink:href="group__mrpt__opengl__grp.html" xlink:title="mrpt&#45;opengl">
<polygon fill="#d0d0d0" stroke="#000000" points="371.5,-540 287.5,-540 287.5,-504 371.5,-504 371.5,-540"/>
<text text-anchor="middle" x="329.5" y="-518.3" font-family="Times,serif" font-size="14.00" fill="#000000">mrpt&#45;opengl</text>
</a>
</g>
</g>
<!-- gui&#45;&gt;opengl -->
<g id="edge15" class="edge">
<title>gui&#45;&gt;opengl</title>
<path fill="none" stroke="#000000" d="M535.2208,-647.7697C512.259,-628.5858 474.1756,-598.1576 438.5,-576 419.9223,-564.4617 398.5388,-553.4221 379.6593,-544.3659"/>
<polygon fill="#000000" stroke="#000000" points="381.1517,-541.2 370.6156,-540.0859 378.1573,-547.5272 381.1517,-541.2"/>
</g>
<!-- maps -->
<g id="node20" class="node">
<title>maps</title>
<g id="a_node20"><a xlink:href="group__mrpt__maps__grp.html" xlink:title="mrpt&#45;maps">
<polygon fill="#d0d0d0" stroke="#000000" points="303,-684 226,-684 226,-648 303,-648 303,-684"/>
<text text-anchor="middle" x="264.5" y="-662.3" font-family="Times,serif" font-size="14.00" fill="#000000">mrpt&#45;maps</text>
</a>
</g>
</g>
<!-- slam&#45;&gt;maps -->
<g id="edge44" class="edge">
<title>slam&#45;&gt;maps</title>
<path fill="none" stroke="#000000" d="M258.5187,-719.8314C259.3743,-712.131 260.3917,-702.9743 261.3426,-694.4166"/>
<polygon fill="#000000" stroke="#000000" points="264.8283,-694.7386 262.4541,-684.4133 257.8711,-693.9656 264.8283,-694.7386"/>
</g>
<!-- vision -->
<g id="node21" class="node">
<title>vision</title>
<g id="a_node21"><a xlink:href="group__mrpt__vision__grp.html" xlink:title="mrpt&#45;vision">
<polygon fill="#d0d0d0" stroke="#000000" points="207.5,-684 127.5,-684 127.5,-648 207.5,-648 207.5,-684"/>
<text text-anchor="middle" x="167.5" y="-662.3" font-family="Times,serif" font-size="14.00" fill="#000000">mrpt&#45;vision</text>
</a>
</g>
</g>
<!-- slam&#45;&gt;vision -->
<g id="edge45" class="edge">
<title>slam&#45;&gt;vision</title>
<path fill="none" stroke="#000000" d="M234.0415,-719.8314C223.0795,-710.9632 209.7301,-700.1637 197.8735,-690.5718"/>
<polygon fill="#000000" stroke="#000000" points="199.9271,-687.7313 189.9513,-684.1628 195.5245,-693.1734 199.9271,-687.7313"/>
</g>
<!-- graphs -->
<g id="node15" class="node">
<title>graphs</title>
<g id="a_node15"><a xlink:href="group__mrpt__graphs__grp.html" xlink:title="mrpt&#45;graphs">
<polygon fill="#d0d0d0" stroke="#000000" points="304,-612 221,-612 221,-576 304,-576 304,-612"/>
<text text-anchor="middle" x="262.5" y="-590.3" font-family="Times,serif" font-size="14.00" fill="#000000">mrpt&#45;graphs</text>
</a>
</g>
</g>
<!-- graphs&#45;&gt;opengl -->
<g id="edge12" class="edge">
<title>graphs&#45;&gt;opengl</title>
<path fill="none" stroke="#000000" d="M279.4069,-575.8314C287.2813,-567.3694 296.792,-557.1489 305.4013,-547.8971"/>
<polygon fill="#000000" stroke="#000000" points="308.1153,-550.1183 312.3654,-540.4133 302.9908,-545.3497 308.1153,-550.1183"/>
</g>
<!-- img -->
<g id="node22" class="node">
<title>img</title>
<g id="a_node22"><a xlink:href="group__mrpt__img__grp.html" xlink:title="mrpt&#45;img">
<polygon fill="#d0d0d0" stroke="#000000" points="364,-396 295,-396 295,-360 364,-360 364,-396"/>
<text text-anchor="middle" x="329.5" y="-374.3" font-family="Times,serif" font-size="14.00" fill="#000000">mrpt&#45;img</text>
</a>
</g>
</g>
<!-- opengl&#45;&gt;img -->
<g id="edge38" class="edge">
<title>opengl&#45;&gt;img</title>
<path fill="none" stroke="#000000" d="M329.5,-503.7623C329.5,-479.201 329.5,-435.2474 329.5,-406.3541"/>
<polygon fill="#000000" stroke="#000000" points="333.0001,-406.0896 329.5,-396.0896 326.0001,-406.0897 333.0001,-406.0896"/>
</g>
<!-- poses -->
<g id="node29" class="node">
<title>poses</title>
<g id="a_node29"><a xlink:href="group__mrpt__poses__grp.html" xlink:title="mrpt&#45;poses">
<polygon fill="#d0d0d0" stroke="#000000" points="276,-468 199,-468 199,-432 276,-432 276,-468"/>
<text text-anchor="middle" x="237.5" y="-446.3" font-family="Times,serif" font-size="14.00" fill="#000000">mrpt&#45;poses</text>
</a>
</g>
</g>
<!-- opengl&#45;&gt;poses -->
<g id="edge37" class="edge">
<title>opengl&#45;&gt;poses</title>
<path fill="none" stroke="#000000" d="M306.2845,-503.8314C294.953,-494.9632 281.1536,-484.1637 268.8973,-474.5718"/>
<polygon fill="#000000" stroke="#000000" points="270.7402,-471.5697 260.7081,-468.1628 266.426,-477.0822 270.7402,-471.5697"/>
</g>
<!-- graphslam -->
<g id="node17" class="node">
<title>graphslam</title>
<g id="a_node17"><a xlink:href="group__mrpt__graphslam__grp.html" xlink:title="mrpt&#45;graphslam">
<polygon fill="#d0d0d0" stroke="#000000" points="568.5,-828 464.5,-828 464.5,-792 568.5,-792 568.5,-828"/>
<text text-anchor="middle" x="516.5" y="-806.3" font-family="Times,serif" font-size="14.00" fill="#000000">mrpt&#45;graphslam</text>
</a>
</g>
</g>
<!-- graphslam&#45;&gt;gui -->
<g id="edge13" class="edge">
<title>graphslam&#45;&gt;gui</title>
<path fill="none" stroke="#000000" d="M525.8538,-791.9295C530.8429,-781.6349 536.716,-768.3604 540.5,-756 546.6845,-735.7985 550.7636,-712.2696 553.2546,-694.3367"/>
<polygon fill="#000000" stroke="#000000" points="556.7495,-694.6025 554.5733,-684.2336 549.8084,-693.6964 556.7495,-694.6025"/>
</g>
<!-- graphslam&#45;&gt;slam -->
<g id="edge14" class="edge">
<title>graphslam&#45;&gt;slam</title>
<path fill="none" stroke="#000000" d="M464.3714,-798.5882C420.9505,-788.6534 357.6841,-773.1787 303.5,-756 303.3985,-755.9678 303.2969,-755.9355 303.1952,-755.9031"/>
<polygon fill="#000000" stroke="#000000" points="304.1521,-752.5323 293.5579,-752.6541 301.9157,-759.1654 304.1521,-752.5323"/>
</g>
<!-- hmtslam -->
<g id="node18" class="node">
<title>hmtslam</title>
<g id="a_node18"><a xlink:href="group__mrpt__hmtslam__grp.html" xlink:title="mrpt&#45;hmtslam">
<polygon fill="#d0d0d0" stroke="#000000" points="564,-900 469,-900 469,-864 564,-864 564,-900"/>
<text text-anchor="middle" x="516.5" y="-878.3" font-family="Times,serif" font-size="14.00" fill="#000000">mrpt&#45;hmtslam</text>
</a>
</g>
</g>
<!-- hmtslam&#45;&gt;graphslam -->
<g id="edge16" class="edge">
<title>hmtslam&#45;&gt;graphslam</title>
<path fill="none" stroke="#000000" d="M516.5,-863.8314C516.5,-856.131 516.5,-846.9743 516.5,-838.4166"/>
<polygon fill="#000000" stroke="#000000" points="520.0001,-838.4132 516.5,-828.4133 513.0001,-838.4133 520.0001,-838.4132"/>
</g>
<!-- hwdrivers -->
<g id="node19" class="node">
<title>hwdrivers</title>
<g id="a_node19"><a xlink:href="group__mrpt__hwdrivers__grp.html" xlink:title="mrpt&#45;hwdrivers">
<polygon fill="#d0d0d0" stroke="#000000" points="498,-756 397,-756 397,-720 498,-720 498,-756"/>
<text text-anchor="middle" x="447.5" y="-734.3" font-family="Times,serif" font-size="14.00" fill="#000000">mrpt&#45;hwdrivers</text>
</a>
</g>
</g>
<!-- hwdrivers&#45;&gt;comms -->
<g id="edge17" class="edge">
<title>hwdrivers&#45;&gt;comms</title>
<path fill="none" stroke="#000000" d="M449.8771,-719.9843C456.3015,-671.2939 474.0477,-536.7961 481.798,-478.0573"/>
<polygon fill="#000000" stroke="#000000" points="485.2856,-478.3808 483.1238,-468.0089 478.3457,-477.4651 485.2856,-478.3808"/>
</g>
<!-- hwdrivers&#45;&gt;gui -->
<g id="edge18" class="edge">
<title>hwdrivers&#45;&gt;gui</title>
<path fill="none" stroke="#000000" d="M475.0053,-719.8314C488.818,-710.7074 505.7256,-699.539 520.5529,-689.7449"/>
<polygon fill="#000000" stroke="#000000" points="522.5886,-692.5949 529.0035,-684.1628 518.7304,-686.7541 522.5886,-692.5949"/>
</g>
<!-- hwdrivers&#45;&gt;maps -->
<g id="edge19" class="edge">
<title>hwdrivers&#45;&gt;maps</title>
<path fill="none" stroke="#000000" d="M401.3214,-719.8314C374.2326,-709.1735 340.0537,-695.7261 312.6338,-684.9379"/>
<polygon fill="#000000" stroke="#000000" points="313.8268,-681.6462 303.2397,-681.2418 311.2639,-688.1601 313.8268,-681.6462"/>
</g>
<!-- hwdrivers&#45;&gt;vision -->
<g id="edge20" class="edge">
<title>hwdrivers&#45;&gt;vision</title>
<path fill="none" stroke="#000000" d="M396.7321,-722.1992C393.954,-721.4322 391.1966,-720.6937 388.5,-720 313.2833,-700.6493 292.2154,-705.204 217.5,-684 217.4002,-683.9717 217.3002,-683.9432 217.2002,-683.9147"/>
<polygon fill="#000000" stroke="#000000" points="218.3189,-680.5968 207.7327,-681.0232 216.2742,-687.2916 218.3189,-680.5968"/>
</g>
<!-- maps&#45;&gt;graphs -->
<g id="edge26" class="edge">
<title>maps&#45;&gt;graphs</title>
<path fill="none" stroke="#000000" d="M263.9953,-647.8314C263.7814,-640.131 263.5271,-630.9743 263.2894,-622.4166"/>
<polygon fill="#000000" stroke="#000000" points="266.7879,-622.3122 263.0115,-612.4133 259.7906,-622.5066 266.7879,-622.3122"/>
</g>
<!-- obs -->
<g id="node24" class="node">
<title>obs</title>
<g id="a_node24"><a xlink:href="group__mrpt__obs__grp.html" xlink:title="mrpt&#45;obs">
<polygon fill="#d0d0d0" stroke="#000000" points="202.5,-612 136.5,-612 136.5,-576 202.5,-576 202.5,-612"/>
<text text-anchor="middle" x="169.5" y="-590.3" font-family="Times,serif" font-size="14.00" fill="#000000">mrpt&#45;obs</text>
</a>
</g>
</g>
<!-- maps&#45;&gt;obs -->
<g id="edge27" class="edge">
<title>maps&#45;&gt;obs</title>
<path fill="none" stroke="#000000" d="M240.5275,-647.8314C228.7139,-638.8779 214.3028,-627.9558 201.5565,-618.2955"/>
<polygon fill="#000000" stroke="#000000" points="203.5486,-615.4137 193.4648,-612.1628 199.3205,-620.9925 203.5486,-615.4137"/>
</g>
<!-- vision&#45;&gt;obs -->
<g id="edge50" class="edge">
<title>vision&#45;&gt;obs</title>
<path fill="none" stroke="#000000" d="M168.0047,-647.8314C168.2186,-640.131 168.4729,-630.9743 168.7106,-622.4166"/>
<polygon fill="#000000" stroke="#000000" points="172.2094,-622.5066 168.9885,-612.4133 165.2121,-622.3122 172.2094,-622.5066"/>
</g>
<!-- img&#45;&gt;math -->
<g id="edge22" class="edge">
<title>img&#45;&gt;math</title>
<path fill="none" stroke="#000000" d="M311.1356,-359.7623C285.5322,-334.3354 239.0011,-288.1253 210.033,-259.3569"/>
<polygon fill="#000000" stroke="#000000" points="212.2771,-256.6528 202.7152,-252.0896 207.3445,-261.6196 212.2771,-256.6528"/>
</g>
<!-- img&#45;&gt;config -->
<g id="edge23" class="edge">
<title>img&#45;&gt;config</title>
<path fill="none" stroke="#000000" d="M329.5,-359.8314C329.5,-352.131 329.5,-342.9743 329.5,-334.4166"/>
<polygon fill="#000000" stroke="#000000" points="333.0001,-334.4132 329.5,-324.4133 326.0001,-334.4133 333.0001,-334.4132"/>
</g>
<!-- img&#45;&gt;io -->
<g id="edge21" class="edge">
<title>img&#45;&gt;io</title>
<path fill="none" stroke="#000000" d="M361.7998,-359.8314C379.2862,-349.9953 400.9965,-337.7832 419.3163,-327.4783"/>
<polygon fill="#000000" stroke="#000000" points="421.2748,-330.3925 428.2746,-322.4393 417.8429,-324.2914 421.2748,-330.3925"/>
</g>
<!-- kinematics -->
<g id="node23" class="node">
<title>kinematics</title>
<g id="a_node23"><a xlink:href="group__mrpt__kinematics__grp.html" xlink:title="mrpt&#45;kinematics">
<polygon fill="#d0d0d0" stroke="#000000" points="429,-612 322,-612 322,-576 429,-576 429,-612"/>
<text text-anchor="middle" x="375.5" y="-590.3" font-family="Times,serif" font-size="14.00" fill="#000000">mrpt&#45;kinematics</text>
</a>
</g>
</g>
<!-- kinematics&#45;&gt;opengl -->
<g id="edge25" class="edge">
<title>kinematics&#45;&gt;opengl</title>
<path fill="none" stroke="#000000" d="M363.8923,-575.8314C358.7022,-567.7079 352.4768,-557.9637 346.7575,-549.0118"/>
<polygon fill="#000000" stroke="#000000" points="349.5974,-546.9559 341.264,-540.4133 343.6985,-550.7246 349.5974,-546.9559"/>
</g>
<!-- obs&#45;&gt;db -->
<g id="edge35" class="edge">
<title>obs&#45;&gt;db</title>
<path fill="none" stroke="#000000" d="M169.5,-575.8146C169.5,-548.4983 169.5,-495.25 169.5,-450 169.5,-450 169.5,-450 169.5,-378 169.5,-328.9451 209.2716,-284.7517 238.9001,-258.6353"/>
<polygon fill="#000000" stroke="#000000" points="241.2424,-261.2375 246.5644,-252.0763 236.691,-255.9191 241.2424,-261.2375"/>
</g>
<!-- obs&#45;&gt;opengl -->
<g id="edge34" class="edge">
<title>obs&#45;&gt;opengl</title>
<path fill="none" stroke="#000000" d="M202.6521,-579.0816C224.9723,-569.0375 254.8045,-555.613 279.9305,-544.3063"/>
<polygon fill="#000000" stroke="#000000" points="281.6214,-547.3835 289.3044,-540.088 278.7488,-541 281.6214,-547.3835"/>
</g>
<!-- tfest -->
<g id="node28" class="node">
<title>tfest</title>
<g id="a_node28"><a xlink:href="group__mrpt__tfest__grp.html" xlink:title="mrpt&#45;tfest">
<polygon fill="#d0d0d0" stroke="#000000" points="269,-540 198,-540 198,-504 269,-504 269,-540"/>
<text text-anchor="middle" x="233.5" y="-518.3" font-family="Times,serif" font-size="14.00" fill="#000000">mrpt&#45;tfest</text>
</a>
</g>
</g>
<!-- obs&#45;&gt;tfest -->
<g id="edge36" class="edge">
<title>obs&#45;&gt;tfest</title>
<path fill="none" stroke="#000000" d="M185.6499,-575.8314C193.1717,-567.3694 202.2565,-557.1489 210.4804,-547.8971"/>
<polygon fill="#000000" stroke="#000000" points="213.1049,-550.2127 217.1327,-540.4133 207.873,-545.5621 213.1049,-550.2127"/>
</g>
<!-- nav -->
<g id="node27" class="node">
<title>nav</title>
<g id="a_node27"><a xlink:href="group__mrpt__nav__grp.html" xlink:title="mrpt&#45;nav">
<polygon fill="#d0d0d0" stroke="#000000" points="379,-756 312,-756 312,-720 379,-720 379,-756"/>
<text text-anchor="middle" x="345.5" y="-734.3" font-family="Times,serif" font-size="14.00" fill="#000000">mrpt&#45;nav</text>
</a>
</g>
</g>
<!-- nav&#45;&gt;maps -->
<g id="edge33" class="edge">
<title>nav&#45;&gt;maps</title>
<path fill="none" stroke="#000000" d="M325.0603,-719.8314C315.1795,-711.0485 303.1676,-700.3712 292.455,-690.8489"/>
<polygon fill="#000000" stroke="#000000" points="294.7326,-688.1906 284.9332,-684.1628 290.082,-693.4224 294.7326,-688.1906"/>
</g>
<!-- nav&#45;&gt;kinematics -->
<g id="edge32" class="edge">
<title>nav&#45;&gt;kinematics</title>
<path fill="none" stroke="#000000" d="M379.0947,-721.0823C393.0558,-712.1288 407.7813,-699.7029 415.5,-684 425.9656,-662.7087 413.3365,-638.0588 399.5726,-619.9455"/>
<polygon fill="#000000" stroke="#000000" points="402.2552,-617.6966 393.2476,-612.1186 396.8107,-622.0964 402.2552,-617.6966"/>
</g>
<!-- tfest&#45;&gt;poses -->
<g id="edge48" class="edge">
<title>tfest&#45;&gt;poses</title>
<path fill="none" stroke="#000000" d="M234.5094,-503.8314C234.9372,-496.131 235.4459,-486.9743 235.9213,-478.4166"/>
<polygon fill="#000000" stroke="#000000" points="239.4169,-478.592 236.477,-468.4133 232.4276,-478.2037 239.4169,-478.592"/>
</g>
<!-- poses&#45;&gt;bayes -->
<g id="edge40" class="edge">
<title>poses&#45;&gt;bayes</title>
<path fill="none" stroke="#000000" d="M237.5,-431.8314C237.5,-424.131 237.5,-414.9743 237.5,-406.4166"/>
<polygon fill="#000000" stroke="#000000" points="241.0001,-406.4132 237.5,-396.4133 234.0001,-406.4133 241.0001,-406.4132"/>
</g>
<!-- pbmap -->
<g id="node30" class="node">
<title>pbmap</title>
<g id="a_node30"><a xlink:href="group__mrpt__pbmap__grp.html" xlink:title="mrpt&#45;pbmap">
<polygon fill="#d0d0d0" stroke="#000000" points="406,-684 321,-684 321,-648 406,-648 406,-684"/>
<text text-anchor="middle" x="363.5" y="-662.3" font-family="Times,serif" font-size="14.00" fill="#000000">mrpt&#45;pbmap</text>
</a>
</g>
</g>
<!-- pbmap&#45;&gt;graphs -->
<g id="edge39" class="edge">
<title>pbmap&#45;&gt;graphs</title>
<path fill="none" stroke="#000000" d="M338.0134,-647.8314C325.3341,-638.7927 309.8404,-627.7476 296.1945,-618.0198"/>
<polygon fill="#000000" stroke="#000000" points="298.1529,-615.1176 287.9784,-612.1628 294.0895,-620.8176 298.1529,-615.1176"/>
</g>
<!-- rtti&#45;&gt;core -->
<g id="edge41" class="edge">
<title>rtti&#45;&gt;core</title>
<path fill="none" stroke="#000000" d="M347.5837,-71.8314C339.1558,-63.2848 328.959,-52.9443 319.764,-43.6198"/>
<polygon fill="#000000" stroke="#000000" points="322.1711,-41.0761 312.6575,-36.4133 317.1869,-45.9912 322.1711,-41.0761"/>
</g>
<!-- rtti&#45;&gt;typemeta -->
<g id="edge42" class="edge">
<title>rtti&#45;&gt;typemeta</title>
<path fill="none" stroke="#000000" d="M379.1265,-71.8314C385.346,-63.5386 392.8322,-53.557 399.66,-44.4533"/>
<polygon fill="#000000" stroke="#000000" points="402.49,-46.5133 405.69,-36.4133 396.89,-42.3133 402.49,-46.5133"/>
</g>
<!-- topography -->
<g id="node33" class="node">
<title>topography</title>
<g id="a_node33"><a xlink:href="group__mrpt__topography__grp.html" xlink:title="mrpt&#45;topography">
<polygon fill="#d0d0d0" stroke="#000000" points="109,-684 0,-684 0,-648 109,-648 109,-684"/>
<text text-anchor="middle" x="54.5" y="-662.3" font-family="Times,serif" font-size="14.00" fill="#000000">mrpt&#45;topography</text>
</a>
</g>
</g>
<!-- topography&#45;&gt;obs -->
<g id="edge49" class="edge">
<title>topography&#45;&gt;obs</title>
<path fill="none" stroke="#000000" d="M83.5194,-647.8314C98.2286,-638.6221 116.2644,-627.3301 132.0122,-617.4706"/>
<polygon fill="#000000" stroke="#000000" points="133.8714,-620.436 140.4899,-612.1628 130.1567,-614.5029 133.8714,-620.436"/>
</g>
</g>
</svg>
