<?xml version="1.0" encoding="UTF-8" standalone="no"?>
<!DOCTYPE svg PUBLIC "-//W3C//DTD SVG 1.1//EN"
 "http://www.w3.org/Graphics/SVG/1.1/DTD/svg11.dtd">
<!-- Generated by graphviz version 2.26.3 (20100126.1600)
 -->
<!-- Title: MRPT_LIBS Pages: 1 -->
<svg width="675pt" height="476pt"
 viewBox="0.00 0.00 675.00 476.00" xmlns="http://www.w3.org/2000/svg" xmlns:xlink="http://www.w3.org/1999/xlink">
<g id="graph1" class="graph" transform="scale(1 1) rotate(0) translate(4 472)">
<title>MRPT_LIBS</title>
<polygon fill="white" stroke="white" points="-4,5 -4,-472 672,-472 672,5 -4,5"/>
<!-- base -->
<g id="node1" class="node"><title>base</title>
<a xlink:href="group__mrpt__base__grp.html" xlink:title="mrpt&#45;base">
<polygon fill="#d0d0d0" stroke="black" points="212,-36 136,-36 136,-1.77636e-14 212,-3.55271e-15 212,-36"/>
<text text-anchor="middle" x="174" y="-14.7" font-family="Times Roman,serif" font-size="12.00">mrpt&#45;base</text>
</a>
</g>
<!-- graphs -->
<g id="node2" class="node"><title>graphs</title>
<a xlink:href="group__mrpt__graphs__grp.html" xlink:title="mrpt&#45;graphs (.h)">
<polygon fill="#d0d0d0" stroke="black" points="347,-252 233,-252 233,-216 347,-216 347,-252"/>
<text text-anchor="middle" x="290" y="-230.7" font-family="Times Roman,serif" font-size="12.00">mrpt&#45;graphs (.h)</text>
</a>
</g>
<!-- graphs&#45;&gt;base -->
<g id="edge6" class="edge"><title>graphs&#45;&gt;base</title>
<path fill="none" stroke="black" d="M261.935,-215.785C249.407,-206.411 235.386,-194.01 226,-180 198.11,-138.37 184.349,-80.776 178.239,-46.6559"/>
<polygon fill="black" stroke="black" points="181.632,-45.7302 176.515,-36.4527 174.73,-46.896 181.632,-45.7302"/>
</g>
<!-- bayes -->
<g id="node3" class="node"><title>bayes</title>
<a xlink:href="group__mrpt__bayes__grp.html" xlink:title="mrpt&#45;bayes (.h)">
<polygon fill="#d0d0d0" stroke="black" points="108,-108 4.26326e-14,-108 0,-72 108,-72 108,-108"/>
<text text-anchor="middle" x="54" y="-86.7" font-family="Times Roman,serif" font-size="12.00">mrpt&#45;bayes (.h)</text>
</a>
</g>
<!-- bayes&#45;&gt;base -->
<g id="edge10" class="edge"><title>bayes&#45;&gt;base</title>
<path fill="none" stroke="black" d="M84.2811,-71.8314C99.6298,-62.6221 118.45,-51.3301 134.882,-41.4706"/>
<polygon fill="black" stroke="black" points="136.954,-44.3091 143.729,-36.1628 133.353,-38.3066 136.954,-44.3091"/>
</g>
<!-- opengl -->
<g id="node4" class="node"><title>opengl</title>
<a xlink:href="group__mrpt__opengl__grp.html" xlink:title="mrpt&#45;opengl">
<polygon fill="#d0d0d0" stroke="black" points="457,-108 369,-108 369,-72 457,-72 457,-108"/>
<text text-anchor="middle" x="413" y="-86.7" font-family="Times Roman,serif" font-size="12.00">mrpt&#45;opengl</text>
</a>
</g>
<!-- opengl&#45;&gt;base -->
<g id="edge12" class="edge"><title>opengl&#45;&gt;base</title>
<path fill="none" stroke="black" d="M368.885,-76.7102C327.216,-64.1573 264.879,-45.3778 221.986,-32.4561"/>
<polygon fill="black" stroke="black" points="222.92,-29.0822 212.336,-29.5489 220.901,-35.7847 222.92,-29.0822"/>
</g>
<!-- gui -->
<g id="node5" class="node"><title>gui</title>
<a xlink:href="group__mrpt__gui__grp.html" xlink:title="mrpt&#45;gui">
<polygon fill="#d0d0d0" stroke="black" points="631,-252 565,-252 565,-216 631,-216 631,-252"/>
<text text-anchor="middle" x="598" y="-230.7" font-family="Times Roman,serif" font-size="12.00">mrpt&#45;gui</text>
</a>
</g>
<!-- gui&#45;&gt;opengl -->
<g id="edge16" class="edge"><title>gui&#45;&gt;opengl</title>
<path fill="none" stroke="black" d="M594.767,-215.655C590.304,-195.504 580.375,-163.43 560,-144 534.721,-119.894 497.791,-106.383 467.271,-98.9037"/>
<polygon fill="black" stroke="black" points="467.722,-95.4164 457.193,-96.5921 466.157,-102.239 467.722,-95.4164"/>
</g>
<!-- obs -->
<g id="node6" class="node"><title>obs</title>
<a xlink:href="group__mrpt__obs__grp.html" xlink:title="mrpt&#45;obs">
<polygon fill="#d0d0d0" stroke="black" points="551,-180 481,-180 481,-144 551,-144 551,-180"/>
<text text-anchor="middle" x="516" y="-158.7" font-family="Times Roman,serif" font-size="12.00">mrpt&#45;obs</text>
</a>
</g>
<!-- obs&#45;&gt;opengl -->
<g id="edge14" class="edge"><title>obs&#45;&gt;opengl</title>
<path fill="none" stroke="black" d="M490.009,-143.831C477.078,-134.793 461.278,-123.748 447.362,-114.02"/>
<polygon fill="black" stroke="black" points="449.184,-111.024 438.983,-108.163 445.174,-116.761 449.184,-111.024"/>
</g>
<!-- hwdrivers -->
<g id="node7" class="node"><title>hwdrivers</title>
<a xlink:href="group__mrpt__hwdrivers__grp.html" xlink:title="mrpt&#45;hwdrivers">
<polygon fill="#d0d0d0" stroke="black" points="667,-324 561,-324 561,-288 667,-288 667,-324"/>
<text text-anchor="middle" x="614" y="-302.7" font-family="Times Roman,serif" font-size="12.00">mrpt&#45;hwdrivers</text>
</a>
</g>
<!-- hwdrivers&#45;&gt;gui -->
<g id="edge18" class="edge"><title>hwdrivers&#45;&gt;gui</title>
<path fill="none" stroke="black" d="M609.963,-287.831C608.251,-280.131 606.217,-270.974 604.315,-262.417"/>
<polygon fill="black" stroke="black" points="607.678,-261.416 602.092,-252.413 600.845,-262.934 607.678,-261.416"/>
</g>
<!-- maps -->
<g id="node9" class="node"><title>maps</title>
<a xlink:href="group__mrpt__maps__grp.html" xlink:title="mrpt&#45;maps">
<polygon fill="#d0d0d0" stroke="black" points="547,-252 465,-252 465,-216 547,-216 547,-252"/>
<text text-anchor="middle" x="506" y="-230.7" font-family="Times Roman,serif" font-size="12.00">mrpt&#45;maps</text>
</a>
</g>
<!-- hwdrivers&#45;&gt;maps -->
<g id="edge20" class="edge"><title>hwdrivers&#45;&gt;maps</title>
<path fill="none" stroke="black" d="M586.747,-287.831C573.061,-278.707 556.309,-267.539 541.617,-257.745"/>
<polygon fill="black" stroke="black" points="543.506,-254.798 533.244,-252.163 539.623,-260.622 543.506,-254.798"/>
</g>
<!-- topography -->
<g id="node8" class="node"><title>topography</title>
<a xlink:href="group__mrpt__topography__grp.html" xlink:title="mrpt&#45;topography">
<polygon fill="#d0d0d0" stroke="black" points="215,-252 97,-252 97,-216 215,-216 215,-252"/>
<text text-anchor="middle" x="156" y="-230.7" font-family="Times Roman,serif" font-size="12.00">mrpt&#45;topography</text>
</a>
</g>
<!-- topography&#45;&gt;obs -->
<g id="edge22" class="edge"><title>topography&#45;&gt;obs</title>
<path fill="none" stroke="black" d="M215.244,-217.89C218.197,-217.221 221.128,-216.586 224,-216 330.034,-194.344 362.705,-208.451 471.047,-179.907"/>
<polygon fill="black" stroke="black" points="471.972,-183.282 480.717,-177.3 470.15,-176.524 471.972,-183.282"/>
</g>
<!-- scanmatching -->
<g id="node11" class="node"><title>scanmatching</title>
<a xlink:href="group__mrpt__scanmatching__grp.html" xlink:title="mrpt&#45;scanmatching">
<polygon fill="#d0d0d0" stroke="black" points="179,-180 49,-180 49,-144 179,-144 179,-180"/>
<text text-anchor="middle" x="114" y="-158.7" font-family="Times Roman,serif" font-size="12.00">mrpt&#45;scanmatching</text>
</a>
</g>
<!-- topography&#45;&gt;scanmatching -->
<g id="edge24" class="edge"><title>topography&#45;&gt;scanmatching</title>
<path fill="none" stroke="black" d="M145.402,-215.831C140.712,-207.792 135.097,-198.167 129.92,-189.292"/>
<polygon fill="black" stroke="black" points="132.803,-187.288 124.741,-180.413 126.757,-190.815 132.803,-187.288"/>
</g>
<!-- maps&#45;&gt;obs -->
<g id="edge28" class="edge"><title>maps&#45;&gt;obs</title>
<path fill="none" stroke="black" d="M508.523,-215.831C509.593,-208.131 510.865,-198.974 512.053,-190.417"/>
<polygon fill="black" stroke="black" points="515.534,-190.8 513.443,-180.413 508.6,-189.837 515.534,-190.8"/>
</g>
<!-- vision -->
<g id="node10" class="node"><title>vision</title>
<a xlink:href="group__mrpt__vision__grp.html" xlink:title="mrpt&#45;vision">
<polygon fill="#d0d0d0" stroke="black" points="447,-252 365,-252 365,-216 447,-216 447,-252"/>
<text text-anchor="middle" x="406" y="-230.7" font-family="Times Roman,serif" font-size="12.00">mrpt&#45;vision</text>
</a>
</g>
<!-- vision&#45;&gt;obs -->
<g id="edge26" class="edge"><title>vision&#45;&gt;obs</title>
<path fill="none" stroke="black" d="M433.758,-215.831C447.697,-206.707 464.76,-195.539 479.723,-185.745"/>
<polygon fill="black" stroke="black" points="481.801,-188.568 488.251,-180.163 477.967,-182.711 481.801,-188.568"/>
</g>
<!-- scanmatching&#45;&gt;base -->
<g id="edge8" class="edge"><title>scanmatching&#45;&gt;base</title>
<path fill="none" stroke="black" d="M121.599,-143.762C131.923,-118.985 150.47,-74.4714 162.503,-45.5939"/>
<polygon fill="black" stroke="black" points="165.847,-46.6666 166.463,-36.0896 159.386,-43.9742 165.847,-46.6666"/>
</g>
<!-- slam -->
<g id="node12" class="node"><title>slam</title>
<a xlink:href="group__mrpt__slam__grp.html" xlink:title="mrpt&#45;slam">
<polygon fill="#d0d0d0" stroke="black" points="285,-324 209,-324 209,-288 285,-288 285,-324"/>
<text text-anchor="middle" x="247" y="-302.7" font-family="Times Roman,serif" font-size="12.00">mrpt&#45;slam</text>
</a>
</g>
<!-- slam&#45;&gt;graphs -->
<g id="edge38" class="edge"><title>slam&#45;&gt;graphs</title>
<path fill="none" stroke="black" d="M257.851,-287.831C262.702,-279.708 268.522,-269.964 273.868,-261.012"/>
<polygon fill="black" stroke="black" points="276.881,-262.793 279.003,-252.413 270.871,-259.204 276.881,-262.793"/>
</g>
<!-- slam&#45;&gt;bayes -->
<g id="edge36" class="edge"><title>slam&#45;&gt;bayes</title>
<path fill="none" stroke="black" d="M208.768,-302.161C171.645,-296.661 115.545,-283.446 78,-252 38.9905,-219.327 33.5632,-194.476 40,-144 41.0854,-135.489 43.0962,-126.401 45.262,-118.155"/>
<polygon fill="black" stroke="black" points="48.7045,-118.841 48.0302,-108.268 41.9637,-116.954 48.7045,-118.841"/>
</g>
<!-- slam&#45;&gt;maps -->
<g id="edge30" class="edge"><title>slam&#45;&gt;maps</title>
<path fill="none" stroke="black" d="M285.057,-290.887C288.065,-289.857 291.071,-288.881 294,-288 361.595,-267.666 383.303,-272.086 454.971,-252.095"/>
<polygon fill="black" stroke="black" points="456.28,-255.361 464.935,-249.25 454.358,-248.63 456.28,-255.361"/>
</g>
<!-- slam&#45;&gt;vision -->
<g id="edge32" class="edge"><title>slam&#45;&gt;vision</title>
<path fill="none" stroke="black" d="M285.084,-288.754C306.563,-279.028 333.638,-266.768 356.72,-256.316"/>
<polygon fill="black" stroke="black" points="358.342,-259.423 366.007,-252.11 355.454,-253.047 358.342,-259.423"/>
</g>
<!-- slam&#45;&gt;scanmatching -->
<g id="edge34" class="edge"><title>slam&#45;&gt;scanmatching</title>
<path fill="none" stroke="black" d="M208.986,-298.384C166.662,-289.043 102.305,-271.966 88,-252 74.5892,-233.282 83.964,-207.741 95.0234,-188.649"/>
<polygon fill="black" stroke="black" points="98.02,-190.457 100.321,-180.115 92.0728,-186.765 98.02,-190.457"/>
</g>
<!-- graphslam -->
<g id="node13" class="node"><title>graphslam</title>
<a xlink:href="group__mrpt__graphslam__grp.html" xlink:title="mrpt&#45;graphslam (.h)">
<polygon fill="#d0d0d0" stroke="black" points="267,-396 133,-396 133,-360 267,-360 267,-396"/>
<text text-anchor="middle" x="200" y="-374.7" font-family="Times Roman,serif" font-size="12.00">mrpt&#45;graphslam (.h)</text>
</a>
</g>
<!-- graphslam&#45;&gt;slam -->
<g id="edge40" class="edge"><title>graphslam&#45;&gt;slam</title>
<path fill="none" stroke="black" d="M211.86,-359.831C217.163,-351.708 223.524,-341.964 229.367,-333.012"/>
<polygon fill="black" stroke="black" points="232.445,-334.7 234.98,-324.413 226.583,-330.874 232.445,-334.7"/>
</g>
<!-- hmtslam -->
<g id="node14" class="node"><title>hmtslam</title>
<a xlink:href="group__mrpt__hmtslam__grp.html" xlink:title="mrpt&#45;hmtslam">
<polygon fill="#d0d0d0" stroke="black" points="297,-468 197,-468 197,-432 297,-432 297,-468"/>
<text text-anchor="middle" x="247" y="-446.7" font-family="Times Roman,serif" font-size="12.00">mrpt&#45;hmtslam</text>
</a>
</g>
<!-- hmtslam&#45;&gt;slam -->
<g id="edge48" class="edge"><title>hmtslam&#45;&gt;slam</title>
<path fill="none" stroke="black" d="M259.612,-431.942C265.877,-421.866 272.781,-408.797 276,-396 279.903,-380.483 279.903,-375.517 276,-360 273.661,-350.702 269.377,-341.261 264.806,-332.928"/>
<polygon fill="black" stroke="black" points="267.686,-330.919 259.612,-324.058 261.645,-334.456 267.686,-330.919"/>
</g>
<!-- hmtslam&#45;&gt;graphslam -->
<g id="edge50" class="edge"><title>hmtslam&#45;&gt;graphslam</title>
<path fill="none" stroke="black" d="M235.14,-431.831C229.837,-423.708 223.476,-413.964 217.633,-405.012"/>
<polygon fill="black" stroke="black" points="220.417,-402.874 212.02,-396.413 214.555,-406.7 220.417,-402.874"/>
</g>
<!-- reactivenav -->
<g id="node15" class="node"><title>reactivenav</title>
<a xlink:href="group__mrpt__reactivenav__grp.html" xlink:title="mrpt&#45;reactivenav">
<polygon fill="#d0d0d0" stroke="black" points="419,-324 303,-324 303,-288 419,-288 419,-324"/>
<text text-anchor="middle" x="361" y="-302.7" font-family="Times Roman,serif" font-size="12.00">mrpt&#45;reactivenav</text>
</a>
</g>
<!-- reactivenav&#45;&gt;graphs -->
<g id="edge54" class="edge"><title>reactivenav&#45;&gt;graphs</title>
<path fill="none" stroke="black" d="M343.084,-287.831C334.656,-279.285 324.459,-268.944 315.264,-259.62"/>
<polygon fill="black" stroke="black" points="317.671,-257.076 308.158,-252.413 312.687,-261.991 317.671,-257.076"/>
</g>
<!-- reactivenav&#45;&gt;maps -->
<g id="edge52" class="edge"><title>reactivenav&#45;&gt;maps</title>
<path fill="none" stroke="black" d="M397.59,-287.831C416.724,-278.33 440.323,-266.612 460.612,-256.537"/>
<polygon fill="black" stroke="black" points="462.274,-259.62 469.673,-252.038 459.16,-253.351 462.274,-259.62"/>
</g>
<!-- detectors -->
<g id="node16" class="node"><title>detectors</title>
<a xlink:href="group__mrpt__detectors__grp.html" xlink:title="mrpt&#45;detectors">
<polygon fill="#d0d0d0" stroke="black" points="543,-324 437,-324 437,-288 543,-288 543,-324"/>
<text text-anchor="middle" x="490" y="-302.7" font-family="Times Roman,serif" font-size="12.00">mrpt&#45;detectors</text>
</a>
</g>
<!-- detectors&#45;&gt;gui -->
<g id="edge46" class="edge"><title>detectors&#45;&gt;gui</title>
<path fill="none" stroke="black" d="M517.253,-287.831C530.939,-278.707 547.691,-267.539 562.383,-257.745"/>
<polygon fill="black" stroke="black" points="564.377,-260.622 570.756,-252.163 560.494,-254.798 564.377,-260.622"/>
</g>
<!-- detectors&#45;&gt;maps -->
<g id="edge44" class="edge"><title>detectors&#45;&gt;maps</title>
<path fill="none" stroke="black" d="M494.037,-287.831C495.749,-280.131 497.783,-270.974 499.685,-262.417"/>
<polygon fill="black" stroke="black" points="503.155,-262.934 501.908,-252.413 496.322,-261.416 503.155,-262.934"/>
</g>
<!-- detectors&#45;&gt;vision -->
<g id="edge42" class="edge"><title>detectors&#45;&gt;vision</title>
<path fill="none" stroke="black" d="M468.803,-287.831C458.557,-279.048 446.1,-268.371 434.99,-258.849"/>
<polygon fill="black" stroke="black" points="437.06,-256.013 427.19,-252.163 432.505,-261.328 437.06,-256.013"/>
</g>
<!-- kinematics -->
<g id="node17" class="node"><title>kinematics</title>
<a xlink:href="group__mrpt__kinematics__grp.html" xlink:title="mrpt&#45;kinematics">
<polygon fill="#d0d0d0" stroke="black" points="345,-180 235,-180 235,-144 345,-144 345,-180"/>
<text text-anchor="middle" x="290" y="-158.7" font-family="Times Roman,serif" font-size="12.00">mrpt&#45;kinematics</text>
</a>
</g>
<!-- kinematics&#45;&gt;opengl -->
<g id="edge4" class="edge"><title>kinematics&#45;&gt;opengl</title>
<path fill="none" stroke="black" d="M321.038,-143.831C336.771,-134.622 356.061,-123.33 372.904,-113.471"/>
<polygon fill="black" stroke="black" points="375.11,-116.235 381.972,-108.163 371.574,-110.194 375.11,-116.235"/>
</g>
<!-- srba -->
<g id="node18" class="node"><title>srba</title>
<a xlink:href="group__mrpt__srba__grp.html" xlink:title="mrpt&#45;srba (.h)">
<polygon fill="#d0d0d0" stroke="black" points="463,-180 363,-180 363,-144 463,-144 463,-180"/>
<text text-anchor="middle" x="413" y="-158.7" font-family="Times Roman,serif" font-size="12.00">mrpt&#45;srba (.h)</text>
</a>
</g>
<!-- srba&#45;&gt;opengl -->
<g id="edge2" class="edge"><title>srba&#45;&gt;opengl</title>
<path fill="none" stroke="black" d="M413,-143.831C413,-136.131 413,-126.974 413,-118.417"/>
<polygon fill="black" stroke="black" points="416.5,-118.413 413,-108.413 409.5,-118.413 416.5,-118.413"/>
</g>
</g>
</svg>
