<?xml version="1.0" encoding="UTF-8" standalone="no"?>
<!DOCTYPE svg PUBLIC "-//W3C//DTD SVG 1.1//EN"
 "http://www.w3.org/Graphics/SVG/1.1/DTD/svg11.dtd">
<!-- Generated by graphviz version 2.38.0 (20140413.2041)
 -->
<!-- Title: MRPT_LIBS Pages: 1 -->
<svg width="711pt" height="476pt"
 viewBox="0.00 0.00 710.92 476.00" xmlns="http://www.w3.org/2000/svg" xmlns:xlink="http://www.w3.org/1999/xlink">
<g id="graph0" class="graph" transform="scale(1 1) rotate(0) translate(4 472)">
<title>MRPT_LIBS</title>
<polygon fill="white" stroke="none" points="-4,4 -4,-472 706.924,-472 706.924,4 -4,4"/>
<!-- base -->
<g id="node1" class="node"><title>base</title>
<g id="a_node1"><a xlink:href="group__mrpt__base__grp.html" xlink:title="mrpt&#45;base">
<polygon fill="#d0d0d0" stroke="black" points="331,-36 258,-36 258,-0 331,-0 331,-36"/>
<text text-anchor="middle" x="294.5" y="-14.3" font-family="Times New Roman,serif" font-size="14.00">mrpt&#45;base</text>
</a>
</g>
</g>
<!-- comms -->
<g id="node2" class="node"><title>comms</title>
<g id="a_node2"><a xlink:href="group__mrpt__comms__grp.html" xlink:title="mrpt&#45;comms">
<polygon fill="#d0d0d0" stroke="black" points="89,-108 0,-108 0,-72 89,-72 89,-108"/>
<text text-anchor="middle" x="44.5" y="-86.3" font-family="Times New Roman,serif" font-size="14.00">mrpt&#45;comms</text>
</a>
</g>
</g>
<!-- comms&#45;&gt;base -->
<g id="edge5" class="edge"><title>comms&#45;&gt;base</title>
<path fill="none" stroke="black" d="M89.195,-76.4854C133.981,-63.9453 202.618,-44.7269 248.024,-32.0132"/>
<polygon fill="black" stroke="black" points="249.221,-35.3127 257.907,-29.2459 247.334,-28.5719 249.221,-35.3127"/>
</g>
<!-- graphs -->
<g id="node3" class="node"><title>graphs</title>
<g id="a_node3"><a xlink:href="group__mrpt__graphs__grp.html" xlink:title="mrpt&#45;graphs">
<polygon fill="#d0d0d0" stroke="black" points="337,-180 252,-180 252,-144 337,-144 337,-180"/>
<text text-anchor="middle" x="294.5" y="-158.3" font-family="Times New Roman,serif" font-size="14.00">mrpt&#45;graphs</text>
</a>
</g>
</g>
<!-- graphs&#45;&gt;base -->
<g id="edge3" class="edge"><title>graphs&#45;&gt;base</title>
<path fill="none" stroke="black" d="M294.5,-143.871C294.5,-119.67 294.5,-75.2108 294.5,-46.3932"/>
<polygon fill="black" stroke="black" points="298,-46.1892 294.5,-36.1893 291,-46.1893 298,-46.1892"/>
</g>
<!-- bayes -->
<g id="node4" class="node"><title>bayes</title>
<g id="a_node4"><a xlink:href="group__mrpt__bayes__grp.html" xlink:title="mrpt&#45;bayes (.h)">
<polygon fill="#d0d0d0" stroke="black" points="512,-108 409,-108 409,-72 512,-72 512,-108"/>
<text text-anchor="middle" x="460.5" y="-86.3" font-family="Times New Roman,serif" font-size="14.00">mrpt&#45;bayes (.h)</text>
</a>
</g>
</g>
<!-- bayes&#45;&gt;base -->
<g id="edge6" class="edge"><title>bayes&#45;&gt;base</title>
<path fill="none" stroke="black" d="M419.892,-71.8761C395.805,-61.7191 365.208,-48.8167 340.268,-38.2998"/>
<polygon fill="black" stroke="black" points="341.586,-35.0572 331.012,-34.3966 338.866,-41.5072 341.586,-35.0572"/>
</g>
<!-- opengl -->
<g id="node5" class="node"><title>opengl</title>
<g id="a_node5"><a xlink:href="group__mrpt__opengl__grp.html" xlink:title="mrpt&#45;opengl">
<polygon fill="#d0d0d0" stroke="black" points="243,-108 158,-108 158,-72 243,-72 243,-108"/>
<text text-anchor="middle" x="200.5" y="-86.3" font-family="Times New Roman,serif" font-size="14.00">mrpt&#45;opengl</text>
</a>
</g>
</g>
<!-- opengl&#45;&gt;base -->
<g id="edge7" class="edge"><title>opengl&#45;&gt;base</title>
<path fill="none" stroke="black" d="M223.736,-71.6966C235.688,-62.796 250.423,-51.8232 263.347,-42.1989"/>
<polygon fill="black" stroke="black" points="265.601,-44.8842 271.531,-36.1043 261.42,-39.2699 265.601,-44.8842"/>
</g>
<!-- gui -->
<g id="node6" class="node"><title>gui</title>
<g id="a_node6"><a xlink:href="group__mrpt__gui__grp.html" xlink:title="mrpt&#45;gui">
<polygon fill="#d0d0d0" stroke="black" points="107.5,-252 43.5,-252 43.5,-216 107.5,-216 107.5,-252"/>
<text text-anchor="middle" x="75.5" y="-230.3" font-family="Times New Roman,serif" font-size="14.00">mrpt&#45;gui</text>
</a>
</g>
</g>
<!-- gui&#45;&gt;opengl -->
<g id="edge9" class="edge"><title>gui&#45;&gt;opengl</title>
<path fill="none" stroke="black" d="M79.8952,-215.935C85.5397,-196.691 96.8923,-165.309 115.5,-144 126.197,-131.75 140.421,-121.378 154.168,-113.145"/>
<polygon fill="black" stroke="black" points="156.146,-116.047 163.092,-108.046 152.673,-109.969 156.146,-116.047"/>
</g>
<!-- obs -->
<g id="node7" class="node"><title>obs</title>
<g id="a_node7"><a xlink:href="group__mrpt__obs__grp.html" xlink:title="mrpt&#45;obs">
<polygon fill="#d0d0d0" stroke="black" points="441.5,-180 373.5,-180 373.5,-144 441.5,-144 441.5,-180"/>
<text text-anchor="middle" x="407.5" y="-158.3" font-family="Times New Roman,serif" font-size="14.00">mrpt&#45;obs</text>
</a>
</g>
</g>
<!-- obs&#45;&gt;opengl -->
<g id="edge8" class="edge"><title>obs&#45;&gt;opengl</title>
<path fill="none" stroke="black" d="M373.318,-149.441C340.64,-138.391 290.901,-121.57 253.161,-108.808"/>
<polygon fill="black" stroke="black" points="253.946,-105.379 243.351,-105.491 251.703,-112.01 253.946,-105.379"/>
</g>
<!-- hwdrivers -->
<g id="node8" class="node"><title>hwdrivers</title>
<g id="a_node8"><a xlink:href="group__mrpt__hwdrivers__grp.html" xlink:title="mrpt&#45;hwdrivers">
<polygon fill="#d0d0d0" stroke="black" points="126.5,-324 24.5,-324 24.5,-288 126.5,-288 126.5,-324"/>
<text text-anchor="middle" x="75.5" y="-302.3" font-family="Times New Roman,serif" font-size="14.00">mrpt&#45;hwdrivers</text>
</a>
</g>
</g>
<!-- hwdrivers&#45;&gt;comms -->
<g id="edge12" class="edge"><title>hwdrivers&#45;&gt;comms</title>
<path fill="none" stroke="black" d="M57.3312,-287.677C48.6151,-278.097 39.0884,-265.43 34.5,-252 19.059,-206.804 28.6291,-150.374 36.739,-117.735"/>
<polygon fill="black" stroke="black" points="40.1359,-118.58 39.2873,-108.019 33.3649,-116.804 40.1359,-118.58"/>
</g>
<!-- hwdrivers&#45;&gt;gui -->
<g id="edge10" class="edge"><title>hwdrivers&#45;&gt;gui</title>
<path fill="none" stroke="black" d="M75.5,-287.697C75.5,-279.983 75.5,-270.712 75.5,-262.112"/>
<polygon fill="black" stroke="black" points="79.0001,-262.104 75.5,-252.104 72.0001,-262.104 79.0001,-262.104"/>
</g>
<!-- maps -->
<g id="node10" class="node"><title>maps</title>
<g id="a_node10"><a xlink:href="group__mrpt__maps__grp.html" xlink:title="mrpt&#45;maps">
<polygon fill="#d0d0d0" stroke="black" points="383,-252 306,-252 306,-216 383,-216 383,-252"/>
<text text-anchor="middle" x="344.5" y="-230.3" font-family="Times New Roman,serif" font-size="14.00">mrpt&#45;maps</text>
</a>
</g>
</g>
<!-- hwdrivers&#45;&gt;maps -->
<g id="edge11" class="edge"><title>hwdrivers&#45;&gt;maps</title>
<path fill="none" stroke="black" d="M126.73,-291.669C175.402,-279.003 248.058,-260.097 295.856,-247.658"/>
<polygon fill="black" stroke="black" points="296.865,-251.012 305.661,-245.107 295.102,-244.238 296.865,-251.012"/>
</g>
<!-- topography -->
<g id="node9" class="node"><title>topography</title>
<g id="a_node9"><a xlink:href="group__mrpt__topography__grp.html" xlink:title="mrpt&#45;topography">
<polygon fill="#d0d0d0" stroke="black" points="687.5,-252 575.5,-252 575.5,-216 687.5,-216 687.5,-252"/>
<text text-anchor="middle" x="631.5" y="-230.3" font-family="Times New Roman,serif" font-size="14.00">mrpt&#45;topography</text>
</a>
</g>
</g>
<!-- topography&#45;&gt;obs -->
<g id="edge13" class="edge"><title>topography&#45;&gt;obs</title>
<path fill="none" stroke="black" d="M576.99,-215.966C538.401,-203.906 487.319,-187.943 451.357,-176.705"/>
<polygon fill="black" stroke="black" points="452.227,-173.31 441.638,-173.668 450.139,-179.992 452.227,-173.31"/>
</g>
<!-- tfest -->
<g id="node12" class="node"><title>tfest</title>
<g id="a_node12"><a xlink:href="group__mrpt__tfest__grp.html" xlink:title="mrpt&#45;tfest">
<polygon fill="#d0d0d0" stroke="black" points="667,-180 596,-180 596,-144 667,-144 667,-180"/>
<text text-anchor="middle" x="631.5" y="-158.3" font-family="Times New Roman,serif" font-size="14.00">mrpt&#45;tfest</text>
</a>
</g>
</g>
<!-- topography&#45;&gt;tfest -->
<g id="edge14" class="edge"><title>topography&#45;&gt;tfest</title>
<path fill="none" stroke="black" d="M631.5,-215.697C631.5,-207.983 631.5,-198.712 631.5,-190.112"/>
<polygon fill="black" stroke="black" points="635,-190.104 631.5,-180.104 628,-190.104 635,-190.104"/>
</g>
<!-- maps&#45;&gt;graphs -->
<g id="edge17" class="edge"><title>maps&#45;&gt;graphs</title>
<path fill="none" stroke="black" d="M332.14,-215.697C326.267,-207.474 319.131,-197.483 312.658,-188.421"/>
<polygon fill="black" stroke="black" points="315.378,-186.207 306.717,-180.104 309.682,-190.276 315.378,-186.207"/>
</g>
<!-- maps&#45;&gt;obs -->
<g id="edge16" class="edge"><title>maps&#45;&gt;obs</title>
<path fill="none" stroke="black" d="M360.073,-215.697C367.702,-207.22 377.023,-196.864 385.376,-187.583"/>
<polygon fill="black" stroke="black" points="388.018,-189.879 392.106,-180.104 382.815,-185.196 388.018,-189.879"/>
</g>
<!-- vision -->
<g id="node11" class="node"><title>vision</title>
<g id="a_node11"><a xlink:href="group__mrpt__vision__grp.html" xlink:title="mrpt&#45;vision">
<polygon fill="#d0d0d0" stroke="black" points="481.5,-252 401.5,-252 401.5,-216 481.5,-216 481.5,-252"/>
<text text-anchor="middle" x="441.5" y="-230.3" font-family="Times New Roman,serif" font-size="14.00">mrpt&#45;vision</text>
</a>
</g>
</g>
<!-- vision&#45;&gt;obs -->
<g id="edge15" class="edge"><title>vision&#45;&gt;obs</title>
<path fill="none" stroke="black" d="M433.096,-215.697C429.225,-207.728 424.548,-198.1 420.257,-189.264"/>
<polygon fill="black" stroke="black" points="423.325,-187.57 415.808,-180.104 417.029,-190.629 423.325,-187.57"/>
</g>
<!-- tfest&#45;&gt;base -->
<g id="edge4" class="edge"><title>tfest&#45;&gt;base</title>
<path fill="none" stroke="black" d="M615.118,-143.84C594.814,-123.597 558.254,-90.3814 520.5,-72 462.438,-43.7307 388.514,-30.0857 341.336,-23.8331"/>
<polygon fill="black" stroke="black" points="341.76,-20.3589 331.399,-22.5732 340.88,-27.3033 341.76,-20.3589"/>
</g>
<!-- slam -->
<g id="node13" class="node"><title>slam</title>
<g id="a_node13"><a xlink:href="group__mrpt__slam__grp.html" xlink:title="mrpt&#45;slam">
<polygon fill="#d0d0d0" stroke="black" points="530,-324 457,-324 457,-288 530,-288 530,-324"/>
<text text-anchor="middle" x="493.5" y="-302.3" font-family="Times New Roman,serif" font-size="14.00">mrpt&#45;slam</text>
</a>
</g>
</g>
<!-- slam&#45;&gt;graphs -->
<g id="edge22" class="edge"><title>slam&#45;&gt;graphs</title>
<path fill="none" stroke="black" d="M498.399,-287.896C502.883,-268.323 506.633,-236.355 490.5,-216 488.202,-213.101 404.591,-191.202 347.327,-176.476"/>
<polygon fill="black" stroke="black" points="347.877,-173.004 337.32,-173.906 346.136,-179.784 347.877,-173.004"/>
</g>
<!-- slam&#45;&gt;bayes -->
<g id="edge21" class="edge"><title>slam&#45;&gt;bayes</title>
<path fill="none" stroke="black" d="M500.566,-287.665C504.338,-277.47 508.588,-264.22 510.5,-252 512.973,-236.192 513.526,-231.711 510.5,-216 503.632,-180.339 486.683,-141.92 474.419,-117.227"/>
<polygon fill="black" stroke="black" points="477.464,-115.492 469.818,-108.157 471.221,-118.659 477.464,-115.492"/>
</g>
<!-- slam&#45;&gt;maps -->
<g id="edge18" class="edge"><title>slam&#45;&gt;maps</title>
<path fill="none" stroke="black" d="M457.05,-287.876C436.862,-278.392 411.579,-266.513 390.092,-256.419"/>
<polygon fill="black" stroke="black" points="391.37,-253.153 380.831,-252.068 388.394,-259.488 391.37,-253.153"/>
</g>
<!-- slam&#45;&gt;vision -->
<g id="edge19" class="edge"><title>slam&#45;&gt;vision</title>
<path fill="none" stroke="black" d="M480.646,-287.697C474.475,-279.389 466.963,-269.277 460.176,-260.141"/>
<polygon fill="black" stroke="black" points="462.979,-258.045 454.206,-252.104 457.36,-262.219 462.979,-258.045"/>
</g>
<!-- slam&#45;&gt;tfest -->
<g id="edge20" class="edge"><title>slam&#45;&gt;tfest</title>
<path fill="none" stroke="black" d="M530.373,-300.736C583.214,-293.78 676.349,-278.088 696.5,-252 706.281,-239.338 703.364,-230.453 696.5,-216 690.931,-204.273 681.356,-194.285 671.241,-186.248"/>
<polygon fill="black" stroke="black" points="673.204,-183.347 663.08,-180.224 669.047,-188.979 673.204,-183.347"/>
</g>
<!-- graphslam -->
<g id="node14" class="node"><title>graphslam</title>
<g id="a_node14"><a xlink:href="group__mrpt__graphslam__grp.html" xlink:title="mrpt&#45;graphslam">
<polygon fill="#d0d0d0" stroke="black" points="465.5,-396 361.5,-396 361.5,-360 465.5,-360 465.5,-396"/>
<text text-anchor="middle" x="413.5" y="-374.3" font-family="Times New Roman,serif" font-size="14.00">mrpt&#45;graphslam</text>
</a>
</g>
</g>
<!-- graphslam&#45;&gt;gui -->
<g id="edge24" class="edge"><title>graphslam&#45;&gt;gui</title>
<path fill="none" stroke="black" d="M361.172,-367.54C320.384,-359.098 262.904,-344.824 215.5,-324 175.288,-306.336 133.306,-278.135 105.931,-258.219"/>
<polygon fill="black" stroke="black" points="107.705,-255.179 97.5769,-252.068 103.554,-260.815 107.705,-255.179"/>
</g>
<!-- graphslam&#45;&gt;slam -->
<g id="edge23" class="edge"><title>graphslam&#45;&gt;slam</title>
<path fill="none" stroke="black" d="M433.275,-359.697C443.254,-350.965 455.511,-340.24 466.357,-330.75"/>
<polygon fill="black" stroke="black" points="468.731,-333.323 473.952,-324.104 464.122,-328.055 468.731,-333.323"/>
</g>
<!-- hmtslam -->
<g id="node15" class="node"><title>hmtslam</title>
<g id="a_node15"><a xlink:href="group__mrpt__hmtslam__grp.html" xlink:title="mrpt&#45;hmtslam">
<polygon fill="#d0d0d0" stroke="black" points="500.5,-468 406.5,-468 406.5,-432 500.5,-432 500.5,-468"/>
<text text-anchor="middle" x="453.5" y="-446.3" font-family="Times New Roman,serif" font-size="14.00">mrpt&#45;hmtslam</text>
</a>
</g>
</g>
<!-- hmtslam&#45;&gt;slam -->
<g id="edge28" class="edge"><title>hmtslam&#45;&gt;slam</title>
<path fill="none" stroke="black" d="M461.249,-431.594C465.581,-421.376 470.831,-408.126 474.5,-396 480.667,-375.616 485.607,-352.025 488.903,-334.254"/>
<polygon fill="black" stroke="black" points="492.372,-334.739 490.694,-324.277 485.482,-333.501 492.372,-334.739"/>
</g>
<!-- hmtslam&#45;&gt;graphslam -->
<g id="edge29" class="edge"><title>hmtslam&#45;&gt;graphslam</title>
<path fill="none" stroke="black" d="M443.612,-431.697C439.011,-423.644 433.44,-413.894 428.347,-404.982"/>
<polygon fill="black" stroke="black" points="431.274,-403.05 423.274,-396.104 425.196,-406.523 431.274,-403.05"/>
</g>
<!-- nav -->
<g id="node16" class="node"><title>nav</title>
<g id="a_node16"><a xlink:href="group__mrpt__nav__grp.html" xlink:title="mrpt&#45;nav">
<polygon fill="#d0d0d0" stroke="black" points="292,-324 225,-324 225,-288 292,-288 292,-324"/>
<text text-anchor="middle" x="258.5" y="-302.3" font-family="Times New Roman,serif" font-size="14.00">mrpt&#45;nav</text>
</a>
</g>
</g>
<!-- nav&#45;&gt;graphs -->
<g id="edge31" class="edge"><title>nav&#45;&gt;graphs</title>
<path fill="none" stroke="black" d="M262.842,-287.871C269.005,-263.564 280.349,-218.819 287.652,-190.013"/>
<polygon fill="black" stroke="black" points="291.077,-190.743 290.142,-180.189 284.292,-189.022 291.077,-190.743"/>
</g>
<!-- nav&#45;&gt;maps -->
<g id="edge30" class="edge"><title>nav&#45;&gt;maps</title>
<path fill="none" stroke="black" d="M279.758,-287.697C290.589,-278.881 303.918,-268.032 315.66,-258.474"/>
<polygon fill="black" stroke="black" points="317.94,-261.132 323.486,-252.104 313.521,-255.703 317.94,-261.132"/>
</g>
<!-- kinematics -->
<g id="node18" class="node"><title>kinematics</title>
<g id="a_node18"><a xlink:href="group__mrpt__kinematics__grp.html" xlink:title="mrpt&#45;kinematics">
<polygon fill="#d0d0d0" stroke="black" points="230.5,-180 124.5,-180 124.5,-144 230.5,-144 230.5,-180"/>
<text text-anchor="middle" x="177.5" y="-158.3" font-family="Times New Roman,serif" font-size="14.00">mrpt&#45;kinematics</text>
</a>
</g>
</g>
<!-- nav&#45;&gt;kinematics -->
<g id="edge32" class="edge"><title>nav&#45;&gt;kinematics</title>
<path fill="none" stroke="black" d="M224.954,-297.731C200.747,-290.541 169.746,-276.882 154.5,-252 142.731,-232.793 150.932,-207.709 160.66,-189.068"/>
<polygon fill="black" stroke="black" points="163.779,-190.663 165.632,-180.231 157.678,-187.23 163.779,-190.663"/>
</g>
<!-- detectors -->
<g id="node17" class="node"><title>detectors</title>
<g id="a_node17"><a xlink:href="group__mrpt__detectors__grp.html" xlink:title="mrpt&#45;detectors">
<polygon fill="#d0d0d0" stroke="black" points="409,-324 310,-324 310,-288 409,-288 409,-324"/>
<text text-anchor="middle" x="359.5" y="-302.3" font-family="Times New Roman,serif" font-size="14.00">mrpt&#45;detectors</text>
</a>
</g>
</g>
<!-- detectors&#45;&gt;gui -->
<g id="edge27" class="edge"><title>detectors&#45;&gt;gui</title>
<path fill="none" stroke="black" d="M309.974,-290.538C306.773,-289.663 303.594,-288.81 300.5,-288 236.974,-271.377 162.736,-254.351 117.432,-244.229"/>
<polygon fill="black" stroke="black" points="118.188,-240.812 107.666,-242.054 116.666,-247.644 118.188,-240.812"/>
</g>
<!-- detectors&#45;&gt;maps -->
<g id="edge26" class="edge"><title>detectors&#45;&gt;maps</title>
<path fill="none" stroke="black" d="M355.792,-287.697C354.139,-279.983 352.153,-270.712 350.31,-262.112"/>
<polygon fill="black" stroke="black" points="353.683,-261.149 348.165,-252.104 346.838,-262.616 353.683,-261.149"/>
</g>
<!-- detectors&#45;&gt;vision -->
<g id="edge25" class="edge"><title>detectors&#45;&gt;vision</title>
<path fill="none" stroke="black" d="M379.77,-287.697C389.998,-278.965 402.561,-268.24 413.678,-258.75"/>
<polygon fill="black" stroke="black" points="416.13,-261.259 421.463,-252.104 411.585,-255.935 416.13,-261.259"/>
</g>
<!-- kinematics&#45;&gt;opengl -->
<g id="edge2" class="edge"><title>kinematics&#45;&gt;opengl</title>
<path fill="none" stroke="black" d="M183.185,-143.697C185.748,-135.898 188.833,-126.509 191.685,-117.829"/>
<polygon fill="black" stroke="black" points="195.084,-118.697 194.88,-108.104 188.433,-116.512 195.084,-118.697"/>
</g>
<!-- pbmap -->
<g id="node19" class="node"><title>pbmap</title>
<g id="a_node19"><a xlink:href="group__mrpt__pbmap__grp.html" xlink:title="mrpt&#45;pbmap">
<polygon fill="#d0d0d0" stroke="black" points="249.5,-252 163.5,-252 163.5,-216 249.5,-216 249.5,-252"/>
<text text-anchor="middle" x="206.5" y="-230.3" font-family="Times New Roman,serif" font-size="14.00">mrpt&#45;pbmap</text>
</a>
</g>
</g>
<!-- pbmap&#45;&gt;graphs -->
<g id="edge1" class="edge"><title>pbmap&#45;&gt;graphs</title>
<path fill="none" stroke="black" d="M228.253,-215.697C239.336,-206.881 252.974,-196.032 264.99,-186.474"/>
<polygon fill="black" stroke="black" points="267.35,-189.069 272.997,-180.104 262.993,-183.59 267.35,-189.069"/>
</g>
</g>
</svg>
