<?xml version="1.0" encoding="UTF-8" standalone="no"?>
<!DOCTYPE svg PUBLIC "-//W3C//DTD SVG 1.1//EN"
 "http://www.w3.org/Graphics/SVG/1.1/DTD/svg11.dtd">
<!-- Generated by graphviz version 2.36.0 (20140111.2315)
 -->
<!-- Title: MRPT_LIBS Pages: 1 -->
<svg width="763pt" height="404pt"
 viewBox="0.00 0.00 763.00 404.00" xmlns="http://www.w3.org/2000/svg" xmlns:xlink="http://www.w3.org/1999/xlink">
<g id="graph0" class="graph" transform="scale(1 1) rotate(0) translate(4 400)">
<title>MRPT_LIBS</title>
<polygon fill="white" stroke="none" points="-4,4 -4,-400 759,-400 759,4 -4,4"/>
<!-- base -->
<g id="node1" class="node"><title>base</title>
<g id="a_node1"><a xlink:href="group__mrpt__base__grp.html" xlink:title="mrpt&#45;base">
<polygon fill="#d0d0d0" stroke="black" points="346.25,-36 273.75,-36 273.75,-0 346.25,-0 346.25,-36"/>
<text text-anchor="middle" x="310" y="-14.3" font-family="Times New Roman,serif" font-size="14.00">mrpt&#45;base</text>
</a>
</g>
</g>
<!-- graphs -->
<g id="node2" class="node"><title>graphs</title>
<g id="a_node2"><a xlink:href="group__mrpt__graphs__grp.html" xlink:title="mrpt&#45;graphs (.h)">
<polygon fill="#d0d0d0" stroke="black" points="243,-252 135,-252 135,-216 243,-216 243,-252"/>
<text text-anchor="middle" x="189" y="-230.3" font-family="Times New Roman,serif" font-size="14.00">mrpt&#45;graphs (.h)</text>
</a>
</g>
</g>
<!-- graphs&#45;&gt;base -->
<g id="edge4" class="edge"><title>graphs&#45;&gt;base</title>
<path fill="none" stroke="black" d="M186.291,-215.687C182.316,-184.083 178.377,-116.231 209,-72 222.039,-53.1661 243.918,-40.5312 263.984,-32.3387"/>
<polygon fill="black" stroke="black" points="265.241,-35.6053 273.339,-28.7736 262.749,-29.0641 265.241,-35.6053"/>
</g>
<!-- bayes -->
<g id="node3" class="node"><title>bayes</title>
<g id="a_node3"><a xlink:href="group__mrpt__bayes__grp.html" xlink:title="mrpt&#45;bayes (.h)">
<polygon fill="#d0d0d0" stroke="black" points="321.25,-108 218.75,-108 218.75,-72 321.25,-72 321.25,-108"/>
<text text-anchor="middle" x="270" y="-86.3" font-family="Times New Roman,serif" font-size="14.00">mrpt&#45;bayes (.h)</text>
</a>
</g>
</g>
<!-- bayes&#45;&gt;base -->
<g id="edge6" class="edge"><title>bayes&#45;&gt;base</title>
<path fill="none" stroke="black" d="M279.888,-71.6966C284.489,-63.6436 290.06,-53.8945 295.153,-44.9824"/>
<polygon fill="black" stroke="black" points="298.304,-46.5233 300.226,-36.1043 292.226,-43.0503 298.304,-46.5233"/>
</g>
<!-- opengl -->
<g id="node4" class="node"><title>opengl</title>
<g id="a_node4"><a xlink:href="group__mrpt__opengl__grp.html" xlink:title="mrpt&#45;opengl">
<polygon fill="#d0d0d0" stroke="black" points="603.25,-108 518.75,-108 518.75,-72 603.25,-72 603.25,-108"/>
<text text-anchor="middle" x="561" y="-86.3" font-family="Times New Roman,serif" font-size="14.00">mrpt&#45;opengl</text>
</a>
</g>
</g>
<!-- opengl&#45;&gt;base -->
<g id="edge7" class="edge"><title>opengl&#45;&gt;base</title>
<path fill="none" stroke="black" d="M518.705,-77.2046C473.669,-64.6447 402.615,-44.8289 356.155,-31.872"/>
<polygon fill="black" stroke="black" points="356.918,-28.4513 346.346,-29.1362 355.038,-35.194 356.918,-28.4513"/>
</g>
<!-- gui -->
<g id="node5" class="node"><title>gui</title>
<g id="a_node5"><a xlink:href="group__mrpt__gui__grp.html" xlink:title="mrpt&#45;gui">
<polygon fill="#d0d0d0" stroke="black" points="755,-252 691,-252 691,-216 755,-216 755,-252"/>
<text text-anchor="middle" x="723" y="-230.3" font-family="Times New Roman,serif" font-size="14.00">mrpt&#45;gui</text>
</a>
</g>
</g>
<!-- gui&#45;&gt;opengl -->
<g id="edge9" class="edge"><title>gui&#45;&gt;opengl</title>
<path fill="none" stroke="black" d="M723.964,-215.797C724.12,-196.131 721.364,-164.076 704,-144 681.28,-117.732 644.3,-104.468 613.637,-97.7787"/>
<polygon fill="black" stroke="black" points="614.003,-94.2826 603.511,-95.7527 612.63,-101.147 614.003,-94.2826"/>
</g>
<!-- obs -->
<g id="node6" class="node"><title>obs</title>
<g id="a_node6"><a xlink:href="group__mrpt__obs__grp.html" xlink:title="mrpt&#45;obs">
<polygon fill="#d0d0d0" stroke="black" points="695,-180 627,-180 627,-144 695,-144 695,-180"/>
<text text-anchor="middle" x="661" y="-158.3" font-family="Times New Roman,serif" font-size="14.00">mrpt&#45;obs</text>
</a>
</g>
</g>
<!-- obs&#45;&gt;opengl -->
<g id="edge8" class="edge"><title>obs&#45;&gt;opengl</title>
<path fill="none" stroke="black" d="M636.537,-143.876C623.704,-134.893 607.804,-123.763 593.906,-114.034"/>
<polygon fill="black" stroke="black" points="595.756,-111.057 585.557,-108.19 591.742,-116.792 595.756,-111.057"/>
</g>
<!-- hwdrivers -->
<g id="node7" class="node"><title>hwdrivers</title>
<g id="a_node7"><a xlink:href="group__mrpt__hwdrivers__grp.html" xlink:title="mrpt&#45;hwdrivers">
<polygon fill="#d0d0d0" stroke="black" points="586,-324 484,-324 484,-288 586,-288 586,-324"/>
<text text-anchor="middle" x="535" y="-302.3" font-family="Times New Roman,serif" font-size="14.00">mrpt&#45;hwdrivers</text>
</a>
</g>
</g>
<!-- hwdrivers&#45;&gt;gui -->
<g id="edge10" class="edge"><title>hwdrivers&#45;&gt;gui</title>
<path fill="none" stroke="black" d="M584.214,-287.907C610.631,-278.583 643.926,-266.594 681.254,-252.214"/>
<polygon fill="black" stroke="black" points="682.767,-255.381 690.829,-248.507 680.239,-248.854 682.767,-255.381"/>
</g>
<!-- maps -->
<g id="node9" class="node"><title>maps</title>
<g id="a_node9"><a xlink:href="group__mrpt__maps__grp.html" xlink:title="mrpt&#45;maps">
<polygon fill="#d0d0d0" stroke="black" points="573.25,-252 496.75,-252 496.75,-216 573.25,-216 573.25,-252"/>
<text text-anchor="middle" x="535" y="-230.3" font-family="Times New Roman,serif" font-size="14.00">mrpt&#45;maps</text>
</a>
</g>
</g>
<!-- hwdrivers&#45;&gt;maps -->
<g id="edge11" class="edge"><title>hwdrivers&#45;&gt;maps</title>
<path fill="none" stroke="black" d="M535,-287.697C535,-279.983 535,-270.712 535,-262.112"/>
<polygon fill="black" stroke="black" points="538.5,-262.104 535,-252.104 531.5,-262.104 538.5,-262.104"/>
</g>
<!-- topography -->
<g id="node8" class="node"><title>topography</title>
<g id="a_node8"><a xlink:href="group__mrpt__topography__grp.html" xlink:title="mrpt&#45;topography">
<polygon fill="#d0d0d0" stroke="black" points="477,-252 365,-252 365,-216 477,-216 477,-252"/>
<text text-anchor="middle" x="421" y="-230.3" font-family="Times New Roman,serif" font-size="14.00">mrpt&#45;topography</text>
</a>
</g>
</g>
<!-- topography&#45;&gt;obs -->
<g id="edge12" class="edge"><title>topography&#45;&gt;obs</title>
<path fill="none" stroke="black" d="M477.266,-218.485C525.516,-205.909 591.205,-188.445 617,-180 617.097,-179.968 617.195,-179.936 617.292,-179.904"/>
<polygon fill="black" stroke="black" points="618.229,-183.284 626.536,-176.708 615.941,-176.668 618.229,-183.284"/>
</g>
<!-- tfest -->
<g id="node11" class="node"><title>tfest</title>
<g id="a_node11"><a xlink:href="group__mrpt__tfest__grp.html" xlink:title="mrpt&#45;tfest">
<polygon fill="#d0d0d0" stroke="black" points="370.25,-180 299.75,-180 299.75,-144 370.25,-144 370.25,-180"/>
<text text-anchor="middle" x="335" y="-158.3" font-family="Times New Roman,serif" font-size="14.00">mrpt&#45;tfest</text>
</a>
</g>
</g>
<!-- topography&#45;&gt;tfest -->
<g id="edge13" class="edge"><title>topography&#45;&gt;tfest</title>
<path fill="none" stroke="black" d="M399.742,-215.697C388.911,-206.881 375.582,-196.032 363.84,-186.474"/>
<polygon fill="black" stroke="black" points="365.979,-183.703 356.014,-180.104 361.56,-189.132 365.979,-183.703"/>
</g>
<!-- maps&#45;&gt;obs -->
<g id="edge15" class="edge"><title>maps&#45;&gt;obs</title>
<path fill="none" stroke="black" d="M565.823,-215.876C582.45,-206.639 603.165,-195.131 621.019,-185.212"/>
<polygon fill="black" stroke="black" points="623.017,-188.106 630.058,-180.19 619.617,-181.987 623.017,-188.106"/>
</g>
<!-- vision -->
<g id="node10" class="node"><title>vision</title>
<g id="a_node10"><a xlink:href="group__mrpt__vision__grp.html" xlink:title="mrpt&#45;vision">
<polygon fill="#d0d0d0" stroke="black" points="673,-252 593,-252 593,-216 673,-216 673,-252"/>
<text text-anchor="middle" x="633" y="-230.3" font-family="Times New Roman,serif" font-size="14.00">mrpt&#45;vision</text>
</a>
</g>
</g>
<!-- vision&#45;&gt;obs -->
<g id="edge14" class="edge"><title>vision&#45;&gt;obs</title>
<path fill="none" stroke="black" d="M639.921,-215.697C643.075,-207.813 646.878,-198.304 650.381,-189.546"/>
<polygon fill="black" stroke="black" points="653.694,-190.689 654.158,-180.104 647.195,-188.089 653.694,-190.689"/>
</g>
<!-- tfest&#45;&gt;base -->
<g id="edge5" class="edge"><title>tfest&#45;&gt;base</title>
<path fill="none" stroke="black" d="M335.571,-143.734C335.813,-125.653 335.189,-96.5279 330,-72 328.148,-63.2442 325.085,-54.0162 321.907,-45.7582"/>
<polygon fill="black" stroke="black" points="325.055,-44.2083 318.046,-36.2631 318.57,-46.8449 325.055,-44.2083"/>
</g>
<!-- slam -->
<g id="node12" class="node"><title>slam</title>
<g id="a_node12"><a xlink:href="group__mrpt__slam__grp.html" xlink:title="mrpt&#45;slam">
<polygon fill="#d0d0d0" stroke="black" points="408.25,-324 335.75,-324 335.75,-288 408.25,-288 408.25,-324"/>
<text text-anchor="middle" x="372" y="-302.3" font-family="Times New Roman,serif" font-size="14.00">mrpt&#45;slam</text>
</a>
</g>
</g>
<!-- slam&#45;&gt;graphs -->
<g id="edge20" class="edge"><title>slam&#45;&gt;graphs</title>
<path fill="none" stroke="black" d="M335.407,-291.003C308.96,-280.886 272.8,-267.055 243.035,-255.669"/>
<polygon fill="black" stroke="black" points="244.206,-252.37 233.616,-252.066 241.706,-258.908 244.206,-252.37"/>
</g>
<!-- slam&#45;&gt;bayes -->
<g id="edge19" class="edge"><title>slam&#45;&gt;bayes</title>
<path fill="none" stroke="black" d="M357.89,-287.937C339.533,-264.877 307.721,-221.82 290,-180 281.62,-160.224 276.506,-136.423 273.549,-118.412"/>
<polygon fill="black" stroke="black" points="276.974,-117.654 272.013,-108.293 270.053,-118.705 276.974,-117.654"/>
</g>
<!-- slam&#45;&gt;maps -->
<g id="edge16" class="edge"><title>slam&#45;&gt;maps</title>
<path fill="none" stroke="black" d="M408.58,-289.291C431.802,-279.318 462.098,-266.308 487.211,-255.523"/>
<polygon fill="black" stroke="black" points="488.749,-258.672 496.556,-251.51 485.986,-252.24 488.749,-258.672"/>
</g>
<!-- slam&#45;&gt;vision -->
<g id="edge17" class="edge"><title>slam&#45;&gt;vision</title>
<path fill="none" stroke="black" d="M408.266,-296.715C450.302,-286.911 521.549,-269.677 582,-252 582.448,-251.869 582.898,-251.737 583.349,-251.603"/>
<polygon fill="black" stroke="black" points="584.463,-254.923 592.999,-248.647 582.412,-248.23 584.463,-254.923"/>
</g>
<!-- slam&#45;&gt;tfest -->
<g id="edge18" class="edge"><title>slam&#45;&gt;tfest</title>
<path fill="none" stroke="black" d="M366.543,-287.891C363.317,-277.546 359.242,-264.067 356,-252 350.474,-231.431 344.973,-207.979 340.988,-190.314"/>
<polygon fill="black" stroke="black" points="344.311,-189.137 338.716,-180.14 337.48,-190.663 344.311,-189.137"/>
</g>
<!-- graphslam -->
<g id="node13" class="node"><title>graphslam</title>
<g id="a_node13"><a xlink:href="group__mrpt__graphslam__grp.html" xlink:title="mrpt&#45;graphslam (.h)">
<polygon fill="#d0d0d0" stroke="black" points="128,-324 0,-324 0,-288 128,-288 128,-324"/>
<text text-anchor="middle" x="64" y="-302.3" font-family="Times New Roman,serif" font-size="14.00">mrpt&#45;graphslam (.h)</text>
</a>
</g>
</g>
<!-- graphslam&#45;&gt;graphs -->
<g id="edge21" class="edge"><title>graphslam&#45;&gt;graphs</title>
<path fill="none" stroke="black" d="M94.5784,-287.876C111.074,-278.639 131.624,-267.131 149.336,-257.212"/>
<polygon fill="black" stroke="black" points="151.289,-260.13 158.304,-252.19 147.869,-254.022 151.289,-260.13"/>
</g>
<!-- hmtslam -->
<g id="node14" class="node"><title>hmtslam</title>
<g id="a_node14"><a xlink:href="group__mrpt__hmtslam__grp.html" xlink:title="mrpt&#45;hmtslam">
<polygon fill="#d0d0d0" stroke="black" points="265,-396 171,-396 171,-360 265,-360 265,-396"/>
<text text-anchor="middle" x="218" y="-374.3" font-family="Times New Roman,serif" font-size="14.00">mrpt&#45;hmtslam</text>
</a>
</g>
</g>
<!-- hmtslam&#45;&gt;slam -->
<g id="edge25" class="edge"><title>hmtslam&#45;&gt;slam</title>
<path fill="none" stroke="black" d="M255.673,-359.876C276.943,-350.208 303.688,-338.051 326.168,-327.833"/>
<polygon fill="black" stroke="black" points="327.857,-330.91 335.513,-323.585 324.961,-324.537 327.857,-330.91"/>
</g>
<!-- hmtslam&#45;&gt;graphslam -->
<g id="edge26" class="edge"><title>hmtslam&#45;&gt;graphslam</title>
<path fill="none" stroke="black" d="M180.327,-359.876C159.368,-350.349 133.095,-338.407 110.823,-328.283"/>
<polygon fill="black" stroke="black" points="112.102,-325.02 101.55,-324.068 109.206,-331.393 112.102,-325.02"/>
</g>
<!-- nav -->
<g id="node15" class="node"><title>nav</title>
<g id="a_node15"><a xlink:href="group__mrpt__nav__grp.html" xlink:title="mrpt&#45;nav">
<polygon fill="#d0d0d0" stroke="black" points="317.25,-324 250.75,-324 250.75,-288 317.25,-288 317.25,-324"/>
<text text-anchor="middle" x="284" y="-302.3" font-family="Times New Roman,serif" font-size="14.00">mrpt&#45;nav</text>
</a>
</g>
</g>
<!-- nav&#45;&gt;graphs -->
<g id="edge28" class="edge"><title>nav&#45;&gt;graphs</title>
<path fill="none" stroke="black" d="M260.517,-287.697C248.437,-278.796 233.546,-267.823 220.484,-258.199"/>
<polygon fill="black" stroke="black" points="222.34,-255.219 212.213,-252.104 218.187,-260.854 222.34,-255.219"/>
</g>
<!-- nav&#45;&gt;maps -->
<g id="edge27" class="edge"><title>nav&#45;&gt;maps</title>
<path fill="none" stroke="black" d="M317.292,-290.953C320.215,-289.893 323.147,-288.892 326,-288 395.569,-266.254 415.902,-271.977 486,-252 486.325,-251.907 486.65,-251.814 486.977,-251.72"/>
<polygon fill="black" stroke="black" points="488.072,-255.045 496.613,-248.776 486.027,-248.35 488.072,-255.045"/>
</g>
<!-- detectors -->
<g id="node16" class="node"><title>detectors</title>
<g id="a_node16"><a xlink:href="group__mrpt__detectors__grp.html" xlink:title="mrpt&#45;detectors">
<polygon fill="#d0d0d0" stroke="black" points="703.25,-324 604.75,-324 604.75,-288 703.25,-288 703.25,-324"/>
<text text-anchor="middle" x="654" y="-302.3" font-family="Times New Roman,serif" font-size="14.00">mrpt&#45;detectors</text>
</a>
</g>
</g>
<!-- detectors&#45;&gt;gui -->
<g id="edge24" class="edge"><title>detectors&#45;&gt;gui</title>
<path fill="none" stroke="black" d="M671.056,-287.697C679.495,-279.135 689.825,-268.656 699.043,-259.304"/>
<polygon fill="black" stroke="black" points="701.613,-261.683 706.14,-252.104 696.627,-256.769 701.613,-261.683"/>
</g>
<!-- detectors&#45;&gt;maps -->
<g id="edge23" class="edge"><title>detectors&#45;&gt;maps</title>
<path fill="none" stroke="black" d="M624.889,-287.876C609.33,-278.724 589.981,-267.342 573.224,-257.485"/>
<polygon fill="black" stroke="black" points="574.617,-254.243 564.223,-252.19 571.067,-260.277 574.617,-254.243"/>
</g>
<!-- detectors&#45;&gt;vision -->
<g id="edge22" class="edge"><title>detectors&#45;&gt;vision</title>
<path fill="none" stroke="black" d="M648.809,-287.697C646.469,-279.898 643.653,-270.509 641.049,-261.829"/>
<polygon fill="black" stroke="black" points="644.357,-260.677 638.131,-252.104 637.652,-262.688 644.357,-260.677"/>
</g>
<!-- kinematics -->
<g id="node17" class="node"><title>kinematics</title>
<g id="a_node17"><a xlink:href="group__mrpt__kinematics__grp.html" xlink:title="mrpt&#45;kinematics">
<polygon fill="#d0d0d0" stroke="black" points="495,-180 389,-180 389,-144 495,-144 495,-180"/>
<text text-anchor="middle" x="442" y="-158.3" font-family="Times New Roman,serif" font-size="14.00">mrpt&#45;kinematics</text>
</a>
</g>
</g>
<!-- kinematics&#45;&gt;opengl -->
<g id="edge3" class="edge"><title>kinematics&#45;&gt;opengl</title>
<path fill="none" stroke="black" d="M471.111,-143.876C486.67,-134.724 506.019,-123.342 522.776,-113.485"/>
<polygon fill="black" stroke="black" points="524.933,-116.277 531.777,-108.19 521.383,-110.243 524.933,-116.277"/>
</g>
<!-- srba -->
<g id="node18" class="node"><title>srba</title>
<g id="a_node18"><a xlink:href="group__mrpt__srba__grp.html" xlink:title="mrpt&#45;srba (.h)">
<polygon fill="#d0d0d0" stroke="black" points="608.25,-180 513.75,-180 513.75,-144 608.25,-144 608.25,-180"/>
<text text-anchor="middle" x="561" y="-158.3" font-family="Times New Roman,serif" font-size="14.00">mrpt&#45;srba (.h)</text>
</a>
</g>
</g>
<!-- srba&#45;&gt;opengl -->
<g id="edge1" class="edge"><title>srba&#45;&gt;opengl</title>
<path fill="none" stroke="black" d="M561,-143.697C561,-135.983 561,-126.712 561,-118.112"/>
<polygon fill="black" stroke="black" points="564.5,-118.104 561,-108.104 557.5,-118.104 564.5,-118.104"/>
</g>
<!-- pbmap -->
<g id="node19" class="node"><title>pbmap</title>
<g id="a_node19"><a xlink:href="group__mrpt__pbmap__grp.html" xlink:title="mrpt&#45;pbmap">
<polygon fill="#d0d0d0" stroke="black" points="232,-324 146,-324 146,-288 232,-288 232,-324"/>
<text text-anchor="middle" x="189" y="-302.3" font-family="Times New Roman,serif" font-size="14.00">mrpt&#45;pbmap</text>
</a>
</g>
</g>
<!-- pbmap&#45;&gt;graphs -->
<g id="edge2" class="edge"><title>pbmap&#45;&gt;graphs</title>
<path fill="none" stroke="black" d="M189,-287.697C189,-279.983 189,-270.712 189,-262.112"/>
<polygon fill="black" stroke="black" points="192.5,-262.104 189,-252.104 185.5,-262.104 192.5,-262.104"/>
</g>
</g>
</svg>
