<?xml version="1.0" encoding="UTF-8" standalone="no"?>
<!DOCTYPE svg PUBLIC "-//W3C//DTD SVG 1.1//EN"
 "http://www.w3.org/Graphics/SVG/1.1/DTD/svg11.dtd">
<!-- Generated by graphviz version 2.28.0 (20110507.0327)
 -->
<!-- Title: MRPT_LIBS Pages: 1 -->
<svg width="556pt" height="476pt"
 viewBox="0.00 0.00 556.00 476.00" xmlns="http://www.w3.org/2000/svg" xmlns:xlink="http://www.w3.org/1999/xlink">
<g id="graph1" class="graph" transform="scale(1 1) rotate(0) translate(4 472)">
<title>MRPT_LIBS</title>
<polygon fill="white" stroke="white" points="-4,5 -4,-472 553,-472 553,5 -4,5"/>
<!-- base -->
<g id="node1" class="node"><title>base</title>
<a xlink:href="group__mrpt__base__grp.html" xlink:title="mrpt&#45;base">
<polygon fill="#d0d0d0" stroke="black" points="413.25,-36 350.75,-36 350.75,-0 413.25,-0 413.25,-36"/>
<text text-anchor="middle" x="382" y="-14.9" font-family="Times New Roman,serif" font-size="12.00">mrpt&#45;base</text>
</a>
</g>
<!-- graphs -->
<g id="node2" class="node"><title>graphs</title>
<a xlink:href="group__mrpt__graphs__grp.html" xlink:title="mrpt&#45;graphs">
<polygon fill="#d0d0d0" stroke="black" points="375,-252 303,-252 303,-216 375,-216 375,-252"/>
<text text-anchor="middle" x="339" y="-230.9" font-family="Times New Roman,serif" font-size="12.00">mrpt&#45;graphs</text>
</a>
</g>
<!-- graphs&#45;&gt;base -->
<g id="edge2" class="edge"><title>graphs&#45;&gt;base</title>
<path fill="none" stroke="black" d="M342.446,-215.849C349.9,-178.753 367.571,-90.8101 376.554,-46.1027"/>
<polygon fill="black" stroke="black" points="379.999,-46.726 378.537,-36.2325 373.136,-45.347 379.999,-46.726"/>
</g>
<!-- bayes -->
<g id="node3" class="node"><title>bayes</title>
<a xlink:href="group__mrpt__bayes__grp.html" xlink:title="mrpt&#45;bayes">
<polygon fill="#d0d0d0" stroke="black" points="548,-108 480,-108 480,-72 548,-72 548,-108"/>
<text text-anchor="middle" x="514" y="-86.9" font-family="Times New Roman,serif" font-size="12.00">mrpt&#45;bayes</text>
</a>
</g>
<!-- bayes&#45;&gt;base -->
<g id="edge6" class="edge"><title>bayes&#45;&gt;base</title>
<path fill="none" stroke="black" d="M481.709,-71.8761C463.868,-62.415 441.535,-50.5716 422.53,-40.4932"/>
<polygon fill="black" stroke="black" points="423.976,-37.2985 413.502,-35.7056 420.697,-43.4828 423.976,-37.2985"/>
</g>
<!-- opengl -->
<g id="node4" class="node"><title>opengl</title>
<a xlink:href="group__mrpt__opengl__grp.html" xlink:title="mrpt&#45;opengl">
<polygon fill="#d0d0d0" stroke="black" points="246,-108 174,-108 174,-72 246,-72 246,-108"/>
<text text-anchor="middle" x="210" y="-86.9" font-family="Times New Roman,serif" font-size="12.00">mrpt&#45;opengl</text>
</a>
</g>
<!-- opengl&#45;&gt;base -->
<g id="edge8" class="edge"><title>opengl&#45;&gt;base</title>
<path fill="none" stroke="black" d="M246.057,-74.3257C273.847,-63.0159 312.284,-47.3727 341.199,-35.6051"/>
<polygon fill="black" stroke="black" points="342.667,-38.7863 350.61,-31.7748 340.029,-32.3026 342.667,-38.7863"/>
</g>
<!-- gui -->
<g id="node5" class="node"><title>gui</title>
<a xlink:href="group__mrpt__gui__grp.html" xlink:title="mrpt&#45;gui">
<polygon fill="#d0d0d0" stroke="black" points="99.25,-180 44.75,-180 44.75,-144 99.25,-144 99.25,-180"/>
<text text-anchor="middle" x="72" y="-158.9" font-family="Times New Roman,serif" font-size="12.00">mrpt&#45;gui</text>
</a>
</g>
<!-- gui&#45;&gt;opengl -->
<g id="edge12" class="edge"><title>gui&#45;&gt;opengl</title>
<path fill="none" stroke="black" d="M99.2644,-147.17C118.646,-137.339 145.066,-123.937 167.239,-112.691"/>
<polygon fill="black" stroke="black" points="169.113,-115.664 176.448,-108.019 165.947,-109.421 169.113,-115.664"/>
</g>
<!-- obs -->
<g id="node6" class="node"><title>obs</title>
<a xlink:href="group__mrpt__obs__grp.html" xlink:title="mrpt&#45;obs">
<polygon fill="#d0d0d0" stroke="black" points="239.25,-180 180.75,-180 180.75,-144 239.25,-144 239.25,-180"/>
<text text-anchor="middle" x="210" y="-158.9" font-family="Times New Roman,serif" font-size="12.00">mrpt&#45;obs</text>
</a>
</g>
<!-- obs&#45;&gt;opengl -->
<g id="edge10" class="edge"><title>obs&#45;&gt;opengl</title>
<path fill="none" stroke="black" d="M210,-143.697C210,-135.983 210,-126.712 210,-118.112"/>
<polygon fill="black" stroke="black" points="213.5,-118.104 210,-108.104 206.5,-118.104 213.5,-118.104"/>
</g>
<!-- hwdrivers -->
<g id="node7" class="node"><title>hwdrivers</title>
<a xlink:href="group__mrpt__hwdrivers__grp.html" xlink:title="mrpt&#45;hwdrivers">
<polygon fill="#d0d0d0" stroke="black" points="115,-252 29,-252 29,-216 115,-216 115,-252"/>
<text text-anchor="middle" x="72" y="-230.9" font-family="Times New Roman,serif" font-size="12.00">mrpt&#45;hwdrivers</text>
</a>
</g>
<!-- hwdrivers&#45;&gt;gui -->
<g id="edge14" class="edge"><title>hwdrivers&#45;&gt;gui</title>
<path fill="none" stroke="black" d="M72,-215.697C72,-207.983 72,-198.712 72,-190.112"/>
<polygon fill="black" stroke="black" points="75.5001,-190.104 72,-180.104 68.5001,-190.104 75.5001,-190.104"/>
</g>
<!-- hwdrivers&#45;&gt;obs -->
<g id="edge16" class="edge"><title>hwdrivers&#45;&gt;obs</title>
<path fill="none" stroke="black" d="M105.759,-215.876C125.549,-205.838 150.626,-193.117 171.225,-182.669"/>
<polygon fill="black" stroke="black" points="173.004,-185.691 180.339,-178.046 169.837,-179.448 173.004,-185.691"/>
</g>
<!-- topography -->
<g id="node8" class="node"><title>topography</title>
<a xlink:href="group__mrpt__topography__grp.html" xlink:title="mrpt&#45;topography">
<polygon fill="#d0d0d0" stroke="black" points="487,-252 393,-252 393,-216 487,-216 487,-252"/>
<text text-anchor="middle" x="440" y="-230.9" font-family="Times New Roman,serif" font-size="12.00">mrpt&#45;topography</text>
</a>
</g>
<!-- topography&#45;&gt;obs -->
<g id="edge18" class="edge"><title>topography&#45;&gt;obs</title>
<path fill="none" stroke="black" d="M392.901,-218.666C350.496,-205.76 288.901,-187.013 249.142,-174.913"/>
<polygon fill="black" stroke="black" points="250.116,-171.551 239.53,-171.987 248.077,-178.247 250.116,-171.551"/>
</g>
<!-- scanmatching -->
<g id="node11" class="node"><title>scanmatching</title>
<a xlink:href="group__mrpt__scanmatching__grp.html" xlink:title="mrpt&#45;scanmatching">
<polygon fill="#d0d0d0" stroke="black" points="491,-180 389,-180 389,-144 491,-144 491,-180"/>
<text text-anchor="middle" x="440" y="-158.9" font-family="Times New Roman,serif" font-size="12.00">mrpt&#45;scanmatching</text>
</a>
</g>
<!-- topography&#45;&gt;scanmatching -->
<g id="edge20" class="edge"><title>topography&#45;&gt;scanmatching</title>
<path fill="none" stroke="black" d="M440,-215.697C440,-207.983 440,-198.712 440,-190.112"/>
<polygon fill="black" stroke="black" points="443.5,-190.104 440,-180.104 436.5,-190.104 443.5,-190.104"/>
</g>
<!-- maps -->
<g id="node9" class="node"><title>maps</title>
<a xlink:href="group__mrpt__maps__grp.html" xlink:title="mrpt&#45;maps">
<polygon fill="#d0d0d0" stroke="black" points="285,-252 219,-252 219,-216 285,-216 285,-252"/>
<text text-anchor="middle" x="252" y="-230.9" font-family="Times New Roman,serif" font-size="12.00">mrpt&#45;maps</text>
</a>
</g>
<!-- maps&#45;&gt;obs -->
<g id="edge24" class="edge"><title>maps&#45;&gt;obs</title>
<path fill="none" stroke="black" d="M241.618,-215.697C236.735,-207.559 230.813,-197.689 225.421,-188.701"/>
<polygon fill="black" stroke="black" points="228.409,-186.879 220.263,-180.104 222.406,-190.48 228.409,-186.879"/>
</g>
<!-- vision -->
<g id="node10" class="node"><title>vision</title>
<a xlink:href="group__mrpt__vision__grp.html" xlink:title="mrpt&#45;vision">
<polygon fill="#d0d0d0" stroke="black" points="201,-252 133,-252 133,-216 201,-216 201,-252"/>
<text text-anchor="middle" x="167" y="-230.9" font-family="Times New Roman,serif" font-size="12.00">mrpt&#45;vision</text>
</a>
</g>
<!-- vision&#45;&gt;obs -->
<g id="edge22" class="edge"><title>vision&#45;&gt;obs</title>
<path fill="none" stroke="black" d="M177.629,-215.697C182.628,-207.559 188.691,-197.689 194.212,-188.701"/>
<polygon fill="black" stroke="black" points="197.241,-190.457 199.493,-180.104 191.277,-186.793 197.241,-190.457"/>
</g>
<!-- scanmatching&#45;&gt;base -->
<g id="edge4" class="edge"><title>scanmatching&#45;&gt;base</title>
<path fill="none" stroke="black" d="M433.004,-143.871C423.032,-119.457 404.639,-74.4258 392.879,-45.6351"/>
<polygon fill="black" stroke="black" points="396.042,-44.1234 389.021,-36.1893 389.562,-46.7703 396.042,-44.1234"/>
</g>
<!-- slam -->
<g id="node12" class="node"><title>slam</title>
<a xlink:href="group__mrpt__slam__grp.html" xlink:title="mrpt&#45;slam">
<polygon fill="#d0d0d0" stroke="black" points="401,-324 339,-324 339,-288 401,-288 401,-324"/>
<text text-anchor="middle" x="370" y="-302.9" font-family="Times New Roman,serif" font-size="12.00">mrpt&#45;slam</text>
</a>
</g>
<!-- slam&#45;&gt;graphs -->
<g id="edge34" class="edge"><title>slam&#45;&gt;graphs</title>
<path fill="none" stroke="black" d="M362.337,-287.697C358.808,-279.728 354.544,-270.1 350.631,-261.264"/>
<polygon fill="black" stroke="black" points="353.824,-259.831 346.575,-252.104 347.424,-262.665 353.824,-259.831"/>
</g>
<!-- slam&#45;&gt;bayes -->
<g id="edge32" class="edge"><title>slam&#45;&gt;bayes</title>
<path fill="none" stroke="black" d="M401.298,-303.167C434.938,-299.336 486.945,-287.62 512,-252 539.91,-212.32 530.898,-152.449 522.197,-117.998"/>
<polygon fill="black" stroke="black" points="525.531,-116.917 519.548,-108.173 518.772,-118.739 525.531,-116.917"/>
</g>
<!-- slam&#45;&gt;maps -->
<g id="edge26" class="edge"><title>slam&#45;&gt;maps</title>
<path fill="none" stroke="black" d="M341.134,-287.876C325.705,-278.724 306.519,-267.342 289.903,-257.485"/>
<polygon fill="black" stroke="black" points="291.363,-254.282 280.977,-252.19 287.792,-260.302 291.363,-254.282"/>
</g>
<!-- slam&#45;&gt;vision -->
<g id="edge28" class="edge"><title>slam&#45;&gt;vision</title>
<path fill="none" stroke="black" d="M338.785,-291.683C335.499,-290.393 332.193,-289.142 329,-288 279.816,-270.413 263.911,-270.146 210.78,-252.119"/>
<polygon fill="black" stroke="black" points="211.767,-248.757 201.172,-248.805 209.484,-255.374 211.767,-248.757"/>
</g>
<!-- slam&#45;&gt;scanmatching -->
<g id="edge30" class="edge"><title>slam&#45;&gt;scanmatching</title>
<path fill="none" stroke="black" d="M401.004,-301.574C431.025,-296.425 474.991,-283.629 496,-252 504.853,-238.672 502.326,-230.696 496,-216 491.211,-204.874 482.81,-194.991 473.95,-186.863"/>
<polygon fill="black" stroke="black" points="476.003,-184.013 466.124,-180.184 471.459,-189.338 476.003,-184.013"/>
</g>
<!-- graphslam -->
<g id="node13" class="node"><title>graphslam</title>
<a xlink:href="group__mrpt__graphslam__grp.html" xlink:title="mrpt&#45;graphslam">
<polygon fill="#d0d0d0" stroke="black" points="450,-396 362,-396 362,-360 450,-360 450,-396"/>
<text text-anchor="middle" x="406" y="-374.9" font-family="Times New Roman,serif" font-size="12.00">mrpt&#45;graphslam</text>
</a>
</g>
<!-- graphslam&#45;&gt;slam -->
<g id="edge36" class="edge"><title>graphslam&#45;&gt;slam</title>
<path fill="none" stroke="black" d="M397.101,-359.697C393.003,-351.728 388.051,-342.1 383.507,-333.264"/>
<polygon fill="black" stroke="black" points="386.483,-331.396 378.797,-324.104 380.258,-334.598 386.483,-331.396"/>
</g>
<!-- hmtslam -->
<g id="node14" class="node"><title>hmtslam</title>
<a xlink:href="group__mrpt__hmtslam__grp.html" xlink:title="mrpt&#45;hmtslam">
<polygon fill="#d0d0d0" stroke="black" points="409.25,-468 330.75,-468 330.75,-432 409.25,-432 409.25,-468"/>
<text text-anchor="middle" x="370" y="-446.9" font-family="Times New Roman,serif" font-size="12.00">mrpt&#45;hmtslam</text>
</a>
</g>
<!-- hmtslam&#45;&gt;slam -->
<g id="edge44" class="edge"><title>hmtslam&#45;&gt;slam</title>
<path fill="none" stroke="black" d="M362.934,-431.665C359.162,-421.47 354.912,-408.22 353,-396 350.527,-380.192 350.527,-375.808 353,-360 354.359,-351.312 356.9,-342.104 359.611,-333.843"/>
<polygon fill="black" stroke="black" points="362.939,-334.93 362.934,-324.335 356.331,-332.62 362.939,-334.93"/>
</g>
<!-- hmtslam&#45;&gt;graphslam -->
<g id="edge46" class="edge"><title>hmtslam&#45;&gt;graphslam</title>
<path fill="none" stroke="black" d="M378.899,-431.697C382.997,-423.728 387.949,-414.1 392.493,-405.264"/>
<polygon fill="black" stroke="black" points="395.742,-406.598 397.203,-396.104 389.517,-403.396 395.742,-406.598"/>
</g>
<!-- reactivenav -->
<g id="node15" class="node"><title>reactivenav</title>
<a xlink:href="group__mrpt__reactivenav__grp.html" xlink:title="mrpt&#45;reactivenav">
<polygon fill="#d0d0d0" stroke="black" points="320.25,-324 227.75,-324 227.75,-288 320.25,-288 320.25,-324"/>
<text text-anchor="middle" x="274" y="-302.9" font-family="Times New Roman,serif" font-size="12.00">mrpt&#45;reactivenav</text>
</a>
</g>
<!-- reactivenav&#45;&gt;graphs -->
<g id="edge52" class="edge"><title>reactivenav&#45;&gt;graphs</title>
<path fill="none" stroke="black" d="M290.067,-287.697C297.939,-279.22 307.555,-268.864 316.173,-259.583"/>
<polygon fill="black" stroke="black" points="318.878,-261.814 323.117,-252.104 313.748,-257.051 318.878,-261.814"/>
</g>
<!-- reactivenav&#45;&gt;maps -->
<g id="edge50" class="edge"><title>reactivenav&#45;&gt;maps</title>
<path fill="none" stroke="black" d="M268.562,-287.697C266.111,-279.898 263.16,-270.509 260.432,-261.829"/>
<polygon fill="black" stroke="black" points="263.713,-260.595 257.376,-252.104 257.035,-262.694 263.713,-260.595"/>
</g>
<!-- stereoslam -->
<g id="node16" class="node"><title>stereoslam</title>
<a xlink:href="group__mrpt__stereoslam__grp.html" xlink:title="mrpt&#45;stereoslam (*)">
<polygon fill="#d0d0d0" stroke="black" points="106.25,-324 -0.25,-324 -0.25,-288 106.25,-288 106.25,-324"/>
<text text-anchor="middle" x="53" y="-302.9" font-family="Times New Roman,serif" font-size="12.00">mrpt&#45;stereoslam (*)</text>
</a>
</g>
<!-- stereoslam&#45;&gt;vision -->
<g id="edge48" class="edge"><title>stereoslam&#45;&gt;vision</title>
<path fill="none" stroke="black" d="M80.8875,-287.876C95.793,-278.724 114.329,-267.342 130.382,-257.485"/>
<polygon fill="black" stroke="black" points="132.315,-260.405 139.005,-252.19 128.652,-254.44 132.315,-260.405"/>
</g>
<!-- detectors -->
<g id="node17" class="node"><title>detectors</title>
<a xlink:href="group__mrpt__detectors__grp.html" xlink:title="mrpt&#45;detectors">
<polygon fill="#d0d0d0" stroke="black" points="209,-324 125,-324 125,-288 209,-288 209,-324"/>
<text text-anchor="middle" x="167" y="-302.9" font-family="Times New Roman,serif" font-size="12.00">mrpt&#45;detectors</text>
</a>
</g>
<!-- detectors&#45;&gt;gui -->
<g id="edge42" class="edge"><title>detectors&#45;&gt;gui</title>
<path fill="none" stroke="black" d="M124.929,-291.148C82.6266,-277.022 23.1968,-256.551 20,-252 5.19777,-230.928 23.4662,-205.425 42.304,-187.13"/>
<polygon fill="black" stroke="black" points="44.7824,-189.606 49.7598,-180.253 40.0363,-184.46 44.7824,-189.606"/>
</g>
<!-- detectors&#45;&gt;maps -->
<g id="edge40" class="edge"><title>detectors&#45;&gt;maps</title>
<path fill="none" stroke="black" d="M188.011,-287.697C198.716,-278.881 211.89,-268.032 223.496,-258.474"/>
<polygon fill="black" stroke="black" points="225.736,-261.163 231.23,-252.104 221.286,-255.76 225.736,-261.163"/>
</g>
<!-- detectors&#45;&gt;vision -->
<g id="edge38" class="edge"><title>detectors&#45;&gt;vision</title>
<path fill="none" stroke="black" d="M167,-287.697C167,-279.983 167,-270.712 167,-262.112"/>
<polygon fill="black" stroke="black" points="170.5,-262.104 167,-252.104 163.5,-262.104 170.5,-262.104"/>
</g>
</g>
</svg>
