<?xml version="1.0" encoding="UTF-8" standalone="no"?>
<!DOCTYPE svg PUBLIC "-//W3C//DTD SVG 1.1//EN"
 "http://www.w3.org/Graphics/SVG/1.1/DTD/svg11.dtd">
<!-- Generated by graphviz version 2.26.3 (20100126.1600)
 -->
<!-- Title: MRPT_LIBS Pages: 1 -->
<svg width="722pt" height="476pt"
 viewBox="0.00 0.00 722.00 476.00" xmlns="http://www.w3.org/2000/svg" xmlns:xlink="http://www.w3.org/1999/xlink">
<g id="graph1" class="graph" transform="scale(1 1) rotate(0) translate(4 472)">
<title>MRPT_LIBS</title>
<polygon fill="white" stroke="white" points="-4,5 -4,-472 719,-472 719,5 -4,5"/>
<!-- base -->
<g id="node1" class="node"><title>base</title>
<a xlink:href="group__mrpt__base__grp.html" xlink:title="mrpt&#45;base">
<polygon fill="#d0d0d0" stroke="black" points="222,-36 146,-36 146,-1.77636e-14 222,-3.55271e-15 222,-36"/>
<text text-anchor="middle" x="184" y="-14.7" font-family="Times Roman,serif" font-size="12.00">mrpt&#45;base</text>
</a>
</g>
<!-- graphs -->
<g id="node2" class="node"><title>graphs</title>
<a xlink:href="group__mrpt__graphs__grp.html" xlink:title="mrpt&#45;graphs (.h)">
<polygon fill="#d0d0d0" stroke="black" points="114,-252 4.9738e-14,-252 0,-216 114,-216 114,-252"/>
<text text-anchor="middle" x="57" y="-230.7" font-family="Times Roman,serif" font-size="12.00">mrpt&#45;graphs (.h)</text>
</a>
</g>
<!-- graphs&#45;&gt;base -->
<g id="edge6" class="edge"><title>graphs&#45;&gt;base</title>
<path fill="none" stroke="black" d="M54.5494,-215.776C51.2281,-183.587 48.8775,-115.923 80,-72 93.5048,-52.9409 115.816,-40.1156 136.317,-31.7661"/>
<polygon fill="black" stroke="black" points="137.777,-34.9556 145.879,-28.129 135.288,-28.4129 137.777,-34.9556"/>
</g>
<!-- bayes -->
<g id="node3" class="node"><title>bayes</title>
<a xlink:href="group__mrpt__bayes__grp.html" xlink:title="mrpt&#45;bayes (.h)">
<polygon fill="#d0d0d0" stroke="black" points="197,-108 89,-108 89,-72 197,-72 197,-108"/>
<text text-anchor="middle" x="143" y="-86.7" font-family="Times Roman,serif" font-size="12.00">mrpt&#45;bayes (.h)</text>
</a>
</g>
<!-- bayes&#45;&gt;base -->
<g id="edge10" class="edge"><title>bayes&#45;&gt;base</title>
<path fill="none" stroke="black" d="M153.346,-71.8314C157.924,-63.7925 163.405,-54.1666 168.459,-45.2918"/>
<polygon fill="black" stroke="black" points="171.608,-46.8351 173.515,-36.4133 165.525,-43.3712 171.608,-46.8351"/>
</g>
<!-- opengl -->
<g id="node4" class="node"><title>opengl</title>
<a xlink:href="group__mrpt__opengl__grp.html" xlink:title="mrpt&#45;opengl">
<polygon fill="#d0d0d0" stroke="black" points="536,-108 448,-108 448,-72 536,-72 536,-108"/>
<text text-anchor="middle" x="492" y="-86.7" font-family="Times Roman,serif" font-size="12.00">mrpt&#45;opengl</text>
</a>
</g>
<!-- opengl&#45;&gt;base -->
<g id="edge12" class="edge"><title>opengl&#45;&gt;base</title>
<path fill="none" stroke="black" d="M447.871,-79.6842C390.635,-66.3044 291.151,-43.0482 232.056,-29.2338"/>
<polygon fill="black" stroke="black" points="232.755,-25.803 222.221,-26.9348 231.162,-32.6192 232.755,-25.803"/>
</g>
<!-- gui -->
<g id="node5" class="node"><title>gui</title>
<a xlink:href="group__mrpt__gui__grp.html" xlink:title="mrpt&#45;gui">
<polygon fill="#d0d0d0" stroke="black" points="714,-180 648,-180 648,-144 714,-144 714,-180"/>
<text text-anchor="middle" x="681" y="-158.7" font-family="Times Roman,serif" font-size="12.00">mrpt&#45;gui</text>
</a>
</g>
<!-- gui&#45;&gt;opengl -->
<g id="edge16" class="edge"><title>gui&#45;&gt;opengl</title>
<path fill="none" stroke="black" d="M647.596,-147.495C644.696,-146.294 641.801,-145.114 639,-144 608.377,-131.823 573.799,-119.072 545.875,-109.019"/>
<polygon fill="black" stroke="black" points="546.888,-105.664 536.293,-105.582 544.524,-112.253 546.888,-105.664"/>
</g>
<!-- obs -->
<g id="node6" class="node"><title>obs</title>
<a xlink:href="group__mrpt__obs__grp.html" xlink:title="mrpt&#45;obs">
<polygon fill="#d0d0d0" stroke="black" points="630,-180 560,-180 560,-144 630,-144 630,-180"/>
<text text-anchor="middle" x="595" y="-158.7" font-family="Times Roman,serif" font-size="12.00">mrpt&#45;obs</text>
</a>
</g>
<!-- obs&#45;&gt;opengl -->
<g id="edge14" class="edge"><title>obs&#45;&gt;opengl</title>
<path fill="none" stroke="black" d="M569.009,-143.831C556.078,-134.793 540.278,-123.748 526.362,-114.02"/>
<polygon fill="black" stroke="black" points="528.184,-111.024 517.983,-108.163 524.174,-116.761 528.184,-111.024"/>
</g>
<!-- hwdrivers -->
<g id="node7" class="node"><title>hwdrivers</title>
<a xlink:href="group__mrpt__hwdrivers__grp.html" xlink:title="mrpt&#45;hwdrivers">
<polygon fill="#d0d0d0" stroke="black" points="653,-252 547,-252 547,-216 653,-216 653,-252"/>
<text text-anchor="middle" x="600" y="-230.7" font-family="Times Roman,serif" font-size="12.00">mrpt&#45;hwdrivers</text>
</a>
</g>
<!-- hwdrivers&#45;&gt;gui -->
<g id="edge18" class="edge"><title>hwdrivers&#45;&gt;gui</title>
<path fill="none" stroke="black" d="M620.44,-215.831C630.32,-207.048 642.332,-196.371 653.045,-186.849"/>
<polygon fill="black" stroke="black" points="655.418,-189.422 660.567,-180.163 650.767,-184.191 655.418,-189.422"/>
</g>
<!-- hwdrivers&#45;&gt;obs -->
<g id="edge20" class="edge"><title>hwdrivers&#45;&gt;obs</title>
<path fill="none" stroke="black" d="M598.738,-215.831C598.204,-208.131 597.568,-198.974 596.973,-190.417"/>
<polygon fill="black" stroke="black" points="600.463,-190.147 596.279,-180.413 593.48,-190.632 600.463,-190.147"/>
</g>
<!-- topography -->
<g id="node8" class="node"><title>topography</title>
<a xlink:href="group__mrpt__topography__grp.html" xlink:title="mrpt&#45;topography">
<polygon fill="#d0d0d0" stroke="black" points="329,-252 211,-252 211,-216 329,-216 329,-252"/>
<text text-anchor="middle" x="270" y="-230.7" font-family="Times Roman,serif" font-size="12.00">mrpt&#45;topography</text>
</a>
</g>
<!-- topography&#45;&gt;obs -->
<g id="edge22" class="edge"><title>topography&#45;&gt;obs</title>
<path fill="none" stroke="black" d="M329.261,-217.972C332.21,-217.282 335.135,-216.62 338,-216 428.722,-196.369 456.818,-205.664 549.873,-179.997"/>
<polygon fill="black" stroke="black" points="551.022,-183.31 559.696,-177.226 549.121,-176.573 551.022,-183.31"/>
</g>
<!-- scanmatching -->
<g id="node11" class="node"><title>scanmatching</title>
<a xlink:href="group__mrpt__scanmatching__grp.html" xlink:title="mrpt&#45;scanmatching">
<polygon fill="#d0d0d0" stroke="black" points="296,-180 166,-180 166,-144 296,-144 296,-180"/>
<text text-anchor="middle" x="231" y="-158.7" font-family="Times Roman,serif" font-size="12.00">mrpt&#45;scanmatching</text>
</a>
</g>
<!-- topography&#45;&gt;scanmatching -->
<g id="edge24" class="edge"><title>topography&#45;&gt;scanmatching</title>
<path fill="none" stroke="black" d="M260.159,-215.831C255.804,-207.792 250.59,-198.167 245.783,-189.292"/>
<polygon fill="black" stroke="black" points="248.814,-187.539 240.974,-180.413 242.659,-190.873 248.814,-187.539"/>
</g>
<!-- maps -->
<g id="node9" class="node"><title>maps</title>
<a xlink:href="group__mrpt__maps__grp.html" xlink:title="mrpt&#45;maps">
<polygon fill="#d0d0d0" stroke="black" points="429,-252 347,-252 347,-216 429,-216 429,-252"/>
<text text-anchor="middle" x="388" y="-230.7" font-family="Times Roman,serif" font-size="12.00">mrpt&#45;maps</text>
</a>
</g>
<!-- maps&#45;&gt;obs -->
<g id="edge28" class="edge"><title>maps&#45;&gt;obs</title>
<path fill="none" stroke="black" d="M429.158,-219.046C432.146,-218.003 435.117,-216.978 438,-216 485.089,-200.029 499.806,-198.166 550.095,-180.202"/>
<polygon fill="black" stroke="black" points="551.337,-183.474 559.553,-176.785 548.959,-176.891 551.337,-183.474"/>
</g>
<!-- vision -->
<g id="node10" class="node"><title>vision</title>
<a xlink:href="group__mrpt__vision__grp.html" xlink:title="mrpt&#45;vision">
<polygon fill="#d0d0d0" stroke="black" points="529,-252 447,-252 447,-216 529,-216 529,-252"/>
<text text-anchor="middle" x="488" y="-230.7" font-family="Times Roman,serif" font-size="12.00">mrpt&#45;vision</text>
</a>
</g>
<!-- vision&#45;&gt;obs -->
<g id="edge26" class="edge"><title>vision&#45;&gt;obs</title>
<path fill="none" stroke="black" d="M515.001,-215.831C528.433,-206.793 544.847,-195.748 559.304,-186.02"/>
<polygon fill="black" stroke="black" points="561.665,-188.649 568.008,-180.163 557.757,-182.842 561.665,-188.649"/>
</g>
<!-- scanmatching&#45;&gt;base -->
<g id="edge8" class="edge"><title>scanmatching&#45;&gt;base</title>
<path fill="none" stroke="black" d="M226.626,-143.883C222.051,-125.573 214.381,-96.5557 206,-72 203.039,-63.3236 199.419,-54.0281 195.978,-45.6373"/>
<polygon fill="black" stroke="black" points="199.158,-44.1691 192.07,-36.294 192.7,-46.8701 199.158,-44.1691"/>
</g>
<!-- slam -->
<g id="node12" class="node"><title>slam</title>
<a xlink:href="group__mrpt__slam__grp.html" xlink:title="mrpt&#45;slam">
<polygon fill="#d0d0d0" stroke="black" points="221,-324 145,-324 145,-288 221,-288 221,-324"/>
<text text-anchor="middle" x="183" y="-302.7" font-family="Times Roman,serif" font-size="12.00">mrpt&#45;slam</text>
</a>
</g>
<!-- slam&#45;&gt;graphs -->
<g id="edge38" class="edge"><title>slam&#45;&gt;graphs</title>
<path fill="none" stroke="black" d="M151.205,-287.831C134.939,-278.537 114.961,-267.121 97.5949,-257.197"/>
<polygon fill="black" stroke="black" points="99.2039,-254.085 88.7849,-252.163 95.7309,-260.163 99.2039,-254.085"/>
</g>
<!-- slam&#45;&gt;bayes -->
<g id="edge36" class="edge"><title>slam&#45;&gt;bayes</title>
<path fill="none" stroke="black" d="M178.927,-287.692C173.552,-263.22 163.956,-218.464 157,-180 153.277,-159.415 149.663,-136.07 147.04,-118.316"/>
<polygon fill="black" stroke="black" points="150.488,-117.705 145.58,-108.316 143.562,-118.717 150.488,-117.705"/>
</g>
<!-- slam&#45;&gt;maps -->
<g id="edge30" class="edge"><title>slam&#45;&gt;maps</title>
<path fill="none" stroke="black" d="M221.258,-292.795C250.567,-282.65 292.253,-268.163 337.179,-252.276"/>
<polygon fill="black" stroke="black" points="338.553,-255.503 346.811,-248.866 336.217,-248.904 338.553,-255.503"/>
</g>
<!-- slam&#45;&gt;vision -->
<g id="edge32" class="edge"><title>slam&#45;&gt;vision</title>
<path fill="none" stroke="black" d="M221.417,-299.559C269.715,-291.091 355.249,-274.873 436.997,-252.094"/>
<polygon fill="black" stroke="black" points="438.273,-255.371 446.945,-249.284 436.37,-248.634 438.273,-255.371"/>
</g>
<!-- slam&#45;&gt;scanmatching -->
<g id="edge34" class="edge"><title>slam&#45;&gt;scanmatching</title>
<path fill="none" stroke="black" d="M185.261,-287.993C187.934,-269.519 193.173,-240.148 202,-216 205.291,-206.995 209.858,-197.641 214.394,-189.298"/>
<polygon fill="black" stroke="black" points="217.561,-190.808 219.434,-180.38 211.467,-187.364 217.561,-190.808"/>
</g>
<!-- graphslam -->
<g id="node13" class="node"><title>graphslam</title>
<a xlink:href="group__mrpt__graphslam__grp.html" xlink:title="mrpt&#45;graphslam (.h)">
<polygon fill="#d0d0d0" stroke="black" points="202,-396 68,-396 68,-360 202,-360 202,-396"/>
<text text-anchor="middle" x="135" y="-374.7" font-family="Times Roman,serif" font-size="12.00">mrpt&#45;graphslam (.h)</text>
</a>
</g>
<!-- graphslam&#45;&gt;slam -->
<g id="edge40" class="edge"><title>graphslam&#45;&gt;slam</title>
<path fill="none" stroke="black" d="M147.112,-359.831C152.528,-351.708 159.024,-341.964 164.992,-333.012"/>
<polygon fill="black" stroke="black" points="168.09,-334.675 170.724,-324.413 162.265,-330.792 168.09,-334.675"/>
</g>
<!-- hmtslam -->
<g id="node14" class="node"><title>hmtslam</title>
<a xlink:href="group__mrpt__hmtslam__grp.html" xlink:title="mrpt&#45;hmtslam">
<polygon fill="#d0d0d0" stroke="black" points="232,-468 132,-468 132,-432 232,-432 232,-468"/>
<text text-anchor="middle" x="182" y="-446.7" font-family="Times Roman,serif" font-size="12.00">mrpt&#45;hmtslam</text>
</a>
</g>
<!-- hmtslam&#45;&gt;slam -->
<g id="edge48" class="edge"><title>hmtslam&#45;&gt;slam</title>
<path fill="none" stroke="black" d="M194.612,-431.942C200.877,-421.866 207.781,-408.797 211,-396 214.903,-380.483 214.79,-375.545 211,-360 208.746,-350.757 204.611,-341.331 200.197,-332.997"/>
<polygon fill="black" stroke="black" points="203.148,-331.103 195.182,-324.118 197.053,-334.546 203.148,-331.103"/>
</g>
<!-- hmtslam&#45;&gt;graphslam -->
<g id="edge50" class="edge"><title>hmtslam&#45;&gt;graphslam</title>
<path fill="none" stroke="black" d="M170.14,-431.831C164.837,-423.708 158.476,-413.964 152.633,-405.012"/>
<polygon fill="black" stroke="black" points="155.417,-402.874 147.02,-396.413 149.555,-406.7 155.417,-402.874"/>
</g>
<!-- reactivenav -->
<g id="node15" class="node"><title>reactivenav</title>
<a xlink:href="group__mrpt__reactivenav__grp.html" xlink:title="mrpt&#45;reactivenav">
<polygon fill="#d0d0d0" stroke="black" points="119,-324 3,-324 3,-288 119,-288 119,-324"/>
<text text-anchor="middle" x="61" y="-302.7" font-family="Times Roman,serif" font-size="12.00">mrpt&#45;reactivenav</text>
</a>
</g>
<!-- reactivenav&#45;&gt;graphs -->
<g id="edge56" class="edge"><title>reactivenav&#45;&gt;graphs</title>
<path fill="none" stroke="black" d="M59.9906,-287.831C59.5628,-280.131 59.0541,-270.974 58.5787,-262.417"/>
<polygon fill="black" stroke="black" points="62.0724,-262.204 58.023,-252.413 55.0831,-262.592 62.0724,-262.204"/>
</g>
<!-- reactivenav&#45;&gt;maps -->
<g id="edge54" class="edge"><title>reactivenav&#45;&gt;maps</title>
<path fill="none" stroke="black" d="M119.065,-291.706C124.777,-290.407 130.495,-289.15 136,-288 222.214,-269.988 248.136,-275.135 337.268,-251.961"/>
<polygon fill="black" stroke="black" points="338.203,-255.334 346.974,-249.392 336.412,-248.567 338.203,-255.334"/>
</g>
<!-- stereoslam -->
<g id="node16" class="node"><title>stereoslam</title>
<a xlink:href="group__mrpt__stereoslam__grp.html" xlink:title="mrpt&#45;stereoslam (*)">
<polygon fill="#d0d0d0" stroke="black" points="641,-324 509,-324 509,-288 641,-288 641,-324"/>
<text text-anchor="middle" x="575" y="-302.7" font-family="Times Roman,serif" font-size="12.00">mrpt&#45;stereoslam (*)</text>
</a>
</g>
<!-- stereoslam&#45;&gt;vision -->
<g id="edge52" class="edge"><title>stereoslam&#45;&gt;vision</title>
<path fill="none" stroke="black" d="M553.046,-287.831C542.331,-278.963 529.281,-268.164 517.691,-258.572"/>
<polygon fill="black" stroke="black" points="519.882,-255.842 509.947,-252.163 515.419,-261.235 519.882,-255.842"/>
</g>
<!-- detectors -->
<g id="node17" class="node"><title>detectors</title>
<a xlink:href="group__mrpt__detectors__grp.html" xlink:title="mrpt&#45;detectors">
<polygon fill="#d0d0d0" stroke="black" points="491,-324 385,-324 385,-288 491,-288 491,-324"/>
<text text-anchor="middle" x="438" y="-302.7" font-family="Times Roman,serif" font-size="12.00">mrpt&#45;detectors</text>
</a>
</g>
<!-- detectors&#45;&gt;gui -->
<g id="edge46" class="edge"><title>detectors&#45;&gt;gui</title>
<path fill="none" stroke="black" d="M491.039,-290.36C494.065,-289.543 497.068,-288.751 500,-288 571.452,-269.709 610.124,-304.43 662,-252 677.9,-235.931 682.025,-210.114 682.536,-190.243"/>
<polygon fill="black" stroke="black" points="686.036,-190.186 682.509,-180.196 679.036,-190.206 686.036,-190.186"/>
</g>
<!-- detectors&#45;&gt;maps -->
<g id="edge44" class="edge"><title>detectors&#45;&gt;maps</title>
<path fill="none" stroke="black" d="M425.383,-287.831C419.683,-279.623 412.834,-269.761 406.564,-260.732"/>
<polygon fill="black" stroke="black" points="409.366,-258.631 400.787,-252.413 403.616,-262.623 409.366,-258.631"/>
</g>
<!-- detectors&#45;&gt;vision -->
<g id="edge42" class="edge"><title>detectors&#45;&gt;vision</title>
<path fill="none" stroke="black" d="M450.617,-287.831C456.317,-279.623 463.166,-269.761 469.436,-260.732"/>
<polygon fill="black" stroke="black" points="472.384,-262.623 475.213,-252.413 466.634,-258.631 472.384,-262.623"/>
</g>
<!-- kinematics -->
<g id="node18" class="node"><title>kinematics</title>
<a xlink:href="group__mrpt__kinematics__grp.html" xlink:title="mrpt&#45;kinematics">
<polygon fill="#d0d0d0" stroke="black" points="424,-180 314,-180 314,-144 424,-144 424,-180"/>
<text text-anchor="middle" x="369" y="-158.7" font-family="Times Roman,serif" font-size="12.00">mrpt&#45;kinematics</text>
</a>
</g>
<!-- kinematics&#45;&gt;opengl -->
<g id="edge4" class="edge"><title>kinematics&#45;&gt;opengl</title>
<path fill="none" stroke="black" d="M400.038,-143.831C415.771,-134.622 435.061,-123.33 451.904,-113.471"/>
<polygon fill="black" stroke="black" points="454.11,-116.235 460.972,-108.163 450.574,-110.194 454.11,-116.235"/>
</g>
<!-- srba -->
<g id="node19" class="node"><title>srba</title>
<a xlink:href="group__mrpt__srba__grp.html" xlink:title="mrpt&#45;srba (.h)">
<polygon fill="#d0d0d0" stroke="black" points="542,-180 442,-180 442,-144 542,-144 542,-180"/>
<text text-anchor="middle" x="492" y="-158.7" font-family="Times Roman,serif" font-size="12.00">mrpt&#45;srba (.h)</text>
</a>
</g>
<!-- srba&#45;&gt;opengl -->
<g id="edge2" class="edge"><title>srba&#45;&gt;opengl</title>
<path fill="none" stroke="black" d="M492,-143.831C492,-136.131 492,-126.974 492,-118.417"/>
<polygon fill="black" stroke="black" points="495.5,-118.413 492,-108.413 488.5,-118.413 495.5,-118.413"/>
</g>
</g>
</svg>
