<?xml version="1.0" encoding="UTF-8" standalone="no"?>
<!DOCTYPE svg PUBLIC "-//W3C//DTD SVG 1.1//EN"
 "http://www.w3.org/Graphics/SVG/1.1/DTD/svg11.dtd">
<!-- Generated by graphviz version 2.26.3 (20100126.1600)
 -->
<!-- Title: MRPT_LIBS Pages: 1 -->
<svg width="568pt" height="404pt"
 viewBox="0.00 0.00 568.00 404.00" xmlns="http://www.w3.org/2000/svg" xmlns:xlink="http://www.w3.org/1999/xlink">
<g id="graph1" class="graph" transform="scale(1 1) rotate(0) translate(4 400)">
<title>MRPT_LIBS</title>
<polygon fill="white" stroke="white" points="-4,5 -4,-400 565,-400 565,5 -4,5"/>
<!-- base -->
<g id="node1" class="node"><title>base</title>
<a xlink:href="group__mrpt__base__grp.html" xlink:title="mrpt&#45;base">
<polygon fill="#d0d0d0" stroke="black" points="459,-36 383,-36 383,-1.77636e-14 459,-3.55271e-15 459,-36"/>
<text text-anchor="middle" x="421" y="-14.7" font-family="Times Roman,serif" font-size="12.00">mrpt&#45;base</text>
</a>
</g>
<!-- bayes -->
<g id="node2" class="node"><title>bayes</title>
<a xlink:href="group__mrpt__bayes__grp.html" xlink:title="mrpt&#45;bayes">
<polygon fill="#d0d0d0" stroke="black" points="560,-108 476,-108 476,-72 560,-72 560,-108"/>
<text text-anchor="middle" x="518" y="-86.7" font-family="Times Roman,serif" font-size="12.00">mrpt&#45;bayes</text>
</a>
</g>
<!-- bayes&#45;&gt;base -->
<g id="edge4" class="edge"><title>bayes&#45;&gt;base</title>
<path fill="none" stroke="black" d="M493.523,-71.8314C481.461,-62.8779 466.746,-51.9558 453.731,-42.2955"/>
<polygon fill="black" stroke="black" points="455.585,-39.3127 445.469,-36.1628 451.413,-44.9335 455.585,-39.3127"/>
</g>
<!-- opengl -->
<g id="node3" class="node"><title>opengl</title>
<a xlink:href="group__mrpt__opengl__grp.html" xlink:title="mrpt&#45;opengl">
<polygon fill="#d0d0d0" stroke="black" points="297,-108 209,-108 209,-72 297,-72 297,-108"/>
<text text-anchor="middle" x="253" y="-86.7" font-family="Times Roman,serif" font-size="12.00">mrpt&#45;opengl</text>
</a>
</g>
<!-- opengl&#45;&gt;base -->
<g id="edge6" class="edge"><title>opengl&#45;&gt;base</title>
<path fill="none" stroke="black" d="M295.393,-71.8314C319.164,-61.6441 348.881,-48.9082 373.442,-38.3821"/>
<polygon fill="black" stroke="black" points="375.111,-41.4745 382.924,-34.3182 372.354,-35.0405 375.111,-41.4745"/>
</g>
<!-- gui -->
<g id="node4" class="node"><title>gui</title>
<a xlink:href="group__mrpt__gui__grp.html" xlink:title="mrpt&#45;gui">
<polygon fill="#d0d0d0" stroke="black" points="124,-180 58,-180 58,-144 124,-144 124,-180"/>
<text text-anchor="middle" x="91" y="-158.7" font-family="Times Roman,serif" font-size="12.00">mrpt&#45;gui</text>
</a>
</g>
<!-- gui&#45;&gt;opengl -->
<g id="edge10" class="edge"><title>gui&#45;&gt;opengl</title>
<path fill="none" stroke="black" d="M124.174,-147.256C146.929,-137.143 177.528,-123.543 203.195,-112.135"/>
<polygon fill="black" stroke="black" points="204.688,-115.302 212.405,-108.042 201.845,-108.905 204.688,-115.302"/>
</g>
<!-- obs -->
<g id="node5" class="node"><title>obs</title>
<a xlink:href="group__mrpt__obs__grp.html" xlink:title="mrpt&#45;obs">
<polygon fill="#d0d0d0" stroke="black" points="288,-180 218,-180 218,-144 288,-144 288,-180"/>
<text text-anchor="middle" x="253" y="-158.7" font-family="Times Roman,serif" font-size="12.00">mrpt&#45;obs</text>
</a>
</g>
<!-- obs&#45;&gt;opengl -->
<g id="edge8" class="edge"><title>obs&#45;&gt;opengl</title>
<path fill="none" stroke="black" d="M253,-143.831C253,-136.131 253,-126.974 253,-118.417"/>
<polygon fill="black" stroke="black" points="256.5,-118.413 253,-108.413 249.5,-118.413 256.5,-118.413"/>
</g>
<!-- hwdrivers -->
<g id="node6" class="node"><title>hwdrivers</title>
<a xlink:href="group__mrpt__hwdrivers__grp.html" xlink:title="mrpt&#45;hwdrivers">
<polygon fill="#d0d0d0" stroke="black" points="144,-252 38,-252 38,-216 144,-216 144,-252"/>
<text text-anchor="middle" x="91" y="-230.7" font-family="Times Roman,serif" font-size="12.00">mrpt&#45;hwdrivers</text>
</a>
</g>
<!-- hwdrivers&#45;&gt;gui -->
<g id="edge12" class="edge"><title>hwdrivers&#45;&gt;gui</title>
<path fill="none" stroke="black" d="M91,-215.831C91,-208.131 91,-198.974 91,-190.417"/>
<polygon fill="black" stroke="black" points="94.5001,-190.413 91,-180.413 87.5001,-190.413 94.5001,-190.413"/>
</g>
<!-- hwdrivers&#45;&gt;obs -->
<g id="edge14" class="edge"><title>hwdrivers&#45;&gt;obs</title>
<path fill="none" stroke="black" d="M131.879,-215.831C155.297,-205.423 184.701,-192.355 208.672,-181.701"/>
<polygon fill="black" stroke="black" points="210.188,-184.858 217.905,-177.598 207.345,-178.461 210.188,-184.858"/>
</g>
<!-- topography -->
<g id="node7" class="node"><title>topography</title>
<a xlink:href="group__mrpt__topography__grp.html" xlink:title="mrpt&#45;topography">
<polygon fill="#d0d0d0" stroke="black" points="480,-252 362,-252 362,-216 480,-216 480,-252"/>
<text text-anchor="middle" x="421" y="-230.7" font-family="Times Roman,serif" font-size="12.00">mrpt&#45;topography</text>
</a>
</g>
<!-- topography&#45;&gt;obs -->
<g id="edge16" class="edge"><title>topography&#45;&gt;obs</title>
<path fill="none" stroke="black" d="M378.607,-215.831C353.783,-205.193 322.474,-191.775 297.325,-180.996"/>
<polygon fill="black" stroke="black" points="298.584,-177.728 288.014,-177.006 295.827,-184.162 298.584,-177.728"/>
</g>
<!-- scanmatching -->
<g id="node10" class="node"><title>scanmatching</title>
<a xlink:href="group__mrpt__scanmatching__grp.html" xlink:title="mrpt&#45;scanmatching">
<polygon fill="#d0d0d0" stroke="black" points="486,-180 356,-180 356,-144 486,-144 486,-180"/>
<text text-anchor="middle" x="421" y="-158.7" font-family="Times Roman,serif" font-size="12.00">mrpt&#45;scanmatching</text>
</a>
</g>
<!-- topography&#45;&gt;scanmatching -->
<g id="edge18" class="edge"><title>topography&#45;&gt;scanmatching</title>
<path fill="none" stroke="black" d="M421,-215.831C421,-208.131 421,-198.974 421,-190.417"/>
<polygon fill="black" stroke="black" points="424.5,-190.413 421,-180.413 417.5,-190.413 424.5,-190.413"/>
</g>
<!-- maps -->
<g id="node8" class="node"><title>maps</title>
<a xlink:href="group__mrpt__maps__grp.html" xlink:title="mrpt&#45;maps">
<polygon fill="#d0d0d0" stroke="black" points="344,-252 262,-252 262,-216 344,-216 344,-252"/>
<text text-anchor="middle" x="303" y="-230.7" font-family="Times Roman,serif" font-size="12.00">mrpt&#45;maps</text>
</a>
</g>
<!-- maps&#45;&gt;obs -->
<g id="edge22" class="edge"><title>maps&#45;&gt;obs</title>
<path fill="none" stroke="black" d="M290.383,-215.831C284.683,-207.623 277.834,-197.761 271.564,-188.732"/>
<polygon fill="black" stroke="black" points="274.366,-186.631 265.787,-180.413 268.616,-190.623 274.366,-186.631"/>
</g>
<!-- vision -->
<g id="node9" class="node"><title>vision</title>
<a xlink:href="group__mrpt__vision__grp.html" xlink:title="mrpt&#45;vision">
<polygon fill="#d0d0d0" stroke="black" points="244,-252 162,-252 162,-216 244,-216 244,-252"/>
<text text-anchor="middle" x="203" y="-230.7" font-family="Times Roman,serif" font-size="12.00">mrpt&#45;vision</text>
</a>
</g>
<!-- vision&#45;&gt;obs -->
<g id="edge20" class="edge"><title>vision&#45;&gt;obs</title>
<path fill="none" stroke="black" d="M215.617,-215.831C221.317,-207.623 228.166,-197.761 234.436,-188.732"/>
<polygon fill="black" stroke="black" points="237.384,-190.623 240.213,-180.413 231.634,-186.631 237.384,-190.623"/>
</g>
<!-- scanmatching&#45;&gt;base -->
<g id="edge2" class="edge"><title>scanmatching&#45;&gt;base</title>
<path fill="none" stroke="black" d="M421,-143.762C421,-119.201 421,-75.2474 421,-46.3541"/>
<polygon fill="black" stroke="black" points="424.5,-46.0896 421,-36.0896 417.5,-46.0897 424.5,-46.0896"/>
</g>
<!-- slam -->
<g id="node11" class="node"><title>slam</title>
<a xlink:href="group__mrpt__slam__grp.html" xlink:title="mrpt&#45;slam">
<polygon fill="#d0d0d0" stroke="black" points="515,-324 439,-324 439,-288 515,-288 515,-324"/>
<text text-anchor="middle" x="477" y="-302.7" font-family="Times Roman,serif" font-size="12.00">mrpt&#45;slam</text>
</a>
</g>
<!-- slam&#45;&gt;bayes -->
<g id="edge30" class="edge"><title>slam&#45;&gt;bayes</title>
<path fill="none" stroke="black" d="M488.778,-287.775C494.709,-277.651 501.391,-264.588 505,-252 517.995,-206.675 519.564,-151.494 519.087,-118.638"/>
<polygon fill="black" stroke="black" points="522.58,-118.318 518.86,-108.398 515.582,-118.473 522.58,-118.318"/>
</g>
<!-- slam&#45;&gt;maps -->
<g id="edge24" class="edge"><title>slam&#45;&gt;maps</title>
<path fill="none" stroke="black" d="M438.815,-290.199C413.758,-279.831 380.715,-266.158 353.495,-254.894"/>
<polygon fill="black" stroke="black" points="354.711,-251.61 344.132,-251.02 352.034,-258.078 354.711,-251.61"/>
</g>
<!-- slam&#45;&gt;vision -->
<g id="edge26" class="edge"><title>slam&#45;&gt;vision</title>
<path fill="none" stroke="black" d="M438.957,-297.068C385.587,-284.505 291.553,-262.242 254.123,-252.049"/>
<polygon fill="black" stroke="black" points="254.659,-248.562 244.083,-249.191 252.742,-255.295 254.659,-248.562"/>
</g>
<!-- slam&#45;&gt;scanmatching -->
<g id="edge28" class="edge"><title>slam&#45;&gt;scanmatching</title>
<path fill="none" stroke="black" d="M485.157,-287.81C492.349,-268.928 500.104,-238.996 489,-216 483.311,-204.217 473.662,-194.216 463.394,-186.144"/>
<polygon fill="black" stroke="black" points="465.231,-183.152 455.089,-180.086 461.105,-188.807 465.231,-183.152"/>
</g>
<!-- hmtslam -->
<g id="node12" class="node"><title>hmtslam</title>
<a xlink:href="group__mrpt__hmtslam__grp.html" xlink:title="mrpt&#45;hmtslam">
<polygon fill="#d0d0d0" stroke="black" points="527,-396 427,-396 427,-360 527,-360 527,-396"/>
<text text-anchor="middle" x="477" y="-374.7" font-family="Times Roman,serif" font-size="12.00">mrpt&#45;hmtslam</text>
</a>
</g>
<!-- hmtslam&#45;&gt;slam -->
<g id="edge38" class="edge"><title>hmtslam&#45;&gt;slam</title>
<path fill="none" stroke="black" d="M477,-359.831C477,-352.131 477,-342.974 477,-334.417"/>
<polygon fill="black" stroke="black" points="480.5,-334.413 477,-324.413 473.5,-334.413 480.5,-334.413"/>
</g>
<!-- reactivenav -->
<g id="node13" class="node"><title>reactivenav</title>
<a xlink:href="group__mrpt__reactivenav__grp.html" xlink:title="mrpt&#45;reactivenav">
<polygon fill="#d0d0d0" stroke="black" points="390,-324 274,-324 274,-288 390,-288 390,-324"/>
<text text-anchor="middle" x="332" y="-302.7" font-family="Times Roman,serif" font-size="12.00">mrpt&#45;reactivenav</text>
</a>
</g>
<!-- reactivenav&#45;&gt;maps -->
<g id="edge42" class="edge"><title>reactivenav&#45;&gt;maps</title>
<path fill="none" stroke="black" d="M324.682,-287.831C321.512,-279.962 317.73,-270.571 314.219,-261.853"/>
<polygon fill="black" stroke="black" points="317.399,-260.381 310.416,-252.413 310.906,-262.997 317.399,-260.381"/>
</g>
<!-- stereoslam -->
<g id="node14" class="node"><title>stereoslam</title>
<a xlink:href="group__mrpt__stereoslam__grp.html" xlink:title="mrpt&#45;stereoslam (*)">
<polygon fill="#d0d0d0" stroke="black" points="132,-324 7.10543e-14,-324 0,-288 132,-288 132,-324"/>
<text text-anchor="middle" x="66" y="-302.7" font-family="Times Roman,serif" font-size="12.00">mrpt&#45;stereoslam (*)</text>
</a>
</g>
<!-- stereoslam&#45;&gt;vision -->
<g id="edge40" class="edge"><title>stereoslam&#45;&gt;vision</title>
<path fill="none" stroke="black" d="M100.571,-287.831C118.419,-278.452 140.377,-266.911 159.38,-256.924"/>
<polygon fill="black" stroke="black" points="161.216,-259.913 168.44,-252.163 157.96,-253.717 161.216,-259.913"/>
</g>
<!-- detectors -->
<g id="node15" class="node"><title>detectors</title>
<a xlink:href="group__mrpt__detectors__grp.html" xlink:title="mrpt&#45;detectors">
<polygon fill="#d0d0d0" stroke="black" points="256,-324 150,-324 150,-288 256,-288 256,-324"/>
<text text-anchor="middle" x="203" y="-302.7" font-family="Times Roman,serif" font-size="12.00">mrpt&#45;detectors</text>
</a>
</g>
<!-- detectors&#45;&gt;gui -->
<g id="edge36" class="edge"><title>detectors&#45;&gt;gui</title>
<path fill="none" stroke="black" d="M149.679,-290.269C99.2221,-275.26 30.8878,-254.562 29,-252 19.51,-239.118 22.3719,-230.563 29,-216 34.174,-204.632 43.0543,-194.727 52.5028,-186.612"/>
<polygon fill="black" stroke="black" points="54.8729,-189.199 60.5042,-180.224 50.5055,-183.728 54.8729,-189.199"/>
</g>
<!-- detectors&#45;&gt;maps -->
<g id="edge34" class="edge"><title>detectors&#45;&gt;maps</title>
<path fill="none" stroke="black" d="M228.234,-287.831C240.788,-278.793 256.128,-267.748 269.639,-258.02"/>
<polygon fill="black" stroke="black" points="271.704,-260.846 277.774,-252.163 267.613,-255.166 271.704,-260.846"/>
</g>
<!-- detectors&#45;&gt;vision -->
<g id="edge32" class="edge"><title>detectors&#45;&gt;vision</title>
<path fill="none" stroke="black" d="M203,-287.831C203,-280.131 203,-270.974 203,-262.417"/>
<polygon fill="black" stroke="black" points="206.5,-262.413 203,-252.413 199.5,-262.413 206.5,-262.413"/>
</g>
</g>
</svg>
