<?xml version="1.0" encoding="UTF-8" standalone="no"?>
<!DOCTYPE svg PUBLIC "-//W3C//DTD SVG 1.1//EN"
 "http://www.w3.org/Graphics/SVG/1.1/DTD/svg11.dtd">
<!-- Generated by graphviz version 2.36.0 (20140111.2315)
 -->
<!-- Title: MRPT_LIBS Pages: 1 -->
<svg width="659pt" height="476pt"
 viewBox="0.00 0.00 659.32 476.00" xmlns="http://www.w3.org/2000/svg" xmlns:xlink="http://www.w3.org/1999/xlink">
<g id="graph0" class="graph" transform="scale(1 1) rotate(0) translate(4 472)">
<title>MRPT_LIBS</title>
<polygon fill="white" stroke="none" points="-4,4 -4,-472 655.32,-472 655.32,4 -4,4"/>
<!-- base -->
<g id="node1" class="node"><title>base</title>
<g id="a_node1"><a xlink:href="group__mrpt__base__grp.html" xlink:title="mrpt&#45;base">
<polygon fill="#d0d0d0" stroke="black" points="449.25,-36 378.75,-36 378.75,-0 449.25,-0 449.25,-36"/>
<text text-anchor="middle" x="414" y="-14.3" font-family="Times,serif" font-size="14.00">mrpt&#45;base</text>
</a>
</g>
</g>
<!-- graphs -->
<g id="node2" class="node"><title>graphs</title>
<g id="a_node2"><a xlink:href="group__mrpt__graphs__grp.html" xlink:title="mrpt&#45;graphs">
<polygon fill="#d0d0d0" stroke="black" points="254.25,-180 171.75,-180 171.75,-144 254.25,-144 254.25,-180"/>
<text text-anchor="middle" x="213" y="-158.3" font-family="Times,serif" font-size="14.00">mrpt&#45;graphs</text>
</a>
</g>
</g>
<!-- graphs&#45;&gt;base -->
<g id="edge3" class="edge"><title>graphs&#45;&gt;base</title>
<path fill="none" stroke="black" d="M225.717,-143.655C240.729,-124.153 267.308,-92.5356 296,-72 318.211,-56.1027 345.952,-43.3479 368.955,-34.3379"/>
<polygon fill="black" stroke="black" points="370.392,-37.5358 378.493,-30.7075 367.902,-30.9936 370.392,-37.5358"/>
</g>
<!-- bayes -->
<g id="node3" class="node"><title>bayes</title>
<g id="a_node3"><a xlink:href="group__mrpt__bayes__grp.html" xlink:title="mrpt&#45;bayes (.h)">
<polygon fill="#d0d0d0" stroke="black" points="532.25,-108 431.75,-108 431.75,-72 532.25,-72 532.25,-108"/>
<text text-anchor="middle" x="482" y="-86.3" font-family="Times,serif" font-size="14.00">mrpt&#45;bayes (.h)</text>
</a>
</g>
</g>
<!-- bayes&#45;&gt;base -->
<g id="edge5" class="edge"><title>bayes&#45;&gt;base</title>
<path fill="none" stroke="black" d="M465.191,-71.6966C456.874,-63.135 446.695,-52.6562 437.61,-43.3045"/>
<polygon fill="black" stroke="black" points="440.094,-40.8384 430.616,-36.1043 435.073,-45.7159 440.094,-40.8384"/>
</g>
<!-- opengl -->
<g id="node4" class="node"><title>opengl</title>
<g id="a_node4"><a xlink:href="group__mrpt__opengl__grp.html" xlink:title="mrpt&#45;opengl">
<polygon fill="#d0d0d0" stroke="black" points="388.5,-108 305.5,-108 305.5,-72 388.5,-72 388.5,-108"/>
<text text-anchor="middle" x="347" y="-86.3" font-family="Times,serif" font-size="14.00">mrpt&#45;opengl</text>
</a>
</g>
</g>
<!-- opengl&#45;&gt;base -->
<g id="edge6" class="edge"><title>opengl&#45;&gt;base</title>
<path fill="none" stroke="black" d="M363.562,-71.6966C371.675,-63.2198 381.588,-52.8636 390.471,-43.5826"/>
<polygon fill="black" stroke="black" points="393.243,-45.7486 397.629,-36.1043 388.186,-40.9084 393.243,-45.7486"/>
</g>
<!-- gui -->
<g id="node5" class="node"><title>gui</title>
<g id="a_node5"><a xlink:href="group__mrpt__gui__grp.html" xlink:title="mrpt&#45;gui">
<polygon fill="#d0d0d0" stroke="black" points="334.25,-252 269.75,-252 269.75,-216 334.25,-216 334.25,-252"/>
<text text-anchor="middle" x="302" y="-230.3" font-family="Times,serif" font-size="14.00">mrpt&#45;gui</text>
</a>
</g>
</g>
<!-- gui&#45;&gt;opengl -->
<g id="edge8" class="edge"><title>gui&#45;&gt;opengl</title>
<path fill="none" stroke="black" d="M307.428,-215.871C315.131,-191.564 329.311,-146.819 338.439,-118.013"/>
<polygon fill="black" stroke="black" points="341.868,-118.779 341.553,-108.189 335.195,-116.665 341.868,-118.779"/>
</g>
<!-- obs -->
<g id="node6" class="node"><title>obs</title>
<g id="a_node6"><a xlink:href="group__mrpt__obs__grp.html" xlink:title="mrpt&#45;obs">
<polygon fill="#d0d0d0" stroke="black" points="411,-180 345,-180 345,-144 411,-144 411,-180"/>
<text text-anchor="middle" x="378" y="-158.3" font-family="Times,serif" font-size="14.00">mrpt&#45;obs</text>
</a>
</g>
</g>
<!-- obs&#45;&gt;opengl -->
<g id="edge7" class="edge"><title>obs&#45;&gt;opengl</title>
<path fill="none" stroke="black" d="M370.337,-143.697C366.808,-135.728 362.544,-126.1 358.631,-117.264"/>
<polygon fill="black" stroke="black" points="361.824,-115.831 354.575,-108.104 355.424,-118.665 361.824,-115.831"/>
</g>
<!-- hwdrivers -->
<g id="node7" class="node"><title>hwdrivers</title>
<g id="a_node7"><a xlink:href="group__mrpt__hwdrivers__grp.html" xlink:title="mrpt&#45;hwdrivers">
<polygon fill="#d0d0d0" stroke="black" points="245.25,-324 144.75,-324 144.75,-288 245.25,-288 245.25,-324"/>
<text text-anchor="middle" x="195" y="-302.3" font-family="Times,serif" font-size="14.00">mrpt&#45;hwdrivers</text>
</a>
</g>
</g>
<!-- hwdrivers&#45;&gt;gui -->
<g id="edge9" class="edge"><title>hwdrivers&#45;&gt;gui</title>
<path fill="none" stroke="black" d="M221.175,-287.876C235.036,-278.808 252.241,-267.552 267.211,-257.759"/>
<polygon fill="black" stroke="black" points="269.272,-260.593 275.724,-252.19 265.44,-254.735 269.272,-260.593"/>
</g>
<!-- maps -->
<g id="node9" class="node"><title>maps</title>
<g id="a_node9"><a xlink:href="group__mrpt__maps__grp.html" xlink:title="mrpt&#45;maps">
<polygon fill="#d0d0d0" stroke="black" points="251.25,-252 174.75,-252 174.75,-216 251.25,-216 251.25,-252"/>
<text text-anchor="middle" x="213" y="-230.3" font-family="Times,serif" font-size="14.00">mrpt&#45;maps</text>
</a>
</g>
</g>
<!-- hwdrivers&#45;&gt;maps -->
<g id="edge10" class="edge"><title>hwdrivers&#45;&gt;maps</title>
<path fill="none" stroke="black" d="M199.449,-287.697C201.455,-279.898 203.869,-270.509 206.101,-261.829"/>
<polygon fill="black" stroke="black" points="209.501,-262.661 208.602,-252.104 202.722,-260.918 209.501,-262.661"/>
</g>
<!-- topography -->
<g id="node8" class="node"><title>topography</title>
<g id="a_node8"><a xlink:href="group__mrpt__topography__grp.html" xlink:title="mrpt&#45;topography">
<polygon fill="#d0d0d0" stroke="black" points="636.25,-252 527.75,-252 527.75,-216 636.25,-216 636.25,-252"/>
<text text-anchor="middle" x="582" y="-230.3" font-family="Times,serif" font-size="14.00">mrpt&#45;topography</text>
</a>
</g>
</g>
<!-- topography&#45;&gt;obs -->
<g id="edge11" class="edge"><title>topography&#45;&gt;obs</title>
<path fill="none" stroke="black" d="M532.357,-215.966C498.262,-204.266 453.458,-188.892 420.909,-177.724"/>
<polygon fill="black" stroke="black" points="421.821,-174.336 411.226,-174.401 419.549,-180.957 421.821,-174.336"/>
</g>
<!-- tfest -->
<g id="node11" class="node"><title>tfest</title>
<g id="a_node11"><a xlink:href="group__mrpt__tfest__grp.html" xlink:title="mrpt&#45;tfest">
<polygon fill="#d0d0d0" stroke="black" points="617.25,-180 546.75,-180 546.75,-144 617.25,-144 617.25,-180"/>
<text text-anchor="middle" x="582" y="-158.3" font-family="Times,serif" font-size="14.00">mrpt&#45;tfest</text>
</a>
</g>
</g>
<!-- topography&#45;&gt;tfest -->
<g id="edge12" class="edge"><title>topography&#45;&gt;tfest</title>
<path fill="none" stroke="black" d="M582,-215.697C582,-207.983 582,-198.712 582,-190.112"/>
<polygon fill="black" stroke="black" points="585.5,-190.104 582,-180.104 578.5,-190.104 585.5,-190.104"/>
</g>
<!-- maps&#45;&gt;graphs -->
<g id="edge15" class="edge"><title>maps&#45;&gt;graphs</title>
<path fill="none" stroke="black" d="M213,-215.697C213,-207.983 213,-198.712 213,-190.112"/>
<polygon fill="black" stroke="black" points="216.5,-190.104 213,-180.104 209.5,-190.104 216.5,-190.104"/>
</g>
<!-- maps&#45;&gt;obs -->
<g id="edge14" class="edge"><title>maps&#45;&gt;obs</title>
<path fill="none" stroke="black" d="M251.269,-216.765C276.536,-206.045 309.661,-191.992 335.708,-180.942"/>
<polygon fill="black" stroke="black" points="337.118,-184.146 344.957,-177.018 334.384,-177.702 337.118,-184.146"/>
</g>
<!-- vision -->
<g id="node10" class="node"><title>vision</title>
<g id="a_node10"><a xlink:href="group__mrpt__vision__grp.html" xlink:title="mrpt&#45;vision">
<polygon fill="#d0d0d0" stroke="black" points="433,-252 353,-252 353,-216 433,-216 433,-252"/>
<text text-anchor="middle" x="393" y="-230.3" font-family="Times,serif" font-size="14.00">mrpt&#45;vision</text>
</a>
</g>
</g>
<!-- vision&#45;&gt;obs -->
<g id="edge13" class="edge"><title>vision&#45;&gt;obs</title>
<path fill="none" stroke="black" d="M389.292,-215.697C387.639,-207.983 385.653,-198.712 383.81,-190.112"/>
<polygon fill="black" stroke="black" points="387.183,-189.149 381.665,-180.104 380.338,-190.616 387.183,-189.149"/>
</g>
<!-- tfest&#45;&gt;base -->
<g id="edge4" class="edge"><title>tfest&#45;&gt;base</title>
<path fill="none" stroke="black" d="M578.09,-143.713C572.801,-123.968 561.573,-91.8388 541,-72 518.506,-50.3095 485.847,-36.9483 459.281,-29.0672"/>
<polygon fill="black" stroke="black" points="460.005,-25.6353 449.431,-26.3091 458.117,-32.376 460.005,-25.6353"/>
</g>
<!-- slam -->
<g id="node12" class="node"><title>slam</title>
<g id="a_node12"><a xlink:href="group__mrpt__slam__grp.html" xlink:title="mrpt&#45;slam">
<polygon fill="#d0d0d0" stroke="black" points="498,-324 424,-324 424,-288 498,-288 498,-324"/>
<text text-anchor="middle" x="461" y="-302.3" font-family="Times,serif" font-size="14.00">mrpt&#45;slam</text>
</a>
</g>
</g>
<!-- slam&#45;&gt;graphs -->
<g id="edge20" class="edge"><title>slam&#45;&gt;graphs</title>
<path fill="none" stroke="black" d="M462.394,-287.747C463.003,-267.729 460.718,-235.041 442,-216 429.526,-203.31 327.747,-183.31 264.145,-171.851"/>
<polygon fill="black" stroke="black" points="264.745,-168.402 254.285,-170.087 263.512,-175.293 264.745,-168.402"/>
</g>
<!-- slam&#45;&gt;bayes -->
<g id="edge19" class="edge"><title>slam&#45;&gt;bayes</title>
<path fill="none" stroke="black" d="M462.683,-287.849C466.316,-250.832 474.917,-163.181 479.313,-118.386"/>
<polygon fill="black" stroke="black" points="482.816,-118.526 480.309,-108.232 475.849,-117.843 482.816,-118.526"/>
</g>
<!-- slam&#45;&gt;maps -->
<g id="edge16" class="edge"><title>slam&#45;&gt;maps</title>
<path fill="none" stroke="black" d="M423.671,-296.215C385.159,-286.919 323.196,-271.316 261.308,-252.282"/>
<polygon fill="black" stroke="black" points="261.968,-248.822 251.379,-249.198 259.891,-255.507 261.968,-248.822"/>
</g>
<!-- slam&#45;&gt;vision -->
<g id="edge17" class="edge"><title>slam&#45;&gt;vision</title>
<path fill="none" stroke="black" d="M444.191,-287.697C435.874,-279.135 425.695,-268.656 416.61,-259.304"/>
<polygon fill="black" stroke="black" points="419.094,-256.838 409.616,-252.104 414.073,-261.716 419.094,-256.838"/>
</g>
<!-- slam&#45;&gt;tfest -->
<g id="edge18" class="edge"><title>slam&#45;&gt;tfest</title>
<path fill="none" stroke="black" d="M498.109,-299.622C546.579,-291.752 627.359,-275.44 645,-252 654.621,-239.216 651.753,-230.505 645,-216 639.574,-204.344 630.182,-194.336 620.282,-186.256"/>
<polygon fill="black" stroke="black" points="622.381,-183.455 612.3,-180.195 618.148,-189.03 622.381,-183.455"/>
</g>
<!-- graphslam -->
<g id="node13" class="node"><title>graphslam</title>
<g id="a_node13"><a xlink:href="group__mrpt__graphslam__grp.html" xlink:title="mrpt&#45;graphslam">
<polygon fill="#d0d0d0" stroke="black" points="440,-396 336,-396 336,-360 440,-360 440,-396"/>
<text text-anchor="middle" x="388" y="-374.3" font-family="Times,serif" font-size="14.00">mrpt&#45;graphslam</text>
</a>
</g>
</g>
<!-- graphslam&#45;&gt;gui -->
<g id="edge22" class="edge"><title>graphslam&#45;&gt;gui</title>
<path fill="none" stroke="black" d="M387.738,-359.995C386.721,-341.086 382.841,-310.278 369,-288 361.765,-276.355 351.019,-266.209 340.241,-257.999"/>
<polygon fill="black" stroke="black" points="342.212,-255.105 332.051,-252.104 338.123,-260.786 342.212,-255.105"/>
</g>
<!-- graphslam&#45;&gt;slam -->
<g id="edge21" class="edge"><title>graphslam&#45;&gt;slam</title>
<path fill="none" stroke="black" d="M406.045,-359.697C415.062,-351.05 426.118,-340.449 435.943,-331.027"/>
<polygon fill="black" stroke="black" points="438.367,-333.552 443.163,-324.104 433.522,-328.499 438.367,-333.552"/>
</g>
<!-- hmtslam -->
<g id="node14" class="node"><title>hmtslam</title>
<g id="a_node14"><a xlink:href="group__mrpt__hmtslam__grp.html" xlink:title="mrpt&#45;hmtslam">
<polygon fill="#d0d0d0" stroke="black" points="475.25,-468 380.75,-468 380.75,-432 475.25,-432 475.25,-468"/>
<text text-anchor="middle" x="428" y="-446.3" font-family="Times,serif" font-size="14.00">mrpt&#45;hmtslam</text>
</a>
</g>
</g>
<!-- hmtslam&#45;&gt;slam -->
<g id="edge26" class="edge"><title>hmtslam&#45;&gt;slam</title>
<path fill="none" stroke="black" d="M436.097,-431.693C440.547,-421.507 445.797,-408.257 449,-396 454.314,-375.668 457.359,-352.073 459.051,-334.288"/>
<polygon fill="black" stroke="black" points="462.54,-334.568 459.918,-324.302 455.566,-333.962 462.54,-334.568"/>
</g>
<!-- hmtslam&#45;&gt;graphslam -->
<g id="edge27" class="edge"><title>hmtslam&#45;&gt;graphslam</title>
<path fill="none" stroke="black" d="M418.112,-431.697C413.511,-423.644 407.94,-413.894 402.847,-404.982"/>
<polygon fill="black" stroke="black" points="405.774,-403.05 397.774,-396.104 399.696,-406.523 405.774,-403.05"/>
</g>
<!-- nav -->
<g id="node15" class="node"><title>nav</title>
<g id="a_node15"><a xlink:href="group__mrpt__nav__grp.html" xlink:title="mrpt&#45;nav">
<polygon fill="#d0d0d0" stroke="black" points="76.25,-324 9.75,-324 9.75,-288 76.25,-288 76.25,-324"/>
<text text-anchor="middle" x="43" y="-302.3" font-family="Times,serif" font-size="14.00">mrpt&#45;nav</text>
</a>
</g>
</g>
<!-- nav&#45;&gt;graphs -->
<g id="edge29" class="edge"><title>nav&#45;&gt;graphs</title>
<path fill="none" stroke="black" d="M41.9748,-287.743C41.7602,-268.027 44.4623,-235.924 62,-216 87.1204,-187.461 128.531,-174.289 161.639,-168.209"/>
<polygon fill="black" stroke="black" points="162.334,-171.642 171.62,-166.541 161.18,-164.738 162.334,-171.642"/>
</g>
<!-- nav&#45;&gt;maps -->
<g id="edge28" class="edge"><title>nav&#45;&gt;maps</title>
<path fill="none" stroke="black" d="M76.5865,-291.17C101.972,-280.717 137.157,-266.229 165.435,-254.586"/>
<polygon fill="black" stroke="black" points="166.822,-257.8 174.736,-250.756 164.157,-251.327 166.822,-257.8"/>
</g>
<!-- kinematics -->
<g id="node17" class="node"><title>kinematics</title>
<g id="a_node17"><a xlink:href="group__mrpt__kinematics__grp.html" xlink:title="mrpt&#45;kinematics">
<polygon fill="#d0d0d0" stroke="black" points="106.25,-180 -0.25,-180 -0.25,-144 106.25,-144 106.25,-180"/>
<text text-anchor="middle" x="53" y="-158.3" font-family="Times,serif" font-size="14.00">mrpt&#45;kinematics</text>
</a>
</g>
</g>
<!-- nav&#45;&gt;kinematics -->
<g id="edge30" class="edge"><title>nav&#45;&gt;kinematics</title>
<path fill="none" stroke="black" d="M36.5609,-287.832C30.6799,-269.83 23.6533,-240.769 29,-216 30.9608,-206.916 34.6119,-197.517 38.4851,-189.201"/>
<polygon fill="black" stroke="black" points="41.7309,-190.534 43.0461,-180.022 35.462,-187.42 41.7309,-190.534"/>
</g>
<!-- detectors -->
<g id="node16" class="node"><title>detectors</title>
<g id="a_node16"><a xlink:href="group__mrpt__detectors__grp.html" xlink:title="mrpt&#45;detectors">
<polygon fill="#d0d0d0" stroke="black" points="360,-324 264,-324 264,-288 360,-288 360,-324"/>
<text text-anchor="middle" x="312" y="-302.3" font-family="Times,serif" font-size="14.00">mrpt&#45;detectors</text>
</a>
</g>
</g>
<!-- detectors&#45;&gt;gui -->
<g id="edge25" class="edge"><title>detectors&#45;&gt;gui</title>
<path fill="none" stroke="black" d="M309.528,-287.697C308.426,-279.983 307.102,-270.712 305.873,-262.112"/>
<polygon fill="black" stroke="black" points="309.323,-261.509 304.443,-252.104 302.393,-262.499 309.323,-261.509"/>
</g>
<!-- detectors&#45;&gt;maps -->
<g id="edge24" class="edge"><title>detectors&#45;&gt;maps</title>
<path fill="none" stroke="black" d="M287.782,-287.876C275.077,-278.893 259.336,-267.763 245.577,-258.034"/>
<polygon fill="black" stroke="black" points="247.497,-255.105 237.311,-252.19 243.456,-260.821 247.497,-255.105"/>
</g>
<!-- detectors&#45;&gt;vision -->
<g id="edge23" class="edge"><title>detectors&#45;&gt;vision</title>
<path fill="none" stroke="black" d="M332.022,-287.697C342.126,-278.965 354.536,-268.24 365.518,-258.75"/>
<polygon fill="black" stroke="black" points="367.93,-261.291 373.208,-252.104 363.353,-255.995 367.93,-261.291"/>
</g>
<!-- kinematics&#45;&gt;opengl -->
<g id="edge2" class="edge"><title>kinematics&#45;&gt;opengl</title>
<path fill="none" stroke="black" d="M106.582,-148.242C160.263,-135.461 242.323,-115.923 295.32,-103.305"/>
<polygon fill="black" stroke="black" points="296.272,-106.676 305.19,-100.955 294.651,-99.8663 296.272,-106.676"/>
</g>
<!-- pbmap -->
<g id="node18" class="node"><title>pbmap</title>
<g id="a_node18"><a xlink:href="group__mrpt__pbmap__grp.html" xlink:title="mrpt&#45;pbmap">
<polygon fill="#d0d0d0" stroke="black" points="156.25,-252 71.75,-252 71.75,-216 156.25,-216 156.25,-252"/>
<text text-anchor="middle" x="114" y="-230.3" font-family="Times,serif" font-size="14.00">mrpt&#45;pbmap</text>
</a>
</g>
</g>
<!-- pbmap&#45;&gt;graphs -->
<g id="edge1" class="edge"><title>pbmap&#45;&gt;graphs</title>
<path fill="none" stroke="black" d="M138.218,-215.876C150.923,-206.893 166.664,-195.763 180.423,-186.034"/>
<polygon fill="black" stroke="black" points="182.544,-188.821 188.689,-180.19 178.503,-183.105 182.544,-188.821"/>
</g>
</g>
</svg>
