<?xml version="1.0" encoding="UTF-8" standalone="no"?>
<!DOCTYPE svg PUBLIC "-//W3C//DTD SVG 1.1//EN"
 "http://www.w3.org/Graphics/SVG/1.1/DTD/svg11.dtd">
<!-- Generated by graphviz version 2.36.0 (20140111.2315)
 -->
<!-- Title: MRPT_LIBS Pages: 1 -->
<svg width="733pt" height="404pt"
 viewBox="0.00 0.00 733.00 404.00" xmlns="http://www.w3.org/2000/svg" xmlns:xlink="http://www.w3.org/1999/xlink">
<g id="graph0" class="graph" transform="scale(1 1) rotate(0) translate(4 400)">
<title>MRPT_LIBS</title>
<polygon fill="white" stroke="none" points="-4,4 -4,-400 729,-400 729,4 -4,4"/>
<!-- base -->
<g id="node1" class="node"><title>base</title>
<g id="a_node1"><a xlink:href="group__mrpt__base__grp.html" xlink:title="mrpt&#45;base">
<polygon fill="#d0d0d0" stroke="black" points="347.25,-36 274.75,-36 274.75,-0 347.25,-0 347.25,-36"/>
<text text-anchor="middle" x="311" y="-14.3" font-family="Times New Roman,serif" font-size="14.00">mrpt&#45;base</text>
</a>
</g>
</g>
<!-- graphs -->
<g id="node2" class="node"><title>graphs</title>
<g id="a_node2"><a xlink:href="group__mrpt__graphs__grp.html" xlink:title="mrpt&#45;graphs (.h)">
<polygon fill="#d0d0d0" stroke="black" points="243,-252 135,-252 135,-216 243,-216 243,-252"/>
<text text-anchor="middle" x="189" y="-230.3" font-family="Times New Roman,serif" font-size="14.00">mrpt&#45;graphs (.h)</text>
</a>
</g>
</g>
<!-- graphs&#45;&gt;base -->
<g id="edge3" class="edge"><title>graphs&#45;&gt;base</title>
<path fill="none" stroke="black" d="M186.421,-215.676C182.679,-184.053 179.218,-116.172 210,-72 223.097,-53.2061 244.981,-40.575 265.036,-32.3747"/>
<polygon fill="black" stroke="black" points="266.291,-35.642 274.385,-28.8052 263.794,-29.1025 266.291,-35.642"/>
</g>
<!-- bayes -->
<g id="node3" class="node"><title>bayes</title>
<g id="a_node3"><a xlink:href="group__mrpt__bayes__grp.html" xlink:title="mrpt&#45;bayes (.h)">
<polygon fill="#d0d0d0" stroke="black" points="322.25,-108 219.75,-108 219.75,-72 322.25,-72 322.25,-108"/>
<text text-anchor="middle" x="271" y="-86.3" font-family="Times New Roman,serif" font-size="14.00">mrpt&#45;bayes (.h)</text>
</a>
</g>
</g>
<!-- bayes&#45;&gt;base -->
<g id="edge5" class="edge"><title>bayes&#45;&gt;base</title>
<path fill="none" stroke="black" d="M280.888,-71.6966C285.489,-63.6436 291.06,-53.8945 296.153,-44.9824"/>
<polygon fill="black" stroke="black" points="299.304,-46.5233 301.226,-36.1043 293.226,-43.0503 299.304,-46.5233"/>
</g>
<!-- opengl -->
<g id="node4" class="node"><title>opengl</title>
<g id="a_node4"><a xlink:href="group__mrpt__opengl__grp.html" xlink:title="mrpt&#45;opengl">
<polygon fill="#d0d0d0" stroke="black" points="600.25,-108 515.75,-108 515.75,-72 600.25,-72 600.25,-108"/>
<text text-anchor="middle" x="558" y="-86.3" font-family="Times New Roman,serif" font-size="14.00">mrpt&#45;opengl</text>
</a>
</g>
</g>
<!-- opengl&#45;&gt;base -->
<g id="edge6" class="edge"><title>opengl&#45;&gt;base</title>
<path fill="none" stroke="black" d="M515.539,-76.9666C471.427,-64.4651 402.618,-44.9647 357.177,-32.0865"/>
<polygon fill="black" stroke="black" points="357.864,-28.6434 347.288,-29.2841 355.955,-35.3782 357.864,-28.6434"/>
</g>
<!-- gui -->
<g id="node5" class="node"><title>gui</title>
<g id="a_node5"><a xlink:href="group__mrpt__gui__grp.html" xlink:title="mrpt&#45;gui">
<polygon fill="#d0d0d0" stroke="black" points="725,-252 661,-252 661,-216 725,-216 725,-252"/>
<text text-anchor="middle" x="693" y="-230.3" font-family="Times New Roman,serif" font-size="14.00">mrpt&#45;gui</text>
</a>
</g>
</g>
<!-- gui&#45;&gt;opengl -->
<g id="edge8" class="edge"><title>gui&#45;&gt;opengl</title>
<path fill="none" stroke="black" d="M693.459,-215.665C693.074,-196.173 689.63,-164.565 673,-144 657.226,-124.494 632.665,-111.846 610.284,-103.819"/>
<polygon fill="black" stroke="black" points="611.121,-100.408 600.527,-100.552 608.898,-107.046 611.121,-100.408"/>
</g>
<!-- obs -->
<g id="node6" class="node"><title>obs</title>
<g id="a_node6"><a xlink:href="group__mrpt__obs__grp.html" xlink:title="mrpt&#45;obs">
<polygon fill="#d0d0d0" stroke="black" points="540,-180 472,-180 472,-144 540,-144 540,-180"/>
<text text-anchor="middle" x="506" y="-158.3" font-family="Times New Roman,serif" font-size="14.00">mrpt&#45;obs</text>
</a>
</g>
</g>
<!-- obs&#45;&gt;opengl -->
<g id="edge7" class="edge"><title>obs&#45;&gt;opengl</title>
<path fill="none" stroke="black" d="M518.854,-143.697C525.025,-135.389 532.537,-125.277 539.324,-116.141"/>
<polygon fill="black" stroke="black" points="542.14,-118.219 545.294,-108.104 536.521,-114.045 542.14,-118.219"/>
</g>
<!-- hwdrivers -->
<g id="node7" class="node"><title>hwdrivers</title>
<g id="a_node7"><a xlink:href="group__mrpt__hwdrivers__grp.html" xlink:title="mrpt&#45;hwdrivers">
<polygon fill="#d0d0d0" stroke="black" points="557,-324 455,-324 455,-288 557,-288 557,-324"/>
<text text-anchor="middle" x="506" y="-302.3" font-family="Times New Roman,serif" font-size="14.00">mrpt&#45;hwdrivers</text>
</a>
</g>
</g>
<!-- hwdrivers&#45;&gt;gui -->
<g id="edge9" class="edge"><title>hwdrivers&#45;&gt;gui</title>
<path fill="none" stroke="black" d="M554.538,-287.995C580.816,-278.648 614.024,-266.61 651.271,-252.212"/>
<polygon fill="black" stroke="black" points="652.772,-255.383 660.826,-248.5 650.237,-248.858 652.772,-255.383"/>
</g>
<!-- maps -->
<g id="node9" class="node"><title>maps</title>
<g id="a_node9"><a xlink:href="group__mrpt__maps__grp.html" xlink:title="mrpt&#45;maps">
<polygon fill="#d0d0d0" stroke="black" points="544.25,-252 467.75,-252 467.75,-216 544.25,-216 544.25,-252"/>
<text text-anchor="middle" x="506" y="-230.3" font-family="Times New Roman,serif" font-size="14.00">mrpt&#45;maps</text>
</a>
</g>
</g>
<!-- hwdrivers&#45;&gt;maps -->
<g id="edge10" class="edge"><title>hwdrivers&#45;&gt;maps</title>
<path fill="none" stroke="black" d="M506,-287.697C506,-279.983 506,-270.712 506,-262.112"/>
<polygon fill="black" stroke="black" points="509.5,-262.104 506,-252.104 502.5,-262.104 509.5,-262.104"/>
</g>
<!-- topography -->
<g id="node8" class="node"><title>topography</title>
<g id="a_node8"><a xlink:href="group__mrpt__topography__grp.html" xlink:title="mrpt&#45;topography">
<polygon fill="#d0d0d0" stroke="black" points="449,-252 337,-252 337,-216 449,-216 449,-252"/>
<text text-anchor="middle" x="393" y="-230.3" font-family="Times New Roman,serif" font-size="14.00">mrpt&#45;topography</text>
</a>
</g>
</g>
<!-- topography&#45;&gt;obs -->
<g id="edge11" class="edge"><title>topography&#45;&gt;obs</title>
<path fill="none" stroke="black" d="M420.643,-215.876C435.418,-206.724 453.791,-195.342 469.703,-185.485"/>
<polygon fill="black" stroke="black" points="471.593,-188.431 478.251,-180.19 467.907,-182.481 471.593,-188.431"/>
</g>
<!-- tfest -->
<g id="node11" class="node"><title>tfest</title>
<g id="a_node11"><a xlink:href="group__mrpt__tfest__grp.html" xlink:title="mrpt&#45;tfest">
<polygon fill="#d0d0d0" stroke="black" points="386.25,-180 315.75,-180 315.75,-144 386.25,-144 386.25,-180"/>
<text text-anchor="middle" x="351" y="-158.3" font-family="Times New Roman,serif" font-size="14.00">mrpt&#45;tfest</text>
</a>
</g>
</g>
<!-- topography&#45;&gt;tfest -->
<g id="edge12" class="edge"><title>topography&#45;&gt;tfest</title>
<path fill="none" stroke="black" d="M382.618,-215.697C377.735,-207.559 371.813,-197.689 366.421,-188.701"/>
<polygon fill="black" stroke="black" points="369.409,-186.879 361.263,-180.104 363.406,-190.48 369.409,-186.879"/>
</g>
<!-- maps&#45;&gt;obs -->
<g id="edge14" class="edge"><title>maps&#45;&gt;obs</title>
<path fill="none" stroke="black" d="M506,-215.697C506,-207.983 506,-198.712 506,-190.112"/>
<polygon fill="black" stroke="black" points="509.5,-190.104 506,-180.104 502.5,-190.104 509.5,-190.104"/>
</g>
<!-- vision -->
<g id="node10" class="node"><title>vision</title>
<g id="a_node10"><a xlink:href="group__mrpt__vision__grp.html" xlink:title="mrpt&#45;vision">
<polygon fill="#d0d0d0" stroke="black" points="643,-252 563,-252 563,-216 643,-216 643,-252"/>
<text text-anchor="middle" x="603" y="-230.3" font-family="Times New Roman,serif" font-size="14.00">mrpt&#45;vision</text>
</a>
</g>
</g>
<!-- vision&#45;&gt;obs -->
<g id="edge13" class="edge"><title>vision&#45;&gt;obs</title>
<path fill="none" stroke="black" d="M579.022,-215.697C566.689,-206.796 551.484,-195.823 538.147,-186.199"/>
<polygon fill="black" stroke="black" points="539.859,-183.118 529.702,-180.104 535.763,-188.794 539.859,-183.118"/>
</g>
<!-- tfest&#45;&gt;base -->
<g id="edge4" class="edge"><title>tfest&#45;&gt;base</title>
<path fill="none" stroke="black" d="M347.867,-143.754C344.414,-125.689 338.359,-96.5773 331,-72 328.433,-63.4265 325.164,-54.2513 322.016,-45.9854"/>
<polygon fill="black" stroke="black" points="325.191,-44.4957 318.292,-36.4554 318.672,-47.0435 325.191,-44.4957"/>
</g>
<!-- slam -->
<g id="node12" class="node"><title>slam</title>
<g id="a_node12"><a xlink:href="group__mrpt__slam__grp.html" xlink:title="mrpt&#45;slam">
<polygon fill="#d0d0d0" stroke="black" points="408.25,-324 335.75,-324 335.75,-288 408.25,-288 408.25,-324"/>
<text text-anchor="middle" x="372" y="-302.3" font-family="Times New Roman,serif" font-size="14.00">mrpt&#45;slam</text>
</a>
</g>
</g>
<!-- slam&#45;&gt;graphs -->
<g id="edge19" class="edge"><title>slam&#45;&gt;graphs</title>
<path fill="none" stroke="black" d="M335.407,-291.003C308.96,-280.886 272.8,-267.055 243.035,-255.669"/>
<polygon fill="black" stroke="black" points="244.206,-252.37 233.616,-252.066 241.706,-258.908 244.206,-252.37"/>
</g>
<!-- slam&#45;&gt;bayes -->
<g id="edge18" class="edge"><title>slam&#45;&gt;bayes</title>
<path fill="none" stroke="black" d="M351.476,-287.898C341.075,-278.286 328.99,-265.523 321,-252 295.475,-208.798 281.713,-151.251 275.407,-117.95"/>
<polygon fill="black" stroke="black" points="278.839,-117.257 273.616,-108.039 271.95,-118.502 278.839,-117.257"/>
</g>
<!-- slam&#45;&gt;maps -->
<g id="edge15" class="edge"><title>slam&#45;&gt;maps</title>
<path fill="none" stroke="black" d="M404.78,-287.876C422.625,-278.554 444.897,-266.919 464.003,-256.939"/>
<polygon fill="black" stroke="black" points="465.851,-259.922 473.094,-252.19 462.61,-253.718 465.851,-259.922"/>
</g>
<!-- slam&#45;&gt;vision -->
<g id="edge16" class="edge"><title>slam&#45;&gt;vision</title>
<path fill="none" stroke="black" d="M408.541,-294.798C445.198,-284.446 503.206,-267.747 553,-252 553.101,-251.968 553.202,-251.936 553.304,-251.904"/>
<polygon fill="black" stroke="black" points="554.494,-255.198 562.933,-248.792 552.341,-248.537 554.494,-255.198"/>
</g>
<!-- slam&#45;&gt;tfest -->
<g id="edge17" class="edge"><title>slam&#45;&gt;tfest</title>
<path fill="none" stroke="black" d="M352.526,-287.918C343.179,-278.403 332.954,-265.723 328,-252 320.547,-231.355 327.74,-207.206 335.994,-189.275"/>
<polygon fill="black" stroke="black" points="339.28,-190.528 340.602,-180.016 333.013,-187.409 339.28,-190.528"/>
</g>
<!-- graphslam -->
<g id="node13" class="node"><title>graphslam</title>
<g id="a_node13"><a xlink:href="group__mrpt__graphslam__grp.html" xlink:title="mrpt&#45;graphslam (.h)">
<polygon fill="#d0d0d0" stroke="black" points="128,-324 0,-324 0,-288 128,-288 128,-324"/>
<text text-anchor="middle" x="64" y="-302.3" font-family="Times New Roman,serif" font-size="14.00">mrpt&#45;graphslam (.h)</text>
</a>
</g>
</g>
<!-- graphslam&#45;&gt;graphs -->
<g id="edge20" class="edge"><title>graphslam&#45;&gt;graphs</title>
<path fill="none" stroke="black" d="M94.5784,-287.876C111.074,-278.639 131.624,-267.131 149.336,-257.212"/>
<polygon fill="black" stroke="black" points="151.289,-260.13 158.304,-252.19 147.869,-254.022 151.289,-260.13"/>
</g>
<!-- hmtslam -->
<g id="node14" class="node"><title>hmtslam</title>
<g id="a_node14"><a xlink:href="group__mrpt__hmtslam__grp.html" xlink:title="mrpt&#45;hmtslam">
<polygon fill="#d0d0d0" stroke="black" points="265,-396 171,-396 171,-360 265,-360 265,-396"/>
<text text-anchor="middle" x="218" y="-374.3" font-family="Times New Roman,serif" font-size="14.00">mrpt&#45;hmtslam</text>
</a>
</g>
</g>
<!-- hmtslam&#45;&gt;slam -->
<g id="edge24" class="edge"><title>hmtslam&#45;&gt;slam</title>
<path fill="none" stroke="black" d="M255.673,-359.876C276.943,-350.208 303.688,-338.051 326.168,-327.833"/>
<polygon fill="black" stroke="black" points="327.857,-330.91 335.513,-323.585 324.961,-324.537 327.857,-330.91"/>
</g>
<!-- hmtslam&#45;&gt;graphslam -->
<g id="edge25" class="edge"><title>hmtslam&#45;&gt;graphslam</title>
<path fill="none" stroke="black" d="M180.327,-359.876C159.368,-350.349 133.095,-338.407 110.823,-328.283"/>
<polygon fill="black" stroke="black" points="112.102,-325.02 101.55,-324.068 109.206,-331.393 112.102,-325.02"/>
</g>
<!-- nav -->
<g id="node15" class="node"><title>nav</title>
<g id="a_node15"><a xlink:href="group__mrpt__nav__grp.html" xlink:title="mrpt&#45;nav">
<polygon fill="#d0d0d0" stroke="black" points="317.25,-324 250.75,-324 250.75,-288 317.25,-288 317.25,-324"/>
<text text-anchor="middle" x="284" y="-302.3" font-family="Times New Roman,serif" font-size="14.00">mrpt&#45;nav</text>
</a>
</g>
</g>
<!-- nav&#45;&gt;graphs -->
<g id="edge27" class="edge"><title>nav&#45;&gt;graphs</title>
<path fill="none" stroke="black" d="M260.517,-287.697C248.437,-278.796 233.546,-267.823 220.484,-258.199"/>
<polygon fill="black" stroke="black" points="222.34,-255.219 212.213,-252.104 218.187,-260.854 222.34,-255.219"/>
</g>
<!-- nav&#45;&gt;maps -->
<g id="edge26" class="edge"><title>nav&#45;&gt;maps</title>
<path fill="none" stroke="black" d="M317.337,-291.092C320.251,-290.002 323.168,-288.956 326,-288 383.618,-268.558 399.967,-270.163 458,-252 458.098,-251.969 458.195,-251.939 458.293,-251.908"/>
<polygon fill="black" stroke="black" points="459.143,-255.312 467.572,-248.892 456.98,-248.655 459.143,-255.312"/>
</g>
<!-- detectors -->
<g id="node16" class="node"><title>detectors</title>
<g id="a_node16"><a xlink:href="group__mrpt__detectors__grp.html" xlink:title="mrpt&#45;detectors">
<polygon fill="#d0d0d0" stroke="black" points="674.25,-324 575.75,-324 575.75,-288 674.25,-288 674.25,-324"/>
<text text-anchor="middle" x="625" y="-302.3" font-family="Times New Roman,serif" font-size="14.00">mrpt&#45;detectors</text>
</a>
</g>
</g>
<!-- detectors&#45;&gt;gui -->
<g id="edge23" class="edge"><title>detectors&#45;&gt;gui</title>
<path fill="none" stroke="black" d="M641.809,-287.697C650.126,-279.135 660.305,-268.656 669.39,-259.304"/>
<polygon fill="black" stroke="black" points="671.927,-261.716 676.384,-252.104 666.906,-256.838 671.927,-261.716"/>
</g>
<!-- detectors&#45;&gt;maps -->
<g id="edge22" class="edge"><title>detectors&#45;&gt;maps</title>
<path fill="none" stroke="black" d="M595.889,-287.876C580.33,-278.724 560.981,-267.342 544.224,-257.485"/>
<polygon fill="black" stroke="black" points="545.617,-254.243 535.223,-252.19 542.067,-260.277 545.617,-254.243"/>
</g>
<!-- detectors&#45;&gt;vision -->
<g id="edge21" class="edge"><title>detectors&#45;&gt;vision</title>
<path fill="none" stroke="black" d="M619.562,-287.697C617.111,-279.898 614.16,-270.509 611.432,-261.829"/>
<polygon fill="black" stroke="black" points="614.713,-260.595 608.376,-252.104 608.035,-262.694 614.713,-260.595"/>
</g>
<!-- kinematics -->
<g id="node17" class="node"><title>kinematics</title>
<g id="a_node17"><a xlink:href="group__mrpt__kinematics__grp.html" xlink:title="mrpt&#45;kinematics">
<polygon fill="#d0d0d0" stroke="black" points="664,-180 558,-180 558,-144 664,-144 664,-180"/>
<text text-anchor="middle" x="611" y="-158.3" font-family="Times New Roman,serif" font-size="14.00">mrpt&#45;kinematics</text>
</a>
</g>
</g>
<!-- kinematics&#45;&gt;opengl -->
<g id="edge2" class="edge"><title>kinematics&#45;&gt;opengl</title>
<path fill="none" stroke="black" d="M597.899,-143.697C591.609,-135.389 583.953,-125.277 577.035,-116.141"/>
<polygon fill="black" stroke="black" points="579.777,-113.964 570.95,-108.104 574.196,-118.19 579.777,-113.964"/>
</g>
<!-- pbmap -->
<g id="node18" class="node"><title>pbmap</title>
<g id="a_node18"><a xlink:href="group__mrpt__pbmap__grp.html" xlink:title="mrpt&#45;pbmap">
<polygon fill="#d0d0d0" stroke="black" points="232,-324 146,-324 146,-288 232,-288 232,-324"/>
<text text-anchor="middle" x="189" y="-302.3" font-family="Times New Roman,serif" font-size="14.00">mrpt&#45;pbmap</text>
</a>
</g>
</g>
<!-- pbmap&#45;&gt;graphs -->
<g id="edge1" class="edge"><title>pbmap&#45;&gt;graphs</title>
<path fill="none" stroke="black" d="M189,-287.697C189,-279.983 189,-270.712 189,-262.112"/>
<polygon fill="black" stroke="black" points="192.5,-262.104 189,-252.104 185.5,-262.104 192.5,-262.104"/>
</g>
</g>
</svg>
