<?xml version="1.0" encoding="UTF-8" standalone="no"?>
<!DOCTYPE svg PUBLIC "-//W3C//DTD SVG 1.1//EN"
 "http://www.w3.org/Graphics/SVG/1.1/DTD/svg11.dtd">
<!-- Generated by graphviz version 2.40.1 (20161225.0304)
 -->
<!-- Title: MRPT_LIBS Pages: 1 -->
<svg width="577pt" height="908pt"
 viewBox="0.00 0.00 577.00 908.00" xmlns="http://www.w3.org/2000/svg" xmlns:xlink="http://www.w3.org/1999/xlink">
<g id="graph0" class="graph" transform="scale(1 1) rotate(0) translate(4 904)">
<title>MRPT_LIBS</title>
<polygon fill="#ffffff" stroke="transparent" points="-4,4 -4,-904 573,-904 573,4 -4,4"/>
<!-- bayes -->
<g id="node1" class="node">
<title>bayes</title>
<g id="a_node1"><a xlink:href="group__mrpt__bayes__grp.html" xlink:title="mrpt&#45;bayes">
<polygon fill="#d0d0d0" stroke="#000000" points="392.5,-396 314.5,-396 314.5,-360 392.5,-360 392.5,-396"/>
<text text-anchor="middle" x="353.5" y="-374.3" font-family="Times,serif" font-size="14.00" fill="#000000">mrpt&#45;bayes</text>
</a>
</g>
</g>
<!-- math -->
<g id="node2" class="node">
<title>math</title>
<g id="a_node2"><a xlink:href="group__mrpt__math__grp.html" xlink:title="mrpt&#45;math">
<polygon fill="#d0d0d0" stroke="#000000" points="443,-252 368,-252 368,-216 443,-216 443,-252"/>
<text text-anchor="middle" x="405.5" y="-230.3" font-family="Times,serif" font-size="14.00" fill="#000000">mrpt&#45;math</text>
</a>
</g>
</g>
<!-- bayes&#45;&gt;math -->
<g id="edge1" class="edge">
<title>bayes&#45;&gt;math</title>
<path fill="none" stroke="#000000" d="M360.0858,-359.7623C369.0333,-334.9846 385.1076,-290.4714 395.5355,-261.5939"/>
<polygon fill="#000000" stroke="#000000" points="398.8631,-262.6839 398.9676,-252.0896 392.2792,-260.3064 398.8631,-262.6839"/>
</g>
<!-- config -->
<g id="node3" class="node">
<title>config</title>
<g id="a_node3"><a xlink:href="group__mrpt__config__grp.html" xlink:title="mrpt&#45;config">
<polygon fill="#d0d0d0" stroke="#000000" points="301.5,-324 219.5,-324 219.5,-288 301.5,-288 301.5,-324"/>
<text text-anchor="middle" x="260.5" y="-302.3" font-family="Times,serif" font-size="14.00" fill="#000000">mrpt&#45;config</text>
</a>
</g>
</g>
<!-- bayes&#45;&gt;config -->
<g id="edge2" class="edge">
<title>bayes&#45;&gt;config</title>
<path fill="none" stroke="#000000" d="M330.0322,-359.8314C318.4673,-350.8779 304.3596,-339.9558 291.8817,-330.2955"/>
<polygon fill="#000000" stroke="#000000" points="294.0102,-327.5171 283.9603,-324.1628 289.725,-333.0521 294.0102,-327.5171"/>
</g>
<!-- system -->
<g id="node7" class="node">
<title>system</title>
<g id="a_node7"><a xlink:href="group__mrpt__system__grp.html" xlink:title="mrpt&#45;system">
<polygon fill="#d0d0d0" stroke="#000000" points="244.5,-180 158.5,-180 158.5,-144 244.5,-144 244.5,-180"/>
<text text-anchor="middle" x="201.5" y="-158.3" font-family="Times,serif" font-size="14.00" fill="#000000">mrpt&#45;system</text>
</a>
</g>
</g>
<!-- math&#45;&gt;system -->
<g id="edge30" class="edge">
<title>math&#45;&gt;system</title>
<path fill="none" stroke="#000000" d="M367.8339,-219.44C364.6815,-218.2624 361.5391,-217.1026 358.5,-216 314.9322,-200.1941 301.72,-196.4952 254.2493,-180.2445"/>
<polygon fill="#000000" stroke="#000000" points="255.2215,-176.8778 244.6268,-176.9395 252.9475,-183.4982 255.2215,-176.8778"/>
</g>
<!-- serialization -->
<g id="node11" class="node">
<title>serialization</title>
<g id="a_node11"><a xlink:href="group__mrpt__serialization__grp.html" xlink:title="mrpt&#45;serialization">
<polygon fill="#d0d0d0" stroke="#000000" points="376,-180 263,-180 263,-144 376,-144 376,-180"/>
<text text-anchor="middle" x="319.5" y="-158.3" font-family="Times,serif" font-size="14.00" fill="#000000">mrpt&#45;serialization</text>
</a>
</g>
</g>
<!-- math&#45;&gt;serialization -->
<g id="edge28" class="edge">
<title>math&#45;&gt;serialization</title>
<path fill="none" stroke="#000000" d="M383.7986,-215.8314C373.3079,-207.0485 360.5545,-196.3712 349.1806,-186.8489"/>
<polygon fill="#000000" stroke="#000000" points="351.1089,-183.8986 341.1945,-180.1628 346.6153,-189.2659 351.1089,-183.8986"/>
</g>
<!-- random -->
<g id="node25" class="node">
<title>random</title>
<g id="a_node25"><a xlink:href="group__mrpt__random__grp.html" xlink:title="mrpt&#45;random">
<polygon fill="#d0d0d0" stroke="#000000" points="450,-36 361,-36 361,0 450,0 450,-36"/>
<text text-anchor="middle" x="405.5" y="-14.3" font-family="Times,serif" font-size="14.00" fill="#000000">mrpt&#45;random</text>
</a>
</g>
</g>
<!-- math&#45;&gt;random -->
<g id="edge29" class="edge">
<title>math&#45;&gt;random</title>
<path fill="none" stroke="#000000" d="M405.5,-215.9555C405.5,-178.3938 405.5,-91.5541 405.5,-46.4103"/>
<polygon fill="#000000" stroke="#000000" points="409.0001,-46.145 405.5,-36.1451 402.0001,-46.1451 409.0001,-46.145"/>
</g>
<!-- nanoflann -->
<g id="node26" class="node">
<title>nanoflann</title>
<g id="a_node26"><a xlink:href="group__nanoflann__grp.html" xlink:title="mrpt&#45;nanoflann">
<polygon fill="#d0d0d0" stroke="#000000" points="569,-36 468,-36 468,0 569,0 569,-36"/>
<text text-anchor="middle" x="518.5" y="-14.3" font-family="Times,serif" font-size="14.00" fill="#000000">mrpt&#45;nanoflann</text>
</a>
</g>
</g>
<!-- math&#45;&gt;nanoflann -->
<g id="edge31" class="edge">
<title>math&#45;&gt;nanoflann</title>
<path fill="none" stroke="#000000" d="M414.94,-215.9555C434.7565,-178.0762 480.7905,-90.0818 504.2316,-45.274"/>
<polygon fill="#000000" stroke="#000000" points="507.4732,-46.6282 509.0074,-36.1451 501.2707,-43.3834 507.4732,-46.6282"/>
</g>
<!-- expr -->
<g id="node6" class="node">
<title>expr</title>
<g id="a_node6"><a xlink:href="group__mrpt__expr__grp.html" xlink:title="mrpt&#45;expr">
<polygon fill="#d0d0d0" stroke="#000000" points="232,-252 161,-252 161,-216 232,-216 232,-252"/>
<text text-anchor="middle" x="196.5" y="-230.3" font-family="Times,serif" font-size="14.00" fill="#000000">mrpt&#45;expr</text>
</a>
</g>
</g>
<!-- config&#45;&gt;expr -->
<g id="edge4" class="edge">
<title>config&#45;&gt;expr</title>
<path fill="none" stroke="#000000" d="M244.3501,-287.8314C236.8283,-279.3694 227.7435,-269.1489 219.5196,-259.8971"/>
<polygon fill="#000000" stroke="#000000" points="222.127,-257.5621 212.8673,-252.4133 216.8951,-262.2127 222.127,-257.5621"/>
</g>
<!-- config&#45;&gt;system -->
<g id="edge5" class="edge">
<title>config&#45;&gt;system</title>
<path fill="none" stroke="#000000" d="M258.6429,-287.7288C256.2456,-269.0447 251.0568,-239.5083 240.5,-216 236.1653,-206.3472 229.9469,-196.6961 223.7452,-188.2787"/>
<polygon fill="#000000" stroke="#000000" points="226.4918,-186.1088 217.6194,-180.3181 220.9442,-190.3778 226.4918,-186.1088"/>
</g>
<!-- comms -->
<g id="node4" class="node">
<title>comms</title>
<g id="a_node4"><a xlink:href="group__mrpt__comms__grp.html" xlink:title="mrpt&#45;comms">
<polygon fill="#d0d0d0" stroke="#000000" points="159.5,-468 71.5,-468 71.5,-432 159.5,-432 159.5,-468"/>
<text text-anchor="middle" x="115.5" y="-446.3" font-family="Times,serif" font-size="14.00" fill="#000000">mrpt&#45;comms</text>
</a>
</g>
</g>
<!-- io -->
<g id="node5" class="node">
<title>io</title>
<g id="a_node5"><a xlink:href="group__mrpt__io__grp.html" xlink:title="mrpt&#45;io">
<polygon fill="#d0d0d0" stroke="#000000" points="161.5,-324 103.5,-324 103.5,-288 161.5,-288 161.5,-324"/>
<text text-anchor="middle" x="132.5" y="-302.3" font-family="Times,serif" font-size="14.00" fill="#000000">mrpt&#45;io</text>
</a>
</g>
</g>
<!-- comms&#45;&gt;io -->
<g id="edge3" class="edge">
<title>comms&#45;&gt;io</title>
<path fill="none" stroke="#000000" d="M117.6531,-431.7623C120.5527,-407.201 125.7416,-363.2474 129.1526,-334.3541"/>
<polygon fill="#000000" stroke="#000000" points="132.6678,-334.431 130.3644,-324.0896 125.7161,-333.6103 132.6678,-334.431"/>
</g>
<!-- io&#45;&gt;system -->
<g id="edge24" class="edge">
<title>io&#45;&gt;system</title>
<path fill="none" stroke="#000000" d="M133.4949,-287.8016C135.1603,-268.9141 139.6109,-238.9767 151.5,-216 156.8497,-205.6614 164.7246,-195.8419 172.6497,-187.4817"/>
<polygon fill="#000000" stroke="#000000" points="175.2875,-189.7932 179.871,-180.2411 170.3312,-184.85 175.2875,-189.7932"/>
</g>
<!-- expr&#45;&gt;system -->
<g id="edge11" class="edge">
<title>expr&#45;&gt;system</title>
<path fill="none" stroke="#000000" d="M197.7617,-215.8314C198.2965,-208.131 198.9323,-198.9743 199.5266,-190.4166"/>
<polygon fill="#000000" stroke="#000000" points="203.02,-190.6317 200.2213,-180.4133 196.0368,-190.1467 203.02,-190.6317"/>
</g>
<!-- containers -->
<g id="node8" class="node">
<title>containers</title>
<g id="a_node8"><a xlink:href="group__mrpt__containers__grp.html" xlink:title="mrpt&#45;containers">
<polygon fill="#d0d0d0" stroke="#000000" points="220,-108 117,-108 117,-72 220,-72 220,-108"/>
<text text-anchor="middle" x="168.5" y="-86.3" font-family="Times,serif" font-size="14.00" fill="#000000">mrpt&#45;containers</text>
</a>
</g>
</g>
<!-- system&#45;&gt;containers -->
<g id="edge48" class="edge">
<title>system&#45;&gt;containers</title>
<path fill="none" stroke="#000000" d="M193.1727,-143.8314C189.527,-135.8771 185.1691,-126.369 181.1373,-117.5723"/>
<polygon fill="#000000" stroke="#000000" points="184.2877,-116.0456 176.9394,-108.4133 177.9243,-118.9622 184.2877,-116.0456"/>
</g>
<!-- typemeta -->
<g id="node32" class="node">
<title>typemeta</title>
<g id="a_node32"><a xlink:href="group__mrpt__typemeta__grp.html" xlink:title="mrpt&#45;typemeta (.h)">
<polygon fill="#d0d0d0" stroke="#000000" points="343,-36 222,-36 222,0 343,0 343,-36"/>
<text text-anchor="middle" x="282.5" y="-14.3" font-family="Times,serif" font-size="14.00" fill="#000000">mrpt&#45;typemeta (.h)</text>
</a>
</g>
</g>
<!-- system&#45;&gt;typemeta -->
<g id="edge47" class="edge">
<title>system&#45;&gt;typemeta</title>
<path fill="none" stroke="#000000" d="M211.7587,-143.7623C225.8179,-118.7682 251.1731,-73.6924 267.402,-44.8409"/>
<polygon fill="#000000" stroke="#000000" points="270.4724,-46.5213 272.3246,-36.0896 264.3714,-43.0895 270.4724,-46.5213"/>
</g>
<!-- core -->
<g id="node9" class="node">
<title>core</title>
<g id="a_node9"><a xlink:href="group__mrpt__core__grp.html" xlink:title="mrpt&#45;core">
<polygon fill="#d0d0d0" stroke="#000000" points="204,-36 133,-36 133,0 204,0 204,-36"/>
<text text-anchor="middle" x="168.5" y="-14.3" font-family="Times,serif" font-size="14.00" fill="#000000">mrpt&#45;core</text>
</a>
</g>
</g>
<!-- containers&#45;&gt;core -->
<g id="edge6" class="edge">
<title>containers&#45;&gt;core</title>
<path fill="none" stroke="#000000" d="M168.5,-71.8314C168.5,-64.131 168.5,-54.9743 168.5,-46.4166"/>
<polygon fill="#000000" stroke="#000000" points="172.0001,-46.4132 168.5,-36.4133 165.0001,-46.4133 172.0001,-46.4132"/>
</g>
<!-- db -->
<g id="node10" class="node">
<title>db</title>
<g id="a_node10"><a xlink:href="group__mrpt__db__grp.html" xlink:title="mrpt&#45;db">
<polygon fill="#d0d0d0" stroke="#000000" points="350,-252 289,-252 289,-216 350,-216 350,-252"/>
<text text-anchor="middle" x="319.5" y="-230.3" font-family="Times,serif" font-size="14.00" fill="#000000">mrpt&#45;db</text>
</a>
</g>
</g>
<!-- db&#45;&gt;system -->
<g id="edge8" class="edge">
<title>db&#45;&gt;system</title>
<path fill="none" stroke="#000000" d="M289.7236,-215.8314C274.6307,-206.6221 256.1243,-195.3301 239.9657,-185.4706"/>
<polygon fill="#000000" stroke="#000000" points="241.6263,-182.3838 231.2669,-180.1628 237.9802,-188.3593 241.6263,-182.3838"/>
</g>
<!-- db&#45;&gt;serialization -->
<g id="edge7" class="edge">
<title>db&#45;&gt;serialization</title>
<path fill="none" stroke="#000000" d="M319.5,-215.8314C319.5,-208.131 319.5,-198.9743 319.5,-190.4166"/>
<polygon fill="#000000" stroke="#000000" points="323.0001,-190.4132 319.5,-180.4133 316.0001,-190.4133 323.0001,-190.4132"/>
</g>
<!-- rtti -->
<g id="node31" class="node">
<title>rtti</title>
<g id="a_node31"><a xlink:href="group__mrpt__rtti__grp.html" xlink:title="mrpt&#45;rtti">
<polygon fill="#d0d0d0" stroke="#000000" points="340,-108 277,-108 277,-72 340,-72 340,-108"/>
<text text-anchor="middle" x="308.5" y="-86.3" font-family="Times,serif" font-size="14.00" fill="#000000">mrpt&#45;rtti</text>
</a>
</g>
</g>
<!-- serialization&#45;&gt;rtti -->
<g id="edge44" class="edge">
<title>serialization&#45;&gt;rtti</title>
<path fill="none" stroke="#000000" d="M316.7242,-143.8314C315.5478,-136.131 314.1489,-126.9743 312.8414,-118.4166"/>
<polygon fill="#000000" stroke="#000000" points="316.2833,-117.7699 311.3131,-108.4133 309.3636,-118.8272 316.2833,-117.7699"/>
</g>
<!-- detectors -->
<g id="node12" class="node">
<title>detectors</title>
<g id="a_node12"><a xlink:href="group__mrpt__detectors__grp.html" xlink:title="mrpt&#45;detectors">
<polygon fill="#d0d0d0" stroke="#000000" points="132.5,-828 36.5,-828 36.5,-792 132.5,-792 132.5,-828"/>
<text text-anchor="middle" x="84.5" y="-806.3" font-family="Times,serif" font-size="14.00" fill="#000000">mrpt&#45;detectors</text>
</a>
</g>
</g>
<!-- gui -->
<g id="node13" class="node">
<title>gui</title>
<g id="a_node13"><a xlink:href="group__mrpt__gui__grp.html" xlink:title="mrpt&#45;gui">
<polygon fill="#d0d0d0" stroke="#000000" points="65,-684 0,-684 0,-648 65,-648 65,-684"/>
<text text-anchor="middle" x="32.5" y="-662.3" font-family="Times,serif" font-size="14.00" fill="#000000">mrpt&#45;gui</text>
</a>
</g>
</g>
<!-- detectors&#45;&gt;gui -->
<g id="edge9" class="edge">
<title>detectors&#45;&gt;gui</title>
<path fill="none" stroke="#000000" d="M73.8893,-791.9664C68.1632,-781.6834 61.3052,-768.4081 56.5,-756 48.6893,-735.8309 42.489,-712.17 38.3484,-694.1715"/>
<polygon fill="#000000" stroke="#000000" points="41.7399,-693.2991 36.1519,-684.2977 34.907,-694.8192 41.7399,-693.2991"/>
</g>
<!-- slam -->
<g id="node14" class="node">
<title>slam</title>
<g id="a_node14"><a xlink:href="group__mrpt__slam__grp.html" xlink:title="mrpt&#45;slam">
<polygon fill="#d0d0d0" stroke="#000000" points="292.5,-756 218.5,-756 218.5,-720 292.5,-720 292.5,-756"/>
<text text-anchor="middle" x="255.5" y="-734.3" font-family="Times,serif" font-size="14.00" fill="#000000">mrpt&#45;slam</text>
</a>
</g>
</g>
<!-- detectors&#45;&gt;slam -->
<g id="edge10" class="edge">
<title>detectors&#45;&gt;slam</title>
<path fill="none" stroke="#000000" d="M127.6505,-791.8314C152.4787,-781.3774 183.681,-768.2396 209.0451,-757.56"/>
<polygon fill="#000000" stroke="#000000" points="210.5967,-760.7043 218.4548,-753.598 207.8802,-754.2529 210.5967,-760.7043"/>
</g>
<!-- opengl -->
<g id="node16" class="node">
<title>opengl</title>
<g id="a_node16"><a xlink:href="group__mrpt__opengl__grp.html" xlink:title="mrpt&#45;opengl">
<polygon fill="#d0d0d0" stroke="#000000" points="302.5,-540 218.5,-540 218.5,-504 302.5,-504 302.5,-540"/>
<text text-anchor="middle" x="260.5" y="-518.3" font-family="Times,serif" font-size="14.00" fill="#000000">mrpt&#45;opengl</text>
</a>
</g>
</g>
<!-- gui&#45;&gt;opengl -->
<g id="edge15" class="edge">
<title>gui&#45;&gt;opengl</title>
<path fill="none" stroke="#000000" d="M61.3764,-647.7623C102.4921,-621.7945 177.93,-574.1495 223.221,-545.5446"/>
<polygon fill="#000000" stroke="#000000" points="225.2722,-548.3888 231.8581,-540.0896 221.5342,-542.4704 225.2722,-548.3888"/>
</g>
<!-- maps -->
<g id="node20" class="node">
<title>maps</title>
<g id="a_node20"><a xlink:href="group__mrpt__maps__grp.html" xlink:title="mrpt&#45;maps">
<polygon fill="#d0d0d0" stroke="#000000" points="401,-684 324,-684 324,-648 401,-648 401,-684"/>
<text text-anchor="middle" x="362.5" y="-662.3" font-family="Times,serif" font-size="14.00" fill="#000000">mrpt&#45;maps</text>
</a>
</g>
</g>
<!-- slam&#45;&gt;maps -->
<g id="edge45" class="edge">
<title>slam&#45;&gt;maps</title>
<path fill="none" stroke="#000000" d="M282.5006,-719.8314C295.9331,-710.7927 312.3473,-699.7476 326.8039,-690.0198"/>
<polygon fill="#000000" stroke="#000000" points="329.1654,-692.6494 335.508,-684.1628 325.2575,-686.8418 329.1654,-692.6494"/>
</g>
<!-- vision -->
<g id="node21" class="node">
<title>vision</title>
<g id="a_node21"><a xlink:href="group__mrpt__vision__grp.html" xlink:title="mrpt&#45;vision">
<polygon fill="#d0d0d0" stroke="#000000" points="305.5,-684 225.5,-684 225.5,-648 305.5,-648 305.5,-684"/>
<text text-anchor="middle" x="265.5" y="-662.3" font-family="Times,serif" font-size="14.00" fill="#000000">mrpt&#45;vision</text>
</a>
</g>
</g>
<!-- slam&#45;&gt;vision -->
<g id="edge46" class="edge">
<title>slam&#45;&gt;vision</title>
<path fill="none" stroke="#000000" d="M258.0234,-719.8314C259.0929,-712.131 260.3647,-702.9743 261.5532,-694.4166"/>
<polygon fill="#000000" stroke="#000000" points="265.0336,-694.7997 262.9426,-684.4133 258.1001,-693.8367 265.0336,-694.7997"/>
</g>
<!-- graphs -->
<g id="node15" class="node">
<title>graphs</title>
<g id="a_node15"><a xlink:href="group__mrpt__graphs__grp.html" xlink:title="mrpt&#45;graphs">
<polygon fill="#d0d0d0" stroke="#000000" points="302,-612 219,-612 219,-576 302,-576 302,-612"/>
<text text-anchor="middle" x="260.5" y="-590.3" font-family="Times,serif" font-size="14.00" fill="#000000">mrpt&#45;graphs</text>
</a>
</g>
</g>
<!-- graphs&#45;&gt;opengl -->
<g id="edge12" class="edge">
<title>graphs&#45;&gt;opengl</title>
<path fill="none" stroke="#000000" d="M260.5,-575.8314C260.5,-568.131 260.5,-558.9743 260.5,-550.4166"/>
<polygon fill="#000000" stroke="#000000" points="264.0001,-550.4132 260.5,-540.4133 257.0001,-550.4133 264.0001,-550.4132"/>
</g>
<!-- img -->
<g id="node22" class="node">
<title>img</title>
<g id="a_node22"><a xlink:href="group__mrpt__img__grp.html" xlink:title="mrpt&#45;img">
<polygon fill="#d0d0d0" stroke="#000000" points="295,-396 226,-396 226,-360 295,-360 295,-396"/>
<text text-anchor="middle" x="260.5" y="-374.3" font-family="Times,serif" font-size="14.00" fill="#000000">mrpt&#45;img</text>
</a>
</g>
</g>
<!-- opengl&#45;&gt;img -->
<g id="edge38" class="edge">
<title>opengl&#45;&gt;img</title>
<path fill="none" stroke="#000000" d="M260.5,-503.7623C260.5,-479.201 260.5,-435.2474 260.5,-406.3541"/>
<polygon fill="#000000" stroke="#000000" points="264.0001,-406.0896 260.5,-396.0896 257.0001,-406.0897 264.0001,-406.0896"/>
</g>
<!-- poses -->
<g id="node29" class="node">
<title>poses</title>
<g id="a_node29"><a xlink:href="group__mrpt__poses__grp.html" xlink:title="mrpt&#45;poses">
<polygon fill="#d0d0d0" stroke="#000000" points="392,-468 315,-468 315,-432 392,-432 392,-468"/>
<text text-anchor="middle" x="353.5" y="-446.3" font-family="Times,serif" font-size="14.00" fill="#000000">mrpt&#45;poses</text>
</a>
</g>
</g>
<!-- opengl&#45;&gt;poses -->
<g id="edge37" class="edge">
<title>opengl&#45;&gt;poses</title>
<path fill="none" stroke="#000000" d="M283.9678,-503.8314C295.5327,-494.8779 309.6404,-483.9558 322.1183,-474.2955"/>
<polygon fill="#000000" stroke="#000000" points="324.275,-477.0521 330.0397,-468.1628 319.9898,-471.5171 324.275,-477.0521"/>
</g>
<!-- graphslam -->
<g id="node17" class="node">
<title>graphslam</title>
<g id="a_node17"><a xlink:href="group__mrpt__graphslam__grp.html" xlink:title="mrpt&#45;graphslam">
<polygon fill="#d0d0d0" stroke="#000000" points="280.5,-828 176.5,-828 176.5,-792 280.5,-792 280.5,-828"/>
<text text-anchor="middle" x="228.5" y="-806.3" font-family="Times,serif" font-size="14.00" fill="#000000">mrpt&#45;graphslam</text>
</a>
</g>
</g>
<!-- graphslam&#45;&gt;gui -->
<g id="edge13" class="edge">
<title>graphslam&#45;&gt;gui</title>
<path fill="none" stroke="#000000" d="M176.1898,-798.2013C148.2177,-789.9153 114.4917,-776.5588 89.5,-756 69.1241,-739.2382 53.757,-713.2099 44.1437,-693.4476"/>
<polygon fill="#000000" stroke="#000000" points="47.2858,-691.9039 39.89,-684.3176 40.9407,-694.8602 47.2858,-691.9039"/>
</g>
<!-- graphslam&#45;&gt;slam -->
<g id="edge14" class="edge">
<title>graphslam&#45;&gt;slam</title>
<path fill="none" stroke="#000000" d="M235.3132,-791.8314C238.2644,-783.9617 241.7858,-774.5712 245.055,-765.8533"/>
<polygon fill="#000000" stroke="#000000" points="248.3609,-767.0055 248.595,-756.4133 241.8066,-764.5476 248.3609,-767.0055"/>
</g>
<!-- hmtslam -->
<g id="node18" class="node">
<title>hmtslam</title>
<g id="a_node18"><a xlink:href="group__mrpt__hmtslam__grp.html" xlink:title="mrpt&#45;hmtslam">
<polygon fill="#d0d0d0" stroke="#000000" points="276,-900 181,-900 181,-864 276,-864 276,-900"/>
<text text-anchor="middle" x="228.5" y="-878.3" font-family="Times,serif" font-size="14.00" fill="#000000">mrpt&#45;hmtslam</text>
</a>
</g>
</g>
<!-- hmtslam&#45;&gt;graphslam -->
<g id="edge16" class="edge">
<title>hmtslam&#45;&gt;graphslam</title>
<path fill="none" stroke="#000000" d="M228.5,-863.8314C228.5,-856.131 228.5,-846.9743 228.5,-838.4166"/>
<polygon fill="#000000" stroke="#000000" points="232.0001,-838.4132 228.5,-828.4133 225.0001,-838.4133 232.0001,-838.4132"/>
</g>
<!-- hwdrivers -->
<g id="node19" class="node">
<title>hwdrivers</title>
<g id="a_node19"><a xlink:href="group__mrpt__hwdrivers__grp.html" xlink:title="mrpt&#45;hwdrivers">
<polygon fill="#d0d0d0" stroke="#000000" points="200,-756 99,-756 99,-720 200,-720 200,-756"/>
<text text-anchor="middle" x="149.5" y="-734.3" font-family="Times,serif" font-size="14.00" fill="#000000">mrpt&#45;hwdrivers</text>
</a>
</g>
</g>
<!-- hwdrivers&#45;&gt;comms -->
<g id="edge17" class="edge">
<title>hwdrivers&#45;&gt;comms</title>
<path fill="none" stroke="#000000" d="M133.0719,-719.989C125.1975,-710.1289 116.602,-697.2441 112.5,-684 90.3549,-612.5012 101.6369,-522.7229 109.7033,-478.0037"/>
<polygon fill="#000000" stroke="#000000" points="113.1477,-478.6255 111.5624,-468.1499 106.269,-477.3276 113.1477,-478.6255"/>
</g>
<!-- hwdrivers&#45;&gt;gui -->
<g id="edge18" class="edge">
<title>hwdrivers&#45;&gt;gui</title>
<path fill="none" stroke="#000000" d="M119.976,-719.8314C105.0109,-710.6221 86.6614,-699.3301 70.6397,-689.4706"/>
<polygon fill="#000000" stroke="#000000" points="72.3655,-686.423 62.0146,-684.1628 68.6968,-692.3847 72.3655,-686.423"/>
</g>
<!-- hwdrivers&#45;&gt;maps -->
<g id="edge19" class="edge">
<title>hwdrivers&#45;&gt;maps</title>
<path fill="none" stroke="#000000" d="M200.2378,-722.0099C230.7312,-712.2588 270.5035,-699.2948 314.1182,-684.0692"/>
<polygon fill="#000000" stroke="#000000" points="315.5005,-687.2935 323.7789,-680.6815 313.184,-680.6879 315.5005,-687.2935"/>
</g>
<!-- hwdrivers&#45;&gt;vision -->
<g id="edge20" class="edge">
<title>hwdrivers&#45;&gt;vision</title>
<path fill="none" stroke="#000000" d="M178.7717,-719.8314C193.6088,-710.6221 211.8015,-699.3301 227.6862,-689.4706"/>
<polygon fill="#000000" stroke="#000000" points="229.587,-692.4102 236.2377,-684.1628 225.8955,-686.4628 229.587,-692.4102"/>
</g>
<!-- maps&#45;&gt;graphs -->
<g id="edge26" class="edge">
<title>maps&#45;&gt;graphs</title>
<path fill="none" stroke="#000000" d="M336.7611,-647.8314C323.9563,-638.7927 308.3091,-627.7476 294.5281,-618.0198"/>
<polygon fill="#000000" stroke="#000000" points="296.4188,-615.0703 286.2307,-612.1628 292.382,-620.7891 296.4188,-615.0703"/>
</g>
<!-- obs -->
<g id="node24" class="node">
<title>obs</title>
<g id="a_node24"><a xlink:href="group__mrpt__obs__grp.html" xlink:title="mrpt&#45;obs">
<polygon fill="#d0d0d0" stroke="#000000" points="392.5,-612 326.5,-612 326.5,-576 392.5,-576 392.5,-612"/>
<text text-anchor="middle" x="359.5" y="-590.3" font-family="Times,serif" font-size="14.00" fill="#000000">mrpt&#45;obs</text>
</a>
</g>
</g>
<!-- maps&#45;&gt;obs -->
<g id="edge27" class="edge">
<title>maps&#45;&gt;obs</title>
<path fill="none" stroke="#000000" d="M361.743,-647.8314C361.4221,-640.131 361.0406,-630.9743 360.684,-622.4166"/>
<polygon fill="#000000" stroke="#000000" points="364.1806,-622.2589 360.2672,-612.4133 357.1867,-622.5503 364.1806,-622.2589"/>
</g>
<!-- vision&#45;&gt;obs -->
<g id="edge51" class="edge">
<title>vision&#45;&gt;obs</title>
<path fill="none" stroke="#000000" d="M289.2202,-647.8314C300.9094,-638.8779 315.1688,-627.9558 327.7809,-618.2955"/>
<polygon fill="#000000" stroke="#000000" points="329.9769,-621.0222 335.7874,-612.1628 325.7203,-615.4651 329.9769,-621.0222"/>
</g>
<!-- img&#45;&gt;math -->
<g id="edge22" class="edge">
<title>img&#45;&gt;math</title>
<path fill="none" stroke="#000000" d="M278.8644,-359.7623C304.4678,-334.3354 350.9989,-288.1253 379.967,-259.3569"/>
<polygon fill="#000000" stroke="#000000" points="382.6555,-261.6196 387.2848,-252.0896 377.7229,-256.6528 382.6555,-261.6196"/>
</g>
<!-- img&#45;&gt;config -->
<g id="edge23" class="edge">
<title>img&#45;&gt;config</title>
<path fill="none" stroke="#000000" d="M260.5,-359.8314C260.5,-352.131 260.5,-342.9743 260.5,-334.4166"/>
<polygon fill="#000000" stroke="#000000" points="264.0001,-334.4132 260.5,-324.4133 257.0001,-334.4133 264.0001,-334.4132"/>
</g>
<!-- img&#45;&gt;io -->
<g id="edge21" class="edge">
<title>img&#45;&gt;io</title>
<path fill="none" stroke="#000000" d="M228.2002,-359.8314C210.7138,-349.9953 189.0035,-337.7832 170.6837,-327.4783"/>
<polygon fill="#000000" stroke="#000000" points="172.1571,-324.2914 161.7254,-322.4393 168.7252,-330.3925 172.1571,-324.2914"/>
</g>
<!-- kinematics -->
<g id="node23" class="node">
<title>kinematics</title>
<g id="a_node23"><a xlink:href="group__mrpt__kinematics__grp.html" xlink:title="mrpt&#45;kinematics">
<polygon fill="#d0d0d0" stroke="#000000" points="564,-612 457,-612 457,-576 564,-576 564,-612"/>
<text text-anchor="middle" x="510.5" y="-590.3" font-family="Times,serif" font-size="14.00" fill="#000000">mrpt&#45;kinematics</text>
</a>
</g>
</g>
<!-- kinematics&#45;&gt;opengl -->
<g id="edge25" class="edge">
<title>kinematics&#45;&gt;opengl</title>
<path fill="none" stroke="#000000" d="M456.977,-580.628C419.0176,-570.8819 366.7059,-556.9237 312.5013,-540.2126"/>
<polygon fill="#000000" stroke="#000000" points="313.3082,-536.7983 302.7199,-537.173 311.2308,-543.483 313.3082,-536.7983"/>
</g>
<!-- obs&#45;&gt;db -->
<g id="edge35" class="edge">
<title>obs&#45;&gt;db</title>
<path fill="none" stroke="#000000" d="M376.4764,-575.8124C384.8662,-565.9039 394.4608,-553.0291 400.5,-540 417.7317,-502.8237 420.5,-490.9758 420.5,-450 420.5,-450 420.5,-450 420.5,-378 420.5,-328.9451 380.7284,-284.7517 351.0999,-258.6353"/>
<polygon fill="#000000" stroke="#000000" points="353.309,-255.9191 343.4356,-252.0763 348.7576,-261.2375 353.309,-255.9191"/>
</g>
<!-- obs&#45;&gt;opengl -->
<g id="edge34" class="edge">
<title>obs&#45;&gt;opengl</title>
<path fill="none" stroke="#000000" d="M334.5181,-575.8314C322.2072,-566.8779 307.1893,-555.9558 293.9063,-546.2955"/>
<polygon fill="#000000" stroke="#000000" points="295.6199,-543.214 285.4739,-540.1628 291.5027,-548.8752 295.6199,-543.214"/>
</g>
<!-- tfest -->
<g id="node28" class="node">
<title>tfest</title>
<g id="a_node28"><a xlink:href="group__mrpt__tfest__grp.html" xlink:title="mrpt&#45;tfest">
<polygon fill="#d0d0d0" stroke="#000000" points="392,-540 321,-540 321,-504 392,-504 392,-540"/>
<text text-anchor="middle" x="356.5" y="-518.3" font-family="Times,serif" font-size="14.00" fill="#000000">mrpt&#45;tfest</text>
</a>
</g>
</g>
<!-- obs&#45;&gt;tfest -->
<g id="edge36" class="edge">
<title>obs&#45;&gt;tfest</title>
<path fill="none" stroke="#000000" d="M358.743,-575.8314C358.4221,-568.131 358.0406,-558.9743 357.684,-550.4166"/>
<polygon fill="#000000" stroke="#000000" points="361.1806,-550.2589 357.2672,-540.4133 354.1867,-550.5503 361.1806,-550.2589"/>
</g>
<!-- nav -->
<g id="node27" class="node">
<title>nav</title>
<g id="a_node27"><a xlink:href="group__mrpt__nav__grp.html" xlink:title="mrpt&#45;nav">
<polygon fill="#d0d0d0" stroke="#000000" points="545,-756 478,-756 478,-720 545,-720 545,-756"/>
<text text-anchor="middle" x="511.5" y="-734.3" font-family="Times,serif" font-size="14.00" fill="#000000">mrpt&#45;nav</text>
</a>
</g>
</g>
<!-- nav&#45;&gt;maps -->
<g id="edge33" class="edge">
<title>nav&#45;&gt;maps</title>
<path fill="none" stroke="#000000" d="M477.6896,-721.6621C457.4047,-711.86 431.3143,-699.2526 409.095,-688.5157"/>
<polygon fill="#000000" stroke="#000000" points="410.3643,-685.2419 399.8376,-684.0423 407.3187,-691.5446 410.3643,-685.2419"/>
</g>
<!-- nav&#45;&gt;kinematics -->
<g id="edge32" class="edge">
<title>nav&#45;&gt;kinematics</title>
<path fill="none" stroke="#000000" d="M522.8196,-719.7678C528.4396,-709.6415 534.6294,-696.5789 537.5,-684 541.0597,-668.401 541.176,-663.572 537.5,-648 535.3304,-638.8094 531.3438,-629.3995 527.0879,-621.0631"/>
<polygon fill="#000000" stroke="#000000" points="530.1056,-619.286 522.2508,-612.1759 523.9573,-622.6324 530.1056,-619.286"/>
</g>
<!-- tfest&#45;&gt;poses -->
<g id="edge49" class="edge">
<title>tfest&#45;&gt;poses</title>
<path fill="none" stroke="#000000" d="M355.743,-503.8314C355.4221,-496.131 355.0406,-486.9743 354.684,-478.4166"/>
<polygon fill="#000000" stroke="#000000" points="358.1806,-478.2589 354.2672,-468.4133 351.1867,-478.5503 358.1806,-478.2589"/>
</g>
<!-- poses&#45;&gt;bayes -->
<g id="edge40" class="edge">
<title>poses&#45;&gt;bayes</title>
<path fill="none" stroke="#000000" d="M353.5,-431.8314C353.5,-424.131 353.5,-414.9743 353.5,-406.4166"/>
<polygon fill="#000000" stroke="#000000" points="357.0001,-406.4132 353.5,-396.4133 350.0001,-406.4133 357.0001,-406.4132"/>
</g>
<!-- pbmap -->
<g id="node30" class="node">
<title>pbmap</title>
<g id="a_node30"><a xlink:href="group__mrpt__pbmap__grp.html" xlink:title="mrpt&#45;pbmap">
<polygon fill="#d0d0d0" stroke="#000000" points="207,-684 122,-684 122,-648 207,-648 207,-684"/>
<text text-anchor="middle" x="164.5" y="-662.3" font-family="Times,serif" font-size="14.00" fill="#000000">mrpt&#45;pbmap</text>
</a>
</g>
</g>
<!-- pbmap&#45;&gt;graphs -->
<g id="edge39" class="edge">
<title>pbmap&#45;&gt;graphs</title>
<path fill="none" stroke="#000000" d="M188.7249,-647.8314C200.6628,-638.8779 215.2256,-627.9558 228.106,-618.2955"/>
<polygon fill="#000000" stroke="#000000" points="230.3829,-620.9629 236.2829,-612.1628 226.1829,-615.3629 230.3829,-620.9629"/>
</g>
<!-- rtti&#45;&gt;core -->
<g id="edge41" class="edge">
<title>rtti&#45;&gt;core</title>
<path fill="none" stroke="#000000" d="M276.7318,-73.6621C257.7573,-63.9038 233.3765,-51.3651 212.5604,-40.6596"/>
<polygon fill="#000000" stroke="#000000" points="214.076,-37.5034 203.5823,-36.0423 210.8745,-43.7284 214.076,-37.5034"/>
</g>
<!-- rtti&#45;&gt;typemeta -->
<g id="edge42" class="edge">
<title>rtti&#45;&gt;typemeta</title>
<path fill="none" stroke="#000000" d="M301.9391,-71.8314C299.0973,-63.9617 295.7063,-54.5712 292.5581,-45.8533"/>
<polygon fill="#000000" stroke="#000000" points="295.8377,-44.63 289.1492,-36.4133 289.2538,-47.0076 295.8377,-44.63"/>
</g>
<!-- ros1bridge -->
<g id="node33" class="node">
<title>ros1bridge</title>
<g id="a_node33"><a xlink:href="group__mrpt__ros1bridge__grp.html" xlink:title="mrpt&#45;ros1bridge">
<polygon fill="#d0d0d0" stroke="#000000" points="416,-756 311,-756 311,-720 416,-720 416,-756"/>
<text text-anchor="middle" x="363.5" y="-734.3" font-family="Times,serif" font-size="14.00" fill="#000000">mrpt&#45;ros1bridge</text>
</a>
</g>
</g>
<!-- ros1bridge&#45;&gt;maps -->
<g id="edge43" class="edge">
<title>ros1bridge&#45;&gt;maps</title>
<path fill="none" stroke="#000000" d="M363.2477,-719.8314C363.1407,-712.131 363.0135,-702.9743 362.8947,-694.4166"/>
<polygon fill="#000000" stroke="#000000" points="366.3944,-694.3637 362.7557,-684.4133 359.3951,-694.4609 366.3944,-694.3637"/>
</g>
<!-- topography -->
<g id="node34" class="node">
<title>topography</title>
<g id="a_node34"><a xlink:href="group__mrpt__topography__grp.html" xlink:title="mrpt&#45;topography">
<polygon fill="#d0d0d0" stroke="#000000" points="528,-684 419,-684 419,-648 528,-648 528,-684"/>
<text text-anchor="middle" x="473.5" y="-662.3" font-family="Times,serif" font-size="14.00" fill="#000000">mrpt&#45;topography</text>
</a>
</g>
</g>
<!-- topography&#45;&gt;obs -->
<g id="edge50" class="edge">
<title>topography&#45;&gt;obs</title>
<path fill="none" stroke="#000000" d="M444.733,-647.8314C430.2867,-638.7074 412.6035,-627.539 397.096,-617.7449"/>
<polygon fill="#000000" stroke="#000000" points="398.5817,-614.5436 388.2578,-612.1628 394.8437,-620.462 398.5817,-614.5436"/>
</g>
</g>
</svg>
