<?xml version="1.0" encoding="UTF-8" standalone="no"?>
<!DOCTYPE svg PUBLIC "-//W3C//DTD SVG 1.1//EN"
 "http://www.w3.org/Graphics/SVG/1.1/DTD/svg11.dtd">
<!-- Generated by graphviz version 2.26.3 (20100126.1600)
 -->
<!-- Title: MRPT_LIBS Pages: 1 -->
<svg width="659pt" height="404pt"
 viewBox="0.00 0.00 659.00 404.00" xmlns="http://www.w3.org/2000/svg" xmlns:xlink="http://www.w3.org/1999/xlink">
<g id="graph1" class="graph" transform="scale(1 1) rotate(0) translate(4 400)">
<title>MRPT_LIBS</title>
<polygon fill="white" stroke="white" points="-4,5 -4,-400 656,-400 656,5 -4,5"/>
<!-- base -->
<g id="node1" class="node"><title>base</title>
<a xlink:href="group__mrpt__base__grp.html" xlink:title="mrpt&#45;base">
<polygon fill="#d0d0d0" stroke="black" points="495,-36 419,-36 419,-1.77636e-14 495,-3.55271e-15 495,-36"/>
<text text-anchor="middle" x="457" y="-14.7" font-family="Times Roman,serif" font-size="12.00">mrpt&#45;base</text>
</a>
</g>
<!-- graphs -->
<g id="node2" class="node"><title>graphs</title>
<a xlink:href="group__mrpt__graphs__grp.html" xlink:title="mrpt&#45;graphs">
<polygon fill="#d0d0d0" stroke="black" points="452,-252 362,-252 362,-216 452,-216 452,-252"/>
<text text-anchor="middle" x="407" y="-230.7" font-family="Times Roman,serif" font-size="12.00">mrpt&#45;graphs</text>
</a>
</g>
<!-- graphs&#45;&gt;base -->
<g id="edge2" class="edge"><title>graphs&#45;&gt;base</title>
<path fill="none" stroke="black" d="M411.177,-215.955C419.89,-178.314 440.059,-91.1867 450.49,-46.1246"/>
<polygon fill="black" stroke="black" points="453.954,-46.6768 452.8,-36.1451 447.135,-45.0981 453.954,-46.6768"/>
</g>
<!-- bayes -->
<g id="node3" class="node"><title>bayes</title>
<a xlink:href="group__mrpt__bayes__grp.html" xlink:title="mrpt&#45;bayes">
<polygon fill="#d0d0d0" stroke="black" points="651,-108 567,-108 567,-72 651,-72 651,-108"/>
<text text-anchor="middle" x="609" y="-86.7" font-family="Times Roman,serif" font-size="12.00">mrpt&#45;bayes</text>
</a>
</g>
<!-- bayes&#45;&gt;base -->
<g id="edge6" class="edge"><title>bayes&#45;&gt;base</title>
<path fill="none" stroke="black" d="M570.644,-71.8314C550.496,-62.2874 525.625,-50.5065 504.292,-40.4013"/>
<polygon fill="black" stroke="black" points="505.616,-37.1558 495.08,-36.038 502.619,-43.482 505.616,-37.1558"/>
</g>
<!-- opengl -->
<g id="node4" class="node"><title>opengl</title>
<a xlink:href="group__mrpt__opengl__grp.html" xlink:title="mrpt&#45;opengl">
<polygon fill="#d0d0d0" stroke="black" points="297,-108 209,-108 209,-72 297,-72 297,-108"/>
<text text-anchor="middle" x="253" y="-86.7" font-family="Times Roman,serif" font-size="12.00">mrpt&#45;opengl</text>
</a>
</g>
<!-- opengl&#45;&gt;base -->
<g id="edge8" class="edge"><title>opengl&#45;&gt;base</title>
<path fill="none" stroke="black" d="M297.014,-74.4657C330.062,-62.8017 375.271,-46.8456 409.201,-34.8701"/>
<polygon fill="black" stroke="black" points="410.632,-38.0767 418.897,-31.448 408.303,-31.4758 410.632,-38.0767"/>
</g>
<!-- gui -->
<g id="node5" class="node"><title>gui</title>
<a xlink:href="group__mrpt__gui__grp.html" xlink:title="mrpt&#45;gui">
<polygon fill="#d0d0d0" stroke="black" points="124,-180 58,-180 58,-144 124,-144 124,-180"/>
<text text-anchor="middle" x="91" y="-158.7" font-family="Times Roman,serif" font-size="12.00">mrpt&#45;gui</text>
</a>
</g>
<!-- gui&#45;&gt;opengl -->
<g id="edge12" class="edge"><title>gui&#45;&gt;opengl</title>
<path fill="none" stroke="black" d="M124.174,-147.256C146.929,-137.143 177.528,-123.543 203.195,-112.135"/>
<polygon fill="black" stroke="black" points="204.688,-115.302 212.405,-108.042 201.845,-108.905 204.688,-115.302"/>
</g>
<!-- obs -->
<g id="node6" class="node"><title>obs</title>
<a xlink:href="group__mrpt__obs__grp.html" xlink:title="mrpt&#45;obs">
<polygon fill="#d0d0d0" stroke="black" points="288,-180 218,-180 218,-144 288,-144 288,-180"/>
<text text-anchor="middle" x="253" y="-158.7" font-family="Times Roman,serif" font-size="12.00">mrpt&#45;obs</text>
</a>
</g>
<!-- obs&#45;&gt;opengl -->
<g id="edge10" class="edge"><title>obs&#45;&gt;opengl</title>
<path fill="none" stroke="black" d="M253,-143.831C253,-136.131 253,-126.974 253,-118.417"/>
<polygon fill="black" stroke="black" points="256.5,-118.413 253,-108.413 249.5,-118.413 256.5,-118.413"/>
</g>
<!-- hwdrivers -->
<g id="node7" class="node"><title>hwdrivers</title>
<a xlink:href="group__mrpt__hwdrivers__grp.html" xlink:title="mrpt&#45;hwdrivers">
<polygon fill="#d0d0d0" stroke="black" points="144,-252 38,-252 38,-216 144,-216 144,-252"/>
<text text-anchor="middle" x="91" y="-230.7" font-family="Times Roman,serif" font-size="12.00">mrpt&#45;hwdrivers</text>
</a>
</g>
<!-- hwdrivers&#45;&gt;gui -->
<g id="edge14" class="edge"><title>hwdrivers&#45;&gt;gui</title>
<path fill="none" stroke="black" d="M91,-215.831C91,-208.131 91,-198.974 91,-190.417"/>
<polygon fill="black" stroke="black" points="94.5001,-190.413 91,-180.413 87.5001,-190.413 94.5001,-190.413"/>
</g>
<!-- hwdrivers&#45;&gt;obs -->
<g id="edge16" class="edge"><title>hwdrivers&#45;&gt;obs</title>
<path fill="none" stroke="black" d="M131.879,-215.831C155.297,-205.423 184.701,-192.355 208.672,-181.701"/>
<polygon fill="black" stroke="black" points="210.188,-184.858 217.905,-177.598 207.345,-178.461 210.188,-184.858"/>
</g>
<!-- topography -->
<g id="node8" class="node"><title>topography</title>
<a xlink:href="group__mrpt__topography__grp.html" xlink:title="mrpt&#45;topography">
<polygon fill="#d0d0d0" stroke="black" points="588,-252 470,-252 470,-216 588,-216 588,-252"/>
<text text-anchor="middle" x="529" y="-230.7" font-family="Times Roman,serif" font-size="12.00">mrpt&#45;topography</text>
</a>
</g>
<!-- topography&#45;&gt;obs -->
<g id="edge18" class="edge"><title>topography&#45;&gt;obs</title>
<path fill="none" stroke="black" d="M469.666,-218.276C466.736,-217.505 463.835,-216.743 461,-216 404.871,-201.285 340.169,-184.518 298.028,-173.624"/>
<polygon fill="black" stroke="black" points="298.902,-170.235 288.344,-171.121 297.15,-177.012 298.902,-170.235"/>
</g>
<!-- scanmatching -->
<g id="node11" class="node"><title>scanmatching</title>
<a xlink:href="group__mrpt__scanmatching__grp.html" xlink:title="mrpt&#45;scanmatching">
<polygon fill="#d0d0d0" stroke="black" points="594,-180 464,-180 464,-144 594,-144 594,-180"/>
<text text-anchor="middle" x="529" y="-158.7" font-family="Times Roman,serif" font-size="12.00">mrpt&#45;scanmatching</text>
</a>
</g>
<!-- topography&#45;&gt;scanmatching -->
<g id="edge20" class="edge"><title>topography&#45;&gt;scanmatching</title>
<path fill="none" stroke="black" d="M529,-215.831C529,-208.131 529,-198.974 529,-190.417"/>
<polygon fill="black" stroke="black" points="532.5,-190.413 529,-180.413 525.5,-190.413 532.5,-190.413"/>
</g>
<!-- maps -->
<g id="node9" class="node"><title>maps</title>
<a xlink:href="group__mrpt__maps__grp.html" xlink:title="mrpt&#45;maps">
<polygon fill="#d0d0d0" stroke="black" points="344,-252 262,-252 262,-216 344,-216 344,-252"/>
<text text-anchor="middle" x="303" y="-230.7" font-family="Times Roman,serif" font-size="12.00">mrpt&#45;maps</text>
</a>
</g>
<!-- maps&#45;&gt;obs -->
<g id="edge24" class="edge"><title>maps&#45;&gt;obs</title>
<path fill="none" stroke="black" d="M290.383,-215.831C284.683,-207.623 277.834,-197.761 271.564,-188.732"/>
<polygon fill="black" stroke="black" points="274.366,-186.631 265.787,-180.413 268.616,-190.623 274.366,-186.631"/>
</g>
<!-- vision -->
<g id="node10" class="node"><title>vision</title>
<a xlink:href="group__mrpt__vision__grp.html" xlink:title="mrpt&#45;vision">
<polygon fill="#d0d0d0" stroke="black" points="244,-252 162,-252 162,-216 244,-216 244,-252"/>
<text text-anchor="middle" x="203" y="-230.7" font-family="Times Roman,serif" font-size="12.00">mrpt&#45;vision</text>
</a>
</g>
<!-- vision&#45;&gt;obs -->
<g id="edge22" class="edge"><title>vision&#45;&gt;obs</title>
<path fill="none" stroke="black" d="M215.617,-215.831C221.317,-207.623 228.166,-197.761 234.436,-188.732"/>
<polygon fill="black" stroke="black" points="237.384,-190.623 240.213,-180.413 231.634,-186.631 237.384,-190.623"/>
</g>
<!-- scanmatching&#45;&gt;base -->
<g id="edge4" class="edge"><title>scanmatching&#45;&gt;base</title>
<path fill="none" stroke="black" d="M519.881,-143.762C507.438,-118.876 485.041,-74.0822 470.608,-45.2165"/>
<polygon fill="black" stroke="black" points="473.647,-43.4686 466.045,-36.0896 467.386,-46.5992 473.647,-43.4686"/>
</g>
<!-- slam -->
<g id="node12" class="node"><title>slam</title>
<a xlink:href="group__mrpt__slam__grp.html" xlink:title="mrpt&#45;slam">
<polygon fill="#d0d0d0" stroke="black" points="484,-324 408,-324 408,-288 484,-288 484,-324"/>
<text text-anchor="middle" x="446" y="-302.7" font-family="Times Roman,serif" font-size="12.00">mrpt&#45;slam</text>
</a>
</g>
<!-- slam&#45;&gt;graphs -->
<g id="edge34" class="edge"><title>slam&#45;&gt;graphs</title>
<path fill="none" stroke="black" d="M436.159,-287.831C431.804,-279.792 426.59,-270.167 421.783,-261.292"/>
<polygon fill="black" stroke="black" points="424.814,-259.539 416.974,-252.413 418.659,-262.873 424.814,-259.539"/>
</g>
<!-- slam&#45;&gt;bayes -->
<g id="edge32" class="edge"><title>slam&#45;&gt;bayes</title>
<path fill="none" stroke="black" d="M484.161,-299.094C528.795,-290.15 598.57,-273.167 614,-252 642.664,-212.679 630.321,-152.559 619.292,-117.682"/>
<polygon fill="black" stroke="black" points="622.592,-116.513 616.105,-108.136 615.952,-118.73 622.592,-116.513"/>
</g>
<!-- slam&#45;&gt;maps -->
<g id="edge26" class="edge"><title>slam&#45;&gt;maps</title>
<path fill="none" stroke="black" d="M409.915,-287.831C391.201,-278.409 368.157,-266.806 348.26,-256.788"/>
<polygon fill="black" stroke="black" points="349.579,-253.534 339.073,-252.163 346.431,-259.786 349.579,-253.534"/>
</g>
<!-- slam&#45;&gt;vision -->
<g id="edge28" class="edge"><title>slam&#45;&gt;vision</title>
<path fill="none" stroke="black" d="M407.92,-290.962C404.917,-289.916 401.918,-288.915 399,-288 338.216,-268.947 318.783,-271.083 253.987,-252.128"/>
<polygon fill="black" stroke="black" points="254.671,-248.68 244.088,-249.174 252.669,-255.388 254.671,-248.68"/>
</g>
<!-- slam&#45;&gt;scanmatching -->
<g id="edge30" class="edge"><title>slam&#45;&gt;scanmatching</title>
<path fill="none" stroke="black" d="M484.296,-297.587C524.51,-287.886 583.733,-270.835 597,-252 606.214,-238.919 603.957,-230.408 597,-216 591.311,-204.217 581.662,-194.216 571.394,-186.144"/>
<polygon fill="black" stroke="black" points="573.231,-183.152 563.089,-180.086 569.105,-188.807 573.231,-183.152"/>
</g>
<!-- graphslam -->
<g id="node13" class="node"><title>graphslam</title>
<a xlink:href="group__mrpt__graphslam__grp.html" xlink:title="mrpt&#45;graphslam">
<polygon fill="#d0d0d0" stroke="black" points="439,-396 329,-396 329,-360 439,-360 439,-396"/>
<text text-anchor="middle" x="384" y="-374.7" font-family="Times Roman,serif" font-size="12.00">mrpt&#45;graphslam</text>
</a>
</g>
<!-- graphslam&#45;&gt;slam -->
<g id="edge36" class="edge"><title>graphslam&#45;&gt;slam</title>
<path fill="none" stroke="black" d="M399.645,-359.831C406.859,-351.454 415.557,-341.353 423.46,-332.175"/>
<polygon fill="black" stroke="black" points="426.271,-334.275 430.144,-324.413 420.967,-329.707 426.271,-334.275"/>
</g>
<!-- hmtslam -->
<g id="node14" class="node"><title>hmtslam</title>
<a xlink:href="group__mrpt__hmtslam__grp.html" xlink:title="mrpt&#45;hmtslam">
<polygon fill="#d0d0d0" stroke="black" points="557,-396 457,-396 457,-360 557,-360 557,-396"/>
<text text-anchor="middle" x="507" y="-374.7" font-family="Times Roman,serif" font-size="12.00">mrpt&#45;hmtslam</text>
</a>
</g>
<!-- hmtslam&#45;&gt;slam -->
<g id="edge44" class="edge"><title>hmtslam&#45;&gt;slam</title>
<path fill="none" stroke="black" d="M491.607,-359.831C484.51,-351.454 475.952,-341.353 468.176,-332.175"/>
<polygon fill="black" stroke="black" points="470.735,-329.781 461.6,-324.413 465.394,-334.306 470.735,-329.781"/>
</g>
<!-- reactivenav -->
<g id="node15" class="node"><title>reactivenav</title>
<a xlink:href="group__mrpt__reactivenav__grp.html" xlink:title="mrpt&#45;reactivenav">
<polygon fill="#d0d0d0" stroke="black" points="390,-324 274,-324 274,-288 390,-288 390,-324"/>
<text text-anchor="middle" x="332" y="-302.7" font-family="Times Roman,serif" font-size="12.00">mrpt&#45;reactivenav</text>
</a>
</g>
<!-- reactivenav&#45;&gt;graphs -->
<g id="edge50" class="edge"><title>reactivenav&#45;&gt;graphs</title>
<path fill="none" stroke="black" d="M350.926,-287.831C359.986,-279.134 370.981,-268.578 380.827,-259.127"/>
<polygon fill="black" stroke="black" points="383.29,-261.613 388.08,-252.163 378.443,-256.563 383.29,-261.613"/>
</g>
<!-- reactivenav&#45;&gt;maps -->
<g id="edge48" class="edge"><title>reactivenav&#45;&gt;maps</title>
<path fill="none" stroke="black" d="M324.682,-287.831C321.512,-279.962 317.73,-270.571 314.219,-261.853"/>
<polygon fill="black" stroke="black" points="317.399,-260.381 310.416,-252.413 310.906,-262.997 317.399,-260.381"/>
</g>
<!-- stereoslam -->
<g id="node16" class="node"><title>stereoslam</title>
<a xlink:href="group__mrpt__stereoslam__grp.html" xlink:title="mrpt&#45;stereoslam (*)">
<polygon fill="#d0d0d0" stroke="black" points="132,-324 7.10543e-14,-324 0,-288 132,-288 132,-324"/>
<text text-anchor="middle" x="66" y="-302.7" font-family="Times Roman,serif" font-size="12.00">mrpt&#45;stereoslam (*)</text>
</a>
</g>
<!-- stereoslam&#45;&gt;vision -->
<g id="edge46" class="edge"><title>stereoslam&#45;&gt;vision</title>
<path fill="none" stroke="black" d="M100.571,-287.831C118.419,-278.452 140.377,-266.911 159.38,-256.924"/>
<polygon fill="black" stroke="black" points="161.216,-259.913 168.44,-252.163 157.96,-253.717 161.216,-259.913"/>
</g>
<!-- detectors -->
<g id="node17" class="node"><title>detectors</title>
<a xlink:href="group__mrpt__detectors__grp.html" xlink:title="mrpt&#45;detectors">
<polygon fill="#d0d0d0" stroke="black" points="256,-324 150,-324 150,-288 256,-288 256,-324"/>
<text text-anchor="middle" x="203" y="-302.7" font-family="Times Roman,serif" font-size="12.00">mrpt&#45;detectors</text>
</a>
</g>
<!-- detectors&#45;&gt;gui -->
<g id="edge42" class="edge"><title>detectors&#45;&gt;gui</title>
<path fill="none" stroke="black" d="M149.679,-290.269C99.2221,-275.26 30.8878,-254.562 29,-252 19.51,-239.118 22.3719,-230.563 29,-216 34.174,-204.632 43.0543,-194.727 52.5028,-186.612"/>
<polygon fill="black" stroke="black" points="54.8729,-189.199 60.5042,-180.224 50.5055,-183.728 54.8729,-189.199"/>
</g>
<!-- detectors&#45;&gt;maps -->
<g id="edge40" class="edge"><title>detectors&#45;&gt;maps</title>
<path fill="none" stroke="black" d="M228.234,-287.831C240.788,-278.793 256.128,-267.748 269.639,-258.02"/>
<polygon fill="black" stroke="black" points="271.704,-260.846 277.774,-252.163 267.613,-255.166 271.704,-260.846"/>
</g>
<!-- detectors&#45;&gt;vision -->
<g id="edge38" class="edge"><title>detectors&#45;&gt;vision</title>
<path fill="none" stroke="black" d="M203,-287.831C203,-280.131 203,-270.974 203,-262.417"/>
<polygon fill="black" stroke="black" points="206.5,-262.413 203,-252.413 199.5,-262.413 206.5,-262.413"/>
</g>
</g>
</svg>
