<?xml version="1.0" encoding="UTF-8" standalone="no"?>
<!DOCTYPE svg PUBLIC "-//W3C//DTD SVG 1.1//EN"
 "http://www.w3.org/Graphics/SVG/1.1/DTD/svg11.dtd">
<!-- Generated by graphviz version 2.36.0 (20140111.2315)
 -->
<!-- Title: MRPT_LIBS Pages: 1 -->
<svg width="813pt" height="404pt"
 viewBox="0.00 0.00 813.00 404.00" xmlns="http://www.w3.org/2000/svg" xmlns:xlink="http://www.w3.org/1999/xlink">
<g id="graph0" class="graph" transform="scale(1 1) rotate(0) translate(4 400)">
<title>MRPT_LIBS</title>
<polygon fill="white" stroke="none" points="-4,4 -4,-400 809,-400 809,4 -4,4"/>
<!-- base -->
<g id="node1" class="node"><title>base</title>
<g id="a_node1"><a xlink:href="group__mrpt__base__grp.html" xlink:title="mrpt&#45;base">
<polygon fill="#d0d0d0" stroke="black" points="351.25,-36 278.75,-36 278.75,-0 351.25,-0 351.25,-36"/>
<text text-anchor="middle" x="315" y="-14.3" font-family="Times New Roman,serif" font-size="14.00">mrpt&#45;base</text>
</a>
</g>
</g>
<!-- graphs -->
<g id="node2" class="node"><title>graphs</title>
<g id="a_node2"><a xlink:href="group__mrpt__graphs__grp.html" xlink:title="mrpt&#45;graphs (.h)">
<polygon fill="#d0d0d0" stroke="black" points="243,-252 135,-252 135,-216 243,-216 243,-252"/>
<text text-anchor="middle" x="189" y="-230.3" font-family="Times New Roman,serif" font-size="14.00">mrpt&#45;graphs (.h)</text>
</a>
</g>
</g>
<!-- graphs&#45;&gt;base -->
<g id="edge4" class="edge"><title>graphs&#45;&gt;base</title>
<path fill="none" stroke="black" d="M186.816,-215.879C183.73,-184.29 181.565,-116.053 213,-72 226.509,-53.0682 248.858,-40.3895 269.198,-32.194"/>
<polygon fill="black" stroke="black" points="270.541,-35.4283 278.667,-28.6306 268.075,-28.8768 270.541,-35.4283"/>
</g>
<!-- bayes -->
<g id="node3" class="node"><title>bayes</title>
<g id="a_node3"><a xlink:href="group__mrpt__bayes__grp.html" xlink:title="mrpt&#45;bayes (.h)">
<polygon fill="#d0d0d0" stroke="black" points="325.25,-108 222.75,-108 222.75,-72 325.25,-72 325.25,-108"/>
<text text-anchor="middle" x="274" y="-86.3" font-family="Times New Roman,serif" font-size="14.00">mrpt&#45;bayes (.h)</text>
</a>
</g>
</g>
<!-- bayes&#45;&gt;base -->
<g id="edge6" class="edge"><title>bayes&#45;&gt;base</title>
<path fill="none" stroke="black" d="M284.135,-71.6966C288.852,-63.6436 294.562,-53.8945 299.782,-44.9824"/>
<polygon fill="black" stroke="black" points="302.948,-46.5021 304.982,-36.1043 296.908,-42.9643 302.948,-46.5021"/>
</g>
<!-- opengl -->
<g id="node4" class="node"><title>opengl</title>
<g id="a_node4"><a xlink:href="group__mrpt__opengl__grp.html" xlink:title="mrpt&#45;opengl">
<polygon fill="#d0d0d0" stroke="black" points="655.25,-108 570.75,-108 570.75,-72 655.25,-72 655.25,-108"/>
<text text-anchor="middle" x="613" y="-86.3" font-family="Times New Roman,serif" font-size="14.00">mrpt&#45;opengl</text>
</a>
</g>
</g>
<!-- opengl&#45;&gt;base -->
<g id="edge7" class="edge"><title>opengl&#45;&gt;base</title>
<path fill="none" stroke="black" d="M570.62,-79.045C515.291,-66.0482 418.771,-43.3757 361.487,-29.9197"/>
<polygon fill="black" stroke="black" points="362.145,-26.4792 351.61,-27.5997 360.545,-33.2938 362.145,-26.4792"/>
</g>
<!-- gui -->
<g id="node5" class="node"><title>gui</title>
<g id="a_node5"><a xlink:href="group__mrpt__gui__grp.html" xlink:title="mrpt&#45;gui">
<polygon fill="#d0d0d0" stroke="black" points="805,-252 741,-252 741,-216 805,-216 805,-252"/>
<text text-anchor="middle" x="773" y="-230.3" font-family="Times New Roman,serif" font-size="14.00">mrpt&#45;gui</text>
</a>
</g>
</g>
<!-- gui&#45;&gt;opengl -->
<g id="edge9" class="edge"><title>gui&#45;&gt;opengl</title>
<path fill="none" stroke="black" d="M774.406,-215.832C775.058,-196.199 773.072,-164.174 756,-144 733.488,-117.398 696.324,-104.14 665.525,-97.537"/>
<polygon fill="black" stroke="black" points="665.841,-94.0324 655.354,-95.5432 664.494,-100.902 665.841,-94.0324"/>
</g>
<!-- obs -->
<g id="node6" class="node"><title>obs</title>
<g id="a_node6"><a xlink:href="group__mrpt__obs__grp.html" xlink:title="mrpt&#45;obs">
<polygon fill="#d0d0d0" stroke="black" points="747,-180 679,-180 679,-144 747,-144 747,-180"/>
<text text-anchor="middle" x="713" y="-158.3" font-family="Times New Roman,serif" font-size="14.00">mrpt&#45;obs</text>
</a>
</g>
</g>
<!-- obs&#45;&gt;opengl -->
<g id="edge8" class="edge"><title>obs&#45;&gt;opengl</title>
<path fill="none" stroke="black" d="M688.537,-143.876C675.704,-134.893 659.804,-123.763 645.906,-114.034"/>
<polygon fill="black" stroke="black" points="647.756,-111.057 637.557,-108.19 643.742,-116.792 647.756,-111.057"/>
</g>
<!-- hwdrivers -->
<g id="node7" class="node"><title>hwdrivers</title>
<g id="a_node7"><a xlink:href="group__mrpt__hwdrivers__grp.html" xlink:title="mrpt&#45;hwdrivers">
<polygon fill="#d0d0d0" stroke="black" points="633,-324 531,-324 531,-288 633,-288 633,-324"/>
<text text-anchor="middle" x="582" y="-302.3" font-family="Times New Roman,serif" font-size="14.00">mrpt&#45;hwdrivers</text>
</a>
</g>
</g>
<!-- hwdrivers&#45;&gt;gui -->
<g id="edge10" class="edge"><title>hwdrivers&#45;&gt;gui</title>
<path fill="none" stroke="black" d="M632.245,-287.998C659.208,-278.702 693.184,-266.715 731.111,-252.256"/>
<polygon fill="black" stroke="black" points="732.752,-255.375 740.836,-248.527 730.246,-248.839 732.752,-255.375"/>
</g>
<!-- maps -->
<g id="node9" class="node"><title>maps</title>
<g id="a_node9"><a xlink:href="group__mrpt__maps__grp.html" xlink:title="mrpt&#45;maps">
<polygon fill="#d0d0d0" stroke="black" points="620.25,-252 543.75,-252 543.75,-216 620.25,-216 620.25,-252"/>
<text text-anchor="middle" x="582" y="-230.3" font-family="Times New Roman,serif" font-size="14.00">mrpt&#45;maps</text>
</a>
</g>
</g>
<!-- hwdrivers&#45;&gt;maps -->
<g id="edge11" class="edge"><title>hwdrivers&#45;&gt;maps</title>
<path fill="none" stroke="black" d="M582,-287.697C582,-279.983 582,-270.712 582,-262.112"/>
<polygon fill="black" stroke="black" points="585.5,-262.104 582,-252.104 578.5,-262.104 585.5,-262.104"/>
</g>
<!-- topography -->
<g id="node8" class="node"><title>topography</title>
<g id="a_node8"><a xlink:href="group__mrpt__topography__grp.html" xlink:title="mrpt&#45;topography">
<polygon fill="#d0d0d0" stroke="black" points="518,-252 406,-252 406,-216 518,-216 518,-252"/>
<text text-anchor="middle" x="462" y="-230.3" font-family="Times New Roman,serif" font-size="14.00">mrpt&#45;topography</text>
</a>
</g>
</g>
<!-- topography&#45;&gt;obs -->
<g id="edge12" class="edge"><title>topography&#45;&gt;obs</title>
<path fill="none" stroke="black" d="M518.484,-219.333C569.693,-206.798 641.264,-188.875 669,-180 669.097,-179.969 669.195,-179.938 669.293,-179.906"/>
<polygon fill="black" stroke="black" points="670.213,-183.29 678.55,-176.753 667.956,-176.664 670.213,-183.29"/>
</g>
<!-- scanmatching -->
<g id="node11" class="node"><title>scanmatching</title>
<g id="a_node11"><a xlink:href="group__mrpt__scanmatching__grp.html" xlink:title="mrpt&#45;scanmatching">
<polygon fill="#d0d0d0" stroke="black" points="422.25,-180 299.75,-180 299.75,-144 422.25,-144 422.25,-180"/>
<text text-anchor="middle" x="361" y="-158.3" font-family="Times New Roman,serif" font-size="14.00">mrpt&#45;scanmatching</text>
</a>
</g>
</g>
<!-- topography&#45;&gt;scanmatching -->
<g id="edge13" class="edge"><title>topography&#45;&gt;scanmatching</title>
<path fill="none" stroke="black" d="M437.293,-215.876C424.331,-206.893 408.272,-195.763 394.235,-186.034"/>
<polygon fill="black" stroke="black" points="396.015,-183.009 385.802,-180.19 392.028,-188.763 396.015,-183.009"/>
</g>
<!-- maps&#45;&gt;obs -->
<g id="edge15" class="edge"><title>maps&#45;&gt;obs</title>
<path fill="none" stroke="black" d="M614.046,-215.876C631.492,-206.554 653.265,-194.919 671.943,-184.939"/>
<polygon fill="black" stroke="black" points="673.66,-187.99 680.831,-180.19 670.361,-181.816 673.66,-187.99"/>
</g>
<!-- vision -->
<g id="node10" class="node"><title>vision</title>
<g id="a_node10"><a xlink:href="group__mrpt__vision__grp.html" xlink:title="mrpt&#45;vision">
<polygon fill="#d0d0d0" stroke="black" points="723,-252 643,-252 643,-216 723,-216 723,-252"/>
<text text-anchor="middle" x="683" y="-230.3" font-family="Times New Roman,serif" font-size="14.00">mrpt&#45;vision</text>
</a>
</g>
</g>
<!-- vision&#45;&gt;obs -->
<g id="edge14" class="edge"><title>vision&#45;&gt;obs</title>
<path fill="none" stroke="black" d="M690.416,-215.697C693.794,-207.813 697.87,-198.304 701.623,-189.546"/>
<polygon fill="black" stroke="black" points="704.947,-190.675 705.67,-180.104 698.513,-187.917 704.947,-190.675"/>
</g>
<!-- scanmatching&#45;&gt;base -->
<g id="edge5" class="edge"><title>scanmatching&#45;&gt;base</title>
<path fill="none" stroke="black" d="M356.074,-143.859C350.844,-125.878 342.213,-96.835 334,-72 331.163,-63.4228 327.899,-54.1309 324.884,-45.7582"/>
<polygon fill="black" stroke="black" points="328.084,-44.3137 321.378,-36.1111 321.505,-46.7051 328.084,-44.3137"/>
</g>
<!-- slam -->
<g id="node12" class="node"><title>slam</title>
<g id="a_node12"><a xlink:href="group__mrpt__slam__grp.html" xlink:title="mrpt&#45;slam">
<polygon fill="#d0d0d0" stroke="black" points="451.25,-324 378.75,-324 378.75,-288 451.25,-288 451.25,-324"/>
<text text-anchor="middle" x="415" y="-302.3" font-family="Times New Roman,serif" font-size="14.00">mrpt&#45;slam</text>
</a>
</g>
</g>
<!-- slam&#45;&gt;graphs -->
<g id="edge20" class="edge"><title>slam&#45;&gt;graphs</title>
<path fill="none" stroke="black" d="M378.671,-291.316C375.411,-290.166 372.152,-289.045 369,-288 330.866,-275.356 287.7,-262.594 253.2,-252.762"/>
<polygon fill="black" stroke="black" points="253.826,-249.302 243.25,-249.939 251.915,-256.036 253.826,-249.302"/>
</g>
<!-- slam&#45;&gt;bayes -->
<g id="edge19" class="edge"><title>slam&#45;&gt;bayes</title>
<path fill="none" stroke="black" d="M390.34,-287.812C361.361,-266.189 314.168,-226.238 290,-180 279.969,-160.81 276.103,-136.462 274.67,-118.086"/>
<polygon fill="black" stroke="black" points="278.16,-117.818 274.079,-108.04 271.172,-118.228 278.16,-117.818"/>
</g>
<!-- slam&#45;&gt;maps -->
<g id="edge16" class="edge"><title>slam&#45;&gt;maps</title>
<path fill="none" stroke="black" d="M451.649,-289.638C475.934,-279.459 508.038,-266.002 534.308,-254.991"/>
<polygon fill="black" stroke="black" points="535.827,-258.149 543.697,-251.055 533.121,-251.693 535.827,-258.149"/>
</g>
<!-- slam&#45;&gt;vision -->
<g id="edge17" class="edge"><title>slam&#45;&gt;vision</title>
<path fill="none" stroke="black" d="M451.531,-296.683C494.278,-286.782 567.094,-269.392 629,-252 630.419,-251.601 631.858,-251.191 633.308,-250.772"/>
<polygon fill="black" stroke="black" points="634.386,-254.103 642.978,-247.904 632.396,-247.391 634.386,-254.103"/>
</g>
<!-- slam&#45;&gt;scanmatching -->
<g id="edge18" class="edge"><title>slam&#45;&gt;scanmatching</title>
<path fill="none" stroke="black" d="M408.486,-287.871C399.202,-263.457 382.077,-218.426 371.129,-189.635"/>
<polygon fill="black" stroke="black" points="374.363,-188.292 367.537,-180.189 367.82,-190.78 374.363,-188.292"/>
</g>
<!-- graphslam -->
<g id="node13" class="node"><title>graphslam</title>
<g id="a_node13"><a xlink:href="group__mrpt__graphslam__grp.html" xlink:title="mrpt&#45;graphslam (.h)">
<polygon fill="#d0d0d0" stroke="black" points="128,-324 0,-324 0,-288 128,-288 128,-324"/>
<text text-anchor="middle" x="64" y="-302.3" font-family="Times New Roman,serif" font-size="14.00">mrpt&#45;graphslam (.h)</text>
</a>
</g>
</g>
<!-- graphslam&#45;&gt;graphs -->
<g id="edge21" class="edge"><title>graphslam&#45;&gt;graphs</title>
<path fill="none" stroke="black" d="M94.5784,-287.876C111.074,-278.639 131.624,-267.131 149.336,-257.212"/>
<polygon fill="black" stroke="black" points="151.289,-260.13 158.304,-252.19 147.869,-254.022 151.289,-260.13"/>
</g>
<!-- hmtslam -->
<g id="node14" class="node"><title>hmtslam</title>
<g id="a_node14"><a xlink:href="group__mrpt__hmtslam__grp.html" xlink:title="mrpt&#45;hmtslam">
<polygon fill="#d0d0d0" stroke="black" points="286,-396 192,-396 192,-360 286,-360 286,-396"/>
<text text-anchor="middle" x="239" y="-374.3" font-family="Times New Roman,serif" font-size="14.00">mrpt&#45;hmtslam</text>
</a>
</g>
</g>
<!-- hmtslam&#45;&gt;slam -->
<g id="edge25" class="edge"><title>hmtslam&#45;&gt;slam</title>
<path fill="none" stroke="black" d="M282.054,-359.876C308.43,-349.386 342.168,-335.967 369.057,-325.273"/>
<polygon fill="black" stroke="black" points="370.628,-328.415 378.627,-321.467 368.041,-321.91 370.628,-328.415"/>
</g>
<!-- hmtslam&#45;&gt;graphslam -->
<g id="edge26" class="edge"><title>hmtslam&#45;&gt;graphslam</title>
<path fill="none" stroke="black" d="M196.19,-359.876C172.054,-350.222 141.716,-338.087 116.194,-327.878"/>
<polygon fill="black" stroke="black" points="117.255,-324.533 106.671,-324.068 114.656,-331.032 117.255,-324.533"/>
</g>
<!-- reactivenav -->
<g id="node15" class="node"><title>reactivenav</title>
<g id="a_node15"><a xlink:href="group__mrpt__reactivenav__grp.html" xlink:title="mrpt&#45;reactivenav">
<polygon fill="#d0d0d0" stroke="black" points="360,-324 250,-324 250,-288 360,-288 360,-324"/>
<text text-anchor="middle" x="305" y="-302.3" font-family="Times New Roman,serif" font-size="14.00">mrpt&#45;reactivenav</text>
</a>
</g>
</g>
<!-- reactivenav&#45;&gt;graphs -->
<g id="edge28" class="edge"><title>reactivenav&#45;&gt;graphs</title>
<path fill="none" stroke="black" d="M276.623,-287.876C261.456,-278.724 242.595,-267.342 226.261,-257.485"/>
<polygon fill="black" stroke="black" points="227.856,-254.36 217.486,-252.19 224.239,-260.353 227.856,-254.36"/>
</g>
<!-- reactivenav&#45;&gt;maps -->
<g id="edge27" class="edge"><title>reactivenav&#45;&gt;maps</title>
<path fill="none" stroke="black" d="M360.126,-290.224C363.125,-289.462 366.098,-288.716 369,-288 438.926,-270.752 457.434,-270.648 527,-252 529.281,-251.389 531.609,-250.745 533.956,-250.081"/>
<polygon fill="black" stroke="black" points="535.019,-253.417 543.643,-247.262 533.063,-246.696 535.019,-253.417"/>
</g>
<!-- detectors -->
<g id="node16" class="node"><title>detectors</title>
<g id="a_node16"><a xlink:href="group__mrpt__detectors__grp.html" xlink:title="mrpt&#45;detectors">
<polygon fill="#d0d0d0" stroke="black" points="750.25,-324 651.75,-324 651.75,-288 750.25,-288 750.25,-324"/>
<text text-anchor="middle" x="701" y="-302.3" font-family="Times New Roman,serif" font-size="14.00">mrpt&#45;detectors</text>
</a>
</g>
</g>
<!-- detectors&#45;&gt;gui -->
<g id="edge24" class="edge"><title>detectors&#45;&gt;gui</title>
<path fill="none" stroke="black" d="M718.798,-287.697C727.604,-279.135 738.382,-268.656 748.001,-259.304"/>
<polygon fill="black" stroke="black" points="750.677,-261.585 755.407,-252.104 745.797,-256.566 750.677,-261.585"/>
</g>
<!-- detectors&#45;&gt;maps -->
<g id="edge23" class="edge"><title>detectors&#45;&gt;maps</title>
<path fill="none" stroke="black" d="M671.889,-287.876C656.33,-278.724 636.981,-267.342 620.224,-257.485"/>
<polygon fill="black" stroke="black" points="621.617,-254.243 611.223,-252.19 618.067,-260.277 621.617,-254.243"/>
</g>
<!-- detectors&#45;&gt;vision -->
<g id="edge22" class="edge"><title>detectors&#45;&gt;vision</title>
<path fill="none" stroke="black" d="M696.551,-287.697C694.545,-279.898 692.131,-270.509 689.899,-261.829"/>
<polygon fill="black" stroke="black" points="693.278,-260.918 687.398,-252.104 686.499,-262.661 693.278,-260.918"/>
</g>
<!-- kinematics -->
<g id="node17" class="node"><title>kinematics</title>
<g id="a_node17"><a xlink:href="group__mrpt__kinematics__grp.html" xlink:title="mrpt&#45;kinematics">
<polygon fill="#d0d0d0" stroke="black" points="547,-180 441,-180 441,-144 547,-144 547,-180"/>
<text text-anchor="middle" x="494" y="-158.3" font-family="Times New Roman,serif" font-size="14.00">mrpt&#45;kinematics</text>
</a>
</g>
</g>
<!-- kinematics&#45;&gt;opengl -->
<g id="edge3" class="edge"><title>kinematics&#45;&gt;opengl</title>
<path fill="none" stroke="black" d="M523.111,-143.876C538.67,-134.724 558.019,-123.342 574.776,-113.485"/>
<polygon fill="black" stroke="black" points="576.933,-116.277 583.777,-108.19 573.383,-110.243 576.933,-116.277"/>
</g>
<!-- srba -->
<g id="node18" class="node"><title>srba</title>
<g id="a_node18"><a xlink:href="group__mrpt__srba__grp.html" xlink:title="mrpt&#45;srba (.h)">
<polygon fill="#d0d0d0" stroke="black" points="660.25,-180 565.75,-180 565.75,-144 660.25,-144 660.25,-180"/>
<text text-anchor="middle" x="613" y="-158.3" font-family="Times New Roman,serif" font-size="14.00">mrpt&#45;srba (.h)</text>
</a>
</g>
</g>
<!-- srba&#45;&gt;opengl -->
<g id="edge1" class="edge"><title>srba&#45;&gt;opengl</title>
<path fill="none" stroke="black" d="M613,-143.697C613,-135.983 613,-126.712 613,-118.112"/>
<polygon fill="black" stroke="black" points="616.5,-118.104 613,-108.104 609.5,-118.104 616.5,-118.104"/>
</g>
<!-- pbmap -->
<g id="node19" class="node"><title>pbmap</title>
<g id="a_node19"><a xlink:href="group__mrpt__pbmap__grp.html" xlink:title="mrpt&#45;pbmap">
<polygon fill="#d0d0d0" stroke="black" points="232,-324 146,-324 146,-288 232,-288 232,-324"/>
<text text-anchor="middle" x="189" y="-302.3" font-family="Times New Roman,serif" font-size="14.00">mrpt&#45;pbmap</text>
</a>
</g>
</g>
<!-- pbmap&#45;&gt;graphs -->
<g id="edge2" class="edge"><title>pbmap&#45;&gt;graphs</title>
<path fill="none" stroke="black" d="M189,-287.697C189,-279.983 189,-270.712 189,-262.112"/>
<polygon fill="black" stroke="black" points="192.5,-262.104 189,-252.104 185.5,-262.104 192.5,-262.104"/>
</g>
</g>
</svg>
