<?xml version="1.0" encoding="UTF-8" standalone="no"?>
<!DOCTYPE svg PUBLIC "-//W3C//DTD SVG 1.1//EN"
 "http://www.w3.org/Graphics/SVG/1.1/DTD/svg11.dtd">
<!-- Generated by graphviz version 2.38.0 (20140413.2041)
 -->
<!-- Title: MRPT_LIBS Pages: 1 -->
<svg width="597pt" height="836pt"
 viewBox="0.00 0.00 596.50 836.00" xmlns="http://www.w3.org/2000/svg" xmlns:xlink="http://www.w3.org/1999/xlink">
<g id="graph0" class="graph" transform="scale(1 1) rotate(0) translate(4 832)">
<title>MRPT_LIBS</title>
<polygon fill="white" stroke="none" points="-4,4 -4,-832 592.5,-832 592.5,4 -4,4"/>
<!-- bayes -->
<g id="node1" class="node"><title>bayes</title>
<g id="a_node1"><a xlink:href="group__mrpt__bayes__grp.html" xlink:title="mrpt&#45;bayes">
<polygon fill="#d0d0d0" stroke="black" points="238.5,-324 160.5,-324 160.5,-288 238.5,-288 238.5,-324"/>
<text text-anchor="middle" x="199.5" y="-302.3" font-family="Times,serif" font-size="14.00">mrpt&#45;bayes</text>
</a>
</g>
</g>
<!-- math -->
<g id="node2" class="node"><title>math</title>
<g id="a_node2"><a xlink:href="group__mrpt__math__grp.html" xlink:title="mrpt&#45;math">
<polygon fill="#d0d0d0" stroke="black" points="232,-252 157,-252 157,-216 232,-216 232,-252"/>
<text text-anchor="middle" x="194.5" y="-230.3" font-family="Times,serif" font-size="14.00">mrpt&#45;math</text>
</a>
</g>
</g>
<!-- bayes&#45;&gt;math -->
<g id="edge1" class="edge"><title>bayes&#45;&gt;math</title>
<path fill="none" stroke="black" d="M198.264,-287.697C197.713,-279.983 197.051,-270.712 196.437,-262.112"/>
<polygon fill="black" stroke="black" points="199.925,-261.83 195.722,-252.104 192.943,-262.328 199.925,-261.83"/>
</g>
<!-- config -->
<g id="node3" class="node"><title>config</title>
<g id="a_node3"><a xlink:href="group__mrpt__config__grp.html" xlink:title="mrpt&#45;config">
<polygon fill="#d0d0d0" stroke="black" points="332.5,-252 250.5,-252 250.5,-216 332.5,-216 332.5,-252"/>
<text text-anchor="middle" x="291.5" y="-230.3" font-family="Times,serif" font-size="14.00">mrpt&#45;config</text>
</a>
</g>
</g>
<!-- bayes&#45;&gt;config -->
<g id="edge2" class="edge"><title>bayes&#45;&gt;config</title>
<path fill="none" stroke="black" d="M222.242,-287.697C233.94,-278.796 248.361,-267.823 261.01,-258.199"/>
<polygon fill="black" stroke="black" points="263.181,-260.945 269.02,-252.104 258.942,-255.374 263.181,-260.945"/>
</g>
<!-- system -->
<g id="node7" class="node"><title>system</title>
<g id="a_node7"><a xlink:href="group__mrpt__system__grp.html" xlink:title="mrpt&#45;system">
<polygon fill="#d0d0d0" stroke="black" points="503.5,-180 417.5,-180 417.5,-144 503.5,-144 503.5,-180"/>
<text text-anchor="middle" x="460.5" y="-158.3" font-family="Times,serif" font-size="14.00">mrpt&#45;system</text>
</a>
</g>
</g>
<!-- math&#45;&gt;system -->
<g id="edge30" class="edge"><title>math&#45;&gt;system</title>
<path fill="none" stroke="black" d="M232.065,-218.913C235.24,-217.875 238.415,-216.888 241.5,-216 314.046,-195.115 334.583,-199.552 407.5,-180 407.599,-179.973 407.698,-179.947 407.798,-179.92"/>
<polygon fill="black" stroke="black" points="408.543,-183.346 417.216,-177.26 406.641,-176.61 408.543,-183.346"/>
</g>
<!-- serialization -->
<g id="node11" class="node"><title>serialization</title>
<g id="a_node11"><a xlink:href="group__mrpt__serialization__grp.html" xlink:title="mrpt&#45;serialization">
<polygon fill="#d0d0d0" stroke="black" points="399,-180 286,-180 286,-144 399,-144 399,-180"/>
<text text-anchor="middle" x="342.5" y="-158.3" font-family="Times,serif" font-size="14.00">mrpt&#45;serialization</text>
</a>
</g>
</g>
<!-- math&#45;&gt;serialization -->
<g id="edge28" class="edge"><title>math&#45;&gt;serialization</title>
<path fill="none" stroke="black" d="M230.705,-215.876C250.758,-206.392 275.872,-194.513 297.214,-184.419"/>
<polygon fill="black" stroke="black" points="298.869,-187.508 306.413,-180.068 295.876,-181.18 298.869,-187.508"/>
</g>
<!-- random -->
<g id="node25" class="node"><title>random</title>
<g id="a_node25"><a xlink:href="group__mrpt__random__grp.html" xlink:title="mrpt&#45;random">
<polygon fill="#d0d0d0" stroke="black" points="126,-36 37,-36 37,-0 126,-0 126,-36"/>
<text text-anchor="middle" x="81.5" y="-14.3" font-family="Times,serif" font-size="14.00">mrpt&#45;random</text>
</a>
</g>
</g>
<!-- math&#45;&gt;random -->
<g id="edge29" class="edge"><title>math&#45;&gt;random</title>
<path fill="none" stroke="black" d="M185.444,-215.849C165.732,-178.519 118.83,-89.6948 95.3658,-45.2591"/>
<polygon fill="black" stroke="black" points="98.3638,-43.4411 90.5994,-36.2325 92.1738,-46.7097 98.3638,-43.4411"/>
</g>
<!-- nanoflann -->
<g id="node26" class="node"><title>nanoflann</title>
<g id="a_node26"><a xlink:href="group__nanoflann__grp.html" xlink:title="mrpt&#45;nanoflann">
<polygon fill="#d0d0d0" stroke="black" points="245,-36 144,-36 144,-0 245,-0 245,-36"/>
<text text-anchor="middle" x="194.5" y="-14.3" font-family="Times,serif" font-size="14.00">mrpt&#45;nanoflann</text>
</a>
</g>
</g>
<!-- math&#45;&gt;nanoflann -->
<g id="edge31" class="edge"><title>math&#45;&gt;nanoflann</title>
<path fill="none" stroke="black" d="M194.5,-215.849C194.5,-178.832 194.5,-91.1809 194.5,-46.3863"/>
<polygon fill="black" stroke="black" points="198,-46.2324 194.5,-36.2325 191,-46.2325 198,-46.2324"/>
</g>
<!-- expr -->
<g id="node6" class="node"><title>expr</title>
<g id="a_node6"><a xlink:href="group__mrpt__expr__grp.html" xlink:title="mrpt&#45;expr">
<polygon fill="#d0d0d0" stroke="black" points="294,-108 223,-108 223,-72 294,-72 294,-108"/>
<text text-anchor="middle" x="258.5" y="-86.3" font-family="Times,serif" font-size="14.00">mrpt&#45;expr</text>
</a>
</g>
</g>
<!-- config&#45;&gt;expr -->
<g id="edge4" class="edge"><title>config&#45;&gt;expr</title>
<path fill="none" stroke="black" d="M286.303,-215.902C283.249,-205.561 279.427,-192.082 276.5,-180 271.521,-159.446 266.817,-135.993 263.467,-118.324"/>
<polygon fill="black" stroke="black" points="266.843,-117.335 261.566,-108.147 259.962,-118.62 266.843,-117.335"/>
</g>
<!-- config&#45;&gt;system -->
<g id="edge5" class="edge"><title>config&#45;&gt;system</title>
<path fill="none" stroke="black" d="M332.842,-215.876C356.048,-206.264 385.19,-194.193 409.77,-184.013"/>
<polygon fill="black" stroke="black" points="411.393,-187.129 419.292,-180.068 408.714,-180.662 411.393,-187.129"/>
</g>
<!-- comms -->
<g id="node4" class="node"><title>comms</title>
<g id="a_node4"><a xlink:href="group__mrpt__comms__grp.html" xlink:title="mrpt&#45;comms">
<polygon fill="#d0d0d0" stroke="black" points="521.5,-396 433.5,-396 433.5,-360 521.5,-360 521.5,-396"/>
<text text-anchor="middle" x="477.5" y="-374.3" font-family="Times,serif" font-size="14.00">mrpt&#45;comms</text>
</a>
</g>
</g>
<!-- io -->
<g id="node5" class="node"><title>io</title>
<g id="a_node5"><a xlink:href="group__mrpt__io__grp.html" xlink:title="mrpt&#45;io">
<polygon fill="#d0d0d0" stroke="black" points="489.5,-252 431.5,-252 431.5,-216 489.5,-216 489.5,-252"/>
<text text-anchor="middle" x="460.5" y="-230.3" font-family="Times,serif" font-size="14.00">mrpt&#45;io</text>
</a>
</g>
</g>
<!-- comms&#45;&gt;io -->
<g id="edge3" class="edge"><title>comms&#45;&gt;io</title>
<path fill="none" stroke="black" d="M475.449,-359.871C472.552,-335.67 467.229,-291.211 463.779,-262.393"/>
<polygon fill="black" stroke="black" points="467.222,-261.702 462.558,-252.189 460.271,-262.534 467.222,-261.702"/>
</g>
<!-- io&#45;&gt;system -->
<g id="edge24" class="edge"><title>io&#45;&gt;system</title>
<path fill="none" stroke="black" d="M460.5,-215.697C460.5,-207.983 460.5,-198.712 460.5,-190.112"/>
<polygon fill="black" stroke="black" points="464,-190.104 460.5,-180.104 457,-190.104 464,-190.104"/>
</g>
<!-- core -->
<g id="node9" class="node"><title>core</title>
<g id="a_node9"><a xlink:href="group__mrpt__core__grp.html" xlink:title="mrpt&#45;core">
<polygon fill="#d0d0d0" stroke="black" points="399,-36 328,-36 328,-0 399,-0 399,-36"/>
<text text-anchor="middle" x="363.5" y="-14.3" font-family="Times,serif" font-size="14.00">mrpt&#45;core</text>
</a>
</g>
</g>
<!-- expr&#45;&gt;core -->
<g id="edge11" class="edge"><title>expr&#45;&gt;core</title>
<path fill="none" stroke="black" d="M284.186,-71.8761C297.788,-62.8083 314.672,-51.5523 329.361,-41.7592"/>
<polygon fill="black" stroke="black" points="331.336,-44.649 337.715,-36.1898 327.453,-38.8246 331.336,-44.649"/>
</g>
<!-- containers -->
<g id="node8" class="node"><title>containers</title>
<g id="a_node8"><a xlink:href="group__mrpt__containers__grp.html" xlink:title="mrpt&#45;containers">
<polygon fill="#d0d0d0" stroke="black" points="415,-108 312,-108 312,-72 415,-72 415,-108"/>
<text text-anchor="middle" x="363.5" y="-86.3" font-family="Times,serif" font-size="14.00">mrpt&#45;containers</text>
</a>
</g>
</g>
<!-- system&#45;&gt;containers -->
<g id="edge47" class="edge"><title>system&#45;&gt;containers</title>
<path fill="none" stroke="black" d="M436.522,-143.697C424.189,-134.796 408.984,-123.823 395.647,-114.199"/>
<polygon fill="black" stroke="black" points="397.359,-111.118 387.202,-108.104 393.263,-116.794 397.359,-111.118"/>
</g>
<!-- typemeta -->
<g id="node32" class="node"><title>typemeta</title>
<g id="a_node32"><a xlink:href="group__mrpt__typemeta__grp.html" xlink:title="mrpt&#45;typemeta (.h)">
<polygon fill="#d0d0d0" stroke="black" points="561,-36 440,-36 440,-0 561,-0 561,-36"/>
<text text-anchor="middle" x="500.5" y="-14.3" font-family="Times,serif" font-size="14.00">mrpt&#45;typemeta (.h)</text>
</a>
</g>
</g>
<!-- system&#45;&gt;typemeta -->
<g id="edge46" class="edge"><title>system&#45;&gt;typemeta</title>
<path fill="none" stroke="black" d="M480.879,-143.531C490.307,-134.092 500.506,-121.597 505.5,-108 512.77,-88.2058 510.884,-64.2693 507.53,-46.2077"/>
<polygon fill="black" stroke="black" points="510.934,-45.3888 505.443,-36.3279 504.085,-46.8354 510.934,-45.3888"/>
</g>
<!-- containers&#45;&gt;core -->
<g id="edge6" class="edge"><title>containers&#45;&gt;core</title>
<path fill="none" stroke="black" d="M363.5,-71.6966C363.5,-63.9827 363.5,-54.7125 363.5,-46.1124"/>
<polygon fill="black" stroke="black" points="367,-46.1043 363.5,-36.1043 360,-46.1044 367,-46.1043"/>
</g>
<!-- db -->
<g id="node10" class="node"><title>db</title>
<g id="a_node10"><a xlink:href="group__mrpt__db__grp.html" xlink:title="mrpt&#45;db">
<polygon fill="#d0d0d0" stroke="black" points="412,-252 351,-252 351,-216 412,-216 412,-252"/>
<text text-anchor="middle" x="381.5" y="-230.3" font-family="Times,serif" font-size="14.00">mrpt&#45;db</text>
</a>
</g>
</g>
<!-- db&#45;&gt;system -->
<g id="edge8" class="edge"><title>db&#45;&gt;system</title>
<path fill="none" stroke="black" d="M401.028,-215.697C410.882,-206.965 422.986,-196.24 433.696,-186.75"/>
<polygon fill="black" stroke="black" points="436.033,-189.356 441.197,-180.104 431.391,-184.117 436.033,-189.356"/>
</g>
<!-- db&#45;&gt;serialization -->
<g id="edge7" class="edge"><title>db&#45;&gt;serialization</title>
<path fill="none" stroke="black" d="M371.86,-215.697C367.373,-207.644 361.941,-197.894 356.976,-188.982"/>
<polygon fill="black" stroke="black" points="359.954,-187.137 352.03,-180.104 353.839,-190.544 359.954,-187.137"/>
</g>
<!-- rtti -->
<g id="node31" class="node"><title>rtti</title>
<g id="a_node31"><a xlink:href="group__mrpt__rtti__grp.html" xlink:title="mrpt&#45;rtti">
<polygon fill="#d0d0d0" stroke="black" points="496,-108 433,-108 433,-72 496,-72 496,-108"/>
<text text-anchor="middle" x="464.5" y="-86.3" font-family="Times,serif" font-size="14.00">mrpt&#45;rtti</text>
</a>
</g>
</g>
<!-- serialization&#45;&gt;rtti -->
<g id="edge43" class="edge"><title>serialization&#45;&gt;rtti</title>
<path fill="none" stroke="black" d="M372.345,-143.876C388.444,-134.639 408.501,-123.131 425.788,-113.212"/>
<polygon fill="black" stroke="black" points="427.609,-116.202 434.541,-108.19 424.125,-110.131 427.609,-116.202"/>
</g>
<!-- detectors -->
<g id="node12" class="node"><title>detectors</title>
<g id="a_node12"><a xlink:href="group__mrpt__detectors__grp.html" xlink:title="mrpt&#45;detectors">
<polygon fill="#d0d0d0" stroke="black" points="588.5,-756 492.5,-756 492.5,-720 588.5,-720 588.5,-756"/>
<text text-anchor="middle" x="540.5" y="-734.3" font-family="Times,serif" font-size="14.00">mrpt&#45;detectors</text>
</a>
</g>
</g>
<!-- gui -->
<g id="node13" class="node"><title>gui</title>
<g id="a_node13"><a xlink:href="group__mrpt__gui__grp.html" xlink:title="mrpt&#45;gui">
<polygon fill="#d0d0d0" stroke="black" points="581,-612 516,-612 516,-576 581,-576 581,-612"/>
<text text-anchor="middle" x="548.5" y="-590.3" font-family="Times,serif" font-size="14.00">mrpt&#45;gui</text>
</a>
</g>
</g>
<!-- detectors&#45;&gt;gui -->
<g id="edge9" class="edge"><title>detectors&#45;&gt;gui</title>
<path fill="none" stroke="black" d="M541.475,-719.814C542.062,-709.442 542.825,-695.962 543.5,-684 544.669,-663.271 545.986,-639.826 546.975,-622.205"/>
<polygon fill="black" stroke="black" points="550.478,-622.242 547.544,-612.062 543.489,-621.85 550.478,-622.242"/>
</g>
<!-- slam -->
<g id="node14" class="node"><title>slam</title>
<g id="a_node14"><a xlink:href="group__mrpt__slam__grp.html" xlink:title="mrpt&#45;slam">
<polygon fill="#d0d0d0" stroke="black" points="381.5,-684 307.5,-684 307.5,-648 381.5,-648 381.5,-684"/>
<text text-anchor="middle" x="344.5" y="-662.3" font-family="Times,serif" font-size="14.00">mrpt&#45;slam</text>
</a>
</g>
</g>
<!-- detectors&#45;&gt;slam -->
<g id="edge10" class="edge"><title>detectors&#45;&gt;slam</title>
<path fill="none" stroke="black" d="M492.474,-720.228C465.195,-710.656 430.19,-698.298 391.115,-684.201"/>
<polygon fill="black" stroke="black" points="392.235,-680.884 381.64,-680.778 389.856,-687.468 392.235,-680.884"/>
</g>
<!-- opengl -->
<g id="node16" class="node"><title>opengl</title>
<g id="a_node16"><a xlink:href="group__mrpt__opengl__grp.html" xlink:title="mrpt&#45;opengl">
<polygon fill="#d0d0d0" stroke="black" points="252.5,-468 168.5,-468 168.5,-432 252.5,-432 252.5,-468"/>
<text text-anchor="middle" x="210.5" y="-446.3" font-family="Times,serif" font-size="14.00">mrpt&#45;opengl</text>
</a>
</g>
</g>
<!-- gui&#45;&gt;opengl -->
<g id="edge15" class="edge"><title>gui&#45;&gt;opengl</title>
<path fill="none" stroke="black" d="M515.813,-577.827C476.397,-559.675 408.015,-528.651 348.5,-504 320.221,-492.287 288.34,-479.984 262.35,-470.184"/>
<polygon fill="black" stroke="black" points="263.29,-466.798 252.698,-466.557 260.827,-473.351 263.29,-466.798"/>
</g>
<!-- maps -->
<g id="node20" class="node"><title>maps</title>
<g id="a_node20"><a xlink:href="group__mrpt__maps__grp.html" xlink:title="mrpt&#45;maps">
<polygon fill="#d0d0d0" stroke="black" points="234,-612 157,-612 157,-576 234,-576 234,-612"/>
<text text-anchor="middle" x="195.5" y="-590.3" font-family="Times,serif" font-size="14.00">mrpt&#45;maps</text>
</a>
</g>
</g>
<!-- slam&#45;&gt;maps -->
<g id="edge44" class="edge"><title>slam&#45;&gt;maps</title>
<path fill="none" stroke="black" d="M308.05,-647.876C287.862,-638.392 262.579,-626.513 241.092,-616.419"/>
<polygon fill="black" stroke="black" points="242.37,-613.153 231.831,-612.068 239.394,-619.488 242.37,-613.153"/>
</g>
<!-- vision -->
<g id="node21" class="node"><title>vision</title>
<g id="a_node21"><a xlink:href="group__mrpt__vision__grp.html" xlink:title="mrpt&#45;vision">
<polygon fill="#d0d0d0" stroke="black" points="459.5,-612 379.5,-612 379.5,-576 459.5,-576 459.5,-612"/>
<text text-anchor="middle" x="419.5" y="-590.3" font-family="Times,serif" font-size="14.00">mrpt&#45;vision</text>
</a>
</g>
</g>
<!-- slam&#45;&gt;vision -->
<g id="edge45" class="edge"><title>slam&#45;&gt;vision</title>
<path fill="none" stroke="black" d="M363.039,-647.697C372.303,-639.05 383.662,-628.449 393.757,-619.027"/>
<polygon fill="black" stroke="black" points="396.251,-621.486 401.174,-612.104 391.475,-616.369 396.251,-621.486"/>
</g>
<!-- graphs -->
<g id="node15" class="node"><title>graphs</title>
<g id="a_node15"><a xlink:href="group__mrpt__graphs__grp.html" xlink:title="mrpt&#45;graphs">
<polygon fill="#d0d0d0" stroke="black" points="237,-540 154,-540 154,-504 237,-504 237,-540"/>
<text text-anchor="middle" x="195.5" y="-518.3" font-family="Times,serif" font-size="14.00">mrpt&#45;graphs</text>
</a>
</g>
</g>
<!-- graphs&#45;&gt;opengl -->
<g id="edge12" class="edge"><title>graphs&#45;&gt;opengl</title>
<path fill="none" stroke="black" d="M199.208,-503.697C200.861,-495.983 202.847,-486.712 204.69,-478.112"/>
<polygon fill="black" stroke="black" points="208.162,-478.616 206.835,-468.104 201.317,-477.149 208.162,-478.616"/>
</g>
<!-- img -->
<g id="node22" class="node"><title>img</title>
<g id="a_node22"><a xlink:href="group__mrpt__img__grp.html" xlink:title="mrpt&#45;img">
<polygon fill="#d0d0d0" stroke="black" points="326,-324 257,-324 257,-288 326,-288 326,-324"/>
<text text-anchor="middle" x="291.5" y="-302.3" font-family="Times,serif" font-size="14.00">mrpt&#45;img</text>
</a>
</g>
</g>
<!-- opengl&#45;&gt;img -->
<g id="edge38" class="edge"><title>opengl&#45;&gt;img</title>
<path fill="none" stroke="black" d="M228.794,-431.658C238.317,-421.881 249.592,-409.039 257.5,-396 269.314,-376.521 278.258,-352.239 284,-333.962"/>
<polygon fill="black" stroke="black" points="287.397,-334.82 286.933,-324.235 280.695,-332.799 287.397,-334.82"/>
</g>
<!-- poses -->
<g id="node29" class="node"><title>poses</title>
<g id="a_node29"><a xlink:href="group__mrpt__poses__grp.html" xlink:title="mrpt&#45;poses">
<polygon fill="#d0d0d0" stroke="black" points="249,-396 172,-396 172,-360 249,-360 249,-396"/>
<text text-anchor="middle" x="210.5" y="-374.3" font-family="Times,serif" font-size="14.00">mrpt&#45;poses</text>
</a>
</g>
</g>
<!-- opengl&#45;&gt;poses -->
<g id="edge37" class="edge"><title>opengl&#45;&gt;poses</title>
<path fill="none" stroke="black" d="M210.5,-431.697C210.5,-423.983 210.5,-414.712 210.5,-406.112"/>
<polygon fill="black" stroke="black" points="214,-406.104 210.5,-396.104 207,-406.104 214,-406.104"/>
</g>
<!-- graphslam -->
<g id="node17" class="node"><title>graphslam</title>
<g id="a_node17"><a xlink:href="group__mrpt__graphslam__grp.html" xlink:title="mrpt&#45;graphslam">
<polygon fill="#d0d0d0" stroke="black" points="448.5,-756 344.5,-756 344.5,-720 448.5,-720 448.5,-756"/>
<text text-anchor="middle" x="396.5" y="-734.3" font-family="Times,serif" font-size="14.00">mrpt&#45;graphslam</text>
</a>
</g>
</g>
<!-- graphslam&#45;&gt;gui -->
<g id="edge13" class="edge"><title>graphslam&#45;&gt;gui</title>
<path fill="none" stroke="black" d="M448.564,-721.998C469.971,-713.675 493.642,-701.4 510.5,-684 527.148,-666.817 537.033,-641.21 542.528,-621.869"/>
<polygon fill="black" stroke="black" points="545.93,-622.694 545.079,-612.133 539.158,-620.92 545.93,-622.694"/>
</g>
<!-- graphslam&#45;&gt;slam -->
<g id="edge14" class="edge"><title>graphslam&#45;&gt;slam</title>
<path fill="none" stroke="black" d="M383.646,-719.697C377.475,-711.389 369.963,-701.277 363.176,-692.141"/>
<polygon fill="black" stroke="black" points="365.979,-690.045 357.206,-684.104 360.36,-694.219 365.979,-690.045"/>
</g>
<!-- hmtslam -->
<g id="node18" class="node"><title>hmtslam</title>
<g id="a_node18"><a xlink:href="group__mrpt__hmtslam__grp.html" xlink:title="mrpt&#45;hmtslam">
<polygon fill="#d0d0d0" stroke="black" points="444,-828 349,-828 349,-792 444,-792 444,-828"/>
<text text-anchor="middle" x="396.5" y="-806.3" font-family="Times,serif" font-size="14.00">mrpt&#45;hmtslam</text>
</a>
</g>
</g>
<!-- hmtslam&#45;&gt;graphslam -->
<g id="edge16" class="edge"><title>hmtslam&#45;&gt;graphslam</title>
<path fill="none" stroke="black" d="M396.5,-791.697C396.5,-783.983 396.5,-774.712 396.5,-766.112"/>
<polygon fill="black" stroke="black" points="400,-766.104 396.5,-756.104 393,-766.104 400,-766.104"/>
</g>
<!-- hwdrivers -->
<g id="node19" class="node"><title>hwdrivers</title>
<g id="a_node19"><a xlink:href="group__mrpt__hwdrivers__grp.html" xlink:title="mrpt&#45;hwdrivers">
<polygon fill="#d0d0d0" stroke="black" points="501,-684 400,-684 400,-648 501,-648 501,-684"/>
<text text-anchor="middle" x="450.5" y="-662.3" font-family="Times,serif" font-size="14.00">mrpt&#45;hwdrivers</text>
</a>
</g>
</g>
<!-- hwdrivers&#45;&gt;comms -->
<g id="edge17" class="edge"><title>hwdrivers&#45;&gt;comms</title>
<path fill="none" stroke="black" d="M457.802,-647.673C461.736,-637.481 466.236,-624.231 468.5,-612 482.083,-538.608 480.769,-450.073 478.97,-406.276"/>
<polygon fill="black" stroke="black" points="482.46,-405.973 478.512,-396.142 475.468,-406.29 482.46,-405.973"/>
</g>
<!-- hwdrivers&#45;&gt;gui -->
<g id="edge18" class="edge"><title>hwdrivers&#45;&gt;gui</title>
<path fill="none" stroke="black" d="M474.473,-647.876C487.05,-638.893 502.632,-627.763 516.252,-618.034"/>
<polygon fill="black" stroke="black" points="518.331,-620.85 524.434,-612.19 514.263,-615.154 518.331,-620.85"/>
</g>
<!-- hwdrivers&#45;&gt;maps -->
<g id="edge19" class="edge"><title>hwdrivers&#45;&gt;maps</title>
<path fill="none" stroke="black" d="M399.798,-650.49C396.655,-649.635 393.536,-648.799 390.5,-648 328.102,-631.578 309.08,-631.509 244.056,-612.318"/>
<polygon fill="black" stroke="black" points="244.701,-608.858 234.118,-609.344 242.694,-615.564 244.701,-608.858"/>
</g>
<!-- hwdrivers&#45;&gt;vision -->
<g id="edge20" class="edge"><title>hwdrivers&#45;&gt;vision</title>
<path fill="none" stroke="black" d="M442.837,-647.697C439.308,-639.728 435.044,-630.1 431.131,-621.264"/>
<polygon fill="black" stroke="black" points="434.324,-619.831 427.075,-612.104 427.924,-622.665 434.324,-619.831"/>
</g>
<!-- maps&#45;&gt;graphs -->
<g id="edge26" class="edge"><title>maps&#45;&gt;graphs</title>
<path fill="none" stroke="black" d="M195.5,-575.697C195.5,-567.983 195.5,-558.712 195.5,-550.112"/>
<polygon fill="black" stroke="black" points="199,-550.104 195.5,-540.104 192,-550.104 199,-550.104"/>
</g>
<!-- obs -->
<g id="node24" class="node"><title>obs</title>
<g id="a_node24"><a xlink:href="group__mrpt__obs__grp.html" xlink:title="mrpt&#45;obs">
<polygon fill="#d0d0d0" stroke="black" points="339.5,-540 273.5,-540 273.5,-504 339.5,-504 339.5,-540"/>
<text text-anchor="middle" x="306.5" y="-518.3" font-family="Times,serif" font-size="14.00">mrpt&#45;obs</text>
</a>
</g>
</g>
<!-- maps&#45;&gt;obs -->
<g id="edge27" class="edge"><title>maps&#45;&gt;obs</title>
<path fill="none" stroke="black" d="M222.654,-575.876C237.033,-566.808 254.881,-555.552 270.41,-545.759"/>
<polygon fill="black" stroke="black" points="272.65,-548.484 279.242,-540.19 268.916,-542.564 272.65,-548.484"/>
</g>
<!-- vision&#45;&gt;obs -->
<g id="edge50" class="edge"><title>vision&#45;&gt;obs</title>
<path fill="none" stroke="black" d="M391.857,-575.876C377.082,-566.724 358.709,-555.342 342.797,-545.485"/>
<polygon fill="black" stroke="black" points="344.593,-542.481 334.249,-540.19 340.907,-548.431 344.593,-542.481"/>
</g>
<!-- img&#45;&gt;math -->
<g id="edge22" class="edge"><title>img&#45;&gt;math</title>
<path fill="none" stroke="black" d="M267.522,-287.697C255.189,-278.796 239.984,-267.823 226.647,-258.199"/>
<polygon fill="black" stroke="black" points="228.359,-255.118 218.202,-252.104 224.263,-260.794 228.359,-255.118"/>
</g>
<!-- img&#45;&gt;config -->
<g id="edge23" class="edge"><title>img&#45;&gt;config</title>
<path fill="none" stroke="black" d="M291.5,-287.697C291.5,-279.983 291.5,-270.712 291.5,-262.112"/>
<polygon fill="black" stroke="black" points="295,-262.104 291.5,-252.104 288,-262.104 295,-262.104"/>
</g>
<!-- img&#45;&gt;io -->
<g id="edge21" class="edge"><title>img&#45;&gt;io</title>
<path fill="none" stroke="black" d="M326.041,-290.941C352.046,-280.324 388.554,-265.351 420.5,-252 420.935,-251.818 421.373,-251.635 421.813,-251.451"/>
<polygon fill="black" stroke="black" points="423.384,-254.587 431.244,-247.482 420.669,-248.135 423.384,-254.587"/>
</g>
<!-- kinematics -->
<g id="node23" class="node"><title>kinematics</title>
<g id="a_node23"><a xlink:href="group__mrpt__kinematics__grp.html" xlink:title="mrpt&#45;kinematics">
<polygon fill="#d0d0d0" stroke="black" points="107,-540 0,-540 0,-504 107,-504 107,-540"/>
<text text-anchor="middle" x="53.5" y="-518.3" font-family="Times,serif" font-size="14.00">mrpt&#45;kinematics</text>
</a>
</g>
</g>
<!-- kinematics&#45;&gt;opengl -->
<g id="edge25" class="edge"><title>kinematics&#45;&gt;opengl</title>
<path fill="none" stroke="black" d="M91.9065,-503.876C113.369,-494.307 140.298,-482.3 163.068,-472.148"/>
<polygon fill="black" stroke="black" points="164.51,-475.337 172.218,-468.068 161.66,-468.944 164.51,-475.337"/>
</g>
<!-- obs&#45;&gt;db -->
<g id="edge35" class="edge"><title>obs&#45;&gt;db</title>
<path fill="none" stroke="black" d="M325.237,-503.624C334.383,-494.029 344.65,-481.366 350.5,-468 380.884,-398.582 383.5,-307.28 382.645,-262.364"/>
<polygon fill="black" stroke="black" points="386.14,-262.142 382.376,-252.238 379.143,-262.327 386.14,-262.142"/>
</g>
<!-- obs&#45;&gt;opengl -->
<g id="edge34" class="edge"><title>obs&#45;&gt;opengl</title>
<path fill="none" stroke="black" d="M282.77,-503.697C270.563,-494.796 255.515,-483.823 242.316,-474.199"/>
<polygon fill="black" stroke="black" points="244.1,-471.168 233.957,-468.104 239.975,-476.824 244.1,-471.168"/>
</g>
<!-- tfest -->
<g id="node28" class="node"><title>tfest</title>
<g id="a_node28"><a xlink:href="group__mrpt__tfest__grp.html" xlink:title="mrpt&#45;tfest">
<polygon fill="#d0d0d0" stroke="black" points="342,-468 271,-468 271,-432 342,-432 342,-468"/>
<text text-anchor="middle" x="306.5" y="-446.3" font-family="Times,serif" font-size="14.00">mrpt&#45;tfest</text>
</a>
</g>
</g>
<!-- obs&#45;&gt;tfest -->
<g id="edge36" class="edge"><title>obs&#45;&gt;tfest</title>
<path fill="none" stroke="black" d="M306.5,-503.697C306.5,-495.983 306.5,-486.712 306.5,-478.112"/>
<polygon fill="black" stroke="black" points="310,-478.104 306.5,-468.104 303,-478.104 310,-478.104"/>
</g>
<!-- nav -->
<g id="node27" class="node"><title>nav</title>
<g id="a_node27"><a xlink:href="group__mrpt__nav__grp.html" xlink:title="mrpt&#45;nav">
<polygon fill="#d0d0d0" stroke="black" points="144,-684 77,-684 77,-648 144,-648 144,-684"/>
<text text-anchor="middle" x="110.5" y="-662.3" font-family="Times,serif" font-size="14.00">mrpt&#45;nav</text>
</a>
</g>
</g>
<!-- nav&#45;&gt;maps -->
<g id="edge33" class="edge"><title>nav&#45;&gt;maps</title>
<path fill="none" stroke="black" d="M131.511,-647.697C142.216,-638.881 155.39,-628.032 166.996,-618.474"/>
<polygon fill="black" stroke="black" points="169.236,-621.163 174.73,-612.104 164.786,-615.76 169.236,-621.163"/>
</g>
<!-- nav&#45;&gt;kinematics -->
<g id="edge32" class="edge"><title>nav&#45;&gt;kinematics</title>
<path fill="none" stroke="black" d="M78.4466,-647.88C65.3805,-639.055 51.6797,-626.974 44.5,-612 35.2517,-592.712 38.5603,-568.416 43.591,-550.084"/>
<polygon fill="black" stroke="black" points="46.9985,-550.91 46.5818,-540.323 40.3057,-548.859 46.9985,-550.91"/>
</g>
<!-- tfest&#45;&gt;poses -->
<g id="edge48" class="edge"><title>tfest&#45;&gt;poses</title>
<path fill="none" stroke="black" d="M282.77,-431.697C270.563,-422.796 255.515,-411.823 242.316,-402.199"/>
<polygon fill="black" stroke="black" points="244.1,-399.168 233.957,-396.104 239.975,-404.824 244.1,-399.168"/>
</g>
<!-- poses&#45;&gt;bayes -->
<g id="edge40" class="edge"><title>poses&#45;&gt;bayes</title>
<path fill="none" stroke="black" d="M207.781,-359.697C206.569,-351.983 205.112,-342.712 203.761,-334.112"/>
<polygon fill="black" stroke="black" points="207.198,-333.44 202.188,-324.104 200.283,-334.526 207.198,-333.44"/>
</g>
<!-- pbmap -->
<g id="node30" class="node"><title>pbmap</title>
<g id="a_node30"><a xlink:href="group__mrpt__pbmap__grp.html" xlink:title="mrpt&#45;pbmap">
<polygon fill="#d0d0d0" stroke="black" points="139,-612 54,-612 54,-576 139,-576 139,-612"/>
<text text-anchor="middle" x="96.5" y="-590.3" font-family="Times,serif" font-size="14.00">mrpt&#45;pbmap</text>
</a>
</g>
</g>
<!-- pbmap&#45;&gt;graphs -->
<g id="edge39" class="edge"><title>pbmap&#45;&gt;graphs</title>
<path fill="none" stroke="black" d="M120.718,-575.876C133.423,-566.893 149.164,-555.763 162.923,-546.034"/>
<polygon fill="black" stroke="black" points="165.044,-548.821 171.189,-540.19 161.003,-543.105 165.044,-548.821"/>
</g>
<!-- rtti&#45;&gt;core -->
<g id="edge41" class="edge"><title>rtti&#45;&gt;core</title>
<path fill="none" stroke="black" d="M439.793,-71.8761C426.831,-62.8931 410.772,-51.7625 396.735,-42.0341"/>
<polygon fill="black" stroke="black" points="398.515,-39.0095 388.302,-36.1898 394.528,-44.7628 398.515,-39.0095"/>
</g>
<!-- rtti&#45;&gt;typemeta -->
<g id="edge42" class="edge"><title>rtti&#45;&gt;typemeta</title>
<path fill="none" stroke="black" d="M473.399,-71.6966C477.497,-63.7284 482.449,-54.0995 486.993,-45.2641"/>
<polygon fill="black" stroke="black" points="490.242,-46.598 491.703,-36.1043 484.017,-43.3965 490.242,-46.598"/>
</g>
<!-- topography -->
<g id="node33" class="node"><title>topography</title>
<g id="a_node33"><a xlink:href="group__mrpt__topography__grp.html" xlink:title="mrpt&#45;topography">
<polygon fill="#d0d0d0" stroke="black" points="361,-612 252,-612 252,-576 361,-576 361,-612"/>
<text text-anchor="middle" x="306.5" y="-590.3" font-family="Times,serif" font-size="14.00">mrpt&#45;topography</text>
</a>
</g>
</g>
<!-- topography&#45;&gt;obs -->
<g id="edge49" class="edge"><title>topography&#45;&gt;obs</title>
<path fill="none" stroke="black" d="M306.5,-575.697C306.5,-567.983 306.5,-558.712 306.5,-550.112"/>
<polygon fill="black" stroke="black" points="310,-550.104 306.5,-540.104 303,-550.104 310,-550.104"/>
</g>
</g>
</svg>
