<?xml version="1.0" encoding="UTF-8" standalone="no"?>
<!DOCTYPE svg PUBLIC "-//W3C//DTD SVG 1.1//EN"
 "http://www.w3.org/Graphics/SVG/1.1/DTD/svg11.dtd">
<!-- Generated by graphviz version 2.28.0 (20110507.0327)
 -->
<!-- Title: MRPT_LIBS Pages: 1 -->
<svg width="589pt" height="476pt"
 viewBox="0.00 0.00 589.00 476.00" xmlns="http://www.w3.org/2000/svg" xmlns:xlink="http://www.w3.org/1999/xlink">
<g id="graph1" class="graph" transform="scale(1 1) rotate(0) translate(4 472)">
<title>MRPT_LIBS</title>
<polygon fill="white" stroke="white" points="-4,5 -4,-472 586,-472 586,5 -4,5"/>
<!-- base -->
<g id="node1" class="node"><title>base</title>
<a xlink:href="group__mrpt__base__grp.html" xlink:title="mrpt&#45;base">
<polygon fill="#d0d0d0" stroke="black" points="429.25,-36 366.75,-36 366.75,-0 429.25,-0 429.25,-36"/>
<text text-anchor="middle" x="398" y="-14.9" font-family="Times New Roman,serif" font-size="12.00">mrpt&#45;base</text>
</a>
</g>
<!-- graphs -->
<g id="node2" class="node"><title>graphs</title>
<a xlink:href="group__mrpt__graphs__grp.html" xlink:title="mrpt&#45;graphs (.h)">
<polygon fill="#d0d0d0" stroke="black" points="394.25,-252 303.75,-252 303.75,-216 394.25,-216 394.25,-252"/>
<text text-anchor="middle" x="349" y="-230.9" font-family="Times New Roman,serif" font-size="12.00">mrpt&#45;graphs (.h)</text>
</a>
</g>
<!-- graphs&#45;&gt;base -->
<g id="edge2" class="edge"><title>graphs&#45;&gt;base</title>
<path fill="none" stroke="black" d="M352.927,-215.849C361.421,-178.753 381.558,-90.8101 391.794,-46.1027"/>
<polygon fill="black" stroke="black" points="395.234,-46.7614 394.054,-36.2325 388.411,-45.199 395.234,-46.7614"/>
</g>
<!-- bayes -->
<g id="node3" class="node"><title>bayes</title>
<a xlink:href="group__mrpt__bayes__grp.html" xlink:title="mrpt&#45;bayes (.h)">
<polygon fill="#d0d0d0" stroke="black" points="581.25,-108 494.75,-108 494.75,-72 581.25,-72 581.25,-108"/>
<text text-anchor="middle" x="538" y="-86.9" font-family="Times New Roman,serif" font-size="12.00">mrpt&#45;bayes (.h)</text>
</a>
</g>
<!-- bayes&#45;&gt;base -->
<g id="edge6" class="edge"><title>bayes&#45;&gt;base</title>
<path fill="none" stroke="black" d="M503.752,-71.8761C484.096,-62.0481 459.299,-49.6497 438.658,-39.3292"/>
<polygon fill="black" stroke="black" points="440.01,-36.092 429.501,-34.7503 436.88,-42.3529 440.01,-36.092"/>
</g>
<!-- opengl -->
<g id="node4" class="node"><title>opengl</title>
<a xlink:href="group__mrpt__opengl__grp.html" xlink:title="mrpt&#45;opengl">
<polygon fill="#d0d0d0" stroke="black" points="246,-108 174,-108 174,-72 246,-72 246,-108"/>
<text text-anchor="middle" x="210" y="-86.9" font-family="Times New Roman,serif" font-size="12.00">mrpt&#45;opengl</text>
</a>
</g>
<!-- opengl&#45;&gt;base -->
<g id="edge8" class="edge"><title>opengl&#45;&gt;base</title>
<path fill="none" stroke="black" d="M246.248,-75.5033C278.005,-63.6791 324.118,-46.5091 357.167,-34.2036"/>
<polygon fill="black" stroke="black" points="358.396,-37.4809 366.546,-30.7115 355.953,-30.9209 358.396,-37.4809"/>
</g>
<!-- gui -->
<g id="node5" class="node"><title>gui</title>
<a xlink:href="group__mrpt__gui__grp.html" xlink:title="mrpt&#45;gui">
<polygon fill="#d0d0d0" stroke="black" points="99.25,-180 44.75,-180 44.75,-144 99.25,-144 99.25,-180"/>
<text text-anchor="middle" x="72" y="-158.9" font-family="Times New Roman,serif" font-size="12.00">mrpt&#45;gui</text>
</a>
</g>
<!-- gui&#45;&gt;opengl -->
<g id="edge12" class="edge"><title>gui&#45;&gt;opengl</title>
<path fill="none" stroke="black" d="M99.2644,-147.17C118.646,-137.339 145.066,-123.937 167.239,-112.691"/>
<polygon fill="black" stroke="black" points="169.113,-115.664 176.448,-108.019 165.947,-109.421 169.113,-115.664"/>
</g>
<!-- obs -->
<g id="node6" class="node"><title>obs</title>
<a xlink:href="group__mrpt__obs__grp.html" xlink:title="mrpt&#45;obs">
<polygon fill="#d0d0d0" stroke="black" points="239.25,-180 180.75,-180 180.75,-144 239.25,-144 239.25,-180"/>
<text text-anchor="middle" x="210" y="-158.9" font-family="Times New Roman,serif" font-size="12.00">mrpt&#45;obs</text>
</a>
</g>
<!-- obs&#45;&gt;opengl -->
<g id="edge10" class="edge"><title>obs&#45;&gt;opengl</title>
<path fill="none" stroke="black" d="M210,-143.697C210,-135.983 210,-126.712 210,-118.112"/>
<polygon fill="black" stroke="black" points="213.5,-118.104 210,-108.104 206.5,-118.104 213.5,-118.104"/>
</g>
<!-- hwdrivers -->
<g id="node7" class="node"><title>hwdrivers</title>
<a xlink:href="group__mrpt__hwdrivers__grp.html" xlink:title="mrpt&#45;hwdrivers">
<polygon fill="#d0d0d0" stroke="black" points="115,-252 29,-252 29,-216 115,-216 115,-252"/>
<text text-anchor="middle" x="72" y="-230.9" font-family="Times New Roman,serif" font-size="12.00">mrpt&#45;hwdrivers</text>
</a>
</g>
<!-- hwdrivers&#45;&gt;gui -->
<g id="edge14" class="edge"><title>hwdrivers&#45;&gt;gui</title>
<path fill="none" stroke="black" d="M72,-215.697C72,-207.983 72,-198.712 72,-190.112"/>
<polygon fill="black" stroke="black" points="75.5001,-190.104 72,-180.104 68.5001,-190.104 75.5001,-190.104"/>
</g>
<!-- hwdrivers&#45;&gt;obs -->
<g id="edge16" class="edge"><title>hwdrivers&#45;&gt;obs</title>
<path fill="none" stroke="black" d="M105.759,-215.876C125.549,-205.838 150.626,-193.117 171.225,-182.669"/>
<polygon fill="black" stroke="black" points="173.004,-185.691 180.339,-178.046 169.837,-179.448 173.004,-185.691"/>
</g>
<!-- topography -->
<g id="node8" class="node"><title>topography</title>
<a xlink:href="group__mrpt__topography__grp.html" xlink:title="mrpt&#45;topography">
<polygon fill="#d0d0d0" stroke="black" points="507,-252 413,-252 413,-216 507,-216 507,-252"/>
<text text-anchor="middle" x="460" y="-230.9" font-family="Times New Roman,serif" font-size="12.00">mrpt&#45;topography</text>
</a>
</g>
<!-- topography&#45;&gt;obs -->
<g id="edge18" class="edge"><title>topography&#45;&gt;obs</title>
<path fill="none" stroke="black" d="M412.746,-218.82C409.45,-217.858 406.177,-216.91 403,-216 349.951,-200.807 288.447,-184.068 249.394,-173.548"/>
<polygon fill="black" stroke="black" points="250.05,-170.1 239.484,-170.882 248.231,-176.86 250.05,-170.1"/>
</g>
<!-- scanmatching -->
<g id="node11" class="node"><title>scanmatching</title>
<a xlink:href="group__mrpt__scanmatching__grp.html" xlink:title="mrpt&#45;scanmatching">
<polygon fill="#d0d0d0" stroke="black" points="511,-180 409,-180 409,-144 511,-144 511,-180"/>
<text text-anchor="middle" x="460" y="-158.9" font-family="Times New Roman,serif" font-size="12.00">mrpt&#45;scanmatching</text>
</a>
</g>
<!-- topography&#45;&gt;scanmatching -->
<g id="edge20" class="edge"><title>topography&#45;&gt;scanmatching</title>
<path fill="none" stroke="black" d="M460,-215.697C460,-207.983 460,-198.712 460,-190.112"/>
<polygon fill="black" stroke="black" points="463.5,-190.104 460,-180.104 456.5,-190.104 463.5,-190.104"/>
</g>
<!-- maps -->
<g id="node9" class="node"><title>maps</title>
<a xlink:href="group__mrpt__maps__grp.html" xlink:title="mrpt&#45;maps">
<polygon fill="#d0d0d0" stroke="black" points="285,-252 219,-252 219,-216 285,-216 285,-252"/>
<text text-anchor="middle" x="252" y="-230.9" font-family="Times New Roman,serif" font-size="12.00">mrpt&#45;maps</text>
</a>
</g>
<!-- maps&#45;&gt;obs -->
<g id="edge24" class="edge"><title>maps&#45;&gt;obs</title>
<path fill="none" stroke="black" d="M241.618,-215.697C236.735,-207.559 230.813,-197.689 225.421,-188.701"/>
<polygon fill="black" stroke="black" points="228.409,-186.879 220.263,-180.104 222.406,-190.48 228.409,-186.879"/>
</g>
<!-- vision -->
<g id="node10" class="node"><title>vision</title>
<a xlink:href="group__mrpt__vision__grp.html" xlink:title="mrpt&#45;vision">
<polygon fill="#d0d0d0" stroke="black" points="201,-252 133,-252 133,-216 201,-216 201,-252"/>
<text text-anchor="middle" x="167" y="-230.9" font-family="Times New Roman,serif" font-size="12.00">mrpt&#45;vision</text>
</a>
</g>
<!-- vision&#45;&gt;obs -->
<g id="edge22" class="edge"><title>vision&#45;&gt;obs</title>
<path fill="none" stroke="black" d="M177.629,-215.697C182.628,-207.559 188.691,-197.689 194.212,-188.701"/>
<polygon fill="black" stroke="black" points="197.241,-190.457 199.493,-180.104 191.277,-186.793 197.241,-190.457"/>
</g>
<!-- scanmatching&#45;&gt;base -->
<g id="edge4" class="edge"><title>scanmatching&#45;&gt;base</title>
<path fill="none" stroke="black" d="M452.521,-143.871C441.862,-119.457 422.2,-74.4258 409.629,-45.6351"/>
<polygon fill="black" stroke="black" points="412.714,-43.9533 405.505,-36.1893 406.299,-46.7543 412.714,-43.9533"/>
</g>
<!-- slam -->
<g id="node12" class="node"><title>slam</title>
<a xlink:href="group__mrpt__slam__grp.html" xlink:title="mrpt&#45;slam">
<polygon fill="#d0d0d0" stroke="black" points="401,-324 339,-324 339,-288 401,-288 401,-324"/>
<text text-anchor="middle" x="370" y="-302.9" font-family="Times New Roman,serif" font-size="12.00">mrpt&#45;slam</text>
</a>
</g>
<!-- slam&#45;&gt;graphs -->
<g id="edge34" class="edge"><title>slam&#45;&gt;graphs</title>
<path fill="none" stroke="black" d="M364.809,-287.697C362.469,-279.898 359.653,-270.509 357.049,-261.829"/>
<polygon fill="black" stroke="black" points="360.357,-260.677 354.131,-252.104 353.652,-262.688 360.357,-260.677"/>
</g>
<!-- slam&#45;&gt;bayes -->
<g id="edge32" class="edge"><title>slam&#45;&gt;bayes</title>
<path fill="none" stroke="black" d="M401.314,-304.735C439.128,-302.54 501.451,-292.526 532,-252 561.296,-213.136 553.54,-152.725 545.565,-118.011"/>
<polygon fill="black" stroke="black" points="548.917,-116.986 543.124,-108.115 542.121,-118.663 548.917,-116.986"/>
</g>
<!-- slam&#45;&gt;maps -->
<g id="edge26" class="edge"><title>slam&#45;&gt;maps</title>
<path fill="none" stroke="black" d="M341.134,-287.876C325.705,-278.724 306.519,-267.342 289.903,-257.485"/>
<polygon fill="black" stroke="black" points="291.363,-254.282 280.977,-252.19 287.792,-260.302 291.363,-254.282"/>
</g>
<!-- slam&#45;&gt;vision -->
<g id="edge28" class="edge"><title>slam&#45;&gt;vision</title>
<path fill="none" stroke="black" d="M338.785,-291.683C335.499,-290.393 332.193,-289.142 329,-288 279.816,-270.413 263.911,-270.146 210.78,-252.119"/>
<polygon fill="black" stroke="black" points="211.767,-248.757 201.172,-248.805 209.484,-255.374 211.767,-248.757"/>
</g>
<!-- slam&#45;&gt;scanmatching -->
<g id="edge30" class="edge"><title>slam&#45;&gt;scanmatching</title>
<path fill="none" stroke="black" d="M401.298,-303.608C435.899,-300.196 490.155,-288.878 516,-252 525.183,-238.897 522.326,-230.696 516,-216 511.211,-204.874 502.81,-194.991 493.95,-186.863"/>
<polygon fill="black" stroke="black" points="496.003,-184.013 486.124,-180.184 491.459,-189.338 496.003,-184.013"/>
</g>
<!-- graphslam -->
<g id="node13" class="node"><title>graphslam</title>
<a xlink:href="group__mrpt__graphslam__grp.html" xlink:title="mrpt&#45;graphslam (.h)">
<polygon fill="#d0d0d0" stroke="black" points="464.25,-396 357.75,-396 357.75,-360 464.25,-360 464.25,-396"/>
<text text-anchor="middle" x="411" y="-374.9" font-family="Times New Roman,serif" font-size="12.00">mrpt&#45;graphslam (.h)</text>
</a>
</g>
<!-- graphslam&#45;&gt;slam -->
<g id="edge36" class="edge"><title>graphslam&#45;&gt;slam</title>
<path fill="none" stroke="black" d="M400.865,-359.697C396.148,-351.644 390.438,-341.894 385.218,-332.982"/>
<polygon fill="black" stroke="black" points="388.092,-330.964 380.018,-324.104 382.052,-334.502 388.092,-330.964"/>
</g>
<!-- hmtslam -->
<g id="node14" class="node"><title>hmtslam</title>
<a xlink:href="group__mrpt__hmtslam__grp.html" xlink:title="mrpt&#45;hmtslam">
<polygon fill="#d0d0d0" stroke="black" points="409.25,-468 330.75,-468 330.75,-432 409.25,-432 409.25,-468"/>
<text text-anchor="middle" x="370" y="-446.9" font-family="Times New Roman,serif" font-size="12.00">mrpt&#45;hmtslam</text>
</a>
</g>
<!-- hmtslam&#45;&gt;slam -->
<g id="edge44" class="edge"><title>hmtslam&#45;&gt;slam</title>
<path fill="none" stroke="black" d="M360.869,-431.88C355.993,-421.756 350.493,-408.506 348,-396 344.873,-380.309 344.873,-375.691 348,-360 349.791,-351.011 353.137,-341.638 356.687,-333.318"/>
<polygon fill="black" stroke="black" points="359.916,-334.672 360.869,-324.12 353.544,-331.775 359.916,-334.672"/>
</g>
<!-- hmtslam&#45;&gt;graphslam -->
<g id="edge46" class="edge"><title>hmtslam&#45;&gt;graphslam</title>
<path fill="none" stroke="black" d="M380.135,-431.697C384.852,-423.644 390.562,-413.894 395.782,-404.982"/>
<polygon fill="black" stroke="black" points="398.948,-406.502 400.982,-396.104 392.908,-402.964 398.948,-406.502"/>
</g>
<!-- reactivenav -->
<g id="node15" class="node"><title>reactivenav</title>
<a xlink:href="group__mrpt__reactivenav__grp.html" xlink:title="mrpt&#45;reactivenav">
<polygon fill="#d0d0d0" stroke="black" points="320.25,-324 227.75,-324 227.75,-288 320.25,-288 320.25,-324"/>
<text text-anchor="middle" x="274" y="-302.9" font-family="Times New Roman,serif" font-size="12.00">mrpt&#45;reactivenav</text>
</a>
</g>
<!-- reactivenav&#45;&gt;graphs -->
<g id="edge52" class="edge"><title>reactivenav&#45;&gt;graphs</title>
<path fill="none" stroke="black" d="M292.539,-287.697C301.803,-279.05 313.162,-268.449 323.257,-259.027"/>
<polygon fill="black" stroke="black" points="325.751,-261.486 330.674,-252.104 320.975,-256.369 325.751,-261.486"/>
</g>
<!-- reactivenav&#45;&gt;maps -->
<g id="edge50" class="edge"><title>reactivenav&#45;&gt;maps</title>
<path fill="none" stroke="black" d="M268.562,-287.697C266.111,-279.898 263.16,-270.509 260.432,-261.829"/>
<polygon fill="black" stroke="black" points="263.713,-260.595 257.376,-252.104 257.035,-262.694 263.713,-260.595"/>
</g>
<!-- stereoslam -->
<g id="node16" class="node"><title>stereoslam</title>
<a xlink:href="group__mrpt__stereoslam__grp.html" xlink:title="mrpt&#45;stereoslam (*)">
<polygon fill="#d0d0d0" stroke="black" points="106.25,-324 -0.25,-324 -0.25,-288 106.25,-288 106.25,-324"/>
<text text-anchor="middle" x="53" y="-302.9" font-family="Times New Roman,serif" font-size="12.00">mrpt&#45;stereoslam (*)</text>
</a>
</g>
<!-- stereoslam&#45;&gt;vision -->
<g id="edge48" class="edge"><title>stereoslam&#45;&gt;vision</title>
<path fill="none" stroke="black" d="M80.8875,-287.876C95.793,-278.724 114.329,-267.342 130.382,-257.485"/>
<polygon fill="black" stroke="black" points="132.315,-260.405 139.005,-252.19 128.652,-254.44 132.315,-260.405"/>
</g>
<!-- detectors -->
<g id="node17" class="node"><title>detectors</title>
<a xlink:href="group__mrpt__detectors__grp.html" xlink:title="mrpt&#45;detectors">
<polygon fill="#d0d0d0" stroke="black" points="209,-324 125,-324 125,-288 209,-288 209,-324"/>
<text text-anchor="middle" x="167" y="-302.9" font-family="Times New Roman,serif" font-size="12.00">mrpt&#45;detectors</text>
</a>
</g>
<!-- detectors&#45;&gt;gui -->
<g id="edge42" class="edge"><title>detectors&#45;&gt;gui</title>
<path fill="none" stroke="black" d="M124.929,-291.148C82.6266,-277.022 23.1968,-256.551 20,-252 5.19777,-230.928 23.4662,-205.425 42.304,-187.13"/>
<polygon fill="black" stroke="black" points="44.7824,-189.606 49.7598,-180.253 40.0363,-184.46 44.7824,-189.606"/>
</g>
<!-- detectors&#45;&gt;maps -->
<g id="edge40" class="edge"><title>detectors&#45;&gt;maps</title>
<path fill="none" stroke="black" d="M188.011,-287.697C198.716,-278.881 211.89,-268.032 223.496,-258.474"/>
<polygon fill="black" stroke="black" points="225.736,-261.163 231.23,-252.104 221.286,-255.76 225.736,-261.163"/>
</g>
<!-- detectors&#45;&gt;vision -->
<g id="edge38" class="edge"><title>detectors&#45;&gt;vision</title>
<path fill="none" stroke="black" d="M167,-287.697C167,-279.983 167,-270.712 167,-262.112"/>
<polygon fill="black" stroke="black" points="170.5,-262.104 167,-252.104 163.5,-262.104 170.5,-262.104"/>
</g>
</g>
</svg>
