<?xml version="1.0" encoding="UTF-8" standalone="no"?>
<!DOCTYPE svg PUBLIC "-//W3C//DTD SVG 1.1//EN"
 "http://www.w3.org/Graphics/SVG/1.1/DTD/svg11.dtd">
<!-- Generated by graphviz version 2.26.3 (20100126.1600)
 -->
<!-- Title: MRPT_LIBS Pages: 1 -->
<svg width="717pt" height="476pt"
 viewBox="0.00 0.00 717.00 476.00" xmlns="http://www.w3.org/2000/svg" xmlns:xlink="http://www.w3.org/1999/xlink">
<g id="graph1" class="graph" transform="scale(1 1) rotate(0) translate(4 472)">
<title>MRPT_LIBS</title>
<polygon fill="white" stroke="white" points="-4,5 -4,-472 714,-472 714,5 -4,5"/>
<!-- base -->
<g id="node1" class="node"><title>base</title>
<a xlink:href="group__mrpt__base__grp.html" xlink:title="mrpt&#45;base">
<polygon fill="#d0d0d0" stroke="black" points="242,-36 166,-36 166,-1.77636e-14 242,-3.55271e-15 242,-36"/>
<text text-anchor="middle" x="204" y="-14.7" font-family="Times Roman,serif" font-size="12.00">mrpt&#45;base</text>
</a>
</g>
<!-- graphs -->
<g id="node2" class="node"><title>graphs</title>
<a xlink:href="group__mrpt__graphs__grp.html" xlink:title="mrpt&#45;graphs (.h)">
<polygon fill="#d0d0d0" stroke="black" points="130,-252 16,-252 16,-216 130,-216 130,-252"/>
<text text-anchor="middle" x="73" y="-230.7" font-family="Times Roman,serif" font-size="12.00">mrpt&#45;graphs (.h)</text>
</a>
</g>
<!-- graphs&#45;&gt;base -->
<g id="edge8" class="edge"><title>graphs&#45;&gt;base</title>
<path fill="none" stroke="black" d="M70.9575,-215.985C68.2945,-183.827 67.2258,-115.812 99,-72 112.932,-52.7891 135.737,-39.9101 156.54,-31.5649"/>
<polygon fill="black" stroke="black" points="157.787,-34.8354 165.918,-28.0432 155.326,-28.2822 157.787,-34.8354"/>
</g>
<!-- bayes -->
<g id="node3" class="node"><title>bayes</title>
<a xlink:href="group__mrpt__bayes__grp.html" xlink:title="mrpt&#45;bayes (.h)">
<polygon fill="#d0d0d0" stroke="black" points="216,-108 108,-108 108,-72 216,-72 216,-108"/>
<text text-anchor="middle" x="162" y="-86.7" font-family="Times Roman,serif" font-size="12.00">mrpt&#45;bayes (.h)</text>
</a>
</g>
<!-- bayes&#45;&gt;base -->
<g id="edge12" class="edge"><title>bayes&#45;&gt;base</title>
<path fill="none" stroke="black" d="M172.598,-71.8314C177.288,-63.7925 182.903,-54.1666 188.08,-45.2918"/>
<polygon fill="black" stroke="black" points="191.243,-46.8146 193.259,-36.4133 185.197,-43.2875 191.243,-46.8146"/>
</g>
<!-- opengl -->
<g id="node4" class="node"><title>opengl</title>
<a xlink:href="group__mrpt__opengl__grp.html" xlink:title="mrpt&#45;opengl">
<polygon fill="#d0d0d0" stroke="black" points="556,-108 468,-108 468,-72 556,-72 556,-108"/>
<text text-anchor="middle" x="512" y="-86.7" font-family="Times Roman,serif" font-size="12.00">mrpt&#45;opengl</text>
</a>
</g>
<!-- opengl&#45;&gt;base -->
<g id="edge14" class="edge"><title>opengl&#45;&gt;base</title>
<path fill="none" stroke="black" d="M467.871,-79.6842C410.635,-66.3044 311.151,-43.0482 252.056,-29.2338"/>
<polygon fill="black" stroke="black" points="252.755,-25.803 242.221,-26.9348 251.162,-32.6192 252.755,-25.803"/>
</g>
<!-- gui -->
<g id="node5" class="node"><title>gui</title>
<a xlink:href="group__mrpt__gui__grp.html" xlink:title="mrpt&#45;gui">
<polygon fill="#d0d0d0" stroke="black" points="709,-252 643,-252 643,-216 709,-216 709,-252"/>
<text text-anchor="middle" x="676" y="-230.7" font-family="Times Roman,serif" font-size="12.00">mrpt&#45;gui</text>
</a>
</g>
<!-- gui&#45;&gt;opengl -->
<g id="edge18" class="edge"><title>gui&#45;&gt;opengl</title>
<path fill="none" stroke="black" d="M677.5,-215.919C678.143,-196.005 676.06,-164.143 659,-144 635.93,-116.761 597.859,-103.258 566.242,-96.5667"/>
<polygon fill="black" stroke="black" points="566.714,-93.0931 556.23,-94.6247 565.381,-99.965 566.714,-93.0931"/>
</g>
<!-- obs -->
<g id="node6" class="node"><title>obs</title>
<a xlink:href="group__mrpt__obs__grp.html" xlink:title="mrpt&#45;obs">
<polygon fill="#d0d0d0" stroke="black" points="650,-180 580,-180 580,-144 650,-144 650,-180"/>
<text text-anchor="middle" x="615" y="-158.7" font-family="Times Roman,serif" font-size="12.00">mrpt&#45;obs</text>
</a>
</g>
<!-- obs&#45;&gt;opengl -->
<g id="edge16" class="edge"><title>obs&#45;&gt;opengl</title>
<path fill="none" stroke="black" d="M589.009,-143.831C576.078,-134.793 560.278,-123.748 546.362,-114.02"/>
<polygon fill="black" stroke="black" points="548.184,-111.024 537.983,-108.163 544.174,-116.761 548.184,-111.024"/>
</g>
<!-- hwdrivers -->
<g id="node7" class="node"><title>hwdrivers</title>
<a xlink:href="group__mrpt__hwdrivers__grp.html" xlink:title="mrpt&#45;hwdrivers">
<polygon fill="#d0d0d0" stroke="black" points="533,-324 427,-324 427,-288 533,-288 533,-324"/>
<text text-anchor="middle" x="480" y="-302.7" font-family="Times Roman,serif" font-size="12.00">mrpt&#45;hwdrivers</text>
</a>
</g>
<!-- hwdrivers&#45;&gt;gui -->
<g id="edge20" class="edge"><title>hwdrivers&#45;&gt;gui</title>
<path fill="none" stroke="black" d="M533.067,-288.382C560.574,-279.022 594.87,-267.001 632.873,-252.335"/>
<polygon fill="black" stroke="black" points="634.56,-255.435 642.613,-248.55 632.025,-248.91 634.56,-255.435"/>
</g>
<!-- maps -->
<g id="node9" class="node"><title>maps</title>
<a xlink:href="group__mrpt__maps__grp.html" xlink:title="mrpt&#45;maps">
<polygon fill="#d0d0d0" stroke="black" points="521,-252 439,-252 439,-216 521,-216 521,-252"/>
<text text-anchor="middle" x="480" y="-230.7" font-family="Times Roman,serif" font-size="12.00">mrpt&#45;maps</text>
</a>
</g>
<!-- hwdrivers&#45;&gt;maps -->
<g id="edge22" class="edge"><title>hwdrivers&#45;&gt;maps</title>
<path fill="none" stroke="black" d="M480,-287.831C480,-280.131 480,-270.974 480,-262.417"/>
<polygon fill="black" stroke="black" points="483.5,-262.413 480,-252.413 476.5,-262.413 483.5,-262.413"/>
</g>
<!-- topography -->
<g id="node8" class="node"><title>topography</title>
<a xlink:href="group__mrpt__topography__grp.html" xlink:title="mrpt&#45;topography">
<polygon fill="#d0d0d0" stroke="black" points="414,-252 296,-252 296,-216 414,-216 414,-252"/>
<text text-anchor="middle" x="355" y="-230.7" font-family="Times Roman,serif" font-size="12.00">mrpt&#45;topography</text>
</a>
</g>
<!-- topography&#45;&gt;obs -->
<g id="edge24" class="edge"><title>topography&#45;&gt;obs</title>
<path fill="none" stroke="black" d="M414.151,-219.674C466.396,-206.955 538.139,-189.306 569.857,-180.006"/>
<polygon fill="black" stroke="black" points="571.104,-183.284 579.621,-176.982 569.033,-176.597 571.104,-183.284"/>
</g>
<!-- scanmatching -->
<g id="node11" class="node"><title>scanmatching</title>
<a xlink:href="group__mrpt__scanmatching__grp.html" xlink:title="mrpt&#45;scanmatching">
<polygon fill="#d0d0d0" stroke="black" points="316,-180 186,-180 186,-144 316,-144 316,-180"/>
<text text-anchor="middle" x="251" y="-158.7" font-family="Times Roman,serif" font-size="12.00">mrpt&#45;scanmatching</text>
</a>
</g>
<!-- topography&#45;&gt;scanmatching -->
<g id="edge26" class="edge"><title>topography&#45;&gt;scanmatching</title>
<path fill="none" stroke="black" d="M328.756,-215.831C315.701,-206.793 299.747,-195.748 285.695,-186.02"/>
<polygon fill="black" stroke="black" points="287.449,-182.977 277.235,-180.163 283.465,-188.733 287.449,-182.977"/>
</g>
<!-- maps&#45;&gt;obs -->
<g id="edge30" class="edge"><title>maps&#45;&gt;obs</title>
<path fill="none" stroke="black" d="M514.066,-215.831C531.653,-206.452 553.292,-194.911 572.017,-184.924"/>
<polygon fill="black" stroke="black" points="573.768,-187.957 580.945,-180.163 570.474,-181.781 573.768,-187.957"/>
</g>
<!-- vision -->
<g id="node10" class="node"><title>vision</title>
<a xlink:href="group__mrpt__vision__grp.html" xlink:title="mrpt&#45;vision">
<polygon fill="#d0d0d0" stroke="black" points="625,-252 543,-252 543,-216 625,-216 625,-252"/>
<text text-anchor="middle" x="584" y="-230.7" font-family="Times Roman,serif" font-size="12.00">mrpt&#45;vision</text>
</a>
</g>
<!-- vision&#45;&gt;obs -->
<g id="edge28" class="edge"><title>vision&#45;&gt;obs</title>
<path fill="none" stroke="black" d="M591.823,-215.831C595.211,-207.962 599.254,-198.571 603.008,-189.853"/>
<polygon fill="black" stroke="black" points="606.332,-190.982 607.072,-180.413 599.903,-188.214 606.332,-190.982"/>
</g>
<!-- scanmatching&#45;&gt;base -->
<g id="edge10" class="edge"><title>scanmatching&#45;&gt;base</title>
<path fill="none" stroke="black" d="M246.29,-143.923C241.408,-125.645 233.335,-96.6512 225,-72 222.082,-63.3703 218.601,-54.0884 215.319,-45.6957"/>
<polygon fill="black" stroke="black" points="218.549,-44.3462 211.605,-36.3443 212.044,-46.9301 218.549,-44.3462"/>
</g>
<!-- slam -->
<g id="node12" class="node"><title>slam</title>
<a xlink:href="group__mrpt__slam__grp.html" xlink:title="mrpt&#45;slam">
<polygon fill="#d0d0d0" stroke="black" points="318,-324 242,-324 242,-288 318,-288 318,-324"/>
<text text-anchor="middle" x="280" y="-302.7" font-family="Times Roman,serif" font-size="12.00">mrpt&#45;slam</text>
</a>
</g>
<!-- slam&#45;&gt;graphs -->
<g id="edge40" class="edge"><title>slam&#45;&gt;graphs</title>
<path fill="none" stroke="black" d="M241.828,-291.234C238.846,-290.125 235.877,-289.036 233,-288 201.899,-276.801 167.155,-264.992 138.012,-255.282"/>
<polygon fill="black" stroke="black" points="138.95,-251.906 128.356,-252.074 136.742,-258.548 138.95,-251.906"/>
</g>
<!-- slam&#45;&gt;bayes -->
<g id="edge38" class="edge"><title>slam&#45;&gt;bayes</title>
<path fill="none" stroke="black" d="M259.646,-287.708C235.733,-264.961 196.814,-223.754 177,-180 168.151,-160.459 164.466,-136.407 162.959,-118.085"/>
<polygon fill="black" stroke="black" points="166.447,-117.786 162.3,-108.037 159.462,-118.244 166.447,-117.786"/>
</g>
<!-- slam&#45;&gt;maps -->
<g id="edge32" class="edge"><title>slam&#45;&gt;maps</title>
<path fill="none" stroke="black" d="M318.089,-292.288C349.686,-280.913 394.878,-264.644 429.492,-252.183"/>
<polygon fill="black" stroke="black" points="430.731,-255.457 438.955,-248.776 428.36,-248.87 430.731,-255.457"/>
</g>
<!-- slam&#45;&gt;vision -->
<g id="edge34" class="edge"><title>slam&#45;&gt;vision</title>
<path fill="none" stroke="black" d="M318.006,-299.129C367.277,-289.916 455.694,-272.344 530,-252 531.048,-251.713 532.106,-251.417 533.171,-251.114"/>
<polygon fill="black" stroke="black" points="534.282,-254.436 542.865,-248.225 532.282,-247.727 534.282,-254.436"/>
</g>
<!-- slam&#45;&gt;scanmatching -->
<g id="edge36" class="edge"><title>slam&#45;&gt;scanmatching</title>
<path fill="none" stroke="black" d="M276.327,-287.762C271.359,-263.093 262.451,-218.86 256.633,-189.973"/>
<polygon fill="black" stroke="black" points="260.048,-189.202 254.643,-180.09 253.186,-190.584 260.048,-189.202"/>
</g>
<!-- graphslam -->
<g id="node13" class="node"><title>graphslam</title>
<a xlink:href="group__mrpt__graphslam__grp.html" xlink:title="mrpt&#45;graphslam (.h)">
<polygon fill="#d0d0d0" stroke="black" points="299,-396 165,-396 165,-360 299,-360 299,-396"/>
<text text-anchor="middle" x="232" y="-374.7" font-family="Times Roman,serif" font-size="12.00">mrpt&#45;graphslam (.h)</text>
</a>
</g>
<!-- graphslam&#45;&gt;slam -->
<g id="edge42" class="edge"><title>graphslam&#45;&gt;slam</title>
<path fill="none" stroke="black" d="M244.112,-359.831C249.528,-351.708 256.024,-341.964 261.992,-333.012"/>
<polygon fill="black" stroke="black" points="265.09,-334.675 267.724,-324.413 259.265,-330.792 265.09,-334.675"/>
</g>
<!-- hmtslam -->
<g id="node14" class="node"><title>hmtslam</title>
<a xlink:href="group__mrpt__hmtslam__grp.html" xlink:title="mrpt&#45;hmtslam">
<polygon fill="#d0d0d0" stroke="black" points="329,-468 229,-468 229,-432 329,-432 329,-468"/>
<text text-anchor="middle" x="279" y="-446.7" font-family="Times Roman,serif" font-size="12.00">mrpt&#45;hmtslam</text>
</a>
</g>
<!-- hmtslam&#45;&gt;slam -->
<g id="edge50" class="edge"><title>hmtslam&#45;&gt;slam</title>
<path fill="none" stroke="black" d="M291.612,-431.942C297.877,-421.866 304.781,-408.797 308,-396 311.903,-380.483 311.79,-375.545 308,-360 305.746,-350.757 301.611,-341.331 297.197,-332.997"/>
<polygon fill="black" stroke="black" points="300.148,-331.103 292.182,-324.118 294.053,-334.546 300.148,-331.103"/>
</g>
<!-- hmtslam&#45;&gt;graphslam -->
<g id="edge52" class="edge"><title>hmtslam&#45;&gt;graphslam</title>
<path fill="none" stroke="black" d="M267.14,-431.831C261.837,-423.708 255.476,-413.964 249.633,-405.012"/>
<polygon fill="black" stroke="black" points="252.417,-402.874 244.02,-396.413 246.555,-406.7 252.417,-402.874"/>
</g>
<!-- reactivenav -->
<g id="node15" class="node"><title>reactivenav</title>
<a xlink:href="group__mrpt__reactivenav__grp.html" xlink:title="mrpt&#45;reactivenav">
<polygon fill="#d0d0d0" stroke="black" points="224,-324 108,-324 108,-288 224,-288 224,-324"/>
<text text-anchor="middle" x="166" y="-302.7" font-family="Times Roman,serif" font-size="12.00">mrpt&#45;reactivenav</text>
</a>
</g>
<!-- reactivenav&#45;&gt;graphs -->
<g id="edge56" class="edge"><title>reactivenav&#45;&gt;graphs</title>
<path fill="none" stroke="black" d="M142.532,-287.831C130.967,-278.878 116.86,-267.956 104.382,-258.295"/>
<polygon fill="black" stroke="black" points="106.51,-255.517 96.4603,-252.163 102.225,-261.052 106.51,-255.517"/>
</g>
<!-- reactivenav&#45;&gt;maps -->
<g id="edge54" class="edge"><title>reactivenav&#45;&gt;maps</title>
<path fill="none" stroke="black" d="M224.038,-290.121C227.064,-289.383 230.065,-288.671 233,-288 316.783,-268.837 339.652,-272.978 423,-252 424.925,-251.516 426.88,-251.003 428.85,-250.469"/>
<polygon fill="black" stroke="black" points="430.095,-253.754 438.759,-247.656 428.183,-247.021 430.095,-253.754"/>
</g>
<!-- detectors -->
<g id="node16" class="node"><title>detectors</title>
<a xlink:href="group__mrpt__detectors__grp.html" xlink:title="mrpt&#45;detectors">
<polygon fill="#d0d0d0" stroke="black" points="657,-324 551,-324 551,-288 657,-288 657,-324"/>
<text text-anchor="middle" x="604" y="-302.7" font-family="Times Roman,serif" font-size="12.00">mrpt&#45;detectors</text>
</a>
</g>
<!-- detectors&#45;&gt;gui -->
<g id="edge48" class="edge"><title>detectors&#45;&gt;gui</title>
<path fill="none" stroke="black" d="M622.169,-287.831C630.715,-279.285 641.056,-268.944 650.38,-259.62"/>
<polygon fill="black" stroke="black" points="652.991,-261.959 657.587,-252.413 648.041,-257.009 652.991,-261.959"/>
</g>
<!-- detectors&#45;&gt;maps -->
<g id="edge46" class="edge"><title>detectors&#45;&gt;maps</title>
<path fill="none" stroke="black" d="M572.71,-287.831C556.702,-278.537 537.041,-267.121 519.951,-257.197"/>
<polygon fill="black" stroke="black" points="521.686,-254.157 511.28,-252.163 518.171,-260.211 521.686,-254.157"/>
</g>
<!-- detectors&#45;&gt;vision -->
<g id="edge44" class="edge"><title>detectors&#45;&gt;vision</title>
<path fill="none" stroke="black" d="M598.953,-287.831C596.791,-280.046 594.215,-270.773 591.815,-262.135"/>
<polygon fill="black" stroke="black" points="595.164,-261.112 589.115,-252.413 588.419,-262.985 595.164,-261.112"/>
</g>
<!-- kinematics -->
<g id="node17" class="node"><title>kinematics</title>
<a xlink:href="group__mrpt__kinematics__grp.html" xlink:title="mrpt&#45;kinematics">
<polygon fill="#d0d0d0" stroke="black" points="444,-180 334,-180 334,-144 444,-144 444,-180"/>
<text text-anchor="middle" x="389" y="-158.7" font-family="Times Roman,serif" font-size="12.00">mrpt&#45;kinematics</text>
</a>
</g>
<!-- kinematics&#45;&gt;opengl -->
<g id="edge6" class="edge"><title>kinematics&#45;&gt;opengl</title>
<path fill="none" stroke="black" d="M420.038,-143.831C435.771,-134.622 455.061,-123.33 471.904,-113.471"/>
<polygon fill="black" stroke="black" points="474.11,-116.235 480.972,-108.163 470.574,-110.194 474.11,-116.235"/>
</g>
<!-- srba -->
<g id="node18" class="node"><title>srba</title>
<a xlink:href="group__mrpt__srba__grp.html" xlink:title="mrpt&#45;srba (.h)">
<polygon fill="#d0d0d0" stroke="black" points="562,-180 462,-180 462,-144 562,-144 562,-180"/>
<text text-anchor="middle" x="512" y="-158.7" font-family="Times Roman,serif" font-size="12.00">mrpt&#45;srba (.h)</text>
</a>
</g>
<!-- srba&#45;&gt;opengl -->
<g id="edge2" class="edge"><title>srba&#45;&gt;opengl</title>
<path fill="none" stroke="black" d="M512,-143.831C512,-136.131 512,-126.974 512,-118.417"/>
<polygon fill="black" stroke="black" points="515.5,-118.413 512,-108.413 508.5,-118.413 515.5,-118.413"/>
</g>
<!-- pbmap -->
<g id="node19" class="node"><title>pbmap</title>
<a xlink:href="group__mrpt__pbmap__grp.html" xlink:title="mrpt&#45;pbmap">
<polygon fill="#d0d0d0" stroke="black" points="90,-324 4.26326e-14,-324 0,-288 90,-288 90,-324"/>
<text text-anchor="middle" x="45" y="-302.7" font-family="Times Roman,serif" font-size="12.00">mrpt&#45;pbmap</text>
</a>
</g>
<!-- pbmap&#45;&gt;graphs -->
<g id="edge4" class="edge"><title>pbmap&#45;&gt;graphs</title>
<path fill="none" stroke="black" d="M52.0656,-287.831C55.126,-279.962 58.7779,-270.571 62.1682,-261.853"/>
<polygon fill="black" stroke="black" points="65.4768,-263.002 65.8393,-252.413 58.9527,-260.465 65.4768,-263.002"/>
</g>
</g>
</svg>
