<?xml version="1.0" encoding="UTF-8" standalone="no"?>
<!DOCTYPE svg PUBLIC "-//W3C//DTD SVG 1.1//EN"
 "http://www.w3.org/Graphics/SVG/1.1/DTD/svg11.dtd">
<!-- Generated by graphviz version 2.36.0 (20140111.2315)
 -->
<!-- Title: MRPT_LIBS Pages: 1 -->
<svg width="813pt" height="404pt"
 viewBox="0.00 0.00 813.00 404.00" xmlns="http://www.w3.org/2000/svg" xmlns:xlink="http://www.w3.org/1999/xlink">
<g id="graph0" class="graph" transform="scale(1 1) rotate(0) translate(4 400)">
<title>MRPT_LIBS</title>
<polygon fill="white" stroke="none" points="-4,4 -4,-400 809,-400 809,4 -4,4"/>
<!-- base -->
<g id="node1" class="node"><title>base</title>
<g id="a_node1"><a xlink:href="group__mrpt__base__grp.html" xlink:title="mrpt&#45;base">
<polygon fill="#d0d0d0" stroke="black" points="351.25,-36 278.75,-36 278.75,-0 351.25,-0 351.25,-36"/>
<text text-anchor="middle" x="315" y="-14.3" font-family="Times New Roman,serif" font-size="14.00">mrpt&#45;base</text>
</a>
</g>
</g>
<!-- graphs -->
<g id="node2" class="node"><title>graphs</title>
<g id="a_node2"><a xlink:href="group__mrpt__graphs__grp.html" xlink:title="mrpt&#45;graphs (.h)">
<polygon fill="#d0d0d0" stroke="black" points="243,-252 135,-252 135,-216 243,-216 243,-252"/>
<text text-anchor="middle" x="189" y="-230.3" font-family="Times New Roman,serif" font-size="14.00">mrpt&#45;graphs (.h)</text>
</a>
</g>
</g>
<!-- graphs&#45;&gt;base -->
<g id="edge4" class="edge"><title>graphs&#45;&gt;base</title>
<path fill="none" stroke="black" d="M186.816,-215.879C183.73,-184.29 181.565,-116.053 213,-72 226.509,-53.0682 248.858,-40.3895 269.198,-32.194"/>
<polygon fill="black" stroke="black" points="270.541,-35.4283 278.667,-28.6306 268.075,-28.8768 270.541,-35.4283"/>
</g>
<!-- bayes -->
<g id="node3" class="node"><title>bayes</title>
<g id="a_node3"><a xlink:href="group__mrpt__bayes__grp.html" xlink:title="mrpt&#45;bayes (.h)">
<polygon fill="#d0d0d0" stroke="black" points="325.25,-108 222.75,-108 222.75,-72 325.25,-72 325.25,-108"/>
<text text-anchor="middle" x="274" y="-86.3" font-family="Times New Roman,serif" font-size="14.00">mrpt&#45;bayes (.h)</text>
</a>
</g>
</g>
<!-- bayes&#45;&gt;base -->
<g id="edge6" class="edge"><title>bayes&#45;&gt;base</title>
<path fill="none" stroke="black" d="M284.135,-71.6966C288.852,-63.6436 294.562,-53.8945 299.782,-44.9824"/>
<polygon fill="black" stroke="black" points="302.948,-46.5021 304.982,-36.1043 296.908,-42.9643 302.948,-46.5021"/>
</g>
<!-- opengl -->
<g id="node4" class="node"><title>opengl</title>
<g id="a_node4"><a xlink:href="group__mrpt__opengl__grp.html" xlink:title="mrpt&#45;opengl">
<polygon fill="#d0d0d0" stroke="black" points="655.25,-108 570.75,-108 570.75,-72 655.25,-72 655.25,-108"/>
<text text-anchor="middle" x="613" y="-86.3" font-family="Times New Roman,serif" font-size="14.00">mrpt&#45;opengl</text>
</a>
</g>
</g>
<!-- opengl&#45;&gt;base -->
<g id="edge7" class="edge"><title>opengl&#45;&gt;base</title>
<path fill="none" stroke="black" d="M570.62,-79.045C515.291,-66.0482 418.771,-43.3757 361.487,-29.9197"/>
<polygon fill="black" stroke="black" points="362.145,-26.4792 351.61,-27.5997 360.545,-33.2938 362.145,-26.4792"/>
</g>
<!-- gui -->
<g id="node5" class="node"><title>gui</title>
<g id="a_node5"><a xlink:href="group__mrpt__gui__grp.html" xlink:title="mrpt&#45;gui">
<polygon fill="#d0d0d0" stroke="black" points="805,-252 741,-252 741,-216 805,-216 805,-252"/>
<text text-anchor="middle" x="773" y="-230.3" font-family="Times New Roman,serif" font-size="14.00">mrpt&#45;gui</text>
</a>
</g>
</g>
<!-- gui&#45;&gt;opengl -->
<g id="edge9" class="edge"><title>gui&#45;&gt;opengl</title>
<path fill="none" stroke="black" d="M774.406,-215.832C775.058,-196.199 773.072,-164.174 756,-144 733.488,-117.398 696.324,-104.14 665.525,-97.537"/>
<polygon fill="black" stroke="black" points="665.841,-94.0324 655.354,-95.5432 664.494,-100.902 665.841,-94.0324"/>
</g>
<!-- obs -->
<g id="node6" class="node"><title>obs</title>
<g id="a_node6"><a xlink:href="group__mrpt__obs__grp.html" xlink:title="mrpt&#45;obs">
<polygon fill="#d0d0d0" stroke="black" points="747,-180 679,-180 679,-144 747,-144 747,-180"/>
<text text-anchor="middle" x="713" y="-158.3" font-family="Times New Roman,serif" font-size="14.00">mrpt&#45;obs</text>
</a>
</g>
</g>
<!-- obs&#45;&gt;opengl -->
<g id="edge8" class="edge"><title>obs&#45;&gt;opengl</title>
<path fill="none" stroke="black" d="M688.537,-143.876C675.704,-134.893 659.804,-123.763 645.906,-114.034"/>
<polygon fill="black" stroke="black" points="647.756,-111.057 637.557,-108.19 643.742,-116.792 647.756,-111.057"/>
</g>
<!-- hwdrivers -->
<g id="node7" class="node"><title>hwdrivers</title>
<g id="a_node7"><a xlink:href="group__mrpt__hwdrivers__grp.html" xlink:title="mrpt&#45;hwdrivers">
<polygon fill="#d0d0d0" stroke="black" points="633,-324 531,-324 531,-288 633,-288 633,-324"/>
<text text-anchor="middle" x="582" y="-302.3" font-family="Times New Roman,serif" font-size="14.00">mrpt&#45;hwdrivers</text>
</a>
</g>
</g>
<!-- hwdrivers&#45;&gt;gui -->
<g id="edge10" class="edge"><title>hwdrivers&#45;&gt;gui</title>
<path fill="none" stroke="black" d="M632.245,-287.998C659.208,-278.702 693.184,-266.715 731.111,-252.256"/>
<polygon fill="black" stroke="black" points="732.752,-255.375 740.836,-248.527 730.246,-248.839 732.752,-255.375"/>
</g>
<!-- maps -->
<g id="node9" class="node"><title>maps</title>
<g id="a_node9"><a xlink:href="group__mrpt__maps__grp.html" xlink:title="mrpt&#45;maps">
<polygon fill="#d0d0d0" stroke="black" points="620.25,-252 543.75,-252 543.75,-216 620.25,-216 620.25,-252"/>
<text text-anchor="middle" x="582" y="-230.3" font-family="Times New Roman,serif" font-size="14.00">mrpt&#45;maps</text>
</a>
</g>
</g>
<!-- hwdrivers&#45;&gt;maps -->
<g id="edge11" class="edge"><title>hwdrivers&#45;&gt;maps</title>
<path fill="none" stroke="black" d="M582,-287.697C582,-279.983 582,-270.712 582,-262.112"/>
<polygon fill="black" stroke="black" points="585.5,-262.104 582,-252.104 578.5,-262.104 585.5,-262.104"/>
</g>
<!-- topography -->
<g id="node8" class="node"><title>topography</title>
<g id="a_node8"><a xlink:href="group__mrpt__topography__grp.html" xlink:title="mrpt&#45;topography">
<polygon fill="#d0d0d0" stroke="black" points="518,-252 406,-252 406,-216 518,-216 518,-252"/>
<text text-anchor="middle" x="462" y="-230.3" font-family="Times New Roman,serif" font-size="14.00">mrpt&#45;topography</text>
</a>
</g>
</g>
<!-- topography&#45;&gt;obs -->
<g id="edge12" class="edge"><title>topography&#45;&gt;obs</title>
<path fill="none" stroke="black" d="M518.484,-219.333C569.693,-206.798 641.264,-188.875 669,-180 669.097,-179.969 669.195,-179.938 669.293,-179.906"/>
<polygon fill="black" stroke="black" points="670.213,-183.29 678.55,-176.753 667.956,-176.664 670.213,-183.29"/>
</g>
<!-- scanmatching -->
<g id="node11" class="node"><title>scanmatching</title>
<g id="a_node11"><a xlink:href="group__mrpt__scanmatching__grp.html" xlink:title="mrpt&#45;scanmatching">
<polygon fill="#d0d0d0" stroke="black" points="422.25,-180 299.75,-180 299.75,-144 422.25,-144 422.25,-180"/>
<text text-anchor="middle" x="361" y="-158.3" font-family="Times New Roman,serif" font-size="14.00">mrpt&#45;scanmatching</text>
</a>
</g>
</g>
<!-- topography&#45;&gt;scanmatching -->
<g id="edge13" class="edge"><title>topography&#45;&gt;scanmatching</title>
<path fill="none" stroke="black" d="M437.293,-215.876C424.331,-206.893 408.272,-195.763 394.235,-186.034"/>
<polygon fill="black" stroke="black" points="396.015,-183.009 385.802,-180.19 392.028,-188.763 396.015,-183.009"/>
</g>
<!-- maps&#45;&gt;obs -->
<g id="edge15" class="edge"><title>maps&#45;&gt;obs</title>
<path fill="none" stroke="black" d="M614.046,-215.876C631.492,-206.554 653.265,-194.919 671.943,-184.939"/>
<polygon fill="black" stroke="black" points="673.66,-187.99 680.831,-180.19 670.361,-181.816 673.66,-187.99"/>
</g>
<!-- vision -->
<g id="node10" class="node"><title>vision</title>
<g id="a_node10"><a xlink:href="group__mrpt__vision__grp.html" xlink:title="mrpt&#45;vision">
<polygon fill="#d0d0d0" stroke="black" points="723,-252 643,-252 643,-216 723,-216 723,-252"/>
<text text-anchor="middle" x="683" y="-230.3" font-family="Times New Roman,serif" font-size="14.00">mrpt&#45;vision</text>
</a>
</g>
</g>
<!-- vision&#45;&gt;obs -->
<g id="edge14" class="edge"><title>vision&#45;&gt;obs</title>
<path fill="none" stroke="black" d="M690.416,-215.697C693.794,-207.813 697.87,-198.304 701.623,-189.546"/>
<polygon fill="black" stroke="black" points="704.947,-190.675 705.67,-180.104 698.513,-187.917 704.947,-190.675"/>
</g>
<!-- scanmatching&#45;&gt;base -->
<g id="edge5" class="edge"><title>scanmatching&#45;&gt;base</title>
<path fill="none" stroke="black" d="M356.074,-143.859C350.844,-125.878 342.213,-96.835 334,-72 331.163,-63.4228 327.899,-54.1309 324.884,-45.7582"/>
<polygon fill="black" stroke="black" points="328.084,-44.3137 321.378,-36.1111 321.505,-46.7051 328.084,-44.3137"/>
</g>
<!-- slam -->
<g id="node12" class="node"><title>slam</title>
<g id="a_node12"><a xlink:href="group__mrpt__slam__grp.html" xlink:title="mrpt&#45;slam">
<polygon fill="#d0d0d0" stroke="black" points="408.25,-324 335.75,-324 335.75,-288 408.25,-288 408.25,-324"/>
<text text-anchor="middle" x="372" y="-302.3" font-family="Times New Roman,serif" font-size="14.00">mrpt&#45;slam</text>
</a>
</g>
</g>
<!-- slam&#45;&gt;graphs -->
<g id="edge20" class="edge"><title>slam&#45;&gt;graphs</title>
<path fill="none" stroke="black" d="M335.407,-291.003C308.96,-280.886 272.8,-267.055 243.035,-255.669"/>
<polygon fill="black" stroke="black" points="244.206,-252.37 233.616,-252.066 241.706,-258.908 244.206,-252.37"/>
</g>
<!-- slam&#45;&gt;bayes -->
<g id="edge19" class="edge"><title>slam&#45;&gt;bayes</title>
<path fill="none" stroke="black" d="M357.296,-287.654C338.592,-264.622 306.718,-221.952 290,-180 282.118,-160.221 278.097,-136.421 276.058,-118.41"/>
<polygon fill="black" stroke="black" points="279.524,-117.895 275.05,-108.291 272.558,-118.589 279.524,-117.895"/>
</g>
<!-- slam&#45;&gt;maps -->
<g id="edge16" class="edge"><title>slam&#45;&gt;maps</title>
<path fill="none" stroke="black" d="M408.579,-292.807C443.314,-281.229 495.743,-263.752 533.859,-251.047"/>
<polygon fill="black" stroke="black" points="535.332,-254.246 543.712,-247.763 533.118,-247.605 535.332,-254.246"/>
</g>
<!-- slam&#45;&gt;vision -->
<g id="edge17" class="edge"><title>slam&#45;&gt;vision</title>
<path fill="none" stroke="black" d="M408.445,-298.69C458.5,-289.751 551.176,-272.219 629,-252 630.257,-251.673 631.529,-251.335 632.81,-250.987"/>
<polygon fill="black" stroke="black" points="634.069,-254.268 642.732,-248.169 632.156,-247.534 634.069,-254.268"/>
</g>
<!-- slam&#45;&gt;scanmatching -->
<g id="edge18" class="edge"><title>slam&#45;&gt;scanmatching</title>
<path fill="none" stroke="black" d="M370.673,-287.871C368.798,-263.67 365.354,-219.211 363.122,-190.393"/>
<polygon fill="black" stroke="black" points="366.594,-189.889 362.332,-180.189 359.614,-190.43 366.594,-189.889"/>
</g>
<!-- graphslam -->
<g id="node13" class="node"><title>graphslam</title>
<g id="a_node13"><a xlink:href="group__mrpt__graphslam__grp.html" xlink:title="mrpt&#45;graphslam (.h)">
<polygon fill="#d0d0d0" stroke="black" points="128,-324 0,-324 0,-288 128,-288 128,-324"/>
<text text-anchor="middle" x="64" y="-302.3" font-family="Times New Roman,serif" font-size="14.00">mrpt&#45;graphslam (.h)</text>
</a>
</g>
</g>
<!-- graphslam&#45;&gt;graphs -->
<g id="edge21" class="edge"><title>graphslam&#45;&gt;graphs</title>
<path fill="none" stroke="black" d="M94.5784,-287.876C111.074,-278.639 131.624,-267.131 149.336,-257.212"/>
<polygon fill="black" stroke="black" points="151.289,-260.13 158.304,-252.19 147.869,-254.022 151.289,-260.13"/>
</g>
<!-- hmtslam -->
<g id="node14" class="node"><title>hmtslam</title>
<g id="a_node14"><a xlink:href="group__mrpt__hmtslam__grp.html" xlink:title="mrpt&#45;hmtslam">
<polygon fill="#d0d0d0" stroke="black" points="265,-396 171,-396 171,-360 265,-360 265,-396"/>
<text text-anchor="middle" x="218" y="-374.3" font-family="Times New Roman,serif" font-size="14.00">mrpt&#45;hmtslam</text>
</a>
</g>
</g>
<!-- hmtslam&#45;&gt;slam -->
<g id="edge25" class="edge"><title>hmtslam&#45;&gt;slam</title>
<path fill="none" stroke="black" d="M255.673,-359.876C276.943,-350.208 303.688,-338.051 326.168,-327.833"/>
<polygon fill="black" stroke="black" points="327.857,-330.91 335.513,-323.585 324.961,-324.537 327.857,-330.91"/>
</g>
<!-- hmtslam&#45;&gt;graphslam -->
<g id="edge26" class="edge"><title>hmtslam&#45;&gt;graphslam</title>
<path fill="none" stroke="black" d="M180.327,-359.876C159.368,-350.349 133.095,-338.407 110.823,-328.283"/>
<polygon fill="black" stroke="black" points="112.102,-325.02 101.55,-324.068 109.206,-331.393 112.102,-325.02"/>
</g>
<!-- nav -->
<g id="node15" class="node"><title>nav</title>
<g id="a_node15"><a xlink:href="group__mrpt__nav__grp.html" xlink:title="mrpt&#45;nav">
<polygon fill="#d0d0d0" stroke="black" points="317.25,-324 250.75,-324 250.75,-288 317.25,-288 317.25,-324"/>
<text text-anchor="middle" x="284" y="-302.3" font-family="Times New Roman,serif" font-size="14.00">mrpt&#45;nav</text>
</a>
</g>
</g>
<!-- nav&#45;&gt;graphs -->
<g id="edge28" class="edge"><title>nav&#45;&gt;graphs</title>
<path fill="none" stroke="black" d="M260.517,-287.697C248.437,-278.796 233.546,-267.823 220.484,-258.199"/>
<polygon fill="black" stroke="black" points="222.34,-255.219 212.213,-252.104 218.187,-260.854 222.34,-255.219"/>
</g>
<!-- nav&#45;&gt;maps -->
<g id="edge27" class="edge"><title>nav&#45;&gt;maps</title>
<path fill="none" stroke="black" d="M317.25,-290.815C320.183,-289.786 323.128,-288.829 326,-288 413.197,-262.84 438.814,-273.44 527,-252 529.294,-251.442 531.634,-250.843 533.99,-250.214"/>
<polygon fill="black" stroke="black" points="535.016,-253.561 543.702,-247.494 533.129,-246.82 535.016,-253.561"/>
</g>
<!-- detectors -->
<g id="node16" class="node"><title>detectors</title>
<g id="a_node16"><a xlink:href="group__mrpt__detectors__grp.html" xlink:title="mrpt&#45;detectors">
<polygon fill="#d0d0d0" stroke="black" points="750.25,-324 651.75,-324 651.75,-288 750.25,-288 750.25,-324"/>
<text text-anchor="middle" x="701" y="-302.3" font-family="Times New Roman,serif" font-size="14.00">mrpt&#45;detectors</text>
</a>
</g>
</g>
<!-- detectors&#45;&gt;gui -->
<g id="edge24" class="edge"><title>detectors&#45;&gt;gui</title>
<path fill="none" stroke="black" d="M718.798,-287.697C727.604,-279.135 738.382,-268.656 748.001,-259.304"/>
<polygon fill="black" stroke="black" points="750.677,-261.585 755.407,-252.104 745.797,-256.566 750.677,-261.585"/>
</g>
<!-- detectors&#45;&gt;maps -->
<g id="edge23" class="edge"><title>detectors&#45;&gt;maps</title>
<path fill="none" stroke="black" d="M671.889,-287.876C656.33,-278.724 636.981,-267.342 620.224,-257.485"/>
<polygon fill="black" stroke="black" points="621.617,-254.243 611.223,-252.19 618.067,-260.277 621.617,-254.243"/>
</g>
<!-- detectors&#45;&gt;vision -->
<g id="edge22" class="edge"><title>detectors&#45;&gt;vision</title>
<path fill="none" stroke="black" d="M696.551,-287.697C694.545,-279.898 692.131,-270.509 689.899,-261.829"/>
<polygon fill="black" stroke="black" points="693.278,-260.918 687.398,-252.104 686.499,-262.661 693.278,-260.918"/>
</g>
<!-- kinematics -->
<g id="node17" class="node"><title>kinematics</title>
<g id="a_node17"><a xlink:href="group__mrpt__kinematics__grp.html" xlink:title="mrpt&#45;kinematics">
<polygon fill="#d0d0d0" stroke="black" points="547,-180 441,-180 441,-144 547,-144 547,-180"/>
<text text-anchor="middle" x="494" y="-158.3" font-family="Times New Roman,serif" font-size="14.00">mrpt&#45;kinematics</text>
</a>
</g>
</g>
<!-- kinematics&#45;&gt;opengl -->
<g id="edge3" class="edge"><title>kinematics&#45;&gt;opengl</title>
<path fill="none" stroke="black" d="M523.111,-143.876C538.67,-134.724 558.019,-123.342 574.776,-113.485"/>
<polygon fill="black" stroke="black" points="576.933,-116.277 583.777,-108.19 573.383,-110.243 576.933,-116.277"/>
</g>
<!-- srba -->
<g id="node18" class="node"><title>srba</title>
<g id="a_node18"><a xlink:href="group__mrpt__srba__grp.html" xlink:title="mrpt&#45;srba (.h)">
<polygon fill="#d0d0d0" stroke="black" points="660.25,-180 565.75,-180 565.75,-144 660.25,-144 660.25,-180"/>
<text text-anchor="middle" x="613" y="-158.3" font-family="Times New Roman,serif" font-size="14.00">mrpt&#45;srba (.h)</text>
</a>
</g>
</g>
<!-- srba&#45;&gt;opengl -->
<g id="edge1" class="edge"><title>srba&#45;&gt;opengl</title>
<path fill="none" stroke="black" d="M613,-143.697C613,-135.983 613,-126.712 613,-118.112"/>
<polygon fill="black" stroke="black" points="616.5,-118.104 613,-108.104 609.5,-118.104 616.5,-118.104"/>
</g>
<!-- pbmap -->
<g id="node19" class="node"><title>pbmap</title>
<g id="a_node19"><a xlink:href="group__mrpt__pbmap__grp.html" xlink:title="mrpt&#45;pbmap">
<polygon fill="#d0d0d0" stroke="black" points="232,-324 146,-324 146,-288 232,-288 232,-324"/>
<text text-anchor="middle" x="189" y="-302.3" font-family="Times New Roman,serif" font-size="14.00">mrpt&#45;pbmap</text>
</a>
</g>
</g>
<!-- pbmap&#45;&gt;graphs -->
<g id="edge2" class="edge"><title>pbmap&#45;&gt;graphs</title>
<path fill="none" stroke="black" d="M189,-287.697C189,-279.983 189,-270.712 189,-262.112"/>
<polygon fill="black" stroke="black" points="192.5,-262.104 189,-252.104 185.5,-262.104 192.5,-262.104"/>
</g>
</g>
</svg>
