<?xml version="1.0" encoding="UTF-8" standalone="no"?>
<!DOCTYPE svg PUBLIC "-//W3C//DTD SVG 1.1//EN"
 "http://www.w3.org/Graphics/SVG/1.1/DTD/svg11.dtd">
<!-- Generated by graphviz version 2.38.0 (20140413.2041)
 -->
<!-- Title: MRPT_LIBS Pages: 1 -->
<svg width="793pt" height="404pt"
 viewBox="0.00 0.00 792.50 404.00" xmlns="http://www.w3.org/2000/svg" xmlns:xlink="http://www.w3.org/1999/xlink">
<g id="graph0" class="graph" transform="scale(1 1) rotate(0) translate(4 400)">
<title>MRPT_LIBS</title>
<polygon fill="white" stroke="none" points="-4,4 -4,-400 788.5,-400 788.5,4 -4,4"/>
<!-- base -->
<g id="node1" class="node"><title>base</title>
<g id="a_node1"><a xlink:href="group__mrpt__base__grp.html" xlink:title="mrpt&#45;base">
<polygon fill="#d0d0d0" stroke="black" points="542.5,-36 469.5,-36 469.5,-0 542.5,-0 542.5,-36"/>
<text text-anchor="middle" x="506" y="-14.3" font-family="Times New Roman,serif" font-size="14.00">mrpt&#45;base</text>
</a>
</g>
</g>
<!-- graphs -->
<g id="node2" class="node"><title>graphs</title>
<g id="a_node2"><a xlink:href="group__mrpt__graphs__grp.html" xlink:title="mrpt&#45;graphs (.h)">
<polygon fill="#d0d0d0" stroke="black" points="256,-252 148,-252 148,-216 256,-216 256,-252"/>
<text text-anchor="middle" x="202" y="-230.3" font-family="Times New Roman,serif" font-size="14.00">mrpt&#45;graphs (.h)</text>
</a>
</g>
</g>
<!-- graphs&#45;&gt;base -->
<g id="edge3" class="edge"><title>graphs&#45;&gt;base</title>
<path fill="none" stroke="black" d="M207.3,-215.796C213.976,-196.425 227.047,-164.927 247,-144 306.155,-81.9593 402.461,-46.9115 459.478,-30.5557"/>
<polygon fill="black" stroke="black" points="460.617,-33.8716 469.306,-27.81 458.733,-27.1297 460.617,-33.8716"/>
</g>
<!-- bayes -->
<g id="node3" class="node"><title>bayes</title>
<g id="a_node3"><a xlink:href="group__mrpt__bayes__grp.html" xlink:title="mrpt&#45;bayes (.h)">
<polygon fill="#d0d0d0" stroke="black" points="784.5,-108 681.5,-108 681.5,-72 784.5,-72 784.5,-108"/>
<text text-anchor="middle" x="733" y="-86.3" font-family="Times New Roman,serif" font-size="14.00">mrpt&#45;bayes (.h)</text>
</a>
</g>
</g>
<!-- bayes&#45;&gt;base -->
<g id="edge5" class="edge"><title>bayes&#45;&gt;base</title>
<path fill="none" stroke="black" d="M681.49,-73.1159C642.705,-61.1556 589.988,-44.8992 552.482,-33.3337"/>
<polygon fill="black" stroke="black" points="553.4,-29.9542 542.813,-30.3519 551.337,-36.6433 553.4,-29.9542"/>
</g>
<!-- opengl -->
<g id="node4" class="node"><title>opengl</title>
<g id="a_node4"><a xlink:href="group__mrpt__opengl__grp.html" xlink:title="mrpt&#45;opengl">
<polygon fill="#d0d0d0" stroke="black" points="468.5,-108 383.5,-108 383.5,-72 468.5,-72 468.5,-108"/>
<text text-anchor="middle" x="426" y="-86.3" font-family="Times New Roman,serif" font-size="14.00">mrpt&#45;opengl</text>
</a>
</g>
</g>
<!-- opengl&#45;&gt;base -->
<g id="edge6" class="edge"><title>opengl&#45;&gt;base</title>
<path fill="none" stroke="black" d="M445.775,-71.6966C455.754,-62.9655 468.011,-52.2405 478.857,-42.7503"/>
<polygon fill="black" stroke="black" points="481.231,-45.3234 486.452,-36.1043 476.622,-40.0554 481.231,-45.3234"/>
</g>
<!-- gui -->
<g id="node5" class="node"><title>gui</title>
<g id="a_node5"><a xlink:href="group__mrpt__gui__grp.html" xlink:title="mrpt&#45;gui">
<polygon fill="#d0d0d0" stroke="black" points="376,-252 312,-252 312,-216 376,-216 376,-252"/>
<text text-anchor="middle" x="344" y="-230.3" font-family="Times New Roman,serif" font-size="14.00">mrpt&#45;gui</text>
</a>
</g>
</g>
<!-- gui&#45;&gt;opengl -->
<g id="edge8" class="edge"><title>gui&#45;&gt;opengl</title>
<path fill="none" stroke="black" d="M353.891,-215.871C368.113,-191.244 394.449,-145.638 411.053,-116.885"/>
<polygon fill="black" stroke="black" points="414.104,-118.599 416.074,-108.189 408.042,-115.099 414.104,-118.599"/>
</g>
<!-- obs -->
<g id="node6" class="node"><title>obs</title>
<g id="a_node6"><a xlink:href="group__mrpt__obs__grp.html" xlink:title="mrpt&#45;obs">
<polygon fill="#d0d0d0" stroke="black" points="515,-180 447,-180 447,-144 515,-144 515,-180"/>
<text text-anchor="middle" x="481" y="-158.3" font-family="Times New Roman,serif" font-size="14.00">mrpt&#45;obs</text>
</a>
</g>
</g>
<!-- obs&#45;&gt;opengl -->
<g id="edge7" class="edge"><title>obs&#45;&gt;opengl</title>
<path fill="none" stroke="black" d="M467.404,-143.697C460.877,-135.389 452.932,-125.277 445.753,-116.141"/>
<polygon fill="black" stroke="black" points="448.369,-113.805 439.439,-108.104 442.865,-118.13 448.369,-113.805"/>
</g>
<!-- hwdrivers -->
<g id="node7" class="node"><title>hwdrivers</title>
<g id="a_node7"><a xlink:href="group__mrpt__hwdrivers__grp.html" xlink:title="mrpt&#45;hwdrivers">
<polygon fill="#d0d0d0" stroke="black" points="438,-324 336,-324 336,-288 438,-288 438,-324"/>
<text text-anchor="middle" x="387" y="-302.3" font-family="Times New Roman,serif" font-size="14.00">mrpt&#45;hwdrivers</text>
</a>
</g>
</g>
<!-- hwdrivers&#45;&gt;gui -->
<g id="edge9" class="edge"><title>hwdrivers&#45;&gt;gui</title>
<path fill="none" stroke="black" d="M376.371,-287.697C371.372,-279.559 365.309,-269.689 359.788,-260.701"/>
<polygon fill="black" stroke="black" points="362.723,-258.793 354.507,-252.104 356.759,-262.457 362.723,-258.793"/>
</g>
<!-- maps -->
<g id="node9" class="node"><title>maps</title>
<g id="a_node9"><a xlink:href="group__mrpt__maps__grp.html" xlink:title="mrpt&#45;maps">
<polygon fill="#d0d0d0" stroke="black" points="471.5,-252 394.5,-252 394.5,-216 471.5,-216 471.5,-252"/>
<text text-anchor="middle" x="433" y="-230.3" font-family="Times New Roman,serif" font-size="14.00">mrpt&#45;maps</text>
</a>
</g>
</g>
<!-- hwdrivers&#45;&gt;maps -->
<g id="edge10" class="edge"><title>hwdrivers&#45;&gt;maps</title>
<path fill="none" stroke="black" d="M398.371,-287.697C403.718,-279.559 410.204,-269.689 416.111,-260.701"/>
<polygon fill="black" stroke="black" points="419.193,-262.384 421.76,-252.104 413.343,-258.539 419.193,-262.384"/>
</g>
<!-- topography -->
<g id="node8" class="node"><title>topography</title>
<g id="a_node8"><a xlink:href="group__mrpt__topography__grp.html" xlink:title="mrpt&#45;topography">
<polygon fill="#d0d0d0" stroke="black" points="700,-252 588,-252 588,-216 700,-216 700,-252"/>
<text text-anchor="middle" x="644" y="-230.3" font-family="Times New Roman,serif" font-size="14.00">mrpt&#45;topography</text>
</a>
</g>
</g>
<!-- topography&#45;&gt;obs -->
<g id="edge11" class="edge"><title>topography&#45;&gt;obs</title>
<path fill="none" stroke="black" d="M604.126,-215.876C580.079,-205.549 549.425,-192.385 524.719,-181.775"/>
<polygon fill="black" stroke="black" points="525.793,-178.427 515.224,-177.697 523.031,-184.859 525.793,-178.427"/>
</g>
<!-- tfest -->
<g id="node11" class="node"><title>tfest</title>
<g id="a_node11"><a xlink:href="group__mrpt__tfest__grp.html" xlink:title="mrpt&#45;tfest">
<polygon fill="#d0d0d0" stroke="black" points="679.5,-180 608.5,-180 608.5,-144 679.5,-144 679.5,-180"/>
<text text-anchor="middle" x="644" y="-158.3" font-family="Times New Roman,serif" font-size="14.00">mrpt&#45;tfest</text>
</a>
</g>
</g>
<!-- topography&#45;&gt;tfest -->
<g id="edge12" class="edge"><title>topography&#45;&gt;tfest</title>
<path fill="none" stroke="black" d="M644,-215.697C644,-207.983 644,-198.712 644,-190.112"/>
<polygon fill="black" stroke="black" points="647.5,-190.104 644,-180.104 640.5,-190.104 647.5,-190.104"/>
</g>
<!-- maps&#45;&gt;obs -->
<g id="edge14" class="edge"><title>maps&#45;&gt;obs</title>
<path fill="none" stroke="black" d="M444.865,-215.697C450.503,-207.474 457.354,-197.483 463.569,-188.421"/>
<polygon fill="black" stroke="black" points="466.503,-190.331 469.271,-180.104 460.729,-186.372 466.503,-190.331"/>
</g>
<!-- vision -->
<g id="node10" class="node"><title>vision</title>
<g id="a_node10"><a xlink:href="group__mrpt__vision__grp.html" xlink:title="mrpt&#45;vision">
<polygon fill="#d0d0d0" stroke="black" points="570,-252 490,-252 490,-216 570,-216 570,-252"/>
<text text-anchor="middle" x="530" y="-230.3" font-family="Times New Roman,serif" font-size="14.00">mrpt&#45;vision</text>
</a>
</g>
</g>
<!-- vision&#45;&gt;obs -->
<g id="edge13" class="edge"><title>vision&#45;&gt;obs</title>
<path fill="none" stroke="black" d="M517.888,-215.697C512.132,-207.474 505.138,-197.483 498.794,-188.421"/>
<polygon fill="black" stroke="black" points="501.575,-186.29 492.973,-180.104 495.84,-190.304 501.575,-186.29"/>
</g>
<!-- tfest&#45;&gt;base -->
<g id="edge4" class="edge"><title>tfest&#45;&gt;base</title>
<path fill="none" stroke="black" d="M627.354,-143.871C603.006,-118.817 557.558,-72.0519 529.719,-43.4062"/>
<polygon fill="black" stroke="black" points="532.184,-40.9214 522.705,-36.1893 527.164,-45.7999 532.184,-40.9214"/>
</g>
<!-- slam -->
<g id="node12" class="node"><title>slam</title>
<g id="a_node12"><a xlink:href="group__mrpt__slam__grp.html" xlink:title="mrpt&#45;slam">
<polygon fill="#d0d0d0" stroke="black" points="646.5,-324 573.5,-324 573.5,-288 646.5,-288 646.5,-324"/>
<text text-anchor="middle" x="610" y="-302.3" font-family="Times New Roman,serif" font-size="14.00">mrpt&#45;slam</text>
</a>
</g>
</g>
<!-- slam&#45;&gt;graphs -->
<g id="edge19" class="edge"><title>slam&#45;&gt;graphs</title>
<path fill="none" stroke="black" d="M573.314,-290.644C570.189,-289.665 567.056,-288.766 564,-288 450.414,-259.537 418.75,-269.72 303,-252 291.122,-250.182 278.477,-248.139 266.298,-246.116"/>
<polygon fill="black" stroke="black" points="266.644,-242.626 256.204,-244.428 265.489,-249.53 266.644,-242.626"/>
</g>
<!-- slam&#45;&gt;bayes -->
<g id="edge18" class="edge"><title>slam&#45;&gt;bayes</title>
<path fill="none" stroke="black" d="M646.674,-298.697C673.47,-292 708.124,-278.535 726,-252 753.057,-211.836 746.725,-152.38 739.786,-118.083"/>
<polygon fill="black" stroke="black" points="743.202,-117.319 737.65,-108.296 736.363,-118.812 743.202,-117.319"/>
</g>
<!-- slam&#45;&gt;maps -->
<g id="edge15" class="edge"><title>slam&#45;&gt;maps</title>
<path fill="none" stroke="black" d="M573.325,-290.496C546.67,-279.954 510.33,-265.582 481.31,-254.106"/>
<polygon fill="black" stroke="black" points="482.36,-250.757 471.773,-250.334 479.785,-257.266 482.36,-250.757"/>
</g>
<!-- slam&#45;&gt;vision -->
<g id="edge16" class="edge"><title>slam&#45;&gt;vision</title>
<path fill="none" stroke="black" d="M590.225,-287.697C580.246,-278.965 567.989,-268.24 557.143,-258.75"/>
<polygon fill="black" stroke="black" points="559.378,-256.055 549.548,-252.104 554.769,-261.323 559.378,-256.055"/>
</g>
<!-- slam&#45;&gt;tfest -->
<g id="edge17" class="edge"><title>slam&#45;&gt;tfest</title>
<path fill="none" stroke="black" d="M646.876,-295.632C669.081,-287.882 695.577,-274.412 709,-252 717.221,-238.274 715.864,-230.453 709,-216 703.431,-204.273 693.856,-194.285 683.741,-186.248"/>
<polygon fill="black" stroke="black" points="685.704,-183.347 675.58,-180.224 681.547,-188.979 685.704,-183.347"/>
</g>
<!-- graphslam -->
<g id="node13" class="node"><title>graphslam</title>
<g id="a_node13"><a xlink:href="group__mrpt__graphslam__grp.html" xlink:title="mrpt&#45;graphslam (.h)">
<polygon fill="#d0d0d0" stroke="black" points="128,-324 0,-324 0,-288 128,-288 128,-324"/>
<text text-anchor="middle" x="64" y="-302.3" font-family="Times New Roman,serif" font-size="14.00">mrpt&#45;graphslam (.h)</text>
</a>
</g>
</g>
<!-- graphslam&#45;&gt;graphs -->
<g id="edge20" class="edge"><title>graphslam&#45;&gt;graphs</title>
<path fill="none" stroke="black" d="M97.7586,-287.876C116.22,-278.512 139.282,-266.814 159.017,-256.803"/>
<polygon fill="black" stroke="black" points="160.777,-259.835 168.112,-252.19 157.61,-253.592 160.777,-259.835"/>
</g>
<!-- hmtslam -->
<g id="node14" class="node"><title>hmtslam</title>
<g id="a_node14"><a xlink:href="group__mrpt__hmtslam__grp.html" xlink:title="mrpt&#45;hmtslam">
<polygon fill="#d0d0d0" stroke="black" points="384,-396 290,-396 290,-360 384,-360 384,-396"/>
<text text-anchor="middle" x="337" y="-374.3" font-family="Times New Roman,serif" font-size="14.00">mrpt&#45;hmtslam</text>
</a>
</g>
</g>
<!-- hmtslam&#45;&gt;slam -->
<g id="edge24" class="edge"><title>hmtslam&#45;&gt;slam</title>
<path fill="none" stroke="black" d="M384.404,-367.73C428.476,-358.71 496.055,-343.862 563.529,-323.94"/>
<polygon fill="black" stroke="black" points="564.903,-327.182 573.481,-320.963 562.897,-320.475 564.903,-327.182"/>
</g>
<!-- hmtslam&#45;&gt;graphslam -->
<g id="edge25" class="edge"><title>hmtslam&#45;&gt;graphslam</title>
<path fill="none" stroke="black" d="M289.759,-364.887C247.926,-354.161 186.176,-338.327 137.827,-325.93"/>
<polygon fill="black" stroke="black" points="138.591,-322.513 128.035,-323.419 136.853,-329.293 138.591,-322.513"/>
</g>
<!-- nav -->
<g id="node15" class="node"><title>nav</title>
<g id="a_node15"><a xlink:href="group__mrpt__nav__grp.html" xlink:title="mrpt&#45;nav">
<polygon fill="#d0d0d0" stroke="black" points="317.5,-324 250.5,-324 250.5,-288 317.5,-288 317.5,-324"/>
<text text-anchor="middle" x="284" y="-302.3" font-family="Times New Roman,serif" font-size="14.00">mrpt&#45;nav</text>
</a>
</g>
</g>
<!-- nav&#45;&gt;graphs -->
<g id="edge27" class="edge"><title>nav&#45;&gt;graphs</title>
<path fill="none" stroke="black" d="M263.73,-287.697C253.502,-278.965 240.939,-268.24 229.822,-258.75"/>
<polygon fill="black" stroke="black" points="231.915,-255.935 222.037,-252.104 227.37,-261.259 231.915,-255.935"/>
</g>
<!-- nav&#45;&gt;maps -->
<g id="edge26" class="edge"><title>nav&#45;&gt;maps</title>
<path fill="none" stroke="black" d="M317.81,-289.116C338.396,-279.445 364.96,-266.965 387.39,-256.428"/>
<polygon fill="black" stroke="black" points="389.158,-259.464 396.72,-252.044 386.181,-253.129 389.158,-259.464"/>
</g>
<!-- kinematics -->
<g id="node17" class="node"><title>kinematics</title>
<g id="a_node17"><a xlink:href="group__mrpt__kinematics__grp.html" xlink:title="mrpt&#45;kinematics">
<polygon fill="#d0d0d0" stroke="black" points="362,-180 256,-180 256,-144 362,-144 362,-180"/>
<text text-anchor="middle" x="309" y="-158.3" font-family="Times New Roman,serif" font-size="14.00">mrpt&#45;kinematics</text>
</a>
</g>
</g>
<!-- nav&#45;&gt;kinematics -->
<g id="edge28" class="edge"><title>nav&#45;&gt;kinematics</title>
<path fill="none" stroke="black" d="M287.016,-287.871C291.276,-263.67 299.104,-219.211 304.177,-190.393"/>
<polygon fill="black" stroke="black" points="307.687,-190.645 305.974,-180.189 300.793,-189.431 307.687,-190.645"/>
</g>
<!-- detectors -->
<g id="node16" class="node"><title>detectors</title>
<g id="a_node16"><a xlink:href="group__mrpt__detectors__grp.html" xlink:title="mrpt&#45;detectors">
<polygon fill="#d0d0d0" stroke="black" points="555.5,-324 456.5,-324 456.5,-288 555.5,-288 555.5,-324"/>
<text text-anchor="middle" x="506" y="-302.3" font-family="Times New Roman,serif" font-size="14.00">mrpt&#45;detectors</text>
</a>
</g>
</g>
<!-- detectors&#45;&gt;gui -->
<g id="edge23" class="edge"><title>detectors&#45;&gt;gui</title>
<path fill="none" stroke="black" d="M466.37,-287.876C441.784,-277.253 410.248,-263.625 385.347,-252.866"/>
<polygon fill="black" stroke="black" points="386.725,-249.649 376.157,-248.895 383.949,-256.075 386.725,-249.649"/>
</g>
<!-- detectors&#45;&gt;maps -->
<g id="edge22" class="edge"><title>detectors&#45;&gt;maps</title>
<path fill="none" stroke="black" d="M487.955,-287.697C478.938,-279.05 467.882,-268.449 458.057,-259.027"/>
<polygon fill="black" stroke="black" points="460.478,-256.499 450.837,-252.104 455.633,-261.552 460.478,-256.499"/>
</g>
<!-- detectors&#45;&gt;vision -->
<g id="edge21" class="edge"><title>detectors&#45;&gt;vision</title>
<path fill="none" stroke="black" d="M511.933,-287.697C514.606,-279.898 517.826,-270.509 520.801,-261.829"/>
<polygon fill="black" stroke="black" points="524.203,-262.699 524.136,-252.104 517.582,-260.429 524.203,-262.699"/>
</g>
<!-- kinematics&#45;&gt;opengl -->
<g id="edge2" class="edge"><title>kinematics&#45;&gt;opengl</title>
<path fill="none" stroke="black" d="M337.621,-143.876C352.919,-134.724 371.943,-123.342 388.418,-113.485"/>
<polygon fill="black" stroke="black" points="390.484,-116.327 397.269,-108.19 386.89,-110.32 390.484,-116.327"/>
</g>
<!-- pbmap -->
<g id="node18" class="node"><title>pbmap</title>
<g id="a_node18"><a xlink:href="group__mrpt__pbmap__grp.html" xlink:title="mrpt&#45;pbmap">
<polygon fill="#d0d0d0" stroke="black" points="232,-324 146,-324 146,-288 232,-288 232,-324"/>
<text text-anchor="middle" x="189" y="-302.3" font-family="Times New Roman,serif" font-size="14.00">mrpt&#45;pbmap</text>
</a>
</g>
</g>
<!-- pbmap&#45;&gt;graphs -->
<g id="edge1" class="edge"><title>pbmap&#45;&gt;graphs</title>
<path fill="none" stroke="black" d="M192.213,-287.697C193.646,-279.983 195.368,-270.712 196.965,-262.112"/>
<polygon fill="black" stroke="black" points="200.439,-262.575 198.823,-252.104 193.556,-261.297 200.439,-262.575"/>
</g>
</g>
</svg>
