<?xml version="1.0" encoding="UTF-8" standalone="no"?>
<!DOCTYPE svg PUBLIC "-//W3C//DTD SVG 1.1//EN"
 "http://www.w3.org/Graphics/SVG/1.1/DTD/svg11.dtd">
<!-- Generated by graphviz version 2.38.0 (20140413.2041)
 -->
<!-- Title: MRPT_LIBS Pages: 1 -->
<svg width="719pt" height="404pt"
 viewBox="0.00 0.00 718.50 404.00" xmlns="http://www.w3.org/2000/svg" xmlns:xlink="http://www.w3.org/1999/xlink">
<g id="graph0" class="graph" transform="scale(1 1) rotate(0) translate(4 400)">
<title>MRPT_LIBS</title>
<polygon fill="white" stroke="none" points="-4,4 -4,-400 714.5,-400 714.5,4 -4,4"/>
<!-- base -->
<g id="node1" class="node"><title>base</title>
<g id="a_node1"><a xlink:href="group__mrpt__base__grp.html" xlink:title="mrpt&#45;base">
<polygon fill="#d0d0d0" stroke="black" points="517.5,-36 444.5,-36 444.5,-0 517.5,-0 517.5,-36"/>
<text text-anchor="middle" x="481" y="-14.3" font-family="Times New Roman,serif" font-size="14.00">mrpt&#45;base</text>
</a>
</g>
</g>
<!-- graphs -->
<g id="node2" class="node"><title>graphs</title>
<g id="a_node2"><a xlink:href="group__mrpt__graphs__grp.html" xlink:title="mrpt&#45;graphs">
<polygon fill="#d0d0d0" stroke="black" points="572.5,-180 487.5,-180 487.5,-144 572.5,-144 572.5,-180"/>
<text text-anchor="middle" x="530" y="-158.3" font-family="Times New Roman,serif" font-size="14.00">mrpt&#45;graphs</text>
</a>
</g>
</g>
<!-- graphs&#45;&gt;base -->
<g id="edge3" class="edge"><title>graphs&#45;&gt;base</title>
<path fill="none" stroke="black" d="M524.089,-143.871C515.702,-119.564 500.261,-74.8187 490.321,-46.0132"/>
<polygon fill="black" stroke="black" points="493.502,-44.5006 486.932,-36.1893 486.885,-46.784 493.502,-44.5006"/>
</g>
<!-- bayes -->
<g id="node3" class="node"><title>bayes</title>
<g id="a_node3"><a xlink:href="group__mrpt__bayes__grp.html" xlink:title="mrpt&#45;bayes (.h)">
<polygon fill="#d0d0d0" stroke="black" points="710.5,-108 607.5,-108 607.5,-72 710.5,-72 710.5,-108"/>
<text text-anchor="middle" x="659" y="-86.3" font-family="Times New Roman,serif" font-size="14.00">mrpt&#45;bayes (.h)</text>
</a>
</g>
</g>
<!-- bayes&#45;&gt;base -->
<g id="edge5" class="edge"><title>bayes&#45;&gt;base</title>
<path fill="none" stroke="black" d="M615.456,-71.8761C588.665,-61.34 554.36,-47.8496 527.108,-37.1323"/>
<polygon fill="black" stroke="black" points="528.374,-33.8692 517.786,-33.4666 525.812,-40.3836 528.374,-33.8692"/>
</g>
<!-- opengl -->
<g id="node4" class="node"><title>opengl</title>
<g id="a_node4"><a xlink:href="group__mrpt__opengl__grp.html" xlink:title="mrpt&#45;opengl">
<polygon fill="#d0d0d0" stroke="black" points="242.5,-108 157.5,-108 157.5,-72 242.5,-72 242.5,-108"/>
<text text-anchor="middle" x="200" y="-86.3" font-family="Times New Roman,serif" font-size="14.00">mrpt&#45;opengl</text>
</a>
</g>
</g>
<!-- opengl&#45;&gt;base -->
<g id="edge6" class="edge"><title>opengl&#45;&gt;base</title>
<path fill="none" stroke="black" d="M242.678,-78.3685C294.315,-65.5052 380.948,-43.924 434.319,-30.6287"/>
<polygon fill="black" stroke="black" points="435.348,-33.9794 444.206,-28.1659 433.656,-27.187 435.348,-33.9794"/>
</g>
<!-- gui -->
<g id="node5" class="node"><title>gui</title>
<g id="a_node5"><a xlink:href="group__mrpt__gui__grp.html" xlink:title="mrpt&#45;gui">
<polygon fill="#d0d0d0" stroke="black" points="64,-252 0,-252 0,-216 64,-216 64,-252"/>
<text text-anchor="middle" x="32" y="-230.3" font-family="Times New Roman,serif" font-size="14.00">mrpt&#45;gui</text>
</a>
</g>
</g>
<!-- gui&#45;&gt;opengl -->
<g id="edge8" class="edge"><title>gui&#45;&gt;opengl</title>
<path fill="none" stroke="black" d="M35.6908,-215.707C40.7335,-195.957 51.5783,-163.822 72,-144 92.7215,-123.887 122.161,-110.982 147.583,-102.948"/>
<polygon fill="black" stroke="black" points="148.882,-106.213 157.465,-100.001 146.881,-99.5054 148.882,-106.213"/>
</g>
<!-- obs -->
<g id="node6" class="node"><title>obs</title>
<g id="a_node6"><a xlink:href="group__mrpt__obs__grp.html" xlink:title="mrpt&#45;obs">
<polygon fill="#d0d0d0" stroke="black" points="301,-180 233,-180 233,-144 301,-144 301,-180"/>
<text text-anchor="middle" x="267" y="-158.3" font-family="Times New Roman,serif" font-size="14.00">mrpt&#45;obs</text>
</a>
</g>
</g>
<!-- obs&#45;&gt;opengl -->
<g id="edge7" class="edge"><title>obs&#45;&gt;opengl</title>
<path fill="none" stroke="black" d="M250.438,-143.697C242.325,-135.22 232.412,-124.864 223.529,-115.583"/>
<polygon fill="black" stroke="black" points="225.814,-112.908 216.371,-108.104 220.757,-117.749 225.814,-112.908"/>
</g>
<!-- hwdrivers -->
<g id="node7" class="node"><title>hwdrivers</title>
<g id="a_node7"><a xlink:href="group__mrpt__hwdrivers__grp.html" xlink:title="mrpt&#45;hwdrivers">
<polygon fill="#d0d0d0" stroke="black" points="322,-324 220,-324 220,-288 322,-288 322,-324"/>
<text text-anchor="middle" x="271" y="-302.3" font-family="Times New Roman,serif" font-size="14.00">mrpt&#45;hwdrivers</text>
</a>
</g>
</g>
<!-- hwdrivers&#45;&gt;gui -->
<g id="edge9" class="edge"><title>hwdrivers&#45;&gt;gui</title>
<path fill="none" stroke="black" d="M219.751,-290.695C216.452,-289.781 213.18,-288.877 210,-288 151.378,-271.838 135.908,-270.558 78,-252 76.5811,-251.545 75.1413,-251.073 73.69,-250.589"/>
<polygon fill="black" stroke="black" points="74.6405,-247.214 64.0458,-247.251 72.3513,-253.829 74.6405,-247.214"/>
</g>
<!-- maps -->
<g id="node9" class="node"><title>maps</title>
<g id="a_node9"><a xlink:href="group__mrpt__maps__grp.html" xlink:title="mrpt&#45;maps">
<polygon fill="#d0d0d0" stroke="black" points="425.5,-252 348.5,-252 348.5,-216 425.5,-216 425.5,-252"/>
<text text-anchor="middle" x="387" y="-230.3" font-family="Times New Roman,serif" font-size="14.00">mrpt&#45;maps</text>
</a>
</g>
</g>
<!-- hwdrivers&#45;&gt;maps -->
<g id="edge10" class="edge"><title>hwdrivers&#45;&gt;maps</title>
<path fill="none" stroke="black" d="M299.377,-287.876C314.544,-278.724 333.405,-267.342 349.739,-257.485"/>
<polygon fill="black" stroke="black" points="351.761,-260.353 358.514,-252.19 348.144,-254.36 351.761,-260.353"/>
</g>
<!-- topography -->
<g id="node8" class="node"><title>topography</title>
<g id="a_node8"><a xlink:href="group__mrpt__topography__grp.html" xlink:title="mrpt&#45;topography">
<polygon fill="#d0d0d0" stroke="black" points="330,-252 218,-252 218,-216 330,-216 330,-252"/>
<text text-anchor="middle" x="274" y="-230.3" font-family="Times New Roman,serif" font-size="14.00">mrpt&#45;topography</text>
</a>
</g>
</g>
<!-- topography&#45;&gt;obs -->
<g id="edge11" class="edge"><title>topography&#45;&gt;obs</title>
<path fill="none" stroke="black" d="M272.27,-215.697C271.498,-207.983 270.571,-198.712 269.711,-190.112"/>
<polygon fill="black" stroke="black" points="273.188,-189.706 268.71,-180.104 266.223,-190.403 273.188,-189.706"/>
</g>
<!-- tfest -->
<g id="node11" class="node"><title>tfest</title>
<g id="a_node11"><a xlink:href="group__mrpt__tfest__grp.html" xlink:title="mrpt&#45;tfest">
<polygon fill="#d0d0d0" stroke="black" points="469.5,-180 398.5,-180 398.5,-144 469.5,-144 469.5,-180"/>
<text text-anchor="middle" x="434" y="-158.3" font-family="Times New Roman,serif" font-size="14.00">mrpt&#45;tfest</text>
</a>
</g>
</g>
<!-- topography&#45;&gt;tfest -->
<g id="edge12" class="edge"><title>topography&#45;&gt;tfest</title>
<path fill="none" stroke="black" d="M313.14,-215.876C336.091,-205.835 365.174,-193.112 389.059,-182.662"/>
<polygon fill="black" stroke="black" points="390.511,-185.847 398.269,-178.632 387.705,-179.434 390.511,-185.847"/>
</g>
<!-- maps&#45;&gt;graphs -->
<g id="edge15" class="edge"><title>maps&#45;&gt;graphs</title>
<path fill="none" stroke="black" d="M421.982,-215.876C441.198,-206.469 465.226,-194.708 485.737,-184.667"/>
<polygon fill="black" stroke="black" points="487.441,-187.73 494.884,-180.19 484.363,-181.443 487.441,-187.73"/>
</g>
<!-- maps&#45;&gt;obs -->
<g id="edge14" class="edge"><title>maps&#45;&gt;obs</title>
<path fill="none" stroke="black" d="M357.645,-215.876C341.955,-206.724 322.443,-195.342 305.546,-185.485"/>
<polygon fill="black" stroke="black" points="306.87,-182.205 296.468,-180.19 303.342,-188.252 306.87,-182.205"/>
</g>
<!-- vision -->
<g id="node10" class="node"><title>vision</title>
<g id="a_node10"><a xlink:href="group__mrpt__vision__grp.html" xlink:title="mrpt&#45;vision">
<polygon fill="#d0d0d0" stroke="black" points="200,-252 120,-252 120,-216 200,-216 200,-252"/>
<text text-anchor="middle" x="160" y="-230.3" font-family="Times New Roman,serif" font-size="14.00">mrpt&#45;vision</text>
</a>
</g>
</g>
<!-- vision&#45;&gt;obs -->
<g id="edge13" class="edge"><title>vision&#45;&gt;obs</title>
<path fill="none" stroke="black" d="M186.175,-215.876C200.036,-206.808 217.241,-195.552 232.211,-185.759"/>
<polygon fill="black" stroke="black" points="234.272,-188.593 240.724,-180.19 230.44,-182.735 234.272,-188.593"/>
</g>
<!-- tfest&#45;&gt;base -->
<g id="edge4" class="edge"><title>tfest&#45;&gt;base</title>
<path fill="none" stroke="black" d="M439.669,-143.871C447.715,-119.564 462.525,-74.8187 472.059,-46.0132"/>
<polygon fill="black" stroke="black" points="475.491,-46.7826 475.311,-36.1893 468.846,-44.583 475.491,-46.7826"/>
</g>
<!-- slam -->
<g id="node12" class="node"><title>slam</title>
<g id="a_node12"><a xlink:href="group__mrpt__slam__grp.html" xlink:title="mrpt&#45;slam">
<polygon fill="#d0d0d0" stroke="black" points="498.5,-324 425.5,-324 425.5,-288 498.5,-288 498.5,-324"/>
<text text-anchor="middle" x="462" y="-302.3" font-family="Times New Roman,serif" font-size="14.00">mrpt&#45;slam</text>
</a>
</g>
</g>
<!-- slam&#45;&gt;graphs -->
<g id="edge20" class="edge"><title>slam&#45;&gt;graphs</title>
<path fill="none" stroke="black" d="M479.589,-287.76C488.64,-278.012 499.177,-265.166 506,-252 516.095,-232.521 522.261,-208.381 525.81,-190.158"/>
<polygon fill="black" stroke="black" points="529.277,-190.656 527.608,-180.193 522.388,-189.413 529.277,-190.656"/>
</g>
<!-- slam&#45;&gt;bayes -->
<g id="edge19" class="edge"><title>slam&#45;&gt;bayes</title>
<path fill="none" stroke="black" d="M498.737,-290.835C501.851,-289.814 504.967,-288.853 508,-288 587.797,-265.561 638.346,-316.021 691,-252 722.905,-213.207 695.71,-151.516 675.671,-116.845"/>
<polygon fill="black" stroke="black" points="678.655,-115.016 670.517,-108.233 672.649,-118.611 678.655,-115.016"/>
</g>
<!-- slam&#45;&gt;maps -->
<g id="edge16" class="edge"><title>slam&#45;&gt;maps</title>
<path fill="none" stroke="black" d="M443.461,-287.697C434.197,-279.05 422.838,-268.449 412.743,-259.027"/>
<polygon fill="black" stroke="black" points="415.025,-256.369 405.326,-252.104 410.249,-261.486 415.025,-256.369"/>
</g>
<!-- slam&#45;&gt;vision -->
<g id="edge17" class="edge"><title>slam&#45;&gt;vision</title>
<path fill="none" stroke="black" d="M425.283,-290.761C422.165,-289.757 419.042,-288.819 416,-288 328.914,-264.545 301.288,-274.625 210.14,-252.054"/>
<polygon fill="black" stroke="black" points="210.773,-248.603 200.218,-249.532 209.048,-255.388 210.773,-248.603"/>
</g>
<!-- slam&#45;&gt;tfest -->
<g id="edge18" class="edge"><title>slam&#45;&gt;tfest</title>
<path fill="none" stroke="black" d="M458.623,-287.871C453.829,-263.564 445.007,-218.819 439.327,-190.013"/>
<polygon fill="black" stroke="black" points="442.758,-189.323 437.389,-180.189 435.89,-190.677 442.758,-189.323"/>
</g>
<!-- graphslam -->
<g id="node13" class="node"><title>graphslam</title>
<g id="a_node13"><a xlink:href="group__mrpt__graphslam__grp.html" xlink:title="mrpt&#45;graphslam (.h)">
<polygon fill="#d0d0d0" stroke="black" points="645,-324 517,-324 517,-288 645,-288 645,-324"/>
<text text-anchor="middle" x="581" y="-302.3" font-family="Times New Roman,serif" font-size="14.00">mrpt&#45;graphslam (.h)</text>
</a>
</g>
</g>
<!-- graphslam&#45;&gt;graphs -->
<g id="edge21" class="edge"><title>graphslam&#45;&gt;graphs</title>
<path fill="none" stroke="black" d="M574.848,-287.871C566.08,-263.457 549.906,-218.426 539.566,-189.635"/>
<polygon fill="black" stroke="black" points="542.848,-188.418 536.174,-180.189 536.26,-190.784 542.848,-188.418"/>
</g>
<!-- hmtslam -->
<g id="node14" class="node"><title>hmtslam</title>
<g id="a_node14"><a xlink:href="group__mrpt__hmtslam__grp.html" xlink:title="mrpt&#45;hmtslam">
<polygon fill="#d0d0d0" stroke="black" points="568,-396 474,-396 474,-360 568,-360 568,-396"/>
<text text-anchor="middle" x="521" y="-374.3" font-family="Times New Roman,serif" font-size="14.00">mrpt&#45;hmtslam</text>
</a>
</g>
</g>
<!-- hmtslam&#45;&gt;slam -->
<g id="edge25" class="edge"><title>hmtslam&#45;&gt;slam</title>
<path fill="none" stroke="black" d="M506.416,-359.697C499.342,-351.305 490.717,-341.07 482.955,-331.861"/>
<polygon fill="black" stroke="black" points="485.537,-329.495 476.417,-324.104 480.185,-334.006 485.537,-329.495"/>
</g>
<!-- hmtslam&#45;&gt;graphslam -->
<g id="edge26" class="edge"><title>hmtslam&#45;&gt;graphslam</title>
<path fill="none" stroke="black" d="M535.831,-359.697C543.025,-351.305 551.797,-341.07 559.69,-331.861"/>
<polygon fill="black" stroke="black" points="562.489,-333.975 566.339,-324.104 557.174,-329.419 562.489,-333.975"/>
</g>
<!-- nav -->
<g id="node15" class="node"><title>nav</title>
<g id="a_node15"><a xlink:href="group__mrpt__nav__grp.html" xlink:title="mrpt&#45;nav">
<polygon fill="#d0d0d0" stroke="black" points="407.5,-324 340.5,-324 340.5,-288 407.5,-288 407.5,-324"/>
<text text-anchor="middle" x="374" y="-302.3" font-family="Times New Roman,serif" font-size="14.00">mrpt&#45;nav</text>
</a>
</g>
</g>
<!-- nav&#45;&gt;graphs -->
<g id="edge28" class="edge"><title>nav&#45;&gt;graphs</title>
<path fill="none" stroke="black" d="M393.561,-287.932C405.34,-277.602 420.603,-264.124 434,-252 457.993,-230.287 484.994,-205.195 504.234,-187.2"/>
<polygon fill="black" stroke="black" points="506.81,-189.584 511.717,-180.194 502.025,-184.474 506.81,-189.584"/>
</g>
<!-- nav&#45;&gt;maps -->
<g id="edge27" class="edge"><title>nav&#45;&gt;maps</title>
<path fill="none" stroke="black" d="M377.213,-287.697C378.646,-279.983 380.368,-270.712 381.965,-262.112"/>
<polygon fill="black" stroke="black" points="385.439,-262.575 383.823,-252.104 378.556,-261.297 385.439,-262.575"/>
</g>
<!-- kinematics -->
<g id="node17" class="node"><title>kinematics</title>
<g id="a_node17"><a xlink:href="group__mrpt__kinematics__grp.html" xlink:title="mrpt&#45;kinematics">
<polygon fill="#d0d0d0" stroke="black" points="187,-180 81,-180 81,-144 187,-144 187,-180"/>
<text text-anchor="middle" x="134" y="-158.3" font-family="Times New Roman,serif" font-size="14.00">mrpt&#45;kinematics</text>
</a>
</g>
</g>
<!-- nav&#45;&gt;kinematics -->
<g id="edge29" class="edge"><title>nav&#45;&gt;kinematics</title>
<path fill="none" stroke="black" d="M340.432,-290.94C337.273,-289.857 334.095,-288.854 331,-288 283.247,-274.818 143.077,-289.752 111,-252 96.0133,-234.362 105.389,-208.144 116.334,-188.728"/>
<polygon fill="black" stroke="black" points="119.385,-190.446 121.561,-180.077 113.394,-186.826 119.385,-190.446"/>
</g>
<!-- detectors -->
<g id="node16" class="node"><title>detectors</title>
<g id="a_node16"><a xlink:href="group__mrpt__detectors__grp.html" xlink:title="mrpt&#45;detectors">
<polygon fill="#d0d0d0" stroke="black" points="201.5,-324 102.5,-324 102.5,-288 201.5,-288 201.5,-324"/>
<text text-anchor="middle" x="152" y="-302.3" font-family="Times New Roman,serif" font-size="14.00">mrpt&#45;detectors</text>
</a>
</g>
</g>
<!-- detectors&#45;&gt;gui -->
<g id="edge24" class="edge"><title>detectors&#45;&gt;gui</title>
<path fill="none" stroke="black" d="M122.645,-287.876C106.955,-278.724 87.443,-267.342 70.5457,-257.485"/>
<polygon fill="black" stroke="black" points="71.8695,-254.205 61.4681,-252.19 68.3424,-260.252 71.8695,-254.205"/>
</g>
<!-- detectors&#45;&gt;maps -->
<g id="edge23" class="edge"><title>detectors&#45;&gt;maps</title>
<path fill="none" stroke="black" d="M201.568,-290.693C204.759,-289.779 207.924,-288.876 211,-288 264.951,-272.641 281.057,-270.109 338.684,-251.998"/>
<polygon fill="black" stroke="black" points="339.824,-255.308 348.302,-248.953 337.712,-248.635 339.824,-255.308"/>
</g>
<!-- detectors&#45;&gt;vision -->
<g id="edge22" class="edge"><title>detectors&#45;&gt;vision</title>
<path fill="none" stroke="black" d="M153.978,-287.697C154.859,-279.983 155.919,-270.712 156.901,-262.112"/>
<polygon fill="black" stroke="black" points="160.387,-262.437 158.045,-252.104 153.432,-261.642 160.387,-262.437"/>
</g>
<!-- kinematics&#45;&gt;opengl -->
<g id="edge2" class="edge"><title>kinematics&#45;&gt;opengl</title>
<path fill="none" stroke="black" d="M150.315,-143.697C158.307,-135.22 168.072,-124.864 176.822,-115.583"/>
<polygon fill="black" stroke="black" points="179.559,-117.781 183.873,-108.104 174.466,-112.979 179.559,-117.781"/>
</g>
<!-- pbmap -->
<g id="node18" class="node"><title>pbmap</title>
<g id="a_node18"><a xlink:href="group__mrpt__pbmap__grp.html" xlink:title="mrpt&#45;pbmap">
<polygon fill="#d0d0d0" stroke="black" points="682,-252 596,-252 596,-216 682,-216 682,-252"/>
<text text-anchor="middle" x="639" y="-230.3" font-family="Times New Roman,serif" font-size="14.00">mrpt&#45;pbmap</text>
</a>
</g>
</g>
<!-- pbmap&#45;&gt;graphs -->
<g id="edge1" class="edge"><title>pbmap&#45;&gt;graphs</title>
<path fill="none" stroke="black" d="M612.336,-215.876C598.216,-206.808 580.689,-195.552 565.439,-185.759"/>
<polygon fill="black" stroke="black" points="567.073,-182.648 556.767,-180.19 563.29,-188.538 567.073,-182.648"/>
</g>
</g>
</svg>
