<?xml version="1.0" encoding="UTF-8" standalone="no"?>
<!DOCTYPE svg PUBLIC "-//W3C//DTD SVG 1.1//EN"
 "http://www.w3.org/Graphics/SVG/1.1/DTD/svg11.dtd">
<!-- Generated by graphviz version 2.26.3 (20100126.1600)
 -->
<!-- Title: MRPT_LIBS Pages: 1 -->
<svg width="699pt" height="476pt"
 viewBox="0.00 0.00 699.00 476.00" xmlns="http://www.w3.org/2000/svg" xmlns:xlink="http://www.w3.org/1999/xlink">
<g id="graph1" class="graph" transform="scale(1 1) rotate(0) translate(4 472)">
<title>MRPT_LIBS</title>
<polygon fill="white" stroke="white" points="-4,5 -4,-472 696,-472 696,5 -4,5"/>
<!-- base -->
<g id="node1" class="node"><title>base</title>
<a xlink:href="group__mrpt__base__grp.html" xlink:title="mrpt&#45;base">
<polygon fill="#d0d0d0" stroke="black" points="515,-36 439,-36 439,-1.77636e-14 515,-3.55271e-15 515,-36"/>
<text text-anchor="middle" x="477" y="-14.7" font-family="Times Roman,serif" font-size="12.00">mrpt&#45;base</text>
</a>
</g>
<!-- graphs -->
<g id="node2" class="node"><title>graphs</title>
<a xlink:href="group__mrpt__graphs__grp.html" xlink:title="mrpt&#45;graphs (.h)">
<polygon fill="#d0d0d0" stroke="black" points="476,-252 362,-252 362,-216 476,-216 476,-252"/>
<text text-anchor="middle" x="419" y="-230.7" font-family="Times Roman,serif" font-size="12.00">mrpt&#45;graphs (.h)</text>
</a>
</g>
<!-- graphs&#45;&gt;base -->
<g id="edge2" class="edge"><title>graphs&#45;&gt;base</title>
<path fill="none" stroke="black" d="M423.845,-215.955C433.974,-178.235 457.447,-90.8188 469.524,-45.8399"/>
<polygon fill="black" stroke="black" points="472.915,-46.7106 472.128,-36.1451 466.154,-44.8953 472.915,-46.7106"/>
</g>
<!-- bayes -->
<g id="node3" class="node"><title>bayes</title>
<a xlink:href="group__mrpt__bayes__grp.html" xlink:title="mrpt&#45;bayes (.h)">
<polygon fill="#d0d0d0" stroke="black" points="691,-108 583,-108 583,-72 691,-72 691,-108"/>
<text text-anchor="middle" x="637" y="-86.7" font-family="Times Roman,serif" font-size="12.00">mrpt&#45;bayes (.h)</text>
</a>
</g>
<!-- bayes&#45;&gt;base -->
<g id="edge6" class="edge"><title>bayes&#45;&gt;base</title>
<path fill="none" stroke="black" d="M596.625,-71.8314C574.657,-61.9455 547.355,-49.6595 524.382,-39.322"/>
<polygon fill="black" stroke="black" points="525.714,-36.0834 515.159,-35.1715 522.842,-42.4669 525.714,-36.0834"/>
</g>
<!-- opengl -->
<g id="node4" class="node"><title>opengl</title>
<a xlink:href="group__mrpt__opengl__grp.html" xlink:title="mrpt&#45;opengl">
<polygon fill="#d0d0d0" stroke="black" points="297,-108 209,-108 209,-72 297,-72 297,-108"/>
<text text-anchor="middle" x="253" y="-86.7" font-family="Times Roman,serif" font-size="12.00">mrpt&#45;opengl</text>
</a>
</g>
<!-- opengl&#45;&gt;base -->
<g id="edge8" class="edge"><title>opengl&#45;&gt;base</title>
<path fill="none" stroke="black" d="M297.255,-75.7751C335.338,-63.5342 390.16,-45.913 429.229,-33.3549"/>
<polygon fill="black" stroke="black" points="430.354,-36.6698 438.803,-30.2776 428.212,-30.0056 430.354,-36.6698"/>
</g>
<!-- gui -->
<g id="node5" class="node"><title>gui</title>
<a xlink:href="group__mrpt__gui__grp.html" xlink:title="mrpt&#45;gui">
<polygon fill="#d0d0d0" stroke="black" points="124,-180 58,-180 58,-144 124,-144 124,-180"/>
<text text-anchor="middle" x="91" y="-158.7" font-family="Times Roman,serif" font-size="12.00">mrpt&#45;gui</text>
</a>
</g>
<!-- gui&#45;&gt;opengl -->
<g id="edge12" class="edge"><title>gui&#45;&gt;opengl</title>
<path fill="none" stroke="black" d="M124.174,-147.256C146.929,-137.143 177.528,-123.543 203.195,-112.135"/>
<polygon fill="black" stroke="black" points="204.688,-115.302 212.405,-108.042 201.845,-108.905 204.688,-115.302"/>
</g>
<!-- obs -->
<g id="node6" class="node"><title>obs</title>
<a xlink:href="group__mrpt__obs__grp.html" xlink:title="mrpt&#45;obs">
<polygon fill="#d0d0d0" stroke="black" points="288,-180 218,-180 218,-144 288,-144 288,-180"/>
<text text-anchor="middle" x="253" y="-158.7" font-family="Times Roman,serif" font-size="12.00">mrpt&#45;obs</text>
</a>
</g>
<!-- obs&#45;&gt;opengl -->
<g id="edge10" class="edge"><title>obs&#45;&gt;opengl</title>
<path fill="none" stroke="black" d="M253,-143.831C253,-136.131 253,-126.974 253,-118.417"/>
<polygon fill="black" stroke="black" points="256.5,-118.413 253,-108.413 249.5,-118.413 256.5,-118.413"/>
</g>
<!-- hwdrivers -->
<g id="node7" class="node"><title>hwdrivers</title>
<a xlink:href="group__mrpt__hwdrivers__grp.html" xlink:title="mrpt&#45;hwdrivers">
<polygon fill="#d0d0d0" stroke="black" points="144,-252 38,-252 38,-216 144,-216 144,-252"/>
<text text-anchor="middle" x="91" y="-230.7" font-family="Times Roman,serif" font-size="12.00">mrpt&#45;hwdrivers</text>
</a>
</g>
<!-- hwdrivers&#45;&gt;gui -->
<g id="edge14" class="edge"><title>hwdrivers&#45;&gt;gui</title>
<path fill="none" stroke="black" d="M91,-215.831C91,-208.131 91,-198.974 91,-190.417"/>
<polygon fill="black" stroke="black" points="94.5001,-190.413 91,-180.413 87.5001,-190.413 94.5001,-190.413"/>
</g>
<!-- hwdrivers&#45;&gt;obs -->
<g id="edge16" class="edge"><title>hwdrivers&#45;&gt;obs</title>
<path fill="none" stroke="black" d="M131.879,-215.831C155.297,-205.423 184.701,-192.355 208.672,-181.701"/>
<polygon fill="black" stroke="black" points="210.188,-184.858 217.905,-177.598 207.345,-178.461 210.188,-184.858"/>
</g>
<!-- topography -->
<g id="node8" class="node"><title>topography</title>
<a xlink:href="group__mrpt__topography__grp.html" xlink:title="mrpt&#45;topography">
<polygon fill="#d0d0d0" stroke="black" points="612,-252 494,-252 494,-216 612,-216 612,-252"/>
<text text-anchor="middle" x="553" y="-230.7" font-family="Times Roman,serif" font-size="12.00">mrpt&#45;topography</text>
</a>
</g>
<!-- topography&#45;&gt;obs -->
<g id="edge18" class="edge"><title>topography&#45;&gt;obs</title>
<path fill="none" stroke="black" d="M493.689,-218.188C490.753,-217.44 487.844,-216.707 485,-216 420.13,-199.869 344.687,-182.58 297.884,-172.026"/>
<polygon fill="black" stroke="black" points="298.584,-168.596 288.059,-169.815 297.047,-175.426 298.584,-168.596"/>
</g>
<!-- scanmatching -->
<g id="node11" class="node"><title>scanmatching</title>
<a xlink:href="group__mrpt__scanmatching__grp.html" xlink:title="mrpt&#45;scanmatching">
<polygon fill="#d0d0d0" stroke="black" points="618,-180 488,-180 488,-144 618,-144 618,-180"/>
<text text-anchor="middle" x="553" y="-158.7" font-family="Times Roman,serif" font-size="12.00">mrpt&#45;scanmatching</text>
</a>
</g>
<!-- topography&#45;&gt;scanmatching -->
<g id="edge20" class="edge"><title>topography&#45;&gt;scanmatching</title>
<path fill="none" stroke="black" d="M553,-215.831C553,-208.131 553,-198.974 553,-190.417"/>
<polygon fill="black" stroke="black" points="556.5,-190.413 553,-180.413 549.5,-190.413 556.5,-190.413"/>
</g>
<!-- maps -->
<g id="node9" class="node"><title>maps</title>
<a xlink:href="group__mrpt__maps__grp.html" xlink:title="mrpt&#45;maps">
<polygon fill="#d0d0d0" stroke="black" points="344,-252 262,-252 262,-216 344,-216 344,-252"/>
<text text-anchor="middle" x="303" y="-230.7" font-family="Times Roman,serif" font-size="12.00">mrpt&#45;maps</text>
</a>
</g>
<!-- maps&#45;&gt;obs -->
<g id="edge24" class="edge"><title>maps&#45;&gt;obs</title>
<path fill="none" stroke="black" d="M290.383,-215.831C284.683,-207.623 277.834,-197.761 271.564,-188.732"/>
<polygon fill="black" stroke="black" points="274.366,-186.631 265.787,-180.413 268.616,-190.623 274.366,-186.631"/>
</g>
<!-- vision -->
<g id="node10" class="node"><title>vision</title>
<a xlink:href="group__mrpt__vision__grp.html" xlink:title="mrpt&#45;vision">
<polygon fill="#d0d0d0" stroke="black" points="244,-252 162,-252 162,-216 244,-216 244,-252"/>
<text text-anchor="middle" x="203" y="-230.7" font-family="Times Roman,serif" font-size="12.00">mrpt&#45;vision</text>
</a>
</g>
<!-- vision&#45;&gt;obs -->
<g id="edge22" class="edge"><title>vision&#45;&gt;obs</title>
<path fill="none" stroke="black" d="M215.617,-215.831C221.317,-207.623 228.166,-197.761 234.436,-188.732"/>
<polygon fill="black" stroke="black" points="237.384,-190.623 240.213,-180.413 231.634,-186.631 237.384,-190.623"/>
</g>
<!-- scanmatching&#45;&gt;base -->
<g id="edge4" class="edge"><title>scanmatching&#45;&gt;base</title>
<path fill="none" stroke="black" d="M543.375,-143.762C530.24,-118.876 506.599,-74.0822 491.364,-45.2165"/>
<polygon fill="black" stroke="black" points="494.31,-43.2998 486.547,-36.0896 488.12,-46.5671 494.31,-43.2998"/>
</g>
<!-- slam -->
<g id="node12" class="node"><title>slam</title>
<a xlink:href="group__mrpt__slam__grp.html" xlink:title="mrpt&#45;slam">
<polygon fill="#d0d0d0" stroke="black" points="484,-324 408,-324 408,-288 484,-288 484,-324"/>
<text text-anchor="middle" x="446" y="-302.7" font-family="Times Roman,serif" font-size="12.00">mrpt&#45;slam</text>
</a>
</g>
<!-- slam&#45;&gt;graphs -->
<g id="edge34" class="edge"><title>slam&#45;&gt;graphs</title>
<path fill="none" stroke="black" d="M439.187,-287.831C436.236,-279.962 432.714,-270.571 429.445,-261.853"/>
<polygon fill="black" stroke="black" points="432.693,-260.548 425.905,-252.413 426.139,-263.006 432.693,-260.548"/>
</g>
<!-- slam&#45;&gt;bayes -->
<g id="edge32" class="edge"><title>slam&#45;&gt;bayes</title>
<path fill="none" stroke="black" d="M484.281,-300.725C534.795,-292.89 619.495,-276.427 638,-252 667.447,-213.129 656.547,-152.6 646.445,-117.581"/>
<polygon fill="black" stroke="black" points="649.788,-116.541 643.517,-108.001 643.093,-118.587 649.788,-116.541"/>
</g>
<!-- slam&#45;&gt;maps -->
<g id="edge26" class="edge"><title>slam&#45;&gt;maps</title>
<path fill="none" stroke="black" d="M409.915,-287.831C391.201,-278.409 368.157,-266.806 348.26,-256.788"/>
<polygon fill="black" stroke="black" points="349.579,-253.534 339.073,-252.163 346.431,-259.786 349.579,-253.534"/>
</g>
<!-- slam&#45;&gt;vision -->
<g id="edge28" class="edge"><title>slam&#45;&gt;vision</title>
<path fill="none" stroke="black" d="M407.92,-290.962C404.917,-289.916 401.918,-288.915 399,-288 338.216,-268.947 318.783,-271.083 253.987,-252.128"/>
<polygon fill="black" stroke="black" points="254.671,-248.68 244.088,-249.174 252.669,-255.388 254.671,-248.68"/>
</g>
<!-- slam&#45;&gt;scanmatching -->
<g id="edge30" class="edge"><title>slam&#45;&gt;scanmatching</title>
<path fill="none" stroke="black" d="M484.108,-299.63C530.491,-291.011 604.669,-274.13 621,-252 630.5,-239.126 627.957,-230.408 621,-216 615.311,-204.217 605.662,-194.216 595.394,-186.144"/>
<polygon fill="black" stroke="black" points="597.231,-183.152 587.089,-180.086 593.105,-188.807 597.231,-183.152"/>
</g>
<!-- graphslam -->
<g id="node13" class="node"><title>graphslam</title>
<a xlink:href="group__mrpt__graphslam__grp.html" xlink:title="mrpt&#45;graphslam">
<polygon fill="#d0d0d0" stroke="black" points="542,-396 432,-396 432,-360 542,-360 542,-396"/>
<text text-anchor="middle" x="487" y="-374.7" font-family="Times Roman,serif" font-size="12.00">mrpt&#45;graphslam</text>
</a>
</g>
<!-- graphslam&#45;&gt;slam -->
<g id="edge36" class="edge"><title>graphslam&#45;&gt;slam</title>
<path fill="none" stroke="black" d="M476.654,-359.831C472.076,-351.792 466.595,-342.167 461.541,-333.292"/>
<polygon fill="black" stroke="black" points="464.475,-331.371 456.485,-324.413 458.392,-334.835 464.475,-331.371"/>
</g>
<!-- hmtslam -->
<g id="node14" class="node"><title>hmtslam</title>
<a xlink:href="group__mrpt__hmtslam__grp.html" xlink:title="mrpt&#45;hmtslam">
<polygon fill="#d0d0d0" stroke="black" points="495,-468 395,-468 395,-432 495,-432 495,-468"/>
<text text-anchor="middle" x="445" y="-446.7" font-family="Times Roman,serif" font-size="12.00">mrpt&#45;hmtslam</text>
</a>
</g>
<!-- hmtslam&#45;&gt;slam -->
<g id="edge44" class="edge"><title>hmtslam&#45;&gt;slam</title>
<path fill="none" stroke="black" d="M435.409,-431.56C430.65,-421.373 425.413,-408.319 423,-396 419.924,-380.298 419.8,-375.677 423,-360 424.816,-351.102 428.155,-341.854 431.737,-333.579"/>
<polygon fill="black" stroke="black" points="434.965,-334.937 435.976,-324.391 428.609,-332.004 434.965,-334.937"/>
</g>
<!-- hmtslam&#45;&gt;graphslam -->
<g id="edge46" class="edge"><title>hmtslam&#45;&gt;graphslam</title>
<path fill="none" stroke="black" d="M455.598,-431.831C460.288,-423.792 465.903,-414.167 471.08,-405.292"/>
<polygon fill="black" stroke="black" points="474.243,-406.815 476.259,-396.413 468.197,-403.288 474.243,-406.815"/>
</g>
<!-- reactivenav -->
<g id="node15" class="node"><title>reactivenav</title>
<a xlink:href="group__mrpt__reactivenav__grp.html" xlink:title="mrpt&#45;reactivenav">
<polygon fill="#d0d0d0" stroke="black" points="390,-324 274,-324 274,-288 390,-288 390,-324"/>
<text text-anchor="middle" x="332" y="-302.7" font-family="Times Roman,serif" font-size="12.00">mrpt&#45;reactivenav</text>
</a>
</g>
<!-- reactivenav&#45;&gt;graphs -->
<g id="edge52" class="edge"><title>reactivenav&#45;&gt;graphs</title>
<path fill="none" stroke="black" d="M353.954,-287.831C364.669,-278.963 377.719,-268.164 389.309,-258.572"/>
<polygon fill="black" stroke="black" points="391.581,-261.235 397.053,-252.163 387.118,-255.842 391.581,-261.235"/>
</g>
<!-- reactivenav&#45;&gt;maps -->
<g id="edge50" class="edge"><title>reactivenav&#45;&gt;maps</title>
<path fill="none" stroke="black" d="M324.682,-287.831C321.512,-279.962 317.73,-270.571 314.219,-261.853"/>
<polygon fill="black" stroke="black" points="317.399,-260.381 310.416,-252.413 310.906,-262.997 317.399,-260.381"/>
</g>
<!-- stereoslam -->
<g id="node16" class="node"><title>stereoslam</title>
<a xlink:href="group__mrpt__stereoslam__grp.html" xlink:title="mrpt&#45;stereoslam (*)">
<polygon fill="#d0d0d0" stroke="black" points="132,-324 7.10543e-14,-324 0,-288 132,-288 132,-324"/>
<text text-anchor="middle" x="66" y="-302.7" font-family="Times Roman,serif" font-size="12.00">mrpt&#45;stereoslam (*)</text>
</a>
</g>
<!-- stereoslam&#45;&gt;vision -->
<g id="edge48" class="edge"><title>stereoslam&#45;&gt;vision</title>
<path fill="none" stroke="black" d="M100.571,-287.831C118.419,-278.452 140.377,-266.911 159.38,-256.924"/>
<polygon fill="black" stroke="black" points="161.216,-259.913 168.44,-252.163 157.96,-253.717 161.216,-259.913"/>
</g>
<!-- detectors -->
<g id="node17" class="node"><title>detectors</title>
<a xlink:href="group__mrpt__detectors__grp.html" xlink:title="mrpt&#45;detectors">
<polygon fill="#d0d0d0" stroke="black" points="256,-324 150,-324 150,-288 256,-288 256,-324"/>
<text text-anchor="middle" x="203" y="-302.7" font-family="Times Roman,serif" font-size="12.00">mrpt&#45;detectors</text>
</a>
</g>
<!-- detectors&#45;&gt;gui -->
<g id="edge42" class="edge"><title>detectors&#45;&gt;gui</title>
<path fill="none" stroke="black" d="M149.679,-290.269C99.2221,-275.26 30.8878,-254.562 29,-252 19.51,-239.118 22.3719,-230.563 29,-216 34.174,-204.632 43.0543,-194.727 52.5028,-186.612"/>
<polygon fill="black" stroke="black" points="54.8729,-189.199 60.5042,-180.224 50.5055,-183.728 54.8729,-189.199"/>
</g>
<!-- detectors&#45;&gt;maps -->
<g id="edge40" class="edge"><title>detectors&#45;&gt;maps</title>
<path fill="none" stroke="black" d="M228.234,-287.831C240.788,-278.793 256.128,-267.748 269.639,-258.02"/>
<polygon fill="black" stroke="black" points="271.704,-260.846 277.774,-252.163 267.613,-255.166 271.704,-260.846"/>
</g>
<!-- detectors&#45;&gt;vision -->
<g id="edge38" class="edge"><title>detectors&#45;&gt;vision</title>
<path fill="none" stroke="black" d="M203,-287.831C203,-280.131 203,-270.974 203,-262.417"/>
<polygon fill="black" stroke="black" points="206.5,-262.413 203,-252.413 199.5,-262.413 206.5,-262.413"/>
</g>
</g>
</svg>
