<?xml version="1.0" encoding="UTF-8" standalone="no"?>
<!DOCTYPE svg PUBLIC "-//W3C//DTD SVG 1.1//EN"
 "http://www.w3.org/Graphics/SVG/1.1/DTD/svg11.dtd">
<!-- Generated by graphviz version 2.26.3 (20100126.1600)
 -->
<!-- Title: MRPT_LIBS Pages: 1 -->
<svg width="709pt" height="404pt"
 viewBox="0.00 0.00 709.00 404.00" xmlns="http://www.w3.org/2000/svg" xmlns:xlink="http://www.w3.org/1999/xlink">
<g id="graph1" class="graph" transform="scale(1 1) rotate(0) translate(4 400)">
<title>MRPT_LIBS</title>
<polygon fill="white" stroke="white" points="-4,5 -4,-400 706,-400 706,5 -4,5"/>
<!-- base -->
<g id="node1" class="node"><title>base</title>
<a xlink:href="mrpt-base.html" xlink:title="mrpt&#45;base">
<polygon fill="#d0d0d0" stroke="black" points="600,-36 524,-36 524,-1.77636e-14 600,-3.55271e-15 600,-36"/>
<text text-anchor="middle" x="562" y="-14.7" font-family="Times Roman,serif" font-size="12.00">mrpt&#45;base</text>
</a>
</g>
<!-- bayes -->
<g id="node2" class="node"><title>bayes</title>
<a xlink:href="mrpt-bayes.html" xlink:title="mrpt&#45;bayes">
<polygon fill="#d0d0d0" stroke="black" points="701,-108 617,-108 617,-72 701,-72 701,-108"/>
<text text-anchor="middle" x="659" y="-86.7" font-family="Times Roman,serif" font-size="12.00">mrpt&#45;bayes</text>
</a>
</g>
<!-- bayes&#45;&gt;base -->
<g id="edge4" class="edge"><title>bayes&#45;&gt;base</title>
<path fill="none" stroke="black" d="M634.523,-71.8314C622.461,-62.8779 607.746,-51.9558 594.731,-42.2955"/>
<polygon fill="black" stroke="black" points="596.585,-39.3127 586.469,-36.1628 592.413,-44.9335 596.585,-39.3127"/>
</g>
<!-- opengl -->
<g id="node3" class="node"><title>opengl</title>
<a xlink:href="mrpt-opengl.html" xlink:title="mrpt&#45;opengl">
<polygon fill="#d0d0d0" stroke="black" points="438,-108 350,-108 350,-72 438,-72 438,-108"/>
<text text-anchor="middle" x="394" y="-86.7" font-family="Times Roman,serif" font-size="12.00">mrpt&#45;opengl</text>
</a>
</g>
<!-- opengl&#45;&gt;base -->
<g id="edge6" class="edge"><title>opengl&#45;&gt;base</title>
<path fill="none" stroke="black" d="M436.393,-71.8314C460.164,-61.6441 489.881,-48.9082 514.442,-38.3821"/>
<polygon fill="black" stroke="black" points="516.111,-41.4745 523.924,-34.3182 513.354,-35.0405 516.111,-41.4745"/>
</g>
<!-- gui -->
<g id="node4" class="node"><title>gui</title>
<a xlink:href="mrpt-gui.html" xlink:title="mrpt&#45;gui">
<polygon fill="#d0d0d0" stroke="black" points="265,-180 199,-180 199,-144 265,-144 265,-180"/>
<text text-anchor="middle" x="232" y="-158.7" font-family="Times Roman,serif" font-size="12.00">mrpt&#45;gui</text>
</a>
</g>
<!-- gui&#45;&gt;opengl -->
<g id="edge10" class="edge"><title>gui&#45;&gt;opengl</title>
<path fill="none" stroke="black" d="M265.174,-147.256C287.929,-137.143 318.528,-123.543 344.195,-112.135"/>
<polygon fill="black" stroke="black" points="345.688,-115.302 353.405,-108.042 342.845,-108.905 345.688,-115.302"/>
</g>
<!-- obs -->
<g id="node5" class="node"><title>obs</title>
<a xlink:href="mrpt-obs.html" xlink:title="mrpt&#45;obs">
<polygon fill="#d0d0d0" stroke="black" points="429,-180 359,-180 359,-144 429,-144 429,-180"/>
<text text-anchor="middle" x="394" y="-158.7" font-family="Times Roman,serif" font-size="12.00">mrpt&#45;obs</text>
</a>
</g>
<!-- obs&#45;&gt;opengl -->
<g id="edge8" class="edge"><title>obs&#45;&gt;opengl</title>
<path fill="none" stroke="black" d="M394,-143.831C394,-136.131 394,-126.974 394,-118.417"/>
<polygon fill="black" stroke="black" points="397.5,-118.413 394,-108.413 390.5,-118.413 397.5,-118.413"/>
</g>
<!-- hwdrivers -->
<g id="node6" class="node"><title>hwdrivers</title>
<a xlink:href="mrpt-hwdrivers.html" xlink:title="mrpt&#45;hwdrivers">
<polygon fill="#d0d0d0" stroke="black" points="285,-252 179,-252 179,-216 285,-216 285,-252"/>
<text text-anchor="middle" x="232" y="-230.7" font-family="Times Roman,serif" font-size="12.00">mrpt&#45;hwdrivers</text>
</a>
</g>
<!-- hwdrivers&#45;&gt;gui -->
<g id="edge12" class="edge"><title>hwdrivers&#45;&gt;gui</title>
<path fill="none" stroke="black" d="M232,-215.831C232,-208.131 232,-198.974 232,-190.417"/>
<polygon fill="black" stroke="black" points="235.5,-190.413 232,-180.413 228.5,-190.413 235.5,-190.413"/>
</g>
<!-- hwdrivers&#45;&gt;obs -->
<g id="edge14" class="edge"><title>hwdrivers&#45;&gt;obs</title>
<path fill="none" stroke="black" d="M272.879,-215.831C296.297,-205.423 325.701,-192.355 349.672,-181.701"/>
<polygon fill="black" stroke="black" points="351.188,-184.858 358.905,-177.598 348.345,-178.461 351.188,-184.858"/>
</g>
<!-- topography -->
<g id="node7" class="node"><title>topography</title>
<a xlink:href="mrpt-topography.html" xlink:title="mrpt&#45;topography">
<polygon fill="#d0d0d0" stroke="black" points="621,-252 503,-252 503,-216 621,-216 621,-252"/>
<text text-anchor="middle" x="562" y="-230.7" font-family="Times Roman,serif" font-size="12.00">mrpt&#45;topography</text>
</a>
</g>
<!-- topography&#45;&gt;obs -->
<g id="edge16" class="edge"><title>topography&#45;&gt;obs</title>
<path fill="none" stroke="black" d="M519.607,-215.831C494.783,-205.193 463.474,-191.775 438.325,-180.996"/>
<polygon fill="black" stroke="black" points="439.584,-177.728 429.014,-177.006 436.827,-184.162 439.584,-177.728"/>
</g>
<!-- scanmatching -->
<g id="node10" class="node"><title>scanmatching</title>
<a xlink:href="mrpt-scanmatching.html" xlink:title="mrpt&#45;scanmatching">
<polygon fill="#d0d0d0" stroke="black" points="627,-180 497,-180 497,-144 627,-144 627,-180"/>
<text text-anchor="middle" x="562" y="-158.7" font-family="Times Roman,serif" font-size="12.00">mrpt&#45;scanmatching</text>
</a>
</g>
<!-- topography&#45;&gt;scanmatching -->
<g id="edge18" class="edge"><title>topography&#45;&gt;scanmatching</title>
<path fill="none" stroke="black" d="M562,-215.831C562,-208.131 562,-198.974 562,-190.417"/>
<polygon fill="black" stroke="black" points="565.5,-190.413 562,-180.413 558.5,-190.413 565.5,-190.413"/>
</g>
<!-- maps -->
<g id="node8" class="node"><title>maps</title>
<a xlink:href="mrpt-maps.html" xlink:title="mrpt&#45;maps">
<polygon fill="#d0d0d0" stroke="black" points="485,-252 403,-252 403,-216 485,-216 485,-252"/>
<text text-anchor="middle" x="444" y="-230.7" font-family="Times Roman,serif" font-size="12.00">mrpt&#45;maps</text>
</a>
</g>
<!-- maps&#45;&gt;obs -->
<g id="edge22" class="edge"><title>maps&#45;&gt;obs</title>
<path fill="none" stroke="black" d="M431.383,-215.831C425.683,-207.623 418.834,-197.761 412.564,-188.732"/>
<polygon fill="black" stroke="black" points="415.366,-186.631 406.787,-180.413 409.616,-190.623 415.366,-186.631"/>
</g>
<!-- vision -->
<g id="node9" class="node"><title>vision</title>
<a xlink:href="mrpt-vision.html" xlink:title="mrpt&#45;vision">
<polygon fill="#d0d0d0" stroke="black" points="385,-252 303,-252 303,-216 385,-216 385,-252"/>
<text text-anchor="middle" x="344" y="-230.7" font-family="Times Roman,serif" font-size="12.00">mrpt&#45;vision</text>
</a>
</g>
<!-- vision&#45;&gt;obs -->
<g id="edge20" class="edge"><title>vision&#45;&gt;obs</title>
<path fill="none" stroke="black" d="M356.617,-215.831C362.317,-207.623 369.166,-197.761 375.436,-188.732"/>
<polygon fill="black" stroke="black" points="378.384,-190.623 381.213,-180.413 372.634,-186.631 378.384,-190.623"/>
</g>
<!-- scanmatching&#45;&gt;base -->
<g id="edge2" class="edge"><title>scanmatching&#45;&gt;base</title>
<path fill="none" stroke="black" d="M562,-143.762C562,-119.201 562,-75.2474 562,-46.3541"/>
<polygon fill="black" stroke="black" points="565.5,-46.0896 562,-36.0896 558.5,-46.0897 565.5,-46.0896"/>
</g>
<!-- slam -->
<g id="node11" class="node"><title>slam</title>
<a xlink:href="mrpt-slam.html" xlink:title="mrpt&#45;slam">
<polygon fill="#d0d0d0" stroke="black" points="674,-324 598,-324 598,-288 674,-288 674,-324"/>
<text text-anchor="middle" x="636" y="-302.7" font-family="Times Roman,serif" font-size="12.00">mrpt&#45;slam</text>
</a>
</g>
<!-- slam&#45;&gt;bayes -->
<g id="edge30" class="edge"><title>slam&#45;&gt;bayes</title>
<path fill="none" stroke="black" d="M640.804,-287.633C643.339,-277.245 646.273,-263.977 648,-252 654.724,-205.375 657.357,-150.591 658.374,-118.167"/>
<polygon fill="black" stroke="black" points="661.876,-118.168 658.661,-108.073 654.879,-117.969 661.876,-118.168"/>
</g>
<!-- slam&#45;&gt;maps -->
<g id="edge24" class="edge"><title>slam&#45;&gt;maps</title>
<path fill="none" stroke="black" d="M597.607,-291.603C568.152,-280.557 527.216,-265.206 495.009,-253.128"/>
<polygon fill="black" stroke="black" points="495.909,-249.728 485.317,-249.494 493.451,-256.282 495.909,-249.728"/>
</g>
<!-- slam&#45;&gt;vision -->
<g id="edge26" class="edge"><title>slam&#45;&gt;vision</title>
<path fill="none" stroke="black" d="M597.789,-296.335C586.595,-293.569 574.322,-290.601 563,-288 491.223,-271.51 469.611,-272.903 394.937,-252.077"/>
<polygon fill="black" stroke="black" points="395.632,-248.636 385.057,-249.28 393.725,-255.371 395.632,-248.636"/>
</g>
<!-- slam&#45;&gt;scanmatching -->
<g id="edge28" class="edge"><title>slam&#45;&gt;scanmatching</title>
<path fill="none" stroke="black" d="M638.894,-287.946C641.048,-268.91 641.857,-238.604 630,-216 623.866,-204.307 613.97,-194.295 603.604,-186.181"/>
<polygon fill="black" stroke="black" points="605.393,-183.154 595.252,-180.085 601.266,-188.808 605.393,-183.154"/>
</g>
<!-- hmtslam -->
<g id="node12" class="node"><title>hmtslam</title>
<a xlink:href="mrpt-hmtslam.html" xlink:title="mrpt&#45;hmtslam">
<polygon fill="#d0d0d0" stroke="black" points="686,-396 586,-396 586,-360 686,-360 686,-396"/>
<text text-anchor="middle" x="636" y="-374.7" font-family="Times Roman,serif" font-size="12.00">mrpt&#45;hmtslam</text>
</a>
</g>
<!-- hmtslam&#45;&gt;slam -->
<g id="edge38" class="edge"><title>hmtslam&#45;&gt;slam</title>
<path fill="none" stroke="black" d="M636,-359.831C636,-352.131 636,-342.974 636,-334.417"/>
<polygon fill="black" stroke="black" points="639.5,-334.413 636,-324.413 632.5,-334.413 639.5,-334.413"/>
</g>
<!-- reactivenav -->
<g id="node13" class="node"><title>reactivenav</title>
<a xlink:href="mrpt-reactivenav.html" xlink:title="mrpt&#45;reactivenav">
<polygon fill="#d0d0d0" stroke="black" points="554,-324 438,-324 438,-288 554,-288 554,-324"/>
<text text-anchor="middle" x="496" y="-302.7" font-family="Times Roman,serif" font-size="12.00">mrpt&#45;reactivenav</text>
</a>
</g>
<!-- reactivenav&#45;&gt;maps -->
<g id="edge44" class="edge"><title>reactivenav&#45;&gt;maps</title>
<path fill="none" stroke="black" d="M482.878,-287.831C476.95,-279.623 469.827,-269.761 463.307,-260.732"/>
<polygon fill="black" stroke="black" points="465.991,-258.471 457.298,-252.413 460.316,-262.569 465.991,-258.471"/>
</g>
<!-- monoslam -->
<g id="node14" class="node"><title>monoslam</title>
<a xlink:href="mrpt-monoslam.html" xlink:title="mrpt&#45;monoslam (*)">
<polygon fill="#d0d0d0" stroke="black" points="278,-324 150,-324 150,-288 278,-288 278,-324"/>
<text text-anchor="middle" x="214" y="-302.7" font-family="Times Roman,serif" font-size="12.00">mrpt&#45;monoslam (*)</text>
</a>
</g>
<!-- monoslam&#45;&gt;vision -->
<g id="edge40" class="edge"><title>monoslam&#45;&gt;vision</title>
<path fill="none" stroke="black" d="M246.804,-287.831C263.586,-278.537 284.199,-267.121 302.116,-257.197"/>
<polygon fill="black" stroke="black" points="304.154,-260.07 311.206,-252.163 300.762,-253.946 304.154,-260.07"/>
</g>
<!-- stereoslam -->
<g id="node15" class="node"><title>stereoslam</title>
<a xlink:href="mrpt-stereoslam.html" xlink:title="mrpt&#45;stereoslam (*)">
<polygon fill="#d0d0d0" stroke="black" points="132,-324 7.10543e-14,-324 0,-288 132,-288 132,-324"/>
<text text-anchor="middle" x="66" y="-302.7" font-family="Times Roman,serif" font-size="12.00">mrpt&#45;stereoslam (*)</text>
</a>
</g>
<!-- stereoslam&#45;&gt;vision -->
<g id="edge42" class="edge"><title>stereoslam&#45;&gt;vision</title>
<path fill="none" stroke="black" d="M132.25,-290.083C135.207,-289.378 138.134,-288.681 141,-288 205.911,-272.574 225.303,-271.895 293.035,-252.128"/>
<polygon fill="black" stroke="black" points="294.323,-255.398 302.923,-249.209 292.341,-248.684 294.323,-255.398"/>
</g>
<!-- detectors -->
<g id="node16" class="node"><title>detectors</title>
<a xlink:href="mrpt-detectors.html" xlink:title="mrpt&#45;detectors (*)">
<polygon fill="#d0d0d0" stroke="black" points="420,-324 296,-324 296,-288 420,-288 420,-324"/>
<text text-anchor="middle" x="358" y="-302.7" font-family="Times Roman,serif" font-size="12.00">mrpt&#45;detectors (*)</text>
</a>
</g>
<!-- detectors&#45;&gt;gui -->
<g id="edge36" class="edge"><title>detectors&#45;&gt;gui</title>
<path fill="none" stroke="black" d="M295.919,-290.072C242.703,-276.124 173.978,-257.281 170,-252 160.374,-239.22 163.372,-230.563 170,-216 175.174,-204.632 184.054,-194.727 193.503,-186.612"/>
<polygon fill="black" stroke="black" points="195.873,-189.199 201.504,-180.224 191.506,-183.728 195.873,-189.199"/>
</g>
<!-- detectors&#45;&gt;maps -->
<g id="edge34" class="edge"><title>detectors&#45;&gt;maps</title>
<path fill="none" stroke="black" d="M379.701,-287.831C390.192,-279.048 402.946,-268.371 414.319,-258.849"/>
<polygon fill="black" stroke="black" points="416.885,-261.266 422.306,-252.163 412.391,-255.899 416.885,-261.266"/>
</g>
<!-- detectors&#45;&gt;vision -->
<g id="edge32" class="edge"><title>detectors&#45;&gt;vision</title>
<path fill="none" stroke="black" d="M354.467,-287.831C352.97,-280.131 351.189,-270.974 349.525,-262.417"/>
<polygon fill="black" stroke="black" points="352.925,-261.561 347.58,-252.413 346.053,-262.897 352.925,-261.561"/>
</g>
</g>
</svg>
