<?xml version="1.0" encoding="UTF-8" standalone="no"?>
<!DOCTYPE svg PUBLIC "-//W3C//DTD SVG 1.1//EN"
 "http://www.w3.org/Graphics/SVG/1.1/DTD/svg11.dtd">
<!-- Generated by graphviz version 2.28.0 (20110507.0327)
 -->
<!-- Title: MRPT_LIBS Pages: 1 -->
<svg width="575pt" height="476pt"
 viewBox="0.00 0.00 575.00 476.00" xmlns="http://www.w3.org/2000/svg" xmlns:xlink="http://www.w3.org/1999/xlink">
<g id="graph1" class="graph" transform="scale(1 1) rotate(0) translate(4 472)">
<title>MRPT_LIBS</title>
<polygon fill="white" stroke="white" points="-4,5 -4,-472 572,-472 572,5 -4,5"/>
<!-- base -->
<g id="node1" class="node"><title>base</title>
<a xlink:href="group__mrpt__base__grp.html" xlink:title="mrpt&#45;base">
<polygon fill="#d0d0d0" stroke="black" points="178.25,-36 115.75,-36 115.75,-0 178.25,-0 178.25,-36"/>
<text text-anchor="middle" x="147" y="-14.9" font-family="Times New Roman,serif" font-size="12.00">mrpt&#45;base</text>
</a>
</g>
<!-- graphs -->
<g id="node2" class="node"><title>graphs</title>
<a xlink:href="group__mrpt__graphs__grp.html" xlink:title="mrpt&#45;graphs (.h)">
<polygon fill="#d0d0d0" stroke="black" points="295.25,-252 204.75,-252 204.75,-216 295.25,-216 295.25,-252"/>
<text text-anchor="middle" x="250" y="-230.9" font-family="Times New Roman,serif" font-size="12.00">mrpt&#45;graphs (.h)</text>
</a>
</g>
<!-- graphs&#45;&gt;base -->
<g id="edge6" class="edge"><title>graphs&#45;&gt;base</title>
<path fill="none" stroke="black" d="M227.933,-215.902C216.963,-206.383 204.309,-193.704 196,-180 170.028,-137.168 156.866,-79.4957 151.005,-46.0712"/>
<polygon fill="black" stroke="black" points="154.444,-45.4117 149.352,-36.1207 147.538,-46.5592 154.444,-45.4117"/>
</g>
<!-- bayes -->
<g id="node3" class="node"><title>bayes</title>
<a xlink:href="group__mrpt__bayes__grp.html" xlink:title="mrpt&#45;bayes (.h)">
<polygon fill="#d0d0d0" stroke="black" points="86.25,-108 -0.25,-108 -0.25,-72 86.25,-72 86.25,-108"/>
<text text-anchor="middle" x="43" y="-86.9" font-family="Times New Roman,serif" font-size="12.00">mrpt&#45;bayes (.h)</text>
</a>
</g>
<!-- bayes&#45;&gt;base -->
<g id="edge10" class="edge"><title>bayes&#45;&gt;base</title>
<path fill="none" stroke="black" d="M68.4413,-71.8761C81.7874,-62.8931 98.3242,-51.7625 112.778,-42.0341"/>
<polygon fill="black" stroke="black" points="115.119,-44.6771 121.461,-36.1898 111.211,-38.87 115.119,-44.6771"/>
</g>
<!-- opengl -->
<g id="node4" class="node"><title>opengl</title>
<a xlink:href="group__mrpt__opengl__grp.html" xlink:title="mrpt&#45;opengl">
<polygon fill="#d0d0d0" stroke="black" points="389,-108 317,-108 317,-72 389,-72 389,-108"/>
<text text-anchor="middle" x="353" y="-86.9" font-family="Times New Roman,serif" font-size="12.00">mrpt&#45;opengl</text>
</a>
</g>
<!-- opengl&#45;&gt;base -->
<g id="edge12" class="edge"><title>opengl&#45;&gt;base</title>
<path fill="none" stroke="black" d="M316.646,-76.6465C280.595,-64.3965 225.457,-45.6601 187.898,-32.8974"/>
<polygon fill="black" stroke="black" points="188.871,-29.5315 178.276,-29.6279 186.619,-36.1593 188.871,-29.5315"/>
</g>
<!-- gui -->
<g id="node5" class="node"><title>gui</title>
<a xlink:href="group__mrpt__gui__grp.html" xlink:title="mrpt&#45;gui">
<polygon fill="#d0d0d0" stroke="black" points="539.25,-252 484.75,-252 484.75,-216 539.25,-216 539.25,-252"/>
<text text-anchor="middle" x="512" y="-230.9" font-family="Times New Roman,serif" font-size="12.00">mrpt&#45;gui</text>
</a>
</g>
<!-- gui&#45;&gt;opengl -->
<g id="edge16" class="edge"><title>gui&#45;&gt;opengl</title>
<path fill="none" stroke="black" d="M509.771,-215.768C506.378,-196.075 498.15,-163.994 479,-144 457.676,-121.737 425.549,-108.421 399.073,-100.704"/>
<polygon fill="black" stroke="black" points="399.807,-97.2763 389.238,-98.014 397.96,-104.028 399.807,-97.2763"/>
</g>
<!-- obs -->
<g id="node6" class="node"><title>obs</title>
<a xlink:href="group__mrpt__obs__grp.html" xlink:title="mrpt&#45;obs">
<polygon fill="#d0d0d0" stroke="black" points="470.25,-180 411.75,-180 411.75,-144 470.25,-144 470.25,-180"/>
<text text-anchor="middle" x="441" y="-158.9" font-family="Times New Roman,serif" font-size="12.00">mrpt&#45;obs</text>
</a>
</g>
<!-- obs&#45;&gt;opengl -->
<g id="edge14" class="edge"><title>obs&#45;&gt;opengl</title>
<path fill="none" stroke="black" d="M419.247,-143.697C408.164,-134.881 394.526,-124.032 382.51,-114.474"/>
<polygon fill="black" stroke="black" points="384.507,-111.59 374.503,-108.104 380.15,-117.069 384.507,-111.59"/>
</g>
<!-- hwdrivers -->
<g id="node7" class="node"><title>hwdrivers</title>
<a xlink:href="group__mrpt__hwdrivers__grp.html" xlink:title="mrpt&#45;hwdrivers">
<polygon fill="#d0d0d0" stroke="black" points="567,-324 481,-324 481,-288 567,-288 567,-324"/>
<text text-anchor="middle" x="524" y="-302.9" font-family="Times New Roman,serif" font-size="12.00">mrpt&#45;hwdrivers</text>
</a>
</g>
<!-- hwdrivers&#45;&gt;gui -->
<g id="edge18" class="edge"><title>hwdrivers&#45;&gt;gui</title>
<path fill="none" stroke="black" d="M521.034,-287.697C519.711,-279.983 518.122,-270.712 516.648,-262.112"/>
<polygon fill="black" stroke="black" points="520.072,-261.369 514.932,-252.104 513.172,-262.552 520.072,-261.369"/>
</g>
<!-- maps -->
<g id="node9" class="node"><title>maps</title>
<a xlink:href="group__mrpt__maps__grp.html" xlink:title="mrpt&#45;maps">
<polygon fill="#d0d0d0" stroke="black" points="466,-252 400,-252 400,-216 466,-216 466,-252"/>
<text text-anchor="middle" x="433" y="-230.9" font-family="Times New Roman,serif" font-size="12.00">mrpt&#45;maps</text>
</a>
</g>
<!-- hwdrivers&#45;&gt;maps -->
<g id="edge20" class="edge"><title>hwdrivers&#45;&gt;maps</title>
<path fill="none" stroke="black" d="M501.506,-287.697C490.045,-278.881 475.942,-268.032 463.516,-258.474"/>
<polygon fill="black" stroke="black" points="465.296,-255.427 455.236,-252.104 461.028,-260.976 465.296,-255.427"/>
</g>
<!-- topography -->
<g id="node8" class="node"><title>topography</title>
<a xlink:href="group__mrpt__topography__grp.html" xlink:title="mrpt&#45;topography">
<polygon fill="#d0d0d0" stroke="black" points="186,-252 92,-252 92,-216 186,-216 186,-252"/>
<text text-anchor="middle" x="139" y="-230.9" font-family="Times New Roman,serif" font-size="12.00">mrpt&#45;topography</text>
</a>
</g>
<!-- topography&#45;&gt;obs -->
<g id="edge22" class="edge"><title>topography&#45;&gt;obs</title>
<path fill="none" stroke="black" d="M186.245,-218.213C189.198,-217.427 192.133,-216.682 195,-216 285.848,-194.397 312.562,-206.848 402,-180 402.097,-179.971 402.195,-179.941 402.292,-179.912"/>
<polygon fill="black" stroke="black" points="403.155,-183.317 411.464,-176.744 400.869,-176.7 403.155,-183.317"/>
</g>
<!-- scanmatching -->
<g id="node11" class="node"><title>scanmatching</title>
<a xlink:href="group__mrpt__scanmatching__grp.html" xlink:title="mrpt&#45;scanmatching">
<polygon fill="#d0d0d0" stroke="black" points="149,-180 47,-180 47,-144 149,-144 149,-180"/>
<text text-anchor="middle" x="98" y="-158.9" font-family="Times New Roman,serif" font-size="12.00">mrpt&#45;scanmatching</text>
</a>
</g>
<!-- topography&#45;&gt;scanmatching -->
<g id="edge24" class="edge"><title>topography&#45;&gt;scanmatching</title>
<path fill="none" stroke="black" d="M128.865,-215.697C124.148,-207.644 118.438,-197.894 113.218,-188.982"/>
<polygon fill="black" stroke="black" points="116.092,-186.964 108.018,-180.104 110.052,-190.502 116.092,-186.964"/>
</g>
<!-- maps&#45;&gt;obs -->
<g id="edge28" class="edge"><title>maps&#45;&gt;obs</title>
<path fill="none" stroke="black" d="M434.978,-215.697C435.859,-207.983 436.919,-198.712 437.901,-190.112"/>
<polygon fill="black" stroke="black" points="441.387,-190.437 439.045,-180.104 434.432,-189.642 441.387,-190.437"/>
</g>
<!-- vision -->
<g id="node10" class="node"><title>vision</title>
<a xlink:href="group__mrpt__vision__grp.html" xlink:title="mrpt&#45;vision">
<polygon fill="#d0d0d0" stroke="black" points="382,-252 314,-252 314,-216 382,-216 382,-252"/>
<text text-anchor="middle" x="348" y="-230.9" font-family="Times New Roman,serif" font-size="12.00">mrpt&#45;vision</text>
</a>
</g>
<!-- vision&#45;&gt;obs -->
<g id="edge26" class="edge"><title>vision&#45;&gt;obs</title>
<path fill="none" stroke="black" d="M370.989,-215.697C382.814,-206.796 397.392,-195.823 410.179,-186.199"/>
<polygon fill="black" stroke="black" points="412.391,-188.915 418.276,-180.104 408.181,-183.322 412.391,-188.915"/>
</g>
<!-- scanmatching&#45;&gt;base -->
<g id="edge8" class="edge"><title>scanmatching&#45;&gt;base</title>
<path fill="none" stroke="black" d="M103.911,-143.871C112.298,-119.564 127.739,-74.8187 137.679,-46.0132"/>
<polygon fill="black" stroke="black" points="141.115,-46.784 141.068,-36.1893 134.498,-44.5006 141.115,-46.784"/>
</g>
<!-- slam -->
<g id="node12" class="node"><title>slam</title>
<a xlink:href="group__mrpt__slam__grp.html" xlink:title="mrpt&#45;slam">
<polygon fill="#d0d0d0" stroke="black" points="249,-324 187,-324 187,-288 249,-288 249,-324"/>
<text text-anchor="middle" x="218" y="-302.9" font-family="Times New Roman,serif" font-size="12.00">mrpt&#45;slam</text>
</a>
</g>
<!-- slam&#45;&gt;graphs -->
<g id="edge38" class="edge"><title>slam&#45;&gt;graphs</title>
<path fill="none" stroke="black" d="M225.91,-287.697C229.553,-279.728 233.954,-270.1 237.994,-261.264"/>
<polygon fill="black" stroke="black" points="241.206,-262.654 242.181,-252.104 234.84,-259.744 241.206,-262.654"/>
</g>
<!-- slam&#45;&gt;bayes -->
<g id="edge36" class="edge"><title>slam&#45;&gt;bayes</title>
<path fill="none" stroke="black" d="M186.761,-300.765C154.488,-294.913 104.391,-281.512 72,-252 34.8018,-218.108 35.6342,-194.267 38,-144 38.3928,-135.655 39.1315,-126.596 39.923,-118.367"/>
<polygon fill="black" stroke="black" points="43.4315,-118.462 40.9691,-108.157 36.4679,-117.748 43.4315,-118.462"/>
</g>
<!-- slam&#45;&gt;maps -->
<g id="edge30" class="edge"><title>slam&#45;&gt;maps</title>
<path fill="none" stroke="black" d="M249.284,-291.223C252.21,-290.08 255.148,-288.987 258,-288 312.933,-268.993 331.117,-271.224 389.875,-252.163"/>
<polygon fill="black" stroke="black" points="391.276,-255.385 399.665,-248.914 389.072,-248.742 391.276,-255.385"/>
</g>
<!-- slam&#45;&gt;vision -->
<g id="edge32" class="edge"><title>slam&#45;&gt;vision</title>
<path fill="none" stroke="black" d="M249.138,-288.233C266.567,-278.848 288.503,-267.037 307.282,-256.925"/>
<polygon fill="black" stroke="black" points="309.067,-259.939 316.213,-252.116 305.749,-253.776 309.067,-259.939"/>
</g>
<!-- slam&#45;&gt;scanmatching -->
<g id="edge34" class="edge"><title>slam&#45;&gt;scanmatching</title>
<path fill="none" stroke="black" d="M186.944,-302.565C154.824,-298.2 106.189,-286.016 83,-252 70.5234,-233.698 76.3992,-208.471 84.1638,-189.548"/>
<polygon fill="black" stroke="black" points="87.414,-190.854 88.3091,-180.297 81.0259,-187.991 87.414,-190.854"/>
</g>
<!-- graphslam -->
<g id="node13" class="node"><title>graphslam</title>
<a xlink:href="group__mrpt__graphslam__grp.html" xlink:title="mrpt&#45;graphslam (.h)">
<polygon fill="#d0d0d0" stroke="black" points="230.25,-396 123.75,-396 123.75,-360 230.25,-360 230.25,-396"/>
<text text-anchor="middle" x="177" y="-374.9" font-family="Times New Roman,serif" font-size="12.00">mrpt&#45;graphslam (.h)</text>
</a>
</g>
<!-- graphslam&#45;&gt;slam -->
<g id="edge40" class="edge"><title>graphslam&#45;&gt;slam</title>
<path fill="none" stroke="black" d="M187.135,-359.697C191.852,-351.644 197.562,-341.894 202.782,-332.982"/>
<polygon fill="black" stroke="black" points="205.948,-334.502 207.982,-324.104 199.908,-330.964 205.948,-334.502"/>
</g>
<!-- hmtslam -->
<g id="node14" class="node"><title>hmtslam</title>
<a xlink:href="group__mrpt__hmtslam__grp.html" xlink:title="mrpt&#45;hmtslam">
<polygon fill="#d0d0d0" stroke="black" points="257.25,-468 178.75,-468 178.75,-432 257.25,-432 257.25,-468"/>
<text text-anchor="middle" x="218" y="-446.9" font-family="Times New Roman,serif" font-size="12.00">mrpt&#45;hmtslam</text>
</a>
</g>
<!-- hmtslam&#45;&gt;slam -->
<g id="edge48" class="edge"><title>hmtslam&#45;&gt;slam</title>
<path fill="none" stroke="black" d="M226.718,-431.833C231.375,-421.694 236.625,-408.444 239,-396 242,-380.284 242,-375.716 239,-360 237.293,-351.056 234.1,-341.695 230.711,-333.373"/>
<polygon fill="black" stroke="black" points="233.908,-331.949 226.718,-324.167 227.486,-334.734 233.908,-331.949"/>
</g>
<!-- hmtslam&#45;&gt;graphslam -->
<g id="edge50" class="edge"><title>hmtslam&#45;&gt;graphslam</title>
<path fill="none" stroke="black" d="M207.865,-431.697C203.148,-423.644 197.438,-413.894 192.218,-404.982"/>
<polygon fill="black" stroke="black" points="195.092,-402.964 187.018,-396.104 189.052,-406.502 195.092,-402.964"/>
</g>
<!-- reactivenav -->
<g id="node15" class="node"><title>reactivenav</title>
<a xlink:href="group__mrpt__reactivenav__grp.html" xlink:title="mrpt&#45;reactivenav">
<polygon fill="#d0d0d0" stroke="black" points="360.25,-324 267.75,-324 267.75,-288 360.25,-288 360.25,-324"/>
<text text-anchor="middle" x="314" y="-302.9" font-family="Times New Roman,serif" font-size="12.00">mrpt&#45;reactivenav</text>
</a>
</g>
<!-- reactivenav&#45;&gt;graphs -->
<g id="edge54" class="edge"><title>reactivenav&#45;&gt;graphs</title>
<path fill="none" stroke="black" d="M298.18,-287.697C290.43,-279.22 280.961,-268.864 272.476,-259.583"/>
<polygon fill="black" stroke="black" points="274.969,-257.123 265.638,-252.104 269.803,-261.846 274.969,-257.123"/>
</g>
<!-- reactivenav&#45;&gt;maps -->
<g id="edge52" class="edge"><title>reactivenav&#45;&gt;maps</title>
<path fill="none" stroke="black" d="M343.111,-287.876C358.67,-278.724 378.019,-267.342 394.776,-257.485"/>
<polygon fill="black" stroke="black" points="396.933,-260.277 403.777,-252.19 393.383,-254.243 396.933,-260.277"/>
</g>
<!-- detectors -->
<g id="node16" class="node"><title>detectors</title>
<a xlink:href="group__mrpt__detectors__grp.html" xlink:title="mrpt&#45;detectors">
<polygon fill="#d0d0d0" stroke="black" points="463,-324 379,-324 379,-288 463,-288 463,-324"/>
<text text-anchor="middle" x="421" y="-302.9" font-family="Times New Roman,serif" font-size="12.00">mrpt&#45;detectors</text>
</a>
</g>
<!-- detectors&#45;&gt;gui -->
<g id="edge46" class="edge"><title>detectors&#45;&gt;gui</title>
<path fill="none" stroke="black" d="M443.494,-287.697C454.955,-278.881 469.058,-268.032 481.484,-258.474"/>
<polygon fill="black" stroke="black" points="483.972,-260.976 489.764,-252.104 479.704,-255.427 483.972,-260.976"/>
</g>
<!-- detectors&#45;&gt;maps -->
<g id="edge44" class="edge"><title>detectors&#45;&gt;maps</title>
<path fill="none" stroke="black" d="M423.966,-287.697C425.289,-279.983 426.878,-270.712 428.352,-262.112"/>
<polygon fill="black" stroke="black" points="431.828,-262.552 430.068,-252.104 424.928,-261.369 431.828,-262.552"/>
</g>
<!-- detectors&#45;&gt;vision -->
<g id="edge42" class="edge"><title>detectors&#45;&gt;vision</title>
<path fill="none" stroke="black" d="M402.955,-287.697C393.938,-279.05 382.882,-268.449 373.057,-259.027"/>
<polygon fill="black" stroke="black" points="375.478,-256.499 365.837,-252.104 370.633,-261.552 375.478,-256.499"/>
</g>
<!-- kinematics -->
<g id="node17" class="node"><title>kinematics</title>
<a xlink:href="group__mrpt__kinematics__grp.html" xlink:title="mrpt&#45;kinematics">
<polygon fill="#d0d0d0" stroke="black" points="294.25,-180 205.75,-180 205.75,-144 294.25,-144 294.25,-180"/>
<text text-anchor="middle" x="250" y="-158.9" font-family="Times New Roman,serif" font-size="12.00">mrpt&#45;kinematics</text>
</a>
</g>
<!-- kinematics&#45;&gt;opengl -->
<g id="edge4" class="edge"><title>kinematics&#45;&gt;opengl</title>
<path fill="none" stroke="black" d="M275.197,-143.876C288.414,-134.893 304.792,-123.763 319.107,-114.034"/>
<polygon fill="black" stroke="black" points="321.403,-116.705 327.707,-108.19 317.468,-110.916 321.403,-116.705"/>
</g>
<!-- srba -->
<g id="node18" class="node"><title>srba</title>
<a xlink:href="group__mrpt__srba__grp.html" xlink:title="mrpt&#45;srba (.h)">
<polygon fill="#d0d0d0" stroke="black" points="393,-180 313,-180 313,-144 393,-144 393,-180"/>
<text text-anchor="middle" x="353" y="-158.9" font-family="Times New Roman,serif" font-size="12.00">mrpt&#45;srba (.h)</text>
</a>
</g>
<!-- srba&#45;&gt;opengl -->
<g id="edge2" class="edge"><title>srba&#45;&gt;opengl</title>
<path fill="none" stroke="black" d="M353,-143.697C353,-135.983 353,-126.712 353,-118.112"/>
<polygon fill="black" stroke="black" points="356.5,-118.104 353,-108.104 349.5,-118.104 356.5,-118.104"/>
</g>
</g>
</svg>
