<?xml version="1.0" encoding="UTF-8" standalone="no"?>
<!DOCTYPE svg PUBLIC "-//W3C//DTD SVG 1.1//EN"
 "http://www.w3.org/Graphics/SVG/1.1/DTD/svg11.dtd">
<!-- Generated by graphviz version 2.40.1 (20161225.0304)
 -->
<!-- Title: MRPT_LIBS Pages: 1 -->
<svg width="586pt" height="980pt"
 viewBox="0.00 0.00 585.50 980.00" xmlns="http://www.w3.org/2000/svg" xmlns:xlink="http://www.w3.org/1999/xlink">
<g id="graph0" class="graph" transform="scale(1 1) rotate(0) translate(4 976)">
<title>MRPT_LIBS</title>
<polygon fill="#ffffff" stroke="transparent" points="-4,4 -4,-976 581.5,-976 581.5,4 -4,4"/>
<!-- apps -->
<g id="node1" class="node">
<title>apps</title>
<g id="a_node1"><a xlink:href="group__mrpt__bayes__grp.html" xlink:title="mrpt&#45;apps">
<polygon fill="#d0d0d0" stroke="#000000" points="353.5,-972 281.5,-972 281.5,-936 353.5,-936 353.5,-972"/>
<text text-anchor="middle" x="317.5" y="-950.3" font-family="Times,serif" font-size="14.00" fill="#000000">mrpt&#45;apps</text>
</a>
</g>
</g>
<!-- gui -->
<g id="node2" class="node">
<title>gui</title>
<g id="a_node2"><a xlink:href="group__mrpt__gui__grp.html" xlink:title="mrpt&#45;gui">
<polygon fill="#d0d0d0" stroke="#000000" points="429,-756 364,-756 364,-720 429,-720 429,-756"/>
<text text-anchor="middle" x="396.5" y="-734.3" font-family="Times,serif" font-size="14.00" fill="#000000">mrpt&#45;gui</text>
</a>
</g>
</g>
<!-- apps&#45;&gt;gui -->
<g id="edge1" class="edge">
<title>apps&#45;&gt;gui</title>
<path fill="none" stroke="#000000" d="M339.7789,-935.9596C365.0154,-913.7596 404.23,-873.3856 416.5,-828 422.1393,-807.1405 416.2691,-783.2531 409.4601,-765.332"/>
<polygon fill="#000000" stroke="#000000" points="412.6837,-763.9681 405.6478,-756.0468 406.2082,-766.6268 412.6837,-763.9681"/>
</g>
<!-- slam -->
<g id="node3" class="node">
<title>slam</title>
<g id="a_node3"><a xlink:href="group__mrpt__slam__grp.html" xlink:title="mrpt&#45;slam">
<polygon fill="#d0d0d0" stroke="#000000" points="314.5,-756 240.5,-756 240.5,-720 314.5,-720 314.5,-756"/>
<text text-anchor="middle" x="277.5" y="-734.3" font-family="Times,serif" font-size="14.00" fill="#000000">mrpt&#45;slam</text>
</a>
</g>
</g>
<!-- apps&#45;&gt;slam -->
<g id="edge2" class="edge">
<title>apps&#45;&gt;slam</title>
<path fill="none" stroke="#000000" d="M284.1206,-935.8799C249.9513,-915.0842 199.2763,-877.3853 180.5,-828 174.8139,-813.0445 172.392,-805.7935 180.5,-792 186.5037,-781.7864 209.1109,-768.9292 230.9902,-758.3228"/>
<polygon fill="#000000" stroke="#000000" points="232.7308,-761.3713 240.2719,-753.9293 229.7359,-755.0443 232.7308,-761.3713"/>
</g>
<!-- hwdrivers -->
<g id="node4" class="node">
<title>hwdrivers</title>
<g id="a_node4"><a xlink:href="group__mrpt__hwdrivers__grp.html" xlink:title="mrpt&#45;hwdrivers">
<polygon fill="#d0d0d0" stroke="#000000" points="565,-828 464,-828 464,-792 565,-792 565,-828"/>
<text text-anchor="middle" x="514.5" y="-806.3" font-family="Times,serif" font-size="14.00" fill="#000000">mrpt&#45;hwdrivers</text>
</a>
</g>
</g>
<!-- apps&#45;&gt;hwdrivers -->
<g id="edge3" class="edge">
<title>apps&#45;&gt;hwdrivers</title>
<path fill="none" stroke="#000000" d="M353.6462,-945.1265C381.8876,-936.8766 420.9964,-922.4347 449.5,-900 471.2041,-882.9171 488.9772,-856.7574 500.4193,-837.0361"/>
<polygon fill="#000000" stroke="#000000" points="503.5292,-838.6461 505.3696,-828.2124 497.4243,-835.2211 503.5292,-838.6461"/>
</g>
<!-- graphslam -->
<g id="node5" class="node">
<title>graphslam</title>
<g id="a_node5"><a xlink:href="group__mrpt__graphslam__grp.html" xlink:title="mrpt&#45;graphslam">
<polygon fill="#d0d0d0" stroke="#000000" points="293.5,-828 189.5,-828 189.5,-792 293.5,-792 293.5,-828"/>
<text text-anchor="middle" x="241.5" y="-806.3" font-family="Times,serif" font-size="14.00" fill="#000000">mrpt&#45;graphslam</text>
</a>
</g>
</g>
<!-- apps&#45;&gt;graphslam -->
<g id="edge4" class="edge">
<title>apps&#45;&gt;graphslam</title>
<path fill="none" stroke="#000000" d="M292.2243,-935.8373C280.8646,-926.3929 268.2892,-913.9174 260.5,-900 249.873,-881.012 245.1759,-856.7402 243.1069,-838.1886"/>
<polygon fill="#000000" stroke="#000000" points="246.5718,-837.6458 242.1674,-828.0098 239.6014,-838.2892 246.5718,-837.6458"/>
</g>
<!-- hmtslam -->
<g id="node6" class="node">
<title>hmtslam</title>
<g id="a_node6"><a xlink:href="group__mrpt__hmtslam__grp.html" xlink:title="mrpt&#45;hmtslam">
<polygon fill="#d0d0d0" stroke="#000000" points="365,-900 270,-900 270,-864 365,-864 365,-900"/>
<text text-anchor="middle" x="317.5" y="-878.3" font-family="Times,serif" font-size="14.00" fill="#000000">mrpt&#45;hmtslam</text>
</a>
</g>
</g>
<!-- apps&#45;&gt;hmtslam -->
<g id="edge5" class="edge">
<title>apps&#45;&gt;hmtslam</title>
<path fill="none" stroke="#000000" d="M317.5,-935.8314C317.5,-928.131 317.5,-918.9743 317.5,-910.4166"/>
<polygon fill="#000000" stroke="#000000" points="321.0001,-910.4132 317.5,-900.4133 314.0001,-910.4133 321.0001,-910.4132"/>
</g>
<!-- opengl -->
<g id="node20" class="node">
<title>opengl</title>
<g id="a_node20"><a xlink:href="group__mrpt__opengl__grp.html" xlink:title="mrpt&#45;opengl">
<polygon fill="#d0d0d0" stroke="#000000" points="237.5,-540 153.5,-540 153.5,-504 237.5,-504 237.5,-540"/>
<text text-anchor="middle" x="195.5" y="-518.3" font-family="Times,serif" font-size="14.00" fill="#000000">mrpt&#45;opengl</text>
</a>
</g>
</g>
<!-- gui&#45;&gt;opengl -->
<g id="edge20" class="edge">
<title>gui&#45;&gt;opengl</title>
<path fill="none" stroke="#000000" d="M429.1462,-722.4458C444.0422,-713.4684 460.1846,-700.6308 468.5,-684 475.6554,-669.6892 476.7319,-661.7199 468.5,-648 433.5143,-589.6905 395.2679,-604.4382 333.5,-576 305.5252,-563.1203 273.5384,-550.4784 247.4084,-540.6682"/>
<polygon fill="#000000" stroke="#000000" points="248.2939,-537.2632 237.7012,-537.0524 245.8505,-543.8229 248.2939,-537.2632"/>
</g>
<!-- maps -->
<g id="node21" class="node">
<title>maps</title>
<g id="a_node21"><a xlink:href="group__mrpt__maps__grp.html" xlink:title="mrpt&#45;maps">
<polygon fill="#d0d0d0" stroke="#000000" points="233,-684 156,-684 156,-648 233,-648 233,-684"/>
<text text-anchor="middle" x="194.5" y="-662.3" font-family="Times,serif" font-size="14.00" fill="#000000">mrpt&#45;maps</text>
</a>
</g>
</g>
<!-- slam&#45;&gt;maps -->
<g id="edge50" class="edge">
<title>slam&#45;&gt;maps</title>
<path fill="none" stroke="#000000" d="M256.5556,-719.8314C246.4309,-711.0485 234.1223,-700.3712 223.1452,-690.8489"/>
<polygon fill="#000000" stroke="#000000" points="225.2851,-688.0718 215.4377,-684.1628 220.6981,-693.3595 225.2851,-688.0718"/>
</g>
<!-- vision -->
<g id="node22" class="node">
<title>vision</title>
<g id="a_node22"><a xlink:href="group__mrpt__vision__grp.html" xlink:title="mrpt&#45;vision">
<polygon fill="#d0d0d0" stroke="#000000" points="331.5,-684 251.5,-684 251.5,-648 331.5,-648 331.5,-684"/>
<text text-anchor="middle" x="291.5" y="-662.3" font-family="Times,serif" font-size="14.00" fill="#000000">mrpt&#45;vision</text>
</a>
</g>
</g>
<!-- slam&#45;&gt;vision -->
<g id="edge51" class="edge">
<title>slam&#45;&gt;vision</title>
<path fill="none" stroke="#000000" d="M281.0328,-719.8314C282.5301,-712.131 284.3105,-702.9743 285.9745,-694.4166"/>
<polygon fill="#000000" stroke="#000000" points="289.4465,-694.8975 287.9196,-684.4133 282.5752,-693.5614 289.4465,-694.8975"/>
</g>
<!-- hwdrivers&#45;&gt;gui -->
<g id="edge23" class="edge">
<title>hwdrivers&#45;&gt;gui</title>
<path fill="none" stroke="#000000" d="M484.7236,-791.8314C469.6307,-782.6221 451.1243,-771.3301 434.9657,-761.4706"/>
<polygon fill="#000000" stroke="#000000" points="436.6263,-758.3838 426.2669,-756.1628 432.9802,-764.3593 436.6263,-758.3838"/>
</g>
<!-- comms -->
<g id="node10" class="node">
<title>comms</title>
<g id="a_node10"><a xlink:href="group__mrpt__comms__grp.html" xlink:title="mrpt&#45;comms">
<polygon fill="#d0d0d0" stroke="#000000" points="577.5,-468 489.5,-468 489.5,-432 577.5,-432 577.5,-468"/>
<text text-anchor="middle" x="533.5" y="-446.3" font-family="Times,serif" font-size="14.00" fill="#000000">mrpt&#45;comms</text>
</a>
</g>
</g>
<!-- hwdrivers&#45;&gt;comms -->
<g id="edge22" class="edge">
<title>hwdrivers&#45;&gt;comms</title>
<path fill="none" stroke="#000000" d="M518.4368,-791.9156C524.002,-764.7281 533.5,-711.6422 533.5,-666 533.5,-666 533.5,-666 533.5,-594 533.5,-553.876 533.5,-507.4631 533.5,-478.4177"/>
<polygon fill="#000000" stroke="#000000" points="537.0001,-478.1853 533.5,-468.1854 530.0001,-478.1854 537.0001,-478.1853"/>
</g>
<!-- hwdrivers&#45;&gt;maps -->
<g id="edge24" class="edge">
<title>hwdrivers&#45;&gt;maps</title>
<path fill="none" stroke="#000000" d="M500.1577,-791.7176C480.4192,-766.7638 446.4165,-724.5917 438.5,-720 364.5795,-677.1252 330.3001,-705.4809 242.8534,-683.7214"/>
<polygon fill="#000000" stroke="#000000" points="243.6406,-680.3093 233.0782,-681.1374 241.8516,-687.0769 243.6406,-680.3093"/>
</g>
<!-- hwdrivers&#45;&gt;vision -->
<g id="edge25" class="edge">
<title>hwdrivers&#45;&gt;vision</title>
<path fill="none" stroke="#000000" d="M510.5582,-791.6661C505.2088,-771.2168 493.6628,-738.5774 471.5,-720 425.5541,-681.487 398.6336,-702.1664 341.5,-684 341.3983,-683.9677 341.2966,-683.9353 341.1947,-683.9028"/>
<polygon fill="#000000" stroke="#000000" points="342.1196,-680.5224 331.5264,-680.7097 339.9243,-687.1693 342.1196,-680.5224"/>
</g>
<!-- graphslam&#45;&gt;gui -->
<g id="edge18" class="edge">
<title>graphslam&#45;&gt;gui</title>
<path fill="none" stroke="#000000" d="M280.613,-791.8314C303.2351,-781.323 331.6951,-768.1029 354.7499,-757.3936"/>
<polygon fill="#000000" stroke="#000000" points="356.3472,-760.5109 363.942,-753.1237 353.3982,-754.1624 356.3472,-760.5109"/>
</g>
<!-- graphslam&#45;&gt;slam -->
<g id="edge19" class="edge">
<title>graphslam&#45;&gt;slam</title>
<path fill="none" stroke="#000000" d="M250.5843,-791.8314C254.5615,-783.8771 259.3155,-774.369 263.7139,-765.5723"/>
<polygon fill="#000000" stroke="#000000" points="266.9517,-766.9228 268.2934,-756.4133 260.6907,-763.7923 266.9517,-766.9228"/>
</g>
<!-- hmtslam&#45;&gt;graphslam -->
<g id="edge21" class="edge">
<title>hmtslam&#45;&gt;graphslam</title>
<path fill="none" stroke="#000000" d="M298.322,-863.8314C289.1412,-855.1337 277.9994,-844.5783 268.0224,-835.1265"/>
<polygon fill="#000000" stroke="#000000" points="270.3385,-832.4995 260.6719,-828.1628 265.5243,-837.5811 270.3385,-832.4995"/>
</g>
<!-- bayes -->
<g id="node7" class="node">
<title>bayes</title>
<g id="a_node7"><a xlink:href="group__mrpt__bayes__grp.html" xlink:title="mrpt&#45;bayes">
<polygon fill="#d0d0d0" stroke="#000000" points="239.5,-396 161.5,-396 161.5,-360 239.5,-360 239.5,-396"/>
<text text-anchor="middle" x="200.5" y="-374.3" font-family="Times,serif" font-size="14.00" fill="#000000">mrpt&#45;bayes</text>
</a>
</g>
</g>
<!-- math -->
<g id="node8" class="node">
<title>math</title>
<g id="a_node8"><a xlink:href="group__mrpt__math__grp.html" xlink:title="mrpt&#45;math">
<polygon fill="#d0d0d0" stroke="#000000" points="302,-252 227,-252 227,-216 302,-216 302,-252"/>
<text text-anchor="middle" x="264.5" y="-230.3" font-family="Times,serif" font-size="14.00" fill="#000000">mrpt&#45;math</text>
</a>
</g>
</g>
<!-- bayes&#45;&gt;math -->
<g id="edge6" class="edge">
<title>bayes&#45;&gt;math</title>
<path fill="none" stroke="#000000" d="M208.6056,-359.7623C219.6179,-334.9846 239.4016,-290.4714 252.2361,-261.5939"/>
<polygon fill="#000000" stroke="#000000" points="255.5971,-262.6492 256.4602,-252.0896 249.2004,-259.8062 255.5971,-262.6492"/>
</g>
<!-- config -->
<g id="node9" class="node">
<title>config</title>
<g id="a_node9"><a xlink:href="group__mrpt__config__grp.html" xlink:title="mrpt&#45;config">
<polygon fill="#d0d0d0" stroke="#000000" points="465.5,-324 383.5,-324 383.5,-288 465.5,-288 465.5,-324"/>
<text text-anchor="middle" x="424.5" y="-302.3" font-family="Times,serif" font-size="14.00" fill="#000000">mrpt&#45;config</text>
</a>
</g>
</g>
<!-- bayes&#45;&gt;config -->
<g id="edge7" class="edge">
<title>bayes&#45;&gt;config</title>
<path fill="none" stroke="#000000" d="M239.7225,-363.069C242.6853,-362.0094 245.6355,-360.9755 248.5,-360 290.3974,-345.7317 338.4672,-331.0987 373.7718,-320.6707"/>
<polygon fill="#000000" stroke="#000000" points="374.77,-324.0255 383.3752,-317.8448 372.7939,-317.3102 374.77,-324.0255"/>
</g>
<!-- system -->
<g id="node13" class="node">
<title>system</title>
<g id="a_node13"><a xlink:href="group__mrpt__system__grp.html" xlink:title="mrpt&#45;system">
<polygon fill="#d0d0d0" stroke="#000000" points="511.5,-180 425.5,-180 425.5,-144 511.5,-144 511.5,-180"/>
<text text-anchor="middle" x="468.5" y="-158.3" font-family="Times,serif" font-size="14.00" fill="#000000">mrpt&#45;system</text>
</a>
</g>
</g>
<!-- math&#45;&gt;system -->
<g id="edge35" class="edge">
<title>math&#45;&gt;system</title>
<path fill="none" stroke="#000000" d="M302.1661,-219.44C305.3185,-218.2624 308.4609,-217.1026 311.5,-216 355.0678,-200.1941 368.28,-196.4952 415.7507,-180.2445"/>
<polygon fill="#000000" stroke="#000000" points="417.0525,-183.4982 425.3732,-176.9395 414.7785,-176.8778 417.0525,-183.4982"/>
</g>
<!-- serialization -->
<g id="node17" class="node">
<title>serialization</title>
<g id="a_node17"><a xlink:href="group__mrpt__serialization__grp.html" xlink:title="mrpt&#45;serialization">
<polygon fill="#d0d0d0" stroke="#000000" points="407,-180 294,-180 294,-144 407,-144 407,-180"/>
<text text-anchor="middle" x="350.5" y="-158.3" font-family="Times,serif" font-size="14.00" fill="#000000">mrpt&#45;serialization</text>
</a>
</g>
</g>
<!-- math&#45;&gt;serialization -->
<g id="edge33" class="edge">
<title>math&#45;&gt;serialization</title>
<path fill="none" stroke="#000000" d="M286.2014,-215.8314C296.6921,-207.0485 309.4455,-196.3712 320.8194,-186.8489"/>
<polygon fill="#000000" stroke="#000000" points="323.3847,-189.2659 328.8055,-180.1628 318.8911,-183.8986 323.3847,-189.2659"/>
</g>
<!-- random -->
<g id="node26" class="node">
<title>random</title>
<g id="a_node26"><a xlink:href="group__mrpt__random__grp.html" xlink:title="mrpt&#45;random">
<polygon fill="#d0d0d0" stroke="#000000" points="196,-36 107,-36 107,0 196,0 196,-36"/>
<text text-anchor="middle" x="151.5" y="-14.3" font-family="Times,serif" font-size="14.00" fill="#000000">mrpt&#45;random</text>
</a>
</g>
</g>
<!-- math&#45;&gt;random -->
<g id="edge34" class="edge">
<title>math&#45;&gt;random</title>
<path fill="none" stroke="#000000" d="M255.06,-215.9555C235.2435,-178.0762 189.2095,-90.0818 165.7684,-45.274"/>
<polygon fill="#000000" stroke="#000000" points="168.7293,-43.3834 160.9926,-36.1451 162.5268,-46.6282 168.7293,-43.3834"/>
</g>
<!-- nanoflann -->
<g id="node27" class="node">
<title>nanoflann</title>
<g id="a_node27"><a xlink:href="group__nanoflann__grp.html" xlink:title="mrpt&#45;nanoflann">
<polygon fill="#d0d0d0" stroke="#000000" points="315,-36 214,-36 214,0 315,0 315,-36"/>
<text text-anchor="middle" x="264.5" y="-14.3" font-family="Times,serif" font-size="14.00" fill="#000000">mrpt&#45;nanoflann</text>
</a>
</g>
</g>
<!-- math&#45;&gt;nanoflann -->
<g id="edge36" class="edge">
<title>math&#45;&gt;nanoflann</title>
<path fill="none" stroke="#000000" d="M264.5,-215.9555C264.5,-178.3938 264.5,-91.5541 264.5,-46.4103"/>
<polygon fill="#000000" stroke="#000000" points="268.0001,-46.145 264.5,-36.1451 261.0001,-46.1451 268.0001,-46.145"/>
</g>
<!-- expr -->
<g id="node12" class="node">
<title>expr</title>
<g id="a_node12"><a xlink:href="group__mrpt__expr__grp.html" xlink:title="mrpt&#45;expr">
<polygon fill="#d0d0d0" stroke="#000000" points="509,-252 438,-252 438,-216 509,-216 509,-252"/>
<text text-anchor="middle" x="473.5" y="-230.3" font-family="Times,serif" font-size="14.00" fill="#000000">mrpt&#45;expr</text>
</a>
</g>
</g>
<!-- config&#45;&gt;expr -->
<g id="edge9" class="edge">
<title>config&#45;&gt;expr</title>
<path fill="none" stroke="#000000" d="M436.8648,-287.8314C442.4509,-279.6232 449.163,-269.7606 455.3072,-260.7323"/>
<polygon fill="#000000" stroke="#000000" points="458.236,-262.6496 460.9687,-252.4133 452.449,-258.7112 458.236,-262.6496"/>
</g>
<!-- config&#45;&gt;system -->
<g id="edge10" class="edge">
<title>config&#45;&gt;system</title>
<path fill="none" stroke="#000000" d="M422.5786,-287.8281C421.2777,-269.223 421.0861,-239.7486 429.5,-216 432.9395,-206.2918 438.7062,-196.8027 444.7645,-188.5552"/>
<polygon fill="#000000" stroke="#000000" points="447.6969,-190.487 451.098,-180.4529 442.1819,-186.1759 447.6969,-190.487"/>
</g>
<!-- io -->
<g id="node11" class="node">
<title>io</title>
<g id="a_node11"><a xlink:href="group__mrpt__io__grp.html" xlink:title="mrpt&#45;io">
<polygon fill="#d0d0d0" stroke="#000000" points="562.5,-324 504.5,-324 504.5,-288 562.5,-288 562.5,-324"/>
<text text-anchor="middle" x="533.5" y="-302.3" font-family="Times,serif" font-size="14.00" fill="#000000">mrpt&#45;io</text>
</a>
</g>
</g>
<!-- comms&#45;&gt;io -->
<g id="edge8" class="edge">
<title>comms&#45;&gt;io</title>
<path fill="none" stroke="#000000" d="M533.5,-431.7623C533.5,-407.201 533.5,-363.2474 533.5,-334.3541"/>
<polygon fill="#000000" stroke="#000000" points="537.0001,-334.0896 533.5,-324.0896 530.0001,-334.0897 537.0001,-334.0896"/>
</g>
<!-- io&#45;&gt;system -->
<g id="edge29" class="edge">
<title>io&#45;&gt;system</title>
<path fill="none" stroke="#000000" d="M533.4893,-287.8268C532.8064,-268.9599 529.8016,-239.039 518.5,-216 513.3733,-205.549 505.5627,-195.6972 497.6279,-187.3418"/>
<polygon fill="#000000" stroke="#000000" points="499.9322,-184.6968 490.3793,-180.1149 494.9898,-189.654 499.9322,-184.6968"/>
</g>
<!-- expr&#45;&gt;system -->
<g id="edge16" class="edge">
<title>expr&#45;&gt;system</title>
<path fill="none" stroke="#000000" d="M472.2383,-215.8314C471.7035,-208.131 471.0677,-198.9743 470.4734,-190.4166"/>
<polygon fill="#000000" stroke="#000000" points="473.9632,-190.1467 469.7787,-180.4133 466.98,-190.6317 473.9632,-190.1467"/>
</g>
<!-- containers -->
<g id="node14" class="node">
<title>containers</title>
<g id="a_node14"><a xlink:href="group__mrpt__containers__grp.html" xlink:title="mrpt&#45;containers">
<polygon fill="#d0d0d0" stroke="#000000" points="559,-108 456,-108 456,-72 559,-72 559,-108"/>
<text text-anchor="middle" x="507.5" y="-86.3" font-family="Times,serif" font-size="14.00" fill="#000000">mrpt&#45;containers</text>
</a>
</g>
</g>
<!-- system&#45;&gt;containers -->
<g id="edge53" class="edge">
<title>system&#45;&gt;containers</title>
<path fill="none" stroke="#000000" d="M478.3413,-143.8314C482.6957,-135.7925 487.9098,-126.1666 492.7169,-117.2918"/>
<polygon fill="#000000" stroke="#000000" points="495.8408,-118.8732 497.5261,-108.4133 489.6857,-115.5392 495.8408,-118.8732"/>
</g>
<!-- typemeta -->
<g id="node33" class="node">
<title>typemeta</title>
<g id="a_node33"><a xlink:href="group__mrpt__typemeta__grp.html" xlink:title="mrpt&#45;typemeta (.h)">
<polygon fill="#d0d0d0" stroke="#000000" points="454,-36 333,-36 333,0 454,0 454,-36"/>
<text text-anchor="middle" x="393.5" y="-14.3" font-family="Times,serif" font-size="14.00" fill="#000000">mrpt&#45;typemeta (.h)</text>
</a>
</g>
</g>
<!-- system&#45;&gt;typemeta -->
<g id="edge52" class="edge">
<title>system&#45;&gt;typemeta</title>
<path fill="none" stroke="#000000" d="M425.2466,-144.4868C400.6355,-133.5446 373.3729,-119.4152 366.5,-108 354.7857,-88.5436 363.7975,-63.632 374.4571,-44.9525"/>
<polygon fill="#000000" stroke="#000000" points="377.4976,-46.6896 379.7388,-36.3345 371.5292,-43.0318 377.4976,-46.6896"/>
</g>
<!-- core -->
<g id="node15" class="node">
<title>core</title>
<g id="a_node15"><a xlink:href="group__mrpt__core__grp.html" xlink:title="mrpt&#45;core">
<polygon fill="#d0d0d0" stroke="#000000" points="543,-36 472,-36 472,0 543,0 543,-36"/>
<text text-anchor="middle" x="507.5" y="-14.3" font-family="Times,serif" font-size="14.00" fill="#000000">mrpt&#45;core</text>
</a>
</g>
</g>
<!-- containers&#45;&gt;core -->
<g id="edge11" class="edge">
<title>containers&#45;&gt;core</title>
<path fill="none" stroke="#000000" d="M507.5,-71.8314C507.5,-64.131 507.5,-54.9743 507.5,-46.4166"/>
<polygon fill="#000000" stroke="#000000" points="511.0001,-46.4132 507.5,-36.4133 504.0001,-46.4133 511.0001,-46.4132"/>
</g>
<!-- db -->
<g id="node16" class="node">
<title>db</title>
<g id="a_node16"><a xlink:href="group__mrpt__db__grp.html" xlink:title="mrpt&#45;db">
<polygon fill="#d0d0d0" stroke="#000000" points="381,-252 320,-252 320,-216 381,-216 381,-252"/>
<text text-anchor="middle" x="350.5" y="-230.3" font-family="Times,serif" font-size="14.00" fill="#000000">mrpt&#45;db</text>
</a>
</g>
</g>
<!-- db&#45;&gt;system -->
<g id="edge13" class="edge">
<title>db&#45;&gt;system</title>
<path fill="none" stroke="#000000" d="M380.2764,-215.8314C395.3693,-206.6221 413.8757,-195.3301 430.0343,-185.4706"/>
<polygon fill="#000000" stroke="#000000" points="432.0198,-188.3593 438.7331,-180.1628 428.3737,-182.3838 432.0198,-188.3593"/>
</g>
<!-- db&#45;&gt;serialization -->
<g id="edge12" class="edge">
<title>db&#45;&gt;serialization</title>
<path fill="none" stroke="#000000" d="M350.5,-215.8314C350.5,-208.131 350.5,-198.9743 350.5,-190.4166"/>
<polygon fill="#000000" stroke="#000000" points="354.0001,-190.4132 350.5,-180.4133 347.0001,-190.4133 354.0001,-190.4132"/>
</g>
<!-- rtti -->
<g id="node32" class="node">
<title>rtti</title>
<g id="a_node32"><a xlink:href="group__mrpt__rtti__grp.html" xlink:title="mrpt&#45;rtti">
<polygon fill="#d0d0d0" stroke="#000000" points="438,-108 375,-108 375,-72 438,-72 438,-108"/>
<text text-anchor="middle" x="406.5" y="-86.3" font-family="Times,serif" font-size="14.00" fill="#000000">mrpt&#45;rtti</text>
</a>
</g>
</g>
<!-- serialization&#45;&gt;rtti -->
<g id="edge49" class="edge">
<title>serialization&#45;&gt;rtti</title>
<path fill="none" stroke="#000000" d="M364.6312,-143.8314C371.0811,-135.5386 378.8445,-125.557 385.9252,-116.4533"/>
<polygon fill="#000000" stroke="#000000" points="388.8019,-118.4556 392.1786,-108.4133 383.2764,-114.158 388.8019,-118.4556"/>
</g>
<!-- detectors -->
<g id="node18" class="node">
<title>detectors</title>
<g id="a_node18"><a xlink:href="group__mrpt__detectors__grp.html" xlink:title="mrpt&#45;detectors">
<polygon fill="#d0d0d0" stroke="#000000" points="407.5,-828 311.5,-828 311.5,-792 407.5,-792 407.5,-828"/>
<text text-anchor="middle" x="359.5" y="-806.3" font-family="Times,serif" font-size="14.00" fill="#000000">mrpt&#45;detectors</text>
</a>
</g>
</g>
<!-- detectors&#45;&gt;gui -->
<g id="edge14" class="edge">
<title>detectors&#45;&gt;gui</title>
<path fill="none" stroke="#000000" d="M368.8367,-791.8314C372.9243,-783.8771 377.8104,-774.369 382.3309,-765.5723"/>
<polygon fill="#000000" stroke="#000000" points="385.5799,-766.9074 387.0376,-756.4133 379.3539,-763.7078 385.5799,-766.9074"/>
</g>
<!-- detectors&#45;&gt;slam -->
<g id="edge15" class="edge">
<title>detectors&#45;&gt;slam</title>
<path fill="none" stroke="#000000" d="M338.8079,-791.8314C328.8052,-783.0485 316.645,-772.3712 305.8001,-762.8489"/>
<polygon fill="#000000" stroke="#000000" points="308.0092,-760.1308 298.1854,-756.1628 303.3906,-765.3909 308.0092,-760.1308"/>
</g>
<!-- graphs -->
<g id="node19" class="node">
<title>graphs</title>
<g id="a_node19"><a xlink:href="group__mrpt__graphs__grp.html" xlink:title="mrpt&#45;graphs">
<polygon fill="#d0d0d0" stroke="#000000" points="236,-612 153,-612 153,-576 236,-576 236,-612"/>
<text text-anchor="middle" x="194.5" y="-590.3" font-family="Times,serif" font-size="14.00" fill="#000000">mrpt&#45;graphs</text>
</a>
</g>
</g>
<!-- graphs&#45;&gt;opengl -->
<g id="edge17" class="edge">
<title>graphs&#45;&gt;opengl</title>
<path fill="none" stroke="#000000" d="M194.7523,-575.8314C194.8593,-568.131 194.9865,-558.9743 195.1053,-550.4166"/>
<polygon fill="#000000" stroke="#000000" points="198.6049,-550.4609 195.2443,-540.4133 191.6056,-550.3637 198.6049,-550.4609"/>
</g>
<!-- img -->
<g id="node23" class="node">
<title>img</title>
<g id="a_node23"><a xlink:href="group__mrpt__img__grp.html" xlink:title="mrpt&#45;img">
<polygon fill="#d0d0d0" stroke="#000000" points="327,-396 258,-396 258,-360 327,-360 327,-396"/>
<text text-anchor="middle" x="292.5" y="-374.3" font-family="Times,serif" font-size="14.00" fill="#000000">mrpt&#45;img</text>
</a>
</g>
</g>
<!-- opengl&#45;&gt;img -->
<g id="edge43" class="edge">
<title>opengl&#45;&gt;img</title>
<path fill="none" stroke="#000000" d="M215.7957,-503.7623C226.0984,-493.8401 238.3377,-480.9682 247.5,-468 261.3423,-448.4078 273.2824,-423.9384 281.3781,-405.4615"/>
<polygon fill="#000000" stroke="#000000" points="284.6489,-406.7141 285.3592,-396.1431 278.2118,-403.9639 284.6489,-406.7141"/>
</g>
<!-- poses -->
<g id="node30" class="node">
<title>poses</title>
<g id="a_node30"><a xlink:href="group__mrpt__poses__grp.html" xlink:title="mrpt&#45;poses">
<polygon fill="#d0d0d0" stroke="#000000" points="239,-468 162,-468 162,-432 239,-432 239,-468"/>
<text text-anchor="middle" x="200.5" y="-446.3" font-family="Times,serif" font-size="14.00" fill="#000000">mrpt&#45;poses</text>
</a>
</g>
</g>
<!-- opengl&#45;&gt;poses -->
<g id="edge42" class="edge">
<title>opengl&#45;&gt;poses</title>
<path fill="none" stroke="#000000" d="M196.7617,-503.8314C197.2965,-496.131 197.9323,-486.9743 198.5266,-478.4166"/>
<polygon fill="#000000" stroke="#000000" points="202.02,-478.6317 199.2213,-468.4133 195.0368,-478.1467 202.02,-478.6317"/>
</g>
<!-- maps&#45;&gt;graphs -->
<g id="edge31" class="edge">
<title>maps&#45;&gt;graphs</title>
<path fill="none" stroke="#000000" d="M194.5,-647.8314C194.5,-640.131 194.5,-630.9743 194.5,-622.4166"/>
<polygon fill="#000000" stroke="#000000" points="198.0001,-622.4132 194.5,-612.4133 191.0001,-622.4133 198.0001,-622.4132"/>
</g>
<!-- obs -->
<g id="node25" class="node">
<title>obs</title>
<g id="a_node25"><a xlink:href="group__mrpt__obs__grp.html" xlink:title="mrpt&#45;obs">
<polygon fill="#d0d0d0" stroke="#000000" points="324.5,-612 258.5,-612 258.5,-576 324.5,-576 324.5,-612"/>
<text text-anchor="middle" x="291.5" y="-590.3" font-family="Times,serif" font-size="14.00" fill="#000000">mrpt&#45;obs</text>
</a>
</g>
</g>
<!-- maps&#45;&gt;obs -->
<g id="edge32" class="edge">
<title>maps&#45;&gt;obs</title>
<path fill="none" stroke="#000000" d="M218.9772,-647.8314C231.0395,-638.8779 245.754,-627.9558 258.7686,-618.2955"/>
<polygon fill="#000000" stroke="#000000" points="261.087,-620.9335 267.0306,-612.1628 256.9148,-615.3127 261.087,-620.9335"/>
</g>
<!-- vision&#45;&gt;obs -->
<g id="edge56" class="edge">
<title>vision&#45;&gt;obs</title>
<path fill="none" stroke="#000000" d="M291.5,-647.8314C291.5,-640.131 291.5,-630.9743 291.5,-622.4166"/>
<polygon fill="#000000" stroke="#000000" points="295.0001,-622.4132 291.5,-612.4133 288.0001,-622.4133 295.0001,-622.4132"/>
</g>
<!-- img&#45;&gt;math -->
<g id="edge27" class="edge">
<title>img&#45;&gt;math</title>
<path fill="none" stroke="#000000" d="M288.9538,-359.7623C284.1569,-335.0928 275.5561,-290.8598 269.9392,-261.9731"/>
<polygon fill="#000000" stroke="#000000" points="273.3619,-261.2377 268.0174,-252.0896 266.4905,-262.5738 273.3619,-261.2377"/>
</g>
<!-- img&#45;&gt;config -->
<g id="edge28" class="edge">
<title>img&#45;&gt;config</title>
<path fill="none" stroke="#000000" d="M325.8092,-359.8314C342.9273,-350.4942 363.9706,-339.016 382.2222,-329.0606"/>
<polygon fill="#000000" stroke="#000000" points="384.0985,-332.024 391.2015,-324.1628 380.7465,-325.8788 384.0985,-332.024"/>
</g>
<!-- img&#45;&gt;io -->
<g id="edge26" class="edge">
<title>img&#45;&gt;io</title>
<path fill="none" stroke="#000000" d="M327.0756,-367.8272C363.704,-357.0304 423.2134,-339.4316 474.5,-324 481.0456,-322.0305 487.9949,-319.9242 494.7397,-317.8716"/>
<polygon fill="#000000" stroke="#000000" points="495.8597,-321.1893 504.4044,-314.9251 493.8184,-314.4935 495.8597,-321.1893"/>
</g>
<!-- kinematics -->
<g id="node24" class="node">
<title>kinematics</title>
<g id="a_node24"><a xlink:href="group__mrpt__kinematics__grp.html" xlink:title="mrpt&#45;kinematics">
<polygon fill="#d0d0d0" stroke="#000000" points="107,-612 0,-612 0,-576 107,-576 107,-612"/>
<text text-anchor="middle" x="53.5" y="-590.3" font-family="Times,serif" font-size="14.00" fill="#000000">mrpt&#45;kinematics</text>
</a>
</g>
</g>
<!-- kinematics&#45;&gt;opengl -->
<g id="edge30" class="edge">
<title>kinematics&#45;&gt;opengl</title>
<path fill="none" stroke="#000000" d="M89.3326,-575.8314C107.9157,-566.4089 130.7989,-554.8062 150.5565,-544.7883"/>
<polygon fill="#000000" stroke="#000000" points="152.3427,-547.8069 159.6789,-540.1628 149.177,-541.5635 152.3427,-547.8069"/>
</g>
<!-- obs&#45;&gt;db -->
<g id="edge40" class="edge">
<title>obs&#45;&gt;db</title>
<path fill="none" stroke="#000000" d="M310.6979,-575.6291C319.8249,-565.8663 330.1119,-553.1774 336.5,-540 354.3335,-503.2131 355.5,-490.8816 355.5,-450 355.5,-450 355.5,-450 355.5,-378 355.5,-337.8518 353.5347,-291.4451 352.0684,-262.4076"/>
<polygon fill="#000000" stroke="#000000" points="355.5511,-261.9829 351.536,-252.1784 348.5606,-262.3468 355.5511,-261.9829"/>
</g>
<!-- obs&#45;&gt;opengl -->
<g id="edge39" class="edge">
<title>obs&#45;&gt;opengl</title>
<path fill="none" stroke="#000000" d="M267.2751,-575.8314C255.3372,-566.8779 240.7744,-555.9558 227.894,-546.2955"/>
<polygon fill="#000000" stroke="#000000" points="229.8171,-543.3629 219.7171,-540.1628 225.6171,-548.9629 229.8171,-543.3629"/>
</g>
<!-- tfest -->
<g id="node29" class="node">
<title>tfest</title>
<g id="a_node29"><a xlink:href="group__mrpt__tfest__grp.html" xlink:title="mrpt&#45;tfest">
<polygon fill="#d0d0d0" stroke="#000000" points="327,-540 256,-540 256,-504 327,-504 327,-540"/>
<text text-anchor="middle" x="291.5" y="-518.3" font-family="Times,serif" font-size="14.00" fill="#000000">mrpt&#45;tfest</text>
</a>
</g>
</g>
<!-- obs&#45;&gt;tfest -->
<g id="edge41" class="edge">
<title>obs&#45;&gt;tfest</title>
<path fill="none" stroke="#000000" d="M291.5,-575.8314C291.5,-568.131 291.5,-558.9743 291.5,-550.4166"/>
<polygon fill="#000000" stroke="#000000" points="295.0001,-550.4132 291.5,-540.4133 288.0001,-550.4133 295.0001,-550.4132"/>
</g>
<!-- nav -->
<g id="node28" class="node">
<title>nav</title>
<g id="a_node28"><a xlink:href="group__mrpt__nav__grp.html" xlink:title="mrpt&#45;nav">
<polygon fill="#d0d0d0" stroke="#000000" points="72,-756 5,-756 5,-720 72,-720 72,-756"/>
<text text-anchor="middle" x="38.5" y="-734.3" font-family="Times,serif" font-size="14.00" fill="#000000">mrpt&#45;nav</text>
</a>
</g>
</g>
<!-- nav&#45;&gt;maps -->
<g id="edge38" class="edge">
<title>nav&#45;&gt;maps</title>
<path fill="none" stroke="#000000" d="M72.3497,-722.3771C94.0257,-712.3727 122.4846,-699.2379 146.4792,-688.1635"/>
<polygon fill="#000000" stroke="#000000" points="148.1594,-691.2429 155.7722,-683.8744 145.2259,-684.8871 148.1594,-691.2429"/>
</g>
<!-- nav&#45;&gt;kinematics -->
<g id="edge37" class="edge">
<title>nav&#45;&gt;kinematics</title>
<path fill="none" stroke="#000000" d="M38.834,-719.6688C39.3269,-701.4401 40.5385,-672.7052 43.5,-648 44.5054,-639.6132 46.0125,-630.5639 47.5537,-622.3152"/>
<polygon fill="#000000" stroke="#000000" points="51.0074,-622.8905 49.489,-612.4051 44.1372,-621.5488 51.0074,-622.8905"/>
</g>
<!-- tfest&#45;&gt;poses -->
<g id="edge54" class="edge">
<title>tfest&#45;&gt;poses</title>
<path fill="none" stroke="#000000" d="M268.5369,-503.8314C257.3285,-494.9632 243.6791,-484.1637 231.5561,-474.5718"/>
<polygon fill="#000000" stroke="#000000" points="233.4697,-471.6229 223.4558,-468.1628 229.1263,-477.1125 233.4697,-471.6229"/>
</g>
<!-- poses&#45;&gt;bayes -->
<g id="edge45" class="edge">
<title>poses&#45;&gt;bayes</title>
<path fill="none" stroke="#000000" d="M200.5,-431.8314C200.5,-424.131 200.5,-414.9743 200.5,-406.4166"/>
<polygon fill="#000000" stroke="#000000" points="204.0001,-406.4132 200.5,-396.4133 197.0001,-406.4133 204.0001,-406.4132"/>
</g>
<!-- pbmap -->
<g id="node31" class="node">
<title>pbmap</title>
<g id="a_node31"><a xlink:href="group__mrpt__pbmap__grp.html" xlink:title="mrpt&#45;pbmap">
<polygon fill="#d0d0d0" stroke="#000000" points="138,-684 53,-684 53,-648 138,-648 138,-684"/>
<text text-anchor="middle" x="95.5" y="-662.3" font-family="Times,serif" font-size="14.00" fill="#000000">mrpt&#45;pbmap</text>
</a>
</g>
</g>
<!-- pbmap&#45;&gt;graphs -->
<g id="edge44" class="edge">
<title>pbmap&#45;&gt;graphs</title>
<path fill="none" stroke="#000000" d="M120.4819,-647.8314C132.7928,-638.8779 147.8107,-627.9558 161.0937,-618.2955"/>
<polygon fill="#000000" stroke="#000000" points="163.4973,-620.8752 169.5261,-612.1628 159.3801,-615.214 163.4973,-620.8752"/>
</g>
<!-- rtti&#45;&gt;core -->
<g id="edge46" class="edge">
<title>rtti&#45;&gt;core</title>
<path fill="none" stroke="#000000" d="M431.9866,-71.8314C444.6659,-62.7927 460.1596,-51.7476 473.8055,-42.0198"/>
<polygon fill="#000000" stroke="#000000" points="475.9105,-44.8176 482.0216,-36.1628 471.8471,-39.1176 475.9105,-44.8176"/>
</g>
<!-- rtti&#45;&gt;typemeta -->
<g id="edge47" class="edge">
<title>rtti&#45;&gt;typemeta</title>
<path fill="none" stroke="#000000" d="M403.2196,-71.8314C401.8292,-64.131 400.1759,-54.9743 398.6308,-46.4166"/>
<polygon fill="#000000" stroke="#000000" points="402.0458,-45.6322 396.8246,-36.4133 395.1572,-46.8761 402.0458,-45.6322"/>
</g>
<!-- ros1bridge -->
<g id="node34" class="node">
<title>ros1bridge</title>
<g id="a_node34"><a xlink:href="group__mrpt__ros1bridge__grp.html" xlink:title="mrpt&#45;ros1bridge">
<polygon fill="#d0d0d0" stroke="#000000" points="222,-756 117,-756 117,-720 222,-720 222,-756"/>
<text text-anchor="middle" x="169.5" y="-734.3" font-family="Times,serif" font-size="14.00" fill="#000000">mrpt&#45;ros1bridge</text>
</a>
</g>
</g>
<!-- ros1bridge&#45;&gt;maps -->
<g id="edge48" class="edge">
<title>ros1bridge&#45;&gt;maps</title>
<path fill="none" stroke="#000000" d="M175.8086,-719.8314C178.5117,-712.0463 181.7316,-702.7729 184.731,-694.1347"/>
<polygon fill="#000000" stroke="#000000" points="188.1327,-695.0081 188.1065,-684.4133 181.52,-692.7119 188.1327,-695.0081"/>
</g>
<!-- topography -->
<g id="node35" class="node">
<title>topography</title>
<g id="a_node35"><a xlink:href="group__mrpt__topography__grp.html" xlink:title="mrpt&#45;topography">
<polygon fill="#d0d0d0" stroke="#000000" points="459,-684 350,-684 350,-648 459,-648 459,-684"/>
<text text-anchor="middle" x="404.5" y="-662.3" font-family="Times,serif" font-size="14.00" fill="#000000">mrpt&#45;topography</text>
</a>
</g>
</g>
<!-- topography&#45;&gt;obs -->
<g id="edge55" class="edge">
<title>topography&#45;&gt;obs</title>
<path fill="none" stroke="#000000" d="M375.9853,-647.8314C361.6658,-638.7074 344.1376,-627.539 328.7662,-617.7449"/>
<polygon fill="#000000" stroke="#000000" points="330.3199,-614.5847 320.0055,-612.1628 326.5583,-620.4882 330.3199,-614.5847"/>
</g>
</g>
</svg>
