<?xml version="1.0" encoding="UTF-8" standalone="no"?>
<!DOCTYPE svg PUBLIC "-//W3C//DTD SVG 1.1//EN"
 "http://www.w3.org/Graphics/SVG/1.1/DTD/svg11.dtd">
<!-- Generated by graphviz version 2.40.1 (20161225.0304)
 -->
<!-- Title: MRPT_LIBS Pages: 1 -->
<svg width="552pt" height="980pt"
 viewBox="0.00 0.00 552.03 980.00" xmlns="http://www.w3.org/2000/svg" xmlns:xlink="http://www.w3.org/1999/xlink">
<g id="graph0" class="graph" transform="scale(1 1) rotate(0) translate(4 976)">
<title>MRPT_LIBS</title>
<polygon fill="#ffffff" stroke="transparent" points="-4,4 -4,-976 548.0312,-976 548.0312,4 -4,4"/>
<!-- apps -->
<g id="node1" class="node">
<title>apps</title>
<g id="a_node1"><a xlink:href="group__mrpt__bayes__grp.html" xlink:title="mrpt&#45;apps">
<polygon fill="#d0d0d0" stroke="#000000" points="438,-972 366,-972 366,-936 438,-936 438,-972"/>
<text text-anchor="middle" x="402" y="-950.3" font-family="Times,serif" font-size="14.00" fill="#000000">mrpt&#45;apps</text>
</a>
</g>
</g>
<!-- gui -->
<g id="node2" class="node">
<title>gui</title>
<g id="a_node2"><a xlink:href="group__mrpt__gui__grp.html" xlink:title="mrpt&#45;gui">
<polygon fill="#d0d0d0" stroke="#000000" points="407.5,-756 342.5,-756 342.5,-720 407.5,-720 407.5,-756"/>
<text text-anchor="middle" x="375" y="-734.3" font-family="Times,serif" font-size="14.00" fill="#000000">mrpt&#45;gui</text>
</a>
</g>
</g>
<!-- apps&#45;&gt;gui -->
<g id="edge1" class="edge">
<title>apps&#45;&gt;gui</title>
<path fill="none" stroke="#000000" d="M379.7211,-935.9596C354.4846,-913.7596 315.27,-873.3856 303,-828 298.8243,-812.5545 295.8446,-806.3108 303,-792 309.7562,-778.4875 321.6796,-767.4791 333.9031,-759.0107"/>
<polygon fill="#000000" stroke="#000000" points="335.8513,-761.919 342.3538,-753.5542 332.0542,-756.0383 335.8513,-761.919"/>
</g>
<!-- slam -->
<g id="node3" class="node">
<title>slam</title>
<g id="a_node3"><a xlink:href="group__mrpt__slam__grp.html" xlink:title="mrpt&#45;slam">
<polygon fill="#d0d0d0" stroke="#000000" points="500,-756 426,-756 426,-720 500,-720 500,-756"/>
<text text-anchor="middle" x="463" y="-734.3" font-family="Times,serif" font-size="14.00" fill="#000000">mrpt&#45;slam</text>
</a>
</g>
</g>
<!-- apps&#45;&gt;slam -->
<g id="edge2" class="edge">
<title>apps&#45;&gt;slam</title>
<path fill="none" stroke="#000000" d="M435.6889,-935.9948C470.1197,-915.2961 521.0139,-877.6785 539,-828 544.4468,-812.9557 546.339,-806.2175 539,-792 532.3088,-779.0375 520.9095,-768.5092 508.9463,-760.3077"/>
<polygon fill="#000000" stroke="#000000" points="510.512,-757.1557 500.1949,-754.7455 506.7571,-763.0634 510.512,-757.1557"/>
</g>
<!-- hwdrivers -->
<g id="node4" class="node">
<title>hwdrivers</title>
<g id="a_node4"><a xlink:href="group__mrpt__hwdrivers__grp.html" xlink:title="mrpt&#45;hwdrivers">
<polygon fill="#d0d0d0" stroke="#000000" points="255.5,-828 154.5,-828 154.5,-792 255.5,-792 255.5,-828"/>
<text text-anchor="middle" x="205" y="-806.3" font-family="Times,serif" font-size="14.00" fill="#000000">mrpt&#45;hwdrivers</text>
</a>
</g>
</g>
<!-- apps&#45;&gt;hwdrivers -->
<g id="edge3" class="edge">
<title>apps&#45;&gt;hwdrivers</title>
<path fill="none" stroke="#000000" d="M365.8538,-945.1265C337.6124,-936.8766 298.5036,-922.4347 270,-900 248.2959,-882.9171 230.5228,-856.7574 219.0807,-837.0361"/>
<polygon fill="#000000" stroke="#000000" points="222.0757,-835.2211 214.1304,-828.2124 215.9708,-838.6461 222.0757,-835.2211"/>
</g>
<!-- graphslam -->
<g id="node5" class="node">
<title>graphslam</title>
<g id="a_node5"><a xlink:href="group__mrpt__graphslam__grp.html" xlink:title="mrpt&#45;graphslam">
<polygon fill="#d0d0d0" stroke="#000000" points="530,-828 426,-828 426,-792 530,-792 530,-828"/>
<text text-anchor="middle" x="478" y="-806.3" font-family="Times,serif" font-size="14.00" fill="#000000">mrpt&#45;graphslam</text>
</a>
</g>
</g>
<!-- apps&#45;&gt;graphslam -->
<g id="edge4" class="edge">
<title>apps&#45;&gt;graphslam</title>
<path fill="none" stroke="#000000" d="M427.2757,-935.8373C438.6354,-926.3929 451.2108,-913.9174 459,-900 469.627,-881.012 474.3241,-856.7402 476.3931,-838.1886"/>
<polygon fill="#000000" stroke="#000000" points="479.8986,-838.2892 477.3326,-828.0098 472.9282,-837.6458 479.8986,-838.2892"/>
</g>
<!-- hmtslam -->
<g id="node6" class="node">
<title>hmtslam</title>
<g id="a_node6"><a xlink:href="group__mrpt__hmtslam__grp.html" xlink:title="mrpt&#45;hmtslam">
<polygon fill="#d0d0d0" stroke="#000000" points="449.5,-900 354.5,-900 354.5,-864 449.5,-864 449.5,-900"/>
<text text-anchor="middle" x="402" y="-878.3" font-family="Times,serif" font-size="14.00" fill="#000000">mrpt&#45;hmtslam</text>
</a>
</g>
</g>
<!-- apps&#45;&gt;hmtslam -->
<g id="edge5" class="edge">
<title>apps&#45;&gt;hmtslam</title>
<path fill="none" stroke="#000000" d="M402,-935.8314C402,-928.131 402,-918.9743 402,-910.4166"/>
<polygon fill="#000000" stroke="#000000" points="405.5001,-910.4132 402,-900.4133 398.5001,-910.4133 405.5001,-910.4132"/>
</g>
<!-- opengl -->
<g id="node18" class="node">
<title>opengl</title>
<g id="a_node18"><a xlink:href="group__mrpt__opengl__grp.html" xlink:title="mrpt&#45;opengl">
<polygon fill="#d0d0d0" stroke="#000000" points="274,-540 190,-540 190,-504 274,-504 274,-540"/>
<text text-anchor="middle" x="232" y="-518.3" font-family="Times,serif" font-size="14.00" fill="#000000">mrpt&#45;opengl</text>
</a>
</g>
</g>
<!-- gui&#45;&gt;opengl -->
<g id="edge18" class="edge">
<title>gui&#45;&gt;opengl</title>
<path fill="none" stroke="#000000" d="M347.92,-719.7945C335.5596,-710.3403 321.5772,-697.869 312,-684 283.001,-642.0059 297.3759,-620.8359 273,-576 267.7712,-566.3824 260.9306,-556.626 254.3392,-548.101"/>
<polygon fill="#000000" stroke="#000000" points="256.8749,-545.6674 247.8999,-540.0371 251.4049,-550.0354 256.8749,-545.6674"/>
</g>
<!-- maps -->
<g id="node19" class="node">
<title>maps</title>
<g id="a_node19"><a xlink:href="group__mrpt__maps__grp.html" xlink:title="mrpt&#45;maps">
<polygon fill="#d0d0d0" stroke="#000000" points="262.5,-684 185.5,-684 185.5,-648 262.5,-648 262.5,-684"/>
<text text-anchor="middle" x="224" y="-662.3" font-family="Times,serif" font-size="14.00" fill="#000000">mrpt&#45;maps</text>
</a>
</g>
</g>
<!-- slam&#45;&gt;maps -->
<g id="edge46" class="edge">
<title>slam&#45;&gt;maps</title>
<path fill="none" stroke="#000000" d="M425.9128,-723.4363C422.5747,-722.2348 419.2347,-721.0718 416,-720 367.7233,-704.0039 311.6422,-688.5877 272.6031,-678.3514"/>
<polygon fill="#000000" stroke="#000000" points="273.1227,-674.8699 262.5632,-675.7345 271.3572,-681.6436 273.1227,-674.8699"/>
</g>
<!-- vision -->
<g id="node20" class="node">
<title>vision</title>
<g id="a_node20"><a xlink:href="group__mrpt__vision__grp.html" xlink:title="mrpt&#45;vision">
<polygon fill="#d0d0d0" stroke="#000000" points="401,-684 321,-684 321,-648 401,-648 401,-684"/>
<text text-anchor="middle" x="361" y="-662.3" font-family="Times,serif" font-size="14.00" fill="#000000">mrpt&#45;vision</text>
</a>
</g>
</g>
<!-- slam&#45;&gt;vision -->
<g id="edge47" class="edge">
<title>slam&#45;&gt;vision</title>
<path fill="none" stroke="#000000" d="M437.2611,-719.8314C424.4563,-710.7927 408.8091,-699.7476 395.0281,-690.0198"/>
<polygon fill="#000000" stroke="#000000" points="396.9188,-687.0703 386.7307,-684.1628 392.882,-692.7891 396.9188,-687.0703"/>
</g>
<!-- hwdrivers&#45;&gt;gui -->
<g id="edge21" class="edge">
<title>hwdrivers&#45;&gt;gui</title>
<path fill="none" stroke="#000000" d="M247.8982,-791.8314C273.8894,-780.8233 306.9071,-766.8393 332.7756,-755.8833"/>
<polygon fill="#000000" stroke="#000000" points="334.4672,-758.9679 342.3103,-751.845 331.7372,-752.5222 334.4672,-758.9679"/>
</g>
<!-- comms -->
<g id="node10" class="node">
<title>comms</title>
<g id="a_node10"><a xlink:href="group__mrpt__comms__grp.html" xlink:title="mrpt&#45;comms">
<polygon fill="#d0d0d0" stroke="#000000" points="88,-468 0,-468 0,-432 88,-432 88,-468"/>
<text text-anchor="middle" x="44" y="-446.3" font-family="Times,serif" font-size="14.00" fill="#000000">mrpt&#45;comms</text>
</a>
</g>
</g>
<!-- hwdrivers&#45;&gt;comms -->
<g id="edge20" class="edge">
<title>hwdrivers&#45;&gt;comms</title>
<path fill="none" stroke="#000000" d="M154.3866,-798.4684C113.8731,-788.2285 61.5097,-772.3853 47,-756 19.8972,-725.3937 28,-706.8816 28,-666 28,-666 28,-666 28,-594 28,-553.6291 34.2888,-507.2789 38.9811,-478.3146"/>
<polygon fill="#000000" stroke="#000000" points="42.4895,-478.5537 40.6848,-468.1137 35.5852,-477.4004 42.4895,-478.5537"/>
</g>
<!-- hwdrivers&#45;&gt;maps -->
<g id="edge22" class="edge">
<title>hwdrivers&#45;&gt;maps</title>
<path fill="none" stroke="#000000" d="M189.9764,-791.9597C176.6976,-773.7095 160.8885,-744.7377 171,-720 175.4592,-709.0907 183.3025,-699.1954 191.6103,-690.9434"/>
<polygon fill="#000000" stroke="#000000" points="194.0045,-693.4965 198.9572,-684.1305 189.2448,-688.3637 194.0045,-693.4965"/>
</g>
<!-- hwdrivers&#45;&gt;vision -->
<g id="edge23" class="edge">
<title>hwdrivers&#45;&gt;vision</title>
<path fill="none" stroke="#000000" d="M241.825,-791.8713C258.7639,-782.517 278.4915,-770.107 294,-756 314.4009,-737.4427 332.7289,-711.8845 345.0372,-692.7447"/>
<polygon fill="#000000" stroke="#000000" points="348.0575,-694.5164 350.4163,-684.1875 342.1312,-690.791 348.0575,-694.5164"/>
</g>
<!-- graphslam&#45;&gt;gui -->
<g id="edge16" class="edge">
<title>graphslam&#45;&gt;gui</title>
<path fill="none" stroke="#000000" d="M452.0088,-791.8314C439.0784,-782.7927 423.2778,-771.7476 409.3617,-762.0198"/>
<polygon fill="#000000" stroke="#000000" points="411.1843,-759.0235 400.9829,-756.1628 407.1737,-764.7608 411.1843,-759.0235"/>
</g>
<!-- graphslam&#45;&gt;slam -->
<g id="edge17" class="edge">
<title>graphslam&#45;&gt;slam</title>
<path fill="none" stroke="#000000" d="M474.2149,-791.8314C472.6106,-784.131 470.703,-774.9743 468.9201,-766.4166"/>
<polygon fill="#000000" stroke="#000000" points="472.3021,-765.4892 466.8361,-756.4133 465.4493,-766.9169 472.3021,-765.4892"/>
</g>
<!-- hmtslam&#45;&gt;graphslam -->
<g id="edge19" class="edge">
<title>hmtslam&#45;&gt;graphslam</title>
<path fill="none" stroke="#000000" d="M421.178,-863.8314C430.3588,-855.1337 441.5006,-844.5783 451.4776,-835.1265"/>
<polygon fill="#000000" stroke="#000000" points="453.9757,-837.5811 458.8281,-828.1628 449.1615,-832.4995 453.9757,-837.5811"/>
</g>
<!-- bayes -->
<g id="node7" class="node">
<title>bayes</title>
<g id="a_node7"><a xlink:href="group__mrpt__bayes__grp.html" xlink:title="mrpt&#45;bayes">
<polygon fill="#d0d0d0" stroke="#000000" points="342,-396 264,-396 264,-360 342,-360 342,-396"/>
<text text-anchor="middle" x="303" y="-374.3" font-family="Times,serif" font-size="14.00" fill="#000000">mrpt&#45;bayes</text>
</a>
</g>
</g>
<!-- math -->
<g id="node8" class="node">
<title>math</title>
<g id="a_node8"><a xlink:href="group__mrpt__math__grp.html" xlink:title="mrpt&#45;math">
<polygon fill="#d0d0d0" stroke="#000000" points="336.5,-252 261.5,-252 261.5,-216 336.5,-216 336.5,-252"/>
<text text-anchor="middle" x="299" y="-230.3" font-family="Times,serif" font-size="14.00" fill="#000000">mrpt&#45;math</text>
</a>
</g>
</g>
<!-- bayes&#45;&gt;math -->
<g id="edge6" class="edge">
<title>bayes&#45;&gt;math</title>
<path fill="none" stroke="#000000" d="M302.4934,-359.7623C301.8111,-335.201 300.5902,-291.2474 299.7876,-262.3541"/>
<polygon fill="#000000" stroke="#000000" points="303.2789,-261.9885 299.5025,-252.0896 296.2816,-262.183 303.2789,-261.9885"/>
</g>
<!-- config -->
<g id="node9" class="node">
<title>config</title>
<g id="a_node9"><a xlink:href="group__mrpt__config__grp.html" xlink:title="mrpt&#45;config">
<polygon fill="#d0d0d0" stroke="#000000" points="241,-324 159,-324 159,-288 241,-288 241,-324"/>
<text text-anchor="middle" x="200" y="-302.3" font-family="Times,serif" font-size="14.00" fill="#000000">mrpt&#45;config</text>
</a>
</g>
</g>
<!-- bayes&#45;&gt;config -->
<g id="edge7" class="edge">
<title>bayes&#45;&gt;config</title>
<path fill="none" stroke="#000000" d="M277.0088,-359.8314C264.0784,-350.7927 248.2778,-339.7476 234.3617,-330.0198"/>
<polygon fill="#000000" stroke="#000000" points="236.1843,-327.0235 225.9829,-324.1628 232.1737,-332.7608 236.1843,-327.0235"/>
</g>
<!-- system -->
<g id="node13" class="node">
<title>system</title>
<g id="a_node13"><a xlink:href="group__mrpt__system__grp.html" xlink:title="mrpt&#45;system">
<polygon fill="#d0d0d0" stroke="#000000" points="186,-180 100,-180 100,-144 186,-144 186,-180"/>
<text text-anchor="middle" x="143" y="-158.3" font-family="Times,serif" font-size="14.00" fill="#000000">mrpt&#45;system</text>
</a>
</g>
</g>
<!-- math&#45;&gt;system -->
<g id="edge33" class="edge">
<title>math&#45;&gt;system</title>
<path fill="none" stroke="#000000" d="M261.2368,-216.5708C240.249,-206.8841 213.909,-194.7272 191.4201,-184.3477"/>
<polygon fill="#000000" stroke="#000000" points="192.5909,-181.0334 182.0446,-180.0206 189.6575,-187.3891 192.5909,-181.0334"/>
</g>
<!-- serialization -->
<g id="node24" class="node">
<title>serialization</title>
<g id="a_node24"><a xlink:href="group__mrpt__serialization__grp.html" xlink:title="mrpt&#45;serialization">
<polygon fill="#d0d0d0" stroke="#000000" points="317.5,-180 204.5,-180 204.5,-144 317.5,-144 317.5,-180"/>
<text text-anchor="middle" x="261" y="-158.3" font-family="Times,serif" font-size="14.00" fill="#000000">mrpt&#45;serialization</text>
</a>
</g>
</g>
<!-- math&#45;&gt;serialization -->
<g id="edge31" class="edge">
<title>math&#45;&gt;serialization</title>
<path fill="none" stroke="#000000" d="M289.411,-215.8314C285.1683,-207.7925 280.0879,-198.1666 275.404,-189.2918"/>
<polygon fill="#000000" stroke="#000000" points="278.4811,-187.6235 270.7181,-180.4133 272.2904,-190.8908 278.4811,-187.6235"/>
</g>
<!-- random -->
<g id="node25" class="node">
<title>random</title>
<g id="a_node25"><a xlink:href="group__mrpt__random__grp.html" xlink:title="mrpt&#45;random">
<polygon fill="#d0d0d0" stroke="#000000" points="390.5,-36 301.5,-36 301.5,0 390.5,0 390.5,-36"/>
<text text-anchor="middle" x="346" y="-14.3" font-family="Times,serif" font-size="14.00" fill="#000000">mrpt&#45;random</text>
</a>
</g>
</g>
<!-- math&#45;&gt;random -->
<g id="edge32" class="edge">
<title>math&#45;&gt;random</title>
<path fill="none" stroke="#000000" d="M310.1361,-215.6589C315.791,-205.5006 322.2431,-192.4423 326,-180 339.6887,-134.6652 344.0284,-79.4871 345.3918,-46.6341"/>
<polygon fill="#000000" stroke="#000000" points="348.8981,-46.5111 345.7492,-36.395 341.9024,-46.2668 348.8981,-46.5111"/>
</g>
<!-- nanoflann -->
<g id="node26" class="node">
<title>nanoflann</title>
<g id="a_node26"><a xlink:href="group__nanoflann__grp.html" xlink:title="mrpt&#45;nanoflann">
<polygon fill="#d0d0d0" stroke="#000000" points="509.5,-36 408.5,-36 408.5,0 509.5,0 509.5,-36"/>
<text text-anchor="middle" x="459" y="-14.3" font-family="Times,serif" font-size="14.00" fill="#000000">mrpt&#45;nanoflann</text>
</a>
</g>
</g>
<!-- math&#45;&gt;nanoflann -->
<g id="edge34" class="edge">
<title>math&#45;&gt;nanoflann</title>
<path fill="none" stroke="#000000" d="M315.1846,-215.8553C324.2016,-205.5375 335.4935,-192.2644 345,-180 380.8205,-133.7875 419.3434,-77.5049 441.1802,-44.9102"/>
<polygon fill="#000000" stroke="#000000" points="444.2383,-46.6331 446.8807,-36.3731 438.4168,-42.7459 444.2383,-46.6331"/>
</g>
<!-- expr -->
<g id="node12" class="node">
<title>expr</title>
<g id="a_node12"><a xlink:href="group__mrpt__expr__grp.html" xlink:title="mrpt&#45;expr">
<polygon fill="#d0d0d0" stroke="#000000" points="242.5,-252 171.5,-252 171.5,-216 242.5,-216 242.5,-252"/>
<text text-anchor="middle" x="207" y="-230.3" font-family="Times,serif" font-size="14.00" fill="#000000">mrpt&#45;expr</text>
</a>
</g>
</g>
<!-- config&#45;&gt;expr -->
<g id="edge9" class="edge">
<title>config&#45;&gt;expr</title>
<path fill="none" stroke="#000000" d="M201.7664,-287.8314C202.515,-280.131 203.4053,-270.9743 204.2373,-262.4166"/>
<polygon fill="#000000" stroke="#000000" points="207.7256,-262.7051 205.2098,-252.4133 200.7585,-262.0276 207.7256,-262.7051"/>
</g>
<!-- config&#45;&gt;system -->
<g id="edge10" class="edge">
<title>config&#45;&gt;system</title>
<path fill="none" stroke="#000000" d="M184.254,-287.6429C176.4748,-277.6881 167.5829,-264.8229 162,-252 153.4204,-232.2941 148.6105,-208.4331 145.9779,-190.2324"/>
<polygon fill="#000000" stroke="#000000" points="149.4387,-189.704 144.6674,-180.2443 142.4981,-190.6147 149.4387,-189.704"/>
</g>
<!-- io -->
<g id="node11" class="node">
<title>io</title>
<g id="a_node11"><a xlink:href="group__mrpt__io__grp.html" xlink:title="mrpt&#45;io">
<polygon fill="#d0d0d0" stroke="#000000" points="134,-324 76,-324 76,-288 134,-288 134,-324"/>
<text text-anchor="middle" x="105" y="-302.3" font-family="Times,serif" font-size="14.00" fill="#000000">mrpt&#45;io</text>
</a>
</g>
</g>
<!-- comms&#45;&gt;io -->
<g id="edge8" class="edge">
<title>comms&#45;&gt;io</title>
<path fill="none" stroke="#000000" d="M51.7257,-431.7623C62.2218,-406.9846 81.0781,-362.4714 93.3109,-333.5939"/>
<polygon fill="#000000" stroke="#000000" points="96.6592,-334.6628 97.337,-324.0896 90.2136,-331.9323 96.6592,-334.6628"/>
</g>
<!-- io&#45;&gt;system -->
<g id="edge27" class="edge">
<title>io&#45;&gt;system</title>
<path fill="none" stroke="#000000" d="M109.8127,-287.7623C116.3227,-263.0928 127.9953,-218.8598 135.6182,-189.9731"/>
<polygon fill="#000000" stroke="#000000" points="139.0589,-190.6517 138.2264,-180.0896 132.2906,-188.8656 139.0589,-190.6517"/>
</g>
<!-- expr&#45;&gt;system -->
<g id="edge14" class="edge">
<title>expr&#45;&gt;system</title>
<path fill="none" stroke="#000000" d="M190.8501,-215.8314C183.3283,-207.3694 174.2435,-197.1489 166.0196,-187.8971"/>
<polygon fill="#000000" stroke="#000000" points="168.627,-185.5621 159.3673,-180.4133 163.3951,-190.2127 168.627,-185.5621"/>
</g>
<!-- containers -->
<g id="node14" class="node">
<title>containers</title>
<g id="a_node14"><a xlink:href="group__mrpt__containers__grp.html" xlink:title="mrpt&#45;containers">
<polygon fill="#d0d0d0" stroke="#000000" points="160.5,-108 57.5,-108 57.5,-72 160.5,-72 160.5,-108"/>
<text text-anchor="middle" x="109" y="-86.3" font-family="Times,serif" font-size="14.00" fill="#000000">mrpt&#45;containers</text>
</a>
</g>
</g>
<!-- system&#45;&gt;containers -->
<g id="edge49" class="edge">
<title>system&#45;&gt;containers</title>
<path fill="none" stroke="#000000" d="M134.4204,-143.8314C130.6642,-135.8771 126.1743,-126.369 122.0202,-117.5723"/>
<polygon fill="#000000" stroke="#000000" points="125.1301,-115.9612 117.6952,-108.4133 118.8004,-118.9503 125.1301,-115.9612"/>
</g>
<!-- typemeta -->
<g id="node31" class="node">
<title>typemeta</title>
<g id="a_node31"><a xlink:href="group__mrpt__typemeta__grp.html" xlink:title="mrpt&#45;typemeta (.h)">
<polygon fill="#d0d0d0" stroke="#000000" points="283.5,-36 162.5,-36 162.5,0 283.5,0 283.5,-36"/>
<text text-anchor="middle" x="223" y="-14.3" font-family="Times,serif" font-size="14.00" fill="#000000">mrpt&#45;typemeta (.h)</text>
</a>
</g>
</g>
<!-- system&#45;&gt;typemeta -->
<g id="edge48" class="edge">
<title>system&#45;&gt;typemeta</title>
<path fill="none" stroke="#000000" d="M153.1321,-143.7623C167.0176,-118.7682 192.0598,-73.6924 208.0884,-44.8409"/>
<polygon fill="#000000" stroke="#000000" points="211.1533,-46.531 212.9502,-36.0896 205.0342,-43.1314 211.1533,-46.531"/>
</g>
<!-- core -->
<g id="node15" class="node">
<title>core</title>
<g id="a_node15"><a xlink:href="group__mrpt__core__grp.html" xlink:title="mrpt&#45;core">
<polygon fill="#d0d0d0" stroke="#000000" points="144.5,-36 73.5,-36 73.5,0 144.5,0 144.5,-36"/>
<text text-anchor="middle" x="109" y="-14.3" font-family="Times,serif" font-size="14.00" fill="#000000">mrpt&#45;core</text>
</a>
</g>
</g>
<!-- containers&#45;&gt;core -->
<g id="edge11" class="edge">
<title>containers&#45;&gt;core</title>
<path fill="none" stroke="#000000" d="M109,-71.8314C109,-64.131 109,-54.9743 109,-46.4166"/>
<polygon fill="#000000" stroke="#000000" points="112.5001,-46.4132 109,-36.4133 105.5001,-46.4133 112.5001,-46.4132"/>
</g>
<!-- detectors -->
<g id="node16" class="node">
<title>detectors</title>
<g id="a_node16"><a xlink:href="group__mrpt__detectors__grp.html" xlink:title="mrpt&#45;detectors">
<polygon fill="#d0d0d0" stroke="#000000" points="408,-828 312,-828 312,-792 408,-792 408,-828"/>
<text text-anchor="middle" x="360" y="-806.3" font-family="Times,serif" font-size="14.00" fill="#000000">mrpt&#45;detectors</text>
</a>
</g>
</g>
<!-- detectors&#45;&gt;gui -->
<g id="edge12" class="edge">
<title>detectors&#45;&gt;gui</title>
<path fill="none" stroke="#000000" d="M363.7851,-791.8314C365.3894,-784.131 367.297,-774.9743 369.0799,-766.4166"/>
<polygon fill="#000000" stroke="#000000" points="372.5507,-766.9169 371.1639,-756.4133 365.6979,-765.4892 372.5507,-766.9169"/>
</g>
<!-- detectors&#45;&gt;slam -->
<g id="edge13" class="edge">
<title>detectors&#45;&gt;slam</title>
<path fill="none" stroke="#000000" d="M385.9912,-791.8314C398.9216,-782.7927 414.7222,-771.7476 428.6383,-762.0198"/>
<polygon fill="#000000" stroke="#000000" points="430.8263,-764.7608 437.0171,-756.1628 426.8157,-759.0235 430.8263,-764.7608"/>
</g>
<!-- graphs -->
<g id="node17" class="node">
<title>graphs</title>
<g id="a_node17"><a xlink:href="group__mrpt__graphs__grp.html" xlink:title="mrpt&#45;graphs">
<polygon fill="#d0d0d0" stroke="#000000" points="264.5,-612 181.5,-612 181.5,-576 264.5,-576 264.5,-612"/>
<text text-anchor="middle" x="223" y="-590.3" font-family="Times,serif" font-size="14.00" fill="#000000">mrpt&#45;graphs</text>
</a>
</g>
</g>
<!-- graphs&#45;&gt;opengl -->
<g id="edge15" class="edge">
<title>graphs&#45;&gt;opengl</title>
<path fill="none" stroke="#000000" d="M225.2711,-575.8314C226.2336,-568.131 227.3782,-558.9743 228.4479,-550.4166"/>
<polygon fill="#000000" stroke="#000000" points="231.9309,-550.7702 229.6983,-540.4133 224.9849,-549.9019 231.9309,-550.7702"/>
</g>
<!-- img -->
<g id="node21" class="node">
<title>img</title>
<g id="a_node21"><a xlink:href="group__mrpt__img__grp.html" xlink:title="mrpt&#45;img">
<polygon fill="#d0d0d0" stroke="#000000" points="238.5,-396 169.5,-396 169.5,-360 238.5,-360 238.5,-396"/>
<text text-anchor="middle" x="204" y="-374.3" font-family="Times,serif" font-size="14.00" fill="#000000">mrpt&#45;img</text>
</a>
</g>
</g>
<!-- opengl&#45;&gt;img -->
<g id="edge40" class="edge">
<title>opengl&#45;&gt;img</title>
<path fill="none" stroke="#000000" d="M228.4538,-503.7623C223.6569,-479.0928 215.0561,-434.8598 209.4392,-405.9731"/>
<polygon fill="#000000" stroke="#000000" points="212.8619,-405.2377 207.5174,-396.0896 205.9905,-406.5738 212.8619,-405.2377"/>
</g>
<!-- poses -->
<g id="node29" class="node">
<title>poses</title>
<g id="a_node29"><a xlink:href="group__mrpt__poses__grp.html" xlink:title="mrpt&#45;poses">
<polygon fill="#d0d0d0" stroke="#000000" points="341.5,-468 264.5,-468 264.5,-432 341.5,-432 341.5,-468"/>
<text text-anchor="middle" x="303" y="-446.3" font-family="Times,serif" font-size="14.00" fill="#000000">mrpt&#45;poses</text>
</a>
</g>
</g>
<!-- opengl&#45;&gt;poses -->
<g id="edge39" class="edge">
<title>opengl&#45;&gt;poses</title>
<path fill="none" stroke="#000000" d="M249.9163,-503.8314C258.3442,-495.2848 268.541,-484.9443 277.736,-475.6198"/>
<polygon fill="#000000" stroke="#000000" points="280.3131,-477.9912 284.8425,-468.4133 275.3289,-473.0761 280.3131,-477.9912"/>
</g>
<!-- maps&#45;&gt;graphs -->
<g id="edge29" class="edge">
<title>maps&#45;&gt;graphs</title>
<path fill="none" stroke="#000000" d="M223.7477,-647.8314C223.6407,-640.131 223.5135,-630.9743 223.3947,-622.4166"/>
<polygon fill="#000000" stroke="#000000" points="226.8944,-622.3637 223.2557,-612.4133 219.8951,-622.4609 226.8944,-622.3637"/>
</g>
<!-- obs -->
<g id="node23" class="node">
<title>obs</title>
<g id="a_node23"><a xlink:href="group__mrpt__obs__grp.html" xlink:title="mrpt&#45;obs">
<polygon fill="#d0d0d0" stroke="#000000" points="387,-612 321,-612 321,-576 387,-576 387,-612"/>
<text text-anchor="middle" x="354" y="-590.3" font-family="Times,serif" font-size="14.00" fill="#000000">mrpt&#45;obs</text>
</a>
</g>
</g>
<!-- maps&#45;&gt;obs -->
<g id="edge30" class="edge">
<title>maps&#45;&gt;obs</title>
<path fill="none" stroke="#000000" d="M256.8045,-647.8314C273.5862,-638.5368 294.1985,-627.1208 312.1163,-617.1971"/>
<polygon fill="#000000" stroke="#000000" points="314.1538,-620.0696 321.206,-612.1628 310.7623,-613.9461 314.1538,-620.0696"/>
</g>
<!-- vision&#45;&gt;obs -->
<g id="edge52" class="edge">
<title>vision&#45;&gt;obs</title>
<path fill="none" stroke="#000000" d="M359.2336,-647.8314C358.485,-640.131 357.5947,-630.9743 356.7627,-622.4166"/>
<polygon fill="#000000" stroke="#000000" points="360.2415,-622.0276 355.7902,-612.4133 353.2744,-622.7051 360.2415,-622.0276"/>
</g>
<!-- img&#45;&gt;math -->
<g id="edge25" class="edge">
<title>img&#45;&gt;math</title>
<path fill="none" stroke="#000000" d="M221.1795,-359.7734C230.2885,-349.6486 241.3513,-336.5859 250,-324 263.7506,-303.9897 276.7658,-279.737 285.9219,-261.4519"/>
<polygon fill="#000000" stroke="#000000" points="289.1852,-262.7477 290.4665,-252.2306 282.9063,-259.6532 289.1852,-262.7477"/>
</g>
<!-- img&#45;&gt;config -->
<g id="edge26" class="edge">
<title>img&#45;&gt;config</title>
<path fill="none" stroke="#000000" d="M202.9906,-359.8314C202.5628,-352.131 202.0541,-342.9743 201.5787,-334.4166"/>
<polygon fill="#000000" stroke="#000000" points="205.0724,-334.2037 201.023,-324.4133 198.0831,-334.592 205.0724,-334.2037"/>
</g>
<!-- img&#45;&gt;io -->
<g id="edge24" class="edge">
<title>img&#45;&gt;io</title>
<path fill="none" stroke="#000000" d="M179.0181,-359.8314C166.7072,-350.8779 151.6893,-339.9558 138.4063,-330.2955"/>
<polygon fill="#000000" stroke="#000000" points="140.1199,-327.214 129.9739,-324.1628 136.0027,-332.8752 140.1199,-327.214"/>
</g>
<!-- kinematics -->
<g id="node22" class="node">
<title>kinematics</title>
<g id="a_node22"><a xlink:href="group__mrpt__kinematics__grp.html" xlink:title="mrpt&#45;kinematics">
<polygon fill="#d0d0d0" stroke="#000000" points="163.5,-612 56.5,-612 56.5,-576 163.5,-576 163.5,-612"/>
<text text-anchor="middle" x="110" y="-590.3" font-family="Times,serif" font-size="14.00" fill="#000000">mrpt&#45;kinematics</text>
</a>
</g>
</g>
<!-- kinematics&#45;&gt;opengl -->
<g id="edge28" class="edge">
<title>kinematics&#45;&gt;opengl</title>
<path fill="none" stroke="#000000" d="M140.7858,-575.8314C156.3903,-566.6221 175.524,-555.3301 192.2303,-545.4706"/>
<polygon fill="#000000" stroke="#000000" points="194.3909,-548.2596 201.2241,-540.1628 190.8331,-542.2312 194.3909,-548.2596"/>
</g>
<!-- obs&#45;&gt;opengl -->
<g id="edge37" class="edge">
<title>obs&#45;&gt;opengl</title>
<path fill="none" stroke="#000000" d="M323.2142,-575.8314C307.6097,-566.6221 288.476,-555.3301 271.7697,-545.4706"/>
<polygon fill="#000000" stroke="#000000" points="273.1669,-542.2312 262.7759,-540.1628 269.6091,-548.2596 273.1669,-542.2312"/>
</g>
<!-- tfest -->
<g id="node28" class="node">
<title>tfest</title>
<g id="a_node28"><a xlink:href="group__mrpt__tfest__grp.html" xlink:title="mrpt&#45;tfest">
<polygon fill="#d0d0d0" stroke="#000000" points="380.5,-540 309.5,-540 309.5,-504 380.5,-504 380.5,-540"/>
<text text-anchor="middle" x="345" y="-518.3" font-family="Times,serif" font-size="14.00" fill="#000000">mrpt&#45;tfest</text>
</a>
</g>
</g>
<!-- obs&#45;&gt;tfest -->
<g id="edge38" class="edge">
<title>obs&#45;&gt;tfest</title>
<path fill="none" stroke="#000000" d="M351.7289,-575.8314C350.7664,-568.131 349.6218,-558.9743 348.5521,-550.4166"/>
<polygon fill="#000000" stroke="#000000" points="352.0151,-549.9019 347.3017,-540.4133 345.0691,-550.7702 352.0151,-549.9019"/>
</g>
<!-- rtti -->
<g id="node30" class="node">
<title>rtti</title>
<g id="a_node30"><a xlink:href="group__mrpt__rtti__grp.html" xlink:title="mrpt&#45;rtti">
<polygon fill="#d0d0d0" stroke="#000000" points="280.5,-108 217.5,-108 217.5,-72 280.5,-72 280.5,-108"/>
<text text-anchor="middle" x="249" y="-86.3" font-family="Times,serif" font-size="14.00" fill="#000000">mrpt&#45;rtti</text>
</a>
</g>
</g>
<!-- serialization&#45;&gt;rtti -->
<g id="edge45" class="edge">
<title>serialization&#45;&gt;rtti</title>
<path fill="none" stroke="#000000" d="M257.9719,-143.8314C256.6885,-136.131 255.1624,-126.9743 253.7361,-118.4166"/>
<polygon fill="#000000" stroke="#000000" points="257.1653,-117.7018 252.0689,-108.4133 250.2606,-118.8526 257.1653,-117.7018"/>
</g>
<!-- nav -->
<g id="node27" class="node">
<title>nav</title>
<g id="a_node27"><a xlink:href="group__mrpt__nav__grp.html" xlink:title="mrpt&#45;nav">
<polygon fill="#d0d0d0" stroke="#000000" points="123.5,-756 56.5,-756 56.5,-720 123.5,-720 123.5,-756"/>
<text text-anchor="middle" x="90" y="-734.3" font-family="Times,serif" font-size="14.00" fill="#000000">mrpt&#45;nav</text>
</a>
</g>
</g>
<!-- nav&#45;&gt;maps -->
<g id="edge36" class="edge">
<title>nav&#45;&gt;maps</title>
<path fill="none" stroke="#000000" d="M123.8139,-719.8314C141.2707,-710.4516 162.7487,-698.9112 181.3352,-688.9244"/>
<polygon fill="#000000" stroke="#000000" points="183.0446,-691.9792 190.197,-684.1628 179.7314,-685.8129 183.0446,-691.9792"/>
</g>
<!-- nav&#45;&gt;kinematics -->
<g id="edge35" class="edge">
<title>nav&#45;&gt;kinematics</title>
<path fill="none" stroke="#000000" d="M92.533,-719.7623C95.9443,-695.201 102.049,-651.2474 106.0619,-622.3541"/>
<polygon fill="#000000" stroke="#000000" points="109.5785,-622.4761 107.4876,-612.0896 102.6451,-621.513 109.5785,-622.4761"/>
</g>
<!-- tfest&#45;&gt;poses -->
<g id="edge50" class="edge">
<title>tfest&#45;&gt;poses</title>
<path fill="none" stroke="#000000" d="M334.4016,-503.8314C329.7123,-495.7925 324.0972,-486.1666 318.9202,-477.2918"/>
<polygon fill="#000000" stroke="#000000" points="321.8031,-475.2875 313.7411,-468.4133 315.7566,-478.8146 321.8031,-475.2875"/>
</g>
<!-- poses&#45;&gt;bayes -->
<g id="edge41" class="edge">
<title>poses&#45;&gt;bayes</title>
<path fill="none" stroke="#000000" d="M303,-431.8314C303,-424.131 303,-414.9743 303,-406.4166"/>
<polygon fill="#000000" stroke="#000000" points="306.5001,-406.4132 303,-396.4133 299.5001,-406.4133 306.5001,-406.4132"/>
</g>
<!-- rtti&#45;&gt;core -->
<g id="edge42" class="edge">
<title>rtti&#45;&gt;core</title>
<path fill="none" stroke="#000000" d="M217.2318,-73.6621C198.2573,-63.9038 173.8765,-51.3651 153.0604,-40.6596"/>
<polygon fill="#000000" stroke="#000000" points="154.576,-37.5034 144.0823,-36.0423 151.3745,-43.7284 154.576,-37.5034"/>
</g>
<!-- rtti&#45;&gt;typemeta -->
<g id="edge43" class="edge">
<title>rtti&#45;&gt;typemeta</title>
<path fill="none" stroke="#000000" d="M242.4391,-71.8314C239.5973,-63.9617 236.2063,-54.5712 233.0581,-45.8533"/>
<polygon fill="#000000" stroke="#000000" points="236.3377,-44.63 229.6492,-36.4133 229.7538,-47.0076 236.3377,-44.63"/>
</g>
<!-- ros1bridge -->
<g id="node32" class="node">
<title>ros1bridge</title>
<g id="a_node32"><a xlink:href="group__mrpt__ros1bridge__grp.html" xlink:title="mrpt&#45;ros1bridge">
<polygon fill="#d0d0d0" stroke="#000000" points="285.5,-756 180.5,-756 180.5,-720 285.5,-720 285.5,-756"/>
<text text-anchor="middle" x="233" y="-734.3" font-family="Times,serif" font-size="14.00" fill="#000000">mrpt&#45;ros1bridge</text>
</a>
</g>
</g>
<!-- ros1bridge&#45;&gt;maps -->
<g id="edge44" class="edge">
<title>ros1bridge&#45;&gt;maps</title>
<path fill="none" stroke="#000000" d="M230.7289,-719.8314C229.7664,-712.131 228.6218,-702.9743 227.5521,-694.4166"/>
<polygon fill="#000000" stroke="#000000" points="231.0151,-693.9019 226.3017,-684.4133 224.0691,-694.7702 231.0151,-693.9019"/>
</g>
<!-- topography -->
<g id="node33" class="node">
<title>topography</title>
<g id="a_node33"><a xlink:href="group__mrpt__topography__grp.html" xlink:title="mrpt&#45;topography">
<polygon fill="#d0d0d0" stroke="#000000" points="528.5,-684 419.5,-684 419.5,-648 528.5,-648 528.5,-684"/>
<text text-anchor="middle" x="474" y="-662.3" font-family="Times,serif" font-size="14.00" fill="#000000">mrpt&#45;topography</text>
</a>
</g>
</g>
<!-- topography&#45;&gt;obs -->
<g id="edge51" class="edge">
<title>topography&#45;&gt;obs</title>
<path fill="none" stroke="#000000" d="M443.7189,-647.8314C428.3702,-638.6221 409.5502,-627.3301 393.1177,-617.4706"/>
<polygon fill="#000000" stroke="#000000" points="394.6471,-614.3066 384.2714,-612.1628 391.0456,-620.3091 394.6471,-614.3066"/>
</g>
</g>
</svg>
