<?xml version="1.0" encoding="UTF-8" standalone="no"?>
<!DOCTYPE svg PUBLIC "-//W3C//DTD SVG 1.1//EN"
 "http://www.w3.org/Graphics/SVG/1.1/DTD/svg11.dtd">
<!-- Generated by graphviz version 2.28.0 (20110507.0327)
 -->
<!-- Title: MRPT_LIBS Pages: 1 -->
<svg width="694pt" height="476pt"
 viewBox="0.00 0.00 694.00 476.00" xmlns="http://www.w3.org/2000/svg" xmlns:xlink="http://www.w3.org/1999/xlink">
<g id="graph1" class="graph" transform="scale(1 1) rotate(0) translate(4 472)">
<title>MRPT_LIBS</title>
<polygon fill="white" stroke="white" points="-4,5 -4,-472 691,-472 691,5 -4,5"/>
<!-- base -->
<g id="node1" class="node"><title>base</title>
<a xlink:href="group__mrpt__base__grp.html" xlink:title="mrpt&#45;base">
<polygon fill="#d0d0d0" stroke="black" points="232.25,-36 159.75,-36 159.75,-0 232.25,-0 232.25,-36"/>
<text text-anchor="middle" x="196" y="-14.3" font-family="Times New Roman,serif" font-size="14.00">mrpt&#45;base</text>
</a>
</g>
<!-- graphs -->
<g id="node2" class="node"><title>graphs</title>
<a xlink:href="group__mrpt__graphs__grp.html" xlink:title="mrpt&#45;graphs (.h)">
<polygon fill="#d0d0d0" stroke="black" points="124,-252 16,-252 16,-216 124,-216 124,-252"/>
<text text-anchor="middle" x="70" y="-230.3" font-family="Times New Roman,serif" font-size="14.00">mrpt&#45;graphs (.h)</text>
</a>
</g>
<!-- graphs&#45;&gt;base -->
<g id="edge8" class="edge"><title>graphs&#45;&gt;base</title>
<path fill="none" stroke="black" d="M67.8163,-215.879C64.7299,-184.29 62.5649,-116.053 94,-72 107.509,-53.0682 129.858,-40.3895 150.198,-32.194"/>
<polygon fill="black" stroke="black" points="151.541,-35.4283 159.667,-28.6306 149.075,-28.8768 151.541,-35.4283"/>
</g>
<!-- bayes -->
<g id="node3" class="node"><title>bayes</title>
<a xlink:href="group__mrpt__bayes__grp.html" xlink:title="mrpt&#45;bayes (.h)">
<polygon fill="#d0d0d0" stroke="black" points="206.25,-108 103.75,-108 103.75,-72 206.25,-72 206.25,-108"/>
<text text-anchor="middle" x="155" y="-86.3" font-family="Times New Roman,serif" font-size="14.00">mrpt&#45;bayes (.h)</text>
</a>
</g>
<!-- bayes&#45;&gt;base -->
<g id="edge12" class="edge"><title>bayes&#45;&gt;base</title>
<path fill="none" stroke="black" d="M165.135,-71.6966C169.852,-63.6436 175.562,-53.8945 180.782,-44.9824"/>
<polygon fill="black" stroke="black" points="183.948,-46.5021 185.982,-36.1043 177.908,-42.9643 183.948,-46.5021"/>
</g>
<!-- opengl -->
<g id="node4" class="node"><title>opengl</title>
<a xlink:href="group__mrpt__opengl__grp.html" xlink:title="mrpt&#45;opengl">
<polygon fill="#d0d0d0" stroke="black" points="536.25,-108 451.75,-108 451.75,-72 536.25,-72 536.25,-108"/>
<text text-anchor="middle" x="494" y="-86.3" font-family="Times New Roman,serif" font-size="14.00">mrpt&#45;opengl</text>
</a>
</g>
<!-- opengl&#45;&gt;base -->
<g id="edge14" class="edge"><title>opengl&#45;&gt;base</title>
<path fill="none" stroke="black" d="M451.62,-79.045C396.291,-66.0482 299.771,-43.3757 242.487,-29.9197"/>
<polygon fill="black" stroke="black" points="243.145,-26.4792 232.61,-27.5997 241.545,-33.2938 243.145,-26.4792"/>
</g>
<!-- gui -->
<g id="node5" class="node"><title>gui</title>
<a xlink:href="group__mrpt__gui__grp.html" xlink:title="mrpt&#45;gui">
<polygon fill="#d0d0d0" stroke="black" points="686,-252 622,-252 622,-216 686,-216 686,-252"/>
<text text-anchor="middle" x="654" y="-230.3" font-family="Times New Roman,serif" font-size="14.00">mrpt&#45;gui</text>
</a>
</g>
<!-- gui&#45;&gt;opengl -->
<g id="edge18" class="edge"><title>gui&#45;&gt;opengl</title>
<path fill="none" stroke="black" d="M655.406,-215.832C656.058,-196.199 654.072,-164.174 637,-144 614.488,-117.398 577.324,-104.14 546.525,-97.537"/>
<polygon fill="black" stroke="black" points="546.841,-94.0324 536.354,-95.5432 545.494,-100.902 546.841,-94.0324"/>
</g>
<!-- obs -->
<g id="node6" class="node"><title>obs</title>
<a xlink:href="group__mrpt__obs__grp.html" xlink:title="mrpt&#45;obs">
<polygon fill="#d0d0d0" stroke="black" points="628,-180 560,-180 560,-144 628,-144 628,-180"/>
<text text-anchor="middle" x="594" y="-158.3" font-family="Times New Roman,serif" font-size="14.00">mrpt&#45;obs</text>
</a>
</g>
<!-- obs&#45;&gt;opengl -->
<g id="edge16" class="edge"><title>obs&#45;&gt;opengl</title>
<path fill="none" stroke="black" d="M569.537,-143.876C556.704,-134.893 540.804,-123.763 526.906,-114.034"/>
<polygon fill="black" stroke="black" points="528.756,-111.057 518.557,-108.19 524.742,-116.792 528.756,-111.057"/>
</g>
<!-- hwdrivers -->
<g id="node7" class="node"><title>hwdrivers</title>
<a xlink:href="group__mrpt__hwdrivers__grp.html" xlink:title="mrpt&#45;hwdrivers">
<polygon fill="#d0d0d0" stroke="black" points="514,-324 412,-324 412,-288 514,-288 514,-324"/>
<text text-anchor="middle" x="463" y="-302.3" font-family="Times New Roman,serif" font-size="14.00">mrpt&#45;hwdrivers</text>
</a>
</g>
<!-- hwdrivers&#45;&gt;gui -->
<g id="edge20" class="edge"><title>hwdrivers&#45;&gt;gui</title>
<path fill="none" stroke="black" d="M513.245,-287.998C540.208,-278.702 574.184,-266.715 612.111,-252.256"/>
<polygon fill="black" stroke="black" points="613.752,-255.375 621.836,-248.527 611.246,-248.839 613.752,-255.375"/>
</g>
<!-- maps -->
<g id="node9" class="node"><title>maps</title>
<a xlink:href="group__mrpt__maps__grp.html" xlink:title="mrpt&#45;maps">
<polygon fill="#d0d0d0" stroke="black" points="501.25,-252 424.75,-252 424.75,-216 501.25,-216 501.25,-252"/>
<text text-anchor="middle" x="463" y="-230.3" font-family="Times New Roman,serif" font-size="14.00">mrpt&#45;maps</text>
</a>
</g>
<!-- hwdrivers&#45;&gt;maps -->
<g id="edge22" class="edge"><title>hwdrivers&#45;&gt;maps</title>
<path fill="none" stroke="black" d="M463,-287.697C463,-279.983 463,-270.712 463,-262.112"/>
<polygon fill="black" stroke="black" points="466.5,-262.104 463,-252.104 459.5,-262.104 466.5,-262.104"/>
</g>
<!-- topography -->
<g id="node8" class="node"><title>topography</title>
<a xlink:href="group__mrpt__topography__grp.html" xlink:title="mrpt&#45;topography">
<polygon fill="#d0d0d0" stroke="black" points="399,-252 287,-252 287,-216 399,-216 399,-252"/>
<text text-anchor="middle" x="343" y="-230.3" font-family="Times New Roman,serif" font-size="14.00">mrpt&#45;topography</text>
</a>
</g>
<!-- topography&#45;&gt;obs -->
<g id="edge24" class="edge"><title>topography&#45;&gt;obs</title>
<path fill="none" stroke="black" d="M399.484,-219.333C450.693,-206.798 522.264,-188.875 550,-180 550.097,-179.969 550.195,-179.938 550.293,-179.906"/>
<polygon fill="black" stroke="black" points="551.213,-183.29 559.55,-176.753 548.956,-176.664 551.213,-183.29"/>
</g>
<!-- scanmatching -->
<g id="node11" class="node"><title>scanmatching</title>
<a xlink:href="group__mrpt__scanmatching__grp.html" xlink:title="mrpt&#45;scanmatching">
<polygon fill="#d0d0d0" stroke="black" points="303.25,-180 180.75,-180 180.75,-144 303.25,-144 303.25,-180"/>
<text text-anchor="middle" x="242" y="-158.3" font-family="Times New Roman,serif" font-size="14.00">mrpt&#45;scanmatching</text>
</a>
</g>
<!-- topography&#45;&gt;scanmatching -->
<g id="edge26" class="edge"><title>topography&#45;&gt;scanmatching</title>
<path fill="none" stroke="black" d="M318.293,-215.876C305.331,-206.893 289.272,-195.763 275.235,-186.034"/>
<polygon fill="black" stroke="black" points="277.015,-183.009 266.802,-180.19 273.028,-188.763 277.015,-183.009"/>
</g>
<!-- maps&#45;&gt;obs -->
<g id="edge30" class="edge"><title>maps&#45;&gt;obs</title>
<path fill="none" stroke="black" d="M495.046,-215.876C512.492,-206.554 534.265,-194.919 552.943,-184.939"/>
<polygon fill="black" stroke="black" points="554.66,-187.99 561.831,-180.19 551.361,-181.816 554.66,-187.99"/>
</g>
<!-- vision -->
<g id="node10" class="node"><title>vision</title>
<a xlink:href="group__mrpt__vision__grp.html" xlink:title="mrpt&#45;vision">
<polygon fill="#d0d0d0" stroke="black" points="604,-252 524,-252 524,-216 604,-216 604,-252"/>
<text text-anchor="middle" x="564" y="-230.3" font-family="Times New Roman,serif" font-size="14.00">mrpt&#45;vision</text>
</a>
</g>
<!-- vision&#45;&gt;obs -->
<g id="edge28" class="edge"><title>vision&#45;&gt;obs</title>
<path fill="none" stroke="black" d="M571.416,-215.697C574.794,-207.813 578.87,-198.304 582.623,-189.546"/>
<polygon fill="black" stroke="black" points="585.947,-190.675 586.67,-180.104 579.513,-187.917 585.947,-190.675"/>
</g>
<!-- scanmatching&#45;&gt;base -->
<g id="edge10" class="edge"><title>scanmatching&#45;&gt;base</title>
<path fill="none" stroke="black" d="M237.074,-143.859C231.844,-125.878 223.213,-96.835 215,-72 212.163,-63.4228 208.899,-54.1309 205.884,-45.7582"/>
<polygon fill="black" stroke="black" points="209.084,-44.3137 202.378,-36.1111 202.505,-46.7051 209.084,-44.3137"/>
</g>
<!-- slam -->
<g id="node12" class="node"><title>slam</title>
<a xlink:href="group__mrpt__slam__grp.html" xlink:title="mrpt&#45;slam">
<polygon fill="#d0d0d0" stroke="black" points="305.25,-324 232.75,-324 232.75,-288 305.25,-288 305.25,-324"/>
<text text-anchor="middle" x="269" y="-302.3" font-family="Times New Roman,serif" font-size="14.00">mrpt&#45;slam</text>
</a>
</g>
<!-- slam&#45;&gt;graphs -->
<g id="edge40" class="edge"><title>slam&#45;&gt;graphs</title>
<path fill="none" stroke="black" d="M232.366,-291.384C229.201,-290.232 226.046,-289.09 223,-288 192.341,-277.026 158.1,-265.131 129.796,-255.396"/>
<polygon fill="black" stroke="black" points="130.643,-251.986 120.049,-252.047 128.369,-258.606 130.643,-251.986"/>
</g>
<!-- slam&#45;&gt;bayes -->
<g id="edge38" class="edge"><title>slam&#45;&gt;bayes</title>
<path fill="none" stroke="black" d="M250.929,-287.829C228.408,-265.313 190.513,-223.533 171,-180 162.238,-160.452 158.271,-136.457 156.476,-118.31"/>
<polygon fill="black" stroke="black" points="159.946,-117.796 155.634,-108.119 152.97,-118.373 159.946,-117.796"/>
</g>
<!-- slam&#45;&gt;maps -->
<g id="edge32" class="edge"><title>slam&#45;&gt;maps</title>
<path fill="none" stroke="black" d="M305.49,-291.834C336.458,-280.659 381.128,-264.541 414.993,-252.322"/>
<polygon fill="black" stroke="black" points="416.464,-255.512 424.683,-248.826 414.088,-248.928 416.464,-255.512"/>
</g>
<!-- slam&#45;&gt;vision -->
<g id="edge34" class="edge"><title>slam&#45;&gt;vision</title>
<path fill="none" stroke="black" d="M305.58,-298.005C353.016,-288.694 438.185,-271.161 510,-252 511.255,-251.665 512.525,-251.319 513.804,-250.965"/>
<polygon fill="black" stroke="black" points="515.076,-254.241 523.717,-248.11 513.139,-247.514 515.076,-254.241"/>
</g>
<!-- slam&#45;&gt;scanmatching -->
<g id="edge36" class="edge"><title>slam&#45;&gt;scanmatching</title>
<path fill="none" stroke="black" d="M265.743,-287.871C261.142,-263.67 252.688,-219.211 247.209,-190.393"/>
<polygon fill="black" stroke="black" points="250.575,-189.359 245.268,-180.189 243.698,-190.667 250.575,-189.359"/>
</g>
<!-- graphslam -->
<g id="node13" class="node"><title>graphslam</title>
<a xlink:href="group__mrpt__graphslam__grp.html" xlink:title="mrpt&#45;graphslam (.h)">
<polygon fill="#d0d0d0" stroke="black" points="287,-396 159,-396 159,-360 287,-360 287,-396"/>
<text text-anchor="middle" x="223" y="-374.3" font-family="Times New Roman,serif" font-size="14.00">mrpt&#45;graphslam (.h)</text>
</a>
</g>
<!-- graphslam&#45;&gt;slam -->
<g id="edge42" class="edge"><title>graphslam&#45;&gt;slam</title>
<path fill="none" stroke="black" d="M234.371,-359.697C239.718,-351.559 246.204,-341.689 252.111,-332.701"/>
<polygon fill="black" stroke="black" points="255.193,-334.384 257.76,-324.104 249.343,-330.539 255.193,-334.384"/>
</g>
<!-- hmtslam -->
<g id="node14" class="node"><title>hmtslam</title>
<a xlink:href="group__mrpt__hmtslam__grp.html" xlink:title="mrpt&#45;hmtslam">
<polygon fill="#d0d0d0" stroke="black" points="316,-468 222,-468 222,-432 316,-432 316,-468"/>
<text text-anchor="middle" x="269" y="-446.3" font-family="Times New Roman,serif" font-size="14.00">mrpt&#45;hmtslam</text>
</a>
</g>
<!-- hmtslam&#45;&gt;slam -->
<g id="edge50" class="edge"><title>hmtslam&#45;&gt;slam</title>
<path fill="none" stroke="black" d="M280.467,-431.667C286.375,-421.689 292.963,-408.652 296,-396 299.735,-380.442 299.735,-375.558 296,-360 293.793,-350.807 289.712,-341.412 285.379,-333.134"/>
<polygon fill="black" stroke="black" points="288.397,-331.359 280.467,-324.333 282.285,-334.771 288.397,-331.359"/>
</g>
<!-- hmtslam&#45;&gt;graphslam -->
<g id="edge52" class="edge"><title>hmtslam&#45;&gt;graphslam</title>
<path fill="none" stroke="black" d="M257.629,-431.697C252.282,-423.559 245.796,-413.689 239.889,-404.701"/>
<polygon fill="black" stroke="black" points="242.657,-402.539 234.24,-396.104 236.807,-406.384 242.657,-402.539"/>
</g>
<!-- reactivenav -->
<g id="node15" class="node"><title>reactivenav</title>
<a xlink:href="group__mrpt__reactivenav__grp.html" xlink:title="mrpt&#45;reactivenav">
<polygon fill="#d0d0d0" stroke="black" points="214,-324 104,-324 104,-288 214,-288 214,-324"/>
<text text-anchor="middle" x="159" y="-302.3" font-family="Times New Roman,serif" font-size="14.00">mrpt&#45;reactivenav</text>
</a>
</g>
<!-- reactivenav&#45;&gt;graphs -->
<g id="edge56" class="edge"><title>reactivenav&#45;&gt;graphs</title>
<path fill="none" stroke="black" d="M137,-287.697C125.791,-278.881 111.998,-268.032 99.8458,-258.474"/>
<polygon fill="black" stroke="black" points="101.771,-255.535 91.7469,-252.104 97.4433,-261.038 101.771,-255.535"/>
</g>
<!-- reactivenav&#45;&gt;maps -->
<g id="edge54" class="edge"><title>reactivenav&#45;&gt;maps</title>
<path fill="none" stroke="black" d="M214.099,-290.112C217.105,-289.378 220.087,-288.67 223,-288 304.636,-269.237 326.757,-272.398 408,-252 410.29,-251.425 412.626,-250.811 414.979,-250.171"/>
<polygon fill="black" stroke="black" points="416.018,-253.515 424.684,-247.42 414.108,-246.78 416.018,-253.515"/>
</g>
<!-- detectors -->
<g id="node16" class="node"><title>detectors</title>
<a xlink:href="group__mrpt__detectors__grp.html" xlink:title="mrpt&#45;detectors">
<polygon fill="#d0d0d0" stroke="black" points="631.25,-324 532.75,-324 532.75,-288 631.25,-288 631.25,-324"/>
<text text-anchor="middle" x="582" y="-302.3" font-family="Times New Roman,serif" font-size="14.00">mrpt&#45;detectors</text>
</a>
</g>
<!-- detectors&#45;&gt;gui -->
<g id="edge48" class="edge"><title>detectors&#45;&gt;gui</title>
<path fill="none" stroke="black" d="M599.798,-287.697C608.604,-279.135 619.382,-268.656 629.001,-259.304"/>
<polygon fill="black" stroke="black" points="631.677,-261.585 636.407,-252.104 626.797,-256.566 631.677,-261.585"/>
</g>
<!-- detectors&#45;&gt;maps -->
<g id="edge46" class="edge"><title>detectors&#45;&gt;maps</title>
<path fill="none" stroke="black" d="M552.889,-287.876C537.33,-278.724 517.981,-267.342 501.224,-257.485"/>
<polygon fill="black" stroke="black" points="502.617,-254.243 492.223,-252.19 499.067,-260.277 502.617,-254.243"/>
</g>
<!-- detectors&#45;&gt;vision -->
<g id="edge44" class="edge"><title>detectors&#45;&gt;vision</title>
<path fill="none" stroke="black" d="M577.551,-287.697C575.545,-279.898 573.131,-270.509 570.899,-261.829"/>
<polygon fill="black" stroke="black" points="574.278,-260.918 568.398,-252.104 567.499,-262.661 574.278,-260.918"/>
</g>
<!-- kinematics -->
<g id="node17" class="node"><title>kinematics</title>
<a xlink:href="group__mrpt__kinematics__grp.html" xlink:title="mrpt&#45;kinematics">
<polygon fill="#d0d0d0" stroke="black" points="428,-180 322,-180 322,-144 428,-144 428,-180"/>
<text text-anchor="middle" x="375" y="-158.3" font-family="Times New Roman,serif" font-size="14.00">mrpt&#45;kinematics</text>
</a>
</g>
<!-- kinematics&#45;&gt;opengl -->
<g id="edge6" class="edge"><title>kinematics&#45;&gt;opengl</title>
<path fill="none" stroke="black" d="M404.111,-143.876C419.67,-134.724 439.019,-123.342 455.776,-113.485"/>
<polygon fill="black" stroke="black" points="457.933,-116.277 464.777,-108.19 454.383,-110.243 457.933,-116.277"/>
</g>
<!-- srba -->
<g id="node18" class="node"><title>srba</title>
<a xlink:href="group__mrpt__srba__grp.html" xlink:title="mrpt&#45;srba (.h)">
<polygon fill="#d0d0d0" stroke="black" points="541.25,-180 446.75,-180 446.75,-144 541.25,-144 541.25,-180"/>
<text text-anchor="middle" x="494" y="-158.3" font-family="Times New Roman,serif" font-size="14.00">mrpt&#45;srba (.h)</text>
</a>
</g>
<!-- srba&#45;&gt;opengl -->
<g id="edge2" class="edge"><title>srba&#45;&gt;opengl</title>
<path fill="none" stroke="black" d="M494,-143.697C494,-135.983 494,-126.712 494,-118.112"/>
<polygon fill="black" stroke="black" points="497.5,-118.104 494,-108.104 490.5,-118.104 497.5,-118.104"/>
</g>
<!-- pbmap -->
<g id="node19" class="node"><title>pbmap</title>
<a xlink:href="group__mrpt__pbmap__grp.html" xlink:title="mrpt&#45;pbmap">
<polygon fill="#d0d0d0" stroke="black" points="86,-324 0,-324 0,-288 86,-288 86,-324"/>
<text text-anchor="middle" x="43" y="-302.3" font-family="Times New Roman,serif" font-size="14.00">mrpt&#45;pbmap</text>
</a>
</g>
<!-- pbmap&#45;&gt;graphs -->
<g id="edge4" class="edge"><title>pbmap&#45;&gt;graphs</title>
<path fill="none" stroke="black" d="M49.6742,-287.697C52.7149,-279.813 56.3827,-270.304 59.7607,-261.546"/>
<polygon fill="black" stroke="black" points="63.0693,-262.694 63.4026,-252.104 56.5383,-260.175 63.0693,-262.694"/>
</g>
</g>
</svg>
