<?xml version="1.0" encoding="UTF-8" standalone="no"?>
<!DOCTYPE svg PUBLIC "-//W3C//DTD SVG 1.1//EN"
 "http://www.w3.org/Graphics/SVG/1.1/DTD/svg11.dtd">
<!-- Generated by graphviz version 2.40.1 (20161225.0304)
 -->
<!-- Title: MRPT_LIBS Pages: 1 -->
<svg width="545pt" height="980pt"
 viewBox="0.00 0.00 544.50 980.00" xmlns="http://www.w3.org/2000/svg" xmlns:xlink="http://www.w3.org/1999/xlink">
<g id="graph0" class="graph" transform="scale(1 1) rotate(0) translate(4 976)">
<title>MRPT_LIBS</title>
<polygon fill="#ffffff" stroke="transparent" points="-4,4 -4,-976 540.5,-976 540.5,4 -4,4"/>
<!-- apps -->
<g id="node1" class="node">
<title>apps</title>
<g id="a_node1"><a xlink:href="group__mrpt__bayes__grp.html" xlink:title="mrpt&#45;apps">
<polygon fill="#d0d0d0" stroke="#000000" points="392.5,-972 320.5,-972 320.5,-936 392.5,-936 392.5,-972"/>
<text text-anchor="middle" x="356.5" y="-950.3" font-family="Times,serif" font-size="14.00" fill="#000000">mrpt&#45;apps</text>
</a>
</g>
</g>
<!-- gui -->
<g id="node2" class="node">
<title>gui</title>
<g id="a_node2"><a xlink:href="group__mrpt__gui__grp.html" xlink:title="mrpt&#45;gui">
<polygon fill="#d0d0d0" stroke="#000000" points="388,-756 323,-756 323,-720 388,-720 388,-756"/>
<text text-anchor="middle" x="355.5" y="-734.3" font-family="Times,serif" font-size="14.00" fill="#000000">mrpt&#45;gui</text>
</a>
</g>
</g>
<!-- apps&#45;&gt;gui -->
<g id="edge1" class="edge">
<title>apps&#45;&gt;gui</title>
<path fill="none" stroke="#000000" d="M362.0692,-935.9157C370.5519,-905.8713 384.7925,-843.8449 375.5,-792 373.9027,-783.0882 370.9326,-773.7238 367.7609,-765.3422"/>
<polygon fill="#000000" stroke="#000000" points="370.9973,-764.0093 364.0151,-756.0406 364.504,-766.6241 370.9973,-764.0093"/>
</g>
<!-- slam -->
<g id="node3" class="node">
<title>slam</title>
<g id="a_node3"><a xlink:href="group__mrpt__slam__grp.html" xlink:title="mrpt&#45;slam">
<polygon fill="#d0d0d0" stroke="#000000" points="299.5,-756 225.5,-756 225.5,-720 299.5,-720 299.5,-756"/>
<text text-anchor="middle" x="262.5" y="-734.3" font-family="Times,serif" font-size="14.00" fill="#000000">mrpt&#45;slam</text>
</a>
</g>
</g>
<!-- apps&#45;&gt;slam -->
<g id="edge2" class="edge">
<title>apps&#45;&gt;slam</title>
<path fill="none" stroke="#000000" d="M320.0752,-946.3138C267.405,-932.9047 172.6574,-899.5404 139.5,-828 132.7719,-813.4834 130.751,-805.3961 139.5,-792 141.8459,-788.4081 182.1417,-771.1008 215.9804,-757.034"/>
<polygon fill="#000000" stroke="#000000" points="217.4174,-760.2272 225.3165,-753.1665 214.7384,-753.7602 217.4174,-760.2272"/>
</g>
<!-- hwdrivers -->
<g id="node4" class="node">
<title>hwdrivers</title>
<g id="a_node4"><a xlink:href="group__mrpt__hwdrivers__grp.html" xlink:title="mrpt&#45;hwdrivers">
<polygon fill="#d0d0d0" stroke="#000000" points="524,-828 423,-828 423,-792 524,-792 524,-828"/>
<text text-anchor="middle" x="473.5" y="-806.3" font-family="Times,serif" font-size="14.00" fill="#000000">mrpt&#45;hwdrivers</text>
</a>
</g>
</g>
<!-- apps&#45;&gt;hwdrivers -->
<g id="edge3" class="edge">
<title>apps&#45;&gt;hwdrivers</title>
<path fill="none" stroke="#000000" d="M375.4651,-935.6131C385.629,-925.4414 398.1525,-912.3849 408.5,-900 425.598,-879.5353 443.201,-854.9022 455.7687,-836.5843"/>
<polygon fill="#000000" stroke="#000000" points="458.7788,-838.382 461.5095,-828.1451 452.991,-834.4448 458.7788,-838.382"/>
</g>
<!-- graphslam -->
<g id="node5" class="node">
<title>graphslam</title>
<g id="a_node5"><a xlink:href="group__mrpt__graphslam__grp.html" xlink:title="mrpt&#45;graphslam">
<polygon fill="#d0d0d0" stroke="#000000" points="366.5,-828 262.5,-828 262.5,-792 366.5,-792 366.5,-828"/>
<text text-anchor="middle" x="314.5" y="-806.3" font-family="Times,serif" font-size="14.00" fill="#000000">mrpt&#45;graphslam</text>
</a>
</g>
</g>
<!-- apps&#45;&gt;graphslam -->
<g id="edge4" class="edge">
<title>apps&#45;&gt;graphslam</title>
<path fill="none" stroke="#000000" d="M353.7289,-935.8041C350.683,-917.433 345.1815,-888.369 337.5,-864 334.7257,-855.1986 331.0359,-845.8665 327.4255,-837.4806"/>
<polygon fill="#000000" stroke="#000000" points="330.5428,-835.8765 323.2834,-828.1595 324.1459,-838.7191 330.5428,-835.8765"/>
</g>
<!-- hmtslam -->
<g id="node6" class="node">
<title>hmtslam</title>
<g id="a_node6"><a xlink:href="group__mrpt__hmtslam__grp.html" xlink:title="mrpt&#45;hmtslam">
<polygon fill="#d0d0d0" stroke="#000000" points="328,-900 233,-900 233,-864 328,-864 328,-900"/>
<text text-anchor="middle" x="280.5" y="-878.3" font-family="Times,serif" font-size="14.00" fill="#000000">mrpt&#45;hmtslam</text>
</a>
</g>
</g>
<!-- apps&#45;&gt;hmtslam -->
<g id="edge5" class="edge">
<title>apps&#45;&gt;hmtslam</title>
<path fill="none" stroke="#000000" d="M337.322,-935.8314C328.1412,-927.1337 316.9994,-916.5783 307.0224,-907.1265"/>
<polygon fill="#000000" stroke="#000000" points="309.3385,-904.4995 299.6719,-900.1628 304.5243,-909.5811 309.3385,-904.4995"/>
</g>
<!-- opengl -->
<g id="node20" class="node">
<title>opengl</title>
<g id="a_node20"><a xlink:href="group__mrpt__opengl__grp.html" xlink:title="mrpt&#45;opengl">
<polygon fill="#d0d0d0" stroke="#000000" points="209.5,-540 125.5,-540 125.5,-504 209.5,-504 209.5,-540"/>
<text text-anchor="middle" x="167.5" y="-518.3" font-family="Times,serif" font-size="14.00" fill="#000000">mrpt&#45;opengl</text>
</a>
</g>
</g>
<!-- gui&#45;&gt;opengl -->
<g id="edge20" class="edge">
<title>gui&#45;&gt;opengl</title>
<path fill="none" stroke="#000000" d="M388.0752,-722.1151C402.6636,-713.1243 418.3826,-700.3722 426.5,-684 433.6072,-669.6652 434.3832,-661.9232 426.5,-648 395.8557,-593.8763 362.3558,-603.3601 306.5,-576 290.5236,-568.1742 251.6402,-553.1878 219.0495,-540.9845"/>
<polygon fill="#000000" stroke="#000000" points="220.2028,-537.6792 209.6102,-537.4616 217.7552,-544.2373 220.2028,-537.6792"/>
</g>
<!-- maps -->
<g id="node21" class="node">
<title>maps</title>
<g id="a_node21"><a xlink:href="group__mrpt__maps__grp.html" xlink:title="mrpt&#45;maps">
<polygon fill="#d0d0d0" stroke="#000000" points="192,-684 115,-684 115,-648 192,-648 192,-684"/>
<text text-anchor="middle" x="153.5" y="-662.3" font-family="Times,serif" font-size="14.00" fill="#000000">mrpt&#45;maps</text>
</a>
</g>
</g>
<!-- slam&#45;&gt;maps -->
<g id="edge49" class="edge">
<title>slam&#45;&gt;maps</title>
<path fill="none" stroke="#000000" d="M234.9947,-719.8314C221.182,-710.7074 204.2744,-699.539 189.4471,-689.7449"/>
<polygon fill="#000000" stroke="#000000" points="191.2696,-686.7541 180.9965,-684.1628 187.4114,-692.5949 191.2696,-686.7541"/>
</g>
<!-- vision -->
<g id="node22" class="node">
<title>vision</title>
<g id="a_node22"><a xlink:href="group__mrpt__vision__grp.html" xlink:title="mrpt&#45;vision">
<polygon fill="#d0d0d0" stroke="#000000" points="417.5,-684 337.5,-684 337.5,-648 417.5,-648 417.5,-684"/>
<text text-anchor="middle" x="377.5" y="-662.3" font-family="Times,serif" font-size="14.00" fill="#000000">mrpt&#45;vision</text>
</a>
</g>
</g>
<!-- slam&#45;&gt;vision -->
<g id="edge50" class="edge">
<title>slam&#45;&gt;vision</title>
<path fill="none" stroke="#000000" d="M291.5194,-719.8314C306.2286,-710.6221 324.2644,-699.3301 340.0122,-689.4706"/>
<polygon fill="#000000" stroke="#000000" points="341.8714,-692.436 348.4899,-684.1628 338.1567,-686.5029 341.8714,-692.436"/>
</g>
<!-- hwdrivers&#45;&gt;gui -->
<g id="edge23" class="edge">
<title>hwdrivers&#45;&gt;gui</title>
<path fill="none" stroke="#000000" d="M443.7236,-791.8314C428.6307,-782.6221 410.1243,-771.3301 393.9657,-761.4706"/>
<polygon fill="#000000" stroke="#000000" points="395.6263,-758.3838 385.2669,-756.1628 391.9802,-764.3593 395.6263,-758.3838"/>
</g>
<!-- comms -->
<g id="node10" class="node">
<title>comms</title>
<g id="a_node10"><a xlink:href="group__mrpt__comms__grp.html" xlink:title="mrpt&#45;comms">
<polygon fill="#d0d0d0" stroke="#000000" points="536.5,-468 448.5,-468 448.5,-432 536.5,-432 536.5,-468"/>
<text text-anchor="middle" x="492.5" y="-446.3" font-family="Times,serif" font-size="14.00" fill="#000000">mrpt&#45;comms</text>
</a>
</g>
</g>
<!-- hwdrivers&#45;&gt;comms -->
<g id="edge22" class="edge">
<title>hwdrivers&#45;&gt;comms</title>
<path fill="none" stroke="#000000" d="M477.4368,-791.9156C483.002,-764.7281 492.5,-711.6422 492.5,-666 492.5,-666 492.5,-666 492.5,-594 492.5,-553.876 492.5,-507.4631 492.5,-478.4177"/>
<polygon fill="#000000" stroke="#000000" points="496.0001,-478.1853 492.5,-468.1854 489.0001,-478.1854 496.0001,-478.1853"/>
</g>
<!-- hwdrivers&#45;&gt;maps -->
<g id="edge24" class="edge">
<title>hwdrivers&#45;&gt;maps</title>
<path fill="none" stroke="#000000" d="M459.1577,-791.7176C439.4192,-766.7638 405.4165,-724.5917 397.5,-720 323.5795,-677.1252 289.3001,-705.4809 201.8534,-683.7214"/>
<polygon fill="#000000" stroke="#000000" points="202.6406,-680.3093 192.0782,-681.1374 200.8516,-687.0769 202.6406,-680.3093"/>
</g>
<!-- hwdrivers&#45;&gt;vision -->
<g id="edge25" class="edge">
<title>hwdrivers&#45;&gt;vision</title>
<path fill="none" stroke="#000000" d="M466.8734,-791.8028C459.5363,-772.9163 446.591,-742.9796 430.5,-720 423.3903,-709.8466 414.3212,-699.8418 405.703,-691.2553"/>
<polygon fill="#000000" stroke="#000000" points="407.9292,-688.5393 398.3062,-684.1067 403.0646,-693.5729 407.9292,-688.5393"/>
</g>
<!-- graphslam&#45;&gt;gui -->
<g id="edge18" class="edge">
<title>graphslam&#45;&gt;gui</title>
<path fill="none" stroke="#000000" d="M324.846,-791.8314C329.4237,-783.7925 334.9052,-774.1666 339.9588,-765.2918"/>
<polygon fill="#000000" stroke="#000000" points="343.1077,-766.8351 345.0147,-756.4133 337.0248,-763.3712 343.1077,-766.8351"/>
</g>
<!-- graphslam&#45;&gt;slam -->
<g id="edge19" class="edge">
<title>graphslam&#45;&gt;slam</title>
<path fill="none" stroke="#000000" d="M301.3782,-791.8314C295.4501,-783.6232 288.3271,-773.7606 281.8067,-764.7323"/>
<polygon fill="#000000" stroke="#000000" points="284.4908,-762.4708 275.7985,-756.4133 278.816,-766.5693 284.4908,-762.4708"/>
</g>
<!-- hmtslam&#45;&gt;graphslam -->
<g id="edge21" class="edge">
<title>hmtslam&#45;&gt;graphslam</title>
<path fill="none" stroke="#000000" d="M289.0796,-863.8314C292.8358,-855.8771 297.3257,-846.369 301.4798,-837.5723"/>
<polygon fill="#000000" stroke="#000000" points="304.6996,-838.9503 305.8048,-828.4133 298.3699,-835.9612 304.6996,-838.9503"/>
</g>
<!-- bayes -->
<g id="node7" class="node">
<title>bayes</title>
<g id="a_node7"><a xlink:href="group__mrpt__bayes__grp.html" xlink:title="mrpt&#45;bayes">
<polygon fill="#d0d0d0" stroke="#000000" points="211.5,-396 133.5,-396 133.5,-360 211.5,-360 211.5,-396"/>
<text text-anchor="middle" x="172.5" y="-374.3" font-family="Times,serif" font-size="14.00" fill="#000000">mrpt&#45;bayes</text>
</a>
</g>
</g>
<!-- math -->
<g id="node8" class="node">
<title>math</title>
<g id="a_node8"><a xlink:href="group__mrpt__math__grp.html" xlink:title="mrpt&#45;math">
<polygon fill="#d0d0d0" stroke="#000000" points="261,-252 186,-252 186,-216 261,-216 261,-252"/>
<text text-anchor="middle" x="223.5" y="-230.3" font-family="Times,serif" font-size="14.00" fill="#000000">mrpt&#45;math</text>
</a>
</g>
</g>
<!-- bayes&#45;&gt;math -->
<g id="edge6" class="edge">
<title>bayes&#45;&gt;math</title>
<path fill="none" stroke="#000000" d="M178.9592,-359.7623C187.7346,-334.9846 203.4997,-290.4714 213.7272,-261.5939"/>
<polygon fill="#000000" stroke="#000000" points="217.0539,-262.6844 217.0933,-252.0896 210.4555,-260.3474 217.0539,-262.6844"/>
</g>
<!-- config -->
<g id="node9" class="node">
<title>config</title>
<g id="a_node9"><a xlink:href="group__mrpt__config__grp.html" xlink:title="mrpt&#45;config">
<polygon fill="#d0d0d0" stroke="#000000" points="437.5,-324 355.5,-324 355.5,-288 437.5,-288 437.5,-324"/>
<text text-anchor="middle" x="396.5" y="-302.3" font-family="Times,serif" font-size="14.00" fill="#000000">mrpt&#45;config</text>
</a>
</g>
</g>
<!-- bayes&#45;&gt;config -->
<g id="edge7" class="edge">
<title>bayes&#45;&gt;config</title>
<path fill="none" stroke="#000000" d="M211.7502,-363.3748C215.0408,-362.2116 218.323,-361.0729 221.5,-360 262.9007,-346.0191 310.2859,-331.4862 345.298,-321.0235"/>
<polygon fill="#000000" stroke="#000000" points="346.7021,-324.2573 355.287,-318.0485 344.704,-317.5485 346.7021,-324.2573"/>
</g>
<!-- system -->
<g id="node13" class="node">
<title>system</title>
<g id="a_node13"><a xlink:href="group__mrpt__system__grp.html" xlink:title="mrpt&#45;system">
<polygon fill="#d0d0d0" stroke="#000000" points="470.5,-180 384.5,-180 384.5,-144 470.5,-144 470.5,-180"/>
<text text-anchor="middle" x="427.5" y="-158.3" font-family="Times,serif" font-size="14.00" fill="#000000">mrpt&#45;system</text>
</a>
</g>
</g>
<!-- math&#45;&gt;system -->
<g id="edge35" class="edge">
<title>math&#45;&gt;system</title>
<path fill="none" stroke="#000000" d="M261.1661,-219.44C264.3185,-218.2624 267.4609,-217.1026 270.5,-216 314.0678,-200.1941 327.28,-196.4952 374.7507,-180.2445"/>
<polygon fill="#000000" stroke="#000000" points="376.0525,-183.4982 384.3732,-176.9395 373.7785,-176.8778 376.0525,-183.4982"/>
</g>
<!-- serialization -->
<g id="node17" class="node">
<title>serialization</title>
<g id="a_node17"><a xlink:href="group__mrpt__serialization__grp.html" xlink:title="mrpt&#45;serialization">
<polygon fill="#d0d0d0" stroke="#000000" points="366,-180 253,-180 253,-144 366,-144 366,-180"/>
<text text-anchor="middle" x="309.5" y="-158.3" font-family="Times,serif" font-size="14.00" fill="#000000">mrpt&#45;serialization</text>
</a>
</g>
</g>
<!-- math&#45;&gt;serialization -->
<g id="edge33" class="edge">
<title>math&#45;&gt;serialization</title>
<path fill="none" stroke="#000000" d="M245.2014,-215.8314C255.6921,-207.0485 268.4455,-196.3712 279.8194,-186.8489"/>
<polygon fill="#000000" stroke="#000000" points="282.3847,-189.2659 287.8055,-180.1628 277.8911,-183.8986 282.3847,-189.2659"/>
</g>
<!-- random -->
<g id="node26" class="node">
<title>random</title>
<g id="a_node26"><a xlink:href="group__mrpt__random__grp.html" xlink:title="mrpt&#45;random">
<polygon fill="#d0d0d0" stroke="#000000" points="268,-36 179,-36 179,0 268,0 268,-36"/>
<text text-anchor="middle" x="223.5" y="-14.3" font-family="Times,serif" font-size="14.00" fill="#000000">mrpt&#45;random</text>
</a>
</g>
</g>
<!-- math&#45;&gt;random -->
<g id="edge34" class="edge">
<title>math&#45;&gt;random</title>
<path fill="none" stroke="#000000" d="M223.5,-215.9555C223.5,-178.3938 223.5,-91.5541 223.5,-46.4103"/>
<polygon fill="#000000" stroke="#000000" points="227.0001,-46.145 223.5,-36.1451 220.0001,-46.1451 227.0001,-46.145"/>
</g>
<!-- nanoflann -->
<g id="node27" class="node">
<title>nanoflann</title>
<g id="a_node27"><a xlink:href="group__nanoflann__grp.html" xlink:title="mrpt&#45;nanoflann">
<polygon fill="#d0d0d0" stroke="#000000" points="161,-36 60,-36 60,0 161,0 161,-36"/>
<text text-anchor="middle" x="110.5" y="-14.3" font-family="Times,serif" font-size="14.00" fill="#000000">mrpt&#45;nanoflann</text>
</a>
</g>
</g>
<!-- math&#45;&gt;nanoflann -->
<g id="edge36" class="edge">
<title>math&#45;&gt;nanoflann</title>
<path fill="none" stroke="#000000" d="M214.06,-215.9555C194.2435,-178.0762 148.2095,-90.0818 124.7684,-45.274"/>
<polygon fill="#000000" stroke="#000000" points="127.7293,-43.3834 119.9926,-36.1451 121.5268,-46.6282 127.7293,-43.3834"/>
</g>
<!-- expr -->
<g id="node12" class="node">
<title>expr</title>
<g id="a_node12"><a xlink:href="group__mrpt__expr__grp.html" xlink:title="mrpt&#45;expr">
<polygon fill="#d0d0d0" stroke="#000000" points="429,-252 358,-252 358,-216 429,-216 429,-252"/>
<text text-anchor="middle" x="393.5" y="-230.3" font-family="Times,serif" font-size="14.00" fill="#000000">mrpt&#45;expr</text>
</a>
</g>
</g>
<!-- config&#45;&gt;expr -->
<g id="edge9" class="edge">
<title>config&#45;&gt;expr</title>
<path fill="none" stroke="#000000" d="M395.743,-287.8314C395.4221,-280.131 395.0406,-270.9743 394.684,-262.4166"/>
<polygon fill="#000000" stroke="#000000" points="398.1806,-262.2589 394.2672,-252.4133 391.1867,-262.5503 398.1806,-262.2589"/>
</g>
<!-- config&#45;&gt;system -->
<g id="edge10" class="edge">
<title>config&#45;&gt;system</title>
<path fill="none" stroke="#000000" d="M415.55,-287.8859C424.357,-278.1885 433.8746,-265.4808 438.5,-252 445.4076,-231.8675 441.9495,-207.8944 437.1486,-189.7542"/>
<polygon fill="#000000" stroke="#000000" points="440.4854,-188.6946 434.3181,-180.0798 433.767,-190.6602 440.4854,-188.6946"/>
</g>
<!-- io -->
<g id="node11" class="node">
<title>io</title>
<g id="a_node11"><a xlink:href="group__mrpt__io__grp.html" xlink:title="mrpt&#45;io">
<polygon fill="#d0d0d0" stroke="#000000" points="521.5,-324 463.5,-324 463.5,-288 521.5,-288 521.5,-324"/>
<text text-anchor="middle" x="492.5" y="-302.3" font-family="Times,serif" font-size="14.00" fill="#000000">mrpt&#45;io</text>
</a>
</g>
</g>
<!-- comms&#45;&gt;io -->
<g id="edge8" class="edge">
<title>comms&#45;&gt;io</title>
<path fill="none" stroke="#000000" d="M492.5,-431.7623C492.5,-407.201 492.5,-363.2474 492.5,-334.3541"/>
<polygon fill="#000000" stroke="#000000" points="496.0001,-334.0896 492.5,-324.0896 489.0001,-334.0897 496.0001,-334.0896"/>
</g>
<!-- io&#45;&gt;system -->
<g id="edge29" class="edge">
<title>io&#45;&gt;system</title>
<path fill="none" stroke="#000000" d="M484.9395,-287.9772C477.231,-269.7408 464.8288,-240.7794 453.5,-216 449.5393,-207.3369 445.0865,-197.9642 440.9999,-189.4972"/>
<polygon fill="#000000" stroke="#000000" points="444.1035,-187.8758 436.5875,-180.4086 437.8064,-190.9331 444.1035,-187.8758"/>
</g>
<!-- expr&#45;&gt;system -->
<g id="edge16" class="edge">
<title>expr&#45;&gt;system</title>
<path fill="none" stroke="#000000" d="M402.0796,-215.8314C405.8358,-207.8771 410.3257,-198.369 414.4798,-189.5723"/>
<polygon fill="#000000" stroke="#000000" points="417.6996,-190.9503 418.8048,-180.4133 411.3699,-187.9612 417.6996,-190.9503"/>
</g>
<!-- containers -->
<g id="node14" class="node">
<title>containers</title>
<g id="a_node14"><a xlink:href="group__mrpt__containers__grp.html" xlink:title="mrpt&#45;containers">
<polygon fill="#d0d0d0" stroke="#000000" points="355,-108 252,-108 252,-72 355,-72 355,-108"/>
<text text-anchor="middle" x="303.5" y="-86.3" font-family="Times,serif" font-size="14.00" fill="#000000">mrpt&#45;containers</text>
</a>
</g>
</g>
<!-- system&#45;&gt;containers -->
<g id="edge52" class="edge">
<title>system&#45;&gt;containers</title>
<path fill="none" stroke="#000000" d="M396.2096,-143.8314C380.2023,-134.5368 360.5414,-123.1208 343.4506,-113.1971"/>
<polygon fill="#000000" stroke="#000000" points="345.1858,-110.1575 334.7804,-108.1628 341.6708,-116.211 345.1858,-110.1575"/>
</g>
<!-- typemeta -->
<g id="node32" class="node">
<title>typemeta</title>
<g id="a_node32"><a xlink:href="group__mrpt__typemeta__grp.html" xlink:title="mrpt&#45;typemeta (.h)">
<polygon fill="#d0d0d0" stroke="#000000" points="518,-36 397,-36 397,0 518,0 518,-36"/>
<text text-anchor="middle" x="457.5" y="-14.3" font-family="Times,serif" font-size="14.00" fill="#000000">mrpt&#45;typemeta (.h)</text>
</a>
</g>
</g>
<!-- system&#45;&gt;typemeta -->
<g id="edge51" class="edge">
<title>system&#45;&gt;typemeta</title>
<path fill="none" stroke="#000000" d="M434.5416,-143.7525C438.2916,-133.4026 442.6959,-120.1316 445.5,-108 450.2258,-87.5542 453.2817,-64.035 455.1264,-46.1678"/>
<polygon fill="#000000" stroke="#000000" points="458.6202,-46.4002 456.0993,-36.1097 451.6527,-45.7262 458.6202,-46.4002"/>
</g>
<!-- core -->
<g id="node15" class="node">
<title>core</title>
<g id="a_node15"><a xlink:href="group__mrpt__core__grp.html" xlink:title="mrpt&#45;core">
<polygon fill="#d0d0d0" stroke="#000000" points="365,-36 294,-36 294,0 365,0 365,-36"/>
<text text-anchor="middle" x="329.5" y="-14.3" font-family="Times,serif" font-size="14.00" fill="#000000">mrpt&#45;core</text>
</a>
</g>
</g>
<!-- containers&#45;&gt;core -->
<g id="edge11" class="edge">
<title>containers&#45;&gt;core</title>
<path fill="none" stroke="#000000" d="M310.0609,-71.8314C312.9027,-63.9617 316.2937,-54.5712 319.4419,-45.8533"/>
<polygon fill="#000000" stroke="#000000" points="322.7462,-47.0076 322.8508,-36.4133 316.1623,-44.63 322.7462,-47.0076"/>
</g>
<!-- db -->
<g id="node16" class="node">
<title>db</title>
<g id="a_node16"><a xlink:href="group__mrpt__db__grp.html" xlink:title="mrpt&#45;db">
<polygon fill="#d0d0d0" stroke="#000000" points="340,-252 279,-252 279,-216 340,-216 340,-252"/>
<text text-anchor="middle" x="309.5" y="-230.3" font-family="Times,serif" font-size="14.00" fill="#000000">mrpt&#45;db</text>
</a>
</g>
</g>
<!-- db&#45;&gt;system -->
<g id="edge13" class="edge">
<title>db&#45;&gt;system</title>
<path fill="none" stroke="#000000" d="M339.2764,-215.8314C354.3693,-206.6221 372.8757,-195.3301 389.0343,-185.4706"/>
<polygon fill="#000000" stroke="#000000" points="391.0198,-188.3593 397.7331,-180.1628 387.3737,-182.3838 391.0198,-188.3593"/>
</g>
<!-- db&#45;&gt;serialization -->
<g id="edge12" class="edge">
<title>db&#45;&gt;serialization</title>
<path fill="none" stroke="#000000" d="M309.5,-215.8314C309.5,-208.131 309.5,-198.9743 309.5,-190.4166"/>
<polygon fill="#000000" stroke="#000000" points="313.0001,-190.4132 309.5,-180.4133 306.0001,-190.4133 313.0001,-190.4132"/>
</g>
<!-- rtti -->
<g id="node31" class="node">
<title>rtti</title>
<g id="a_node31"><a xlink:href="group__mrpt__rtti__grp.html" xlink:title="mrpt&#45;rtti">
<polygon fill="#d0d0d0" stroke="#000000" points="436,-108 373,-108 373,-72 436,-72 436,-108"/>
<text text-anchor="middle" x="404.5" y="-86.3" font-family="Times,serif" font-size="14.00" fill="#000000">mrpt&#45;rtti</text>
</a>
</g>
</g>
<!-- serialization&#45;&gt;rtti -->
<g id="edge48" class="edge">
<title>serialization&#45;&gt;rtti</title>
<path fill="none" stroke="#000000" d="M333.4725,-143.8314C345.2861,-134.8779 359.6972,-123.9558 372.4435,-114.2955"/>
<polygon fill="#000000" stroke="#000000" points="374.6795,-116.9925 380.5352,-108.1628 370.4514,-111.4137 374.6795,-116.9925"/>
</g>
<!-- detectors -->
<g id="node18" class="node">
<title>detectors</title>
<g id="a_node18"><a xlink:href="group__mrpt__detectors__grp.html" xlink:title="mrpt&#45;detectors">
<polygon fill="#d0d0d0" stroke="#000000" points="244.5,-828 148.5,-828 148.5,-792 244.5,-792 244.5,-828"/>
<text text-anchor="middle" x="196.5" y="-806.3" font-family="Times,serif" font-size="14.00" fill="#000000">mrpt&#45;detectors</text>
</a>
</g>
</g>
<!-- detectors&#45;&gt;gui -->
<g id="edge14" class="edge">
<title>detectors&#45;&gt;gui</title>
<path fill="none" stroke="#000000" d="M236.6224,-791.8314C260.1751,-781.166 289.8967,-767.7072 313.729,-756.9152"/>
<polygon fill="#000000" stroke="#000000" points="315.2145,-760.0847 322.8802,-752.7712 312.3269,-753.708 315.2145,-760.0847"/>
</g>
<!-- detectors&#45;&gt;slam -->
<g id="edge15" class="edge">
<title>detectors&#45;&gt;slam</title>
<path fill="none" stroke="#000000" d="M213.1546,-791.8314C220.9114,-783.3694 230.2802,-773.1489 238.761,-763.8971"/>
<polygon fill="#000000" stroke="#000000" points="241.4439,-766.1499 245.6212,-756.4133 236.2838,-761.4198 241.4439,-766.1499"/>
</g>
<!-- graphs -->
<g id="node19" class="node">
<title>graphs</title>
<g id="a_node19"><a xlink:href="group__mrpt__graphs__grp.html" xlink:title="mrpt&#45;graphs">
<polygon fill="#d0d0d0" stroke="#000000" points="208,-612 125,-612 125,-576 208,-576 208,-612"/>
<text text-anchor="middle" x="166.5" y="-590.3" font-family="Times,serif" font-size="14.00" fill="#000000">mrpt&#45;graphs</text>
</a>
</g>
</g>
<!-- graphs&#45;&gt;opengl -->
<g id="edge17" class="edge">
<title>graphs&#45;&gt;opengl</title>
<path fill="none" stroke="#000000" d="M166.7523,-575.8314C166.8593,-568.131 166.9865,-558.9743 167.1053,-550.4166"/>
<polygon fill="#000000" stroke="#000000" points="170.6049,-550.4609 167.2443,-540.4133 163.6056,-550.3637 170.6049,-550.4609"/>
</g>
<!-- img -->
<g id="node23" class="node">
<title>img</title>
<g id="a_node23"><a xlink:href="group__mrpt__img__grp.html" xlink:title="mrpt&#45;img">
<polygon fill="#d0d0d0" stroke="#000000" points="299,-396 230,-396 230,-360 299,-360 299,-396"/>
<text text-anchor="middle" x="264.5" y="-374.3" font-family="Times,serif" font-size="14.00" fill="#000000">mrpt&#45;img</text>
</a>
</g>
</g>
<!-- opengl&#45;&gt;img -->
<g id="edge43" class="edge">
<title>opengl&#45;&gt;img</title>
<path fill="none" stroke="#000000" d="M188.2576,-503.8592C198.778,-493.9635 211.2486,-481.086 220.5,-468 234.2871,-448.4982 245.9435,-424.0222 253.788,-405.5198"/>
<polygon fill="#000000" stroke="#000000" points="257.0602,-406.7653 257.6383,-396.1862 250.5892,-404.0957 257.0602,-406.7653"/>
</g>
<!-- poses -->
<g id="node30" class="node">
<title>poses</title>
<g id="a_node30"><a xlink:href="group__mrpt__poses__grp.html" xlink:title="mrpt&#45;poses">
<polygon fill="#d0d0d0" stroke="#000000" points="211,-468 134,-468 134,-432 211,-432 211,-468"/>
<text text-anchor="middle" x="172.5" y="-446.3" font-family="Times,serif" font-size="14.00" fill="#000000">mrpt&#45;poses</text>
</a>
</g>
</g>
<!-- opengl&#45;&gt;poses -->
<g id="edge42" class="edge">
<title>opengl&#45;&gt;poses</title>
<path fill="none" stroke="#000000" d="M168.7617,-503.8314C169.2965,-496.131 169.9323,-486.9743 170.5266,-478.4166"/>
<polygon fill="#000000" stroke="#000000" points="174.02,-478.6317 171.2213,-468.4133 167.0368,-478.1467 174.02,-478.6317"/>
</g>
<!-- maps&#45;&gt;graphs -->
<g id="edge31" class="edge">
<title>maps&#45;&gt;graphs</title>
<path fill="none" stroke="#000000" d="M156.7804,-647.8314C158.1708,-640.131 159.8241,-630.9743 161.3692,-622.4166"/>
<polygon fill="#000000" stroke="#000000" points="164.8428,-622.8761 163.1754,-612.4133 157.9542,-621.6322 164.8428,-622.8761"/>
</g>
<!-- obs -->
<g id="node25" class="node">
<title>obs</title>
<g id="a_node25"><a xlink:href="group__mrpt__obs__grp.html" xlink:title="mrpt&#45;obs">
<polygon fill="#d0d0d0" stroke="#000000" points="297.5,-612 231.5,-612 231.5,-576 297.5,-576 297.5,-612"/>
<text text-anchor="middle" x="264.5" y="-590.3" font-family="Times,serif" font-size="14.00" fill="#000000">mrpt&#45;obs</text>
</a>
</g>
</g>
<!-- maps&#45;&gt;obs -->
<g id="edge32" class="edge">
<title>maps&#45;&gt;obs</title>
<path fill="none" stroke="#000000" d="M181.51,-647.8314C195.5761,-638.7074 212.794,-627.539 227.8933,-617.7449"/>
<polygon fill="#000000" stroke="#000000" points="230.014,-620.5412 236.499,-612.1628 226.2047,-614.6684 230.014,-620.5412"/>
</g>
<!-- vision&#45;&gt;obs -->
<g id="edge55" class="edge">
<title>vision&#45;&gt;obs</title>
<path fill="none" stroke="#000000" d="M348.9853,-647.8314C334.6658,-638.7074 317.1376,-627.539 301.7662,-617.7449"/>
<polygon fill="#000000" stroke="#000000" points="303.3199,-614.5847 293.0055,-612.1628 299.5583,-620.4882 303.3199,-614.5847"/>
</g>
<!-- img&#45;&gt;math -->
<g id="edge27" class="edge">
<title>img&#45;&gt;math</title>
<path fill="none" stroke="#000000" d="M259.3073,-359.7623C252.2834,-335.0928 239.6892,-290.8598 231.4646,-261.9731"/>
<polygon fill="#000000" stroke="#000000" points="234.7552,-260.7489 228.6505,-252.0896 228.0228,-262.6658 234.7552,-260.7489"/>
</g>
<!-- img&#45;&gt;config -->
<g id="edge28" class="edge">
<title>img&#45;&gt;config</title>
<path fill="none" stroke="#000000" d="M297.8092,-359.8314C314.9273,-350.4942 335.9706,-339.016 354.2222,-329.0606"/>
<polygon fill="#000000" stroke="#000000" points="356.0985,-332.024 363.2015,-324.1628 352.7465,-325.8788 356.0985,-332.024"/>
</g>
<!-- img&#45;&gt;io -->
<g id="edge26" class="edge">
<title>img&#45;&gt;io</title>
<path fill="none" stroke="#000000" d="M299.3281,-368.6113C336.1648,-358.4616 395.8443,-341.391 446.5,-324 448.913,-323.1716 451.3865,-322.2926 453.8737,-321.386"/>
<polygon fill="#000000" stroke="#000000" points="455.3013,-324.5887 463.4363,-317.801 452.844,-318.0342 455.3013,-324.5887"/>
</g>
<!-- kinematics -->
<g id="node24" class="node">
<title>kinematics</title>
<g id="a_node24"><a xlink:href="group__mrpt__kinematics__grp.html" xlink:title="mrpt&#45;kinematics">
<polygon fill="#d0d0d0" stroke="#000000" points="107,-612 0,-612 0,-576 107,-576 107,-612"/>
<text text-anchor="middle" x="53.5" y="-590.3" font-family="Times,serif" font-size="14.00" fill="#000000">mrpt&#45;kinematics</text>
</a>
</g>
</g>
<!-- kinematics&#45;&gt;opengl -->
<g id="edge30" class="edge">
<title>kinematics&#45;&gt;opengl</title>
<path fill="none" stroke="#000000" d="M82.267,-575.8314C96.7133,-566.7074 114.3965,-555.539 129.904,-545.7449"/>
<polygon fill="#000000" stroke="#000000" points="132.1563,-548.462 138.7422,-540.1628 128.4183,-542.5436 132.1563,-548.462"/>
</g>
<!-- obs&#45;&gt;db -->
<g id="edge40" class="edge">
<title>obs&#45;&gt;db</title>
<path fill="none" stroke="#000000" d="M283.2611,-575.5576C292.1826,-565.7765 302.2418,-553.0929 308.5,-540 326.1304,-503.1153 327.5,-490.8816 327.5,-450 327.5,-450 327.5,-450 327.5,-378 327.5,-337.5637 320.4251,-291.2302 315.1463,-262.2873"/>
<polygon fill="#000000" stroke="#000000" points="318.5175,-261.2756 313.2296,-252.0947 311.6381,-262.5693 318.5175,-261.2756"/>
</g>
<!-- obs&#45;&gt;opengl -->
<g id="edge39" class="edge">
<title>obs&#45;&gt;opengl</title>
<path fill="none" stroke="#000000" d="M240.0228,-575.8314C227.9605,-566.8779 213.246,-555.9558 200.2314,-546.2955"/>
<polygon fill="#000000" stroke="#000000" points="202.0852,-543.3127 191.9694,-540.1628 197.913,-548.9335 202.0852,-543.3127"/>
</g>
<!-- tfest -->
<g id="node29" class="node">
<title>tfest</title>
<g id="a_node29"><a xlink:href="group__mrpt__tfest__grp.html" xlink:title="mrpt&#45;tfest">
<polygon fill="#d0d0d0" stroke="#000000" points="299,-540 228,-540 228,-504 299,-504 299,-540"/>
<text text-anchor="middle" x="263.5" y="-518.3" font-family="Times,serif" font-size="14.00" fill="#000000">mrpt&#45;tfest</text>
</a>
</g>
</g>
<!-- obs&#45;&gt;tfest -->
<g id="edge41" class="edge">
<title>obs&#45;&gt;tfest</title>
<path fill="none" stroke="#000000" d="M264.2477,-575.8314C264.1407,-568.131 264.0135,-558.9743 263.8947,-550.4166"/>
<polygon fill="#000000" stroke="#000000" points="267.3944,-550.3637 263.7557,-540.4133 260.3951,-550.4609 267.3944,-550.3637"/>
</g>
<!-- nav -->
<g id="node28" class="node">
<title>nav</title>
<g id="a_node28"><a xlink:href="group__mrpt__nav__grp.html" xlink:title="mrpt&#45;nav">
<polygon fill="#d0d0d0" stroke="#000000" points="84,-756 17,-756 17,-720 84,-720 84,-756"/>
<text text-anchor="middle" x="50.5" y="-734.3" font-family="Times,serif" font-size="14.00" fill="#000000">mrpt&#45;nav</text>
</a>
</g>
</g>
<!-- nav&#45;&gt;maps -->
<g id="edge38" class="edge">
<title>nav&#45;&gt;maps</title>
<path fill="none" stroke="#000000" d="M76.4912,-719.8314C89.4216,-710.7927 105.2222,-699.7476 119.1383,-690.0198"/>
<polygon fill="#000000" stroke="#000000" points="121.3263,-692.7608 127.5171,-684.1628 117.3157,-687.0235 121.3263,-692.7608"/>
</g>
<!-- nav&#45;&gt;kinematics -->
<g id="edge37" class="edge">
<title>nav&#45;&gt;kinematics</title>
<path fill="none" stroke="#000000" d="M50.88,-719.7623C51.3916,-695.201 52.3073,-651.2474 52.9093,-622.3541"/>
<polygon fill="#000000" stroke="#000000" points="56.414,-622.1604 53.1231,-612.0896 49.4155,-622.0145 56.414,-622.1604"/>
</g>
<!-- tfest&#45;&gt;poses -->
<g id="edge53" class="edge">
<title>tfest&#45;&gt;poses</title>
<path fill="none" stroke="#000000" d="M240.5369,-503.8314C229.3285,-494.9632 215.6791,-484.1637 203.5561,-474.5718"/>
<polygon fill="#000000" stroke="#000000" points="205.4697,-471.6229 195.4558,-468.1628 201.1263,-477.1125 205.4697,-471.6229"/>
</g>
<!-- poses&#45;&gt;bayes -->
<g id="edge44" class="edge">
<title>poses&#45;&gt;bayes</title>
<path fill="none" stroke="#000000" d="M172.5,-431.8314C172.5,-424.131 172.5,-414.9743 172.5,-406.4166"/>
<polygon fill="#000000" stroke="#000000" points="176.0001,-406.4132 172.5,-396.4133 169.0001,-406.4133 176.0001,-406.4132"/>
</g>
<!-- rtti&#45;&gt;core -->
<g id="edge45" class="edge">
<title>rtti&#45;&gt;core</title>
<path fill="none" stroke="#000000" d="M385.5743,-71.8314C376.5143,-63.1337 365.5191,-52.5783 355.6735,-43.1265"/>
<polygon fill="#000000" stroke="#000000" points="358.0574,-40.5633 348.4196,-36.1628 353.2096,-45.613 358.0574,-40.5633"/>
</g>
<!-- rtti&#45;&gt;typemeta -->
<g id="edge46" class="edge">
<title>rtti&#45;&gt;typemeta</title>
<path fill="none" stroke="#000000" d="M417.8741,-71.8314C423.9162,-63.6232 431.1763,-53.7606 437.8221,-44.7323"/>
<polygon fill="#000000" stroke="#000000" points="440.8363,-46.5415 443.9458,-36.4133 435.1989,-42.3918 440.8363,-46.5415"/>
</g>
<!-- ros1bridge -->
<g id="node33" class="node">
<title>ros1bridge</title>
<g id="a_node33"><a xlink:href="group__mrpt__ros1bridge__grp.html" xlink:title="mrpt&#45;ros1bridge">
<polygon fill="#d0d0d0" stroke="#000000" points="207,-756 102,-756 102,-720 207,-720 207,-756"/>
<text text-anchor="middle" x="154.5" y="-734.3" font-family="Times,serif" font-size="14.00" fill="#000000">mrpt&#45;ros1bridge</text>
</a>
</g>
</g>
<!-- ros1bridge&#45;&gt;maps -->
<g id="edge47" class="edge">
<title>ros1bridge&#45;&gt;maps</title>
<path fill="none" stroke="#000000" d="M154.2477,-719.8314C154.1407,-712.131 154.0135,-702.9743 153.8947,-694.4166"/>
<polygon fill="#000000" stroke="#000000" points="157.3944,-694.3637 153.7557,-684.4133 150.3951,-694.4609 157.3944,-694.3637"/>
</g>
<!-- topography -->
<g id="node34" class="node">
<title>topography</title>
<g id="a_node34"><a xlink:href="group__mrpt__topography__grp.html" xlink:title="mrpt&#45;topography">
<polygon fill="#d0d0d0" stroke="#000000" points="319,-684 210,-684 210,-648 319,-648 319,-684"/>
<text text-anchor="middle" x="264.5" y="-662.3" font-family="Times,serif" font-size="14.00" fill="#000000">mrpt&#45;topography</text>
</a>
</g>
</g>
<!-- topography&#45;&gt;obs -->
<g id="edge54" class="edge">
<title>topography&#45;&gt;obs</title>
<path fill="none" stroke="#000000" d="M264.5,-647.8314C264.5,-640.131 264.5,-630.9743 264.5,-622.4166"/>
<polygon fill="#000000" stroke="#000000" points="268.0001,-622.4132 264.5,-612.4133 261.0001,-622.4133 268.0001,-622.4132"/>
</g>
</g>
</svg>
